<?xml version="1.0" encoding="iso-8859-1"?>
<!-- Generator: Adobe Illustrator 16.0.4, SVG Export Plug-In . SVG Version: 6.00 Build 0)  -->
<!DOCTYPE svg PUBLIC "-//W3C//DTD SVG 1.1//EN" "http://www.w3.org/Graphics/SVG/1.1/DTD/svg11.dtd">
<svg version="1.1" id="Capa_1" xmlns="http://www.w3.org/2000/svg" xmlns:xlink="http://www.w3.org/1999/xlink" x="0px" y="0px"
	 width="300px" height="300px" viewBox="0 0 300 300" style="enable-background:new 0 0 300 300;" xml:space="preserve">
<path d="M291.376,243.703c-60.753-2.61,25.15-69.133-47.985-101.74v-13.654c-21.43-4.657-38.979-15.804-49.843-37.24l0.165-43.538
	c-5.564-26.42-57.103-27.388-63.528-0.048l0,0l-0.073,43.586c-6.479,17.166-20.724,30.162-47.03,37.273v13.838
	C-29.927,178.604,112.157,259.621,8.97,255.918c-1.277,2.945-1.302,5.773,0,8.432c113.31-4.489-24.756-88.885,74.112-112.883v99.982
	c0.023,16.478,7.675,21.199,17.375,21.199h125.872c14.173,0.021,17.062-8.525,17.062-21.473V150.27
	c63.967,21.501-22.988,96.79,47.985,100.982C292.219,248.859,292.198,246.334,291.376,243.703z M138.512,51.607
	c4.979-20.119,42.89-19.566,46.736,0v35.147h-46.736V51.607z M201.73,191.87c-24.512,10.579-49.469,11.86-75.039,0v-46.901
	c24.096,8.403,49.19,7.59,75.039,0V191.87z"/>
</svg>
