<?xml version="1.0" encoding="iso-8859-1"?>
<!-- Generator: Adobe Illustrator 16.0.4, SVG Export Plug-In . SVG Version: 6.00 Build 0)  -->
<!DOCTYPE svg PUBLIC "-//W3C//DTD SVG 1.1//EN" "http://www.w3.org/Graphics/SVG/1.1/DTD/svg11.dtd">
<svg version="1.1" id="Capa_1" xmlns="http://www.w3.org/2000/svg" xmlns:xlink="http://www.w3.org/1999/xlink" x="0px" y="0px"
	 width="300px" height="300px" viewBox="0 0 300 300" style="enable-background:new 0 0 300 300;" xml:space="preserve">
<path id="_233954448" d="M84.001,226.566c-18.621,0-33.705,15.087-33.705,33.708c0,18.622,15.084,33.709,33.705,33.709
	c18.624,0,33.71-15.087,33.71-33.709C117.711,241.653,102.625,226.566,84.001,226.566z M84.003,244.608
	c8.666,0,15.69,7.022,15.69,15.688s-7.024,15.689-15.69,15.689c-8.665,0-15.689-7.023-15.689-15.689S75.339,244.608,84.003,244.608
	L84.003,244.608z"/>
<path id="_233962248" d="M57.469,134.474h1.562h160.558h1.62l-1.892,8.014c8.053,0.122,15.754-5.926,20.05-9.79
	c3.071-4.029,16.575,4.771,6.888,13.891c-9.843,9.582-19.638,14.907-31.806,16.548l-11.405,48.354h-20.04l39.612,70.828
	c1.73,5.308-14.783,15.53-18.38,10.167L187.6,264.463l-64.503,0.008v-12.632l59.427,0.022l-25.29-40.371h-35.129l-11.341,19.788
	c-6.477-5.266-13.303-9.772-20.961-10.546l4.724-9.242H70.618L57.469,134.474L57.469,134.474z"/>
<polygon id="_233962464" points="52.86,117.48 225.758,117.48 225.758,129.827 52.86,129.827 "/>
<path id="_233963424" d="M162.344,49.952c29.76,21.689,29.412,62.536-0.49,65.071c6.549-19.889-28.892-14.735-24.557-42.727
	c-17.653,10.575-29.034,26.16-15.462,40.753c-38.917,2.121-47.047-17.153-27.942-46.873c12.558,20.841,29.484,9.804,16.887-12.785
	c15.359-6.904,23.283-23.466,25.537-47.391c9.03,7.916,10.905,19.225,9.453,33.03C129.982,59.168,155.271,67.726,162.344,49.952z"/>
</svg>
