<?xml version="1.0" encoding="utf-8"?>
<!-- Generator: Adobe Illustrator 17.0.2, SVG Export Plug-In . SVG Version: 6.00 Build 0)  -->
<!DOCTYPE svg PUBLIC "-//W3C//DTD SVG 1.0//EN" "http://www.w3.org/TR/2001/REC-SVG-20010904/DTD/svg10.dtd">
<svg version="1.0" id="Layer_1" xmlns="http://www.w3.org/2000/svg" xmlns:xlink="http://www.w3.org/1999/xlink" x="0px" y="0px"
	 width="24.873px" height="33.129px" viewBox="0 0 24.873 33.129" enable-background="new 0 0 24.873 33.129" xml:space="preserve">
<g>
	<path d="M5.421,13.323c-0.531,0-0.962,0.489-0.962,1.092v13.292c0,0.603,0.431,1.092,0.962,1.092s0.962-0.489,0.962-1.092V14.415
		C6.383,13.812,5.952,13.323,5.421,13.323z"/>
	<path d="M9.788,13.323c-0.531,0-0.962,0.489-0.962,1.092v13.292c0,0.603,0.431,1.092,0.962,1.092c0.531,0,0.962-0.489,0.962-1.092
		V14.415C10.75,13.812,10.319,13.323,9.788,13.323z"/>
	<path d="M14.155,13.323c-0.531,0-0.962,0.489-0.962,1.092v13.292c0,0.603,0.431,1.092,0.962,1.092c0.531,0,0.962-0.489,0.962-1.092
		V14.415C15.116,13.812,14.686,13.323,14.155,13.323z"/>
	<path d="M20.702,14.019h-2.141L18.327,9.84c-0.002-0.033-0.01-0.065-0.015-0.097c0.738-0.701,1.202-1.688,1.202-2.783
		c0-2.11-1.71-3.827-3.817-3.84c-0.255-1.401-1.479-2.468-2.952-2.468c-0.493,0-0.952,0.131-1.363,0.342
		C10.699,0.379,9.799,0,8.811,0C7.302,0,5.998,0.876,5.37,2.144C2.737,2.172,0.603,4.32,0.603,6.96c0,0.933,0.271,1.802,0.732,2.54
		C1.286,9.604,1.256,9.719,1.249,9.84L0.001,32.141c-0.014,0.257,0.078,0.509,0.254,0.695c0.177,0.187,0.422,0.293,0.68,0.293H18.64
		c0.257,0,0.503-0.106,0.68-0.293c0.177-0.186,0.269-0.438,0.254-0.695l-0.26-4.645h1.387c2.3,0,4.171-1.813,4.171-4.042V18.06
		C24.873,15.832,23.002,14.019,20.702,14.019z M4.994,3.417C5.134,3.4,5.277,3.389,5.421,3.389c0.287,0,0.564,0.038,0.831,0.102
		c0.059-0.432,0.219-0.83,0.465-1.167c0.472-0.649,1.232-1.076,2.093-1.076c0.6,0,1.146,0.213,1.586,0.556
		c0.347,0.271,0.63,0.619,0.804,1.03c0.209-0.389,0.557-0.688,0.981-0.833C12.359,1.94,12.546,1.9,12.744,1.9
		c0.852,0,1.564,0.609,1.725,1.415c0.022,0.111,0.035,0.226,0.035,0.344c0,0.321-0.035,0.603-0.152,0.95
		c0.064,0.049,0.866-0.239,1.307-0.242c0.005,0,0.01-0.001,0.015-0.001c1.43,0,2.594,1.164,2.594,2.593
		c0,0.807-0.378,1.521-0.959,1.997H9.733H8.378H2.462C2.076,8.386,1.85,7.699,1.85,6.96C1.85,5.136,3.226,3.629,4.994,3.417z
		 M1.925,31.258L3.05,11.15l0.018-0.322h5.215h8.225l0.2,3.573l0.077,1.382l0.574,10.253l0.074,1.328l0.218,3.893H1.925z
		 M18.804,18.377h1.624v4.761h-1.358L18.804,18.377z M23.625,23.454c0,1.541-1.311,2.794-2.924,2.794h-1.457l-0.104-1.863h1.561
		c0.537,0,0.975-0.418,0.975-0.931V18.06c0-0.513-0.437-0.931-0.975-0.931h-1.967l-0.104-1.863h2.071
		c1.612,0,2.924,1.253,2.924,2.794V23.454z"/>
</g>
</svg>
