<?xml version="1.0" encoding="utf-8"?>
<!-- Generator: Adobe Illustrator 17.0.0, SVG Export Plug-In . SVG Version: 6.00 Build 0)  -->
<!DOCTYPE svg PUBLIC "-//W3C//DTD SVG 1.1//EN" "http://www.w3.org/Graphics/SVG/1.1/DTD/svg11.dtd">
<svg version="1.1" id="Capa_1" xmlns="http://www.w3.org/2000/svg" xmlns:xlink="http://www.w3.org/1999/xlink" x="0px" y="0px"
	 width="25.439px" height="25.872px" viewBox="0 0 25.439 25.872" enable-background="new 0 0 25.439 25.872" xml:space="preserve">
<path d="M24.161,17.134v2.873c-0.148,0.347-0.382,0.709-0.579,0.718c-0.08,0.006-0.197-0.056-0.595-0.988
	c-0.376-0.879-0.787-1.296-1.265-1.289c-0.748,0.017-1.201,1.168-1.251,1.299l-0.005,0.013c-0.122,0.397-0.424,0.952-0.669,0.965
	c-0.082,0.006-0.361-0.056-0.76-0.988c-0.375-0.879-0.793-1.296-1.265-1.289c-0.748,0.017-1.2,1.168-1.251,1.299l-0.005,0.013
	c-0.123,0.397-0.424,0.952-0.669,0.965c-0.085,0.006-0.362-0.056-0.76-0.988c-0.371-0.868-0.779-1.289-1.247-1.289
	c-0.005,0-0.012,0-0.019,0c-0.748,0.017-1.201,1.168-1.25,1.299l-0.005,0.013c-0.123,0.397-0.425,0.952-0.67,0.965
	c-0.086,0.006-0.362-0.056-0.761-0.988c-0.376-0.879-0.791-1.296-1.263-1.289c-0.75,0.017-1.202,1.168-1.252,1.299L8.616,19.76
	c-0.123,0.397-0.425,0.952-0.67,0.965c-0.081,0.006-0.362-0.056-0.76-0.988c-0.37-0.868-0.78-1.289-1.246-1.289
	c-0.006,0-0.013,0-0.019,0c-0.749,0.017-1.201,1.168-1.251,1.299L4.666,19.76c-0.123,0.397-0.425,0.952-0.67,0.965
	c-0.084,0.006-0.362-0.056-0.761-0.988c-0.376-0.879-0.79-1.296-1.264-1.289c-0.27,0.005-0.5,0.16-0.689,0.36v-1.674h2.717v-3.719
	h2.755v-2.029h0.517V6.672c0,0,0.317-0.46,0.553-0.621c0.092-0.173,0.23-0.026,0.23-0.026l0.553,0.647v4.713h3.58V4.863
	c0,0,0.315-0.46,0.553-0.622c0.091-0.173,0.229-0.026,0.229-0.026l0.553,0.648v6.522h3.457V6.672c0,0,0.316-0.46,0.554-0.621
	c0.091-0.173,0.23-0.026,0.23-0.026l0.552,0.647v4.713h0.535v2.029h2.757v3.719v0.001H24.161z M1.282,24.568h22.875v-2.232H1.282
	V24.568z M23.568,21.219c-0.439,0-0.668-0.423-1.039-1.289c-0.269-0.63-0.558-0.99-0.794-0.99c-0.003,0-0.004,0-0.006,0
	c-0.328,0.008-0.677,0.656-0.798,0.974c-0.071,0.228-0.434,1.269-1.112,1.303c-0.012,0-0.023,0.001-0.034,0.001
	c-0.44,0-0.834-0.423-1.205-1.289c-0.27-0.63-0.558-0.99-0.795-0.99c0,0-0.003,0-0.005,0c-0.328,0.008-0.677,0.656-0.798,0.974
	c-0.071,0.228-0.434,1.269-1.112,1.303c-0.012,0-0.023,0.001-0.035,0.001c-0.439,0-0.834-0.423-1.206-1.289
	c-0.268-0.63-0.557-0.99-0.793-0.99c-0.002,0-0.004,0-0.005,0c-0.328,0.008-0.678,0.656-0.798,0.974
	c-0.072,0.228-0.434,1.269-1.113,1.303c-0.012,0-0.023,0.001-0.035,0.001c-0.439,0-0.833-0.423-1.204-1.289
	c-0.27-0.63-0.559-0.99-0.795-0.99c-0.001,0-0.004,0-0.005,0c-0.326,0.008-0.677,0.656-0.797,0.974
	c-0.072,0.228-0.436,1.269-1.114,1.303c-0.011,0-0.023,0.001-0.034,0.001c-0.44,0-0.834-0.423-1.205-1.289
	c-0.27-0.63-0.558-0.99-0.795-0.99c-0.002,0-0.003,0-0.005,0c-0.327,0.008-0.677,0.656-0.797,0.974
	c-0.073,0.228-0.434,1.269-1.113,1.303c-0.013,0-0.024,0.001-0.036,0.001c-0.439,0-0.832-0.423-1.203-1.289
	c-0.27-0.63-0.559-0.99-0.795-0.99c-0.002,0-0.004,0-0.005,0c-0.261,0.011-0.536,0.426-0.698,0.755v2.316h22.875v-1.069
	c-0.154,0.156-0.337,0.27-0.553,0.281C23.593,21.219,23.581,21.219,23.568,21.219z M7.694,5.967c0,0-0.295-0.504-0.014-0.876
	C7.925,4.85,8.006,4.817,8.219,4.936C8.436,5.059,8.481,5.358,8.38,5.671c0,0,0.461-0.487,0.394-0.973
	c-0.11-0.79-1.021-1.315-1.298-1.584c0,0,0.095,0.579-0.202,1.077C6.993,4.563,6.974,4.731,7.003,4.951
	C7.034,5.173,7.228,5.777,7.694,5.967z M12.61,4.157c0,0-0.294-0.505-0.014-0.876c0.244-0.241,0.326-0.275,0.539-0.156
	c0.218,0.123,0.263,0.423,0.162,0.736c0,0,0.46-0.487,0.394-0.973c-0.11-0.79-1.021-1.315-1.299-1.584c0,0,0.095,0.579-0.202,1.078
	c-0.281,0.371-0.3,0.538-0.271,0.759C11.95,3.363,12.144,3.967,12.61,4.157z M17.402,5.967c0,0-0.296-0.504-0.014-0.876
	c0.244-0.241,0.326-0.274,0.54-0.155c0.218,0.122,0.263,0.422,0.161,0.735c0,0,0.461-0.487,0.394-0.973
	c-0.109-0.79-1.021-1.316-1.298-1.584c0,0,0.095,0.579-0.201,1.077c-0.281,0.372-0.3,0.539-0.27,0.759
	C16.742,5.173,16.937,5.777,17.402,5.967z"/>
</svg>
