<?xml version="1.0" encoding="utf-8"?>
<!-- Generator: Adobe Illustrator 17.0.0, SVG Export Plug-In . SVG Version: 6.00 Build 0)  -->
<!DOCTYPE svg PUBLIC "-//W3C//DTD SVG 1.1//EN" "http://www.w3.org/Graphics/SVG/1.1/DTD/svg11.dtd">
<svg version="1.1" id="Capa_1" xmlns="http://www.w3.org/2000/svg" xmlns:xlink="http://www.w3.org/1999/xlink" x="0px" y="0px"
	 width="64px" height="64px" viewBox="0 0 64 64" enable-background="new 0 0 64 64" xml:space="preserve">
<g>
	<path d="M47.206,62V49.179l2.826-20.478c4.373-1.138,7.562-4.587,7.562-8.656c0-4.093-3.182-7.578-7.66-8.686
		c-2.753-5.934-9.705-9.936-17.626-9.936c-7.922,0-14.873,4.002-17.626,9.936c-4.479,1.108-7.66,4.593-7.66,8.686
		c0,4.125,3.279,7.607,7.744,8.696l2.82,20.438V62H47.206z M44.206,59H20.585v-7.454h23.621V59z M10.021,20.045
		c0-3.117,2.995-5.681,6.845-6.016c1.658-5.506,7.934-9.607,15.441-9.607c7.508,0,13.783,4.101,15.441,9.607
		c3.85,0.334,6.845,2.899,6.845,6.016c0,3.138-3.036,5.718-6.924,6.024l-0.108,0.715l-0.025,0.165l-0.322,2.137L45.468,40.7h-0.121
		l-0.948,6.873H20.393l-1.826-13.237l-0.789-5.24l-0.323-2.148l-0.029-0.192l-0.101-0.673
		C13.257,25.921,10.021,23.284,10.021,20.045z"/>
	<path d="M23.943,40.7l0.017,0.13c0.065,0.504,0.495,0.87,0.99,0.87c0.043,0,0.087-0.003,0.131-0.009
		c0.503-0.065,0.852-0.498,0.852-0.991c0-0.044,0.015-0.085,0.009-0.13l-1.24-9.474l-0.449-3.433l-0.094-0.715l-0.017-0.129
		c-0.071-0.548-0.572-0.938-1.121-0.861c-0.362,0.047-0.638,0.29-0.773,0.602c-0.053,0.122-0.079,0.25-0.079,0.389
		c0,0.044-0.015,0.085-0.009,0.13l0.407,3.107L23.943,40.7z"/>
	<path d="M39.637,41.691c0.044,0.006,0.088,0.009,0.131,0.009c0.495,0,0.925-0.366,0.99-0.87l0.017-0.13l1.384-10.571l0.399-3.05
		c0.006-0.045-0.009-0.086-0.009-0.13c0-0.157-0.036-0.303-0.103-0.437c-0.143-0.287-0.406-0.509-0.749-0.554
		c-0.553-0.076-1.05,0.313-1.121,0.861l-0.017,0.129l-0.086,0.661L40.02,31.06l-1.245,9.51c-0.006,0.045,0.009,0.086,0.009,0.13
		C38.785,41.194,39.134,41.626,39.637,41.691z"/>
	<path d="M31.872,40.7c0.155,0.098,0.327,0.169,0.524,0.169s0.369-0.071,0.524-0.169c0.28-0.177,0.476-0.475,0.476-0.831v-7.5
		v-3.006v-2.414v-1.873c0-0.553-0.447-1-1-1s-1,0.447-1,1v1.873v2.421v3.005v7.494C31.396,40.225,31.592,40.523,31.872,40.7z"/>
</g>
</svg>
