<?xml version="1.0" encoding="iso-8859-1"?>
<!-- Generator: Adobe Illustrator 16.0.0, SVG Export Plug-In . SVG Version: 6.00 Build 0)  -->
<!DOCTYPE svg PUBLIC "-//W3C//DTD SVG 1.1//EN" "http://www.w3.org/Graphics/SVG/1.1/DTD/svg11.dtd">
<svg version="1.1" id="Layer_1" xmlns="http://www.w3.org/2000/svg" xmlns:xlink="http://www.w3.org/1999/xlink" x="0px" y="0px"
	 width="30.061px" height="27.523px" viewBox="0 0 30.061 27.523" style="enable-background:new 0 0 30.061 27.523;"
	 xml:space="preserve">
<g>
	<path d="M22.582,25.391l7.479-0.001l-0.002-0.625h-7.525v-0.713h7.525l0-0.69l-7.525-0.001v-0.842l7.527,0.24v-0.652l-6.367-0.793
		c0,0-0.24-0.019-0.33-0.019c-0.982,0-1.859,0.455-2.431,1.167c-2.647,2.346-5.349,0.744-5.99,0.744
		c-0.711,0.002-11.644,0.002-11.644,0.002v0.002c-0.009,0-0.015-0.004-0.025-0.004c-0.669,0.001-1.212,0.544-1.212,1.214
		c0,0.669,0.544,1.213,1.212,1.214c0.011-0.001,0.017-0.004,0.024-0.004l0,0.002c0,0,10.798,0.001,11.623,0.001
		c0.745-0.002,3.851-1.354,6.16,0.907c0.003,0.002,0.01,0.006,0.014,0.01c0.522,0.552,1.243,0.917,2.053,0.972
		c0.056,0.004,0.199,0.002,0.199,0.002l6.713-0.772l0.001-0.716L22.58,26.25L22.582,25.391z"/>
	<path d="M4.79,12.999v6.804c0,0.555,0.45,1.004,1.005,1.004h13.287c0.555,0,1.004-0.449,1.004-1.004v-7.321
		c1.212-0.608,2.232-1.446,2.841-2.591c1.253-2.357,1.351-4.64,0.277-6.428c-1.072-1.782-3.164-2.804-5.742-2.804
		c-1.844,0-3.495,0.809-4.847,1.833c-1.207-1.336-3.537-2.555-6.027-2.49C4.98,0.044,2.7,0.639,0.964,3.242
		C0.07,4.583-0.204,5.999,0.149,7.453C0.817,10.201,3.614,12.245,4.79,12.999z M2.636,4.357c1.01-1.515,2.357-2.304,4.003-2.346
		c1.793-0.042,3.603,0.851,4.471,1.81c-1.37,1.386-2.197,2.727-2.267,2.844c-0.288,0.473-0.137,1.09,0.337,1.379
		c0.474,0.288,1.091,0.138,1.38-0.337c0.03-0.05,3.116-5.037,6.901-5.037c1.855,0,3.32,0.667,4.019,1.828
		c0.697,1.159,0.58,2.739-0.329,4.448c-1.665,3.132-8.769,3.258-11.367,3.043c-0.551-0.049-1.039,0.366-1.084,0.918
		c-0.046,0.554,0.364,1.04,0.917,1.086c0.112,0.009,0.87,0.068,1.979,0.068c1.691,0,4.199-0.14,6.479-0.806v5.541H6.799v-6.363
		c0-0.365-0.198-0.701-0.517-0.879c-0.035-0.02-3.559-2.009-4.181-4.581C1.885,6.079,2.06,5.223,2.636,4.357z"/>
</g>
<g>
</g>
<g>
</g>
<g>
</g>
<g>
</g>
<g>
</g>
<g>
</g>
<g>
</g>
<g>
</g>
<g>
</g>
<g>
</g>
<g>
</g>
<g>
</g>
<g>
</g>
<g>
</g>
<g>
</g>
</svg>
