<?xml version="1.0" encoding="iso-8859-1"?>
<!-- Generator: Adobe Illustrator 17.0.0, SVG Export Plug-In . SVG Version: 6.00 Build 0)  -->
<!DOCTYPE svg PUBLIC "-//W3C//DTD SVG 1.1//EN" "http://www.w3.org/Graphics/SVG/1.1/DTD/svg11.dtd">
<svg version="1.1" id="Capa_1" xmlns="http://www.w3.org/2000/svg" xmlns:xlink="http://www.w3.org/1999/xlink" x="0px" y="0px"
	 width="64px" height="64px" viewBox="0 0 64 64" style="enable-background:new 0 0 64 64;" xml:space="preserve">
<g>
	<path d="M15.353,61.012c2.376,0.533,11.079,1.94,14.786-4.959c0.474-0.881,0.858-1.701,1.192-2.485
		c-1.347-2.493-1.665-4.578-1.617-6.316c-0.599,0.216-1.295,0.077-1.677-0.661c-0.893-1.725-2.185-2.861-3.962-3.629
		c-0.751-0.324-0.913-1.412-0.538-2.052c0.45-0.768,1.302-0.862,2.052-0.538c1.868,0.806,3.404,2.112,4.499,3.791l0.002-0.012
		c0.152-0.907,0.549-1.873,1.115-2.795c-0.018-0.037-0.037-0.076-0.055-0.113c-1.304-2.72-5.429-5.054-8.264-4.314
		c-0.261,0.068-0.483,0.12-0.706,0.173c1.89-11.133,6.782-20.505,15.148-27.311c-3.821,8.218-1.947,18.447,1.311,27.05
		c0.666-0.036,1.143-0.086,1.47-0.135c0.28-0.299,0.697-0.793,1.262-1.549c-3.647-9.767-5.391-21.951,2.983-29.576
		c0.059-0.054,0.103-0.112,0.151-0.168c1.462-0.534-1.7-3.087-2.088-2.875C29.084,9.827,21.398,21.909,19.01,36.755
		c-0.332-0.23-0.706-0.499-1.165-0.854c-2.319-1.791-7.029-1.257-9.293,0.735c-2.259,1.987-5.723,4.618-4.865,14.024
		C4.398,58.462,12.96,60.572,15.353,61.012z"/>
	<path d="M60.078,45.729c-1.79-9.275-5.849-10.838-8.571-12.12c-0.877-0.413-1.955-0.611-3.071-0.611
		c-2.357,0-4.886,0.883-6.06,2.487c-0.211,0.288-0.404,0.543-0.581,0.77c-0.542,0.695-0.93,1.121-1.197,1.381
		c-0.332,0.065-0.838,0.134-1.585,0.184c-0.345,0.023-0.737,0.042-1.195,0.054c-2.323,0.061-4.884,2.207-6.093,4.576
		c-0.315,0.617-0.544,1.249-0.646,1.864c-0.331,1.982-0.885,4.531,0.743,8.013c0.81,1.732,2.15,3.69,4.345,5.933
		c2.202,2.249,4.806,2.986,7.272,2.986c3.671,0,7.035-1.631,8.311-2.332C53.927,57.826,61.563,53.419,60.078,45.729z M52.705,41.757
		c-1.422-2.019-3.556-2.983-5.973-2.311c-1.867,0.52-2.659-2.375-0.798-2.893c3.781-1.052,7.165,0.571,9.361,3.689
		C56.412,41.829,53.809,43.325,52.705,41.757z"/>
</g>
</svg>
