<?xml version="1.0" encoding="utf-8"?>
<!-- Generator: Adobe Illustrator 17.0.0, SVG Export Plug-In . SVG Version: 6.00 Build 0)  -->
<!DOCTYPE svg PUBLIC "-//W3C//DTD SVG 1.1//EN" "http://www.w3.org/Graphics/SVG/1.1/DTD/svg11.dtd">
<svg version="1.1" id="Capa_1" xmlns="http://www.w3.org/2000/svg" xmlns:xlink="http://www.w3.org/1999/xlink" x="0px" y="0px"
	 width="19.997px" height="26.401px" viewBox="0 0 19.997 26.401" enable-background="new 0 0 19.997 26.401" xml:space="preserve">
<path d="M12.257,23.933v-8.048h0.54l6.139-9.218h-3.323l1.75-3.145c0.066,0.013,0.129,0.04,0.2,0.04
	c0.598,0,1.082-0.484,1.082-1.081s-0.484-1.082-1.082-1.082c-0.596,0-1.08,0.484-1.08,1.082c0,0.341,0.166,0.63,0.411,0.83
	l-1.868,3.356H6.643C6.741,6.258,6.744,5.82,6.637,5.365C6.28,3.848,4.756,2.905,3.24,3.263C1.723,3.619,0.779,5.143,1.137,6.66
	c0.358,1.517,1.881,2.46,3.398,2.103c0.074-0.018,0.132-0.036,0.197-0.056l4.781,7.18h0.54v8.048c-2.019,0.056-3.52,0.27-3.52,0.525
	c0,0.299,2.069,0.542,4.622,0.542s4.62-0.242,4.62-0.542C15.773,24.204,14.276,23.99,12.257,23.933z M1.632,6.771l1.822-0.428
	l-0.98,1.583C2.092,7.643,1.79,7.247,1.632,6.771z M2.856,8.156l0.726-1.175l0.535,0.804l0.136,0.577
	C3.762,8.439,3.277,8.36,2.856,8.156z M4.311,6.668L4.266,6.476L3.997,6.308L3.833,6.577l0.021,0.09H3.777l0.056-0.09L3.761,6.271
	L3.456,6.342L3.62,6.076L3.353,5.909l-1.823,0.43c-0.069-0.497,0.023-0.987,0.24-1.411l1.583,0.981l0.306-0.071L3.586,5.531
	L2.008,4.554c0.287-0.371,0.687-0.658,1.158-0.808l0.421,1.786l0.266,0.165L4.02,5.43L3.601,3.651
	c0.484-0.06,0.956,0.034,1.369,0.244L4.02,5.43l0.072,0.307l0.306-0.072l0.948-1.529c0.36,0.279,0.644,0.662,0.796,1.119
	l-1.744,0.41L4.233,5.932l0.266,0.166l-0.306,0.07l0.072,0.308l0.311,0.191H4.311z M4.501,6.098l1.743-0.411
	c0.047,0.337,0.017,0.67-0.073,0.982H5.422L4.501,6.098z M10.06,14.861l-4.773-7.17h9.169l-1.286,2.311L13.754,10l1.286-2.309h1.982
	l-4.774,7.17H10.06z M10.958,13.971l2.211-3.968L7.08,10.005l3.248,4.656h1.717L15.226,10h-1.472l-2.35,4.218L10.958,13.971z
	 M11.595,10.892c0.315,0,0.571,0.256,0.571,0.571c0,0.314-0.257,0.569-0.571,0.569c-0.313,0-0.569-0.256-0.569-0.569
	C11.026,11.148,11.282,10.892,11.595,10.892z M9.022,11.149c-0.172,0-0.315-0.14-0.315-0.314c0-0.174,0.142-0.315,0.315-0.315
	c0.173,0,0.315,0.14,0.315,0.315C9.337,11.007,9.195,11.149,9.022,11.149z M11.28,11.462c0-0.174,0.141-0.315,0.315-0.315
	c0.174,0,0.315,0.141,0.315,0.315s-0.141,0.315-0.315,0.315C11.421,11.777,11.28,11.636,11.28,11.462z M3.964,5.765L3.786,5.809
	l0.069-0.112L3.964,5.765z M4.066,6.198l-0.069,0.11l-0.11-0.069L4.066,6.198z M4.164,6.041l0.029,0.127l-0.127,0.03L4.164,6.041z
	 M3.786,5.809L3.689,5.965l-0.03-0.127L3.786,5.809z M3.689,5.965L3.73,6.144L3.619,6.075L3.689,5.965z M4.164,6.041L4.122,5.862
	l0.111,0.069L4.164,6.041z M3.887,6.239L3.761,6.271L3.73,6.144L3.887,6.239z M3.964,5.765l0.128-0.029l0.029,0.126L3.964,5.765z"/>
</svg>
