<?xml version="1.0" encoding="utf-8"?>
<!-- Generator: Adobe Illustrator 15.0.0, SVG Export Plug-In . SVG Version: 6.00 Build 0)  -->
<!DOCTYPE svg PUBLIC "-//W3C//DTD SVG 1.1//EN" "http://www.w3.org/Graphics/SVG/1.1/DTD/svg11.dtd">
<svg version="1.1" id="Layer_1" xmlns="http://www.w3.org/2000/svg" xmlns:xlink="http://www.w3.org/1999/xlink" x="0px" y="0px"
	 width="26px" height="26px" viewBox="0 0 26 26" enable-background="new 0 0 26 26" xml:space="preserve">
<path fill="#000000" d="M5,13c0-0.51,0.449-1,1-1h8c0.551,0,1,0.501,1,1c0,6.002-1.449,8-2,8H7C6.449,21,5,18.982,5,13z"/>
<rect fill="none" width="26" height="26"/>
<path fill="#000000" d="M10,5c0.551,0,1,0.449,1,1v5H9V6C9,5.449,9.449,5,10,5L10,5z"/>
<path fill="none" stroke="#000000" stroke-width="2" stroke-linecap="round" stroke-linejoin="round" stroke-miterlimit="10" d="
	M8,18c0,0-2.896,0-4,0s-2-0.896-2-2s0.896-2,2-2c1.203,0,1.651,0.872,1.651,0.872"/>
<path fill="#000000" d="M25,4c0,2.209-1.791,4-4,4H8C5.791,8,4,6.209,4,4l0,0c0-2.209,1.791-4,4-4h13C23.209,0,25,1.791,25,4L25,4z"
	/>
<path fill="#000000" d="M23,6h-5v16H5c-0.551,0-1,0.449-1,1v2c0,0.551,0.449,1,1,1h20c0.551,0,1-0.449,1-1v-2L23,6z M21.5,21.115
	c-0.892,0-1.615-0.724-1.615-1.615s0.724-1.615,1.615-1.615s1.615,0.724,1.615,1.615S22.392,21.115,21.5,21.115z"/>
</svg>
