<?xml version="1.0" encoding="iso-8859-1"?>
<!-- Generator: Adobe Illustrator 16.0.0, SVG Export Plug-In . SVG Version: 6.00 Build 0)  -->
<!DOCTYPE svg PUBLIC "-//W3C//DTD SVG 1.1//EN" "http://www.w3.org/Graphics/SVG/1.1/DTD/svg11.dtd">
<svg version="1.1" id="Layer_1" xmlns="http://www.w3.org/2000/svg" xmlns:xlink="http://www.w3.org/1999/xlink" x="0px" y="0px"
	 width="19.005px" height="12.648px" viewBox="0 0 19.005 12.648" style="enable-background:new 0 0 19.005 12.648;"
	 xml:space="preserve">
<g>
	<path d="M17.11,5.229c-0.272,0.095-0.619,0.416-0.847,0.647c-0.009-0.574-0.028-0.972-0.033-1.086h0.504V4.078H2.113V4.79h0.57
		C2.679,4.906,2.659,5.322,2.65,5.919C2.427,5.7,2.132,5.444,1.896,5.36C1.458,5.206,0,5.36,0,5.36v0.59c0,0,1.433-0.05,1.739,0.13
		C2.05,6.259,2.381,7.773,2.638,7.773c0.01,0,0.025,0,0.037,0c0.068,1.617,0.297,3.37,0.917,3.937H2.821v0.938h13.138V11.71h-0.637
		c0.637-0.582,0.861-2.416,0.924-4.067c0.046,0,0.087,0,0.118,0c0.257,0,0.591-1.516,0.898-1.694
		c0.309-0.18,1.742-0.129,1.742-0.129V5.229C19.005,5.229,17.546,5.075,17.11,5.229z M4.463,10.51
		c-0.138-0.274-0.274-0.606-0.379-0.976c-0.063-0.18-0.089-0.386-0.133-0.586c-0.051-0.206-0.055-0.405-0.07-0.6
		C3.862,8.163,3.86,7.937,3.871,7.737c0.005-0.2,0.013-0.396,0.028-0.585c0.02-0.19,0.012-0.372,0.052-0.545
		c0.034-0.172,0.066-0.335,0.095-0.484C4.167,5.521,4.371,5.16,4.371,5.16S4.368,5.263,4.386,5.439
		c0.019,0.179,0.018,0.417,0.057,0.714c0.024,0.295,0.043,0.63,0.093,0.994c0.026,0.181,0.04,0.367,0.057,0.556
		c0.006,0.191,0.046,0.357,0.071,0.567c0.05,0.404,0.108,0.743,0.159,1.104c0.049,0.359,0.095,0.695,0.133,0.982
		c0.073,0.583,0.089,1.006,0.089,1.006S4.739,11.061,4.463,10.51z"/>
	<path d="M14.718,2.194c-0.317,0-1.208,0-2.351,0c-0.296-0.248-0.707-0.453-1.198-0.592c0.007-0.287-0.035-0.78-0.35-1.15
		C10.563,0.152,10.19,0,9.716,0C9.239,0,8.871,0.152,8.618,0.455c-0.297,0.354-0.339,0.821-0.33,1.116
		C7.751,1.71,7.301,1.928,6.979,2.194c-1.458,0-2.627,0-2.939,0c-0.936,0-1.154,1.046-1.154,1.427c0.423,0,12.875,0,13.182,0
		C16.067,3.161,15.859,2.194,14.718,2.194z M9.675,1.401c-0.262,0-0.512,0.021-0.756,0.052c0.007-0.195,0.049-0.435,0.186-0.595
		c0.129-0.152,0.329-0.228,0.611-0.228c0.285,0,0.488,0.075,0.621,0.231c0.143,0.165,0.191,0.409,0.201,0.605
		C10.263,1.426,9.973,1.401,9.675,1.401z"/>
</g>
<g>
</g>
<g>
</g>
<g>
</g>
<g>
</g>
<g>
</g>
<g>
</g>
<g>
</g>
<g>
</g>
<g>
</g>
<g>
</g>
<g>
</g>
<g>
</g>
<g>
</g>
<g>
</g>
<g>
</g>
</svg>
