<?xml version="1.0" encoding="utf-8"?>
<!-- Generator: Adobe Illustrator 16.0.4, SVG Export Plug-In . SVG Version: 6.00 Build 0)  -->
<!DOCTYPE svg PUBLIC "-//W3C//DTD SVG 1.1//EN" "http://www.w3.org/Graphics/SVG/1.1/DTD/svg11.dtd">
<svg version="1.1" id="Layer_1" xmlns="http://www.w3.org/2000/svg" xmlns:xlink="http://www.w3.org/1999/xlink" x="0px" y="0px"
	 width="22px" height="24px" viewBox="0 0 22 24" enable-background="new 0 0 22 24" xml:space="preserve">
<path d="M3.327,6.323L2.251,9.75C1.82,9.654,1.481,9.575,1.316,9.528C0.345,9.247-0.21,8.247,0.075,7.294
	C0.359,6.339,1.38,5.795,2.35,6.074C2.644,6.158,2.974,6.242,3.327,6.323z M4.647,21.727c-0.266,0.959,0.31,1.947,1.286,2.209
	C6.096,23.98,6.257,24,6.417,24c0.807,0,1.545-0.525,1.768-1.328c0,0,0.043-0.096,0.112-0.248l-3.489-1.16
	C4.709,21.547,4.647,21.727,4.647,21.727z M21.925,7.294c-0.284-0.954-1.303-1.5-2.274-1.22c-0.295,0.085-0.625,0.168-0.978,0.249
	l1.074,3.427c0.433-0.096,0.771-0.174,0.937-0.222C21.654,9.247,22.21,8.247,21.925,7.294z M17.191,21.264l-3.488,1.16
	c0.068,0.154,0.111,0.25,0.111,0.25C14.037,23.475,14.775,24,15.583,24c0.158,0,0.32-0.021,0.482-0.062
	c0.977-0.264,1.553-1.252,1.285-2.211C17.352,21.727,17.289,21.547,17.191,21.264z M17.773,6.515l1.076,3.43
	c-0.98,0.21-2.186,0.462-3.281,0.698C15.255,10.711,15,11.021,15,11.851c0,0.831,0,0.482,0,1.351c0,0.641,1.131,4.981,1.896,7.209
	l-3.562,1.188c-0.584-1.312-1.521-3.424-1.75-3.977c-0.336-0.816-0.813-0.879-1.16-0.019c-0.235,0.582-1.171,2.687-1.756,3.994
	l-3.564-1.187C5.87,18.186,7,13.844,7,13.202c0-0.872,0-0.55,0-1.351c0-0.802-0.248-1.139-0.556-1.205
	c-1.099-0.237-2.309-0.49-3.294-0.701l1.076-3.43c1.428,0.286,3.062,0.529,4.403,0.691C7.646,6.478,7,5.318,7,4c0-2.209,1.791-4,4-4
	c2.209,0,4,1.791,4,4c0,1.318-0.646,2.478-1.629,3.206C14.712,7.044,16.346,6.801,17.773,6.515z M11.718,3.5
	c0,0.431,0.351,0.781,0.781,0.781c0.432,0,0.781-0.35,0.781-0.781s-0.35-0.781-0.781-0.781C12.069,2.719,11.718,3.068,11.718,3.5z
	 M10.999,6.25c-0.932,0-1.271-0.534-1.286-0.556C9.644,5.576,9.488,5.54,9.373,5.607C9.253,5.677,9.213,5.83,9.284,5.949
	c0.02,0.032,0.485,0.801,1.715,0.801c1.231,0,1.696-0.769,1.717-0.801c0.068-0.118,0.029-0.269-0.088-0.34
	c-0.116-0.071-0.271-0.032-0.342,0.084C12.271,5.716,11.932,6.25,10.999,6.25z M8.718,3.5c0,0.431,0.35,0.781,0.781,0.781
	s0.781-0.35,0.781-0.781S9.931,2.719,9.5,2.719S8.718,3.068,8.718,3.5z M12,14c0-0.553-0.447-1-1-1c-0.551,0-1,0.447-1,1
	c0,0.551,0.448,1,1,1C11.552,15,12,14.551,12,14z M12,10c0-0.552-0.447-1-1-1c-0.551,0-1,0.448-1,1s0.448,1,1,1
	C11.552,11,12,10.552,12,10z"/>
</svg>
