<?xml version="1.0" encoding="iso-8859-1"?>
<!-- Generator: Adobe Illustrator 17.0.0, SVG Export Plug-In . SVG Version: 6.00 Build 0)  -->
<!DOCTYPE svg PUBLIC "-//W3C//DTD SVG 1.1//EN" "http://www.w3.org/Graphics/SVG/1.1/DTD/svg11.dtd">
<svg version="1.1" id="Capa_1" xmlns="http://www.w3.org/2000/svg" xmlns:xlink="http://www.w3.org/1999/xlink" x="0px" y="0px"
	 width="64px" height="64px" viewBox="0 0 64 64" style="enable-background:new 0 0 64 64;" xml:space="preserve">
<g>
	<ellipse cx="24.617" cy="35.383" rx="6.826" ry="9.645"/>
	<polygon points="37.769,57.316 39.183,57.316 41.997,15.76 39.904,15.514 	"/>
	<polygon points="50.174,16.717 48.457,16.516 43.699,57.316 45.975,57.316 	"/>
	<polygon points="45.94,16.221 44.752,16.082 40.722,57.316 42.154,57.316 	"/>
	<path d="M47.287,12.61c-0.055,0-0.109,0.011-0.164,0.017c-0.275-0.209-0.615-0.338-0.987-0.338c-0.508,0-0.955,0.234-1.257,0.596
		c-0.162-1.11-1.11-1.967-2.268-1.967c-0.652,0-1.238,0.273-1.656,0.709c-0.084-0.827-0.773-1.477-1.625-1.477
		c-0.496,0-0.936,0.225-1.236,0.573c-0.363-0.366-0.867-0.595-1.424-0.595c-0.172,0-0.338,0.029-0.498,0.07
		c0.018-0.095,0.029-0.189,0.029-0.289c0-0.906-0.735-1.641-1.641-1.641c-0.542,0-1.017,0.266-1.316,0.67
		c-0.393-1.023-1.375-1.752-2.536-1.752c-1.106,0-2.056,0.664-2.481,1.611c-0.036-0.002-0.07-0.01-0.106-0.01
		c-0.688,0-1.289,0.354-1.641,0.887c-0.021,0-0.041-0.006-0.062-0.006c-0.934,0-1.701,0.682-1.85,1.572
		c-0.336-0.723-1.065-1.228-1.916-1.228c-0.681,0-1.279,0.327-1.668,0.827c-0.227-0.119-0.48-0.193-0.756-0.193
		c-0.729,0-1.34,0.479-1.554,1.136c-0.354-0.171-0.748-0.273-1.169-0.273c-1.503,0-2.722,1.219-2.722,2.722
		c0,0.744,0.286,1.592,0.771,2.084l19.043-1.998l14.312,1.635v-1.947h-0.015C48.776,13.217,48.107,12.61,47.287,12.61z"/>
	<path d="M16.281,16.998l-3.284,0.34l3.889,40.756l2.853-0.131L18.413,42.26c-1.136-1.877-1.82-4.27-1.82-6.877
		c0-1.723,0.306-3.346,0.835-4.795L16.281,16.998z"/>
	<path d="M31.986,57.4l1.855-0.084h1.895l1.557-42.107l-1.74-0.203l-2.824,0.291l-0.324,18.418c0.062,0.545,0.104,1.1,0.104,1.668
		c0,0.768-0.061,1.518-0.174,2.242L31.986,57.4z"/>
	<path d="M29.117,15.671l-3.246,0.335l0.227,8.68c1.155,0.291,2.224,0.914,3.15,1.795L29.117,15.671z"/>
	<path d="M26.964,57.631l2.661-0.123L29.462,44.07c-0.827,0.842-1.775,1.471-2.806,1.836L26.964,57.631z"/>
	<path d="M22.928,16.31l-2.756,0.285l0.428,9.357c0.811-0.633,1.711-1.076,2.668-1.295L22.928,16.31z"/>
	<path d="M22.058,57.855l2.56-0.117l-0.469-11.5c-0.938-0.072-1.834-0.35-2.659-0.818L22.058,57.855z"/>
</g>
</svg>
