<?xml version="1.0" encoding="utf-8"?>
<!-- Generator: Adobe Illustrator 16.0.4, SVG Export Plug-In . SVG Version: 6.00 Build 0)  -->
<!DOCTYPE svg PUBLIC "-//W3C//DTD SVG 1.1//EN" "http://www.w3.org/Graphics/SVG/1.1/DTD/svg11.dtd">
<svg version="1.1" id="Layer_1" xmlns="http://www.w3.org/2000/svg" xmlns:xlink="http://www.w3.org/1999/xlink" x="0px" y="0px"
	 width="26px" height="26px" viewBox="0 0 26 26" enable-background="new 0 0 26 26" xml:space="preserve">
<path fill="#333333" d="M15,7V1c0-0.552-0.447-1-1-1h-2c-0.553,0-1,0.448-1,1v6c0,0-3,0.598-3,4v14c0,0.553,0.447,1,1,1h8
	c0.553,0,1-0.447,1-1V11C18,7.598,15,7,15,7z M16,15h-5v1h5v6h-5v2h-1v-3v-6v-1v-2v-1c0-2.321,2.5-2.719,2.5-2.719S11,9.226,11,11v2
	h5V15z"/>
</svg>
