<?xml version="1.0" standalone="no"?>
<!DOCTYPE svg PUBLIC "-//W3C//DTD SVG 1.1//EN" "http://www.w3.org/Graphics/SVG/1.1/DTD/svg11.dtd" >
<svg xmlns="http://www.w3.org/2000/svg" xmlns:xlink="http://www.w3.org/1999/xlink" version="1.1">
<metadata>
Created by FontForge 20170924 at Sat Dec  7 18:27:21 2019
 By www-data
</metadata>
<defs>
<font id="maison" horiz-adv-x="512" >
  <font-face 
    font-family="maison"
    font-weight="400"
    font-stretch="normal"
    units-per-em="512"
    panose-1="2 0 5 3 0 0 0 0 0 0"
    ascent="480"
    descent="-32"
    bbox="-0.128 -32.023 819.773 480.001"
    underline-thickness="0"
    underline-position="0"
    unicode-range="U+0020-E637"
  />
<missing-glyph 
 />
    <glyph glyph-name=".notdef" 
 />
    <glyph glyph-name="space" unicode=" " horiz-adv-x="256" 
 />
    <glyph glyph-name="uniE600" unicode="&#xe600;" 
d="M448.368 373.864c-33.224 19.176 -79.024 19.984 -119.504 2.104c-37.456 -16.552 -64.456 -53.024 -80.416 -80.432c-7.184 1.752 -14.872 -1.664 -18.208 -8.616c-3.192 -6.648 -1.328 -14.36 3.984 -18.968c-1.456 -3.24 -2.344 -5.416 -2.68 -6.264l-77.52 -170.272
c-7.816 3.6 -17.128 0.392 -20.984 -7.376c-3.928 -7.912 -0.704 -17.512 7.208 -21.448l0.528 -0.264l-17.44 -38.328h-43.336c-8.832 0 -16 -7.168 -16 -16s7.168 -16 16 -16h80c8.832 0 16 7.168 16 16s-7.168 16 -16 16h-1.504l11.096 24.376
c1.464 -0.424 2.944 -0.712 4.424 -0.712c5.88 0 11.544 3.256 14.344 8.88c3.664 7.376 1.056 16.152 -5.712 20.504l80.328 176.44c2.168 -1 4.432 -1.496 6.68 -1.496c5.96 0 11.68 3.344 14.432 9.08c3.664 7.624 0.688 16.664 -6.56 20.776
c13.688 23.064 35.6 52.176 64.28 64.848c30.832 13.624 66.384 13.416 90.568 -0.544c17.784 -10.264 28 -26.592 30.384 -48.544c4.464 -41.112 0.68 -68.68 -11.216 -81.952c-1.096 -1.224 -2.304 -2.272 -3.536 -3.264v-35.816c9.856 3.328 19.32 8.76 27.352 17.712
c18.496 20.6 24.776 55.528 19.216 106.768c-3.44 31.752 -19.856 57.608 -46.208 72.808zM402.8 104c10.44 0 20.312 -2.376 29.2 -6.52v126.52c0 8.84 0.84 8 -8 8h-31.336c-8.84 0 -98 -7.336 -121.552 -123.76l-15.112 -96.24c0 -8.84 7.16 -20 16 -20h75.928
c-9.136 11.768 -14.632 26.488 -14.632 42.496c0 38.328 31.184 69.504 69.504 69.504zM440 72.864c-2.456 2.376 -5.128 4.52 -8 6.4c-8.408 5.504 -18.432 8.736 -29.2 8.736c-29.504 0 -53.504 -24 -53.504 -53.504c0 -17.328 8.32 -32.72 21.136 -42.496
c4.464 -3.408 9.464 -6.12 14.864 -8c5.496 -1.912 11.368 -3 17.504 -3s12.008 1.088 17.504 3c5.664 1.968 10.904 4.856 15.528 8.496c4.352 3.424 8.184 7.48 11.296 12.072c5.792 8.552 9.184 18.856 9.184 29.936c0 10.48 -3.072 20.232 -8.296 28.488
c-2.296 3.6 -4.968 6.92 -8.016 9.872zM402.8 61.336c14.816 0 26.832 -12.016 26.832 -26.832s-12.016 -26.832 -26.832 -26.832s-26.832 12.016 -26.832 26.832s12.008 26.832 26.832 26.832z" />
    <glyph glyph-name="uniE601" unicode="&#xe601;" 
d="M418.704 27.096c10.76 0 19.504 8.752 19.504 19.504v242.104c0 10.752 -8.752 19.504 -19.504 19.504h-38.016c-0.944 3.08 -2.544 5.936 -4.888 8.272l-105.656 105.664c-7.8 7.8 -20.488 7.8 -28.28 0l-105.656 -105.648c-2.344 -2.344 -3.952 -5.2 -4.896 -8.28
h-36.68c-10.76 0 -19.504 -8.752 -19.504 -19.504v-242.104c0 -10.752 8.752 -19.504 19.504 -19.504h324.072v-0.008zM256 402.344l94.136 -94.136h-188.272zM99.128 284.208h315.088v-233.112h-315.088zM264.744 226.376h-7.096c-6.264 0 -12.28 -4.792 -13.688 -10.896
l-11.992 -52.056l-10.784 51.936c-1.28 6.176 -7.224 11.024 -13.536 11.024h-7.92c-6.328 0 -12.24 -4.864 -13.464 -11.08l-9.944 -50.664l-11.728 50.848c-1.408 6.112 -7.424 10.896 -13.696 10.896h-8.072c-3.368 0 -6.352 -1.4 -8.2 -3.832
c-1.84 -2.448 -2.376 -5.704 -1.464 -8.952l26.4 -93.096c1.688 -5.952 7.84 -10.608 14.032 -10.608h5.056c6.32 0 12.264 4.84 13.528 11.024l11.4 55.176l11.4 -55.176c1.264 -6.184 7.208 -11.032 13.528 -11.032h5.712c6.184 0 12.344 4.664 14.016 10.624
l26.184 93.088c0.912 3.248 0.376 6.504 -1.48 8.952c-1.84 2.432 -4.824 3.824 -8.192 3.824zM330.992 201.08c6.768 0 11.648 -1.856 14.912 -5.664c0.992 -1.16 1.92 -2.712 2.768 -4.608c2.2 -4.968 8.016 -8.568 13.832 -8.568h6.672c3.584 0 6.928 1.624 8.96 4.336
c1.848 2.488 2.408 5.648 1.504 8.664c-1.328 4.496 -3.544 9.04 -6.608 13.528c-9.112 13.048 -23.544 19.664 -42.904 19.664c-14.544 0 -26.728 -4.912 -36.2 -14.592c-10.76 -10.992 -16.216 -26.664 -16.216 -46.592c0 -18.432 4.792 -33.232 14.248 -44.008
c9.584 -10.856 22.84 -16.368 39.408 -16.368c13.464 0 24.712 4.096 33.416 12.176c6.648 6.168 11.424 13.84 14.176 22.816c0.96 3.112 0.464 6.328 -1.384 8.824c-1.944 2.64 -5.088 4.152 -8.624 4.152h-6.52c-5.84 0 -11.68 -3.8 -13.872 -9.032
c-0.872 -2.088 -1.832 -3.784 -2.888 -5.088c-3.296 -4.216 -8.088 -6.264 -14.64 -6.264c-6.368 0 -11.48 2.488 -15.632 7.608c-4.312 5.312 -6.496 13.664 -6.496 24.824c0 11.28 2.112 20 6.264 25.928c3.896 5.56 9.072 8.264 15.824 8.264z" />
    <glyph glyph-name="uniE602" unicode="&#xe602;" horiz-adv-x="486" 
d="M42.237 -10.366c0 -14.423 7.039 -21.634 21.118 -21.634c14.079 0 21.118 7.212 21.118 21.634v194.704h21.634v-194.704c0 -14.423 7.04 -21.634 21.118 -21.634c14.08 0 21.118 7.212 21.118 21.634v331.719h10.302v-119.501c0 -7.555 2.576 -13.05 7.726 -16.483
s10.474 -3.433 15.968 0s8.242 8.928 8.242 16.483v128.773c0 13.736 -4.636 24.381 -13.907 31.935s-22.149 11.332 -38.632 11.332h-84.475c-15.796 0 -28.673 -3.433 -38.632 -10.302s-14.938 -17.513 -14.938 -31.936v-137.014c0 -6.181 2.748 -10.645 8.242 -13.392
c5.494 -2.747 10.817 -2.748 15.968 0s7.727 7.212 7.727 13.392v126.712h10.302v-331.718zM463.582 147.252l-61.811 171.01c-0.687 0.687 -1.03 1.373 -1.03 2.06c0 3.433 1.717 5.151 5.151 5.151c2.06 0 3.433 -1.373 4.12 -4.12l42.238 -110.229
c3.438 -7.555 10.992 -11.332 22.664 -11.332c4.12 0 7.039 3.091 8.757 9.272s2.575 10.302 2.575 12.362l-43.267 106.108c-1.373 13.05 -7.555 24.037 -18.543 32.966s-23.694 13.392 -38.116 13.392h-54.599c-14.423 0 -27.3 -4.636 -38.632 -13.907
s-18.028 -20.089 -20.089 -32.45l-40.177 -107.139c-1.373 -2.06 -1.03 -6.009 1.03 -11.847s5.151 -8.757 9.272 -8.757c13.05 0 20.603 3.433 22.664 10.302l41.207 111.26c0.687 2.06 2.06 3.09 4.12 3.09c2.748 0 4.12 -1.373 4.12 -4.12v-1.03l-60.781 -172.04v-13.392
c0 -1.375 1.717 -3.779 5.151 -7.212c3.438 -3.433 5.842 -5.151 7.212 -5.151h39.147v-132.894c0 -5.494 2.233 -10.302 6.696 -14.423c4.467 -4.12 9.445 -6.181 14.938 -6.181c5.494 0 10.302 2.06 14.423 6.181s6.181 8.928 6.181 14.423v138.044
c0 0.687 1.889 1.202 5.666 1.546s7.384 0.343 10.817 0c3.433 -0.347 5.151 -0.863 5.151 -1.546v-137.014c0 -5.494 2.06 -10.474 6.181 -14.938s9.099 -6.696 14.938 -6.696s10.817 2.233 14.938 6.696s6.181 9.443 6.181 14.938v131.863h40.177
c2.06 0 4.464 1.717 7.212 5.151s4.12 5.838 4.12 7.212v13.392zM50.479 436.217c0 -12.019 4.293 -22.321 12.877 -30.905c8.584 -8.584 18.886 -12.877 30.906 -12.877s22.321 4.293 30.906 12.877s12.878 19.058 12.878 31.421c0 11.677 -4.293 21.807 -12.877 30.39
c-8.585 8.584 -18.886 12.877 -30.906 12.877s-22.321 -4.293 -30.906 -12.877s-12.877 -18.887 -12.877 -30.906h-0.001zM314.205 436.217c0 -12.019 4.293 -22.321 12.877 -30.905s18.887 -12.877 30.906 -12.877s22.321 4.293 30.906 12.877s12.877 18.886 12.877 30.905
s-4.293 22.321 -12.877 30.906s-18.887 12.877 -30.906 12.877s-22.321 -4.293 -30.906 -12.877s-12.877 -18.887 -12.877 -30.906z" />
    <glyph glyph-name="uniE603" unicode="&#xe603;" 
d="M184 104h-120v-48h120v48zM127 71.504c-5.52 0 -10 4.48 -10 10s4.48 10 10 10c5.52 0 10 -4.48 10 -10s-4.48 -10 -10 -10zM184 192h-120v-48h120v48zM127 159.504c-5.52 0 -10 4.48 -10 10s4.48 10 10 10c5.52 0 10 -4.48 10 -10s-4.48 -10 -10 -10zM216 224h-184v-224
h24v24h136v-24h24v160h256v-160h24v224h-280zM192 48h-136v64h136v-64zM192 136h-136v64h136v-64zM472 176h-256v24h256v-24zM288 272v-24h-16v-16h120v16h-16v24h-88zM464 448h-256v-168h256v168zM336 292c-5.52 0 -10 4.48 -10 10s4.48 10 10 10s10 -4.48 10 -10
s-4.48 -10 -10 -10zM448 328h-224v104h224v-104z" />
    <glyph glyph-name="uniE604" unicode="&#xe604;" horiz-adv-x="289" 
d="M252.576 238.06v112.412l-37.406 11.902v88.752l-68.927 28.873l-72.825 -30.204l-1.075 -92.555l-34.632 -10.908v-108.514l-37.712 -6.994v-245.534l143.852 -17.292l144.493 16.153v247.298l-35.77 6.608zM26.563 203.62l9.544 1.396v-13.811l-9.544 -1.235v13.651
v-0.001zM26.387 157.519l9.528 0.866v-13.811l-9.528 -0.706v13.651zM36.268 136.25v-13.811l-9.544 -0.449v13.666zM10.475 201.712l9.159 1.363v-13.555l-9.159 -1.203v13.394v0.001zM10.298 156.525l9.143 0.85v-13.555l-9.143 -0.69v13.394zM19.939 135.673v-13.555
l-9.159 -0.449v13.41zM9.881 112.975l9.143 0.353v-13.555l-9.143 -0.192v13.394zM19.216 54.378l-9.143 0.321v13.378l9.143 -0.144v-13.555zM20.131 76.659l-9.159 0.064v13.394l9.159 0.096v-13.555v0.001zM20.355 166.214l-9.191 -0.93v13.41l9.175 1.075v-13.555z
M20.532 211.978l-9.175 -1.459v13.41l9.175 1.62v-13.57v-0.001zM25.953 113.12l9.512 0.353v-13.811l-9.512 -0.192v13.651zM35.675 53.336l-9.528 0.337v13.651l9.528 -0.161v-13.827zM36.444 76.065l-9.544 0.08v13.666l9.544 0.096v-13.843v0.001zM36.685 167.417
l-9.544 -0.995v13.683l9.544 1.123v-13.811zM36.894 214.079l-9.56 -1.508v13.683l9.56 1.636v-13.811zM131.998 314.862v-15.399l-11.806 -2.759v15.19l11.806 2.967v0.001zM131.742 351.162l-11.806 -3.401v15.19l11.806 3.609v-15.399v0.001zM119.871 384.943v15.191
l11.79 4.075v-15.383l-11.79 -3.882zM119.871 451.512l11.79 4.732v-15.383l-11.79 -4.555v15.207zM119.679 425.077l11.806 4.395v-15.383l-11.806 -4.202zM111.787 310.355v-15.062l-11.308 -2.647v14.87zM111.546 345.885l-11.308 -3.273v14.87l11.308 3.449z
M100.174 379.009v14.869l11.293 3.914v-15.062zM100.174 444.149l11.293 4.54v-15.062l-11.293 -4.347v14.87v-0.001zM99.997 418.276l11.308 4.219v-15.046l-11.308 -4.026zM91.368 305.767v-14.726l-10.811 -2.535v14.549l10.811 2.711v0.001zM91.159 340.495
l-10.828 -3.128v14.549l10.828 3.304v-14.726v0.001zM80.267 372.961v14.549l10.811 3.721v-14.726l-10.811 -3.545v0.001zM80.267 436.675l10.811 4.347v-14.726l-10.811 -4.171v14.549v0.001zM80.107 411.379l10.811 4.026v-14.709l-10.811 -3.849v14.533v-0.001z
M61.708 345.371l10.362 3.144v-14.388l-10.362 -2.983v14.228zM72.279 300.12v-14.404l-10.362 -2.406v14.244l10.362 2.567v-0.001zM44.401 340.591l9.945 3.031v-14.115l-9.945 -2.872v13.956zM54.554 296.207v-14.132l-9.961 -2.31v13.956zM43.599 317.397l9.929 2.759
v-14.099l-9.929 -2.599v13.94v-0.001zM43.791 270.558l9.929 2.214v-14.115l-9.929 -2.053v13.955v-0.001zM54.33 145.377l-9.945 -0.738v13.94l9.945 0.914v-14.115v-0.001zM54.699 136.86v-14.132l-9.961 -0.465v13.956l9.961 0.642v-0.001zM44.577 205.673l9.945 1.443
v-14.115l-9.945 -1.3v13.971v0.001zM43.935 113.216l9.929 0.353v-14.099l-9.929 -0.224v13.971v-0.001zM54.089 52.117l-9.945 0.337v13.955l9.945 -0.192v-14.099v-0.001zM54.907 75.344l-9.961 0.08v13.971l9.961 0.08v-14.132v0.001zM55.148 168.7l-9.961 -1.01v13.955
l9.961 1.171v-14.115v-0.001zM55.356 216.373l-9.977 -1.572v13.971l9.977 1.732v-14.132zM60.874 321.696l10.346 2.887v-14.388l-10.346 -2.711zM61.099 273.911l10.346 2.294v-14.389l-10.346 -2.134v14.228zM72.038 146.163l-10.362 -0.77v14.244l10.362 0.947v-14.421z
M72.439 137.485v-14.404l-10.362 -0.481v14.244l10.362 0.642v-0.001zM61.901 207.695l10.362 1.508v-14.404l-10.362 -1.332v14.228zM61.227 113.36l10.346 0.369v-14.404l-10.346 -0.209zM71.797 51.01l-10.346 0.353v14.244l10.346 -0.209v-14.389v0.001zM72.648 74.702
l-10.362 0.096v14.244l10.362 0.096v-14.437v0.001zM72.904 169.983l-10.379 -1.043v14.26l10.379 1.219v-14.437v0.001zM73.129 218.666l-10.379 -1.636v14.26l10.379 1.797v-14.42v-0.001zM80.107 327.903l10.811 3.015v-14.726l-10.811 -2.839v14.549v0.001z
M80.347 279.043l10.811 2.422v-14.742l-10.811 -2.229zM81.198 211.368l10.828 1.588v-14.741l-10.828 -1.396v14.549zM80.701 138.88l10.828 0.69v-14.726l-10.828 -0.514v14.549v0.001zM80.492 114.916l10.828 0.385v-14.726l-10.828 -0.224v14.565zM91.528 51.187
l-10.828 0.369v14.549l10.828 -0.209v-14.709zM91.769 75.424l-10.828 0.08v14.549l10.828 0.113v-14.741v-0.001zM91.8 148.489l-10.828 -0.802v14.549l10.828 0.995v-14.741v-0.001zM92.009 172.774l-10.828 -1.091v14.565l10.828 1.283v-14.757zM92.249 222.516
l-10.844 -1.7v14.565l10.844 1.877v-14.741v-0.001zM99.997 332.923l11.308 3.144v-15.046l-11.308 -2.968zM100.237 282.974l11.308 2.518v-15.046l-11.308 -2.342v14.869v0.001zM100.623 139.651l11.325 0.722v-15.062l-11.325 -0.529v14.87v-0.001zM100.398 115.14
l11.308 0.417v-15.062l-11.308 -0.224v14.87v-0.001zM111.948 49.952l-11.325 0.385v14.885l11.325 -0.209v-15.062v0.001zM112.188 74.767l-11.325 0.08v14.885l11.325 0.113v-15.078zM112.22 149.5l-11.325 -0.834v14.885l11.325 1.01v-15.062v0.001zM112.46 174.33
l-11.325 -1.139v14.885l11.325 1.332v-15.078zM112.46 200.348l-11.325 -1.476v14.901l11.325 1.652v-15.078v0.001zM112.685 225.211l-11.325 -1.781v14.901l11.325 1.973v-15.094v0.001zM119.679 337.88l11.806 3.273v-15.399l-11.806 -3.08v15.207zM119.936 286.823
l11.806 2.615v-15.383l-11.806 -2.422zM120.85 216.132l11.838 1.7v-15.399l-11.838 -1.54v15.238v0.001zM120.337 140.373l11.822 0.754v-15.399l-11.822 -0.546v15.19zM120.096 115.349l11.806 0.417v-15.399l-11.806 -0.24v15.223zM132.159 48.716l-11.822 0.401v15.207
l11.822 -0.224v-15.383v-0.001zM132.415 74.06l-11.822 0.096v15.207l11.822 0.113v-15.415v-0.001zM132.447 150.446l-11.822 -0.866v15.223l11.822 1.058v-15.415zM132.688 175.838l-11.838 -1.187v15.207l11.838 1.38v-15.399v-0.001zM132.945 227.841l-11.838 -1.845
v15.207l11.838 2.053v-15.415zM208.528 280.182v-15.864l-10.506 2.166v16.056zM208.496 312.52l-10.506 2.743v16.04l10.506 -2.919v-15.864zM198.101 187.692l10.506 -1.235v-15.848l-10.506 1.043v16.041v-0.001zM198.262 162.974l10.506 -0.962v-15.848l-10.506 0.77
v16.041v-0.001zM198.454 196.675v16.041l10.49 -1.54v-15.848l-10.49 1.348v-0.001zM208.8 219.757l-10.506 1.636v16.041l10.506 -1.813v-15.864zM208.672 335.458l-10.506 3.016v16.041l10.506 -3.176v-15.88v-0.001zM198.149 443.636l10.506 -4.235v-15.848
l-10.506 4.042v16.041zM197.973 420.457l10.523 -3.962v-15.864l-10.523 3.769v16.056v0.001zM188.975 283.823v-16.217l-10.988 2.245v16.409l10.988 -2.438v0.001zM188.958 316.851l-11.004 2.855v16.393l11.004 -3.031v-16.217zM178.099 189.312l10.988 -1.283v-16.217
l-10.988 1.091v16.409zM178.259 164.048l10.988 -0.995v-16.217l-10.988 0.786v16.425v0.001zM178.452 198.471v16.394l10.988 -1.588v-16.217zM189.263 222.051l-10.988 1.685v16.41l10.988 -1.893v-16.201v-0.001zM189.119 340.303l-10.988 3.128v16.41l10.988 -3.321
v-16.217zM178.115 450.95l11.004 -4.411v-16.217l-11.004 4.235v16.393zM177.954 427.243l11.004 -4.123v-16.217l-11.004 3.93v16.41zM168.25 287.128v-16.586l-11.517 2.342v16.794zM168.218 320.925l-11.501 2.968v16.762l11.517 -3.16v-16.57h-0.016zM156.829 190.467
l11.501 -1.332v-16.57l-11.501 1.107v16.794v0.001zM157.022 164.625l11.501 -1.01v-16.57l-11.501 0.802v16.779v-0.001zM157.23 199.851v16.779l11.485 -1.652v-16.57zM168.538 223.944l-11.501 1.749v16.794l11.501 -1.973v-16.57zM168.394 344.906l-11.501 3.256v16.779
l11.501 -3.465v-16.57zM156.877 458.185l11.501 -4.603v-16.586l-11.501 4.395v16.795v-0.001zM156.701 433.916l11.517 -4.315v-16.586l-11.517 4.106v16.795zM156.556 406.887l11.501 -3.978v-16.57l-11.501 3.769v16.779zM156.572 315.552l11.501 -2.872v-16.586
l-11.501 2.662v16.795v0.001zM156.653 139.202l11.517 -0.706v-16.57l-11.517 0.481v16.795zM156.829 113.36l11.501 -0.385v-16.57l-11.501 0.176v16.779zM157.07 87.134l11.485 -0.08v-16.57l-11.485 -0.144v16.794zM168.747 44.979l-11.501 -0.465v16.794l11.501 0.257
v-16.586zM177.81 400.839l11.004 -3.817v-16.217l-11.004 3.625v16.41v-0.001zM177.826 311.558l10.988 -2.743v-16.233l-10.988 2.55v16.425v0.001zM177.906 139.202l10.988 -0.69v-16.217l-10.988 0.481v16.425v0.001zM178.083 113.938l10.988 -0.385v-16.217
l-10.988 0.192v16.409v0.001zM178.308 88.288l10.972 -0.064v-16.217l-10.972 -0.128v16.409zM189.456 47.08l-10.972 -0.417v16.394l10.972 0.224v-16.201zM197.828 394.616l10.523 -3.657v-15.864l-10.523 3.481v16.041v-0.001zM197.845 307.275l10.523 -2.63v-15.864
l-10.523 2.438v16.057v-0.001zM197.925 138.688l10.523 -0.673v-15.864l-10.523 0.481v16.056zM198.101 113.969l10.506 -0.369v-15.864l-10.506 0.176v16.056v0.001zM198.294 88.882l10.506 -0.08v-15.864l-10.506 -0.096v16.041v-0.001zM208.961 48.54l-10.49 -0.385
v16.056l10.49 0.209v-15.88zM237.401 184.372l9.625 -1.139v-15.175l-9.625 0.978v15.335v0.001zM237.321 259.714v15.351l9.625 -2.166v-15.174zM237.561 160.744l9.625 -0.899v-15.159l-9.625 0.706v15.351v0.001zM237.721 192.954v15.335l9.608 -1.428v-15.159
l-9.608 1.251v0.001zM247.185 215.074l-9.625 1.524v15.335l9.625 -1.668v-15.191zM237.449 343.895l9.625 -2.935v-15.175l-9.625 2.775v15.335zM237.304 321.696l9.625 -2.679v-15.175l-9.625 2.503v15.351zM217.992 186.57l10.042 -1.187v-15.527l-10.041 1.026v15.688
h-0.001zM217.911 263.613v15.704l10.041 -2.262v-15.527zM218.152 162.396l10.041 -0.93v-15.512l-10.041 0.754v15.688zM218.313 195.344v15.704l10.058 -1.492v-15.512zM228.226 217.945l-10.058 1.588v15.688l10.058 -1.749v-15.528v0.001zM218.04 349.702l10.058 -3.064
v-15.512l-10.058 2.888v15.688zM217.88 327.005l10.058 -2.823v-15.512l-10.058 2.631v15.704zM217.735 303.505l10.073 -2.534v-15.512l-10.073 2.342v15.704zM217.815 138.64l10.058 -0.642v-15.527l-10.058 0.465v15.704zM217.976 114.466l10.058 -0.369v-15.512
l-10.058 0.192v15.688v0.001zM218.185 89.957l10.058 -0.096v-15.512l-10.058 -0.096v15.704zM228.386 50.481l-10.042 -0.369v15.688l10.041 0.192v-15.512zM237.161 298.725l9.641 -2.422v-15.174l-9.641 2.261v15.335zM237.24 137.485l9.625 -0.61v-15.19l-9.625 0.449
v15.351zM237.401 113.857l9.625 -0.353v-15.159l-9.625 0.192v15.319v0.001zM237.594 89.892l9.625 -0.096v-15.175l-9.625 -0.08v15.351zM247.362 51.267l-9.625 -0.337v15.335l9.625 0.176v-15.175v0.001zM273.316 225.516l8.839 -1.54v-14.549l-8.839 1.396v14.693z
M282.298 201.567v-14.549l-8.854 1.139v14.709l8.854 -1.3v0.001zM273.156 179.928l8.839 -1.043v-14.549l-8.839 0.914v14.677v0.001zM282.138 156.461v-14.533l-8.854 0.642v14.709zM255.511 228.516l9.208 -1.62v-14.869l-9.208 1.459v15.03zM264.863 204.005v-14.853
l-9.208 1.187v15.03l9.208 -1.363v-0.001zM255.334 181.95l9.224 -1.091v-14.87l-9.224 0.93v15.03v0.001zM264.702 157.953v-14.853l-9.224 0.673v15.03zM255.19 136.058l9.224 -0.594v-14.87l-9.224 0.417v15.046v0.001zM255.334 112.895l9.224 -0.337v-14.853
l-9.224 0.176v15.014zM255.527 89.428l9.207 -0.096v-14.853l-9.208 -0.08v15.03zM264.878 51.62l-9.208 -0.337v15.03l9.208 0.176v-14.87v0.001zM273.011 134.998l8.854 -0.562v-14.549l-8.854 0.401v14.709v0.001zM273.139 112.349l8.854 -0.337v-14.549l-8.854 0.176
v14.709v0.001zM273.332 89.363l8.839 -0.08v-14.549l-8.839 -0.064v14.693zM282.315 52.358l-8.854 -0.321v14.693l8.854 0.176v-14.549v0.001z" />
    <glyph glyph-name="uniE605" unicode="&#xe605;" 
d="M336 216v248h-32v-240h-264v-16h296v8zM352 216h19.88c-0.096 -0.256 -0.232 -0.472 -0.32 -0.744c-5.128 -16.2 -2.76 -34.672 -13.664 -44.2c-4.496 -3.936 -11.344 -6.288 -21.84 -6.376c-0.04 -0.008 -0.072 -0.008 -0.112 -0.008
c3.08 11.12 4.88 22.864 4.88 35.328h-300.824c0 -58.928 36.6 -103.888 89.056 -123.528c2.632 -0.984 5.32 -1.864 8.032 -2.72c-13.416 -16.816 -31.856 -42.464 -33.176 -46.44l0.088 -35.224c-0.128 -0.016 0.848 -0.096 2.432 -0.096l1.696 0.008h163.472
l0.672 -3.992v3.192c-0.168 -0.216 -0.304 -0.448 -0.352 -0.664c0.016 0.056 0.08 0.4 0.08 1.544v35.968c-1.144 3.464 -17.952 28.256 -30.504 45.016c2.704 0.816 5.448 1.576 8.08 2.512c31.72 11.344 57.776 31.888 73.816 59.136
c22.128 0.616 36.952 4.56 47.288 11.296c4.448 2.896 8.048 6.344 11.128 10.208c10.024 12.6 14.128 29.992 20.616 50.52c1.104 3.48 1 6.568 0.136 9.248h45.44l24 192h-120zM352 440h120v-24h-120v24z" />
    <glyph glyph-name="uniE606" unicode="&#xe606;" horiz-adv-x="678" 
d="M29.207 236.519l281.239 11.154l171.118 197.659l163.541 -245.068l32.17 4.614l-192.389 273.239l-196.474 -36.382v34.922l-16.191 3.344l-48.764 -10.307v-39.981l-65.505 -12.127l-157.953 -143.498v-37.779c0 -0.021 16.149 0.402 29.207 0.212zM480.486 428.4
l-165.171 -190.822l-269.704 -10.731v-229.004l247.798 -29.843l154.906 18.075v178.42l71.283 0.084v-170.187l114.184 14.011v190.273l-153.298 229.724h0.002zM150.821 69.317l-71.813 4.614v91.644l71.813 -0.043v-96.216v0.001zM272.223 61.972l-83.495 5.354v98.628
l83.495 -0.021v-103.962v0.001zM413.181 66.248l-88.152 -5.778v104.555l88.152 0.063v-98.84zM613.147 78.777l-66.543 -4.381v90.48l66.543 0.084v-86.183z" />
    <glyph glyph-name="uniE607" unicode="&#xe607;" horiz-adv-x="588" 
d="M104.027 346.464l88.235 -114.053l182.603 -11.055v21.724l68.678 -24.221l144.077 -11.863l-75.454 35.221l-51.967 58.56l-362.469 58.762l-97.728 -139.871l17.39 0.918l86.637 125.879zM450.979 280.962l40.95 -45.375l-7.86 0.184l-32.741 36.377l-27.618 -36.469
h-6.997l34.265 45.284zM278.293 308.875l45.522 -66.327h-7.639l-37.828 56.338l-37.846 -56.338h-6.85zM442.385 213.313l-61.884 21.852v-19.758l-191.123 11.569l-85.094 109.995l-81.532 -118.516v-114.678l168.041 -15.131v-0.221l180.95 16.325l65.06 -3.911v0.128
l130.763 13.736v88.363l-125.182 10.247h0.001zM78.263 260.855l44.861 5.233v-38.617l-44.861 -3.121v36.506v-0.001zM86.215 137.62l-45.834 1.892v46.808l45.834 1.065v-49.764v-0.001zM168.647 134.737l-55.53 2.204v51.454l55.53 1.248v-54.906zM271.737 138.428
l-57.733 -2.185v53.07l57.733 -1.304v-49.581zM352.755 143.551l-46.514 -1.616v47.487l46.514 -1.175v-44.696zM500.248 143.313l-29.344 -1.286v37.479l29.344 -0.478v-35.716v0.001zM546.688 146.214l-24.827 -1.065v34.375l24.827 -0.423v-32.889v0.002z" />
    <glyph glyph-name="uniE608" unicode="&#xe608;" 
d="M512 176l-96 96v144h-64v-80l-96 96l-256 -256v-16h64v-160h160v96h64v-96h160v160h64v16z" />
    <glyph glyph-name="uniE609" unicode="&#xe609;" horiz-adv-x="513" 
d="M192.409 479.995c-106.269 0 -192.409 -86.135 -192.409 -192.409c0 -106.279 86.139 -192.409 192.409 -192.409c106.279 0 192.409 86.13 192.409 192.409s-86.13 192.409 -192.409 192.409zM192.409 442.563c29.718 0 43.548 -7.375 43.548 -30.808
s-34.455 -45.473 -43.548 -45.473c-9.125 0 -43.59 22.04 -43.59 45.473s13.872 30.808 43.59 30.808zM63.944 281.196c-22.297 7.229 -25.059 22.659 -15.91 50.896c9.172 28.288 20.436 39.215 42.756 32.004c22.237 -7.229 32.645 -46.797 29.8 -55.451
c-2.772 -8.659 -34.345 -34.656 -56.646 -27.45v0.001zM157.029 162.136c-12.877 -19.621 -28.476 -18.297 -53.407 -2.075c-24.82 16.231 -32.407 29.974 -19.621 49.577c12.786 19.653 53.659 19.282 61.292 14.307c7.646 -4.966 24.454 -42.312 11.737 -61.809h-0.001z
M192.409 258.725c-15.942 0 -28.857 12.909 -28.857 28.861s12.905 28.861 28.857 28.861c15.97 0 28.866 -12.905 28.866 -28.861c-0.005 -15.947 -12.896 -28.861 -28.866 -28.861zM282.86 162.654c-24.193 -17.17 -39.783 -19.218 -53.315 -0.106
c-13.597 19.094 1.778 57.012 9.131 62.254c7.44 5.323 48.34 7.248 61.85 -11.718c13.57 -19.159 6.583 -33.204 -17.665 -50.43h-0.001zM320.787 281.196c-22.278 -7.202 -53.856 18.792 -56.628 27.45c-2.863 8.659 7.563 48.226 29.777 55.45
c22.343 7.202 33.608 -3.72 42.76 -32.004c9.144 -28.211 6.39 -43.667 -15.911 -50.897zM498.445 8.575l-13.445 -40.575c-3.229 1.049 -78.81 26.85 -78.81 95.343c0 80.894 64.118 99.942 64.118 171.606c0 32.604 -30.36 67.26 -69.006 97.895
c-5.877 27.258 -16.904 52.614 -32.11 74.93c66.716 -40.96 143.876 -103.324 143.876 -172.829c0 -44.465 -18.897 -72.497 -35.577 -97.226c-15.337 -22.727 -28.541 -42.33 -28.541 -74.38c0.005 -37.341 48.982 -54.589 49.495 -54.763v-0.001z" />
    <glyph glyph-name="uniE60A" unicode="&#xe60a;" 
d="M413.538 -32c-10.851 0 -19.692 8.842 -19.692 19.692v19.692h19.692c31.389 0 39.385 10.673 39.385 10.673v-30.365c0 -10.851 -8.842 -19.692 -19.692 -19.692h-19.692zM78.769 -32c-10.85 0 -19.692 8.842 -19.692 19.692v30.365s7.995 -10.673 39.385 -10.673
h19.692v-19.692c0 -10.851 -8.842 -19.692 -19.692 -19.692h-19.692h-0.001zM508.317 174.769c0 25.147 -20.401 45.548 -45.548 45.548c-19.535 0 -36.077 -12.367 -42.536 -29.656l-21.603 -48.384c-1.615 1.005 -66.934 21.524 -141.411 21.524
s-142.375 -20.618 -144.03 -21.642l-20.46 45.391c-5.534 18.865 -22.823 32.748 -43.501 32.748c-25.147 0 -45.548 -20.382 -45.548 -45.548c0 -20.933 14.218 -38.38 33.457 -43.717l8.428 -72.448c8.901 -30.74 52.894 -31.507 52.894 -31.507h315.077
s43.993 0.768 52.894 31.547l8.428 72.448c19.219 5.317 33.457 22.764 33.457 43.697zM49.231 243.948c29.775 0 56.497 -19.653 65.654 -48.01l9.965 -22.154c19.279 6.952 88.596 13.647 132.392 13.647c42.594 0 110.927 -6.223 129.832 -13.115l11.323 25.384
c10.26 26.506 36.037 44.249 64.394 44.249c2.087 0 4.077 -0.433 6.144 -0.611c0 0.118 0.019 0.256 0.019 0.374c0 52.342 -42.417 94.779 -94.779 94.779h-236.308c-52.342 0 -94.779 -42.417 -94.779 -94.779c0 -0.118 0.02 -0.256 0.02 -0.374
c2.048 0.157 4.037 0.611 6.124 0.611z" />
    <glyph glyph-name="uniE60B" unicode="&#xe60b;" 
d="M492.308 243.692v157.538c0 31.665 -20.973 78.769 -78.769 78.769c-48.62 0 -70.971 -33.32 -76.899 -62.76c-23.512 -7.562 -40.645 -29.361 -40.645 -55.394h116.933c0 24.458 -15.045 45.351 -36.371 54.075c3.702 11.382 13.075 24.694 36.982 24.694
c35.958 0 39.227 -30.267 39.385 -39.385v-157.538h-433.231c-10.87 0 -19.692 -8.822 -19.692 -19.692v-19.692c0 -10.89 8.822 -19.692 19.692 -19.692v-59.077c0 -42.693 36.017 -84.618 77.666 -95.606c-1.95 -9.63 -6.971 -22.548 -18.59 -22.548
c-10.87 0 -19.692 -8.803 -19.692 -19.692s8.822 -19.692 19.692 -19.692c34.008 0 54.055 28.672 58.191 59.077h238.06c4.155 -30.405 24.202 -59.077 58.191 -59.077c10.89 0 19.692 8.803 19.692 19.692s-8.803 19.692 -19.692 19.692
c-11.618 0 -16.64 12.918 -18.589 22.548c41.669 10.988 77.686 52.913 77.686 95.606v59.077c10.89 0 19.692 8.803 19.692 19.692v19.692c0 10.87 -8.803 19.692 -19.692 19.692v0.001zM452.923 125.538c0 -28.16 -30.917 -59.077 -59.077 -59.077h-275.692
c-27.608 0 -59.077 31.469 -59.077 59.077v59.077h393.846v-59.077zM304.325 339.771l1.201 4.766c1.3 5.297 6.577 8.507 11.933 7.168c5.297 -1.32 8.488 -6.656 7.168 -11.934l-1.201 -4.765c-1.123 -4.49 -5.139 -7.464 -9.551 -7.464
c-0.788 0 -1.575 0.099 -2.383 0.296c-5.277 1.32 -8.467 6.656 -7.168 11.933h0.001zM294.715 301.293l1.93 7.699c1.3 5.278 6.558 8.527 11.933 7.168c5.297 -1.319 8.488 -6.656 7.168 -11.933l-1.93 -7.7c-1.123 -4.49 -5.139 -7.464 -9.551 -7.464
c-0.788 0 -1.575 0.099 -2.383 0.296c-5.277 1.32 -8.488 6.675 -7.168 11.934zM285.834 265.768l1.201 4.765c1.3 5.278 6.577 8.527 11.933 7.168c5.297 -1.32 8.488 -6.656 7.168 -11.933l-1.201 -4.766c-1.103 -4.49 -5.12 -7.464 -9.551 -7.464
c-0.788 0 -1.575 0.099 -2.383 0.296c-5.297 1.32 -8.488 6.675 -7.168 11.934h0.001zM404.598 339.771c1.3 -5.277 -1.89 -10.614 -7.168 -11.933c-0.788 -0.197 -1.595 -0.296 -2.383 -0.296c-4.431 0 -8.448 2.974 -9.551 7.464l-1.201 4.765
c-1.3 5.278 1.89 10.614 7.168 11.934c5.159 1.359 10.614 -1.871 11.933 -7.168l1.201 -4.766h0.001zM414.208 301.293c1.3 -5.278 -1.89 -10.614 -7.168 -11.934c-0.788 -0.197 -1.595 -0.296 -2.383 -0.296c-4.431 0 -8.448 2.974 -9.551 7.464l-1.93 7.7
c-1.3 5.278 1.89 10.614 7.168 11.933c5.159 1.379 10.614 -1.89 11.933 -7.168l1.93 -7.699zM409.954 277.701c5.219 1.378 10.614 -1.891 11.933 -7.168l1.201 -4.766c1.3 -5.277 -1.89 -10.614 -7.168 -11.934c-0.788 -0.197 -1.595 -0.296 -2.383 -0.296
c-4.431 0 -8.448 2.973 -9.551 7.463l-1.201 4.766c-1.3 5.277 1.89 10.614 7.168 11.934zM344.615 337.231v4.923c0 5.435 4.411 9.846 9.846 9.846s9.846 -4.411 9.846 -9.846v-4.923c0 -5.435 -4.411 -9.846 -9.846 -9.846s-9.846 4.411 -9.846 9.846zM344.615 306.589
c0 5.435 4.411 9.846 9.846 9.846s9.846 -4.411 9.846 -9.846v-7.661c0 -5.435 -4.411 -9.846 -9.846 -9.846s-9.846 4.411 -9.846 9.846v7.661zM344.615 268.308c0 5.435 4.411 9.846 9.846 9.846s9.846 -4.411 9.846 -9.846v-4.923c0 -5.435 -4.411 -9.846 -9.846 -9.846
s-9.846 4.411 -9.846 9.846v4.923z" />
    <glyph glyph-name="uniE60C" unicode="&#xe60c;" 
d="M492.308 460.308h-19.692v-39.385h-59.077v39.385h-315.077v-39.385h-59.077v39.385h-19.692c-10.851 0 -19.692 -8.842 -19.692 -19.692v-433.231c0 -10.851 8.842 -19.692 19.692 -19.692h19.692v19.692h59.077v-19.692h315.077v19.692h59.077v-19.692h19.692
c10.851 0 19.692 8.842 19.692 19.692v433.231c0 10.851 -8.842 19.692 -19.692 19.692zM98.462 66.462h-59.077v59.077h59.077v-59.077zM98.462 184.615h-59.077v59.077h59.077v-59.077zM98.462 302.769h-59.077v59.077h59.077v-59.077zM346.349 211.082l-128.059 -74.693
c-2.088 -1.043 -4.371 -1.536 -6.637 -1.536c-2.718 0 -5.357 0.728 -7.759 2.147c-4.333 2.619 -6.971 7.306 -6.971 12.308v149.366c0 5.022 2.639 9.709 6.971 12.328c4.371 2.639 9.827 2.875 14.375 0.591l128.059 -74.673c4.982 -2.462 8.133 -7.444 8.133 -12.918
s-3.151 -10.457 -8.113 -12.918zM472.615 66.462h-59.077v59.077h59.077v-59.077zM472.615 184.615h-59.077v59.077h59.077v-59.077zM472.615 302.769h-59.077v59.077h59.077v-59.077z" />
    <glyph glyph-name="uniE60D" unicode="&#xe60d;" horiz-adv-x="518" 
d="M380.612 356.892v53.646l16.043 -3.024v30.858l-195.708 41.176v0.453l-200.947 -42.405v-31.117l23.354 4.383v-421.432l176.817 -21.445l31.634 4.334v93.948l49.408 2.895v-90.875l30.712 3.704v89.5l44.394 2.587v-86.735l24.276 2.928l124.644 14.815v308.853
l12.292 -1.569v24.211l-136.919 20.313zM158.429 331.938l30.486 3.591v-25.44l-30.486 -3.073v24.923v-0.001zM36.308 317.269l25.682 3.024v-23.337l-25.683 -2.572v22.885h0.001zM61.99 97.529l-25.683 1.035v22.917l25.683 -0.63v-23.321v-0.001zM61.99 137.912
l-25.683 0.324v22.917l25.683 0.113v-23.353v-0.001zM62.233 177.487l-25.699 -0.404v22.933l25.698 0.825v-23.353zM62.233 216.577l-25.699 -1.116v22.917l25.698 1.553v-23.354h0.001zM62.233 257.624l-25.699 -1.86v22.917l25.698 2.313v-23.37h0.001zM62.444 336.029
l-25.698 -3.299v22.917l25.698 3.72v-23.338zM62.444 373.858l-25.698 -4.011v22.917l25.698 4.431v-23.337zM75.754 322.558l27.186 3.202v-24.017l-27.186 -2.75v23.564zM102.924 96.493l-27.186 1.084v23.58l27.186 -0.647v-24.017zM102.924 138.041l-27.186 0.339
v23.564l27.186 0.13v-24.033zM103.166 178.781l-27.203 -0.437v23.58l27.203 0.889v-24.033v0.001zM103.166 219.002l-27.203 -1.197v23.58l27.203 1.649v-24.033v0.001zM103.166 261.279l-27.203 -1.99v23.564l27.203 2.442v-24.017v0.001zM103.409 341.933l-27.203 -3.51
v23.58l27.203 3.963v-24.033zM103.409 380.861l-27.203 -4.238v23.564l27.203 4.69v-24.017v0.001zM115.539 327.005l28.739 3.38v-24.696l-28.739 -2.911zM144.278 94.568l-28.739 1.18v24.227l28.739 -0.695v-24.712zM144.278 137.329l-28.739 0.339v24.227l28.739 0.146
v-24.712zM144.553 179.217l-28.755 -0.453v24.227l28.755 0.954v-24.728zM144.553 220.587l-28.755 -1.245v24.227l28.755 1.731v-24.712v-0.001zM144.553 264.044l-28.755 -2.07v24.227l28.755 2.572v-24.729zM144.796 347.027l-28.755 -3.688v24.227l28.755 4.189v-24.728
zM144.796 387.071l-28.755 -4.464v24.227l28.755 4.965v-24.728zM188.915 92.644l-30.486 1.245v24.938l30.486 -0.744v-25.44v0.001zM188.915 136.666l-30.486 0.356v24.938l30.486 0.146v-25.44zM189.174 179.816l-30.486 -0.485v24.954l30.486 1.002v-25.472v0.001z
M189.174 222.431l-30.486 -1.342v24.954l30.486 1.827v-25.44v0.001zM189.174 267.197l-30.486 -2.232v24.954l30.486 2.733v-25.456v0.001zM189.448 352.655l-30.486 -3.914v24.955l30.486 4.415v-25.456zM189.448 393.896l-30.486 -4.738v24.954l30.486 5.24v-25.456z
M341.829 360.871l25.456 -3.703v-24.017l-25.456 3.267v24.453zM341.829 281.106l25.456 -2.28v-24l-25.456 1.827v24.453zM302.869 367.13l26.88 -3.93v-24.663l-26.88 3.477v25.116zM302.869 285.149l26.88 -2.394v-24.663l-26.88 1.941v25.116zM262.453 373.097
l28.399 -4.156v-25.343l-28.399 3.671v25.828zM262.453 288.853l28.399 -2.555v-25.327l-28.399 2.054v25.828zM216.651 380.132l30.146 -4.415v-26.119l-30.146 3.897v26.637zM247.332 332.568v-26.087l-30.13 3.041v26.604zM216.651 293.284l30.146 -2.717v-26.103
l-30.146 2.2v26.62zM246.603 93.243l-30.162 -1.229v26.637l30.162 0.712v-26.119v-0.001zM247.04 135.988l-30.146 -0.388v26.637l30.146 -0.146zM247.056 179.719l-30.146 0.485v26.62l30.146 -1.019v-26.087zM247.59 221.219l-30.114 1.326v26.62l30.114 -1.844v-26.103
v0.001zM247.849 390.969l-30.097 4.723v26.62l30.097 -5.24v-26.103zM290.141 94.844l-28.416 -1.164v25.828l28.416 0.695v-25.359zM290.577 136.246l-28.399 -0.372v25.844l28.399 -0.113v-25.359zM290.577 178.7l-28.399 0.453v25.844l28.399 -0.954v-25.343z
M291.095 219.52l-28.384 1.245v25.844l28.384 -1.746v-25.343zM291.337 301.743l-28.367 2.846v25.812l28.367 -3.332v-25.327v0.001zM291.337 384.337l-28.367 4.448v25.844l28.367 -4.949v-25.343zM328.228 96.396l-26.944 -1.1v25.165l26.944 0.647v-24.712z
M329.505 136.699l-26.911 -0.356v25.149l26.911 -0.113v-24.68zM329.505 178.021l-26.88 0.421v25.149l26.88 -0.906v-24.663v-0.001zM329.974 217.741l-26.863 1.18v25.132l26.863 -1.649v-24.663zM330.217 297.764l-26.88 2.701v25.132l26.88 -3.17v-24.663z
M330.217 378.175l-26.88 4.221v25.132l26.88 -4.674v-24.68v0.001zM366.881 97.706l-25.488 -1.051v24.469l25.488 0.615v-24.033zM367.059 136.666l-25.472 -0.339v24.469l25.472 -0.097v-24.033zM367.075 176.889l-25.472 0.388v24.469l25.472 -0.841v-24.017v0.001z
M367.495 215.558l-25.44 1.1v24.453l25.44 -1.553v-24.001v0.001zM367.755 293.462l-25.456 2.556v24.453l25.456 -2.992v-24.017zM367.755 371.755l-25.456 3.995v24.437l25.456 -4.432v-24zM469.789 269.478l21.138 -2.103v-21.882l-21.138 1.731v22.254zM438.204 272.697
l22.173 -2.216v-22.431l-22.173 1.811v22.836zM403.06 314.212l23.37 -3.008v-23.014l-23.37 2.588v23.435v-0.001zM402.639 276.529l23.37 -2.361v-23.014l-23.37 1.924v23.45v0.001zM425.88 100.213l-23.386 -0.728v23.435l23.386 0.324v-23.03v-0.001zM426.219 137.896
l-23.37 -0.081v23.435l23.37 -0.339v-23.014v-0.001zM426.219 176.435l-23.37 0.615v23.418l23.37 -1.019v-23.014zM426.623 213.019l-23.353 1.262v23.418l23.353 -1.666v-23.014zM459.827 101.087l-22.206 -0.712v22.82l22.206 0.324v-22.432zM460.182 137.718
l-22.173 -0.081v22.82l22.173 -0.324v-22.416v0.001zM460.182 175.271l-22.173 0.582v22.803l22.173 -0.971v-22.416v0.002zM460.57 211.385l-22.173 1.197v22.803l22.173 -1.585v-22.415zM460.781 284.13l-22.157 2.442v22.804l22.157 -2.83v-22.416zM489.746 102.008
l-21.171 -0.647v22.27l21.171 0.308v-21.93v-0.001zM490.716 137.767l-21.138 -0.081v22.27l21.138 -0.308v-21.882v0.001zM490.733 174.43l-21.138 0.534v22.27l21.138 -0.922v-21.882zM491.104 209.687l-21.122 1.132v22.254l21.122 -1.504v-21.882zM491.298 280.718
l-21.122 2.329v22.27l21.122 -2.701v-21.898z" />
    <glyph glyph-name="uniE60E" unicode="&#xe60e;" 
d="M120 80h120v48h-120v-48zM183 115.504c5.52 0 10 -4.48 10 -10s-4.48 -10 -10 -10s-10 4.48 -10 10s4.48 10 10 10zM120 160h120v48h-120v-48zM183 195.504c5.52 0 10 -4.48 10 -10s-4.48 -10 -10 -10s-10 4.48 -10 10s4.48 10 10 10zM280 80h120v320h-120v-320z
M303 259.504c5.52 0 10 -4.48 10 -10s-4.48 -10 -10 -10s-10 4.48 -10 10s4.48 10 10 10zM120 240h120v160h-120v-160zM215 323.504c5.52 0 10 -4.48 10 -10s-4.48 -10 -10 -10s-10 4.48 -10 10s4.48 10 10 10zM80 64v-48h24v24h144v-24h24v24h144v-24h24v416h-360v-368z
M272 408h136v-336h-136v336zM112 408h136v-176h-136v176zM112 216h136v-64h-136v64zM112 136h136v-64h-136v64zM80 440h360l16 16h-392z" />
    <glyph glyph-name="uniE60F" unicode="&#xe60f;" 
d="M321.984 272h29.856c6.768 0 12.272 4.56 12.272 10.168l0.088 0.824l32.456 155.208c-0.232 5.44 -5.648 9.8 -12.264 9.8h-59.28c21.304 -20.992 34.888 -52.328 34.888 -87.336c0 -34 -12.904 -63.688 -38.016 -88.664zM172.824 272h29.168
c-25.096 24.92 -38 54.44 -38 88.168c0 35.216 13.624 66.752 35 87.832h-58.72v0c-6.616 0 -12.024 -4.36 -12.264 -9.8l32.544 -156.032c0 -5.608 5.504 -10.168 12.272 -10.168zM172.824 264v0zM316.128 122.408c-16.784 -5.784 -35.008 -9.072 -54.128 -9.072
c-20.56 0 -40.144 3.704 -57.952 10.344l-20.088 -138.088c0.04 -5.032 5.424 -9.592 12.04 -9.592h128c6.616 0 12 4.56 12 10.168zM112 232h10.912c4.072 -42.224 33.272 -78.336 74.728 -97.016c1.36 -0.616 2.784 -1.144 4.168 -1.72
c1.136 -0.472 2.264 -0.96 3.416 -1.408c17.368 -6.704 36.544 -10.528 56.76 -10.528c18.744 0 36.616 3.24 52.968 9.048c1.168 0.416 2.288 0.896 3.44 1.336c1.408 0.536 2.776 1.136 4.152 1.712c43.424 18.152 74.328 55.088 78.52 98.576h14.936
c6.632 0 12 5.368 12 12s-5.368 12 -12 12h-304c-6.632 0 -12 -5.368 -12 -12s5.368 -12 12 -12zM213.576 272c3.04 -2.712 6.112 -5.408 9.488 -8h77.88c3.368 2.584 6.44 5.288 9.48 8c27.512 24.6 41.576 54.336 41.576 88.664c0 36.16 -15.384 68.112 -38.792 87.336
c-3.672 3.016 -7.56 5.648 -11.592 8c-11.976 6.976 -25.384 11 -39.616 11c-14.192 0 -27.576 -4.024 -39.52 -11c-4.032 -2.352 -7.92 -4.984 -11.584 -8c-23.472 -19.304 -38.896 -51.456 -38.896 -87.832c0 -34.032 14.064 -63.608 41.576 -88.168z" />
    <glyph glyph-name="uniE610" unicode="&#xe610;" 
d="M470.832 206.952h-4.336v109.672c0 21.488 -16.744 38.96 -37.336 38.96c-18.12 0 -39.048 -12.392 -48.696 -28.824l-13.672 -23.288l-4.224 2.392c-4.168 2.352 -10.168 1.416 -13.416 -2.096l-20.712 -22.464c-3.248 -3.512 -2.496 -8.248 1.672 -10.592
l47.672 -26.696c4.168 -2.344 9.168 -0.72 11.168 3.624l12.224 26.48c2.008 4.344 0.256 9.776 -3.904 12.12l-7.864 4.456l13.464 22.92c4.912 8.368 17.44 15.984 26.288 15.984c6.264 0 11.368 -5.832 11.368 -12.984v-109.672h-400.32
c-11.952 0 -21.64 -9.688 -21.64 -21.64s9.688 -21.64 21.64 -21.64h430.616c11.952 0 21.64 9.688 21.64 21.64c0.008 11.96 -9.68 21.648 -21.632 21.648zM453.504 149.96h-385.264c-5.648 0 -10.12 -2.272 -11.952 -6.088c-1.72 -3.576 -0.872 -7.928 2.328 -11.944
c11.544 -14.432 33.368 -34.376 72.36 -49.032l-7.232 -32.96c-1.536 -7 2.888 -13.928 9.896 -15.472c0.936 -0.208 1.864 -0.304 2.792 -0.304c5.968 0 11.344 4.136 12.672 10.208l6.744 30.696c26.6 -7.064 59.296 -11.688 99.672 -11.688
c59.88 0 104.304 10.072 137.048 23.368l9.304 -42.376c1.328 -6.08 6.704 -10.208 12.672 -10.208c0.92 0 1.848 0.096 2.792 0.304c7.016 1.536 11.448 8.472 9.904 15.472l-9.744 44.368c-0.28 1.272 -0.792 2.424 -1.392 3.512c21.816 11.848 36.52 24.68 45.792 34.816
c3.52 3.856 4.664 8.064 3.136 11.536c-1.632 3.68 -5.824 5.792 -11.528 5.792z" />
    <glyph glyph-name="uniE611" unicode="&#xe611;" 
d="M448 380.355v-25.6h-109.225v-92.539h-92.16v-102.41h-95.575v-92.16h-87.04v25.6h61.44v92.16h95.575v102.41h92.16v92.539h134.825zM123.331 251.335l70.108 9.165c1.024 0.128 1.822 0.932 1.966 1.951c0.143 1.019 -0.41 2.007 -1.351 2.422l-28.15 12.206
l46.71 46.705c0.891 0.901 0.896 2.345 0 3.241l-16.169 16.169c-0.891 0.896 -2.34 0.891 -3.236 0l-46.71 -46.71l-12.206 28.144c-0.41 0.942 -1.398 1.5 -2.417 1.357c-0.512 -0.077 -0.963 -0.313 -1.3 -0.65c-0.343 -0.343 -0.578 -0.804 -0.65 -1.321l-9.165 -70.108
c-0.092 -0.707 0.144 -1.408 0.65 -1.915c0.507 -0.502 1.213 -0.748 1.92 -0.655z" />
    <glyph glyph-name="uniE612" unicode="&#xe612;" 
d="M329.236 197.386h-146.473c-24.802 0 -29.143 -9.462 -29.143 -21.135v-5.858h204.759v5.858c0 11.694 -4.342 21.135 -29.143 21.135zM154.829 205.291h99.584v84.357c-9.799 11.735 -28.815 19.824 -50.995 19.824h-21.975c-32.112 0 -58.153 -16.742 -58.153 -37.396
v-24.955c18.852 -7.086 31.549 -19.743 31.549 -34.284l-0.01 -7.547zM388.721 272.057c0 20.674 -26.041 37.396 -58.153 37.396h-21.975c-22.18 0 -41.195 -8.079 -51.005 -19.824v-84.357h99.584v7.547c0 14.541 12.697 27.177 31.55 34.284v24.955zM89.159 246.18
v-107.653h54.302v74.311c0 18.401 -24.33 33.341 -54.303 33.341zM368.538 212.839v-74.311h54.303v107.653c-29.973 0 -54.303 -14.94 -54.303 -33.341v-0.001zM153.62 167.67h204.759v-29.143h-204.759z" />
    <glyph glyph-name="uniE613" unicode="&#xe613;" horiz-adv-x="785" 
d="M662.769 392.864c-17.287 9.969 -38.948 15.921 -62.505 15.921c-3.142 0 -6.27 -0.12 -9.346 -0.332c-5.17 -0.371 -17.618 11.705 -32.28 22.656c-38.803 28.913 -108.188 48.89 -164.9 48.89c-56.632 0 -125.952 -19.911 -164.754 -48.784
c-14.675 -10.923 -26.832 -23.08 -31.643 -22.749c-2.85 0.199 -5.754 0.318 -8.67 0.318c-23.624 0 -45.338 -5.979 -62.678 -16.001c-15.815 -9.161 -8.1 -27.349 4.812 -40.313c17.499 -17.579 31.511 -41.759 31.511 -68.471v-15.841s8.524 -11.03 26.819 -11.03
h410.347c18.308 0 26.792 2.267 26.792 11.03v15.841c0 26.779 14.066 51.025 31.644 68.603c12.979 12.952 20.72 31.1 4.852 40.261zM594.045 231.728h-399.464c-17.831 0 -32.267 -16.252 -32.267 -33.142c0 -16.849 14.423 -33.142 32.267 -33.142h399.464
c17.817 0 32.254 16.293 32.254 33.142c-0.014 16.889 -14.437 33.142 -32.254 33.142zM590.996 142.246h-396.932c-17.525 0 -31.75 -14.834 -31.75 -33.142v-33.142c0 -18.294 14.225 -33.142 31.75 -33.142h396.932c17.538 0 31.763 14.848 31.763 33.142v33.142
c0 18.308 -14.211 33.142 -31.763 33.142zM77.234 340.592c-31.246 0 -55.904 -25.333 -55.904 -56.593c0 -10.526 3.208 -20.389 8.206 -28.82c8.564 -14.383 20.455 -35.581 18.904 -53.822l-7.901 -94.228c-1.551 -18.228 9.373 -43.031 15.073 -60.45
c5.09 -15.55 5.568 -32.89 6.218 -47.459c0.835 -18.281 21.197 -31.207 39.253 -31.207c18.082 0 31.405 14.834 31.405 33.142v282.845c0 31.246 -23.995 56.593 -55.254 56.593zM763.758 284c0 31.26 -24.644 56.593 -55.904 56.593s-55.254 -25.347 -55.254 -56.593
v-282.845c0 -18.308 13.323 -33.142 31.405 -33.142c18.056 0 38.418 12.938 39.253 31.207c0.649 14.569 1.127 31.909 6.217 47.459c5.701 17.406 16.624 42.222 15.073 60.45l-7.901 94.228c-1.551 18.241 10.34 39.439 18.904 53.822
c4.985 8.432 8.206 18.294 8.206 28.82z" />
    <glyph glyph-name="uniE614" unicode="&#xe614;" 
d="M312 60c0 -24.256 -19.744 -44 -44 -44h-24c-24.264 0 -44 19.744 -44 44v24.2c-11.176 -10.104 -18 -23.264 -18 -37.72c0 -31.76 32.72 -57.504 73.08 -57.504c40.36 0 73.08 25.752 73.08 57.504c0 13.648 -6.072 26.168 -16.16 36.024zM451.296 256.536
c-21.472 46.184 -31.712 69.408 -51.224 116.104c-0.272 -0.016 -0.552 -0.032 -0.832 -0.056l-1.24 2.92l-118 0.208v-3.712c0 -6.616 -5.384 -12 -12 -12h-24c-6.616 0 -12 5.384 -12 12v3.792l-118 0.208l-1.416 -3.4c-0.208 0.016 -0.424 0.024 -0.64 0.04
c-19.52 -46.688 -29.768 -69.92 -51.232 -116.104c129.816 -12.272 260.776 -12.272 390.584 -1.13687e-13zM139.928 352h234.816c6.248 -17.256 12.216 -33.024 20.96 -55.576c-93.92 -5.776 -182.808 -5.776 -276.736 0c8.744 22.552 14.712 38.32 20.96 55.576zM56 248
v-24.664c0 -17.304 14.032 -31.336 31.336 -31.336h121.064c-0.144 -1.328 -0.4 -2.632 -0.4 -4v-128c0 -19.848 16.152 -36 36 -36h24c19.848 0 36 16.152 36 36v128c0 1.368 -0.256 2.672 -0.408 4h121.064c17.312 0 31.344 14.032 31.344 31.336v24.664
c-100.664 -12.664 -302 -12.664 -400 0zM276.504 310c0 -4.418 -8.844 -8 -19.752 -8s-19.752 3.582 -19.752 8s8.844 8 19.752 8c10.909 0 19.752 -3.582 19.752 -8zM218.752 394.504c4.552 0 8.56 2.176 11.168 5.496h10.08v-28c0 -2.208 1.792 -4 4 -4h24
c2.2 0 4 1.792 4 4v28h7.584c0.136 -0.168 0.272 -0.336 0.416 -0.504c2.616 -3.024 6.44 -4.992 10.752 -4.992c7.872 0 14.248 6.376 14.248 14.248s-6.376 14.248 -14.248 14.248c-4.312 0 -8.136 -1.96 -10.752 -4.992c-0.536 -0.624 -1.032 -1.296 -1.456 -2.008
h-6.544v10.64c-1.728 0.88 -6.456 2.424 -16 3.96c-9.552 -1.528 -14.272 -3.08 -16 -3.96v-10.64h-9.04c-2.488 4.176 -7 7 -12.208 7c-7.864 0 -14.248 -6.376 -14.248 -14.248s6.376 -14.248 14.248 -14.248z" />
    <glyph glyph-name="uniE615" unicode="&#xe615;" 
d="M353.576 342.08c-4.488 49.512 -46.176 88.448 -96.832 88.448c-53.64 0 -97.28 -43.64 -97.28 -97.28v-305.968c0 -6.624 5.368 -12 12 -12s12 5.376 12 12v305.96c0 40.408 32.872 73.28 73.28 73.28c37.464 0 68.408 -28.28 72.72 -64.6
c-38.072 -6.056 -67.288 -39.016 -67.288 -78.76c0 -6.624 5.368 -12 12 -12h135.696c0.056 0.008 0.104 0.008 0.16 0c6.632 0 12 5.376 12 12c0 0.728 -0.064 1.44 -0.184 2.128c-1.032 39.136 -30.4 71.264 -68.272 76.792zM287.472 275.16
c5.504 25.048 27.872 43.848 54.552 43.848c26.672 0 49.04 -18.808 54.552 -43.848h-109.104zM354.856 160.08v57.416c0 6.624 -5.368 12 -12 12s-12 -5.376 -12 -12v-57.416c0 -6.624 5.368 -12 12 -12s12 5.376 12 12zM315.712 160.08v57.416c0 6.624 -5.368 12 -12 12
s-12 -5.376 -12 -12v-57.416c0 -6.624 5.368 -12 12 -12s12 5.376 12 12zM394 160.08v57.416c0 6.624 -5.368 12 -12 12s-12 -5.376 -12 -12v-57.416c0 -6.624 5.368 -12 12 -12s12 5.376 12 12z" />
    <glyph glyph-name="uniE616" unicode="&#xe616;" 
d="M411.126 279.419c-3.257 56.935 -50.473 102.277 -108.206 102.277c-57.928 0 -105.267 -45.671 -108.226 -102.892c-45.916 -4.147 -82.207 -30.72 -87.153 -64.144c-4.454 -8.683 -6.994 -18.053 -6.994 -27.863c0 -26.89 57.436 -36.444 106.619 -36.444
c49.193 0 106.619 9.543 106.619 36.444c0 9.81 -2.55 19.18 -6.994 27.863c-4.925 33.28 -40.93 59.771 -86.579 64.072c2.877 43.161 38.82 77.425 82.698 77.425c45.762 0 82.985 -37.223 82.985 -82.985v-206.654h25.549v212.9h-0.317zM207.166 163.123
c-56.125 0 -93.85 12.247 -93.85 23.675c0 2.745 0.307 5.417 0.778 8.069c31.007 -24.064 155.126 -24.064 186.153 0c0.461 -2.652 0.768 -5.325 0.768 -8.069c0 -11.438 -37.714 -23.675 -93.85 -23.675h0.001zM119.91 114.729c0 -7.404 4.157 -13.394 9.318 -13.394
c5.141 0 9.319 5.99 9.319 13.394c0 7.404 -9.319 21.637 -9.319 21.637s-9.319 -14.233 -9.319 -21.637zM197.857 114.729c0 -7.404 4.157 -13.394 9.308 -13.394s9.328 5.99 9.328 13.394c0 7.404 -9.328 21.637 -9.328 21.637s-9.308 -14.233 -9.308 -21.637z
M275.804 114.729c0 -7.404 4.158 -13.394 9.318 -13.394c5.151 0 9.318 5.99 9.318 13.394c0 7.404 -9.318 21.637 -9.318 21.637s-9.318 -14.233 -9.318 -21.637zM158.884 79.698c0 -7.404 4.167 -13.394 9.319 -13.394c5.141 0 9.319 5.99 9.319 13.394
c0 7.394 -9.319 21.637 -9.319 21.637s-9.319 -14.244 -9.319 -21.637zM236.841 79.698c0 -7.404 4.147 -13.394 9.308 -13.394s9.319 5.99 9.319 13.394c0 7.394 -9.319 21.637 -9.319 21.637s-9.308 -14.244 -9.308 -21.637z" />
    <glyph glyph-name="uniE617" unicode="&#xe617;" 
d="M318.888 217.872c17.824 11.864 36.608 19.656 48.84 20.464l-54.04 70.16l-0.304 -0.184c-2.264 2.28 -5.568 3.432 -9.816 3.384c-3.344 -0.032 -7.184 -0.728 -11.368 -1.992c-16.752 28.816 -47.04 68.656 -67.176 86.336c-14.4 12.648 -37.312 9.024 -57.432 6.288
c-9.12 22.232 -28.928 37.672 -51.968 37.672c-31.688 0 -57.376 -29.152 -57.376 -65.112s25.688 -65.112 57.376 -65.112c25.48 0 47.048 18.864 54.536 44.944c12.728 2.016 26.824 4.688 33.112 -1.48c9.328 -9.16 34 -45.704 47.664 -68.72
c-2.816 -3.016 -5.04 -6.016 -6.472 -8.896c-1.84 -3.712 -2.28 -7.152 -1.312 -10.168l-0.448 -0.272l39.448 -82.384c1.352 2.336 3.048 4.856 5.368 7.704c7.488 9.16 18.624 18.888 31.368 27.368zM381.664 220.24c-0.096 -0.224 -0.16 -0.448 -0.256 -0.672l0.528 0.32
zM375.072 229.016c-0.616 0.928 -2.584 1.48 -5.256 1.48c-10.48 0 -29.168 -7.744 -46.488 -19.272c-11.928 -7.944 -22.72 -17.336 -29.6 -25.784c-7.488 -9.168 -7.864 -13.984 -7.024 -15.248c0.608 -0.904 2.552 -1.456 5.2 -1.456
c10.544 0 29.344 7.808 46.784 19.408c27.328 18.192 39.088 36.8 36.384 40.872zM354.872 121.528l-9.272 20.536c-1.824 4.016 -6.544 5.824 -10.584 3.992c-4.024 -1.824 -5.816 -6.552 -3.992 -10.584l9.272 -20.528c1.336 -2.952 4.24 -4.704 7.296 -4.704
c1.104 0 2.216 0.224 3.288 0.712c4.024 1.816 5.816 6.552 3.992 10.576zM373.816 55.968c-2.736 6.032 -9.872 8.704 -15.888 5.952c-6.032 -2.744 -8.696 -9.856 -5.952 -15.888l24.112 -53c2.008 -4.424 6.368 -7.032 10.928 -7.032c1.664 0 3.352 0.344 4.96 1.08
c6.032 2.744 8.696 9.856 5.952 15.888zM411.752 114.624c1.352 -2.912 4.24 -4.624 7.256 -4.624c1.128 0 2.272 0.24 3.368 0.752c4.008 1.856 5.744 6.616 3.872 10.624l-32.112 69c-1.848 4 -6.6 5.744 -10.624 3.872c-4.008 -1.856 -5.744 -6.616 -3.872 -10.624z
M429.848 43.12l-40.112 85c-2.832 6 -10 8.56 -15.968 5.736c-6 -2.832 -8.56 -9.976 -5.736 -15.968l40.112 -85c2.048 -4.344 6.36 -6.88 10.856 -6.88c1.72 0 3.464 0.368 5.112 1.152c6.008 2.816 8.568 9.968 5.736 15.96z" />
    <glyph glyph-name="uniE618" unicode="&#xe618;" 
d="M386.4 314.8h-98.8c-7.6 0 -15.2 -5.2 -15.2 -12.8v-38c0 -7.6 7.6 -15.2 15.2 -15.2h103.2c7.2 0 12.4 6 13.2 12.8v40.4c0 7.6 -5.2 12.8 -13.2 12.8h-4.4zM249.6 323.2c7.6 0 14.4 -3.6 18.8 -9.6c4.4 5.6 11.2 9.6 18.8 9.6h103.6c5.2 0 11.2 0.4 13.2 -2.4v52h-272
v-52c2.8 2.8 8.8 2.4 14 2.4h103.6zM462.8 174.8l-51.6 77.6c-4 -7.2 -11.6 -12 -20.4 -12h-103.2c-7.6 0 -14.4 4 -18.8 9.6v0c-4.8 -5.6 -12 -9.6 -18.8 -9.6h-104c-8.8 0 -16 5.2 -20 12.4l-1.2 -1.6l-58.8 -76.4h396.8zM84.8 108c2.4 -2.4 3.6 -4 7.6 -4h-1.6v-23.6
c0 -5.2 8.8 -9.6 16.4 -9.6s16.4 4.4 16.4 9.6v42.4s6.4 -2 8.8 -4c5.6 -5.6 8.4 -14.4 18 -14.4c14 0 14 18.8 28 18.8s14 -18.8 28 -18.8s14 18.8 28 18.8s14 -18.8 28 -18.8c14 0 14 18.8 28 18.8s14 -18.8 28 -18.8s14 18.8 28.4 18.8c14 0 14 -18.8 28.4 -18.8
c10.4 0 13.2 10.4 20 15.6c2.4 1.6 4.4 2.8 8 2.8h0.4v-42c0 -5.2 8.8 -9.6 16.4 -9.6c7.6 0 16.4 4.4 16.4 9.6v23.6s5.2 1.6 7.6 3.6c6.8 5.6 8.8 14.8 17.2 14.8v43.6h-395.2v-43.6c10 0 13.2 -9.2 18.8 -14.8zM264 302c0 7.6 -6.4 12.8 -14.4 12.8h-103.6
c-7.6 0 -14 -5.2 -14 -12.8v-40.4c0.8 -6.8 6.8 -12.8 14 -12.8h103.6c7.6 0 14 7.6 14 15.2v38h0.4z" />
    <glyph glyph-name="uniE619" unicode="&#xe619;" horiz-adv-x="488" 
d="M448.655 46.11v-78.11h39.055v117.164h-448.655v160.03c0 5.083 -1.905 9.686 -5.715 13.812c-3.81 4.128 -8.414 6.192 -13.812 6.192s-10.002 -2.064 -13.812 -6.192s-5.715 -8.732 -5.715 -13.812v-277.194h39.055v78.11h409.6h-0.001zM100.495 165.18
c9.843 0 18.416 3.493 25.719 10.478c7.303 6.986 10.954 15.401 10.954 25.243c0 9.844 -3.651 18.259 -10.954 25.243c-7.303 6.985 -15.876 10.478 -25.719 10.478s-18.257 -3.493 -25.243 -10.478s-10.478 -15.4 -10.478 -25.243s3.493 -18.257 10.478 -25.243
s15.4 -10.478 25.243 -10.478zM487.71 114.694v47.628c0 7.62 -2.699 13.812 -8.096 18.575c-5.401 4.763 -12.228 7.779 -20.48 9.05l-284.815 27.624c-5.08 0 -9.367 -1.746 -12.859 -5.239s-5.239 -7.779 -5.239 -12.86v-55.248h-72.394
c-12.066 0 -18.099 -4.922 -18.099 -14.764s6.032 -14.764 18.099 -14.764h403.885z" />
    <glyph glyph-name="uniE61A" unicode="&#xe61a;" horiz-adv-x="820" 
d="M591.338 312.075v72.294l23.953 -2.818v54.182l-289.201 44.268l-326.091 -62.072v-63.353l30.229 4.202v-176.046l87.69 0.026v-164.314l416.317 -50.467l73.651 8.94v210.887l130.831 -0.41v-194.594l60.792 7.378v257.101l20.264 -0.999v38.529l-228.435 17.267
v-0.001zM561.878 359.339v-63.404l-87.126 -1.614v73.882zM75.522 348.99l197.745 25.08v-141.155l-197.745 -6.558zM156.756 55.793v126.962h81.516v-134.366l-81.517 7.404zM258.998 47.005v135.8h67.067v0.231h27.232v-144.588zM373.176 35.81v147.2l109.798 -0.026
v-157.191z" />
    <glyph glyph-name="uniE61B" unicode="&#xe61b;" 
d="M439.36 416.448c0 -34.294 -27.801 -62.096 -62.096 -62.096s-62.096 27.802 -62.096 62.096c0 34.295 27.801 62.096 62.096 62.096c34.294 0 62.096 -27.801 62.096 -62.096zM249.68 88.272v15.328c0 12.4 6.048 24.384 15.968 32.032v52.416h-57.328
c-22.16 0 -39.968 17.504 -39.968 39.632c0 3.616 1.632 6.608 1.632 9.952v14.192h6.672c7.36 10.64 18.784 15.952 31.664 15.952h52.544c0.576 2.656 2.128 3.536 2.128 5.648v142.24c0 11.872 -10.96 22.208 -22.816 22.208h-177.088
c-11.872 0 -20.688 -10.336 -20.688 -22.208v-142.256c0 -11.872 8.816 -21.6 20.688 -21.6h72.336v-18.592h-24.32c-10.672 0 -19.328 -7.968 -19.328 -21.264h-82.688c-5.504 0 -9.216 -3.088 -9.216 -8.624v-22.496c0 -5.488 3.696 -8.736 9.216 -8.736h27.984v-201.984
h233.872v90.976c0.016 0 -21.264 4.496 -21.264 27.184zM94.336 283.712c-11.856 0 -22.704 8.464 -22.704 20.304v81.008c0 11.872 10.848 20.944 22.704 20.944h115.168c11.872 0 21.6 -9.072 21.6 -20.944v-81.008c0 -11.84 -9.712 -20.304 -21.6 -20.304h-115.168z
M418.64 344.032h-82.16c-50.368 0 -53.552 -50.416 -53.552 -50.416s-6.72 -33.984 -12.32 -37.888c-1.712 -1.2 -3.728 -2.064 -6.08 -2.064h-56.256c-13.312 0 -24.096 -10.592 -24.096 -23.92c0 -13.312 10.784 -23.92 24.096 -23.92h56.256
c8.736 0 16.448 -0.016 17.488 0.224l-0.512 -58.704h31.952v129.888c0 26.176 16.848 56.16 43.296 56.16h97.968c-9.744 7.984 -22.368 10.64 -36.08 10.64zM480.656 79.088c17.728 0 32.144 14.384 32.144 32.144v164.944c0 19.856 -16.816 36.784 -36.656 36.784
h-111.328c-19.856 0 -35.376 -16.928 -35.376 -36.784v-146.608h-35.888c-13.792 0 -25.248 -10.608 -25.248 -24.4v-9.056c0 -9.392 7.616 -16.992 17.008 -16.992h76.032v-21.264h-12.176s-30.352 -0.72 -30.352 -28.944v-40.48c0 -9.136 6.816 -16.576 16 -16.576
c9.168 0 16.336 7.504 16.336 16.656l-0.256 37.44h55.616v-37.52c0 -9.136 8.08 -16.576 17.264 -16.576c9.2 0 17.28 7.44 17.28 16.576v40.48c0 30.672 -32.576 28.944 -32.576 28.944h-12.64v21.248h84.816z" />
    <glyph glyph-name="uniE61C" unicode="&#xe61c;" 
d="M199 263.384c-1.424 -0.088 -6.048 -4.064 -6.048 -4.064c2.488 -1.072 7.48 4.152 6.048 4.064zM199.624 264.2l-0.368 -0.224c0.128 0.048 0.248 0.096 0.36 0.144c0 0.032 0.008 0.048 0.008 0.08zM370.904 442.16c25.656 0 46.456 -20.8 46.456 -46.456
s-20.8 -46.456 -46.456 -46.456s-46.456 20.8 -46.456 46.456s20.8 46.456 46.456 46.456zM92.024 242.984h12.448v5.984h-12.448c-3.392 0 -5.84 0.672 -6.736 1.84c-0.68 0.896 -0.384 2.064 -0.384 2.064l0.152 36.128h-5.984v-34.856
c-0.264 -1.216 -0.6 -4.136 1.368 -6.824c2.096 -2.872 6.008 -4.336 11.584 -4.336zM485.504 158.088l-1.688 13.696c-6.672 53.504 -6.936 55.544 -4.36 149.832c0.08 3.304 -2.496 6.048 -5.824 6.144c-3.136 0.208 -6.048 -2.512 -6.152 -5.816
c-2.592 -95.168 -2.312 -97.288 4.456 -151.616l1.696 -13.72c1.736 -13.144 0.208 -22.248 -4.264 -25.752c-5.208 -4.016 -14.32 -0.448 -14.944 -0.192c-44.008 13.536 -98.832 -14.432 -101.152 -15.592c-2.936 -1.504 -4.088 -5.128 -2.568 -8.064
c1.064 -2.056 3.16 -3.208 5.32 -3.208c0.92 0 1.848 0.192 2.744 0.672c0.36 0.168 24.832 12.608 52.608 16.768v-93.16h-24.856c-5.064 0 -9.168 -4.096 -9.168 -9.16c0 -5.048 4.104 -9.16 9.168 -9.16h70.608c5.064 0 9.168 4.112 9.168 9.16
c0 5.064 -4.112 9.16 -9.168 9.16h-22.904v94.168c5.512 -0.376 10.952 -1.232 16.168 -2.832c0.64 -0.256 15.48 -6.352 26.248 1.92c8.248 6.336 11.248 18.728 8.864 36.752zM457.056 185.248c-1.032 39.352 -13.928 77.088 -14.944 116.272
c-1.496 57.072 -88.952 58.368 -89.656 2.696c-33.472 -5.696 -66.904 -8.72 -100.936 -7.12c-30.888 1.448 -30.984 -46.4 -0.312 -47.832c35.744 -1.672 71.2 1.72 106.408 7.496c3.616 -20.944 7.896 -41.784 9.256 -62.968
c-72.832 -25.44 -113.2 -87.08 -123.504 -165.416c-0.072 -0.536 -0.088 -1.112 -0.136 -1.672v173.44h45.928v41h-164.72c0.096 0.52 0.136 1.128 0.168 1.88c0.016 0.448 0.04 0.944 0.072 1.504c0.208 3.464 0.816 4.648 4.208 5.304c0.856 0.16 1.936 0.208 3.024 0.192
v-2.88h44.208c1.288 -0.24 2.568 -0.424 3.76 -0.424c1.856 0 3.456 0.424 4.4 1.696c0.496 0.664 0.496 1.584 0.488 2.472c0 0.856 -0.008 1.736 0.408 2.256c0.64 0.776 1.872 1.296 2.744 1.376c-0.92 -1.776 -1.496 -3.664 -1.496 -5.664h50.072
c0 9.632 -11.216 17.44 -25.032 17.44c-4.32 0 -8.296 -0.824 -11.832 -2.16c0.824 -8.248 -6.936 -7.448 -9.936 -6.84c-0.352 -0.44 -0.656 -0.904 -0.96 -1.368c-0.136 0.032 -0.248 0.112 -0.4 0.12c-1.336 0.064 -3.264 -0.744 -4.28 -1.976
c-0.76 -0.928 -0.744 -2.128 -0.744 -3.184c0.008 -0.648 0.008 -1.32 -0.192 -1.584c-0.528 -0.712 -1.568 -0.944 -2.76 -1.008v6.896h-48.44v-3.656c-1.288 0.008 -2.488 -0.104 -3.304 -0.264c-4.296 -0.824 -5.16 -2.8 -5.392 -6.64
c-0.032 -0.576 -0.048 -1.088 -0.072 -1.536c-0.032 -0.872 -0.064 -1.48 -0.184 -1.944h-90.968v-41h25v-198.864h186.224v19.912c3.032 -30.64 55.328 -27.84 59.936 7.232c7.968 60.6 43.312 101.064 102.736 114.456c24.704 -3.76 51.992 10.28 51.16 42.36z
M99.552 376.128l7.528 -107.336l-19.88 -1.392l-7.528 107.328z" />
    <glyph glyph-name="uniE61D" unicode="&#xe61d;" horiz-adv-x="601" 
d="M0.006 477.577h107.91v-53.955h-107.91zM0.006 402.039h107.91v-366.901h-107.91zM19.788 103.042c0 -18.628 15.089 -33.724 33.724 -33.724c18.628 0 33.723 15.089 33.723 33.724s-15.095 33.729 -33.724 33.729c-18.635 -0.006 -33.724 -15.113 -33.724 -33.73z
M0.006 -29.608h107.91v43.164h-107.91zM129.499 21.104v-50.712h140.284v50.977c-5.728 4.094 -23.524 13.769 -64.746 13.769c-39.076 0 -64.031 -8.756 -75.537 -14.034zM129.499 331.534c11.506 -5.266 36.462 -14.034 75.537 -14.034
c40.963 0.006 58.802 9.558 64.746 13.843v38.324h-140.284v-38.132zM129.499 308.17v-263.695c15.625 5.846 40.648 12.24 75.537 12.24c31.479 0 51.901 -5.266 64.746 -10.889v260.976c-12.844 -5.611 -33.267 -10.884 -64.746 -10.884
c-34.889 0.013 -59.911 6.407 -75.537 12.253v-0.001zM498.607 480l-73.995 -15.182l10.853 -52.851l73.995 15.182zM587.525 46.577l-73.983 -15.188l-73.755 359.428l73.995 15.182l73.743 -359.421zM561.855 110.639c-3.743 18.233 -18.32 30.652 -32.527 27.736
c-14.226 -2.929 -22.741 -20.09 -18.98 -38.324c3.743 -18.233 18.308 -30.665 32.527 -27.736c14.226 2.916 22.729 20.065 18.98 38.324zM591.872 25.464l-74.008 -15.194l8.682 -42.264l73.995 15.182l-8.67 42.276h0.001zM302.154 423.621h107.91v53.955h-107.91
v-53.955zM302.154 -29.608h107.91v43.164h-107.91v-43.164zM302.154 89.094h107.91v258.99h-107.91v-258.99zM302.154 35.139h107.91v32.373h-107.91v-32.373zM302.154 369.666h107.91v32.373h-107.91v-32.373z" />
    <glyph glyph-name="uniE61E" unicode="&#xe61e;" 
d="M24 32h112v152h-112v-152zM105.504 117c5.248 0 9.504 -4.256 9.504 -9.504s-4.256 -9.504 -9.504 -9.504s-9.504 4.264 -9.504 9.512c0 5.24 4.256 9.496 9.504 9.496zM160 -16v224h-160v-224h24v24h112v-24h24zM24 24h-8v168h128v-168h-120zM192 32h112v152h-112v-152z
M281.504 117c5.248 0 9.504 -4.256 9.504 -9.504s-4.256 -9.504 -9.504 -9.504s-9.504 4.264 -9.504 9.512c0 5.24 4.256 9.496 9.504 9.496zM328 -16v224h-160v-224h24v24h112v-24h24zM192 24h-8v168h128v-168h-120zM360 120h128v-88h-128v88zM480 216h-40
c-4.416 0 -8 -3.584 -8 -8h-16c0 4.416 -3.584 8 -8 8h-40c-4.416 0 -8 -3.584 -8 -8h-24v-224h24v24h128v-24h24v224h-24c0 4.416 -3.584 8 -8 8zM459 179.504c0 -5.248 -4.256 -9.504 -9.504 -9.504s-9.496 4.256 -9.496 9.504s4.256 9.504 9.504 9.504
s9.496 -4.264 9.496 -9.504zM480 152c2.208 0 4 -1.792 4 -4s-1.792 -4 -4 -4h-112c-2.208 0 -4 1.792 -4 4s1.792 4 4 4h112zM419 179.504c0 -5.248 -4.256 -9.504 -9.504 -9.504s-9.496 4.256 -9.496 9.504s4.256 9.504 9.504 9.504s9.496 -4.264 9.496 -9.504z
M369.504 189c5.248 0 9.504 -4.256 9.504 -9.504s-4.256 -9.504 -9.504 -9.504s-9.504 4.264 -9.504 9.512c0 5.24 4.256 9.496 9.504 9.496zM496 24h-144v104h144v-104zM489.504 189c5.248 0 9.504 -4.256 9.504 -9.504s-4.256 -9.504 -9.504 -9.504
s-9.504 4.264 -9.504 9.512c0 5.24 4.256 9.496 9.504 9.496zM456 376v104h-72v-104h-24l-32 -56h184l-32 56h-24zM457.504 338c-5.248 0 -9.504 4.256 -9.504 9.504c0 5.248 4.256 9.504 9.504 9.504s9.504 -4.256 9.504 -9.504c-0.008 -5.248 -4.264 -9.504 -9.504 -9.504
zM208 240h32c4.416 0 8 3.584 8 8s-3.584 8 -8 8h-40c-4.416 0 -8 -3.584 -8 -8v-32h16v24zM128 216v32c0 4.416 -3.584 8 -8 8h-40c-4.416 0 -8 -3.584 -8 -8s3.584 -8 8 -8h32v-24h16zM168 216v48c4.416 0 8 3.584 8 8s-3.584 8 -8 8v16c0 4.416 -3.584 8 -8 8
s-8 -3.584 -8 -8v-16c-4.416 0 -8 -3.584 -8 -8s3.584 -8 8 -8v-48h16zM296 384h-169.864c10.92 9.264 17.864 23.064 17.864 38.496c0 27.888 -22.608 50.496 -50.496 50.496s-50.504 -22.6 -50.504 -50.496c0 -15.44 6.944 -29.24 17.864 -38.496h-44.864v-16h280v16z
M60 422.496c0 18.48 15.024 33.504 33.504 33.504s33.504 -15.024 33.504 -33.504s-15.024 -33.504 -33.504 -33.504s-33.504 15.032 -33.504 33.504zM119.008 422.496c0 -14.085 -11.418 -25.504 -25.504 -25.504s-25.504 11.418 -25.504 25.504
s11.418 25.504 25.504 25.504c14.085 0 25.504 -11.418 25.504 -25.504zM172 392h112c2.208 0 4 1.792 4 4s-1.792 4 -4 4h-112c-2.208 0 -4 -1.792 -4 -4s1.792 -4 4 -4zM180 408h96c2.208 0 4 1.792 4 4s-1.792 4 -4 4h-96c-2.208 0 -4 -1.792 -4 -4s1.792 -4 4 -4z
M180 424h96c2.208 0 4 1.792 4 4s-1.792 4 -4 4h-96c-2.208 0 -4 -1.792 -4 -4s1.792 -4 4 -4zM201.184 440h49.632c7.576 0 12.368 10.736 12.368 18.48c0 5.376 -2.304 13.52 -6.24 13.52h-61.904c-3.936 0 -6.24 -8.152 -6.24 -13.52
c0.016 -7.744 4.808 -18.48 12.384 -18.48z" />
    <glyph glyph-name="uniE61F" unicode="&#xe61f;" 
d="M356 243.2h-74.4c-7.2 0 -13.2 -6 -13.2 -13.2v-26.4c0 -7.2 6 -13.2 13.2 -13.2h78.4c7.2 0 13.2 6 13.2 13.2v26.4c0 7.2 -6 13.2 -13.2 13.2h-4zM46.4 95.2v-70.4h26v26h358.4v-26h26v70.4h-410.4zM431.6 330.8v-42.4l-0.4 0.4v-0.4c-15.6 15.2 -37.2 24.8 -61.2 24.8
h-235.6c-23.6 0 -45.2 -9.6 -61.2 -24.8v0.4l-0.4 -0.4v42.4h-26v-157.2c6 9.6 15.2 17.2 30.8 17.2h47.6c-2.8 3.6 -4.4 8.4 -4.4 13.2v26c0 12 10 22 22 22h79.2c12 0 22 -10 22 -22v-26c0 -4.8 -1.6 -9.6 -4.4 -13.2h25.6c-2.8 3.6 -4.4 8.4 -4.4 13.2v26
c0 12 10 22 22 22h79.2c12 0 20.4 -10 20.4 -22v-26c0 -4.8 -1.6 -9.6 -4.4 -13.2h49.2c15.2 0 24.8 -7.6 30.8 -17.2v157.2h-26.4zM141.6 191.2h78.4c7.2 0 13.2 6 13.2 13.2v26.4c0 7.2 -6 13.2 -13.2 13.2h-78.4c-7.2 0 -13.2 -6 -13.2 -13.2v-26.4
c0.4 -7.6 6.4 -13.2 13.2 -13.2zM457.6 137.6c-1.2 0.4 -2.8 0.8 -4.4 0.8h-3.2h-398.8h-0.4c-1.2 0 -2.8 -0.4 -4 -0.8c-4.8 -1.6 -8.8 -6.8 -8.8 -12.4v-8.8c0 -6 3.6 -10.4 8.8 -12.4c1.2 -0.4 2.8 -0.8 4.4 -0.8h402.4c0.8 0 1.6 0 2.4 0.4c0.8 0 1.2 0.4 2 0.4
c4.8 1.6 8.8 6.8 8.8 12.4v8.8c-0.4 5.6 -4 10.4 -9.2 12.4zM456.8 152c-2 11.6 -8.8 30.4 -29.6 30.4h-350c-20.8 0 -27.6 -18.8 -29.6 -30.4c-0.4 -1.6 -0.4 -3.2 -0.8 -4.4h410.8c-0.4 1.2 -0.4 2.8 -0.8 4.4z" />
    <glyph glyph-name="uniE620" unicode="&#xe620;" horiz-adv-x="553" 
d="M396.414 477.929l-290.752 2.071l-105.662 -162.567v-18.588l247.448 -53.245l128.773 213.637l140.526 -166.691l35.554 0.328zM256.337 230.394l-242.96 53.556l0.086 -210.133l142.062 -60.788v134.537l70.833 -21.039v-143.822l33.829 -14.481v-0.224
l242.201 103.608v218.124l-125.079 148.12l-120.971 -207.458zM110.409 93.252l-60.201 20.935v50.466l60.201 -18.554v-52.849v0.002zM113.602 175.7l-60.477 17.26v50.588l60.477 -14.861v-52.987zM226.374 143.546l-70.833 20.211v54.626l70.832 -17.397v-57.44z
M378.671 79.668l-72.8 -25.475v58.993l72.8 22.471v-55.99v0.001zM406.976 227.944l63.152 15.534v-52.244l-63.152 -18.139v54.851v-0.002zM406.442 144.219l63.204 19.521v-52.262l-63.204 -22.11v54.851zM379.258 165.154l-72.748 -20.901v58.958l72.749 17.916v-55.972z
" />
    <glyph glyph-name="uniE621" unicode="&#xe621;" 
d="M424 288h-48v-24h-48v-24h-48v-24h-48v-24h-48v-24h-48v-24h-48v-24h-48v-32h440v224h-56v-24zM340 316c2.208 0 4 1.792 4 4v30.248l36.344 18.384c1.152 0.584 1.608 1.984 1.032 3.136l-1.504 2.976c-0.584 1.152 -1.984 1.608 -3.136 1.032l-260.552 -131.816
c-0.064 0 -0.12 0.04 -0.184 0.04c-1.36 0 -2.504 -0.72 -3.224 -1.76l-53.112 -26.872c-1.152 -0.584 -1.608 -1.984 -1.032 -3.136l1.504 -2.976c0.584 -1.152 1.984 -1.608 3.136 -1.032l48.728 24.656v-24.88c0 -2.208 1.792 -4 4 -4s4 1.792 4 4v28.928l112 56.656
v-29.584c0 -2.208 1.792 -4 4 -4s4 1.792 4 4v32c0 0.528 -0.112 1.024 -0.296 1.48l96.296 48.72v-26.2c0 -2.208 1.792 -4 4 -4z" />
    <glyph glyph-name="uniE622" unicode="&#xe622;" 
d="M485.264 162.664c0.024 0.264 0.16 0.496 0.16 0.776c0 0.56 -0.056 1.12 -0.168 1.648c-0.552 44.408 -23.544 70.44 -57.152 85.736v23.504c0 45.744 -33.904 73.056 -90.704 73.056c-42.528 0 -72.216 -15.32 -84.448 -42.224
c-13.88 22.784 -42.032 35.616 -80.952 35.616c-56.792 0 -90.696 -27.312 -90.696 -73.056v-21.44c-25.68 -15.968 -41.976 -41.608 -41.976 -82.832v-85.488c0 -8.824 7.176 -16 16 -16h21.232c8.824 0 16 7.176 16 16v37.944h339.48v-37.944c0 -8.824 7.176 -16 16 -16
h21.224c8.824 0 16 7.176 16 16zM55.336 131.888v23.552h413.928v-23.544h-413.928zM262.712 274.328c0 51.496 52.232 57.056 74.696 57.056s74.704 -5.56 74.704 -57.056v-17.248c-43.912 14.664 -100.56 15.48 -149.624 15.52c-0.016 0.16 -0.016 0.32 -0.024 0.48
c0.064 0.424 0.248 0.8 0.248 1.248zM97.312 267.712c0 51.504 52.24 57.056 74.696 57.056c21.712 0 71.096 -5.328 74.384 -52.168c-53.024 -0.032 -108.784 -0.88 -149.08 -18.104zM254.176 256.6c57.392 0 119.12 -0.024 161.664 -17.216
c0.792 -0.504 1.632 -0.848 2.576 -1.064c28.576 -12.248 47.968 -32.688 50.544 -66.888h-413.376c5.016 78.904 85.864 85.168 198.592 85.168zM55.336 77.944v37.928h21.224l0.008 -37.928h-21.232zM448.04 77.944v37.928h21.224l0.016 -37.928h-21.24z" />
    <glyph glyph-name="uniE623" unicode="&#xe623;" 
d="M335.872 334.352c0 -20.784 -16.849 -37.632 -37.632 -37.632s-37.632 16.848 -37.632 37.632s16.849 37.632 37.632 37.632c20.784 0 37.632 -16.849 37.632 -37.632zM433.27 334.352c0 -20.784 -16.849 -37.632 -37.632 -37.632s-37.632 16.848 -37.632 37.632
s16.849 37.632 37.632 37.632c20.784 0 37.632 -16.849 37.632 -37.632zM428.589 84.967c-0.39 -0.029 -0.776 -0.045 -1.171 -0.045c-8.041 0 -14.584 6.542 -14.584 14.588c0 45.568 28.587 64.529 29.805 65.313c0.268 0.175 0.541 0.329 0.813 0.463
c0.008 0.008 0.024 0.017 0.036 0.024c-0.036 0.171 -0.077 0.341 -0.114 0.52c-6.266 5.323 -10.269 13.239 -10.269 22.089c0 4.259 0.942 8.289 2.601 11.935c-0.61 2.58 -1.138 4.783 -1.544 6.469v28.143c3.259 -6.782 5.791 -15.291 7.274 -26.246
c5.262 5.356 12.577 8.688 20.659 8.688c2.654 0 5.221 -0.39 7.672 -1.06c-6.843 42.082 -27.648 58.661 -48.925 71.709c-0.748 0.459 -1.524 0.809 -2.312 1.113c-4.197 2.772 -8.899 4.803 -13.702 5.949c-0.029 0.004 -0.061 0.008 -0.089 0.012l-9.09 -9.541
l-9.378 9.44c-5.209 -1.28 -10.309 -3.608 -14.759 -6.786c-0.13 -0.077 -0.272 -0.109 -0.402 -0.191c-8.339 -5.112 -16.603 -10.773 -23.974 -18.286c-7.359 7.83 -15.836 13.962 -24.613 19.342c-1.28 0.792 -2.658 1.288 -4.055 1.637
c-3.421 1.918 -7.115 3.365 -10.849 4.283l-9.378 -9.44l-9.086 9.541c-0.033 -0.004 -0.069 -0.008 -0.094 -0.012c-4.799 -1.15 -9.497 -3.178 -13.694 -5.945c-0.788 -0.309 -1.577 -0.659 -2.32 -1.118c-22.3 -13.682 -42.671 -32.5 -46.352 -73.923
c3.97 2.084 8.469 3.275 13.251 3.275c5.859 0 11.304 -1.772 15.844 -4.799c0.703 7.29 2.044 13.475 3.942 18.786v-21.959c5.462 -5.221 8.883 -12.556 8.883 -20.692c0 -7.298 -2.776 -13.942 -7.29 -19.009c0.171 -0.491 0.317 -0.983 0.508 -1.459
c-0.101 -0.76 -0.166 -1.524 -0.166 -2.308v-1.67c0.134 -0.11 0.281 -0.219 0.418 -0.333c5.283 -3.921 27.973 -23.097 27.973 -63.427c0 -7.976 -6.49 -14.474 -14.474 -14.474c-3.051 0 -5.876 0.947 -8.216 2.564c-0.101 -0.256 -0.216 -0.512 -0.325 -0.768
l-0.008 -70.108c0 -1.292 -0.163 -2.548 -0.439 -3.759c3.141 -3.21 7.51 -5.205 12.349 -5.205c9.537 0 17.266 7.733 17.266 17.27l-0.008 120.072c0.683 -0.036 1.365 -0.086 2.052 -0.086c0.134 0 0.272 0.012 0.406 0.017l-0.004 -119.999
c0 -9.537 7.733 -17.27 17.27 -17.27s17.27 7.733 17.27 17.266l0.004 139.048c0.219 0.418 0.43 0.841 0.634 1.264c0.219 -0.008 0.426 -0.061 0.638 -0.061h0.216c4.32 0.057 8.171 2.003 10.805 5.026c0.935 -0.833 1.983 -1.548 3.116 -2.125
c-6.046 -27.351 -12.784 -59.356 -12.817 -66.365c-0.029 -5.741 10.334 -10.663 24.938 -13.759v-63.033c0 -9.537 7.729 -17.266 17.266 -17.266c9.541 0 17.27 7.733 17.27 17.27v59.543c0.808 0 1.63 0 2.446 0.004l-0.004 -59.543c0 -9.537 7.729 -17.266 17.27 -17.27
c9.541 0 17.262 7.729 17.262 17.266l0.008 28.777h-9.058l5.401 30.63zM262.981 188.684c0 -12.161 -9.858 -22.02 -22.02 -22.02s-22.02 9.858 -22.02 22.02c0 12.161 9.858 22.02 22.02 22.02c12.161 0 22.02 -9.858 22.02 -22.02zM276.594 92.647
c4.327 0 7.827 3.502 7.827 7.83c0 37.741 -20.988 54.979 -25.502 58.246c-1.519 1.361 -3.494 2.719 -6.124 4.153c-2.004 1.122 -4.157 1.962 -6.347 2.503l-5.49 -5.522l-5.327 5.587c-0.012 -0.004 -0.032 -0.012 -0.049 -0.021
c-3.429 -0.817 -6.733 -2.434 -9.545 -4.64c-0.239 -0.118 -0.476 -0.216 -0.707 -0.358c-1.077 -0.695 -26.368 -17.481 -26.368 -58.86c0 -4.324 3.499 -7.83 7.831 -7.83c4.32 0 7.827 3.507 7.827 7.83c0 9.403 1.572 17.103 3.796 23.382v-27.331
c0 -2.296 0.439 -4.445 1.236 -6.421c-0.065 -0.443 -0.106 -0.894 -0.106 -1.353l0.008 -72.151c0 -5.579 4.526 -10.106 10.106 -10.102c5.575 0 10.098 4.526 10.098 10.102v60.546c0.398 -0.021 0.797 -0.053 1.203 -0.053c0.077 0 0.155 0.004 0.236 0.008v-60.502
c0 -5.579 4.523 -10.102 10.106 -10.102c5.575 0 10.102 4.526 10.102 10.102l0.004 71.651c1.32 2.454 2.101 5.229 2.101 8.274v29.985c2.978 -6.855 5.258 -15.754 5.258 -27.128c0.004 -4.32 3.502 -7.827 7.83 -7.827zM485.469 188.359
c0 -12.343 -10.006 -22.349 -22.349 -22.349s-22.349 10.006 -22.349 22.349s10.006 22.349 22.349 22.349c12.343 0 22.349 -10.006 22.349 -22.349zM481.341 157.956c-1.54 1.382 -3.543 2.759 -6.209 4.214c-2.036 1.138 -4.226 1.991 -6.445 2.539l-5.567 -5.608
l-5.397 5.668c-0.017 -0.004 -0.045 -0.012 -0.061 -0.012c-3.47 -0.833 -6.83 -2.474 -9.679 -4.717c-0.248 -0.118 -0.488 -0.212 -0.715 -0.358c-1.101 -0.703 -26.766 -17.741 -26.766 -59.733c0 -4.392 3.555 -7.948 7.944 -7.948s7.948 3.555 7.948 7.948
c0 9.541 1.593 17.355 3.84 23.726v-16.315l-8.123 -45.946h9.269l0.012 -46.588c0 -5.668 4.587 -10.257 10.248 -10.257c5.668 0 10.248 4.587 10.248 10.257v46.588h1.459l-0.004 -46.588c0 -5.668 4.591 -10.257 10.257 -10.257s10.252 4.587 10.252 10.257v46.588h10.2
l-8.062 45.556v19.399c3.019 -6.957 5.336 -15.99 5.336 -27.534c0 -4.389 3.551 -7.948 7.952 -7.948c4.385 0 7.94 3.555 7.94 7.948c0.012 38.306 -21.293 55.804 -25.877 59.12v0.001zM206.929 15.153l-0.008 63.517h-0.215c-11.232 0 -20.362 9.135 -20.362 20.358
c0 26.579 9.082 44.475 17.631 55.462h-37.441v-119.832h-67.052v226.816h130.166c9.626 15.173 22.381 25.206 34.987 33.113c-10.2 9.188 -16.656 22.447 -16.656 37.221c0 27.656 22.5 50.16 50.159 50.16c8.464 0 16.421 -2.138 23.418 -5.86l-89.917 70.091
c-3.507 3.685 -8.371 5.774 -13.454 5.774c-5.088 0 -9.947 -2.089 -13.454 -5.774l-115.452 -97.004v52.39l-49.672 0.082v-87.743l-27.482 -27.486c-9.809 -9.81 -9.809 -25.706 0 -35.507c9.801 -9.809 25.698 -9.809 35.507 0l13.218 13.215v-248.808
c0 -10.666 8.651 -19.31 19.318 -19.31h137.346c-6.347 4.01 -10.585 11.073 -10.585 19.123z" />
    <glyph glyph-name="uniE624" unicode="&#xe624;" 
d="M128 480v-128h64v64h256v-384h-256v64h-64v-128h384v512h-384zM224 128l96 96l-96 96v-64h-224v-64h224v-64z" />
    <glyph glyph-name="uniE625" unicode="&#xe625;" 
d="M249.072 432.384l227.168 -271.04l20.224 16.952l-233.84 279c-3.504 4.176 -8.592 6.512 -13.84 6.496c-5.304 -0.048 -10.304 -2.512 -13.72 -6.752l-225.136 -278.936l20.536 -16.576zM245.752 407.672l-170.568 -211.328l33.712 -192.128h271.624l49.6 192.128
l-177.184 211.392c-2.008 2.4 -5.216 2.368 -7.184 -0.064zM190.36 259.568c15.232 7.952 36.696 -3.08 47.936 -24.632c11.232 -21.544 8 -45.456 -7.232 -53.4c-15.232 -7.952 -36.688 3.08 -47.928 24.632c-11.248 21.544 -8 45.456 7.224 53.4zM134.576 149.264
c-11.232 21.544 -8 45.456 7.216 53.4c15.232 7.952 36.704 -3.08 47.936 -24.632c11.232 -21.544 8 -45.456 -7.216 -53.4c-15.232 -7.944 -36.696 3.088 -47.936 24.632zM364.592 202.664c15.232 -7.944 18.472 -31.848 7.224 -53.4
c-11.24 -21.544 -32.696 -32.576 -47.928 -24.632s-18.472 31.856 -7.224 53.4c11.24 21.552 32.696 32.584 47.928 24.632zM268.112 234.936c11.232 21.544 32.704 32.576 47.928 24.632s18.464 -31.856 7.224 -53.4c-11.232 -21.544 -32.704 -32.576 -47.936 -24.632
c-15.216 7.944 -18.464 31.856 -7.216 53.4zM306.152 121.8c0 -2.768 -0.288 -5.456 -0.776 -8.08c14.832 -1.616 20.768 -19.664 20.768 -34.928c0 -16.352 -13.248 -29.616 -29.608 -29.616c-14.648 0 -23.048 1.768 -40.608 10.936
c-3.408 -0.856 -25.816 -10.936 -40.608 -10.936c-16.352 0 -29.608 13.264 -29.608 29.616c0 15.84 6.832 34.312 22.48 35.104c-0.472 2.568 -0.76 5.2 -0.76 7.904c0 24.144 25.216 49.36 49.36 49.36c24.144 0 49.36 -25.216 49.36 -49.36z" />
    <glyph glyph-name="uniE626" unicode="&#xe626;" 
d="M52.84 184h65.952l8.904 -72h8.304v96h-81.552l-7.896 128h-14.552v-224h14.552zM60 216h72c2.208 0 4 1.792 4 4s-1.792 4 -4 4h-72c-2.208 0 -4 -1.792 -4 -4s1.792 -4 4 -4zM463.552 208h-87.552v-96h14.304l8.904 72h65.952l6.288 -72h16.552v224h-16.552zM376 220
c0 -2.208 1.792 -4 4 -4h72c2.208 0 4 1.792 4 4s-1.792 4 -4 4h-72c-2.208 0 -4 -1.792 -4 -4zM103.048 280h64.952v-168h12.368l9.608 136h132.856l9.608 -136h11.56v168h72.952c3.896 0 7.048 3.152 7.048 7.048v1.904c0 3.896 -3.152 7.048 -7.048 7.048h-313.904
c-3.896 0 -7.048 -3.152 -7.048 -7.048v-1.904c0 -3.896 3.152 -7.048 7.048 -7.048zM320.568 280l1.128 -16h-130.592l1.128 16h128.336z" />
    <glyph glyph-name="uniE627" unicode="&#xe627;" 
d="M76.12 102.176h-0.432l-6.92 112.28h-12.768v-196.488h12.768l3.68 42.104h62.296l5.208 -42.104h7.288v84.208zM133.872 67.088h-60.816l1.232 14.032h57.856zM434.552 102.176h-76.792v-84.216h12.544l5.208 42.104h62.296l3.68 -42.104h14.512v196.496h-14.52z
M437.184 67.088h-60.816l1.736 14.032h57.856zM399.856 150.464v22.72c0 3.416 -2.768 6.184 -6.184 6.184h-275.352c-3.416 0 -6.184 -2.768 -6.184 -6.184v-22.72c0 -3.416 2.768 -6.184 6.184 -6.184h78.032v-14.032h28.072v-104.48c0 -0.272 0.064 -0.52 0.08 -0.784
h-28.144v-14.032h119.296v14.032h-28.144c0.016 0.264 0.08 0.52 0.08 0.784v104.48h28.072v14.032h78.032c3.4 0 6.16 2.768 6.16 6.184zM214.568 453.056v-100.52h-4.712c-5.616 -18.768 -13.512 -34.672 -13.512 -60.216c0 -22.768 9.032 -42.328 11.176 -53.664h24.48
c4.368 12.888 9.52 31.6 9.52 53.664c0 25.552 -6.096 41.456 -11.712 60.216h-5.864v100.52h-9.376zM280.256 453.056v-44.216h-4.24c-5.896 -18.768 -12.12 -36.4 -12.12 -63.224c0 -28.272 8.832 -44.864 11.08 -56.752h24.28c4.6 13.528 10.256 33.576 10.256 56.736
c0 26.824 -6.656 44.456 -12.544 63.224h-7.32v44.232z" />
    <glyph glyph-name="uniE628" unicode="&#xe628;" 
d="M458.4 232.8v209.6h-404.8v-209.6h-21.6v-166h448v166zM350 428h86.8v-180.8h-86.8v180.8zM172.8 428h166v-180.8h-166v180.8zM75.2 428h86.8v-180.8h-86.8v180.8zM176.4 95.6h-122.8v108.4h122.8v-108.4zM314 95.6h-116v43.2h115.6v-43.2zM314 160.4h-116v43.6h115.6
v-43.6h0.4zM458.4 95.6h-122.8v108.4h122.8v-108.4zM451.2 196.8h-108.4v-94h108.4zM428.4 138.4c-4.8 0 -9.2 4 -9.2 9.2c0 4.8 4 9.2 9.2 9.2c4.8 0 9.2 -4 9.2 -9.2s-4 -9.2 -9.2 -9.2zM82.4 420.8h72.4v-166h-72.4v166zM357.2 420.8h72.4v-166h-72.4zM252.4 420.8h-72.4
v-166h72.4v166zM237.2 333.6c-4.8 0 -9.2 4 -9.2 9.2s4 9.2 9.2 9.2s9.2 -4 9.2 -9.2c-0.4 -5.2 -4.4 -9.2 -9.2 -9.2zM332 420.8h-72.4v-166h72.4v166zM274.4 333.6c-4.8 0 -9.2 4 -9.2 9.2s4 9.2 9.2 9.2c4.8 0 9.2 -4 9.2 -9.2s-4 -9.2 -9.2 -9.2zM60.8 196.8v-94h108.4
v94h-108.4zM146.8 156.4c4.8 0 9.2 -4 9.2 -9.2c0 -4.8 -4 -9.2 -9.2 -9.2s-9.2 4 -9.2 9.2s4 9.2 9.2 9.2zM46.4 52h36v-14.4h-36zM429.6 52h36v-14.4h-36v14.4z" />
    <glyph glyph-name="uniE629" unicode="&#xe629;" 
d="M181.2 29.2h187.2v342.8h-187.2v-342.8zM342.8 238.8c8.8 0 15.6 -6.8 15.6 -15.6s-6.8 -15.6 -15.6 -15.6s-15.6 6.8 -15.6 15.6s6.8 15.6 15.6 15.6zM352 223.2c0 -5.081 -4.119 -9.2 -9.2 -9.2s-9.2 4.119 -9.2 9.2s4.119 9.2 9.2 9.2c5.081 0 9.2 -4.119 9.2 -9.2z
M159.2 397.2l20 -18.8h191.2l20.4 18.8h-231.6zM155.6 403.6h239.2l24 18.4h-287.2zM374.8 29.2h18.4v362l-18.4 -17.6v-344.4zM174.8 374l-18.4 17.6v-362h18.4v344.4z" />
    <glyph glyph-name="uniE62A" unicode="&#xe62a;" 
d="M492.308 243.692v157.538c0 31.665 -20.973 78.769 -78.769 78.769c-48.62 0 -70.971 -33.32 -76.899 -62.76c-23.512 -7.562 -40.645 -29.361 -40.645 -55.394h116.933c0 24.458 -15.045 45.351 -36.371 54.075c3.702 11.382 13.075 24.694 36.982 24.694
c35.958 0 39.227 -30.267 39.385 -39.385v-157.538h-433.231c-10.87 0 -19.692 -8.822 -19.692 -19.692v-19.692c0 -10.89 8.822 -19.692 19.692 -19.692v-59.077c0 -42.693 36.017 -84.618 77.666 -95.606c-1.95 -9.63 -6.971 -22.548 -18.59 -22.548
c-10.87 0 -19.692 -8.803 -19.692 -19.692s8.822 -19.692 19.692 -19.692c34.008 0 54.055 28.672 58.191 59.077h238.06c4.155 -30.405 24.202 -59.077 58.191 -59.077c10.89 0 19.692 8.803 19.692 19.692s-8.803 19.692 -19.692 19.692
c-11.618 0 -16.64 12.918 -18.589 22.548c41.669 10.988 77.686 52.913 77.686 95.606v59.077c10.89 0 19.692 8.803 19.692 19.692v19.692c0 10.87 -8.803 19.692 -19.692 19.692v0.001zM452.923 125.538c0 -28.16 -30.917 -59.077 -59.077 -59.077h-275.692
c-27.608 0 -59.077 31.469 -59.077 59.077v59.077h393.846v-59.077zM304.325 339.771l1.201 4.766c1.3 5.297 6.577 8.507 11.933 7.168c5.297 -1.32 8.488 -6.656 7.168 -11.934l-1.201 -4.765c-1.123 -4.49 -5.139 -7.464 -9.551 -7.464
c-0.788 0 -1.575 0.099 -2.383 0.296c-5.277 1.32 -8.467 6.656 -7.168 11.933h0.001zM294.715 301.293l1.93 7.699c1.3 5.278 6.558 8.527 11.933 7.168c5.297 -1.319 8.488 -6.656 7.168 -11.933l-1.93 -7.7c-1.123 -4.49 -5.139 -7.464 -9.551 -7.464
c-0.788 0 -1.575 0.099 -2.383 0.296c-5.277 1.32 -8.488 6.675 -7.168 11.934zM285.834 265.768l1.201 4.765c1.3 5.278 6.577 8.527 11.933 7.168c5.297 -1.32 8.488 -6.656 7.168 -11.933l-1.201 -4.766c-1.103 -4.49 -5.12 -7.464 -9.551 -7.464
c-0.788 0 -1.575 0.099 -2.383 0.296c-5.297 1.32 -8.488 6.675 -7.168 11.934h0.001zM404.598 339.771c1.3 -5.277 -1.89 -10.614 -7.168 -11.933c-0.788 -0.197 -1.595 -0.296 -2.383 -0.296c-4.431 0 -8.448 2.974 -9.551 7.464l-1.201 4.765
c-1.3 5.278 1.89 10.614 7.168 11.934c5.159 1.359 10.614 -1.871 11.933 -7.168l1.201 -4.766h0.001zM414.208 301.293c1.3 -5.278 -1.89 -10.614 -7.168 -11.934c-0.788 -0.197 -1.595 -0.296 -2.383 -0.296c-4.431 0 -8.448 2.974 -9.551 7.464l-1.93 7.7
c-1.3 5.278 1.89 10.614 7.168 11.933c5.159 1.379 10.614 -1.89 11.933 -7.168l1.93 -7.699zM409.954 277.701c5.219 1.378 10.614 -1.891 11.933 -7.168l1.201 -4.766c1.3 -5.277 -1.89 -10.614 -7.168 -11.934c-0.788 -0.197 -1.595 -0.296 -2.383 -0.296
c-4.431 0 -8.448 2.973 -9.551 7.463l-1.201 4.766c-1.3 5.277 1.89 10.614 7.168 11.934zM344.615 337.231v4.923c0 5.435 4.411 9.846 9.846 9.846s9.846 -4.411 9.846 -9.846v-4.923c0 -5.435 -4.411 -9.846 -9.846 -9.846s-9.846 4.411 -9.846 9.846zM344.615 306.589
c0 5.435 4.411 9.846 9.846 9.846s9.846 -4.411 9.846 -9.846v-7.661c0 -5.435 -4.411 -9.846 -9.846 -9.846s-9.846 4.411 -9.846 9.846v7.661zM344.615 268.308c0 5.435 4.411 9.846 9.846 9.846s9.846 -4.411 9.846 -9.846v-4.923c0 -5.435 -4.411 -9.846 -9.846 -9.846
s-9.846 4.411 -9.846 9.846v4.923z" />
    <glyph glyph-name="uniE62B" unicode="&#xe62b;" 
d="M472.28 92.536l-69.936 69.944c-13.928 13.872 -37 13.448 -51.416 -0.968l-35.232 -35.232c-2.224 1.232 -4.528 2.512 -6.952 3.872c-22.248 12.328 -52.704 29.224 -84.752 61.296c-32.136 32.136 -49.056 62.64 -61.416 84.904c-1.312 2.36 -2.56 4.632 -3.792 6.792
l35.272 35.256c14.44 14.44 14.84 37.504 0.936 51.416l-69.936 69.952c-13.896 13.896 -36.976 13.472 -51.416 -0.968l-19.712 -19.824l0.544 -0.536c-6.608 -8.432 -12.136 -18.16 -16.24 -28.648c-3.792 -9.984 -6.152 -19.512 -7.232 -29.056
c-9.232 -76.56 25.752 -146.528 120.696 -241.48c131.24 -131.232 237.008 -121.32 241.568 -120.832c9.944 1.184 19.464 3.56 29.144 7.32c10.4 4.064 20.12 9.576 28.544 16.168l0.432 -0.376l19.968 19.552c14.408 14.44 14.824 37.504 0.928 51.448z" />
    <glyph glyph-name="uniE62C" unicode="&#xe62c;" 
d="M116.8 407.6l32.8 -4h140v-32.8h-148.4v25.6l-123.6 14.8v-377.2l123.6 29.2v299.6h24.8v-33.6c-4.8 -1.6 -8.4 -6.4 -8.4 -11.6v-156.8c0 -6.8 5.6 -12.4 12.4 -12.4s12.4 5.6 12.4 12.4v156.4c0 5.2 -3.6 10 -8.4 11.6v33.6h32.8v-33.6c-4.8 -1.6 -8.4 -6.4 -8.4 -11.6
v-181.2c0 -6.8 5.6 -12.4 12.4 -12.4s12.4 5.6 12.4 12.4v181.2c0 5.2 -3.6 10 -8.4 11.6v33.6h32.8v-33.6c-4.8 -1.6 -8.4 -6.4 -8.4 -11.6v-181.2c0 -6.8 5.6 -12.4 12.4 -12.4s12.4 5.6 12.4 12.4v181.2c0 5.2 -3.6 10 -8.4 11.6v33.6h32.8v-304.8h-140l-32.8 -8.8v-48.8
h24.8v24.8h148.4v-24.8h24.8v24.8h148.4v-24.8h24.8v428.8h-370zM314.4 404h140v-346h-140v346zM322.8 66h123.6v329.6h-123.6zM346.4 250.8c5.6 0 10.4 -4.8 10.4 -10.4s-4.8 -10.4 -10.4 -10.4c-5.6 0 -10.4 4.8 -10.4 10.4c0 6 4.8 10.4 10.4 10.4zM116.8 436.8h370.8
l16.4 16.4h-404z" />
    <glyph glyph-name="uniE62D" unicode="&#xe62d;" 
d="M458 408h-4c-7.728 0 -14 -6.272 -14 -14v-90h-264v8h256v16c0 8.84 -7.16 16 -16 16h-240v32c0 2.208 -1.792 4 -4 4s-4 -1.792 -4 -4v-32h-72v32c0 2.208 -1.792 4 -4 4s-4 -1.792 -4 -4v-34.216c-4.76 -2.768 -8 -7.872 -8 -13.784v-16h8v-8h-16v90
c0 7.728 -6.272 14 -14 14h-4c-7.728 0 -14 -6.272 -14 -14v-372c0 -7.728 6.272 -14 14 -14h4c7.728 0 14 6.272 14 14v250h16v-264c0 -2.208 1.792 -4 4 -4s4 1.792 4 4v24h72v-24c0 -2.208 1.792 -4 4 -4s4 1.792 4 4v264h8v-264h274c7.728 0 14 6.272 14 14v372
c0 7.728 -6.272 14 -14 14zM168 40h-72v24h72v-24zM168 72h-72v24h72v-24zM168 104h-72v24h72v-24zM168 136h-72v24h72v-24zM168 168h-72v24h72v-24zM168 200h-72v24h72v-24zM168 232h-72v24h72v-24zM168 264h-72v8h72v-8zM168 304h-72v8h72v-8zM320 24h-120v248h120v-248z
M456 24h-120v48h120v-48zM456 88h-120v40h120v-40zM456 144h-120v128h120v-128zM402.096 384h-32.856c-12.096 0 -25.24 -8.952 -25.24 -21.048v-10.952h80v10.952c0 12.096 -9.808 21.048 -21.904 21.048zM312 264h-104v-232h104v232zM295.336 144
c-3.68 0 -6.664 2.984 -6.664 6.664s2.984 6.664 6.664 6.664s6.664 -2.984 6.664 -6.664c0 -3.68 -2.984 -6.664 -6.664 -6.664zM344 264v-112h104v112h-104zM359.336 200c-3.68 0 -6.664 2.984 -6.664 6.664s2.984 6.664 6.664 6.664s6.664 -2.984 6.664 -6.664
c0 -3.68 -2.984 -6.664 -6.664 -6.664zM432 120c0 -3.448 -1.792 -8 -4 -8h-64c-2.208 0 -4 4.552 -4 8h-16v-24h104v24h-16zM432 64c0 -3.448 -1.792 -8 -4 -8h-64c-2.208 0 -4 4.552 -4 8h-16v-32h104v32h-16z" />
    <glyph glyph-name="uniE62E" unicode="&#xe62e;" 
d="M472 336h-24c-4.416 0 -8 -3.584 -8 -8v-51.832c2.728 -5.08 4.416 -10.8 4.416 -16.96s-1.688 -11.872 -4.416 -16.96v-18.248h-23.664c-2.624 -0.608 -5.328 -1 -8.136 -1s-5.504 0.392 -8.128 1h-328.072v72c0 4.416 -3.584 8 -8 8h-24c-4.416 0 -8 -3.584 -8 -8v-192
c0 -4.416 3.584 -8 8 -8h24c4.416 0 8 3.584 8 8v64h368v-64c0 -4.416 3.584 -8 8 -8h24c4.416 0 8 3.584 8 8v224c0 4.416 -3.584 8 -8 8zM374.504 272.184l-62.504 7.816h-169l-63 -8v-40h296v11.008c-2.48 4.896 -4 10.344 -4 16.192c0 4.592 0.944 8.944 2.504 12.984z
M408.2 231c15.552 0 28.208 12.656 28.208 28.208s-12.656 28.208 -28.208 28.208s-28.2 -12.656 -28.2 -28.208s12.648 -28.208 28.2 -28.208z" />
    <glyph glyph-name="uniE62F" unicode="&#xe62f;" 
d="M120.784 4.28c21.496 4.264 36.208 23.68 44.584 43.72h-11.368c-4.848 0 -9.648 0.096 -14.392 0.312c-4.928 -10.08 -12.408 -18.8 -23.576 -20.544c-3.448 2.984 -7.88 4.848 -12.8 4.848c-10.856 0 -19.656 -8.8 -19.656 -19.656
c0 -10.856 8.8 -19.656 19.656 -19.656c7.728 0 14.344 4.496 17.552 10.976zM427.344 -6.696c10.856 0 19.656 8.8 19.656 19.656c0 10.856 -8.8 19.656 -19.656 19.656c-4.336 0 -8.312 -1.448 -11.56 -3.832c-9.536 3.176 -16.384 11.552 -21.144 20.88
c-7.28 -1.264 -13.752 -1.664 -18.608 -1.664h-8.552c6.864 -18.84 19.568 -37.136 41.816 -42.8c3.008 -6.992 9.952 -11.896 18.048 -11.896zM395.16 368.504l-40.176 40.184c-7.376 -1.88 -29.992 -16.464 -36.752 -23.52l53.464 -53.464
c7.008 6.704 21.44 29.096 23.464 36.8zM318.832 353.456c1.024 0 2.048 0.392 2.832 1.168l5.656 5.656c0.36 0.36 0.608 0.776 0.8 1.208c0.656 1.472 0.4 3.24 -0.8 4.448s-2.976 1.456 -4.448 0.8c-0.432 -0.192 -0.848 -0.448 -1.208 -0.8l-5.664 -5.648
c-1.56 -1.56 -1.56 -4.096 0 -5.656c0.784 -0.784 1.808 -1.176 2.832 -1.176zM301.856 336.488c1.024 0 2.048 0.392 2.832 1.168l5.656 5.656c1.56 1.56 1.56 4.096 0 5.656s-4.096 1.56 -5.656 0l-5.656 -5.656c-1.56 -1.56 -1.56 -4.096 0 -5.656
c0.784 -0.784 1.8 -1.168 2.824 -1.168zM284.888 319.512c1.024 0 2.048 0.392 2.832 1.168l5.656 5.656c1.56 1.56 1.56 4.096 0 5.656s-4.096 1.56 -5.656 0l-5.656 -5.656c-1.56 -1.56 -1.56 -4.096 0 -5.656c0.776 -0.776 1.8 -1.168 2.824 -1.168zM339.424 350.184
c0.656 1.472 0.408 3.248 -0.8 4.448c-1.208 1.208 -2.976 1.456 -4.448 0.8c-0.432 -0.192 -0.848 -0.448 -1.208 -0.8l-5.656 -5.664c-1.56 -1.56 -1.56 -4.096 0 -5.656c0.784 -0.784 1.808 -1.168 2.832 -1.168s2.048 0.392 2.832 1.168l5.656 5.664
c0.352 0.352 0.6 0.768 0.792 1.208zM321.656 337.656c-1.56 1.56 -4.096 1.56 -5.656 0l-5.656 -5.656c-1.56 -1.56 -1.56 -4.096 0 -5.656c0.784 -0.784 1.808 -1.168 2.832 -1.168s2.048 0.392 2.832 1.168l5.656 5.656c1.552 1.56 1.552 4.096 -0.008 5.656z
M304.688 320.688c-1.56 1.56 -4.096 1.56 -5.656 0l-5.656 -5.664c-1.56 -1.56 -1.56 -4.096 0 -5.656c0.784 -0.784 1.808 -1.168 2.832 -1.168s2.048 0.392 2.832 1.168l5.656 5.664c1.552 1.56 1.552 4.096 -0.008 5.656zM341.456 330.832
c1.024 0 2.048 0.392 2.832 1.168l5.656 5.656c0.36 0.36 0.608 0.776 0.8 1.208c0.656 1.472 0.4 3.24 -0.8 4.448s-2.976 1.456 -4.448 0.8c-0.432 -0.192 -0.856 -0.448 -1.208 -0.8l-5.656 -5.656c-1.56 -1.56 -1.56 -4.096 0 -5.656
c0.776 -0.784 1.8 -1.168 2.824 -1.168zM324.488 313.856c1.024 0 2.048 0.392 2.832 1.168l5.656 5.656c1.56 1.56 1.56 4.096 0 5.656s-4.096 1.56 -5.656 0l-5.656 -5.656c-1.56 -1.56 -1.56 -4.096 0 -5.656c0.776 -0.776 1.8 -1.168 2.824 -1.168zM307.512 296.888
c1.024 0 2.048 0.392 2.832 1.168l5.656 5.656c1.56 1.56 1.56 4.096 0 5.656s-4.096 1.56 -5.656 0l-5.656 -5.656c-1.56 -1.56 -1.56 -4.096 0 -5.656c0.784 -0.776 1.808 -1.168 2.824 -1.168zM488 248h-24v184c0 4.416 -3.576 8 -8 8h-34.752
c-2.008 0 -3.944 -0.752 -5.424 -2.112l-28.752 -26.472c-6.536 1.656 -13.992 -0.576 -18.592 -2.448l27.472 -27.48c1.984 5.12 3.824 12.112 2.264 18.432l26.16 24.08h23.624v-176h-416c-8.84 0 -16 -7.16 -16 -16v-16c0 -8.84 7.16 -16 16 -16h9.952
c1.216 -6.192 2.784 -13.312 4.768 -21.52l11.2 -53.664c15.672 -58 47.408 -67.416 85.016 -68.632c3.64 -0.112 7.32 -0.184 11.064 -0.184l210.88 -0.008c-0.008 0.04 -0.016 0.072 -0.032 0.112c0.008 -0.032 0.016 -0.072 0.032 -0.104h11.152
c4.536 0 9.736 0.288 15.312 1.112v0c24.6 3.624 56.552 17.656 71.48 63.48l18.2 79.408h6.976c0.432 0 0.832 0.096 1.256 0.128c8.24 0.648 14.744 7.464 14.744 15.872v16c0 8.84 -7.16 16 -16 16zM360.48 80.824v0c0 -0.048 0.008 -0.104 0.016 -0.152
c-0.008 0.048 -0.016 0.104 -0.016 0.152z" />
    <glyph glyph-name="uniE630" unicode="&#xe630;" 
d="M59.6 202h-18.4c-2 0 -3.2 -0.4 -3.6 -0.4l14.4 -64.8h2h8.8c-7.6 9.2 -12.8 18.8 -12.8 32.8c-0.4 12 3.2 23.2 9.6 32.4zM137.2 136.8v0l14 64.8c-0.4 0 -1.2 0.4 -3.6 0.4h-18.4c6 -8.8 9.6 -20 9.6 -32.4c0 -14 -5.2 -24 -12.4 -32.8h9.6h1.2zM117.6 136.8
c8.8 9.6 14.8 18.8 14.8 32.8c0 12.8 -4.4 24 -11.6 32.4c-2.4 2.8 -5.6 5.6 -8.4 7.2c-5.6 3.2 -11.2 5.2 -17.6 5.2s-12.4 -2 -17.6 -5.2c-2.8 -2 -5.6 -4.4 -8.4 -7.2c-7.2 -8.4 -11.6 -19.6 -11.6 -32.4c0 -14 5.6 -22.8 14.8 -32.8h45.6zM429.2 126.4
c-5.6 -1.6 -12 -2.4 -18.4 -2.4c-5.6 0 -11.2 0.8 -16.8 2l-14 -109.2c0 -1.6 1.6 -2.8 3.6 -2.8h56.4c2 0 3.2 1.6 3.2 3.2l-14 109.2v0zM440 6.4v0v0zM480.4 187.6h-28.8v14.4h4c2 0 3.2 1.6 3.2 3.2v0.4c0 2 -1.6 3.2 -3.2 3.2h-15.6c-2 0 -3.2 -1.6 -3.2 -3.2v-0.4
c0 -2 1.6 -3.2 3.2 -3.2h4v-14.4h-19.2l-4 19.6c-0.8 4 -1.6 8.8 -6 8.8v11.6c0 2 -1.6 3.6 -3.6 3.6s-3.6 -1.6 -3.6 -3.6v-11.6c-4.4 0 -6.4 -3.6 -7.6 -8.8l-4 -19.6h-24v14.4h4c2 0 3.2 1.6 3.2 3.2v0.4c0 2 -1.6 3.2 -3.2 3.2h-14.8c-2 0 -3.2 -1.6 -3.2 -3.2v-0.4
c0 -2 1.6 -3.2 3.2 -3.2h3.6v-14.4h-21.6c-2 0 -3.6 -1.6 -3.6 -3.6s1.6 -3.6 3.6 -3.6h10c1.2 -20.8 16.4 -38.8 37.6 -46c6 -2 13.2 -3.2 20.4 -3.2c7.6 0 14.8 1.6 21.2 3.6c20.8 7.2 35.6 24.8 36.4 45.6h12c2 0 3.6 1.6 3.6 3.6s-2 3.6 -4 3.6zM94.8 73.6
c-8.4 0 -16.4 1.6 -23.6 4l-8.8 -60c0 -1.2 2 -4 3.2 -4h56c1.6 0 3.2 2.4 3.2 4.4l-8.8 58.8c-6.4 -2 -13.6 -3.2 -21.2 -3.2zM156.8 122.4h5.2c2 0 3.6 1.6 3.6 3.6s-1.6 3.6 -3.6 3.6h-108.4h-0.8h-21.2c-2 0 -2.8 -1.2 -3.2 -2.8v-0.8c0 -0.8 0.4 -1.2 0.8 -2
c0 -1.2 1.2 -2 2.4 -2h4.8c3.2 -14.8 14 -27.2 28.8 -34.4c1.2 -0.8 2.4 -1.2 3.6 -2c1.2 -0.4 2 -0.8 3.2 -1.2c6.8 -2.4 14.4 -4 22.4 -4c7.2 0 14.4 1.2 20.8 3.2c1.2 0.4 2 0.8 3.2 1.2c1.6 0.4 2.4 1.2 3.6 1.6c15.6 7.2 27.2 20 30.4 35.6c0 0.4 4.4 0.4 4.4 0.4z
M243.6 374.4l25.2 -25.2c3.2 3.2 10 13.6 11.2 17.2l-19.2 19.2c-2.8 -0.8 -14 -8 -17.2 -11.2zM244 359.6c0.4 0 1.2 0 1.6 0.8l2.4 2.4c0.4 0.4 0.4 0.4 0.4 0.8c0.4 0.8 0.4 1.6 -0.4 2c-0.8 0.8 -1.6 0.8 -2 0.4c-0.4 0 -0.4 0 -0.8 -0.4l-2.4 -2.4
c-0.8 -0.8 -0.8 -2 0 -2.4c0.4 -1.2 0.8 -1.2 1.2 -1.2zM236 351.6c0.4 0 1.2 0 1.6 0.8l2.4 2.4c0.8 0.8 0.8 2 0 2.4c-0.8 0.8 -2 0.8 -2.4 0l-2.4 -2.4c-0.8 -0.8 -0.8 -2 0 -2.4c0 -0.8 0.4 -0.8 0.8 -0.8zM232 349.6c-0.8 0.8 -2 0.8 -2.4 0l-2.8 -2.8
c-0.8 -0.8 -0.8 -2 0 -2.4c0.4 -0.4 0.8 -0.8 1.6 -0.8c0.8 0 1.2 0 1.6 0.8l2.4 2.4c0.4 0.4 0.4 2 -0.4 2.8zM248 354.8c0.4 -0.4 0.8 -0.8 1.6 -0.8c0.8 0 1.2 0 1.6 0.8l2.4 2.4s0 0.4 0.4 0.8c0.4 0.8 0.4 1.6 -0.4 2c-0.8 0.8 -1.6 0.8 -2 0.4
c-0.4 0 -0.4 0 -0.8 -0.4l-2.8 -2.4c-0.8 -0.8 -0.8 -2.4 2.84217e-14 -2.8zM242.8 352l-2.8 -2.4c-0.8 -0.8 -0.8 -2 0 -2.4c0.4 -0.4 0.8 -0.8 1.6 -0.8s1.2 0 1.6 0.8l2.4 2.4c0.8 0.8 0.8 2 0 2.4c-0.8 0.8 -2.4 0.8 -2.8 0zM237.2 344c-0.8 0.8 -2 0.8 -2.4 0
l-2.8 -2.4c-0.8 -0.8 -0.8 -2 0 -2.4c0.4 -0.4 0.8 -0.8 1.6 -0.8c0.8 0 1.2 0 1.6 0.8l2.4 2.4c0.4 0.8 0.4 2 -0.4 2.4zM256.8 354.8c-0.4 0 -0.4 0 -0.8 -0.4l-2.4 -2.4c-0.8 -0.8 -0.8 -2 0 -2.4c0.4 -0.4 0.8 -0.8 1.6 -0.8c0.8 0 1.2 0 1.6 0.8l2.4 2.4
c0.4 0.4 0.4 0.4 0.4 0.8c0.4 0.8 0.4 1.6 -0.4 2c-0.8 0.4 -1.6 0.4 -2.4 -5.68434e-14zM248 346.8l-2.4 -2.8c-0.8 -0.8 -0.8 -2 0 -2.4c0.4 -0.4 0.8 -0.8 1.6 -0.8s1.2 0 1.6 0.8l2.4 2.4c0.8 0.8 0.8 2 0 2.4c-1.2 0.8 -2.4 0.8 -3.2 0.4zM240 338.8l-2.4 -2.8
c-0.8 -0.8 -0.8 -2 0 -2.4c0.4 -0.4 0.8 -0.8 1.6 -0.8c0.8 0 1.2 0 1.6 0.8l2.4 2.4c0.8 0.8 0.8 2 0 2.4c-1.2 1.2 -2.4 1.2 -3.2 0.4zM357.2 379.2v-101.2c0 -10 8 -18 18 -18h72.4c10 0 18 8 18 18v101.2c0 10 -8 18 -18 18h-72c-10.4 0 -18.4 -8 -18.4 -18zM448 390
c6 0 10.8 -4.8 10.8 -10.8v-101.2c0 -6 -4.8 -10.8 -10.8 -10.8h-72.4c-6 0 -10.8 4.8 -10.8 10.8v101.2c0 6 4.8 10.8 10.8 10.8h72.4zM176.4 57.2v-58h152v441.6h-152zM183.6 433.6h137.6v-376.4h-7.2v336.4c0 2 -1.6 3.6 -3.6 3.6h-17.6c-1.2 0 -2 -0.4 -2.4 -1.2
l-11.2 -10.4c-3.6 2.4 -8.4 1.2 -11.2 0l13.2 -13.2c0.8 2 1.2 4 1.6 5.6l12 11.2h12.8v-332.8h-124zM207.2 252.4h-3.6c-6.8 0 -12.8 -5.6 -12.8 -12.8v-32.4c0 -6.8 5.6 -12.8 12.8 -12.8h3.6c6.8 0 12.8 5.6 12.8 12.8v32.8c0 6.8 -6 12.4 -12.8 12.4zM212.8 207.2
c0 -2.8 -2.4 -5.6 -5.6 -5.6h-3.6c-2.8 0 -5.6 2.4 -5.6 5.6v32.8c0 2.8 2.4 5.6 5.6 5.6h3.6c2.8 0 5.6 -2.4 5.6 -5.6v-32.8zM31.6 296h123.2v-21.6h-123.2zM31.6 390h123.2v-21.6h-123.2zM82.8 397.2l6.8 43.6h-28.8l4 -43.6h18zM118.4 303.2v28.8h-57.6v-28.8h57.6z
M75.2 317.6h28.8v-7.2h-28.8v7.2zM53.2 346.8h72.4v-7.2h-72.4v7.2z" />
    <glyph glyph-name="uniE631" unicode="&#xe631;" 
d="M80.4 33.6h335.2v-45.6h22.8v289.6h-380.8v-289.6h22.8zM408 262.4h15.2v-122h-15.2v122zM377.6 262.4h22.8v-122h-22.8v122zM347.2 262.4h22.8v-122h-22.8v122zM316.4 262.4h22.8v-122h-22.8v122zM286 262.4h22.8v-122h-22.8v122zM255.6 262.4h22.8v-122h-22.8z
M225.2 262.4h22.8v-122h-22.8v122zM194.8 262.4h22.8v-122h-22.8v122zM164 262.4h22.8v-122h-22.8v122zM133.6 262.4h22.8v-122h-22.8v122zM103.2 262.4h22.8v-122h-22.8v122zM72.8 262.4h22.8v-122h-22.8v122zM320.4 321.2l-3.6 7.6v70.8c0 6.8 -2.8 9.6 -2.8 9.6l-60 61.6
c-0.8 0.8 -1.6 1.2 -2.8 1.2c-1.2 0 -2 -0.4 -2.8 -1.2l-55.2 -62.8c-2.8 -2.8 -6 -6 -6 -10v-75.6l-14 -14.4l21.6 -21.6l21.6 21.6l-21.6 21.6v59.2c10.8 -6.8 32 -9.6 53.2 -10v-38.4c-7.2 -1.6 -12.4 -8 -12.4 -15.6c0 -8.8 7.2 -16 16 -16c8.8 0 16 7.2 16 16
c0 7.2 -4.8 13.2 -11.6 15.2v38.8c21.6 0.4 42.4 3.2 53.2 10v-59.6l-3.6 -7.6l-16.8 -2.4l12 -12l-2.8 -16.8l15.2 8l15.2 -8l-2.8 16.8l12 12zM248 384.4c-33.6 0.4 -52.4 8.4 -53.2 13.2c0 0 -0.4 1.6 2.4 3.6c5.6 4 23.6 9.6 50.8 10v-26.8zM207.2 412.4l44.4 50
l49.6 -51.2c-24 6.8 -68 7.2 -94 1.2zM308.8 397.2c-0.8 -4.4 -19.6 -12.4 -53.2 -13.2v26.8c33.6 -0.4 52.4 -8.4 53.2 -13.2v-0.4z" />
    <glyph glyph-name="uniE632" unicode="&#xe632;" 
d="M440 208v32h-103.68l-32.32 -32h86.728l-69.44 -69.44l19.36 -19.36l67.352 67.352v-82.552l32 32.32v71.68zM136 152h80v80h80v88h88v80h80v32h-112v-80h-88v-88h-80v-80h-80v-80h-72v-32h104v80z" />
    <glyph glyph-name="uniE633" unicode="&#xe633;" 
d="M69.464 354.096c0 -15.16 6.904 -29.208 18.952 -38.568c8.664 -6.736 19.008 -10.288 29.904 -10.288c10.896 0 21.232 3.552 29.904 10.288c12.04 9.36 18.944 23.416 18.944 38.568c0 26.936 -21.912 48.848 -48.848 48.848s-48.856 -21.912 -48.856 -48.848z
M118.32 378.944c13.704 0 24.848 -11.152 24.848 -24.848c0 -7.696 -3.52 -14.84 -9.664 -19.616c-8.832 -6.856 -21.536 -6.856 -30.368 0c-6.152 4.776 -9.672 11.92 -9.672 19.616c0 13.704 11.152 24.848 24.856 24.848zM55.856 141.088
c0.936 -0.448 1.936 -0.792 2.928 -1.152c0.504 -0.184 0.968 -0.424 1.48 -0.584v-61.064c0 -15.664 13.888 -28.416 30.96 -28.416h2.824c9.48 0 17.976 3.92 23.656 10.104c5.608 -6.952 14.56 -11.472 24.64 -11.472h2.784c16.936 0 30.712 12.752 30.712 28.416v62.944
c0.992 0.36 1.912 0.816 2.848 1.256c0.4 0.192 0.84 0.336 1.232 0.544c0.864 0.456 1.648 0.992 2.456 1.512c0.432 0.28 0.904 0.52 1.32 0.816c0.728 0.528 1.376 1.128 2.04 1.704c0.416 0.36 0.88 0.688 1.272 1.064c0.624 0.6 1.152 1.272 1.712 1.92
c0.36 0.424 0.768 0.808 1.104 1.248c0.52 0.688 0.944 1.432 1.4 2.16c0.28 0.456 0.616 0.88 0.864 1.344c0.44 0.816 0.768 1.68 1.12 2.528c0.176 0.432 0.408 0.832 0.56 1.272c0.32 0.92 0.52 1.888 0.728 2.84c0.088 0.408 0.24 0.792 0.304 1.2
c0.232 1.384 0.36 2.792 0.36 4.232v96.448c0 22.48 -23.872 42.176 -39.352 43.992l-5.76 0.512l-4.08 -3.904c-2.152 -2.056 -4.576 -3.896 -7.192 -5.472c-13.168 -7.864 -30.2 -7.32 -42.728 1.112c-1.768 1.184 -3.568 2.656 -5.344 4.344l-3.328 3.328l-5.712 0.272
c-18.008 0 -42.136 -21.84 -42.136 -44.184v-96.424c0 -1.496 0.136 -2.96 0.392 -4.4c0.112 -0.64 0.344 -1.248 0.504 -1.872c0.2 -0.776 0.352 -1.568 0.624 -2.32c0.24 -0.664 0.592 -1.28 0.888 -1.928c0.312 -0.672 0.56 -1.36 0.928 -2.008
c0.4 -0.704 0.904 -1.352 1.368 -2.024c0.368 -0.528 0.672 -1.088 1.072 -1.584c0.552 -0.696 1.208 -1.312 1.832 -1.96c0.408 -0.416 0.76 -0.88 1.192 -1.272c0.768 -0.704 1.632 -1.328 2.488 -1.96c0.36 -0.264 0.68 -0.576 1.048 -0.824
c0.992 -0.664 2.064 -1.24 3.144 -1.8c0.28 -0.152 0.544 -0.344 0.848 -0.488zM63.512 261.952c0 7.592 9.44 16.32 15.2 19.208c1.304 -1.04 2.608 -2 3.928 -2.888c20.08 -13.504 47.408 -14.336 68.432 -1.792c2.08 1.248 4.08 2.6 5.992 4.056
c6.016 -3.432 14.088 -11.744 14.088 -18.584v-96.424c0 -1.04 -1.896 -2.88 -5 -3.504c-0.472 -0.104 -0.96 -0.136 -1.376 -0.168l-12.184 -0.304l-0.024 -1.256l-0.632 -0.016l-0.232 -11.52c0 -0.176 -0.008 -0.816 -0.008 -1.752l-0.248 -1.056l0.248 -1.656
c0.024 -9.896 0.12 -33.36 0.152 -41.664v-25.712c0 -2.088 -2.872 -4.416 -6.712 -4.416h-2.784c-3.84 0 -6.72 2.328 -6.72 4.416v68.784h-34.616v-67.416c0 -2.088 -2.984 -4.416 -6.968 -4.416h-2.824c-3.984 0 -6.96 2.328 -6.96 4.416l0.112 66.808l0.288 2.832
l-0.536 14.664l-12.456 -0.72c-0.8 0 -2.344 0.016 -2.752 0.04c-3.344 0.528 -5.408 2.472 -5.408 3.616zM442.744 84.928v59.112c3.008 0.504 7.168 1.16 12.912 1.992c1.736 0.248 2.872 0.44 3.056 0.48c14.256 2.88 24.216 14 24.216 27.024l-20.912 97.848
c-0.984 21.872 -24.176 40.792 -39.328 42.56l-5.76 0.512l-4.08 -3.904c-2.152 -2.056 -4.576 -3.896 -7.192 -5.472c-13.176 -7.864 -30.216 -7.312 -42.728 1.104c-1.616 1.088 -3.256 2.408 -5.256 4.256l-3.192 3.416l-5.936 0.28
c-17.624 0 -41.112 -20.92 -42.112 -42.752l-20.64 -95.32l-0.272 -2.536c0 -13.456 10.768 -24.944 25.568 -27.312c1.408 -0.224 2.864 -0.352 4.336 -0.4l1.288 -0.064c0.096 0 5.104 0.016 10.44 0.048v-59.504c0 -15.664 13.888 -28.416 30.968 -28.416h2.824
c9.48 0 17.968 3.928 23.656 10.104c5.608 -6.952 14.56 -11.472 24.64 -11.472h2.792c16.936 0 30.712 12.752 30.712 28.416zM419.024 156.888l-0.68 -2.928l0.4 -2.68v-66.352c0 -2.088 -2.872 -4.416 -6.712 -4.416h-2.792c-3.84 0 -6.712 2.328 -6.712 4.416v68.784
h-34.616v-67.416c0 -2.088 -2.976 -4.416 -6.96 -4.416h-2.824c-3.984 0 -6.968 2.328 -6.968 4.416l0.104 66.752l0.32 2.88l-0.696 14.192l-12.04 -0.248c-1.472 -0.032 -18.392 -0.104 -21.608 -0.12l-0.832 0.048c-0.488 0.008 -0.968 0.024 -1.472 0.112
c-2.824 0.448 -4.72 1.888 -5.256 3.024l20.456 94.48l0.272 2.536c0 7.592 9.44 16.32 15.208 19.208c1.296 -1.04 2.608 -2 3.92 -2.888c20.08 -13.504 47.4 -14.352 68.44 -1.792c2.064 1.232 4.048 2.576 5.984 4.056c6.016 -3.424 14.088 -11.744 14.088 -18.584
l20.728 -97c-0.504 -1.04 -2.208 -2.4 -4.52 -2.864l-2.048 -0.304c-24.736 -3.6 -30.616 -4.448 -33.184 -12.896zM385.216 410.944c-26.936 0 -48.848 -21.912 -48.848 -48.848c0 -15.16 6.904 -29.208 18.952 -38.576c8.672 -6.728 19.008 -10.28 29.904 -10.28
s21.24 3.552 29.912 10.288c12.04 9.36 18.944 23.416 18.944 38.568c-0.008 26.936 -21.92 48.848 -48.864 48.848zM400.408 342.48c-8.832 -6.856 -21.536 -6.856 -30.368 0c-6.144 4.776 -9.664 11.92 -9.664 19.616c0 13.704 11.152 24.848 24.848 24.848
c13.704 0 24.856 -11.152 24.856 -24.848c-0.008 -7.696 -3.528 -14.848 -9.672 -19.616zM260 16v416c0 6.624 -5.368 12 -12 12s-12 -5.376 -12 -12v-416c0 -6.624 5.368 -12 12 -12s12 5.376 12 12z" />
    <glyph glyph-name="uniE634" unicode="&#xe634;" 
d="M479.68 370.896c-1.536 25.12 -22.192 45.056 -47.68 45.056h-48v16.032c0 26.512 -21.504 48 -48 48h-160c-26.512 0 -48 -21.488 -48 -48v-16.016h-48c-25.52 0 -46.16 -19.936 -47.696 -45.056h-0.304v-34.928c0 -17.664 14.336 -32 32 -32v0v-272
c0 -35.344 28.656 -64 64 -64h256c35.344 0 64 28.656 64 64v272c17.664 0 32 14.336 32 32v34.912zM160 431.968c0 8.848 7.152 16 16 16h160c8.848 0 16 -7.152 16 -16v-16h-192v16zM416 31.968c0 -17.632 -14.368 -32 -32 -32h-256c-17.648 0 -32 14.368 -32 32v272h320
v-272zM448 351.984v-16h-384v31.984c0 8.848 7.152 16 16 16h352c8.848 0 16 -7.152 16 -16v-15.984zM144 31.904h32c8.848 0 16 7.152 16 16v208c0 8.848 -7.152 16 -16 16h-32c-8.848 0 -16 -7.152 -16 -16v-208c0 -8.848 7.152 -16 16 -16zM144 255.92h32v-208h-32v208z
M240 31.904h32c8.848 0 16 7.152 16 16v208c0 8.848 -7.152 16 -16 16h-32c-8.848 0 -16 -7.152 -16 -16v-208c0 -8.848 7.152 -16 16 -16zM240 255.92h32v-208h-32v208zM336 31.904h32c8.848 0 16 7.152 16 16v208c0 8.848 -7.152 16 -16 16h-32
c-8.848 0 -16 -7.152 -16 -16v-208c0 -8.848 7.152 -16 16 -16zM336 255.92h32v-208h-32v208z" />
    <glyph glyph-name="uniE635" unicode="&#xe635;" horiz-adv-x="374" 
d="M353.553 320c11.784 0 20.634 9.916 14.686 20.087c-7.535 12.886 -20.582 22.579 -35.447 22.579h-285.175c-14.865 0 -27.913 -9.703 -35.447 -22.579c-5.965 -10.146 2.884 -20.087 14.669 -20.087h326.716h-0.002zM345.813 405.334h-55.219
c-5.086 0 -9.199 5.563 -9.199 10.666s4.113 10.666 9.199 10.666h55.219c5.086 0 9.233 -5.563 9.233 -10.666s-4.147 -10.666 -9.233 -10.666zM99.669 409.421c-4.796 0 -8.67 3.882 -8.67 8.653c0 4.796 3.865 8.67 8.67 8.67c4.77 0 8.653 -3.865 8.653 -8.67
c-0.008 -4.77 -3.891 -8.653 -8.653 -8.653zM72.918 409.421c-4.787 0 -8.653 3.882 -8.653 8.653c0 4.796 3.865 8.67 8.653 8.67s8.67 -3.865 8.67 -8.67c0 -4.77 -3.891 -8.653 -8.67 -8.653zM46.182 409.421c-4.77 0 -8.653 3.882 -8.653 8.653
c0 4.796 3.883 8.67 8.653 8.67c4.787 0 8.67 -3.865 8.67 -8.67c0 -4.77 -3.883 -8.653 -8.67 -8.653zM129.997 425.95c0.034 9.779 7.919 17.664 17.664 17.681c9.754 -0.017 17.681 -7.902 17.698 -17.681c-0.017 -9.753 -7.953 -17.647 -17.698 -17.664
c-9.745 0.017 -17.63 7.911 -17.664 17.664zM328.414 460.382c5.086 0 9.216 -4.13 9.216 -9.216c0 -5.103 -4.13 -9.25 -9.216 -9.25c-5.103 0 -9.25 4.147 -9.25 9.25c0 5.086 4.139 9.216 9.25 9.216zM373.334 437.197c0 23.373 -17.186 42.803 -40.55 42.803h-285.167
c-23.381 0 -47.616 -19.43 -47.616 -42.803v-63.07c0 -11.784 6.247 -13.713 16.751 -8.363c9.531 4.889 20.599 7.569 30.865 7.569h285.167c9.481 0 17.536 -2.304 24.635 -6.486c10.146 -5.982 15.914 -4.48 15.914 7.287v63.062zM330.666 227.635
c0 20.267 -20.898 39.031 -41.165 39.031h-201.071c-20.267 0 -35.097 -18.765 -35.097 -39.031v-71.783c0 -20.164 14.831 -38.519 35.097 -38.519h201.062c20.267 0 41.165 18.346 41.165 38.519v71.782zM291.781 108.647h-201.481
c-26.087 0 -47.633 21.154 -47.633 47.24v71.731c0 26.103 19.635 49.715 45.747 49.715h201.08c26.103 0 51.832 -23.603 51.832 -49.715v-71.731c0.009 -26.087 -23.424 -47.24 -49.544 -47.24v0zM318.413 -32h27.784c3.584 0 5.803 0.632 5.803 4.25v3.217
c0 1.767 4.787 3.2 10.666 3.2s10.666 9.549 10.666 21.334v288c0 11.784 -9.549 21.334 -21.334 21.334h-330.666c-11.784 0 -21.334 -9.549 -21.334 -21.334v-288c0 -11.784 7.168 -21.334 16 -21.334s16 -1.433 16 -3.2v-3.217c0 -3.618 -1.399 -4.25 2.184 -4.25h27.785
c3.601 0 2.031 0.632 2.031 4.25v3.217c0 1.767 9.549 3.2 21.334 3.2h202.667c11.784 0 21.334 -1.433 21.334 -3.2v-3.217c0 -3.618 5.504 -4.25 9.079 -4.25z" />
    <glyph glyph-name="uniE636" unicode="&#xe636;" 
d="M66.256 215c16.792 -34.696 44.64 -62.864 79.472 -81.744l-53.448 -124.672c-2.608 -6.088 0.208 -13.144 6.304 -15.752c1.536 -0.664 3.144 -0.976 4.72 -0.976c4.656 0 9.088 2.728 11.04 7.28l53.136 123.936c26.056 -10.464 55.048 -16.208 85.632 -16.208
c31.4 0 61.136 6.024 87.72 17.024l53.496 -124.76c1.952 -4.544 6.384 -7.272 11.04 -7.272c1.576 0 3.176 0.312 4.72 0.976c6.096 2.608 8.912 9.664 6.304 15.76l-53.928 125.776c34.048 18.944 61.256 46.832 77.704 81.056c32.112 6.552 60.536 20.936 61.136 37.944
c0.664 19.008 -15.6 29.56 -43.872 33.984c0.056 1.872 0.152 3.728 0.152 5.624c0 1.56 -0.208 3.104 -0.52 4.64c2.56 4.744 3.984 9.72 3.984 14.952c0 46.144 -105.72 73.712 -207.928 73.712s-207.952 -27.592 -207.952 -73.728c0 -5.232 1.424 -10.216 3.984 -14.96
c-0.296 -1.536 -0.512 -3.072 -0.512 -4.632c0 -1.744 0.088 -3.456 0.136 -5.184c-28.056 -4.152 -40.224 -14.784 -39.536 -34.424c0.608 -17.392 26.296 -32.024 57.016 -38.352zM57.176 312.568c0.032 29.792 78.752 61.696 195.928 61.696
s195.888 -31.896 195.928 -61.688v-0.024c0 -7.72 -5.328 -15.584 -15.2 -23c-0.776 -0.584 -1.552 -1.168 -2.384 -1.744c-29.44 -20.408 -93.904 -36.976 -178.344 -36.976c-117.2 0 -195.928 31.912 -195.928 61.712c-0.008 0.016 0 0.016 1.42109e-14 0.024z
M476.728 250.6c-0.4 -7.704 -12.448 -12.92 -28.744 -16.152c3.696 10.816 6.344 22.152 7.912 33.928c15.384 -2.872 21.36 -7.688 20.832 -17.776zM50.272 268.736c1.56 -11.904 4.224 -23.36 7.952 -34.28c-14.2 3.232 -24.016 8.448 -24.416 16.144
c-0.552 10.528 1.792 15.32 16.464 18.136zM255.776 267.824c60.856 0 175.944 9.856 175.944 47.176c0 5.768 -2.952 11.056 -8.224 15.856c-24.136 21.992 -97.712 33.696 -167.72 33.696c-63.096 0 -129.088 -9.512 -159.184 -27.488
c-10.584 -6.328 -16.768 -13.688 -16.768 -22.064c0 -37.32 115.088 -47.176 175.952 -47.176zM379.272 296.664l0.6 37.392c23 -6.504 35.848 -13.856 35.848 -19.064c0 -4.96 -12.576 -12.112 -36.448 -18.328zM188.712 287.056c-12.928 1.328 -24.48 3.008 -34.792 4.888
l0.76 47.552c10.4 2.064 21.928 3.928 34.688 5.4zM213.4 347.056c10.968 0.768 22.56 1.248 34.76 1.392l-0.712 -64.52c-12.288 0.136 -23.88 0.552 -34.752 1.216zM298.896 285.144c-8.704 -0.536 -17.816 -0.928 -27.44 -1.128l0.704 64.304
c9.584 -0.248 18.696 -0.736 27.48 -1.376zM323.616 344.712c11.816 -1.4 22.576 -3.12 32.336 -5.032l-0.768 -48.176c-9.672 -1.696 -20.392 -3.216 -32.264 -4.44zM130.584 333.768l-0.584 -36.512c-22.416 6.072 -34.184 12.928 -34.184 17.736
c0.008 5.136 12.432 12.344 34.768 18.776z" />
    </font>
</defs>
</svg>
