<?xml version="1.0" encoding="UTF-8" standalone="no"?>
<!-- Created with Inkscape (http://www.inkscape.org/) -->

<svg
   xmlns:dc="http://purl.org/dc/elements/1.1/"
   xmlns:cc="http://creativecommons.org/ns#"
   xmlns:rdf="http://www.w3.org/1999/02/22-rdf-syntax-ns#"
   xmlns:svg="http://www.w3.org/2000/svg"
   xmlns="http://www.w3.org/2000/svg"
   xmlns:sodipodi="http://sodipodi.sourceforge.net/DTD/sodipodi-0.dtd"
   xmlns:inkscape="http://www.inkscape.org/namespaces/inkscape"
   width="187.87146"
   height="103.20537"
   id="svg2"
   version="1.1"
   inkscape:version="0.47 r22583"
   sodipodi:docname="alors.svg">
  <defs
     id="defs4">
    <inkscape:perspective
       sodipodi:type="inkscape:persp3d"
       inkscape:vp_x="0 : 526.18109 : 1"
       inkscape:vp_y="0 : 1000 : 0"
       inkscape:vp_z="744.09448 : 526.18109 : 1"
       inkscape:persp3d-origin="372.04724 : 350.78739 : 1"
       id="perspective10" />
  </defs>
  <sodipodi:namedview
     id="base"
     pagecolor="#ffffff"
     bordercolor="#666666"
     borderopacity="1.0"
     inkscape:pageopacity="0.0"
     inkscape:pageshadow="2"
     inkscape:zoom="3.7495277"
     inkscape:cx="110.55525"
     inkscape:cy="118.81497"
     inkscape:document-units="px"
     inkscape:current-layer="layer1"
     showgrid="false"
     inkscape:window-width="1558"
     inkscape:window-height="1205"
     inkscape:window-x="0"
     inkscape:window-y="0"
     inkscape:window-maximized="0" />
  <metadata
     id="metadata7">
    <rdf:RDF>
      <cc:Work
         rdf:about="">
        <dc:format>image/svg+xml</dc:format>
        <dc:type
           rdf:resource="http://purl.org/dc/dcmitype/StillImage" />
        <dc:title />
      </cc:Work>
    </rdf:RDF>
  </metadata>
  <g
     inkscape:label="Layer 1"
     inkscape:groupmode="layer"
     id="layer1"
     transform="translate(-93.51892,-531.374)">
    <path
       style="font-size:72px;font-style:normal;font-variant:normal;font-weight:normal;font-stretch:normal;fill:#000000;fill-opacity:1;stroke:none;font-family:Arial Black;-inkscape-font-specification:'Arial Black,'"
       d="M 60.8125 0 L 60.8125 101.46875 L 73.59375 101.46875 L 73.59375 0 L 60.8125 0 z M 19.375 0.15625 L 0 101.3125 L 16.28125 101.3125 L 18.78125 84.59375 L 36.90625 84.59375 L 39.4375 101.3125 L 56.09375 101.3125 L 36.75 0.15625 L 19.375 0.15625 z M 99.15625 26.3125 C 93.32216 26.312575 88.710588 29.959015 85.28125 37.25 C 81.851898 44.494968 80.124998 53.724087 80.125 64.9375 C 80.124998 76.981612 82.162077 86.69552 86.21875 94.125 C 89.522623 100.12397 93.834355 103.125 99.1875 103.125 C 105.18883 103.125 109.89369 99.542517 113.28125 92.34375 C 116.68965 85.098855 118.40621 75.805778 118.40625 64.5 C 118.40621 54.440234 117.02051 45.969549 114.28125 39.09375 C 110.87278 30.556824 105.82672 26.312575 99.15625 26.3125 z M 144.65625 26.3125 C 142.85791 26.312575 141.32746 27.297049 140.09375 29.28125 C 138.88091 31.219449 137.71257 34.785577 136.5625 40 L 136.5625 27.96875 L 124.59375 27.96875 L 124.59375 101.46875 L 137.4375 101.46875 L 137.4375 76.84375 C 137.43748 65.076574 138.08886 57.041616 139.40625 52.75 C 140.3263 49.70442 141.63963 48.187553 143.3125 48.1875 C 144.19072 48.187553 145.36941 48.865675 146.875 50.25 L 150.84375 30.1875 C 148.60628 27.603402 146.53818 26.312575 144.65625 26.3125 z M 170.0625 26.3125 C 166.29857 26.312575 163.29993 27.184029 161.0625 28.9375 C 158.82505 30.64497 157.05679 33.242978 155.78125 36.75 C 154.5057 40.257152 153.875 44.435984 153.875 49.28125 C 153.875 53.711307 154.454 57.664099 155.625 61.125 C 156.8169 64.585982 158.28532 67.054615 160 68.53125 C 161.73557 69.961805 164.81693 71.511381 169.25 73.21875 C 172.21929 74.372425 174.02868 75.371795 174.71875 76.15625 C 175.68062 77.263777 176.18747 78.813352 176.1875 80.84375 C 176.18747 82.64346 175.79435 84.143973 175.0625 85.34375 C 174.1215 86.958872 172.8084 87.781264 171.09375 87.78125 C 169.52543 87.781264 168.25346 87.055538 167.3125 85.625 C 166.3715 84.194493 165.64775 81.822527 165.125 78.5 L 152.46875 81.125 C 153.20062 88.185341 154.83423 93.638646 157.40625 97.46875 C 159.99916 101.29886 164.35248 103.21875 170.4375 103.21875 C 174.74507 103.21875 178.1366 102.04094 180.625 99.6875 C 183.13425 97.287916 184.97488 94.077203 186.125 90.0625 C 187.29596 86.04782 187.87496 81.901695 187.875 77.65625 C 187.87496 73.456998 187.32698 69.600873 186.21875 66.09375 C 185.13136 62.586698 183.53887 59.892025 181.46875 58 C 179.39857 56.108062 176.24484 54.623903 172 53.5625 C 169.19795 52.824214 167.36766 52.016718 166.53125 51.09375 C 165.69481 50.170883 165.28124 48.799744 165.28125 47 C 165.28124 45.384949 165.60175 44.01381 166.25 42.90625 C 166.91913 41.752661 167.99465 41.18756 169.4375 41.1875 C 170.8594 41.18756 172.05877 41.92964 173.0625 43.40625 C 173.79435 44.513809 174.31132 46.240363 174.625 48.59375 L 186.75 45.96875 C 185.91354 41.169634 184.83802 37.346216 183.5625 34.53125 C 182.30783 31.716418 180.74659 29.650804 178.84375 28.3125 C 176.96176 26.974343 174.0355 26.312575 170.0625 26.3125 z M 27.875 26.375 L 33.5625 62.75 L 22.21875 62.75 L 27.875 26.375 z M 99.34375 45.6875 C 101.10022 45.687556 102.58932 47.268381 103.78125 50.40625 C 104.97313 53.498075 105.56247 58.225655 105.5625 64.59375 C 105.56247 71.423378 104.97313 76.376998 103.78125 79.46875 C 102.61023 82.560546 101.09011 84.093767 99.25 84.09375 C 97.430753 84.093767 95.93155 82.544192 94.71875 79.40625 C 93.526827 76.268352 92.937485 71.396502 92.9375 64.84375 C 92.937485 58.383363 93.537166 53.606721 94.75 50.46875 C 95.9628 47.284735 97.482682 45.687556 99.34375 45.6875 z "
       transform="translate(93.51892,531.374)"
       id="flowRoot2863" />
  </g>
</svg>
