<?xml version="1.0" encoding="UTF-8" standalone="no"?>
<!-- Created with Inkscape (http://www.inkscape.org/) -->

<svg
   xmlns:dc="http://purl.org/dc/elements/1.1/"
   xmlns:cc="http://creativecommons.org/ns#"
   xmlns:rdf="http://www.w3.org/1999/02/22-rdf-syntax-ns#"
   xmlns:svg="http://www.w3.org/2000/svg"
   xmlns="http://www.w3.org/2000/svg"
   xmlns:sodipodi="http://sodipodi.sourceforge.net/DTD/sodipodi-0.dtd"
   xmlns:inkscape="http://www.inkscape.org/namespaces/inkscape"
   width="406.25"
   height="104.84375"
   id="svg2"
   version="1.1"
   inkscape:version="0.47 r22583"
   sodipodi:docname="si.svg">
  <defs
     id="defs4">
    <inkscape:perspective
       sodipodi:type="inkscape:persp3d"
       inkscape:vp_x="0 : 526.18109 : 1"
       inkscape:vp_y="0 : 1000 : 0"
       inkscape:vp_z="744.09448 : 526.18109 : 1"
       inkscape:persp3d-origin="372.04724 : 350.78739 : 1"
       id="perspective10" />
    <inkscape:perspective
       sodipodi:type="inkscape:persp3d"
       inkscape:vp_x="0 : 0.5 : 1"
       inkscape:vp_y="0 : 1000 : 0"
       inkscape:vp_z="1 : 0.5 : 1"
       inkscape:persp3d-origin="0.5 : 0.33333333 : 1"
       id="perspective2886" />
    <inkscape:perspective
       sodipodi:type="inkscape:persp3d"
       inkscape:vp_x="0 : 0.5 : 1"
       inkscape:vp_y="0 : 1000 : 0"
       inkscape:vp_z="1 : 0.5 : 1"
       inkscape:persp3d-origin="0.5 : 0.33333333 : 1"
       id="perspective2884" />
    <inkscape:perspective
       id="perspective10-3"
       inkscape:persp3d-origin="372.04724 : 350.78739 : 1"
       inkscape:vp_z="744.09448 : 526.18109 : 1"
       inkscape:vp_y="0 : 1000 : 0"
       inkscape:vp_x="0 : 526.18109 : 1"
       sodipodi:type="inkscape:persp3d" />
    <inkscape:perspective
       sodipodi:type="inkscape:persp3d"
       inkscape:vp_x="0 : 0.5 : 1"
       inkscape:vp_y="0 : 1000 : 0"
       inkscape:vp_z="1 : 0.5 : 1"
       inkscape:persp3d-origin="0.5 : 0.33333333 : 1"
       id="perspective2886-5" />
    <inkscape:perspective
       sodipodi:type="inkscape:persp3d"
       inkscape:vp_x="0 : 0.5 : 1"
       inkscape:vp_y="0 : 1000 : 0"
       inkscape:vp_z="1 : 0.5 : 1"
       inkscape:persp3d-origin="0.5 : 0.33333333 : 1"
       id="perspective2884-0" />
    <inkscape:perspective
       id="perspective10-39"
       inkscape:persp3d-origin="372.04724 : 350.78739 : 1"
       inkscape:vp_z="744.09448 : 526.18109 : 1"
       inkscape:vp_y="0 : 1000 : 0"
       inkscape:vp_x="0 : 526.18109 : 1"
       sodipodi:type="inkscape:persp3d" />
  </defs>
  <sodipodi:namedview
     id="base"
     pagecolor="#ffffff"
     bordercolor="#666666"
     borderopacity="1.0"
     inkscape:pageopacity="0.0"
     inkscape:pageshadow="2"
     inkscape:zoom="0.90368128"
     inkscape:cx="256.80254"
     inkscape:cy="-142.07729"
     inkscape:document-units="px"
     inkscape:current-layer="layer1"
     showgrid="false"
     inkscape:window-width="2409"
     inkscape:window-height="1199"
     inkscape:window-x="0"
     inkscape:window-y="0"
     inkscape:window-maximized="0" />
  <metadata
     id="metadata7">
    <rdf:RDF>
      <cc:Work
         rdf:about="">
        <dc:format>image/svg+xml</dc:format>
        <dc:type
           rdf:resource="http://purl.org/dc/dcmitype/StillImage" />
        <dc:title></dc:title>
      </cc:Work>
    </rdf:RDF>
  </metadata>
  <g
     inkscape:label="Layer 1"
     inkscape:groupmode="layer"
     id="layer1"
     transform="translate(90.026788,-279.26005)">
    <flowRoot
       xml:space="preserve"
       id="flowRoot3102"
       style="font-size:72px;font-style:normal;font-variant:normal;font-weight:normal;font-stretch:normal;fill:#000000;fill-opacity:1;stroke:none;font-family:Arial Black;-inkscape-font-specification:'Arial Black,'"><flowRegion
         id="flowRegion3104"><rect
           id="rect3106"
           width="440.42078"
           height="358.53348"
           x="361.85324"
           y="440.42078" /></flowRegion><flowPara
         id="flowPara3108"></flowPara></flowRoot>    <path
       style="font-size:144px;font-style:normal;font-variant:normal;font-weight:normal;font-stretch:normal;fill:#94ca02;fill-opacity:1;stroke:none;font-family:Arial Black;-inkscape-font-specification:'Arial Black,'"
       d="m -51.30804,279.26005 -38.718748,103.09375 32.531248,0 5,-17.03125 36.28125,0 5.0625,17.03125 33.3125,0 -38.71875,-103.09375 -34.75,0 z m 82.6875,0 0,103.09375 28.6875,0 0,-103.09375 -28.6875,0 z m -65.65625,26.71875 11.375,37.0625 -22.6875,0 11.3125,-37.0625 z m 151.65625,0 c -13.07816,8e-5 -23.46877,3.71882 -31.15625,11.125 -7.68751,7.35943 -11.53125,16.73442 -11.53125,28.125 0,12.2344 4.56249,22.10939 13.65625,29.65625 7.40623,6.09375 17.09372,9.15625 29.09375,9.15625 13.45306,0 23.99993,-3.65625 31.59375,-10.96875 7.64054,-7.35936 11.43741,-16.79685 11.4375,-28.28125 -9e-5,-10.2187 -3.04696,-18.82807 -9.1875,-25.8125 -7.6407,-8.6718 -18.95319,-12.99992 -33.90625,-13 z m 101.96875,0 c -4.0313,8e-5 -7.45317,1.0157 -10.21875,3.03125 -2.71879,1.96882 -5.35941,5.60944 -7.9375,10.90625 l 0,-12.25 -26.78125,0 0,74.6875 28.75,0 0,-25.03125 c -4e-5,-11.95309 1.48434,-20.10933 4.4375,-24.46875 2.06246,-3.0937 4.9687,-4.6562 8.71875,-4.65625 1.9687,5e-5 4.62494,0.7188 8,2.125 l 8.875,-20.40625 c -5.01569,-2.62492 -9.62506,-3.93742 -13.84375,-3.9375 z m 56.9375,0 c -8.43753,8e-5 -15.1719,0.90633 -20.1875,2.6875 -5.01564,1.73445 -8.95314,4.37507 -11.8125,7.9375 -2.85938,3.56256 -4.28126,7.79693 -4.28125,12.71875 -1e-5,4.50005 1.31249,8.51567 3.9375,12.03125 2.67186,3.51566 5.93748,6.03128 9.78125,7.53125 3.8906,1.45316 10.81247,3.04691 20.75,4.78125 6.6562,1.1719 10.73432,2.14065 12.28125,2.9375 2.15619,1.12502 3.24994,2.71877 3.25,4.78125 -6e-5,1.82814 -0.82818,3.34377 -2.46875,4.5625 -2.10943,1.64064 -5.0938,2.46876 -8.9375,2.46875 -3.51567,1e-5 -6.32816,-0.73436 -8.4375,-2.1875 -2.10941,-1.45311 -3.73441,-3.84373 -4.90625,-7.21875 l -28.40625,2.65625 c 1.64062,7.17189 5.32812,12.70313 11.09375,16.59375 5.81248,3.89063 15.54684,5.84375 29.1875,5.84375 9.6562,0 17.26556,-1.20313 22.84375,-3.59375 5.62493,-2.4375 9.7343,-5.70312 12.3125,-9.78125 2.62492,-4.07811 3.93742,-8.24998 3.9375,-12.5625 -8e-5,-4.2656 -1.23446,-8.18747 -3.71875,-11.75 -2.43758,-3.56246 -5.98445,-6.29683 -10.625,-8.21875 -4.64069,-1.92183 -11.70318,-3.42183 -21.21875,-4.5 -6.28129,-0.74995 -10.37504,-1.5937 -12.25,-2.53125 -1.87503,-0.93745 -2.81253,-2.32807 -2.8125,-4.15625 -3e-5,-1.64057 0.73434,-3.03119 2.1875,-4.15625 1.49996,-1.17181 3.85934,-1.74994 7.09375,-1.75 3.18746,6e-5 5.9062,0.75006 8.15625,2.25 1.64057,1.12506 2.79682,2.89068 3.5,5.28125 l 27.15625,-2.6875 c -1.87508,-4.87494 -4.23445,-8.73431 -7.09375,-11.59375 -2.81257,-2.8593 -6.35944,-4.9843 -10.625,-6.34375 -4.21881,-1.3593 -10.7813,-2.03117 -19.6875,-2.03125 z m -158.5,19.6875 c 3.93745,6e-5 7.26557,1.59381 9.9375,4.78125 2.67181,3.14067 3.99994,7.93754 4,14.40625 -6e-5,6.93753 -1.32819,11.9844 -4,15.125 -2.62506,3.14064 -6.00005,4.71877 -10.125,4.71875 -4.07817,2e-5 -7.46879,-1.59373 -10.1875,-4.78125 -2.67191,-3.18747 -4.03128,-8.12497 -4.03125,-14.78125 -3e-5,-6.56246 1.37497,-11.43745 4.09375,-14.625 2.71871,-3.23432 6.14058,-4.84369 10.3125,-4.84375 z"
       id="flowRoot3912" />
  </g>
</svg>
