<?xml version="1.0" encoding="utf-8"?>
<!-- Generator: Adobe Illustrator 25.4.1, SVG Export Plug-In . SVG Version: 6.00 Build 0)  -->
<svg version="1.1" id="Jeedom-Atlas-Logo" xmlns="http://www.w3.org/2000/svg" xmlns:xlink="http://www.w3.org/1999/xlink" x="0px"
	 y="0px" viewBox="0 0 2500 1100" style="enable-background:new 0 0 2500 1100;" xml:space="preserve">
<style type="text/css">
	.st0{enable-background:new    ;}
	.st1{fill:#94CA02;}
	.st2{fill:#454449;}
</style>
<g>
	<g id="JEEDOM_1_" class="st0">
		<path class="st1" d="M2043.6,720.4h118.8l45.8,194l45.5-194h118.8v318.9h-74V796.1l-57,243.2h-67l-56.9-243.2v243.2h-74
			L2043.6,720.4L2043.6,720.4z"/>
		<path class="st1" d="M1692.9,880.1c0-52.1,13.3-92.6,39.9-121.6s63.6-43.5,111.1-43.5c48.7,0,86.2,14.2,112.5,42.7
			s39.5,68.4,39.5,119.7c0,37.3-5.8,67.8-17.3,91.7s-28.1,42.4-49.9,55.7c-21.7,13.3-48.8,19.9-81.3,19.9c-33,0-60.3-5.7-81.9-17.2
			s-39.1-29.6-52.6-54.4C1699.6,948.4,1692.9,917.3,1692.9,880.1z M1783.3,880.5c0,32.2,5.5,55.3,16.5,69.4
			c11,14.1,25.9,21.1,44.8,21.1c19.4,0,34.4-6.9,45.1-20.7c10.6-13.8,16-38.5,16-74.2c0-30-5.6-52-16.7-65.8s-26.2-20.8-45.2-20.8
			c-18.2,0-32.8,7-43.9,21.1C1788.8,824.7,1783.3,848,1783.3,880.5z"/>
		<path class="st1" d="M1387.7,720.4H1522c26.5,0,47.8,3.9,64.1,11.7c16.3,7.8,29.8,19.1,40.4,33.7c10.6,14.6,18.4,31.7,23.1,51.1
			c4.8,19.4,7.2,40,7.2,61.8c0,34.1-3.6,60.5-10.7,79.3s-17,34.5-29.6,47.2s-26.2,21.1-40.7,25.3c-19.8,5.8-37.8,8.7-53.9,8.7
			h-134.3L1387.7,720.4L1387.7,720.4z M1478.1,792.6v174.2h22.1c18.9,0,32.3-2.3,40.3-6.9c8-4.6,14.2-12.5,18.8-23.9
			c4.5-11.4,6.8-29.8,6.8-55.4c0-33.8-5.1-56.9-15.2-69.4s-26.9-18.7-50.3-18.7L1478.1,792.6L1478.1,792.6z"/>
		<path class="st2" d="M1091.2,720.4h242.2v68.1h-151.6v50.7h140.6v65h-140.6v62.9h156v72.2h-246.6V720.4z"/>
		<path class="st2" d="M796.2,720.4h242.2v68.1H886.8v50.7h140.6v65H886.8v62.9h156v72.2H796.2V720.4z"/>
		<path id="maison_00000109719365788512422340000010349532374120496796_" class="st2" d="M143.6,1034.1c-4.7-5.2-5.5-15.5-5.5-75.1
			c0-49.4,1.1-70.2,4-73.1c5.4-5.4,69.1-5.4,74.5,0c2.5,2.5,4,15.5,4,36.3v32.3h61h61v-41.2V872h42.8h42.8v76.9
			c0,76.1-0.1,76.9-7.6,84c-7.6,7.1-8.6,7.2-139.6,7.2C157.3,1040.1,148.7,1039.7,143.6,1034.1L143.6,1034.1z M263.8,850.8l-17-17.9
			V679.4V526h23.9h23.9l48.9-64.3l48.9-64.3h87.9h87.9l73.3,93.7l73.3,93.7v127.8v127.8L701,854.6l-13.9,14.1H559.3H431.4V748.5
			V628.2h-46.1h-46.1v120.3v120.3H310h-29.2L263.8,850.8L263.8,850.8z M434.7,550.7v-41.2h-47.8h-47.8v41.2v41.2h47.8h47.8V550.7z
			 M640.4,465.9c-86.4-111-157.8-202.6-158.6-203.5c-0.8-0.9-3.9,1.6-7,5.5c-3,3.9-47.1,60.5-97.8,125.9l-92.3,118.8l-78.7,0.1
			l-78.7,0.1l9.3-12.4c55.9-74.1,342.1-444.3,344-445c3.3-1.3,0.7-4.6,429.6,557.1l42.2,55.2H875h-77.5L640.4,465.9z M758.4,390.3
			L691.8,304v-57.1v-57.1h67.6H827v143.4c0,78.8-0.4,143.4-0.9,143.4C825.5,476.6,795.1,437.7,758.4,390.3z M830.2,186.8
			c0-1.7,3.1-4,6.8-5.2s9.7-6.9,13.2-12.6c11.9-19.5,6.8-36-15.4-50c-18.5-11.7-16.2-15.1,2.7-4c18.8,11,25.6,19,27.8,32.9
			c1.7,10.3,0.3,13.2-12.8,26.8C838.7,189,830.2,193.7,830.2,186.8L830.2,186.8z M809.8,87.2c1.2-7.9,2.2-9.2,4.4-5.2
			c1.6,2.8,2,7.5,0.9,10.3C811.6,101.3,808.2,98,809.8,87.2L809.8,87.2z M640.4,465.9c-86.4-111-157.8-202.6-158.6-203.5
			c-0.8-0.9-3.9,1.6-7,5.5c-3,3.9-47.1,60.5-97.8,125.9l-92.3,118.8l-78.7,0.1l-78.7,0.1l9.3-12.4c55.9-74.1,342.1-444.3,344-445
			c3.3-1.3,0.7-4.6,429.6,557.1l42.2,55.2H875h-77.5L640.4,465.9z"/>
		<path id="maison_1_" class="st1" d="M640.4,465.9c-86.4-111-157.8-202.6-158.6-203.5c-0.8-0.9-3.9,1.6-7,5.5
			c-3,3.9-47.1,60.5-97.8,125.9l-92.3,118.8l-78.7,0.1l-78.7,0.1l9.3-12.4c55.9-74.1,342.1-444.3,344-445
			c3.3-1.3,0.7-4.6,429.6,557.1l42.2,55.2H875h-77.5L640.4,465.9z M640.4,465.9c-86.4-111-157.8-202.6-158.6-203.5
			c-0.8-0.9-3.9,1.6-7,5.5c-3,3.9-47.1,60.5-97.8,125.9l-92.3,118.8l-78.7,0.1l-78.7,0.1l9.3-12.4c55.9-74.1,342.1-444.3,344-445
			c3.3-1.3,0.7-4.6,429.6,557.1l42.2,55.2H875h-77.5L640.4,465.9z"/>
	</g>
	<g id="Atlas_1_">
		<path class="st2" d="M2361.4,410.8v50h-143.2c-12.1,0-20.8,2.5-26,7.4s-7.8,12.3-7.8,22.1c0,9.2,2.5,16.1,7.6,20.8
			c5.1,4.7,14.8,7.1,29.2,7.1h60.8c18,0,32.8,2,44.4,5.9c11.6,3.9,20.8,9.2,27.5,15.7s11.4,14.2,14,23s3.9,18.3,3.9,28.4
			c0,11.4-1.6,22-4.7,31.6c-3.1,9.6-8.1,17.9-15,24.8c-6.9,6.9-15.7,12.3-26.5,16.2s-23.7,5.9-38.7,5.9h-150.5v-50.5h150.5
			c12.1,0,20.8-2.2,26-6.6c5.2-4.4,7.8-11.7,7.8-21.8c0-10.5-2.9-17.9-8.6-22.3c-5.7-4.4-15.1-6.6-28.2-6.6h-61.3
			c-18,0-32.7-2-44.1-6.1c-11.4-4.1-20.5-9.6-27.2-16.7c-6.7-7-11.4-15.1-14-24.3c-2.6-9.1-3.9-18.6-3.9-28.4
			c0-23.2,6.5-41.6,19.6-55.2s34.6-20.3,64.7-20.3L2361.4,410.8L2361.4,410.8z"/>
		<path class="st2" d="M1976.7,410.8c16,0,29.7,2.1,41.2,6.4c11.4,4.3,20.8,10.2,28.2,17.9c7.4,7.7,12.7,16.8,15.9,27.2
			c3.3,10.5,4.9,21.7,4.9,33.8v121.6c0,9.5-0.7,17.5-2.2,24s-4.2,11.9-8.1,15.9c-3.9,4.1-9.4,7.1-16.4,9.1s-15.9,2.9-26.7,2.9
			h-121.1c-30.7,0-52.9-7-66.4-21.1c-13.6-14-20.3-33.3-20.3-57.9c0-11.8,1.5-22.2,4.7-31.4c3.1-9.1,8.1-16.9,15-23.3
			c6.9-6.4,15.8-11.3,27-14.7c11.1-3.4,24.7-5.1,40.7-5.1h123.1v-19.6c0-10.1-3-18.6-9.1-25.5s-16.3-10.3-30.6-10.3h-154.9v-50
			L1976.7,410.8L1976.7,410.8z M2001.7,619.1c9.5,0,14.2-4.4,14.2-13.2v-48.5h-122.1c-13.7,0-23.4,2.7-28.9,8.1
			c-5.6,5.4-8.3,12.8-8.3,22.3s2.8,17.1,8.3,22.8c5.6,5.7,14.9,8.6,27.9,8.6L2001.7,619.1L2001.7,619.1z"/>
		<path class="st2" d="M1736.5,298.5v371.1h-52V298.5H1736.5z"/>
		<path class="st2" d="M1489.3,410.8v-61.3h52.5v61.3h71.6v50h-71.6v122.6c0,14.7,2.7,24.8,8.1,30.4c5.4,5.6,14.3,8.3,26.7,8.3h35.8
			v47.6h-46.6c-13.4,0-24.9-1.5-34.6-4.4c-9.6-2.9-17.6-7.8-23.8-14.7c-6.2-6.9-10.8-16-13.7-27.5c-2.9-11.4-4.4-25.7-4.4-42.7
			V460.8H1454v-50H1489.3z"/>
		<path class="st2" d="M1152.2,667.9h-60.5L1202,388.5c5.9-14.9,14.2-25.4,24.9-31.4c10.7-6.1,24.4-9.1,41.2-9.1
			c16.4,0,30,3,40.7,9.1s18.9,16.5,24.4,31.4l106.1,279.3h-61L1283,415.1c-2.8-7.1-7.9-10.7-15.4-10.7s-12.7,3.6-15.8,10.7
			L1152.2,667.9z"/>
	</g>
</g>
</svg>
