<?xml version="1.0" encoding="UTF-8" standalone="no"?>
<!-- Created with Inkscape (http://www.inkscape.org/) -->

<svg
   xmlns:dc="http://purl.org/dc/elements/1.1/"
   xmlns:cc="http://creativecommons.org/ns#"
   xmlns:rdf="http://www.w3.org/1999/02/22-rdf-syntax-ns#"
   xmlns:svg="http://www.w3.org/2000/svg"
   xmlns="http://www.w3.org/2000/svg"
   xmlns:sodipodi="http://sodipodi.sourceforge.net/DTD/sodipodi-0.dtd"
   xmlns:inkscape="http://www.inkscape.org/namespaces/inkscape"
   width="250.35622"
   height="298.8299"
   id="svg2"
   version="1.1"
   inkscape:version="0.47 r22583"
   sodipodi:docname="logo-jeedom-sans-nom-blanc.svg">
  <defs
     id="defs4">
    <inkscape:perspective
       sodipodi:type="inkscape:persp3d"
       inkscape:vp_x="0 : 526.18109 : 1"
       inkscape:vp_y="0 : 1000 : 0"
       inkscape:vp_z="744.09448 : 526.18109 : 1"
       inkscape:persp3d-origin="372.04724 : 350.78739 : 1"
       id="perspective10" />
    <inkscape:perspective
       id="perspective2884"
       inkscape:persp3d-origin="0.5 : 0.33333333 : 1"
       inkscape:vp_z="1 : 0.5 : 1"
       inkscape:vp_y="0 : 1000 : 0"
       inkscape:vp_x="0 : 0.5 : 1"
       sodipodi:type="inkscape:persp3d" />
  </defs>
  <sodipodi:namedview
     id="base"
     pagecolor="#ffffff"
     bordercolor="#666666"
     borderopacity="1.0"
     inkscape:pageopacity="0.0"
     inkscape:pageshadow="2"
     inkscape:zoom="2.7540752"
     inkscape:cx="125.1781"
     inkscape:cy="149.41495"
     inkscape:document-units="px"
     inkscape:current-layer="layer1"
     showgrid="false"
     inkscape:window-width="2057"
     inkscape:window-height="1071"
     inkscape:window-x="50"
     inkscape:window-y="26"
     inkscape:window-maximized="0" />
  <metadata
     id="metadata7">
    <rdf:RDF>
      <cc:Work
         rdf:about="">
        <dc:format>image/svg+xml</dc:format>
        <dc:type
           rdf:resource="http://purl.org/dc/dcmitype/StillImage" />
        <dc:title />
      </cc:Work>
    </rdf:RDF>
  </metadata>
  <g
     inkscape:label="Layer 1"
     inkscape:groupmode="layer"
     id="layer1"
     transform="translate(-220.37886,-333.74656)">
    <path
       style="fill:#ffffff;fill-opacity:1;stroke:none"
       d="m 327.52006,333.6694 c -10.73735,13.10095 -20.92801,26.70271 -31.38162,40.05313 -25.23436,32.72055 -50.6107,65.33573 -75.48275,98.33271 -0.85133,1.20774 2.41836,0.28205 3.02926,0.6463 14.81756,0.24425 29.63824,0.11312 44.45719,0.14798 19.74373,-25.25047 39.11907,-50.79718 59.26445,-75.72869 2.96319,2.67457 5.3725,6.36122 8.02575,9.49057 29.40721,37.656 58.70211,75.40012 88.08183,113.0778 15.56237,-0.11945 31.13913,0.26842 46.69217,-0.27233 1.31618,-0.39351 -1.54628,-2.19709 -1.70274,-3.0574 -44.05522,-57.70246 -88.08794,-115.42338 -132.36387,-172.95645 -2.76934,-3.22916 -5.03221,-7.05684 -8.3587,-9.72227 -0.0836,-0.0318 -0.17503,-0.0288 -0.26097,-0.0113 z"
       id="path2814" />
    <path
       style="fill:#ffffff;fill-opacity:1;stroke:none"
       d="m 171.00111,58.120691 c 0,5.805791 0,11.611581 0,17.417372 13.49977,17.354704 26.75004,34.935327 40.66701,51.945747 0.91508,-4.79719 0.42912,-9.91235 0.64411,-14.83022 0.14557,-23.983017 0.0564,-47.966887 0.0821,-71.95027 -13.79773,0 -27.59547,0 -41.3932,0 0,5.80579 0,11.611581 0,17.417371 z"
       id="path2816"
       transform="translate(220.37886,333.74656)" />
    <path
       style="fill:#ffffff;fill-opacity:1;stroke:none"
       d="m 210.80576,16.023983 c -0.73825,0.757631 1.39875,1.434152 1.70386,2.017128 3.71658,2.833584 9.0106,5.933187 8.30404,11.406162 -0.22384,4.326671 -3.49976,7.5781 -7.09177,9.53133 -1.43076,0.841603 0.12072,3.065875 1.35027,1.656636 3.5112,-2.470235 6.94495,-5.492296 8.91861,-9.349781 0.96053,-5.290241 -2.64472,-10.177079 -7.18067,-12.522448 -1.88442,-1.034303 -3.79799,-2.621163 -6.00434,-2.739027 z"
       id="path2818"
       transform="translate(220.37886,333.74656)" />
    <path
       style="fill:#ffffff;fill-opacity:1;stroke:none"
       d="m 207.58326,7.3550114 c -0.88368,1.3971256 -0.84855,3.6339856 -0.48791,5.2649256 1.23418,0.792821 1.75639,-1.745536 1.82684,-2.632463 0.061,-0.9471492 -0.25792,-2.4258889 -1.33893,-2.6324626 z"
       id="path2820"
       transform="translate(220.37886,333.74656)" />
    <path
       style="fill:#ffffff;fill-opacity:1;stroke:none"
       d="m 65.498362,123.10394 c -4.954779,6.5282 -9.909558,13.05641 -14.864337,19.58461 -4.901826,0.0151 -9.803653,0.0303 -14.70548,0.0454 0,31.0676 0,62.1352 0,93.20279 3.449433,3.66881 6.898867,7.33761 10.348301,11.00642 5.991122,0 11.982244,0 17.973365,0 0,-24.32759 0,-48.65517 0,-72.98276 9.319525,0 18.639045,0 27.958569,0 0,24.32759 0,48.65517 0,72.98276 25.99557,0 51.99114,0 77.98671,0 2.68607,-2.80189 5.37527,-5.60076 8.06759,-8.39665 0,-26.07121 0,-52.14243 0,-78.21364 -14.81426,-18.9356 -29.62564,-37.87344 -44.43416,-56.81354 -17.82586,0 -35.651712,0 -53.477569,0 -4.950997,6.52821 -9.901993,13.05641 -14.852989,19.58462 z m 13.094232,14.90972 c 4.780795,0 9.561587,0 14.342383,0 0,8.23023 0,16.46046 0,24.69069 -9.561588,0 -19.123178,0 -28.684766,0 0,-8.23023 0,-16.46046 0,-24.69069 4.780795,0 9.561588,0 14.342383,0 z"
       id="path2824"
       transform="translate(220.37886,333.74656)" />
    <path
       style="fill:#ffffff;fill-opacity:1;stroke:none"
       d="m 64.976408,260.19624 c 0,4.17563 0,8.35126 0,12.52689 -12.201617,0 -24.40323,0 -36.604847,0 -0.313229,-6.56668 0.253105,-13.22177 -0.726196,-19.73212 -1.055095,-2.49276 -4.518064,-1.64887 -6.694013,-2.13159 -5.395295,-0.16988 -10.9703869,-0.4719 -16.2379138,0.8267 -1.7887784,1.61058 -0.8677999,4.55763 -1.2750009,6.7053 -0.2609061,12.29703 -0.5167231,24.64116 0.4239893,36.91188 0.7430551,3.45347 5.191766,3.17024 7.9200814,3.30193 24.688857,0.22496 49.387973,0.23903 74.072052,-0.30636 3.484774,-0.36141 5.627065,-4.14114 5.178925,-7.44316 0.442396,-14.39038 0.353044,-28.79121 0.528526,-43.18636 -8.861868,0 -17.723735,0 -26.585603,0 0,4.17563 0,8.35126 0,12.52689 z"
       id="path2826"
       transform="translate(220.37886,333.74656)" />
  </g>
</svg>
