<?xml version="1.0" encoding="UTF-8" standalone="no"?>
<!-- Created with Inkscape (http://www.inkscape.org/) -->

<svg
   xmlns:dc="http://purl.org/dc/elements/1.1/"
   xmlns:cc="http://creativecommons.org/ns#"
   xmlns:rdf="http://www.w3.org/1999/02/22-rdf-syntax-ns#"
   xmlns:svg="http://www.w3.org/2000/svg"
   xmlns="http://www.w3.org/2000/svg"
   xmlns:sodipodi="http://sodipodi.sourceforge.net/DTD/sodipodi-0.dtd"
   xmlns:inkscape="http://www.inkscape.org/namespaces/inkscape"
   width="681.42676"
   height="300.22281"
   id="svg2"
   version="1.1"
   inkscape:version="0.47 r22583"
   sodipodi:docname="logo-jeedom-grand-nom-blanc.svg">
  <defs
     id="defs4">
    <inkscape:perspective
       sodipodi:type="inkscape:persp3d"
       inkscape:vp_x="0 : 526.18109 : 1"
       inkscape:vp_y="0 : 1000 : 0"
       inkscape:vp_z="744.09448 : 526.18109 : 1"
       inkscape:persp3d-origin="372.04724 : 350.78739 : 1"
       id="perspective10" />
    <inkscape:perspective
       id="perspective2884"
       inkscape:persp3d-origin="0.5 : 0.33333333 : 1"
       inkscape:vp_z="1 : 0.5 : 1"
       inkscape:vp_y="0 : 1000 : 0"
       inkscape:vp_x="0 : 0.5 : 1"
       sodipodi:type="inkscape:persp3d" />
  </defs>
  <sodipodi:namedview
     id="base"
     pagecolor="#ffffff"
     bordercolor="#666666"
     borderopacity="1.0"
     inkscape:pageopacity="0.0"
     inkscape:pageshadow="2"
     inkscape:zoom="2.7412974"
     inkscape:cx="151.02217"
     inkscape:cy="150.1114"
     inkscape:document-units="px"
     inkscape:current-layer="layer1"
     showgrid="false"
     inkscape:window-width="2057"
     inkscape:window-height="1071"
     inkscape:window-x="50"
     inkscape:window-y="26"
     inkscape:window-maximized="0" />
  <metadata
     id="metadata7">
    <rdf:RDF>
      <cc:Work
         rdf:about="">
        <dc:format>image/svg+xml</dc:format>
        <dc:type
           rdf:resource="http://purl.org/dc/dcmitype/StillImage" />
        <dc:title />
      </cc:Work>
    </rdf:RDF>
  </metadata>
  <g
     inkscape:label="Layer 1"
     inkscape:groupmode="layer"
     id="layer1"
     transform="translate(-220.37886,-333.74656)">
    <path
       style="fill:#ffffff;fill-opacity:1;stroke:none"
       d="m 327.5737,333.08766 c -30.46665,38.76212 -60.44742,77.90762 -90.56459,116.94281 -5.52336,7.33037 -11.36663,14.58038 -16.6611,21.98548 9.58194,0.70428 19.25757,0.24335 28.87547,0.38759 6.32304,0 12.64608,0 18.96912,0 19.58341,-25.09991 38.95967,-50.36374 58.74271,-75.3065 1.43063,-1.46679 2.09215,1.51822 3.04791,2.14839 31.2883,40.02944 62.36375,80.22588 93.70145,120.21612 15.60022,-0.13266 31.21858,0.29611 46.80721,-0.29639 0.84227,-0.60311 -1.80456,-2.39175 -2.08099,-3.34964 -44.49892,-58.24283 -88.95576,-116.51937 -133.69188,-174.57989 -2.36578,-2.69496 -4.29561,-5.98644 -7.11111,-8.18217 l -0.0342,0.0342 z"
       id="path2816" />
    <path
       style="fill:#ffffff;fill-opacity:1;stroke:none"
       d="m 171.15862,58.129414 c 0,5.867051 0,11.734103 0,17.601155 13.28246,17.091582 26.33956,34.372981 39.95599,51.196101 1.14596,1.32344 0.79675,-1.71033 0.96897,-2.30274 0.55054,-26.171795 0.18569,-52.355869 0.2964,-78.532612 -0.56583,-1.653313 1.23623,-5.674518 -1.09438,-5.563059 -13.37566,0 -26.75132,0 -40.12698,0 0,5.867051 0,11.734103 0,17.601155 z"
       id="path2818"
       transform="translate(220.37886,333.74656)" />
    <path
       style="fill:#ffffff;fill-opacity:1;stroke:none"
       d="m 210.90941,15.927681 c -0.96584,0.920735 1.49677,1.790562 1.98355,2.428138 3.94842,2.667462 8.97392,6.380262 7.83161,11.855701 -0.63064,4.177895 -4.03885,6.922825 -7.23882,9.210967 -1.22273,1.151748 0.82712,2.053707 1.70996,1.151371 3.20564,-2.43068 6.30176,-5.291209 8.52698,-8.663781 1.53359,-5.182342 -1.95857,-10.309893 -6.31544,-12.858875 -2.02976,-1.228911 -4.17406,-2.594724 -6.49784,-3.123521 z"
       id="path2820"
       transform="translate(220.37886,333.74656)" />
    <path
       style="fill:#ffffff;fill-opacity:1;stroke:none"
       d="m 207.75169,7.2752995 c -1.0733,1.4223694 -1.14781,3.8612425 -0.43318,5.4832615 1.27408,-0.01231 1.7141,-2.196428 1.61875,-3.2945168 -0.24571,-0.69085 -0.29803,-2.0424792 -1.18557,-2.1887447 z"
       id="path2822"
       transform="translate(220.37886,333.74656)" />
    <path
       style="fill:#ffffff;fill-opacity:1;stroke:none"
       d="m 65.369294,123.16477 c -4.924675,6.49783 -9.849351,12.99567 -14.774026,19.49351 -4.803074,0.01 -9.606152,0.0136 -14.409236,0.0114 -0.0021,31.18961 0.0017,62.37922 0.0114,93.56883 3.336907,3.57491 6.677031,7.14681 10.020347,10.71573 6.019047,0.0152 12.038095,0.0304 18.057143,0.0456 0,-24.31939 0,-48.63877 0,-72.95816 9.241365,0 18.482734,0 27.724099,0 0,24.31939 0,48.63877 0,72.95816 25.964739,0 51.929489,0 77.894229,0 2.85972,-2.85536 5.71343,-5.7167 8.56118,-8.58398 0,-25.94575 0,-51.89149 0,-77.83724 -14.79394,-18.92197 -29.59076,-37.8417 -44.39047,-56.75916 -17.97357,-0.0435 -35.94711,-0.0929 -53.920639,-0.1482 -4.924676,6.49784 -9.849351,12.99567 -14.774027,19.49351 z m 13.314864,14.76263 c 4.803079,0 9.606156,0 14.409235,0 0,8.26859 0,16.53718 0,24.80577 -9.606156,0 -19.212315,0 -28.818471,0 0,-8.26859 0,-16.53718 0,-24.80577 4.803079,0 9.606156,0 14.409236,0 z"
       id="path2824"
       transform="translate(220.37886,333.74656)" />
    <path
       style="fill:#ffffff;fill-opacity:1;stroke:none"
       d="m 65.004504,260.13231 c 0,4.13429 0,8.26859 0,12.40288 -12.159692,0 -24.319387,0 -36.479078,0 -0.197574,-6.7121 0.487728,-13.63645 -1.162771,-20.18889 -2.279081,-1.94452 -5.743857,-1.14649 -8.526984,-1.47056 -4.739587,0.18062 -9.7262108,-0.58236 -14.2838389,0.94618 -1.5204467,1.61052 -0.703207,4.32931 -1.1349453,6.372 -0.4339111,12.34712 -0.8785909,24.78375 0.4851617,37.0837 0.8528887,3.53555 5.3395779,3.28473 8.2075005,3.38889 23.827187,0.55173 47.672737,0.36859 71.498759,-0.15626 3.527665,0.18758 7.474541,-2.10664 7.387538,-6.00276 0.403422,-14.9219 0.215479,-29.85233 0.273593,-44.77807 -8.754978,0 -17.509957,0 -26.264935,0 0,4.13429 0,8.26859 0,12.40289 z"
       id="path2826"
       transform="translate(220.37886,333.74656)" />
    <path
       style="fill:#ffffff;fill-opacity:1;stroke:none"
       d="m 202.89542,250.28296 c 0,16.17238 0,32.34478 0,48.51717 25.04896,0 50.09793,0 75.1469,0 0,-7.41741 0,-14.83483 0,-22.25224 -15.8076,0 -31.6152,0 -47.4228,0 0,-6.20144 0,-12.40289 0,-18.60433 14.22684,0 28.45368,0 42.68052,0 0,-6.68783 0,-13.37566 0,-20.06349 -14.22684,0 -28.45368,0 -42.68052,0 0,-5.10707 0,-10.21414 0,-15.32121 15.32121,0 30.64242,0 45.96363,0 0,-6.93103 0,-13.86205 0,-20.79308 -24.56257,0 -49.12515,0 -73.68773,0 0,16.17239 0,32.34478 0,48.51718 z"
       id="path2828"
       transform="translate(220.37886,333.74656)" />
    <path
       style="fill:#ffffff;fill-opacity:1;stroke:none"
       d="m 292.26916,250.28296 c 0,16.17238 0,32.34478 0,48.51717 25.04896,0 50.09793,0 75.1469,0 0,-7.41741 0,-14.83483 0,-22.25224 -15.68601,0 -31.37201,0 -47.05801,0 0,-6.20144 0,-12.40289 0,-18.60433 14.10524,0 28.21048,0 42.31573,0 0,-6.68783 0,-13.37566 0,-20.06349 -14.10525,0 -28.21049,0 -42.31573,0 0,-5.10707 0,-10.21414 0,-15.32121 15.32121,0 30.64242,0 45.96363,0 0,-6.93103 0,-13.86205 0,-20.79308 -24.68417,0 -49.36835,0 -74.05252,0 0,16.17239 0,32.34478 0,48.51718 z"
       id="path2830"
       transform="translate(220.37886,333.74656)" />
    <path
       style="fill:#ffffff;fill-opacity:1;stroke:none"
       d="m 603.11613,583.29993 c 0,16.17238 0,32.34478 0,48.51717 15.56917,-0.18095 31.16239,0.38665 46.71491,-0.4616 8.87082,-0.82576 17.98588,-3.94562 23.8949,-10.93811 7.85826,-8.28999 10.83226,-19.88113 11.20592,-31.03002 0.47971,-13.44993 -0.46525,-27.87376 -8.0938,-39.4202 -5.84942,-9.11769 -16.36115,-14.74402 -27.15371,-14.89371 -15.51614,-0.50328 -31.04623,-0.18809 -46.56822,-0.29071 0,16.17239 0,32.34478 0,48.51718 z m 32.73997,-26.25354 c 6.54999,-0.18426 14.52685,1.09416 17.90895,7.45541 4.07992,7.71241 3.11534,16.75731 3.09754,25.17027 -0.10863,6.71894 -1.68706,14.94794 -8.37561,18.13724 -5.57058,2.24318 -11.7821,1.36943 -17.64675,1.85815 0,-17.54416 0,-35.08831 0,-52.63247 1.67196,0.004 3.34391,0.008 5.01587,0.0114 z"
       id="path2832" />
    <path
       style="fill:#ffffff;fill-opacity:1;stroke:none"
       d="m 519.60221,200.06722 c -11.55338,0.14919 -23.61262,3.67212 -31.6798,12.33449 -10.2289,10.41642 -13.49181,25.66587 -12.80784,39.8418 -0.013,9.88043 1.80829,19.97472 7.08949,28.47088 5.57243,9.99645 15.9437,16.70756 27.12701,18.63292 7.80701,1.27789 15.82423,0.88528 23.6737,0.18898 12.47792,-2.22016 23.70353,-10.58007 28.98157,-22.16762 5.6521,-12.76368 6.22207,-27.31783 4.02373,-40.94824 -1.72995,-11.44226 -7.71349,-22.42688 -17.45259,-28.94339 -8.38579,-5.81126 -18.93548,-7.55572 -28.95527,-7.40982 z m 1.68716,22.98182 c 7.49589,-0.0626 14.4424,5.38152 16.29018,12.63088 2.34552,8.46025 1.98939,17.47391 0.80938,26.09394 -0.93514,7.22536 -5.9868,14.40128 -13.55425,15.53781 -6.53433,1.28134 -13.88276,-0.95701 -17.59329,-6.72861 -4.69761,-7.19713 -4.72539,-16.25627 -4.38107,-24.55119 0.54437,-7.29002 1.99811,-15.79205 8.65949,-20.0759 2.8655,-1.92635 6.31663,-2.95569 9.76956,-2.90693 z"
       id="path2834"
       transform="translate(220.37886,333.74656)" />
    <path
       style="fill:#ffffff;fill-opacity:1;stroke:none"
       d="m 663.36397,201.85698 c -6.04564,0.0304 -12.09129,0.0608 -18.13694,0.0912 -4.58063,18.98449 -8.68257,38.16822 -13.73665,56.98716 -4.70593,-19.0151 -9.07637,-38.11273 -13.61126,-57.16956 -12.11029,0 -24.22058,0 -36.33088,0 0,32.34478 0,64.68956 0,97.03435 7.53901,0 15.07802,0 22.61703,0 0.0608,-23.9736 0.12158,-47.94719 0.1824,-71.92078 5.60997,23.91248 11.21863,47.82528 16.82597,71.73838 6.89683,0 13.79365,0 20.69048,0 5.65425,-23.95459 11.30851,-47.90918 16.96277,-71.86378 0.0249,24.01539 0.0439,48.03078 0.057,72.04618 7.53901,0 15.07801,0 22.61703,0 0,-32.34858 0,-64.69717 0,-97.04575 -6.04565,0.0342 -12.0913,0.0684 -18.13695,0.1026 z"
       id="path2836"
       transform="translate(220.37886,333.74656)" />
  </g>
</svg>
