<?xml version="1.0" encoding="UTF-8" standalone="no"?>
<!-- Created with Inkscape (http://www.inkscape.org/) -->

<svg
   xmlns:dc="http://purl.org/dc/elements/1.1/"
   xmlns:cc="http://creativecommons.org/ns#"
   xmlns:rdf="http://www.w3.org/1999/02/22-rdf-syntax-ns#"
   xmlns:svg="http://www.w3.org/2000/svg"
   xmlns="http://www.w3.org/2000/svg"
   xmlns:sodipodi="http://sodipodi.sourceforge.net/DTD/sodipodi-0.dtd"
   xmlns:inkscape="http://www.inkscape.org/namespaces/inkscape"
   width="681.42676"
   height="300.22281"
   id="svg2"
   version="1.1"
   inkscape:version="0.47 r22583"
   sodipodi:docname="logo-jeedom-grand-nom-couleur.svg">
  <defs
     id="defs4">
    <inkscape:perspective
       sodipodi:type="inkscape:persp3d"
       inkscape:vp_x="0 : 526.18109 : 1"
       inkscape:vp_y="0 : 1000 : 0"
       inkscape:vp_z="744.09448 : 526.18109 : 1"
       inkscape:persp3d-origin="372.04724 : 350.78739 : 1"
       id="perspective10" />
    <inkscape:perspective
       id="perspective2884"
       inkscape:persp3d-origin="0.5 : 0.33333333 : 1"
       inkscape:vp_z="1 : 0.5 : 1"
       inkscape:vp_y="0 : 1000 : 0"
       inkscape:vp_x="0 : 0.5 : 1"
       sodipodi:type="inkscape:persp3d" />
    <inkscape:perspective
       id="perspective2884-7"
       inkscape:persp3d-origin="0.5 : 0.33333333 : 1"
       inkscape:vp_z="1 : 0.5 : 1"
       inkscape:vp_y="0 : 1000 : 0"
       inkscape:vp_x="0 : 0.5 : 1"
       sodipodi:type="inkscape:persp3d" />
  </defs>
  <sodipodi:namedview
     id="base"
     pagecolor="#ffffff"
     bordercolor="#666666"
     borderopacity="1.0"
     inkscape:pageopacity="0.0"
     inkscape:pageshadow="2"
     inkscape:zoom="2.7412974"
     inkscape:cx="340.71337"
     inkscape:cy="150.1114"
     inkscape:document-units="px"
     inkscape:current-layer="layer1"
     showgrid="false"
     inkscape:window-width="2183"
     inkscape:window-height="1151"
     inkscape:window-x="50"
     inkscape:window-y="26"
     inkscape:window-maximized="0" />
  <metadata
     id="metadata7">
    <rdf:RDF>
      <cc:Work
         rdf:about="">
        <dc:format>image/svg+xml</dc:format>
        <dc:type
           rdf:resource="http://purl.org/dc/dcmitype/StillImage" />
        <dc:title />
      </cc:Work>
    </rdf:RDF>
  </metadata>
  <g
     inkscape:label="Layer 1"
     inkscape:groupmode="layer"
     id="layer1"
     transform="translate(-220.37886,-333.74656)">
    <path
       style="fill:#94ca02;fill-opacity:1;stroke:none"
       d="m 327.96585,334.25043 c -14.22589,17.68899 -27.94856,35.84231 -41.91475,53.76106 -21.88908,28.40558 -43.9354,56.69665 -65.52754,85.32682 16.00653,0.29243 32.02659,0.10453 48.03839,0.1596 19.28159,-24.64522 38.21787,-49.56508 57.78514,-73.98413 0.7127,-0.63292 1.87392,-3.06019 2.58884,-0.99572 31.67527,40.65041 63.3448,81.30532 94.95849,122.00366 15.51295,-0.11181 31.04261,0.31116 46.54502,-0.23939 1.60593,-0.20423 -1.20902,-1.98243 -1.28276,-2.72574 -43.58638,-57.29745 -87.29999,-114.49925 -131.20469,-171.55306 -3.25872,-3.8917 -6.03373,-8.29483 -9.76955,-11.7303 -0.0694,-0.0178 -0.14423,-0.0524 -0.21659,-0.0228 z"
       id="path2899" />
    <path
       style="fill:#454449;fill-opacity:1;stroke:none"
       d="m 171.23158,58.186412 c 0,5.882251 0,11.764503 0,17.646754 13.4802,17.314123 26.70368,34.838784 40.52597,51.880084 0.84383,-7.96418 0.4514,-16.10921 0.63436,-24.14457 0.10391,-21.013292 0.0451,-42.026959 0.061,-63.040421 -13.74046,0 -27.48091,0 -41.22136,0 0,5.886051 0,11.772102 0,17.658153 z"
       id="path2901"
       transform="translate(220.37886,333.74656)" />
    <path
       style="fill:#454449;fill-opacity:1;stroke:none"
       d="m 210.97097,15.927681 c -0.93575,0.924114 1.39233,1.769167 1.89187,2.402075 3.73219,2.637585 8.78395,5.898624 7.86629,11.23198 -0.27312,4.333795 -3.47943,7.691123 -7.19322,9.518759 -0.96527,0.868675 0.0624,2.582367 1.25397,1.60736 3.58803,-2.203387 6.76196,-5.336301 8.94877,-8.925975 1.49765,-4.824375 -1.57376,-9.748307 -5.69986,-12.140693 -2.20716,-1.37036 -4.46896,-3.278979 -7.06782,-3.693506 z"
       id="path2903"
       transform="translate(220.37886,333.74656)" />
    <path
       style="fill:#454449;fill-opacity:1;stroke:none"
       d="m 207.51686,7.4234958 c -0.5299,1.5453504 -1.03214,3.6159092 -0.44459,5.1982682 1.82014,0.595575 1.87245,-2.452707 1.66436,-3.5909089 -0.0543,-0.6817388 -0.3486,-1.689657 -1.21977,-1.6073593 z"
       id="path2905"
       transform="translate(220.37886,333.74656)" />
    <path
       style="fill:#454449;fill-opacity:1;stroke:none"
       d="m 107.0626,103.64846 c -8.948774,0.004 -17.897547,0.008 -26.846321,0.0114 -9.852221,12.9897 -19.70157,25.98157 -29.548053,38.97562 -4.924689,0.005 -9.849365,0.0168 -14.774026,0.0342 0,31.07561 0,62.15122 0,93.22684 3.468486,3.69452 6.93399,7.39183 10.396537,11.09192 6.019051,-0.002 12.038099,0.002 18.057143,0.0114 0,-24.31939 0,-48.63877 0,-72.95816 9.241365,0 18.482734,0 27.724099,0 0,24.31939 0,48.63877 0,72.95816 25.964741,0 51.929491,0 77.894231,0 2.85971,-2.85536 5.71343,-5.7167 8.56118,-8.58398 0,-25.91535 0,-51.83069 0,-77.74604 -14.86982,-19.01029 -29.73885,-38.02121 -44.60707,-57.03276 -8.95257,0.004 -17.90515,0.008 -26.85772,0.0114 z M 78.757116,137.9274 c 4.80308,0 9.606156,0 14.409235,0 0,8.26859 0,16.53718 0,24.80577 -9.606155,0 -19.212315,0 -28.818471,0 0,-8.26859 0,-16.53718 0,-24.80577 4.803079,0 9.606156,0 14.409236,0 z"
       id="path2907"
       transform="translate(220.37886,333.74656)" />
    <path
       style="fill:#454449;fill-opacity:1;stroke:none"
       d="m 65.077462,260.13231 c 0,4.13429 0,8.26859 0,12.40288 -12.262289,0 -24.524581,0 -36.78687,0 -0.276097,-6.63946 0.273501,-13.39264 -0.706782,-19.96089 -2.003301,-2.24575 -5.592067,-1.32556 -8.276081,-1.68845 -4.87579,0.16799 -9.9521252,-0.52675 -14.6829388,0.83347 -1.6165354,1.46418 -0.7178657,4.22013 -1.1727075,6.17731 -0.3837216,12.13679 -0.8338471,24.33652 0.2721303,36.44621 -0.039281,2.93761 2.9726326,4.1701 5.4929648,4.10483 20.8034202,0.83555 41.6436172,0.66886 62.4603012,0.39325 5.187949,-0.26362 10.488143,0.065 15.595221,-0.89577 3.229876,-1.08861 4.016577,-4.65191 3.790494,-7.66004 0.290786,-14.18273 0.207796,-28.37072 0.324802,-42.55569 -8.770179,0 -17.540355,0 -26.310534,0 0,4.13429 0,8.26859 0,12.40289 z"
       id="path2909"
       transform="translate(220.37886,333.74656)" />
    <path
       style="fill:#454449;fill-opacity:1;stroke:none"
       d="m 202.60358,250.28296 c 0,16.17238 0,32.34478 0,48.51717 25.04897,0 50.09794,0 75.1469,0 0,-7.41741 0,-14.83483 0,-22.25224 -15.686,0 -31.372,0 -47.05801,0 0,-6.20144 0,-12.40289 0,-18.60433 14.22684,0 28.45368,0 42.68052,0 0,-6.68783 0,-13.37566 0,-20.06349 -14.22684,0 -28.45368,0 -42.68052,0 0,-5.10707 0,-10.21414 0,-15.32121 15.32122,0 30.64243,0 45.96364,0 0,-6.93103 0,-13.86205 0,-20.79308 -24.68418,0 -49.36835,0 -74.05253,0 0,16.17239 0,32.34478 0,48.51718 z"
       id="path2911"
       transform="translate(220.37886,333.74656)" />
    <path
       style="fill:#454449;fill-opacity:1;stroke:none"
       d="m 292.34212,250.28296 c 0,16.17238 0,32.34478 0,48.51717 25.04896,0 50.09793,0 75.1469,0 0,-7.41741 0,-14.83483 0,-22.25224 -15.8076,0 -31.61521,0 -47.42281,0 0,-6.20144 0,-12.40289 0,-18.60433 14.22684,0 28.45368,0 42.68053,0 0,-6.68783 0,-13.37566 0,-20.06349 -14.22685,0 -28.45369,0 -42.68053,0 0,-5.10707 0,-10.21414 0,-15.32121 15.32122,0 30.64243,0 45.96364,0 0,-6.93103 0,-13.86205 0,-20.79308 -24.56258,0 -49.12516,0 -73.68773,0 0,16.17239 0,32.34478 0,48.51718 z"
       id="path2913"
       transform="translate(220.37886,333.74656)" />
    <path
       style="fill:#94ca02;fill-opacity:1;stroke:none"
       d="m 602.8243,584.02952 c 0,16.17238 0,32.34478 0,48.51717 15.49285,-0.17141 31.01032,0.39935 46.48638,-0.44498 8.82693,-0.89918 18.02082,-3.7834 23.94072,-10.77535 8.18003,-8.34819 10.91368,-20.32607 11.22255,-31.66502 0.63884,-13.85506 -0.61099,-28.77911 -8.97649,-40.37815 -6.70653,-9.524 -18.65456,-14.09664 -30.04952,-13.62452 -14.20649,-0.23933 -28.41584,-0.11325 -42.62364,-0.14633 0,16.17239 0,32.34478 0,48.51718 z m 32.73997,-26.25354 c 6.35415,-0.0812 14.10512,0.91954 17.56695,7.02222 4.51243,8.40598 3.69743,18.37608 3.29771,27.58462 -0.31466,6.4213 -2.53558,14.14479 -9.22556,16.52087 -5.35809,1.69693 -11.11428,1.10379 -16.65497,1.50476 0,-17.54796 0,-35.09591 0,-52.64387 1.67195,0.004 3.34391,0.008 5.01587,0.0114 z"
       id="path2915" />
    <path
       style="fill:#94ca02;fill-opacity:1;stroke:none"
       d="m 740.68101,533.4376 c -11.93866,-0.0164 -24.4031,3.71825 -32.67139,12.71355 -10.02939,10.1825 -12.8663,25.09679 -12.67855,38.9043 0.007,13.98243 4.18836,28.74479 14.81011,38.40567 8.76761,8.1321 21.23276,10.60768 32.85394,10.13745 12.56483,0.4771 25.68086,-4.15518 33.76929,-14.07884 8.89616,-10.63647 11.17551,-25.12175 10.53377,-38.59086 0.23835,-12.58172 -3.32407,-25.73455 -12.24732,-34.95404 -8.73387,-9.43038 -21.91594,-12.69118 -34.36985,-12.53723 z m 0.99178,22.99321 c 7.83421,-0.0708 14.72527,5.96293 16.55238,13.44026 2.02044,6.5611 1.12745,13.54734 1.14253,20.30233 -0.30371,7.51846 -3.05848,16.08121 -10.4219,19.42567 -5.01713,1.86475 -11.07391,1.96936 -15.8798,-0.60419 -6.59172,-3.77079 -9.30027,-11.5596 -9.62689,-18.78562 -0.37325,-8.89654 -0.79522,-18.63376 4.04104,-26.51683 3.05258,-4.70247 8.64077,-7.37741 14.19264,-7.26162 z"
       id="path2917" />
    <path
       style="fill:#94ca02;fill-opacity:1;stroke:none"
       d="m 581.25641,250.28296 c 0,16.17238 0,32.34478 0,48.51717 7.66061,0 15.32121,0 22.98182,0 0.0608,-23.8672 0.12158,-47.7344 0.18239,-71.60159 5.59478,23.86689 11.18824,47.73408 16.78038,71.60159 6.85661,-0.17054 13.78667,0.36541 20.59928,-0.36479 5.86195,-23.7734 11.29627,-47.76334 16.97417,-71.62439 0.0608,23.99639 0.12161,47.99279 0.1824,71.98918 7.53901,0 15.07801,0 22.61702,0 0,-32.34479 0,-64.68957 0,-97.03435 -12.09889,0 -24.19778,0 -36.29668,0 -4.55563,19.0553 -8.82293,38.37493 -13.67965,57.23795 -4.82604,-19.00962 -9.11831,-38.15179 -13.67966,-57.22655 -12.22049,-0.01 -24.44098,-0.0136 -36.66147,-0.0114 0,16.17239 0,32.34478 0,48.51718 z"
       id="path2919"
       transform="translate(220.37886,333.74656)" />
  </g>
</svg>
