<?xml version="1.0" encoding="UTF-8" standalone="no"?>
<!-- Created with Inkscape (http://www.inkscape.org/) -->

<svg
   xmlns:dc="http://purl.org/dc/elements/1.1/"
   xmlns:cc="http://creativecommons.org/ns#"
   xmlns:rdf="http://www.w3.org/1999/02/22-rdf-syntax-ns#"
   xmlns:svg="http://www.w3.org/2000/svg"
   xmlns="http://www.w3.org/2000/svg"
   xmlns:sodipodi="http://sodipodi.sourceforge.net/DTD/sodipodi-0.dtd"
   xmlns:inkscape="http://www.inkscape.org/namespaces/inkscape"
   width="283.1712"
   height="298.8299"
   id="svg2"
   version="1.1"
   inkscape:version="0.47 r22583"
   sodipodi:docname="logo-jeedom-petit-nom-blanc.svg">
  <defs
     id="defs4">
    <inkscape:perspective
       sodipodi:type="inkscape:persp3d"
       inkscape:vp_x="0 : 526.18109 : 1"
       inkscape:vp_y="0 : 1000 : 0"
       inkscape:vp_z="744.09448 : 526.18109 : 1"
       inkscape:persp3d-origin="372.04724 : 350.78739 : 1"
       id="perspective10" />
    <inkscape:perspective
       id="perspective2884"
       inkscape:persp3d-origin="0.5 : 0.33333333 : 1"
       inkscape:vp_z="1 : 0.5 : 1"
       inkscape:vp_y="0 : 1000 : 0"
       inkscape:vp_x="0 : 0.5 : 1"
       sodipodi:type="inkscape:persp3d" />
  </defs>
  <sodipodi:namedview
     id="base"
     pagecolor="#ffffff"
     bordercolor="#666666"
     borderopacity="1.0"
     inkscape:pageopacity="0.0"
     inkscape:pageshadow="2"
     inkscape:zoom="2.7540752"
     inkscape:cx="125.1781"
     inkscape:cy="143.10221"
     inkscape:document-units="px"
     inkscape:current-layer="layer1"
     showgrid="false"
     inkscape:window-width="2057"
     inkscape:window-height="1071"
     inkscape:window-x="50"
     inkscape:window-y="26"
     inkscape:window-maximized="0" />
  <metadata
     id="metadata7">
    <rdf:RDF>
      <cc:Work
         rdf:about="">
        <dc:format>image/svg+xml</dc:format>
        <dc:type
           rdf:resource="http://purl.org/dc/dcmitype/StillImage" />
        <dc:title />
      </cc:Work>
    </rdf:RDF>
  </metadata>
  <g
     inkscape:label="Layer 1"
     inkscape:groupmode="layer"
     id="layer1"
     transform="translate(-220.37886,-333.74656)">
    <text
       xml:space="preserve"
       style="font-size:64px;font-style:normal;font-variant:normal;font-weight:normal;font-stretch:normal;fill:#000000;fill-opacity:1;stroke:none;font-family:Arial Black;-inkscape-font-specification:'Arial Black,'"
       x="122.72722"
       y="265.42484"
       id="text2915"
       transform="translate(220.37886,333.74656)"><tspan
         sodipodi:role="line"
         id="tspan2917"
         x="122.72722"
         y="265.42484" /></text>
    <path
       style="fill:#ffffff;fill-opacity:1;stroke:none"
       d="m 327.58814,333.67331 c -15.0766,18.69182 -29.60883,37.85109 -44.37919,56.79793 -20.96697,27.24259 -42.18009,54.30328 -62.79154,81.81484 14.72614,0.58921 29.53081,0.0975 44.2865,0.17298 2.33955,0.24201 4.52415,0.16887 5.52708,-2.3077 18.95189,-24.26106 37.64967,-48.73157 56.83097,-72.80681 1.55921,-1.20531 2.78732,2.94315 4.21014,3.94322 30.75078,39.49981 61.56471,78.95057 92.24207,118.50746 15.79344,-0.0679 31.59808,0.19375 47.38433,-0.18155 -43.67624,-57.47049 -87.5654,-114.78034 -131.52688,-172.03324 -3.78723,-4.62729 -7.12968,-9.72786 -11.43173,-13.87309 -0.10436,-0.0542 -0.24113,-0.0866 -0.35175,-0.034 z"
       id="path2822" />
    <path
       style="fill:#ffffff;fill-opacity:1;stroke:none"
       d="m 171.00111,58.022477 c 0,5.843614 0,11.687227 0,17.53084 13.54518,17.371675 26.81413,34.975373 40.70105,52.070563 0.88792,-5.18587 0.40082,-10.66838 0.62623,-15.96497 0.11143,-23.725989 0.0487,-47.452424 0.0659,-71.178619 -13.79773,0 -27.59547,0 -41.3932,0 0,5.847396 0,11.694791 0,17.542186 z"
       id="path2824"
       transform="translate(220.37886,333.74656)" />
    <path
       style="fill:#ffffff;fill-opacity:1;stroke:none"
       d="m 210.78307,15.857688 c -0.42839,1.135152 1.73654,1.892176 2.37744,2.658554 3.82405,2.657468 8.87611,6.462833 7.55103,11.797297 -0.77346,4.056555 -3.9577,6.983961 -7.28466,9.077457 -1.0774,1.150794 0.75561,1.979737 1.63394,1.134682 3.56666,-2.366835 6.94755,-5.458881 8.90725,-9.304393 1.00915,-5.093301 -2.45403,-9.912806 -6.81944,-12.20918 -2.02456,-1.162621 -4.04428,-2.716915 -6.36556,-3.154417 z"
       id="path2826"
       transform="translate(220.37886,333.74656)" />
    <path
       style="fill:#ffffff;fill-opacity:1;stroke:none"
       d="m 207.77616,7.4496933 c -1.23114,1.2250919 -0.97207,3.6429377 -0.69216,5.2195377 1.59689,0.776354 1.80634,-2.050824 1.74741,-3.097682 -0.0924,-0.6891616 -0.11664,-2.0786062 -1.05525,-2.1218557 z"
       id="path2828"
       transform="translate(220.37886,333.74656)" />
    <path
       style="fill:#ffffff;fill-opacity:1;stroke:none"
       d="m 65.475668,123.08515 c -4.928303,6.47526 -9.856605,12.95051 -14.784908,19.42576 -4.920739,0 -9.841477,0 -14.762215,0 0.0097,31.16594 0.01348,62.33187 0.01135,93.49781 3.448798,3.66585 6.894454,7.33465 10.336955,11.00642 5.991122,0.0227 11.982244,0.0454 17.973365,0.0681 0,-24.32759 0,-48.65517 0,-72.98276 9.319525,0 18.639045,0 27.958569,0 0,24.32759 0,48.65517 0,72.98276 25.84428,0 51.68856,0 77.53283,0 2.84645,-2.84211 5.68693,-5.69017 8.52147,-8.54416 0,-26.07121 0,-52.14243 0,-78.21364 -14.78113,-18.88867 -29.56226,-37.77735 -44.34338,-56.66603 -17.89016,0 -35.780316,0 -53.67047,0 -4.924521,6.47526 -9.849041,12.95051 -14.773562,19.42576 z m 13.116926,15.06858 c 4.780795,0 9.561587,0 14.342383,0 0,8.1092 0,16.21839 0,24.32759 -9.561588,0 -19.123178,0 -28.684766,0 0,-8.1092 0,-16.21839 0,-24.32759 4.780795,0 9.561588,0 14.342383,0 z"
       id="path2830"
       transform="translate(220.37886,333.74656)" />
    <path
       style="fill:#ffffff;fill-opacity:1;stroke:none"
       d="m 64.976408,260.15476 c 0,4.11511 0,8.23023 0,12.34534 -12.201617,0 -24.40323,0 -36.604847,0 -0.283683,-6.59019 0.198911,-13.29281 -0.771583,-19.81155 -1.619079,-2.34965 -5.12721,-1.40263 -7.568281,-1.76476 -4.986871,0.15466 -10.1423383,-0.53868 -15.0118946,0.70951 -2.1892142,1.34965 -1.0933745,4.51615 -1.5431677,6.64923 -0.309501,12.05999 -0.6208031,24.17019 0.2382832,36.20771 0.2484583,3.19463 3.6249312,4.15046 6.3201801,4.05082 20.338429,0.61788 40.698819,0.33685 61.045809,0.3063 5.63164,-0.28974 11.504908,0.45527 16.952243,-1.21405 3.806584,-2.18784 2.814193,-7.23336 3.153563,-10.91526 0.238606,-12.96805 0.236094,-25.93927 0.375298,-38.90863 -8.861868,0 -17.723735,0 -26.585603,0 0,4.11511 0,8.23022 0,12.34534 z"
       id="path2832"
       transform="translate(220.37886,333.74656)" />
    <path
       style="fill:#ffffff;fill-opacity:1;stroke:none"
       d="m 97.655254,271.22926 c 0,5.74905 0,11.49811 0,17.24717 9.803656,0 19.607306,0 29.410966,0 0,-2.66273 0,-5.32545 0,-7.98817 -6.17267,0 -12.34535,0 -18.51802,0 0.23712,-2.06251 -0.4775,-5.07675 0.3631,-6.53577 5.44648,0 10.89295,0 16.33942,0 0,-2.42065 0,-4.84131 0,-7.26196 -5.5675,0 -11.13501,0 -16.70252,0 0.45088,-1.84875 -1.30345,-5.9027 1.81549,-5.08338 5.44648,0 10.89295,0 16.33943,0 0,-2.54169 0,-5.08337 0,-7.62506 -9.68262,0 -19.36524,0 -29.047866,0 0,5.74905 0,11.49811 0,17.24717 z"
       id="path2834"
       transform="translate(220.37886,333.74656)" />
    <path
       style="fill:#ffffff;fill-opacity:1;stroke:none"
       d="m 132.51269,271.22926 c 0,5.74905 0,11.49811 0,17.24717 9.68262,0 19.36524,0 29.04786,0 0,-2.66273 0,-5.32545 0,-7.98817 -6.05163,0 -12.10327,0 -18.15491,0 0.23711,-2.06251 -0.47751,-5.07675 0.3631,-6.53577 5.44647,0 10.89295,0 16.33942,0 0,-2.42065 0,-4.84131 0,-7.26196 -5.56751,0 -11.13501,0 -16.70252,0 0.45088,-1.84875 -1.30346,-5.9027 1.81549,-5.08338 5.32544,0 10.65088,0 15.97633,0 0,-2.54169 0,-5.08337 0,-7.62506 -9.56159,0 -19.12318,0 -28.68477,0 0,5.74905 0,11.49811 0,17.24717 z"
       id="path2836"
       transform="translate(220.37886,333.74656)" />
    <path
       style="fill:#ffffff;fill-opacity:1;stroke:none"
       d="m 387.74899,604.97582 c 0,5.74905 0,11.49811 0,17.24717 7.62011,-0.27015 15.42078,0.70382 22.90359,-1.06288 6.61546,-2.30769 9.30721,-9.95039 8.96963,-16.43392 0.0226,-6.50974 -2.66525,-14.18255 -9.50864,-16.21461 -6.14825,-1.37819 -12.5578,-0.52802 -18.81303,-0.78293 -2.82332,-0.55018 -4.29787,0.24842 -3.55155,3.26788 0,4.65976 0,9.31952 0,13.97929 z m 12.79921,-9.25901 c 3.85514,-0.34779 8.03608,2.39789 7.78392,6.58116 -0.0308,3.66633 0.99384,8.68556 -2.6892,10.97237 -2.15976,1.0454 -4.65866,0.94364 -7.00098,0.96448 0,-6.17267 0,-12.34534 0,-18.51801 0.63542,0 1.27084,0 1.90626,0 z"
       id="path2838" />
    <path
       style="fill:#ffffff;fill-opacity:1;stroke:none"
       d="m 219.93995,253.27858 c -7.11343,-0.0401 -14.33569,4.46429 -16.03306,11.64184 -1.56451,6.97594 -1.01067,15.50785 4.90519,20.37691 5.4682,4.41744 13.29001,4.57913 19.80819,2.78196 6.07459,-2.00563 10.21245,-8.1525 10.18945,-14.50124 0.56111,-6.10573 -0.57145,-13.12402 -5.96843,-16.87273 -3.68335,-2.72129 -8.412,-3.55587 -12.90134,-3.42674 z m 1.38431,8.36261 c 4.29837,0.18428 6.90224,4.46956 6.67193,8.46473 0.17459,4.00618 -0.58431,9.71865 -5.37839,10.55255 -4.49218,1.23397 -8.64446,-3.13489 -8.35355,-7.52209 -0.2963,-4.08231 0.0615,-9.66538 4.73392,-11.09805 0.73745,-0.28936 1.53389,-0.42894 2.32609,-0.39714 z"
       id="path2840"
       transform="translate(220.37886,333.74656)" />
    <path
       style="fill:#ffffff;fill-opacity:1;stroke:none"
       d="m 244.34696,271.22926 c 0,5.74905 0,11.49811 0,17.24717 3.02204,0 6.04408,0 9.06612,0 0.0703,-8.00703 0.13459,-16.0141 0.19289,-24.02123 2.03345,8.00744 4.06831,16.01451 6.10459,24.02123 2.73459,0 5.46917,0 8.20375,0 2.21213,-8.21977 4.25796,-16.48346 6.38826,-24.72473 0.0584,8.24162 0.1227,16.4832 0.1929,24.72473 2.901,0 5.80201,0 8.70301,0 0,-11.49812 0,-22.99623 0,-34.49434 -4.70893,0 -9.41786,0 -14.12679,0 -1.78406,6.39297 -3.14682,13.09233 -5.14011,19.31229 -2.09268,-6.33276 -3.49829,-12.87406 -5.23089,-19.31229 -4.78457,0 -9.56915,0 -14.35373,0 0,5.74905 0,11.49811 0,17.24717 z"
       id="path2842"
       transform="translate(220.37886,333.74656)" />
  </g>
</svg>
