<?xml version="1.0" encoding="UTF-8" standalone="no"?>
<!-- Created with Inkscape (http://www.inkscape.org/) -->

<svg
   xmlns:dc="http://purl.org/dc/elements/1.1/"
   xmlns:cc="http://creativecommons.org/ns#"
   xmlns:rdf="http://www.w3.org/1999/02/22-rdf-syntax-ns#"
   xmlns:svg="http://www.w3.org/2000/svg"
   xmlns="http://www.w3.org/2000/svg"
   xmlns:sodipodi="http://sodipodi.sourceforge.net/DTD/sodipodi-0.dtd"
   xmlns:inkscape="http://www.inkscape.org/namespaces/inkscape"
   width="137.375"
   height="106.59375"
   id="svg2"
   version="1.1"
   inkscape:version="0.47 r22583"
   sodipodi:docname="New document 1">
  <defs
     id="defs4">
    <inkscape:perspective
       sodipodi:type="inkscape:persp3d"
       inkscape:vp_x="0 : 526.18109 : 1"
       inkscape:vp_y="0 : 1000 : 0"
       inkscape:vp_z="744.09448 : 526.18109 : 1"
       inkscape:persp3d-origin="372.04724 : 350.78739 : 1"
       id="perspective10" />
    <inkscape:perspective
       sodipodi:type="inkscape:persp3d"
       inkscape:vp_x="0 : 0.5 : 1"
       inkscape:vp_y="0 : 1000 : 0"
       inkscape:vp_z="1 : 0.5 : 1"
       inkscape:persp3d-origin="0.5 : 0.33333333 : 1"
       id="perspective2886" />
    <inkscape:perspective
       sodipodi:type="inkscape:persp3d"
       inkscape:vp_x="0 : 0.5 : 1"
       inkscape:vp_y="0 : 1000 : 0"
       inkscape:vp_z="1 : 0.5 : 1"
       inkscape:persp3d-origin="0.5 : 0.33333333 : 1"
       id="perspective2884" />
    <inkscape:perspective
       id="perspective10-3"
       inkscape:persp3d-origin="372.04724 : 350.78739 : 1"
       inkscape:vp_z="744.09448 : 526.18109 : 1"
       inkscape:vp_y="0 : 1000 : 0"
       inkscape:vp_x="0 : 526.18109 : 1"
       sodipodi:type="inkscape:persp3d" />
    <inkscape:perspective
       sodipodi:type="inkscape:persp3d"
       inkscape:vp_x="0 : 0.5 : 1"
       inkscape:vp_y="0 : 1000 : 0"
       inkscape:vp_z="1 : 0.5 : 1"
       inkscape:persp3d-origin="0.5 : 0.33333333 : 1"
       id="perspective2886-5" />
    <inkscape:perspective
       sodipodi:type="inkscape:persp3d"
       inkscape:vp_x="0 : 0.5 : 1"
       inkscape:vp_y="0 : 1000 : 0"
       inkscape:vp_z="1 : 0.5 : 1"
       inkscape:persp3d-origin="0.5 : 0.33333333 : 1"
       id="perspective2884-0" />
    <inkscape:perspective
       id="perspective10-39"
       inkscape:persp3d-origin="372.04724 : 350.78739 : 1"
       inkscape:vp_z="744.09448 : 526.18109 : 1"
       inkscape:vp_y="0 : 1000 : 0"
       inkscape:vp_x="0 : 526.18109 : 1"
       sodipodi:type="inkscape:persp3d" />
  </defs>
  <sodipodi:namedview
     id="base"
     pagecolor="#ffffff"
     bordercolor="#666666"
     borderopacity="1.0"
     inkscape:pageopacity="0.0"
     inkscape:pageshadow="2"
     inkscape:zoom="0.90368128"
     inkscape:cx="61.088253"
     inkscape:cy="106.28766"
     inkscape:document-units="px"
     inkscape:current-layer="layer1"
     showgrid="false"
     inkscape:window-width="2409"
     inkscape:window-height="1199"
     inkscape:window-x="0"
     inkscape:window-y="0"
     inkscape:window-maximized="0" />
  <metadata
     id="metadata7">
    <rdf:RDF>
      <cc:Work
         rdf:about="">
        <dc:format>image/svg+xml</dc:format>
        <dc:type
           rdf:resource="http://purl.org/dc/dcmitype/StillImage" />
        <dc:title></dc:title>
      </cc:Work>
    </rdf:RDF>
  </metadata>
  <g
     inkscape:label="Layer 1"
     inkscape:groupmode="layer"
     id="layer1"
     transform="translate(-105.6875,-525.875)">
    <flowRoot
       xml:space="preserve"
       id="flowRoot3102"
       style="font-size:72px;font-style:normal;font-variant:normal;font-weight:normal;font-stretch:normal;fill:#000000;fill-opacity:1;stroke:none;font-family:Arial Black;-inkscape-font-specification:'Arial Black,'"><flowRegion
         id="flowRegion3104"><rect
           id="rect3106"
           width="440.42078"
           height="358.53348"
           x="361.85324"
           y="440.42078" /></flowRegion><flowPara
         id="flowPara3108"></flowPara></flowRoot>    <path
       style="font-size:144px;font-style:normal;font-variant:normal;font-weight:normal;font-stretch:normal;fill:#94ca02;fill-opacity:1;stroke:none;font-family:Arial Black;-inkscape-font-specification:'Arial Black,'"
       d="m 153.34375,525.875 c -10.73442,10e-5 -19.18753,1.34385 -25.375,4.0625 -6.14065,2.67197 -10.75002,6.39072 -13.84375,11.125 -3.04689,4.68758 -4.56251,9.67195 -4.5625,14.96875 -1e-5,8.06257 2.99999,14.70318 9,19.90625 5.9531,5.20317 15.90622,9.35942 29.875,12.5 8.53119,1.87504 13.96869,3.89066 16.3125,6 2.34368,2.10941 3.49993,4.48441 3.5,7.15625 -7e-5,2.81253 -1.23444,5.31252 -3.71875,7.46875 -2.43756,2.10939 -5.92193,3.15627 -10.46875,3.15625 -6.0938,2e-5 -10.78129,-2.0781 -14.0625,-6.25 -2.01566,-2.5781 -3.34379,-6.32809 -4,-11.25 l -30.3125,1.875 c 0.89062,10.40627 4.68749,19.00002 11.4375,25.75 6.74998,6.75 18.90621,10.125 36.4375,10.125 9.98431,0 18.24993,-1.42188 24.8125,-4.28125 6.56242,-2.90624 11.68741,-7.17187 15.34375,-12.75 3.65615,-5.5781 5.46865,-11.67185 5.46875,-18.28125 -1e-4,-5.62496 -1.35947,-10.70308 -4.125,-15.25 -2.71884,-4.54682 -7.10946,-8.32807 -13.15625,-11.375 -6.00008,-3.09369 -15.98444,-6.15618 -29.90625,-9.15625 -5.62505,-1.1718 -9.18754,-2.4218 -10.6875,-3.78125 -1.54691,-1.31243 -2.31254,-2.7968 -2.3125,-4.4375 -4e-5,-2.24992 0.93746,-4.14054 2.8125,-5.6875 1.87496,-1.59367 4.67183,-2.40616 8.375,-2.40625 4.49995,9e-5 8.03119,1.04696 10.5625,3.15625 2.57806,2.10946 4.26556,5.48445 5.0625,10.125 l 30,-1.75 c -1.31259,-10.68742 -5.43759,-18.46866 -12.375,-23.34375 -6.8907,-4.92177 -16.92194,-7.3749 -30.09375,-7.375 z m 61.09375,1.75 0,19.46875 28.625,0 0,-19.46875 -28.625,0 z m 0,28.40625 0,74.6875 28.625,0 0,-74.6875 -28.625,0 z"
       id="flowRoot3110" />
  </g>
</svg>
