<?xml version="1.0" encoding="UTF-8" standalone="no"?>
<!-- Created with Inkscape (http://www.inkscape.org/) -->

<svg
   xmlns:dc="http://purl.org/dc/elements/1.1/"
   xmlns:cc="http://creativecommons.org/ns#"
   xmlns:rdf="http://www.w3.org/1999/02/22-rdf-syntax-ns#"
   xmlns:svg="http://www.w3.org/2000/svg"
   xmlns="http://www.w3.org/2000/svg"
   xmlns:sodipodi="http://sodipodi.sourceforge.net/DTD/sodipodi-0.dtd"
   xmlns:inkscape="http://www.inkscape.org/namespaces/inkscape"
   width="71.057518"
   height="101.72208"
   id="svg2"
   version="1.1"
   inkscape:version="0.47 r22583"
   sodipodi:docname="si.svg">
  <defs
     id="defs4">
    <inkscape:perspective
       sodipodi:type="inkscape:persp3d"
       inkscape:vp_x="0 : 526.18109 : 1"
       inkscape:vp_y="0 : 1000 : 0"
       inkscape:vp_z="744.09448 : 526.18109 : 1"
       inkscape:persp3d-origin="372.04724 : 350.78739 : 1"
       id="perspective10" />
  </defs>
  <sodipodi:namedview
     id="base"
     pagecolor="#ffffff"
     bordercolor="#666666"
     borderopacity="1.0"
     inkscape:pageopacity="0.0"
     inkscape:pageshadow="2"
     inkscape:zoom="0.84666668"
     inkscape:cx="275.05115"
     inkscape:cy="-27.509577"
     inkscape:document-units="px"
     inkscape:current-layer="layer1"
     showgrid="false"
     inkscape:window-width="1776"
     inkscape:window-height="1139"
     inkscape:window-x="0"
     inkscape:window-y="0"
     inkscape:window-maximized="0" />
  <metadata
     id="metadata7">
    <rdf:RDF>
      <cc:Work
         rdf:about="">
        <dc:format>image/svg+xml</dc:format>
        <dc:type
           rdf:resource="http://purl.org/dc/dcmitype/StillImage" />
        <dc:title />
      </cc:Work>
    </rdf:RDF>
  </metadata>
  <g
     inkscape:label="Layer 1"
     inkscape:groupmode="layer"
     id="layer1"
     transform="translate(-96.996094,-396.94944)">
    <path
       style="font-size:72px;font-style:normal;font-variant:normal;font-weight:normal;font-stretch:normal;fill:#000000;fill-opacity:1;stroke:none;font-family:Arial Black;-inkscape-font-specification:'Arial Black,'"
       d="M 24.65625 0 C 19.104481 0.0001000446 14.731367 1.3118543 11.53125 3.90625 C 8.3553487 6.4561054 5.9750584 9.9820912 4.375 14.5 C 2.7991711 18.973347 1.9999954 23.726535 2 28.78125 C 1.9999954 36.475332 3.5530838 42.815982 6.65625 47.78125 C 9.7351543 52.746623 14.900438 56.721705 22.125 59.71875 C 26.537277 61.508095 29.319046 63.393317 30.53125 65.40625 C 31.743388 67.419252 32.374965 69.700269 32.375 72.25 C 32.374965 74.933985 31.722368 77.31732 30.4375 79.375 C 29.176809 81.387988 27.382834 82.406268 25.03125 82.40625 C 21.879579 82.406268 19.447019 80.418727 17.75 76.4375 C 16.707513 73.97723 16.02689 70.384459 15.6875 65.6875 L 0 67.5 C 0.46062228 77.430674 2.4464399 85.621011 5.9375 92.0625 C 9.4285431 98.504005 15.682936 101.71875 24.75 101.71875 C 29.91382 101.71875 34.199632 100.35369 37.59375 97.625 C 40.987788 94.85158 43.640216 90.791946 45.53125 85.46875 C 47.422188 80.145583 48.374949 74.338581 48.375 68.03125 C 48.374949 62.663368 47.649063 57.80786 46.21875 53.46875 C 44.812583 49.129733 42.533608 45.501428 39.40625 42.59375 C 36.303051 39.641455 31.169017 36.737954 23.96875 33.875 C 21.059514 32.756751 19.213268 31.547316 18.4375 30.25 C 17.637446 28.997556 17.24998 27.596966 17.25 26.03125 C 17.24998 23.884158 17.717742 22.070006 18.6875 20.59375 C 19.657215 19.07292 21.115995 18.312582 23.03125 18.3125 C 25.358592 18.312582 27.159575 19.330861 28.46875 21.34375 C 29.802107 23.356797 30.681578 26.57154 31.09375 31 L 46.625 29.3125 C 45.946135 19.113534 43.806732 11.683535 40.21875 7.03125 C 36.654925 2.3344181 31.468622 0.0001000446 24.65625 0 z M 56.25 1.6875 L 56.25 20.25 L 71.0625 20.25 L 71.0625 1.6875 L 56.25 1.6875 z M 56.25 28.78125 L 56.25 100.03125 L 71.0625 100.03125 L 71.0625 28.78125 L 56.25 28.78125 z "
       transform="translate(96.996094,396.94944)"
       id="flowRoot2816" />
  </g>
</svg>
