<?xml version="1.0" standalone="no"?> <!DOCTYPE svg PUBLIC "-//W3C//DTD SVG 1.0//EN" "http://www.w3.org/TR/2001/REC-SVG-20010904/DTD/svg10.dtd" > <svg xmlns="http://www.w3.org/2000/svg" width="100%" height="100%">
<defs >
<font id="CamingoCode-Italic" horiz-adv-x="550" ><font-face
    font-family="CamingoCode"
    units-per-em="1000"
    panose-1="2 11 5 9 4 3 2 9 2 3"
    ascent="1050"
    descent="-250"
    alphabetic="0" />
<missing-glyph d="M106 263Q106 299 119 330T154 384T208 420T275 433Q311 433 342 420T396 385T432 331T445 263Q445 227 432 196T397 143T343 107T275 94Q239 94 208 107T155 142T119 196T106 263ZM279 336H326L331 320Q335 307 344 307Q354 307 354 321V337V340Q354
353 351 356Q347 360 337 360H227Q214 360 214 350Q214 340 227 336L243 331V200Q243 178 228 178Q221 178 217 181T210 189T204 197T196 201Q188 201 184 196T179 184Q179 172 190 164T222 155Q279 155 279 217V250H312L314 243Q317 232 325 232Q335 232 335 244V280Q335
293 325 293Q317 293 314 282L312 274H279V336Z" />
<glyph unicode="&#xd;" glyph-name="CR" />
<glyph unicode=" " glyph-name="space" />
<glyph unicode="!" glyph-name="exclam" d="M327 738H414L309 244H240L327 738ZM297 70Q297 64 297 58T295 46Q291 30 287 20T275 3T257 -5T228 -8Q200 -8 188 0T176 29Q176 36 176 41T179 53Q182 69 186 79T197 96T217 104T246 107Q274 107 285 99T297 70Z" />
<glyph unicode="&quot;" glyph-name="quotedbl" d="M492 738H573L515 491H455L492 738ZM425 738H506L448 491H388L425 738Z" />
<glyph unicode="#" glyph-name="numbersign" d="M312 183H160L88 0H38L109 183H5L14 228H125L201 420H95L104 466H217L287 644H337L267 466H420L490 644H540L470 466H575L567 420H454L378 228H486L477 183H362L291 0H240L312 183ZM175 228H328L403 420H251L175 228Z" />
<glyph unicode="$" glyph-name="dollar" d="M133 -8Q102 -5 76 1T28 14L44 75Q70 67 98 61T159 51L261 307Q225 324 199 340T155 376T129 418T121 470Q121 511 137 545T186 605T267 644T379 658H401L441 757H500L458 652Q482 650 504 646T546 635L528 574Q503
581 481 585T432 593L337 352Q375 334 402 317T447 280T472 237T480 183Q480 140 462 104T411 42T327 1T214 -14H190L151 -112H92L133 -8ZM214 48H228Q269 48 302 57T358 83T393 122T405 171Q405 189 401 203T385 231T355 257T308 284L214 48ZM377 597H365Q324
597 292 588T239 564T206 528T195 482Q195 463 200 449T217 423T247 400T289 375L377 597Z" />
<glyph unicode="%" glyph-name="percent" d="M542 665L580 638L37 -21L-1 6L542 665ZM305 511Q298 471 286 444T257 401T219 377T172 370Q128 370 106 391T84 458Q84 470 85 482T89 510Q96 550 108 577T137 620T175 644T223 652Q266 652 288 631T310 563Q310 552
309 540T305 511ZM251 509Q254 525 256 537T258 561Q258 587 248 597T217 607Q205 607 194 603T174 589T158 560T144 512Q140 496 139 484T137 460Q137 434 147 424T177 414Q190 414 200 417T220 431T236 460T251 509ZM490 134Q483 94 471 67T442 23T404 -1T356
-8Q313 -8 291 13T269 81Q269 93 270 105T274 133Q281 173 293 200T322 243T360 267T407 275Q451 275 473 254T495 185Q495 174 494 162T490 134ZM435 132Q439 147 440 160T442 184Q442 210 432 220T402 230Q389 230 379 226T359 212T342 183T328 135Q325 119 323
107T321 83Q321 57 331 47T362 36Q374 36 385 40T405 54T421 83T435 132Z" />
<glyph unicode="&amp;" glyph-name="ampersand" d="M431 132Q450 105 471 79T514 26L455 -15Q437 7 420 30T386 75Q354 39 306 13T192 -14Q114 -14 66 29T18 152Q18 198 32 237T69 308T124 366T189 412Q177 443 169 478T160 546Q160 590 172 628T208 693T268 736T353
752Q391 752 418 742T463 716T489 678T498 631Q498 595 483 563T443 504L393 540Q408 560 416 580T425 624Q425 652 405 671T344 691Q317 691 296 681T261 651T240 607T232 552Q232 514 245 470T280 379T331 282T393 185Q416 227 432 274T462 379H527Q511 310 488
247T431 132ZM351 124Q315 173 278 234T213 355Q187 340 165 320T127 276T102 222T92 158Q92 106 121 77T203 47Q253 47 289 69T351 124Z" />
<glyph unicode="&apos;" glyph-name="quotesingle" d="M330 738H411L353 491H293L330 738Z" />
<glyph unicode="(" glyph-name="parenleft" d="M302 -179Q271 -140 247 -98T205 -12T179 80T170 181Q170 279 195 365T263 528T365 670T490 793L537 753Q476 700 423 638T331 505T270 353T247 183Q247 136 254 93T276 9T311 -70T359 -145L302 -179Z" />
<glyph unicode=")" glyph-name="parenright" d="M271 792Q301 752 325 710T367 624T394 531T403 431Q403 333 378 246T309 84T207 -58T82 -181L36 -141Q97 -88 150 -26T242 107T303 258T326 429Q326 476 319 519T297 602T262 681T214 757L271 792Z" />
<glyph unicode="*" glyph-name="asterisk" d="M289 394L103 280L75 342L282 420L102 505L144 567L298 445L313 644H392L328 444L514 558L541 496L335 419L514 333L473 271L318 393L303 194H225L289 394Z" />
<glyph unicode="+" glyph-name="plus" d="M63 317H255L293 512H359L321 317H514L503 256H309L272 60H205L243 256H51L63 317Z" />
<glyph unicode="," glyph-name="comma" d="M30 -155Q77 -115 117 -78T192 -1Q184 4 180 11T175 32Q175 38 175 44T178 56Q181 73 185 83T198 100T217 109T247 112Q276 112 288 103T301 73Q301 67 301 61T299 48Q296 37 294 29T288 15T281 4T272 -8Q257 -26 234
-48T182 -95T122 -144T61 -192L30 -155Z" />
<glyph unicode="-" glyph-name="hyphen" d="M127 297H442L429 230H114L127 297Z" />
<glyph unicode="." glyph-name="period" d="M301 73Q301 67 300 61T297 48Q294 31 290 21T277 4T258 -5T229 -8Q200 -8 187 1T174 32Q174 38 174 44T177 56Q180 73 184 83T197 100T216 109T246 112Q275 112 288 103T301 73Z" />
<glyph unicode="/" glyph-name="slash" d="M500 738H580L54 -112H-26L500 738Z" />
<glyph unicode="0" glyph-name="zero" d="M535 486Q535 468 534 450T530 412T524 370T515 320Q495 213 467 147T403 46T322 -2T225 -14Q132 -14 89 26T45 158Q45 194 49 231T64 324Q84 431 112 497T177 598T258 646T354 658Q448 658 491 618T535 486ZM429 578Q415
589 395 594T345 600Q312 600 281 591T223 554T174 470T135 322Q126 271 121 232T116 159Q116 146 117 136T121 115L429 578ZM150 66Q164 55 184 50T235 44Q268 44 298 52T356 90T405 174T444 322Q453 373 458 412T464 485Q464 498 463 508T459 529L150 66Z" />
<glyph unicode="1" glyph-name="one" d="M28 65H226L321 556L134 464L113 513L350 644H415L303 65H456L444 0H16L28 65Z" />
<glyph unicode="2" glyph-name="two" d="M20 54L253 259Q294 295 327 327T384 389T420 448T433 509Q433 552 406 573T316 595Q278 595 237 589T161 573L154 632Q194 643 241 650T335 658Q381 658 415 649T471 623T504 580T515 520Q515 479 501 442T460 370T396
299T314 225L130 67H440L428 0H11L20 54Z" />
<glyph unicode="3" glyph-name="three" d="M29 68Q61 60 100 55T179 50Q225 50 262 60T327 90T369 138T384 201Q384 227 376 247T345 282T280 303T173 311L186 372Q241 372 286 382T363 411T413 456T431 513Q431 552 406 572T318 593Q283 593 245 589T168 573L161
631Q204 643 249 649T337 656Q425 656 467 623T509 528Q509 488 492 457T449 404T392 367T333 346Q393 336 428 302T463 204Q463 154 442 114T384 46T294 2T179 -13Q135 -13 92 -8T15 5L29 68Z" />
<glyph unicode="4" glyph-name="four" d="M330 152H26L38 217L393 644H498L416 219H497L483 152H403L374 0H301L330 152ZM344 219L412 573L115 219H344Z" />
<glyph unicode="5" glyph-name="five" d="M523 644L510 578H245L205 373Q229 376 249 378T291 380Q386 380 429 340T472 223Q472 161 450 117T388 44T297 1T183 -13Q148 -13 109 -9T35 4L49 66Q79 59 117 55T189 50Q232 50 269 59T334 88T378 139T394 211Q394
265 364 291T260 317Q228 317 196 314T126 305L191 644H523Z" />
<glyph unicode="6" glyph-name="six" d="M518 581Q493 586 466 589T409 593Q354 593 316 577T250 528T205 447T172 336Q207 357 246 369T328 382Q406 382 445 343T484 233Q484 175 465 129T413 52T335 3T238 -14Q197 -14 166 -4T113 28T81 81T70 154Q70 184 73
212T82 269Q102 376 129 449T195 569T286 635T412 656Q444 656 476 652T533 641L518 581ZM406 223Q406 269 382 294T306 320Q270 320 233 307T159 269Q153 239 149 214T145 160Q145 104 169 76T247 48Q283 48 312 61T362 97T394 153T406 223Z" />
<glyph unicode="7" glyph-name="seven" d="M116 0Q162 80 206 153T293 297T380 436T470 578H129L141 644H567L557 588Q508 512 463 440T374 296T288 151T200 0H116Z" />
<glyph unicode="8" glyph-name="eight" d="M479 183Q479 143 464 108T418 46T344 2T239 -14Q196 -14 161 -3T102 27T65 75T51 138Q51 180 66 212T108 268T166 309T234 340Q186 368 163 401T139 481Q139 519 153 550T195 606T263 644T356 658Q399 658 431 648T485
619T517 576T527 524Q527 487 514 459T479 409T428 371T366 339Q424 312 451 273T479 183ZM309 373Q340 385 365 398T409 429T438 466T449 512Q449 550 424 573T345 596Q316 596 293 588T252 565T226 531T217 488Q217 450 238 424T309 373ZM291 306Q259 294 230
280T179 246T144 203T130 149Q130 99 163 74T251 48Q289 48 317 59T364 88T392 129T401 176Q401 217 376 248T291 306Z" />
<glyph unicode="9" glyph-name="nine" d="M45 66Q74 58 105 54T165 49Q222 49 261 65T328 114T374 195T407 306Q372 286 333 274T251 261Q173 261 135 300T96 410Q96 467 114 513T166 591T244 639T341 656Q382 656 413 646T466 614T499 562T510 488Q510 459 506
431T497 374Q477 267 450 193T383 74T289 8T159 -13Q143 -13 127 -12T94 -8T61 -3T31 5L45 66ZM173 420Q173 373 197 348T273 323Q309 323 346 335T420 373Q427 403 430 429T434 482Q434 538 411 566T333 595Q297 595 268 582T218 545T185 490T173 420Z" />
<glyph unicode=":" glyph-name="colon" d="M301 73Q301 67 300 61T297 48Q294 31 290 21T277 4T258 -5T229 -8Q200 -8 187 1T174 32Q174 38 174 44T177 56Q180 73 184 83T197 100T216 109T246 112Q275 112 288 103T301 73ZM364 399Q364 393 364 387T361 374Q358
358 354 347T341 330T322 321T292 318Q263 318 250 327T237 358Q237 364 238 370T241 383Q244 399 248 410T260 427T280 436T309 438Q338 438 351 429T364 399Z" />
<glyph unicode=";" glyph-name="semicolon" d="M364 399Q364 393 364 387T361 374Q358 358 354 347T341 330T322 321T292 318Q263 318 250 327T237 358Q237 364 238 370T241 383Q244 399 248 410T260 427T280 436T309 438Q338 438 351 429T364 399ZM29 -155Q76
-115 115 -78T190 -1Q183 4 179 11T174 32Q174 38 174 44T177 56Q180 73 184 83T197 100T216 109T246 112Q275 112 288 103T301 73Q301 67 300 61T297 48Q295 37 293 29T287 15T280 4T271 -8Q256 -26 233 -48T181 -95T121 -144T60 -192L29 -155Z" />
<glyph unicode="&lt;" glyph-name="less" d="M91 322L516 536L501 459L153 283L433 104L419 35L77 252L91 322Z" />
<glyph unicode="=" glyph-name="equal" d="M55 224H486L474 162H44L55 224ZM91 411H522L511 350H79L91 411Z" />
<glyph unicode="&gt;" glyph-name="greater" d="M64 112L412 288L133 468L147 536L488 320L474 250L50 35L64 112Z" />
<glyph unicode="?" glyph-name="question" d="M208 289Q212 313 219 333T241 372T280 413T341 460Q372 482 394 500T432 535T454 569T462 605Q462 622 456 636T434 661T397 678T342 684Q299 684 262 678T180 660L176 720Q222 732 266 739T363 746Q454 746 498
711T543 620Q543 590 534 565T505 517T458 470T392 421Q364 400 344 384T311 352T290 320T278 283L270 244H199L208 289ZM258 70Q258 64 258 58T255 46Q252 30 248 20T236 3T217 -5T189 -8Q160 -8 149 0T137 29Q137 36 137 41T139 53Q142 69 146 79T158 96T177
104T206 107Q234 107 246 99T258 70Z" />
<glyph unicode="@" glyph-name="at" d="M403 649Q336 649 279 610T181 501T117 336T94 131Q94 75 104 35T134 -30T182 -68T247 -81Q278 -81 304 -76T355 -63L361 -120Q334 -130 303 -135T235 -141Q137 -141 82 -76T27 126Q27 247 53 353T129 538T251 663T415 709Q456
709 483 699T529 671T555 629T563 575Q563 561 562 546T557 513L480 120H425L430 173Q405 149 373 130T304 111Q255 111 225 142T195 234Q195 274 207 313T248 382T323 431T438 450H475L487 510Q490 526 491 538T492 564Q492 602 473 625T403 649ZM432 396Q383
396 351 383T299 348T273 299T265 244Q265 206 281 188T325 170Q349 170 375 186T433 234L464 396H432Z" />
<glyph unicode="A" glyph-name="A" d="M305 695H420L488 0H408L388 192H142L48 0H-33L305 695ZM387 255L370 444Q365 498 361 544T352 642H351Q339 616 329 592T307 545T284 497T258 444L168 255H387Z" />
<glyph unicode="B" glyph-name="B" d="M163 695H340Q397 695 437 687T501 661T537 618T548 558Q548 518 536 486T502 430T455 389T399 364Q449 354 476 321T504 237Q504 183 487 139T434 65T346 17T219 0H28L163 695ZM227 62Q327 62 374 104T421 229Q421 253 414
271T389 303T343 323T272 330H171L119 62H227ZM279 391Q330 391 365 403T423 437T456 487T466 546Q466 567 460 583T437 610T395 627T329 633H230L183 391H279Z" />
<glyph unicode="C" glyph-name="C" d="M452 12Q421 4 377 -3T287 -11Q229 -11 187 0T116 36T74 98T59 191Q59 229 63 265T77 348Q97 455 131 524T211 633T310 690T426 706Q473 706 512 700T579 686L560 624Q535 631 499 636T422 642Q378 642 338 630T263 585T201
495T157 346Q148 304 144 269T140 197Q140 118 179 86T302 53Q338 53 378 58T449 73L452 12Z" />
<glyph unicode="D" glyph-name="D" d="M150 695H328Q382 695 423 686T491 654T533 593T548 499Q548 466 544 430T531 350Q512 250 482 183T408 76T309 18T185 0H15L150 695ZM191 63Q240 63 281 76T354 122T410 211T450 352Q454 371 457 390T462 427T466 461T467
491Q467 532 458 559T429 602T382 625T317 632H217L106 63H191Z" />
<glyph unicode="E" glyph-name="E" d="M178 695H565L552 632H245L198 391H483L471 329H187L135 63H442L430 0H43L178 695Z" />
<glyph unicode="F" glyph-name="F" d="M186 695H573L560 632H252L206 391H486L474 329H194L130 0H51L186 695Z" />
<glyph unicode="G" glyph-name="G" d="M445 22Q427 15 404 9T355 -1T303 -9T252 -12Q202 -12 163 -2T97 31T56 92T42 190Q42 225 46 263T60 348Q81 450 112 519T187 629T282 688T397 706Q443 706 484 700T559 683L541 622Q509 630 472 636T395 642Q348 642 309
629T238 582T181 491T139 345Q130 302 126 265T121 194Q121 151 130 124T158 80T202 58T261 52Q293 52 324 57T377 71L427 327H282L295 389H516L445 22Z" />
<glyph unicode="H" glyph-name="H" d="M150 695H230L171 393H436L496 695H576L441 0H361L424 328H158L95 0H15L150 695Z" />
<glyph unicode="I" glyph-name="I" d="M34 65H200L310 630H145L158 695H569L556 630H390L280 65H444L432 0H22L34 65Z" />
<glyph unicode="J" glyph-name="J" d="M181 630L194 695H543L445 193Q433 137 413 99T360 37T282 3T178 -7Q138 -7 101 -3T29 10L43 74Q73 66 105 62T177 58Q219 58 251 65T305 90T343 134T365 200L449 630H181Z" />
<glyph unicode="K" glyph-name="K" d="M172 695H251L187 366L517 695H613L268 354L488 0H397L183 346L116 0H37L172 695Z" />
<glyph unicode="L" glyph-name="L" d="M187 695H266L143 65H454L442 0H52L187 695Z" />
<glyph unicode="M" glyph-name="M" d="M140 695H252L270 352Q272 323 273 298T273 236H276Q289 272 299 297T323 352L475 695H586L482 0H412L476 418Q484 475 493 524T514 630H511Q498 598 487 571T461 511L305 160H216L197 511Q195 544 194 571T192 630H189Q179
577 169 527T144 418L46 0H-26L140 695Z" />
<glyph unicode="N" glyph-name="N" d="M148 695H251L356 260Q361 237 366 216T375 175T384 133T394 90H398Q404 138 410 182T425 273L507 695H578L443 0H340L235 435Q229 458 224 478T215 519T206 561T197 605H193Q187 557 181 513T165 422L84 0H13L148 695Z" />
<glyph unicode="O" glyph-name="O" d="M547 509Q547 474 542 433T528 348Q509 247 484 179T423 67T340 5T227 -14Q130 -14 86 33T42 186Q42 221 47 262T60 347Q80 448 105 516T166 628T249 690T362 709Q458 709 502 662T547 509ZM468 504Q468 579 442 612T352
645Q309 645 277 630T220 580T176 487T140 345Q136 326 133 305T127 264T123 225T121 191Q121 116 147 83T236 50Q279 50 311 65T368 115T413 208T449 350Q453 369 456 390T462 431T466 470T468 504Z" />
<glyph unicode="P" glyph-name="P" d="M168 695H359Q415 695 454 686T519 660T555 616T567 555Q567 433 493 368T279 302H172L113 0H33L168 695ZM287 365Q335 365 372 377T435 412T473 468T486 544Q486 590 456 611T350 633H235L183 365H287Z" />
<glyph unicode="Q" glyph-name="Q" d="M357 98Q389 136 410 198T449 350Q453 369 456 390T462 431T466 470T468 504Q468 579 442 612T352 645Q309 645 277 630T220 580T176 487T140 345Q135 326 132 305T126 264T123 225T121 191Q121 116 147 83T236 50Q256 50
273 53T303 63L243 177L302 207L357 98ZM450 -82L392 -112L331 6Q312 -4 287 -9T227 -14Q130 -14 86 33T42 186Q42 221 47 262T60 347Q80 448 105 516T166 628T249 690T362 709Q458 709 502 662T547 509Q547 474 542 433T528 348Q516 286 502 237T472 149T435 83T389
35L450 -82Z" />
<glyph unicode="R" glyph-name="R" d="M163 695H346Q404 695 444 686T510 660T546 618T557 561Q557 508 542 468T498 399T427 355T330 336L470 0H384L248 329H171L108 0H28L163 695ZM287 391Q338 391 374 401T432 431T465 481T476 549Q476 570 470 586T447 612T404
627T337 633H230L183 391H287Z" />
<glyph unicode="S" glyph-name="S" d="M38 75Q57 69 78 65T120 57T163 53T206 51Q309 51 357 88T406 190Q406 211 400 227T378 258T336 289T271 326Q227 350 197 369T148 409T121 455T113 513Q113 605 180 656T384 707Q404 707 425 706T467 701T506 694T543 686L526
623Q496 632 457 638T378 644Q282 644 238 612T193 525Q193 504 198 488T219 458T259 427T325 390Q370 366 400 346T450 305T478 260T486 202Q486 102 415 45T202 -12Q153 -12 110 -6T24 12L38 75Z" />
<glyph unicode="T" glyph-name="T" d="M309 630H101L115 695H611L598 630H389L267 0H188L309 630Z" />
<glyph unicode="U" glyph-name="U" d="M225 695L135 232Q130 210 128 191T125 154Q125 104 150 77T235 50Q277 50 306 61T355 96T389 155T411 237L501 695H580L489 230Q477 168 457 122T405 46T330 1T227 -14Q137 -14 92 26T46 149Q46 170 49 191T57 240L145 695H225Z" />
<glyph unicode="V" glyph-name="V" d="M183 695L222 288Q228 231 231 174T238 56H240Q266 117 291 174T345 287L543 695H623L285 0H170L102 695H183Z" />
<glyph unicode="W" glyph-name="W" d="M158 695L132 277Q130 250 129 226T125 176T120 125T114 70H117Q126 99 136 128T160 194L284 535H378L370 194Q369 160 368 130T365 70H368Q376 99 384 125T399 176T414 226T431 277L568 695H638L412 0H302L310 341Q310 377
312 402T317 457H314Q310 443 306 430T298 403T288 374T276 341L153 0H44L88 695H158Z" />
<glyph unicode="X" glyph-name="X" d="M196 695L309 406H312Q330 432 345 453T379 500L527 695H615L348 350L488 0H403L281 303H279Q263 279 248 258T214 212L54 0H-33L243 359L111 695H196Z" />
<glyph unicode="Y" glyph-name="Y" d="M178 695L253 476Q266 435 274 407T292 342H294Q306 361 316 377T337 409T359 441T383 476L539 695H626L317 261L267 0H187L238 262L100 695H178Z" />
<glyph unicode="Z" glyph-name="Z" d="M14 59L465 630H138L151 695H579L567 636L114 65H464L452 0H3L14 59Z" />
<glyph unicode="[" glyph-name="bracketleft" d="M263 752H538L526 694H324L169 -106H371L360 -164H86L263 752Z" />
<glyph unicode="\" glyph-name="backslash" d="M162 738H232L438 -112H368L162 738Z" />
<glyph unicode="]" glyph-name="bracketright" d="M42 -106H244L399 694H197L208 752H483L305 -164H31L42 -106Z" />
<glyph unicode="^" glyph-name="asciicircum" d="M321 695H404L531 361H457L352 630L142 361H64L321 695Z" />
<glyph unicode="_" glyph-name="underscore" d="M-78 -165H471L458 -230H-91L-78 -165Z" />
<glyph unicode="`" glyph-name="grave" d="M333 748L430 604L390 571L281 707L333 748Z" />
<glyph unicode="a" glyph-name="a" d="M366 74Q348 57 327 42T281 16T231 -3T179 -10Q116 -10 79 28T42 144Q42 225 63 291T120 403T206 475T314 500Q354 500 386 489T443 461L452 490H517L422 0H358L366 74ZM422 403Q400 417 373 427T312 438Q270 438 235 416T174
354T135 264T121 155Q121 105 142 80T203 54Q222 54 243 61T286 81T331 113T374 155L422 403Z" />
<glyph unicode="b" glyph-name="b" d="M176 738H253L219 562Q216 546 213 528T205 491T196 455T188 421L189 420Q205 435 225 450T269 475T318 493T370 500Q433 500 470 461T508 346Q508 265 487 199T430 87T343 15T235 -10Q195 -10 163 1T107 29L98 0H33L176
738ZM127 87Q150 74 177 63T237 52Q280 52 315 75T375 136T415 226T429 335Q429 385 408 410T347 436Q327 436 306 429T263 409T219 377T176 335L127 87Z" />
<glyph unicode="c" glyph-name="c" d="M430 10Q400 2 361 -4T276 -10Q169 -10 120 29T70 155Q70 177 72 198T79 247Q92 318 118 366T181 444T266 487T368 500Q406 500 443 495T511 481L493 422Q465 429 433 433T365 438Q327 438 294 430T234 400T188 341T157 246Q152
223 150 204T148 165Q148 106 181 79T293 52Q334 52 368 57T429 69L430 10Z" />
<glyph unicode="d" glyph-name="d" d="M366 74Q348 57 327 42T281 16T231 -3T179 -10Q116 -10 79 28T42 144Q42 225 63 291T120 403T206 475T314 500Q353 500 384 490T438 465L439 466Q442 497 447 528T457 584L488 738H565L423 0H358L366 74ZM423 403Q400 417
373 427T312 438Q270 438 235 416T174 354T135 264T121 155Q121 105 142 80T203 54Q222 54 243 61T287 81T332 113T375 155L423 403Z" />
<glyph unicode="e" glyph-name="e" d="M428 18Q393 6 346 -2T247 -10Q153 -10 106 28T58 153Q58 175 60 197T67 247Q80 319 106 368T167 448T245 491T333 504Q411 504 453 471T495 381Q495 339 475 309T413 259T303 230T140 221Q138 204 137 190T135 159Q135 102
165 77T259 52Q306 52 349 59T424 77L428 18ZM150 274Q220 274 271 279T355 295T404 326T420 373Q420 404 398 423T325 443Q299 443 273 436T223 409T181 357T150 274Z" />
<glyph unicode="f" glyph-name="f" d="M249 -53Q230 -147 177 -185T40 -224Q13 -224 -13 -221T-63 -213L-49 -154Q-29 -159 -6 -161T41 -163Q66 -163 87 -157T125 -138T152 -103T171 -48L264 430H87L99 490H276L293 580Q312 675 365 713T502 752Q529 752 555 749T604
740L591 681Q571 686 548 688T501 690Q475 690 454 685T417 666T389 630T371 575L354 490H543L532 430H343L249 -53Z" />
<glyph unicode="g" glyph-name="g" d="M422 403Q400 417 373 427T312 438Q270 438 235 416T174 354T135 264T121 155Q121 105 142 80T203 54Q222 54 243 61T286 81T331 113T374 155L422 403ZM418 -24Q407 -77 385 -115T330 -177T250 -212T143 -223Q106 -223 72
-219T6 -207L17 -147Q48 -154 80 -158T147 -162Q230 -162 278 -131T342 -20Q347 6 351 25T362 69L361 70Q345 54 325 40T281 15T231 -3T179 -10Q116 -10 79 28T42 144Q42 225 63 291T120 403T206 475T314 500Q354 500 386 489T443 461L452 490H517L418 -24Z" />
<glyph unicode="h" glyph-name="h" d="M176 738H253L219 562Q216 546 213 528T205 492T196 455T188 421L189 420Q206 436 227 450T271 476T320 493T374 500Q436 500 466 471T496 384Q496 370 494 356T489 326L426 0H347L409 321Q411 332 413 343T415 368Q415 403
399 419T347 436Q307 436 264 410T176 335L110 0H33L176 738Z" />
<glyph unicode="i" glyph-name="i" d="M28 60H228L300 430H105L117 490H390L307 60H457L445 0H17L28 60ZM439 675Q439 670 439 664T436 653Q433 639 429 629T417 613T399 605T372 602Q346 602 334 609T322 632Q322 639 322 644T325 656Q328 670 332 679T343 695T362
703T388 706Q414 706 426 699T439 675Z" />
<glyph unicode="j" glyph-name="j" d="M125 430L136 490H455L352 -42Q343 -88 325 -122T278 -179T206 -213T103 -224Q68 -224 35 -221T-25 -212L-12 -152Q11 -157 41 -160T103 -163Q146 -163 176 -155T226 -130T257 -91T275 -35L365 430H125ZM504 675Q504 670
504 664T502 653Q498 639 494 629T482 613T464 605T437 602Q412 602 400 609T388 632Q388 639 388 644T390 656Q393 670 397 679T409 695T428 703T454 706Q480 706 492 699T504 675Z" />
<glyph unicode="k" glyph-name="k" d="M183 738H261L172 282L450 490H552L254 266L466 0H372L168 258L118 0H40L183 738Z" />
<glyph unicode="l" glyph-name="l" d="M451 60L440 0H181L312 678H142L154 738H402L271 60H451Z" />
<glyph unicode="m" glyph-name="m" d="M88 490H149L142 429Q166 458 194 479T259 500Q293 500 312 480T335 426Q359 456 390 478T458 500Q497 500 518 477T540 411Q540 400 539 390T535 364L465 0H392L461 356Q463 369 464 377T465 395Q465 414 458 425T435 436Q412
436 386 411T331 343L265 0H193L261 356Q263 369 264 378T265 395Q265 414 258 425T235 436Q212 436 186 410T131 342L65 0H-7L88 490Z" />
<glyph unicode="n" glyph-name="n" d="M127 490H192L184 416Q201 433 223 448T269 474T319 493T374 500Q436 500 466 471T496 384Q496 370 494 356T489 326L426 0H347L409 321Q411 332 413 343T415 368Q415 403 399 419T347 436Q307 436 264 410T176 335L110 0H33L127
490Z" />
<glyph unicode="o" glyph-name="o" d="M503 340Q503 319 501 297T493 246Q480 175 457 126T400 45T323 0T229 -14Q186 -14 153 -5T96 23T61 74T48 151Q48 170 50 193T58 244Q71 316 94 365T152 445T229 490T324 504Q366 504 399 496T455 468T490 417T503 340ZM424
335Q424 396 396 419T317 442Q283 442 255 433T204 402T165 341T136 245Q131 220 129 197T127 155Q127 94 155 71T236 48Q269 48 297 56T347 88T386 149T415 245Q420 270 422 293T424 335Z" />
<glyph unicode="p" glyph-name="p" d="M127 490H192L184 417Q202 433 223 448T269 475T318 493T370 500Q433 500 470 462T508 346Q508 265 487 200T430 88T343 16T235 -9Q197 -9 166 1T112 26L111 25Q108 -7 103 -37T93 -94L69 -214H-8L127 490ZM127 88Q150 74
177 63T237 52Q280 52 315 75T375 136T415 226T429 335Q429 385 408 410T347 436Q327 436 306 429T263 409T219 377T176 335L127 88Z" />
<glyph unicode="q" glyph-name="q" d="M331 -72Q334 -56 338 -38T346 -1T354 35T363 69L362 70Q346 54 325 40T281 15T232 -3T180 -10Q117 -10 80 29T43 144Q43 226 64 291T121 403T207 475T315 500Q355 500 387 489T444 462L453 490H518L381 -214H303L331 -72ZM423
403Q400 417 373 427T313 438Q271 438 236 416T175 354T135 264T121 155Q121 105 142 80T204 54Q223 54 244 61T287 81T332 113T375 155L423 403Z" />
<glyph unicode="r" glyph-name="r" d="M295 403Q338 450 384 476T476 503Q500 503 520 499T559 486L541 411Q522 422 503 427T457 433Q420 433 378 407T286 322L235 60H403L392 0H9L21 60H157L229 430H98L109 490H306L295 403Z" />
<glyph unicode="s" glyph-name="s" d="M55 71Q91 61 134 55T220 49Q265 49 295 56T343 73T369 99T377 132Q377 148 372 159T352 180T313 200T249 223Q209 235 182 248T137 276T113 310T105 355Q105 385 117 411T157 458T227 489T330 500Q374 500 412 495T480 481L466
423Q436 431 400 436T323 441Q283 441 256 435T212 419T189 394T182 364Q182 350 187 340T205 320T242 301T302 280Q345 266 374 253T420 223T444 188T452 142Q452 109 440 82T398 34T324 2T213 -10Q168 -10 123 -4T42 12L55 71Z" />
<glyph unicode="t" glyph-name="t" d="M233 490L265 655L346 667L311 490H541L529 430H299L245 153Q243 141 242 133T240 116Q240 83 263 68T339 53Q379 53 409 59T455 71V13Q436 7 400 0T315 -8Q234 -8 198 19T161 101Q161 110 162 122T167 151L221 430H81L93 490H233Z" />
<glyph unicode="u" glyph-name="u" d="M366 74Q348 57 327 42T282 16T232 -3T176 -10Q115 -10 85 19T55 107Q55 120 56 134T61 164L124 490H203L141 170Q139 159 137 147T135 122Q135 87 151 71T204 54Q243 54 286 80T375 155L440 490H518L423 0H358L366 74Z" />
<glyph unicode="v" glyph-name="v" d="M157 490L209 222Q214 198 217 178T224 139T230 99T236 55H237Q249 79 260 99T281 139T303 179T328 222L486 490H566L281 0H174L79 490H157Z" />
<glyph unicode="w" glyph-name="w" d="M130 490L126 203Q125 166 124 133T119 61H121Q131 84 139 105T157 150L256 383H348L356 150Q356 127 356 108T357 61H360Q372 100 383 133T409 203L517 490H591L402 0H300L292 233Q291 254 291 274T290 318H288Q279 295
271 276T254 233L155 0H54L55 490H130Z" />
<glyph unicode="x" glyph-name="x" d="M173 490L284 295L286 294Q299 309 311 323T339 353L467 490H558L326 248L470 0H382L264 207L262 209Q249 193 236 178T208 146L77 0H-14L221 253L87 490H173Z" />
<glyph unicode="y" glyph-name="y" d="M160 490L212 231Q216 208 219 188T226 148T231 108T238 65H239Q251 89 262 109T283 149T305 189T329 231L482 490H566L232 -71Q204 -117 181 -146T132 -193T80 -216T19 -223Q1 -223 -17 -221T-50 -215L-38 -155Q-23 -158
-8 -160T22 -162Q40 -162 57 -158T90 -144T122 -114T158 -65L198 0H176L79 490H160Z" />
<glyph unicode="z" glyph-name="z" d="M28 51L401 428H120L132 490H523L513 442L138 62H447L436 0H18L28 51Z" />
<glyph unicode="{" glyph-name="braceleft" d="M388 -162Q382 -163 374 -163T357 -164Q276 -164 235 -137T193 -47Q193 -35 194 -24T198 1L223 132Q227 150 227 168Q227 186 220 202T195 231T151 254T85 270L98 331Q146 338 180 351T237 383T272 424T291 477L314
598Q322 635 336 663T376 711T438 741T529 752Q538 752 548 752T564 750L554 694Q506 694 475 687T426 665T398 631T384 585L361 465Q355 431 341 405T307 358T257 324T192 299Q252 284 276 253T301 180Q301 168 300 156T295 126L271 -1Q269 -11 268 -19T267 -36Q267
-55 274 -68T296 -90T337 -102T399 -106L388 -162Z" />
<glyph unicode="|" glyph-name="bar" d="M332 738H409L225 -214H147L332 738Z" />
<glyph unicode="}" glyph-name="braceright" d="M181 750Q186 751 194 751T211 752Q292 752 333 725T375 635Q375 622 374 611T370 587L348 469Q344 451 344 433Q344 397 376 370T486 331L474 270Q425 262 391 249T335 218T299 177T281 124L254 -10Q247 -46 233
-75T193 -123T130 -153T39 -164Q30 -164 20 -164T4 -162L15 -106Q62 -106 93 -99T143 -78T170 -43T184 3L210 136Q223 204 264 242T379 302Q319 317 295 348T270 421Q270 433 271 445T276 474L297 589Q301 607 301 624Q301 643 294 656T272 677T231 690T170 694L181
750Z" />
<glyph unicode="~" glyph-name="asciitilde" d="M34 199Q40 237 54 271T88 330T137 371T198 386Q225 386 244 376T277 351T301 319T322 286T345 261T375 251Q392 251 407 260T435 286T457 326T472 375H532Q526 337 513 303T478 244T430 203T369 188Q341 188 323
198T290 223T266 255T245 288T221 313T191 323Q174 323 159 314T131 288T109 248T94 199H34Z" />
<glyph unicode="&#xa0;" glyph-name="uni00A0" />
<glyph unicode="&#xa1;" glyph-name="exclamdown" d="M249 288H318L229 -214H143L249 288ZM382 503Q382 497 382 491T379 479Q376 463 372 453T360 436T341 428T312 425Q284 425 272 433T260 462Q260 468 261 474T263 486Q266 502 270 512T282 529T301 537T330
539Q358 539 370 531T382 503Z" />
<glyph unicode="&#xa2;" glyph-name="cent" d="M225 92Q148 105 116 145T84 255Q84 273 86 290T92 327Q104 392 128 436T190 508T278 547T390 559L424 654H481L446 555Q470 552 491 548T529 538L513 478Q494 483 472 487T424 494L302 151Q336 149 373 154T448
169L451 109Q432 104 411 100T367 93T322 89T279 88L245 -10H188L225 92ZM368 496Q328 496 295 487T237 459T194 406T168 326Q165 311 164 297T162 266Q162 219 181 192T247 155L368 496Z" />
<glyph unicode="&#xa3;" glyph-name="sterling" d="M264 302Q257 234 230 175T160 64H451L439 0H5L17 64H78Q123 118 151 178T187 302H90L102 365H189Q189 393 186 416T183 465Q183 512 199 547T246 607T319 644T415 656Q457 656 493 652T555 640L540 579Q512
586 479 589T410 593Q376 593 349 585T301 562T270 522T259 466Q259 441 261 418T265 365H473L461 302H264Z" />
<glyph unicode="&#xa4;" glyph-name="currency" d="M105 198Q99 211 96 229T92 271Q92 333 110 382T153 463L83 559L134 598L201 508Q226 526 257 537T330 549Q372 549 400 537T443 509L530 588L569 543L479 461Q485 446 488 427T492 388Q492 324 474 274T430
194L500 98L449 59L382 150Q359 133 328 121T255 109Q216 109 188 119T142 150L53 69L14 114L105 198ZM428 380Q428 437 401 464T321 491Q284 491 254 476T203 432T169 365T157 278Q157 219 186 194T264 168Q301 168 331 183T382 226T416 293T428 380Z" />
<glyph unicode="&#xa5;" glyph-name="yen" d="M208 101H57L68 158H219L236 242H84L95 298H237L125 644H205L258 481Q264 462 268 447T277 416T286 387T296 355H297Q308 373 318 388T338 418T358 448T381 481L492 644H579L334 298H476L465 242H314L297 158H448L437
101H286L267 0H189L208 101Z" />
<glyph unicode="&#xa6;" glyph-name="brokenbar" d="M332 738H409L333 345H256L332 738ZM220 163H298L225 -214H147L220 163Z" />
<glyph unicode="&#xa7;" glyph-name="section" d="M61 -46Q89 -53 122 -57T187 -62Q225 -62 250 -56T291 -40T314 -15T322 15Q322 31 315 43T293 67T256 94T202 125Q161 146 135 165T92 203T70 240T63 284Q63 337 96 373T184 437Q172 452 166 469T159 512Q159
544 172 570T212 616T281 646T377 657Q412 657 448 652T512 639L496 578Q468 585 435 589T370 594Q332 594 307 588T266 572T243 548T235 517Q235 502 242 490T264 465T301 439T355 408Q396 386 422 367T465 330T487 292T494 248Q494 197 461 160T373 96Q385 80
391 63T398 21Q398 -12 385 -38T345 -84T276 -113T180 -124Q145 -124 109 -119T45 -107L61 -46ZM416 239Q416 253 411 265T392 291T357 319T299 353Q279 365 263 375T230 397Q186 378 164 352T141 294Q141 279 146 267T165 241T200 213T258 179Q279 167 295 157T327
135Q372 155 394 181T416 239Z" />
<glyph unicode="&#xa8;" glyph-name="dieresis" d="M308 673Q308 664 305 651Q300 626 288 616T249 605Q204 605 204 635Q204 643 207 657Q212 682 225 693T264 704Q308 704 308 673ZM502 673Q502 664 499 651Q495 626 482 616T443 605Q399 605 399 635Q399 643
401 657Q406 682 419 693T459 704Q502 704 502 673Z" />
<glyph unicode="&#xa9;" glyph-name="copyright" d="M356 139Q334 131 311 127T262 122Q198 122 170 155T142 251Q142 286 150 332T180 421T240 493T339 522Q363 522 385 518T426 507L412 455Q375 468 337 468Q296 468 271 445T231 389T211 321T206 260Q206 213
223 195T278 177Q298 177 316 180T355 191L356 139ZM567 434Q567 350 548 270T487 127T381 26T228 -13Q179 -13 139 1T71 42T28 112T13 211Q13 295 32 375T93 517T199 618T352 657Q401 657 441 643T509 602T552 532T567 434ZM506 430Q506 513 467 557T346 601Q272
601 221 567T137 478T89 354T74 214Q74 131 113 87T234 43Q308 43 359 77T443 167T491 291T506 430Z" />
<glyph unicode="&#xaa;" glyph-name="ordfeminine" d="M126 225H431L419 172H115L126 225ZM391 349Q366 326 330 308T252 289Q205 289 175 318T145 403Q145 457 160 503T202 584T267 637T352 656Q381 656 405 648T446 628L453 648H504L436 297H385L391 349ZM431
581Q414 591 394 599T350 608Q319 608 293 592T247 549T218 487T208 412Q208 376 225 358T272 339Q303 339 336 359T396 412L431 581Z" />
<glyph unicode="&#xab;" glyph-name="guillemotleft" d="M268 245L460 459L514 427L356 240L440 57L377 32L268 245ZM63 246L260 468L314 435L153 241L241 49L179 23L63 246Z" />
<glyph unicode="&#xac;" glyph-name="logicalnot" d="M78 317H489L453 128H386L412 256H66L78 317Z" />
<glyph unicode="&#xad;" glyph-name="uni00AD" d="M127 297H442L429 230H114L127 297Z" />
<glyph unicode="&#xae;" glyph-name="registered" d="M520 568Q520 527 506 487T465 415T395 363T297 343Q223 343 181 380T139 484Q139 525 152 565T194 637T264 689T362 709Q436 709 478 672T520 568ZM476 567Q476 616 448 643T357 671Q311 671 278 655T224
613T193 554T183 485Q183 436 211 409T301 381Q348 381 381 397T435 439T466 498T476 567ZM276 632H350Q391 632 408 618T425 580Q425 550 405 533T357 512L400 422H354L315 509H293L276 422H235L276 632ZM329 539Q360 539 371 550T382 577Q382 587 375 593T344
599H311L299 539H329Z" />
<glyph unicode="&#xaf;" glyph-name="macron" d="M230 680H488L477 621H219L230 680Z" />
<glyph unicode="&#xb0;" glyph-name="degree" d="M481 521Q481 486 469 457T434 408T381 375T314 363Q247 363 210 398T173 500Q173 534 185 563T220 613T273 646T339 657Q406 657 443 623T481 521ZM419 517Q419 559 398 582T335 605Q313 605 295 597T263 576T243
544T235 504Q235 462 256 439T319 416Q341 416 359 423T391 444T411 476T419 517Z" />
<glyph unicode="&#xb1;" glyph-name="plusminus" d="M87 389H269L305 574H371L335 389H518L506 328H323L287 142H221L258 328H76L87 389ZM24 60H455L443 0H12L24 60Z" />
<glyph unicode="&#xb2;" glyph-name="two.superior" d="M169 395L286 480Q311 498 331 513T366 544T389 573T397 604Q397 626 382 638T332 650Q309 650 287 647T241 638L239 688Q293 702 353 702Q413 702 441 680T470 617Q470 594 461 574T435 535T395 498T344
461L258 401H439L429 348H160L169 395Z" />
<glyph unicode="&#xb3;" glyph-name="three.superior" d="M177 400Q199 395 223 393T267 391Q324 391 354 407T384 455Q384 467 378 476T357 492T317 502T253 506L262 553Q304 553 331 558T375 572T398 592T405 615Q405 635 389 644T335 653Q314 653 292 650T245
642L242 689Q270 695 297 698T349 702Q415 702 443 681T471 624Q471 605 464 590T443 563T412 543T375 531Q412 526 431 507T451 457Q451 405 405 374T271 342Q245 342 219 344T167 352L177 400Z" />
<glyph unicode="&#xb4;" glyph-name="acute" d="M398 742L442 694L301 572L268 608L398 742Z" />
<glyph unicode="&#xb5;" glyph-name="mu" d="M124 490H203L141 170Q139 159 137 147T135 122Q135 87 151 71T204 54Q243 54 286 80T375 155L441 490H518L423 0H358L366 73Q349 57 330 42T288 16T242 -2T192 -9Q160 -9 141 0T110 28L109 27Q105 -4 101 -34T90 -94L67
-214H-11L124 490Z" />
<glyph unicode="&#xb6;" glyph-name="paragraph" d="M248 222Q156 225 117 259T78 364Q78 389 82 419T92 479Q104 542 123 583T172 650T248 685T361 695H618L609 648H526L368 -164H312L470 648H387L229 -164H173L248 222Z" />
<glyph unicode="&#xb7;" glyph-name="periodcentered" d="M341 281Q341 275 341 269T338 256Q335 239 331 229T318 212T299 203T269 200Q240 200 228 209T215 239Q215 245 215 251T217 264Q221 281 225 291T237 308T257 317T286 320Q315 320 328 311T341 281Z" />
<glyph unicode="&#xb8;" glyph-name="cedilla" d="M180 0H232L216 -54Q259 -55 277 -73T296 -121Q296 -142 287 -160T260 -192T217 -213T159 -221Q142 -221 126 -220T94 -214L105 -171Q119 -174 132 -175T163 -177Q202 -177 218 -161T234 -126Q234 -110 221 -102T175
-93H151L180 0Z" />
<glyph unicode="&#xb9;" glyph-name="one.superior" d="M161 399H284L329 632L210 598L200 641L352 696H405L348 399H461L451 348H151L161 399Z" />
<glyph unicode="&#xba;" glyph-name="ordmasculine" d="M121 225H422L411 172H110L121 225ZM497 538Q497 522 496 507T490 471Q480 419 462 384T417 326T358 293T284 283Q216 283 179 311T141 402Q141 417 142 433T147 469Q157 521 175 556T220 614T280 646T354
656Q422 656 459 629T497 538ZM434 532Q434 575 411 590T348 606Q322 606 300 600T261 578T230 536T209 469Q205 452 204 437T202 408Q202 366 226 350T291 333Q316 333 337 339T376 361T407 403T428 470Q431 487 432 503T434 532Z" />
<glyph unicode="&#xbb;" glyph-name="guillemotright" d="M282 244L91 30L36 62L194 248L111 432L173 457L282 244ZM487 243L291 21L237 54L398 247L309 440L372 466L487 243Z" />
<glyph unicode="&#xbc;" glyph-name="onequarter" d="M515 664L553 639L62 -19L24 5L515 664ZM182 580L121 549L104 585L204 644H255L195 331H134L182 580ZM250 112L406 313H488L449 107H486L477 61H440L428 0H372L383 61H241L250 112ZM392 107L423 266L300 107H392Z" />
<glyph unicode="&#xbd;" glyph-name="onehalf" d="M755 664L793 639L302 -19L264 5L755 664ZM182 580L121 549L104 585L204 644H255L195 331H134L182 580ZM285 47L362 121Q397 153 417 179T438 235Q438 270 398 270Q384 270 370 268T342 260L341 306Q360 312 381
315T423 319Q463 319 484 300T506 247Q506 207 480 172T415 104L355 51H474L464 0H277L285 47Z" />
<glyph unicode="&#xbe;" glyph-name="threequarters" d="M521 664L559 639L68 -19L30 5L521 664ZM250 112L406 313H488L449 107H486L477 61H440L428 0H372L383 61H241L250 112ZM392 107L423 266L300 107H392ZM68 378Q94 372 121 372Q156 372 177 387T198 430Q198
452 181 462T121 473L130 517Q174 517 196 532T219 573Q219 603 177 603Q165 603 152 602T123 595V640Q142 645 160 647T195 650Q240 650 261 631T282 583Q282 566 276 553T260 529T237 511T212 498Q236 493 248 475T261 432Q261 386 226 356T131 325Q112 325 93
327T59 333L68 378Z" />
<glyph unicode="&#xbf;" glyph-name="questiondown" d="M365 239Q360 214 353 193T331 153T292 113T230 66Q199 45 177 27T140 -7T117 -41T110 -80Q110 -119 137 -139T229 -160Q271 -160 309 -154T390 -136L395 -195Q350 -207 305 -214T208 -222Q117 -222 73 -189T28
-94Q28 -63 38 -38T67 11T114 56T180 105Q208 126 228 142T261 174T282 207T294 245L302 289H373L365 239ZM436 503Q436 497 436 491T433 479Q430 463 426 453T414 436T395 428T366 425Q338 425 326 433T314 462Q314 468 315 474T317 486Q321 502 325 512T336 529T355
537T384 539Q412 539 424 531T436 503Z" />
<glyph unicode="&#xc0;" glyph-name="Agrave" d="M305 695H420L488 0H408L388 192H142L48 0H-33L305 695ZM387 255L370 444Q365 498 361 544T352 642H351Q339 616 329 592T307 545T284 497T258 444L168 255H387ZM543 899L699 808L673 763L511 842L543 899Z" />
<glyph unicode="&#xc1;" glyph-name="Aacute" d="M305 695H420L488 0H408L388 192H142L48 0H-33L305 695ZM387 255L370 444Q365 498 361 544T352 642H351Q339 616 329 592T307 545T284 497T258 444L168 255H387ZM480 893L503 836L330 764L312 808L480 893Z" />
<glyph unicode="&#xc2;" glyph-name="Acircumflex" d="M305 695H420L488 0H408L388 192H142L48 0H-33L305 695ZM387 255L370 444Q365 498 361 544T352 642H351Q339 616 329 592T307 545T284 497T258 444L168 255H387ZM647 895L766 811L735 766L637 827L518 766L497
811L647 895Z" />
<glyph unicode="&#xc3;" glyph-name="Atilde" d="M305 695H420L488 0H408L388 192H142L48 0H-33L305 695ZM387 255L370 444Q365 498 361 544T352 642H351Q339 616 329 592T307 545T284 497T258 444L168 255H387ZM478 812Q500 838 526 854T587 870Q605 870 619
865T646 852T670 839T696 833Q713 833 730 841T764 868L794 834Q773 808 747 792T686 776Q667 776 653 782T627 794T603 807T577 813Q559 813 542 805T509 778L478 812Z" />
<glyph unicode="&#xc4;" glyph-name="Adieresis" d="M305 695H420L488 0H408L388 192H142L48 0H-33L305 695ZM387 255L370 444Q365 498 361 544T352 642H351Q339 616 329 592T307 545T284 497T258 444L168 255H387ZM578 844Q578 834 575 820Q572 808 569 799T559
785T543 778T519 775Q474 775 474 806Q474 816 478 830Q480 842 484 851T494 865T509 872T533 875Q578 875 578 844ZM807 844Q807 834 803 820Q801 808 797 799T787 785T771 778T748 775Q703 775 703 806Q703 816 706 830Q709 842 713 851T723 865T738 872T762
875Q807 875 807 844Z" />
<glyph unicode="&#xc5;" glyph-name="Aring" d="M305 695H420L488 0H408L388 192H142L48 0H-33L305 695ZM387 255L370 444Q365 498 361 544T352 642H351Q339 616 329 592T307 545T284 497T258 444L168 255H387ZM735 835Q735 813 727 794T705 761T671 739T629 731Q608
731 590 737T560 756T540 785T532 825Q532 848 540 866T562 899T595 921T638 929Q679 929 707 904T735 835ZM686 833Q686 859 673 872T636 885Q611 885 596 870T581 827Q581 802 594 789T631 775Q655 775 670 790T686 833Z" />
<glyph unicode="&#xc6;" glyph-name="AE" d="M293 695H619L606 632H439L393 391H547L536 329H381L330 63H496L484 0H238L275 194H126L33 0H-47L293 695ZM287 256L360 634H338L154 256H287Z" />
<glyph unicode="&#xc7;" glyph-name="Ccedilla" d="M222 -6Q184 -1 154 12T102 48T70 107T59 191Q59 229 63 265T77 348Q97 455 131 524T211 633T310 690T426 706Q473 706 512 700T579 686L560 624Q535 631 499 636T422 642Q378 642 338 630T263 585T201 495T157
346Q148 304 144 269T140 197Q140 118 179 86T302 53Q338 53 378 58T449 73L452 12Q421 4 378 -3T289 -11H274L260 -54Q305 -55 324 -73T344 -122Q344 -142 335 -160T309 -192T265 -214T204 -222Q186 -222 169 -221T137 -215L148 -171Q162 -174 175 -175T206 -177Q247
-177 264 -161T281 -126Q281 -110 268 -102T220 -94H194L222 -6Z" />
<glyph unicode="&#xc8;" glyph-name="Egrave" d="M178 695H565L552 632H245L198 391H483L471 329H187L135 63H442L430 0H43L178 695ZM540 899L696 808L670 763L508 842L540 899Z" />
<glyph unicode="&#xc9;" glyph-name="Eacute" d="M178 695H565L552 632H245L198 391H483L471 329H187L135 63H442L430 0H43L178 695ZM493 893L516 836L343 764L325 808L493 893Z" />
<glyph unicode="&#xca;" glyph-name="Ecircumflex" d="M178 695H565L552 632H245L198 391H483L471 329H187L135 63H442L430 0H43L178 695ZM403 895L522 811L491 766L393 827L274 766L253 811L403 895Z" />
<glyph unicode="&#xcb;" glyph-name="Edieresis" d="M178 695H565L552 632H245L198 391H483L471 329H187L135 63H442L430 0H43L178 695ZM328 844Q328 834 325 820Q322 808 319 799T309 785T293 778T269 775Q224 775 224 806Q224 816 228 830Q230 842 234 851T244
865T259 872T283 875Q328 875 328 844ZM557 844Q557 834 553 820Q551 808 547 799T537 785T521 778T498 775Q453 775 453 806Q453 816 456 830Q459 842 463 851T473 865T488 872T512 875Q557 875 557 844Z" />
<glyph unicode="&#xcc;" glyph-name="Igrave" d="M34 65H200L310 630H145L158 695H569L556 630H390L280 65H444L432 0H22L34 65ZM546 899L702 808L676 763L514 842L546 899Z" />
<glyph unicode="&#xcd;" glyph-name="Iacute" d="M34 65H200L310 630H145L158 695H569L556 630H390L280 65H444L432 0H22L34 65ZM476 893L499 836L326 764L308 808L476 893Z" />
<glyph unicode="&#xce;" glyph-name="Icircumflex" d="M34 65H200L310 630H145L158 695H569L556 630H390L280 65H444L432 0H22L34 65ZM652 895L771 811L740 766L642 827L523 766L502 811L652 895Z" />
<glyph unicode="&#xcf;" glyph-name="Idieresis" d="M34 65H200L310 630H145L158 695H569L556 630H390L280 65H444L432 0H22L34 65ZM579 844Q579 834 576 820Q573 808 570 799T560 785T544 778T520 775Q475 775 475 806Q475 816 479 830Q481 842 485 851T495 865T510
872T534 875Q579 875 579 844ZM808 844Q808 834 804 820Q802 808 798 799T788 785T772 778T749 775Q704 775 704 806Q704 816 707 830Q710 842 714 851T724 865T739 872T763 875Q808 875 808 844Z" />
<glyph unicode="&#xd0;" glyph-name="Eth" d="M98 336H28L39 397H110L169 695H335Q386 695 425 686T492 654T533 593T548 499Q548 466 544 430T531 350Q512 250 482 183T409 76T312 18T191 0H34L98 336ZM197 63Q244 63 283 76T354 122T410 211T450 352Q454 371
457 390T462 427T466 461T467 491Q467 532 458 559T430 602T384 625T323 632H236L190 397H320L309 336H178L125 63H197Z" />
<glyph unicode="&#xd1;" glyph-name="Ntilde" d="M148 695H251L356 260Q361 237 366 216T375 175T384 133T394 90H398Q404 138 410 182T425 273L507 695H578L443 0H340L235 435Q229 458 224 478T215 519T206 561T197 605H193Q187 557 181 513T165 422L84 0H13L148
695ZM481 812Q503 838 529 854T590 870Q608 870 622 865T649 852T673 839T699 833Q716 833 733 841T767 868L797 834Q776 808 750 792T689 776Q670 776 656 782T630 794T606 807T580 813Q562 813 545 805T512 778L481 812Z" />
<glyph unicode="&#xd2;" glyph-name="Ograve" d="M547 509Q547 474 542 433T528 348Q509 247 484 179T423 67T340 5T227 -14Q130 -14 86 33T42 186Q42 221 47 262T60 347Q80 448 105 516T166 628T249 690T362 709Q458 709 502 662T547 509ZM468 504Q468 579 442
612T352 645Q309 645 277 630T220 580T176 487T140 345Q136 326 133 305T127 264T123 225T121 191Q121 116 147 83T236 50Q279 50 311 65T368 115T413 208T449 350Q453 369 456 390T462 431T466 470T468 504ZM527 899L683 808L657 763L495 842L527 899Z" />
<glyph unicode="&#xd3;" glyph-name="Oacute" d="M547 509Q547 474 542 433T528 348Q509 247 484 179T423 67T340 5T227 -14Q130 -14 86 33T42 186Q42 221 47 262T60 347Q80 448 105 516T166 628T249 690T362 709Q458 709 502 662T547 509ZM468 504Q468 579 442
612T352 645Q309 645 277 630T220 580T176 487T140 345Q136 326 133 305T127 264T123 225T121 191Q121 116 147 83T236 50Q279 50 311 65T368 115T413 208T449 350Q453 369 456 390T462 431T466 470T468 504ZM496 893L519 836L346 764L328 808L496 893Z" />
<glyph unicode="&#xd4;" glyph-name="Ocircumflex" d="M547 509Q547 474 542 433T528 348Q509 247 484 179T423 67T340 5T227 -14Q130 -14 86 33T42 186Q42 221 47 262T60 347Q80 448 105 516T166 628T249 690T362 709Q458 709 502 662T547 509ZM468 504Q468 579
442 612T352 645Q309 645 277 630T220 580T176 487T140 345Q136 326 133 305T127 264T123 225T121 191Q121 116 147 83T236 50Q279 50 311 65T368 115T413 208T449 350Q453 369 456 390T462 431T466 470T468 504ZM399 895L518 811L487 766L389 827L270 766L249
811L399 895Z" />
<glyph unicode="&#xd5;" glyph-name="Otilde" d="M547 509Q547 474 542 433T528 348Q509 247 484 179T423 67T340 5T227 -14Q130 -14 86 33T42 186Q42 221 47 262T60 347Q80 448 105 516T166 628T249 690T362 709Q458 709 502 662T547 509ZM468 504Q468 579 442
612T352 645Q309 645 277 630T220 580T176 487T140 345Q136 326 133 305T127 264T123 225T121 191Q121 116 147 83T236 50Q279 50 311 65T368 115T413 208T449 350Q453 369 456 390T462 431T466 470T468 504ZM478 812Q500 838 526 854T587 870Q605 870 619 865T646
852T670 839T696 833Q713 833 730 841T764 868L794 834Q773 808 747 792T686 776Q667 776 653 782T627 794T603 807T577 813Q559 813 542 805T509 778L478 812Z" />
<glyph unicode="&#xd6;" glyph-name="Odieresis" d="M547 509Q547 474 542 433T528 348Q509 247 484 179T423 67T340 5T227 -14Q130 -14 86 33T42 186Q42 221 47 262T60 347Q80 448 105 516T166 628T249 690T362 709Q458 709 502 662T547 509ZM468 504Q468 579
442 612T352 645Q309 645 277 630T220 580T176 487T140 345Q136 326 133 305T127 264T123 225T121 191Q121 116 147 83T236 50Q279 50 311 65T368 115T413 208T449 350Q453 369 456 390T462 431T466 470T468 504ZM576 844Q576 834 573 820Q570 808 567 799T557
785T541 778T517 775Q472 775 472 806Q472 816 476 830Q478 842 482 851T492 865T507 872T531 875Q576 875 576 844ZM805 844Q805 834 801 820Q799 808 795 799T785 785T769 778T746 775Q701 775 701 806Q701 816 704 830Q707 842 711 851T721 865T736 872T760
875Q805 875 805 844Z" />
<glyph unicode="&#xd7;" glyph-name="multiply" d="M288 331L487 494L525 447L327 284L466 119L415 77L276 242L76 78L38 126L237 289L100 453L151 495L288 331Z" />
<glyph unicode="&#xd8;" glyph-name="Oslash" d="M74 50Q57 75 50 107T42 186Q42 221 47 262T60 347Q80 448 105 516T166 628T249 690T362 709Q398 709 425 703T472 682L534 781L584 754L515 645Q532 621 539 588T547 509Q547 474 542 434T528 348Q509 247 484
179T423 67T340 5T227 -14Q191 -14 164 -8T117 13L55 -85L5 -58L74 50ZM438 626Q422 638 402 644T353 650Q307 650 274 634T214 583T169 489T132 345Q124 305 119 264T113 191Q113 172 114 156T120 124L438 626ZM151 69Q167 57 187 51T236 45Q281 45 314 61T374
112T419 206T456 350Q464 390 470 431T476 504Q476 523 475 539T469 571L151 69Z" />
<glyph unicode="&#xd9;" glyph-name="Ugrave" d="M225 695L135 232Q130 210 128 191T125 154Q125 104 150 77T235 50Q277 50 306 61T355 96T389 155T411 237L501 695H580L489 230Q477 168 457 122T405 46T330 1T227 -14Q137 -14 92 26T46 149Q46 170 49 191T57
240L145 695H225ZM528 899L684 808L658 763L496 842L528 899Z" />
<glyph unicode="&#xda;" glyph-name="Uacute" d="M225 695L135 232Q130 210 128 191T125 154Q125 104 150 77T235 50Q277 50 306 61T355 96T389 155T411 237L501 695H580L489 230Q477 168 457 122T405 46T330 1T227 -14Q137 -14 92 26T46 149Q46 170 49 191T57
240L145 695H225ZM494 893L517 836L344 764L326 808L494 893Z" />
<glyph unicode="&#xdb;" glyph-name="Ucircumflex" d="M225 695L135 232Q130 210 128 191T125 154Q125 104 150 77T235 50Q277 50 306 61T355 96T389 155T411 237L501 695H580L489 230Q477 168 457 122T405 46T330 1T227 -14Q137 -14 92 26T46 149Q46 170 49 191T57
240L145 695H225ZM653 895L772 811L741 766L643 827L524 766L503 811L653 895Z" />
<glyph unicode="&#xdc;" glyph-name="Udieresis" d="M225 695L135 232Q130 210 128 191T125 154Q125 104 150 77T235 50Q277 50 306 61T355 96T389 155T411 237L501 695H580L489 230Q477 168 457 122T405 46T330 1T227 -14Q137 -14 92 26T46 149Q46 170 49 191T57
240L145 695H225ZM580 844Q580 834 577 820Q574 808 571 799T561 785T545 778T521 775Q476 775 476 806Q476 816 480 830Q482 842 486 851T496 865T511 872T535 875Q580 875 580 844ZM809 844Q809 834 805 820Q803 808 799 799T789 785T773 778T750 775Q705 775
705 806Q705 816 708 830Q711 842 715 851T725 865T740 872T764 875Q809 875 809 844Z" />
<glyph unicode="&#xdd;" glyph-name="Yacute" d="M178 695L253 476Q266 435 274 407T292 342H294Q306 361 316 377T337 409T359 441T383 476L539 695H626L317 261L267 0H187L238 262L100 695H178ZM497 893L520 836L347 764L329 808L497 893Z" />
<glyph unicode="&#xde;" glyph-name="Thorn" d="M168 695H248L219 549H330Q387 549 426 541T491 514T527 470T539 409Q539 287 465 222T252 157H142L113 0H33L168 695ZM259 219Q308 219 344 231T406 266T445 322T458 399Q458 445 428 466T322 487H207L155 219H259Z" />
<glyph unicode="&#xdf;" glyph-name="germandbls" d="M142 573Q152 622 170 655T217 710T284 742T371 752Q409 752 437 744T484 720T512 685T522 640Q522 615 515 595T494 556T463 520T424 485Q404 468 388 454T362 426T345 400T339 370Q339 358 342 348T353 327T375
307T410 285Q438 268 457 254T487 224T503 192T508 153Q508 117 494 87T454 36T388 3T300 -9Q266 -9 237 -5T183 7L197 65Q222 57 247 54T299 50Q364 50 397 77T431 143Q431 159 428 171T415 193T389 214T349 237Q324 251 307 264T280 292T266 321T261 355Q261
401 287 435T360 510Q381 529 396 544T422 572T438 599T444 630Q444 657 422 673T358 690Q299 690 266 663T220 570L99 -53Q80 -145 35 -184T-77 -224Q-100 -224 -120 -222T-159 -215L-146 -156Q-117 -163 -83 -163Q-41 -163 -16 -137T21 -48L142 573Z" />
<glyph unicode="&#xe0;" glyph-name="agrave" d="M366 74Q348 57 327 42T281 16T231 -3T179 -10Q116 -10 79 28T42 144Q42 225 63 291T120 403T206 475T314 500Q354 500 386 489T443 461L452 490H517L422 0H358L366 74ZM422 403Q400 417 373 427T312 438Q270 438
235 416T174 354T135 264T121 155Q121 105 142 80T203 54Q222 54 243 61T286 81T331 113T374 155L422 403ZM542 748L639 604L599 571L490 707L542 748Z" />
<glyph unicode="&#xe1;" glyph-name="aacute" d="M366 74Q348 57 327 42T281 16T231 -3T179 -10Q116 -10 79 28T42 144Q42 225 63 291T120 403T206 475T314 500Q354 500 386 489T443 461L452 490H517L422 0H358L366 74ZM422 403Q400 417 373 427T312 438Q270 438
235 416T174 354T135 264T121 155Q121 105 142 80T203 54Q222 54 243 61T286 81T331 113T374 155L422 403ZM432 742L476 694L335 572L302 608L432 742Z" />
<glyph unicode="&#xe2;" glyph-name="acircumflex" d="M366 74Q348 57 327 42T281 16T231 -3T179 -10Q116 -10 79 28T42 144Q42 225 63 291T120 403T206 475T314 500Q354 500 386 489T443 461L452 490H517L422 0H358L366 74ZM422 403Q400 417 373 427T312 438Q270
438 235 416T174 354T135 264T121 155Q121 105 142 80T203 54Q222 54 243 61T286 81T331 113T374 155L422 403ZM373 741L481 614L443 574L361 664L252 576L222 615L373 741Z" />
<glyph unicode="&#xe3;" glyph-name="atilde" d="M366 74Q348 57 327 42T281 16T231 -3T179 -10Q116 -10 79 28T42 144Q42 225 63 291T120 403T206 475T314 500Q354 500 386 489T443 461L452 490H517L422 0H358L366 74ZM422 403Q400 417 373 427T312 438Q270 438
235 416T174 354T135 264T121 155Q121 105 142 80T203 54Q222 54 243 61T286 81T331 113T374 155L422 403ZM199 626Q209 643 220 658T245 683T274 699T307 705Q326 705 340 697T366 679T389 661T412 653Q428 653 443 665T473 702L510 674Q500 656 488 642T463 617T434
601T402 595Q383 595 369 602T343 620T320 638T297 647Q281 647 266 634T236 598L199 626Z" />
<glyph unicode="&#xe4;" glyph-name="adieresis" d="M366 74Q348 57 327 42T281 16T231 -3T179 -10Q116 -10 79 28T42 144Q42 225 63 291T120 403T206 475T314 500Q354 500 386 489T443 461L452 490H517L422 0H358L366 74ZM422 403Q400 417 373 427T312 438Q270
438 235 416T174 354T135 264T121 155Q121 105 142 80T203 54Q222 54 243 61T286 81T331 113T374 155L422 403ZM311 673Q311 664 308 651Q303 626 291 616T252 605Q207 605 207 635Q207 643 210 657Q215 682 228 693T267 704Q311 704 311 673ZM505 673Q505 664
502 651Q498 626 485 616T446 605Q402 605 402 635Q402 643 404 657Q409 682 422 693T462 704Q505 704 505 673Z" />
<glyph unicode="&#xe5;" glyph-name="aring" d="M366 74Q348 57 327 42T281 16T231 -3T179 -10Q116 -10 79 28T42 144Q42 225 63 291T120 403T206 475T314 500Q354 500 386 489T443 461L452 490H517L422 0H358L366 74ZM422 403Q400 417 373 427T312 438Q270 438
235 416T174 354T135 264T121 155Q121 105 142 80T203 54Q222 54 243 61T286 81T331 113T374 155L422 403ZM462 664Q462 640 454 621T432 587T398 564T356 555Q312 555 285 582T258 653Q258 676 266 696T288 730T322 753T364 761Q408 761 435 735T462 664ZM413
663Q413 688 400 703T363 718Q338 718 323 701T307 654Q307 628 320 614T357 599Q382 599 397 615T413 663Z" />
<glyph unicode="&#xe6;" glyph-name="ae" d="M230 232Q176 232 143 221T92 193T68 155T62 113Q62 80 78 66T117 51Q143 51 167 65T218 111Q218 141 220 170T230 232ZM86 477Q117 488 149 493T212 499Q237 499 254 494T283 479T300 456T308 429Q330 461 361 482T443
503Q490 503 520 476T551 392Q551 357 539 328T497 277T419 243T300 230Q295 207 293 183T290 138Q290 92 307 72T368 52Q395 52 420 56T471 69L476 10Q446 1 416 -4T353 -10Q299 -10 272 7T234 53Q204 22 172 6T100 -10Q79 -10 60 -4T25 17T1 52T-9 104Q-9 137
1 170T39 229T115 272T239 288Q240 296 243 307T249 330T254 355T256 376Q256 409 241 423T195 438Q169 438 144 433T91 418L86 477ZM308 285Q359 285 392 293T445 314T473 345T481 384Q481 413 467 427T427 442Q404 442 386 430T353 396T327 346T308 285Z" />
<glyph unicode="&#xe7;" glyph-name="ccedilla" d="M220 -6Q140 4 105 43T70 155Q70 177 72 198T79 247Q92 318 118 366T181 444T266 487T368 500Q406 500 443 495T511 481L493 422Q465 429 433 433T365 438Q327 438 294 430T234 400T188 341T157 246Q152 223
150 204T148 165Q148 106 181 79T293 52Q334 52 368 57T429 69L430 10Q400 2 362 -3T281 -9H271L258 -54Q300 -55 319 -73T338 -121Q338 -142 329 -160T301 -192T258 -213T201 -221Q183 -221 167 -220T136 -214L147 -171Q161 -174 174 -175T204 -177Q244 -177 259
-161T275 -126Q275 -110 262 -102T216 -93H193L220 -6Z" />
<glyph unicode="&#xe8;" glyph-name="egrave" d="M428 18Q393 6 346 -2T247 -10Q153 -10 106 28T58 153Q58 175 60 197T67 247Q80 319 106 368T167 448T245 491T333 504Q411 504 453 471T495 381Q495 339 475 309T413 259T303 230T140 221Q138 204 137 190T135
159Q135 102 165 77T259 52Q306 52 349 59T424 77L428 18ZM150 274Q220 274 271 279T355 295T404 326T420 373Q420 404 398 423T325 443Q299 443 273 436T223 409T181 357T150 274ZM553 748L650 604L610 571L501 707L553 748Z" />
<glyph unicode="&#xe9;" glyph-name="eacute" d="M428 18Q393 6 346 -2T247 -10Q153 -10 106 28T58 153Q58 175 60 197T67 247Q80 319 106 368T167 448T245 491T333 504Q411 504 453 471T495 381Q495 339 475 309T413 259T303 230T140 221Q138 204 137 190T135
159Q135 102 165 77T259 52Q306 52 349 59T424 77L428 18ZM150 274Q220 274 271 279T355 295T404 326T420 373Q420 404 398 423T325 443Q299 443 273 436T223 409T181 357T150 274ZM428 742L472 694L331 572L298 608L428 742Z" />
<glyph unicode="&#xea;" glyph-name="ecircumflex" d="M428 18Q393 6 346 -2T247 -10Q153 -10 106 28T58 153Q58 175 60 197T67 247Q80 319 106 368T167 448T245 491T333 504Q411 504 453 471T495 381Q495 339 475 309T413 259T303 230T140 221Q138 204 137 190T135
159Q135 102 165 77T259 52Q306 52 349 59T424 77L428 18ZM150 274Q220 274 271 279T355 295T404 326T420 373Q420 404 398 423T325 443Q299 443 273 436T223 409T181 357T150 274ZM369 741L477 614L439 574L357 664L248 576L218 615L369 741Z" />
<glyph unicode="&#xeb;" glyph-name="edieresis" d="M428 18Q393 6 346 -2T247 -10Q153 -10 106 28T58 153Q58 175 60 197T67 247Q80 319 106 368T167 448T245 491T333 504Q411 504 453 471T495 381Q495 339 475 309T413 259T303 230T140 221Q138 204 137 190T135
159Q135 102 165 77T259 52Q306 52 349 59T424 77L428 18ZM150 274Q220 274 271 279T355 295T404 326T420 373Q420 404 398 423T325 443Q299 443 273 436T223 409T181 357T150 274ZM308 673Q308 664 305 651Q300 626 288 616T249 605Q204 605 204 635Q204 643 207
657Q212 682 225 693T264 704Q308 704 308 673ZM502 673Q502 664 499 651Q495 626 482 616T443 605Q399 605 399 635Q399 643 401 657Q406 682 419 693T459 704Q502 704 502 673Z" />
<glyph unicode="&#xec;" glyph-name="igrave" d="M563 748L660 604L620 571L511 707L563 748ZM28 60H228L300 430H105L117 490H390L307 60H457L445 0H17L28 60Z" />
<glyph unicode="&#xed;" glyph-name="iacute" d="M436 742L480 694L339 572L306 608L436 742ZM28 60H228L300 430H105L117 490H390L307 60H457L445 0H17L28 60Z" />
<glyph unicode="&#xee;" glyph-name="icircumflex" d="M28 60H228L300 430H105L117 490H390L307 60H457L445 0H17L28 60ZM386 741L494 614L456 574L374 664L265 576L235 615L386 741Z" />
<glyph unicode="&#xef;" glyph-name="idieresis" d="M327 673Q327 664 324 651Q319 626 307 616T268 605Q223 605 223 635Q223 643 226 657Q231 682 244 693T283 704Q327 704 327 673ZM521 673Q521 664 518 651Q514 626 501 616T462 605Q418 605 418 635Q418 643
420 657Q425 682 438 693T478 704Q521 704 521 673ZM28 60H228L300 430H105L117 490H390L307 60H457L445 0H17L28 60Z" />
<glyph unicode="&#xf0;" glyph-name="eth" d="M439 643Q468 585 484 521T501 391Q501 266 476 188T410 64T322 3T228 -14Q136 -14 92 31T48 160Q48 219 63 279T109 387T189 465T305 495Q341 495 369 486T419 465Q407 542 372 612L267 561L242 610L348 661Q338
678 328 693T305 725L371 757Q383 741 394 726T415 693L519 744L545 695L439 643ZM236 48Q268 48 302 63T363 116T408 215T426 370Q426 377 426 384T424 398Q399 415 372 424T310 434Q261 434 226 408T169 343T136 255T126 162Q126 109 152 79T236 48Z" />
<glyph unicode="&#xf1;" glyph-name="ntilde" d="M127 490H192L184 416Q201 433 223 448T269 474T319 493T374 500Q436 500 466 471T496 384Q496 370 494 356T489 326L426 0H347L409 321Q411 332 413 343T415 368Q415 403 399 419T347 436Q307 436 264 410T176
335L110 0H33L127 490ZM446 626Q456 643 467 658T492 683T521 699T554 705Q573 705 587 697T613 679T636 661T659 653Q675 653 690 665T720 702L757 674Q747 656 735 642T710 617T681 601T649 595Q630 595 616 602T590 620T567 638T544 647Q528 647 513 634T483
598L446 626Z" />
<glyph unicode="&#xf2;" glyph-name="ograve" d="M503 340Q503 319 501 297T493 246Q480 175 457 126T400 45T323 0T229 -14Q186 -14 153 -5T96 23T61 74T48 151Q48 170 50 193T58 244Q71 316 94 365T152 445T229 490T324 504Q366 504 399 496T455 468T490 417T503
340ZM424 335Q424 396 396 419T317 442Q283 442 255 433T204 402T165 341T136 245Q131 220 129 197T127 155Q127 94 155 71T236 48Q269 48 297 56T347 88T386 149T415 245Q420 270 422 293T424 335ZM548 748L645 604L605 571L496 707L548 748Z" />
<glyph unicode="&#xf3;" glyph-name="oacute" d="M503 340Q503 319 501 297T493 246Q480 175 457 126T400 45T323 0T229 -14Q186 -14 153 -5T96 23T61 74T48 151Q48 170 50 193T58 244Q71 316 94 365T152 445T229 490T324 504Q366 504 399 496T455 468T490 417T503
340ZM424 335Q424 396 396 419T317 442Q283 442 255 433T204 402T165 341T136 245Q131 220 129 197T127 155Q127 94 155 71T236 48Q269 48 297 56T347 88T386 149T415 245Q420 270 422 293T424 335ZM418 742L462 694L321 572L288 608L418 742Z" />
<glyph unicode="&#xf4;" glyph-name="ocircumflex" d="M503 340Q503 319 501 297T493 246Q480 175 457 126T400 45T323 0T229 -14Q186 -14 153 -5T96 23T61 74T48 151Q48 170 50 193T58 244Q71 316 94 365T152 445T229 490T324 504Q366 504 399 496T455 468T490
417T503 340ZM424 335Q424 396 396 419T317 442Q283 442 255 433T204 402T165 341T136 245Q131 220 129 197T127 155Q127 94 155 71T236 48Q269 48 297 56T347 88T386 149T415 245Q420 270 422 293T424 335ZM618 741L726 614L688 574L606 664L497 576L467 615L618
741Z" />
<glyph unicode="&#xf5;" glyph-name="otilde" d="M503 340Q503 319 501 297T493 246Q480 175 457 126T400 45T323 0T229 -14Q186 -14 153 -5T96 23T61 74T48 151Q48 170 50 193T58 244Q71 316 94 365T152 445T229 490T324 504Q366 504 399 496T455 468T490 417T503
340ZM424 335Q424 396 396 419T317 442Q283 442 255 433T204 402T165 341T136 245Q131 220 129 197T127 155Q127 94 155 71T236 48Q269 48 297 56T347 88T386 149T415 245Q420 270 422 293T424 335ZM448 626Q458 643 469 658T494 683T523 699T556 705Q575 705 589
697T615 679T638 661T661 653Q677 653 692 665T722 702L759 674Q749 656 737 642T712 617T683 601T651 595Q632 595 618 602T592 620T569 638T546 647Q530 647 515 634T485 598L448 626Z" />
<glyph unicode="&#xf6;" glyph-name="odieresis" d="M503 340Q503 319 501 297T493 246Q480 175 457 126T400 45T323 0T229 -14Q186 -14 153 -5T96 23T61 74T48 151Q48 170 50 193T58 244Q71 316 94 365T152 445T229 490T324 504Q366 504 399 496T455 468T490
417T503 340ZM424 335Q424 396 396 419T317 442Q283 442 255 433T204 402T165 341T136 245Q131 220 129 197T127 155Q127 94 155 71T236 48Q269 48 297 56T347 88T386 149T415 245Q420 270 422 293T424 335ZM561 673Q561 664 558 651Q553 626 541 616T502 605Q457
605 457 635Q457 643 460 657Q465 682 478 693T517 704Q561 704 561 673ZM755 673Q755 664 752 651Q748 626 735 616T696 605Q652 605 652 635Q652 643 654 657Q659 682 672 693T712 704Q755 704 755 673Z" />
<glyph unicode="&#xf7;" glyph-name="divide" d="M63 317H514L503 256H51L63 317ZM363 454Q363 448 363 443T360 432Q358 419 354 411T344 397T327 389T303 387Q280 387 270 394T259 418Q259 428 262 439Q264 452 268 461T278 475T295 482T319 485Q342 485 352
478T363 454ZM305 155Q305 149 305 144T303 132Q300 119 296 111T286 98T269 90T245 88Q222 88 212 95T201 119Q201 123 201 129T203 140Q206 153 210 162T220 176T237 183T262 186Q284 186 294 179T305 155Z" />
<glyph unicode="&#xf8;" glyph-name="oslash" d="M88 31Q72 48 60 76T48 151Q48 170 50 193T58 244Q71 316 94 365T152 445T229 490T324 504Q354 504 378 500T418 486L477 568L522 540L463 459Q480 441 491 412T503 340Q503 320 501 297T493 246Q480 175 457 126T400
45T323 0T229 -14Q200 -14 176 -10T133 4L67 -86L23 -58L88 31ZM170 57Q184 50 200 48T236 45Q269 45 297 54T347 86T387 148T417 245Q422 270 424 293T426 335Q426 353 424 367T416 394L170 57ZM381 433Q367 440 351 443T316 446Q282 446 254 436T204 403T164
342T134 245Q129 220 127 197T125 155Q125 138 127 124T135 97L381 433Z" />
<glyph unicode="&#xf9;" glyph-name="ugrave" d="M366 74Q348 57 327 42T282 16T232 -3T176 -10Q115 -10 85 19T55 107Q55 120 56 134T61 164L124 490H203L141 170Q139 159 137 147T135 122Q135 87 151 71T204 54Q243 54 286 80T375 155L440 490H518L423 0H358L366
74ZM539 748L636 604L596 571L487 707L539 748Z" />
<glyph unicode="&#xfa;" glyph-name="uacute" d="M366 74Q348 57 327 42T282 16T232 -3T176 -10Q115 -10 85 19T55 107Q55 120 56 134T61 164L124 490H203L141 170Q139 159 137 147T135 122Q135 87 151 71T204 54Q243 54 286 80T375 155L440 490H518L423 0H358L366
74ZM429 742L473 694L332 572L299 608L429 742Z" />
<glyph unicode="&#xfb;" glyph-name="ucircumflex" d="M366 74Q348 57 327 42T282 16T232 -3T176 -10Q115 -10 85 19T55 107Q55 120 56 134T61 164L124 490H203L141 170Q139 159 137 147T135 122Q135 87 151 71T204 54Q243 54 286 80T375 155L440 490H518L423
0H358L366 74ZM618 741L726 614L688 574L606 664L497 576L467 615L618 741Z" />
<glyph unicode="&#xfc;" glyph-name="udieresis" d="M366 74Q348 57 327 42T282 16T232 -3T176 -10Q115 -10 85 19T55 107Q55 120 56 134T61 164L124 490H203L141 170Q139 159 137 147T135 122Q135 87 151 71T204 54Q243 54 286 80T375 155L440 490H518L423 0H358L366
74ZM562 673Q562 664 559 651Q554 626 542 616T503 605Q458 605 458 635Q458 643 461 657Q466 682 479 693T518 704Q562 704 562 673ZM756 673Q756 664 753 651Q749 626 736 616T697 605Q653 605 653 635Q653 643 655 657Q660 682 673 693T713 704Q756 704 756
673Z" />
<glyph unicode="&#xfd;" glyph-name="yacute" d="M160 490L212 231Q216 208 219 188T226 148T231 108T238 65H239Q251 89 262 109T283 149T305 189T329 231L482 490H566L232 -71Q204 -117 181 -146T132 -193T80 -216T19 -223Q1 -223 -17 -221T-50 -215L-38 -155Q-23
-158 -8 -160T22 -162Q40 -162 57 -158T90 -144T122 -114T158 -65L198 0H176L79 490H160ZM433 742L477 694L336 572L303 608L433 742Z" />
<glyph unicode="&#xfe;" glyph-name="thorn" d="M176 738H253L219 562Q216 546 213 528T205 491T196 455T188 421L189 420Q205 435 225 450T269 475T318 493T370 500Q433 500 470 461T508 346Q508 265 487 199T430 87T343 15T235 -10Q197 -10 167 0T112 25L111
24Q108 -7 104 -33T95 -84L69 -214H-8L176 738ZM127 87Q150 74 177 63T237 52Q280 52 315 75T375 136T415 226T429 335Q429 385 408 410T347 436Q327 436 306 429T263 409T219 377T176 335L127 87Z" />
<glyph unicode="&#xff;" glyph-name="ydieresis" d="M160 490L212 231Q216 208 219 188T226 148T231 108T238 65H239Q251 89 262 109T283 149T305 189T329 231L482 490H566L232 -71Q204 -117 181 -146T132 -193T80 -216T19 -223Q1 -223 -17 -221T-50 -215L-38
-155Q-23 -158 -8 -160T22 -162Q40 -162 57 -158T90 -144T122 -114T158 -65L198 0H176L79 490H160ZM559 673Q559 664 556 651Q551 626 539 616T500 605Q455 605 455 635Q455 643 458 657Q463 682 476 693T515 704Q559 704 559 673ZM753 673Q753 664 750 651Q746
626 733 616T694 605Q650 605 650 635Q650 643 652 657Q657 682 670 693T710 704Q753 704 753 673Z" />
<glyph unicode="&#x100;" glyph-name="Amacron" d="M305 695H420L488 0H408L388 192H142L48 0H-33L305 695ZM387 255L370 444Q365 498 361 544T352 642H351Q339 616 329 592T307 545T284 497T258 444L168 255H387ZM488 852H801L790 796H478L488 852Z" />
<glyph unicode="&#x101;" glyph-name="amacron" d="M366 74Q348 57 327 42T281 16T231 -3T179 -10Q116 -10 79 28T42 144Q42 225 63 291T120 403T206 475T314 500Q354 500 386 489T443 461L452 490H517L422 0H358L366 74ZM422 403Q400 417 373 427T312 438Q270
438 235 416T174 354T135 264T121 155Q121 105 142 80T203 54Q222 54 243 61T286 81T331 113T374 155L422 403ZM230 680H488L477 621H219L230 680Z" />
<glyph unicode="&#x102;" glyph-name="Abreve" d="M305 695H420L488 0H408L388 192H142L48 0H-33L305 695ZM387 255L370 444Q365 498 361 544T352 642H351Q339 616 329 592T307 545T284 497T258 444L168 255H387ZM567 879Q564 852 580 833T633 814Q671 814 693
833T722 879H778Q774 854 762 833T731 796T685 770T626 760Q594 760 571 769T534 795T515 833T514 879H567Z" />
<glyph unicode="&#x103;" glyph-name="abreve" d="M366 74Q348 57 327 42T281 16T231 -3T179 -10Q116 -10 79 28T42 144Q42 225 63 291T120 403T206 475T314 500Q354 500 386 489T443 461L452 490H517L422 0H358L366 74ZM422 403Q400 417 373 427T312 438Q270
438 235 416T174 354T135 264T121 155Q121 105 142 80T203 54Q222 54 243 61T286 81T331 113T374 155L422 403ZM307 714Q302 681 315 660T360 639Q389 639 410 660T437 714H494Q484 656 447 620T352 583Q293 583 268 619T252 714H307Z" />
<glyph unicode="&#x104;" glyph-name="Aogonek" d="M305 695H420L488 0Q462 -17 439 -33T398 -66T371 -100T360 -135Q360 -167 401 -167Q419 -167 435 -164T465 -156L467 -208Q447 -214 426 -218T380 -222Q335 -222 312 -204T289 -149Q289 -126 300 -106T329 -66T370
-30T419 0H408L388 192H142L48 0H-33L305 695ZM387 255L370 444Q365 498 361 544T352 642H351Q339 616 329 592T307 545T284 497T258 444L168 255H387Z" />
<glyph unicode="&#x105;" glyph-name="aogonek" d="M422 403Q400 417 373 427T312 438Q270 438 235 416T174 354T135 264T121 155Q121 105 142 80T203 54Q222 54 243 61T286 81T331 113T374 155L422 403ZM422 0Q397 -16 373 -32T332 -66T304 -100T293 -136Q293
-153 304 -161T336 -169Q354 -169 369 -166T399 -157L401 -207Q381 -214 360 -218T314 -222Q269 -222 247 -203T224 -149Q224 -126 235 -105T265 -65T308 -28T358 3L366 74Q348 57 327 42T281 16T231 -3T179 -10Q116 -10 79 28T42 144Q42 225 63 291T120 403T206
475T314 500Q354 500 386 489T443 461L452 490H517L422 0Z" />
<glyph unicode="&#x106;" glyph-name="Cacute" d="M452 12Q421 4 377 -3T287 -11Q229 -11 187 0T116 36T74 98T59 191Q59 229 63 265T77 348Q97 455 131 524T211 633T310 690T426 706Q473 706 512 700T579 686L560 624Q535 631 499 636T422 642Q378 642 338 630T263
585T201 495T157 346Q148 304 144 269T140 197Q140 118 179 86T302 53Q338 53 378 58T449 73L452 12ZM529 893L552 836L379 764L361 808L529 893Z" />
<glyph unicode="&#x107;" glyph-name="cacute" d="M430 10Q400 2 361 -4T276 -10Q169 -10 120 29T70 155Q70 177 72 198T79 247Q92 318 118 366T181 444T266 487T368 500Q406 500 443 495T511 481L493 422Q465 429 433 433T365 438Q327 438 294 430T234 400T188
341T157 246Q152 223 150 204T148 165Q148 106 181 79T293 52Q334 52 368 57T429 69L430 10ZM453 742L497 694L356 572L323 608L453 742Z" />
<glyph unicode="&#x108;" glyph-name="Ccircumflex" d="M452 12Q421 4 377 -3T287 -11Q229 -11 187 0T116 36T74 98T59 191Q59 229 63 265T77 348Q97 455 131 524T211 633T310 690T426 706Q473 706 512 700T579 686L560 624Q535 631 499 636T422 642Q378 642 338
630T263 585T201 495T157 346Q148 304 144 269T140 197Q140 118 179 86T302 53Q338 53 378 58T449 73L452 12ZM440 895L559 811L528 766L430 827L311 766L290 811L440 895Z" />
<glyph unicode="&#x109;" glyph-name="ccircumflex" d="M430 10Q400 2 361 -4T276 -10Q169 -10 120 29T70 155Q70 177 72 198T79 247Q92 318 118 366T181 444T266 487T368 500Q406 500 443 495T511 481L493 422Q465 429 433 433T365 438Q327 438 294 430T234 400T188
341T157 246Q152 223 150 204T148 165Q148 106 181 79T293 52Q334 52 368 57T429 69L430 10ZM392 741L500 614L462 574L380 664L271 576L241 615L392 741Z" />
<glyph unicode="&#x10a;" glyph-name="Cdotaccent" d="M452 12Q421 4 377 -3T287 -11Q229 -11 187 0T116 36T74 98T59 191Q59 229 63 265T77 348Q97 455 131 524T211 633T310 690T426 706Q473 706 512 700T579 686L560 624Q535 631 499 636T422 642Q378 642 338
630T263 585T201 495T157 346Q148 304 144 269T140 197Q140 118 179 86T302 53Q338 53 378 58T449 73L452 12ZM480 843Q480 837 480 832T477 820Q475 807 471 799T460 785T444 778T420 775Q397 775 386 782T375 807Q375 813 376 818T378 830Q380 843 384 851T395
865T411 873T435 875Q459 875 469 868T480 843Z" />
<glyph unicode="&#x10b;" glyph-name="cdotaccent" d="M430 10Q400 2 361 -4T276 -10Q169 -10 120 29T70 155Q70 177 72 198T79 247Q92 318 118 366T181 444T266 487T368 500Q406 500 443 495T511 481L493 422Q465 429 433 433T365 438Q327 438 294 430T234 400T188
341T157 246Q152 223 150 204T148 165Q148 106 181 79T293 52Q334 52 368 57T429 69L430 10ZM431 672Q431 666 431 661T429 650Q425 625 413 615T373 605Q349 605 338 612T327 637Q327 646 329 658Q333 683 345 693T386 704Q410 704 420 696T431 672Z" />
<glyph unicode="&#x10c;" glyph-name="Ccaron" d="M452 12Q421 4 377 -3T287 -11Q229 -11 187 0T116 36T74 98T59 191Q59 229 63 265T77 348Q97 455 131 524T211 633T310 690T426 706Q473 706 512 700T579 686L560 624Q535 631 499 636T422 642Q378 642 338 630T263
585T201 495T157 346Q148 304 144 269T140 197Q140 118 179 86T302 53Q338 53 378 58T449 73L452 12ZM327 888L425 826L544 888L565 842L415 758L296 842L327 888Z" />
<glyph unicode="&#x10d;" glyph-name="ccaron" d="M430 10Q400 2 361 -4T276 -10Q169 -10 120 29T70 155Q70 177 72 198T79 247Q92 318 118 366T181 444T266 487T368 500Q406 500 443 495T511 481L493 422Q465 429 433 433T365 438Q327 438 294 430T234 400T188
341T157 246Q152 223 150 204T148 165Q148 106 181 79T293 52Q334 52 368 57T429 69L430 10ZM294 736L376 646L486 734L515 696L365 569L256 696L294 736Z" />
<glyph unicode="&#x10e;" glyph-name="Dcaron" d="M150 695H328Q382 695 423 686T491 654T533 593T548 499Q548 466 544 430T531 350Q512 250 482 183T408 76T309 18T185 0H15L150 695ZM191 63Q240 63 281 76T354 122T410 211T450 352Q454 371 457 390T462 427T466
461T467 491Q467 532 458 559T429 602T382 625T317 632H217L106 63H191ZM502 888L600 826L719 888L740 842L590 758L471 842L502 888Z" />
<glyph unicode="&#x10f;" glyph-name="dcaron" d="M340 72Q323 56 304 42T263 16T217 -3T165 -10Q103 -10 70 28T36 140Q36 187 43 232T65 317T101 390T151 448T213 486T289 500Q326 500 356 490T411 465L412 466Q416 498 421 528T432 584L462 738H534L392 0H333L340
72ZM397 404Q376 417 350 427T291 438Q263 438 240 427T196 395T161 348T135 289T119 223T113 154Q113 104 130 79T194 54Q233 54 270 77T347 144L397 404ZM617 779L678 765L600 582L556 593L617 779Z" />
<glyph unicode="&#x110;" glyph-name="Dcroat" d="M98 336H28L39 397H110L169 695H335Q386 695 425 686T492 654T533 593T548 499Q548 466 544 430T531 350Q512 250 482 183T409 76T312 18T191 0H34L98 336ZM197 63Q244 63 283 76T354 122T410 211T450 352Q454
371 457 390T462 427T466 461T467 491Q467 532 458 559T430 602T384 625T323 632H236L190 397H320L309 336H178L125 63H197Z" />
<glyph unicode="&#x111;" glyph-name="dcroat" d="M366 74Q348 57 327 42T281 16T231 -3T179 -10Q116 -10 79 28T42 144Q42 225 63 291T120 403T206 475T314 500Q353 500 384 490T438 465L439 466Q442 496 446 524T456 576L458 589H335L346 648H470L488 738H565L548
648H614L602 589H537L423 0H358L366 74ZM423 403Q400 417 373 427T312 438Q270 438 235 416T174 354T135 264T121 155Q121 105 142 80T203 54Q222 54 243 61T287 81T332 113T375 155L423 403Z" />
<glyph unicode="&#x112;" glyph-name="Emacron" d="M178 695H565L552 632H245L198 391H483L471 329H187L135 63H442L430 0H43L178 695ZM238 852H551L540 796H228L238 852Z" />
<glyph unicode="&#x113;" glyph-name="emacron" d="M428 18Q393 6 346 -2T247 -10Q153 -10 106 28T58 153Q58 175 60 197T67 247Q80 319 106 368T167 448T245 491T333 504Q411 504 453 471T495 381Q495 339 475 309T413 259T303 230T140 221Q138 204 137 190T135
159Q135 102 165 77T259 52Q306 52 349 59T424 77L428 18ZM150 274Q220 274 271 279T355 295T404 326T420 373Q420 404 398 423T325 443Q299 443 273 436T223 409T181 357T150 274ZM485 680H743L732 621H474L485 680Z" />
<glyph unicode="&#x114;" glyph-name="Ebreve" d="M178 695H565L552 632H245L198 391H483L471 329H187L135 63H442L430 0H43L178 695ZM319 879Q316 852 332 833T385 814Q423 814 445 833T474 879H530Q526 854 514 833T483 796T437 770T378 760Q346 760 323 769T286
795T267 833T266 879H319Z" />
<glyph unicode="&#x115;" glyph-name="ebreve" d="M428 18Q393 6 346 -2T247 -10Q153 -10 106 28T58 153Q58 175 60 197T67 247Q80 319 106 368T167 448T245 491T333 504Q411 504 453 471T495 381Q495 339 475 309T413 259T303 230T140 221Q138 204 137 190T135
159Q135 102 165 77T259 52Q306 52 349 59T424 77L428 18ZM150 274Q220 274 271 279T355 295T404 326T420 373Q420 404 398 423T325 443Q299 443 273 436T223 409T181 357T150 274ZM300 714Q295 681 308 660T353 639Q382 639 403 660T430 714H487Q477 656 440 620T345
583Q286 583 261 619T245 714H300Z" />
<glyph unicode="&#x116;" glyph-name="Edotaccent" d="M178 695H565L552 632H245L198 391H483L471 329H187L135 63H442L430 0H43L178 695ZM449 843Q449 837 449 832T446 820Q444 807 440 799T429 785T413 778T389 775Q366 775 355 782T344 807Q344 813 345 818T347
830Q349 843 353 851T364 865T380 873T404 875Q428 875 438 868T449 843Z" />
<glyph unicode="&#x117;" glyph-name="edotaccent" d="M428 18Q393 6 346 -2T247 -10Q153 -10 106 28T58 153Q58 175 60 197T67 247Q80 319 106 368T167 448T245 491T333 504Q411 504 453 471T495 381Q495 339 475 309T413 259T303 230T140 221Q138 204 137 190T135
159Q135 102 165 77T259 52Q306 52 349 59T424 77L428 18ZM150 274Q220 274 271 279T355 295T404 326T420 373Q420 404 398 423T325 443Q299 443 273 436T223 409T181 357T150 274ZM406 672Q406 666 406 661T404 650Q400 625 388 615T348 605Q324 605 313 612T302
637Q302 646 304 658Q308 683 320 693T361 704Q385 704 395 696T406 672Z" />
<glyph unicode="&#x118;" glyph-name="Eogonek" d="M178 695H565L552 632H245L198 391H483L471 329H187L135 63H442L430 0Q403 -17 380 -33T340 -66T313 -100T302 -134Q301 -168 343 -168Q360 -168 375 -165T407 -156L408 -208Q387 -214 366 -218T321 -222Q273
-222 251 -203T232 -146Q233 -124 244 -103T273 -64T313 -29T360 0H43L178 695Z" />
<glyph unicode="&#x119;" glyph-name="eogonek" d="M150 274Q220 274 271 279T355 295T404 326T420 373Q420 404 398 423T325 443Q299 443 273 436T223 409T181 357T150 274ZM428 18Q353 -26 312 -63T270 -136Q270 -153 280 -161T311 -169Q329 -169 345 -166T375
-157L378 -207Q358 -214 336 -218T290 -222Q245 -222 223 -203T200 -149Q200 -126 211 -105T241 -64T282 -30T328 -1Q316 -4 294 -7T247 -10Q153 -10 106 28T58 153Q58 175 60 197T67 247Q80 319 106 368T167 448T245 491T333 504Q411 504 453 471T495 381Q495
339 475 309T413 259T303 230T140 221Q138 204 137 190T135 159Q135 102 165 77T259 52Q306 52 349 59T424 77L428 18Z" />
<glyph unicode="&#x11a;" glyph-name="Ecaron" d="M178 695H565L552 632H245L198 391H483L471 329H187L135 63H442L430 0H43L178 695ZM290 888L388 826L507 888L528 842L378 758L259 842L290 888Z" />
<glyph unicode="&#x11b;" glyph-name="ecaron" d="M428 18Q393 6 346 -2T247 -10Q153 -10 106 28T58 153Q58 175 60 197T67 247Q80 319 106 368T167 448T245 491T333 504Q411 504 453 471T495 381Q495 339 475 309T413 259T303 230T140 221Q138 204 137 190T135
159Q135 102 165 77T259 52Q306 52 349 59T424 77L428 18ZM150 274Q220 274 271 279T355 295T404 326T420 373Q420 404 398 423T325 443Q299 443 273 436T223 409T181 357T150 274ZM525 736L607 646L717 734L746 696L596 569L487 696L525 736Z" />
<glyph unicode="&#x11c;" glyph-name="Gcircumflex" d="M445 22Q427 15 404 9T355 -1T303 -9T252 -12Q202 -12 163 -2T97 31T56 92T42 190Q42 225 46 263T60 348Q81 450 112 519T187 629T282 688T397 706Q443 706 484 700T559 683L541 622Q509 630 472 636T395
642Q348 642 309 629T238 582T181 491T139 345Q130 302 126 265T121 194Q121 151 130 124T158 80T202 58T261 52Q293 52 324 57T377 71L427 327H282L295 389H516L445 22ZM418 895L537 811L506 766L408 827L289 766L268 811L418 895Z" />
<glyph unicode="&#x11d;" glyph-name="gcircumflex" d="M422 403Q400 417 373 427T312 438Q270 438 235 416T174 354T135 264T121 155Q121 105 142 80T203 54Q222 54 243 61T286 81T331 113T374 155L422 403ZM418 -24Q407 -77 385 -115T330 -177T250 -212T143
-223Q106 -223 72 -219T6 -207L17 -147Q48 -154 80 -158T147 -162Q230 -162 278 -131T342 -20Q347 6 351 25T362 69L361 70Q345 54 325 40T281 15T231 -3T179 -10Q116 -10 79 28T42 144Q42 225 63 291T120 403T206 475T314 500Q354 500 386 489T443 461L452 490H517L418
-24ZM373 741L481 614L443 574L361 664L252 576L222 615L373 741Z" />
<glyph unicode="&#x11e;" glyph-name="Gbreve" d="M445 22Q427 15 404 9T355 -1T303 -9T252 -12Q202 -12 163 -2T97 31T56 92T42 190Q42 225 46 263T60 348Q81 450 112 519T187 629T282 688T397 706Q443 706 484 700T559 683L541 622Q509 630 472 636T395 642Q348
642 309 629T238 582T181 491T139 345Q130 302 126 265T121 194Q121 151 130 124T158 80T202 58T261 52Q293 52 324 57T377 71L427 327H282L295 389H516L445 22ZM333 879Q330 852 346 833T399 814Q437 814 459 833T488 879H544Q540 854 528 833T497 796T451 770T392
760Q360 760 337 769T300 795T281 833T280 879H333Z" />
<glyph unicode="&#x11f;" glyph-name="gbreve" d="M422 403Q400 417 373 427T312 438Q270 438 235 416T174 354T135 264T121 155Q121 105 142 80T203 54Q222 54 243 61T286 81T331 113T374 155L422 403ZM418 -24Q407 -77 385 -115T330 -177T250 -212T143 -223Q106
-223 72 -219T6 -207L17 -147Q48 -154 80 -158T147 -162Q230 -162 278 -131T342 -20Q347 6 351 25T362 69L361 70Q345 54 325 40T281 15T231 -3T179 -10Q116 -10 79 28T42 144Q42 225 63 291T120 403T206 475T314 500Q354 500 386 489T443 461L452 490H517L418
-24ZM307 714Q302 681 315 660T360 639Q389 639 410 660T437 714H494Q484 656 447 620T352 583Q293 583 268 619T252 714H307Z" />
<glyph unicode="&#x120;" glyph-name="Gdotaccent" d="M445 22Q427 15 404 9T355 -1T303 -9T252 -12Q202 -12 163 -2T97 31T56 92T42 190Q42 225 46 263T60 348Q81 450 112 519T187 629T282 688T397 706Q443 706 484 700T559 683L541 622Q509 630 472 636T395
642Q348 642 309 629T238 582T181 491T139 345Q130 302 126 265T121 194Q121 151 130 124T158 80T202 58T261 52Q293 52 324 57T377 71L427 327H282L295 389H516L445 22ZM455 843Q455 837 455 832T452 820Q450 807 446 799T435 785T419 778T395 775Q372 775 361
782T350 807Q350 813 351 818T353 830Q355 843 359 851T370 865T386 873T410 875Q434 875 444 868T455 843Z" />
<glyph unicode="&#x121;" glyph-name="gdotaccent" d="M422 403Q400 417 373 427T312 438Q270 438 235 416T174 354T135 264T121 155Q121 105 142 80T203 54Q222 54 243 61T286 81T331 113T374 155L422 403ZM418 -24Q407 -77 385 -115T330 -177T250 -212T143 -223Q106
-223 72 -219T6 -207L17 -147Q48 -154 80 -158T147 -162Q230 -162 278 -131T342 -20Q347 6 351 25T362 69L361 70Q345 54 325 40T281 15T231 -3T179 -10Q116 -10 79 28T42 144Q42 225 63 291T120 403T206 475T314 500Q354 500 386 489T443 461L452 490H517L418
-24ZM407 672Q407 666 407 661T405 650Q401 625 389 615T349 605Q325 605 314 612T303 637Q303 646 305 658Q309 683 321 693T362 704Q386 704 396 696T407 672Z" />
<glyph unicode="&#x122;" glyph-name="Gcommaaccent" d="M445 22Q427 15 404 9T355 -1T303 -9T252 -12Q202 -12 163 -2T97 31T56 92T42 190Q42 225 46 263T60 348Q81 450 112 519T187 629T282 688T397 706Q443 706 484 700T559 683L541 622Q509 630 472 636T395
642Q348 642 309 629T238 582T181 491T139 345Q130 302 126 265T121 194Q121 151 130 124T158 80T202 58T261 52Q293 52 324 57T377 71L427 327H282L295 389H516L445 22ZM328 -183Q339 -178 356 -171T390 -156T423 -141T447 -129Q448 -100 459 -87T498 -74Q519
-74 527 -81T536 -104Q536 -108 536 -111T534 -122Q532 -136 526 -144T507 -160T475 -175T424 -191Q415 -194 404 -197T380 -205T357 -212T337 -218L328 -183Z" />
<glyph unicode="&#x123;" glyph-name="gcommaaccent" d="M422 403Q400 417 373 427T312 438Q270 438 235 416T174 354T135 264T121 155Q121 105 142 80T203 54Q222 54 243 61T286 81T331 113T374 155L422 403ZM418 -24Q407 -77 385 -115T330 -177T250 -212T143
-223Q106 -223 72 -219T6 -207L17 -147Q48 -154 80 -158T147 -162Q230 -162 278 -131T342 -20Q347 6 351 25T362 69L361 70Q345 54 325 40T281 15T231 -3T179 -10Q116 -10 79 28T42 144Q42 225 63 291T120 403T206 475T314 500Q354 500 386 489T443 461L452 490H517L418
-24ZM503 694Q492 689 475 682T441 668T408 653T384 640Q383 612 372 599T333 585Q312 585 304 592T295 615Q295 619 295 623T297 633Q299 646 305 655T324 671T356 685T407 702Q415 705 426 709T450 716T473 723T494 730L503 694Z" />
<glyph unicode="&#x124;" glyph-name="Hcircumflex" d="M150 695H230L171 393H436L496 695H576L441 0H361L424 328H158L95 0H15L150 695ZM651 895L770 811L739 766L641 827L522 766L501 811L651 895Z" />
<glyph unicode="&#x125;" glyph-name="hcircumflex" d="M176 738H253L219 562Q216 546 213 528T205 492T196 455T188 421L189 420Q206 436 227 450T271 476T320 493T374 500Q436 500 466 471T496 384Q496 370 494 356T489 326L426 0H347L409 321Q411 332 413 343T415
368Q415 403 399 419T347 436Q307 436 264 410T176 335L110 0H33L176 738ZM406 925L525 841L494 796L396 857L277 796L256 841L406 925Z" />
<glyph unicode="&#x126;" glyph-name="Hbar" d="M132 511H62L73 571H144L169 695H248L223 571H453L478 695H557L532 571H603L592 511H520L422 0H343L404 317H173L113 0H34L132 511ZM415 378L442 511H212L186 378H415Z" />
<glyph unicode="&#x127;" glyph-name="hbar" d="M147 589H82L93 648H157L176 738H253L236 648H361L349 589H224L219 560Q216 545 213 528T205 492T196 455T188 421L189 420Q206 436 227 450T271 476T320 493T374 500Q436 500 466 471T496 384Q496 370 494 356T489
326L426 0H347L409 321Q411 332 413 343T415 368Q415 403 399 419T347 436Q307 436 264 410T176 335L110 0H33L147 589Z" />
<glyph unicode="&#x128;" glyph-name="Itilde" d="M34 65H200L310 630H145L158 695H569L556 630H390L280 65H444L432 0H22L34 65ZM481 812Q503 838 529 854T590 870Q608 870 622 865T649 852T673 839T699 833Q716 833 733 841T767 868L797 834Q776 808 750 792T689
776Q670 776 656 782T630 794T606 807T580 813Q562 813 545 805T512 778L481 812Z" />
<glyph unicode="&#x129;" glyph-name="itilde" d="M214 626Q224 643 235 658T260 683T289 699T322 705Q341 705 355 697T381 679T404 661T427 653Q443 653 458 665T488 702L525 674Q515 656 503 642T478 617T449 601T417 595Q398 595 384 602T358 620T335 638T312
647Q296 647 281 634T251 598L214 626ZM28 60H228L300 430H105L117 490H390L307 60H457L445 0H17L28 60Z" />
<glyph unicode="&#x12a;" glyph-name="Imacron" d="M34 65H200L310 630H145L158 695H569L556 630H390L280 65H444L432 0H22L34 65ZM490 852H803L792 796H480L490 852Z" />
<glyph unicode="&#x12b;" glyph-name="imacron" d="M247 680H505L494 621H236L247 680ZM28 60H228L300 430H105L117 490H390L307 60H457L445 0H17L28 60Z" />
<glyph unicode="&#x12c;" glyph-name="Ibreve" d="M34 65H200L310 630H145L158 695H569L556 630H390L280 65H444L432 0H22L34 65ZM568 879Q565 852 581 833T634 814Q672 814 694 833T723 879H779Q775 854 763 833T732 796T686 770T627 760Q595 760 572 769T535
795T516 833T515 879H568Z" />
<glyph unicode="&#x12d;" glyph-name="ibreve" d="M315 714Q310 681 323 660T368 639Q397 639 418 660T445 714H502Q492 656 455 620T360 583Q301 583 276 619T260 714H315ZM28 60H228L300 430H105L117 490H390L307 60H457L445 0H17L28 60Z" />
<glyph unicode="&#x12e;" glyph-name="Iogonek" d="M34 65H200L310 630H145L158 695H569L556 630H390L280 65H444L432 0H273Q247 -17 224 -33T183 -66T155 -100T145 -135Q145 -167 186 -167Q204 -167 220 -164T250 -156L252 -208Q232 -214 210 -218T165 -222Q120
-222 97 -204T74 -149Q74 -126 85 -106T114 -66T155 -30T202 0H22L34 65Z" />
<glyph unicode="&#x12f;" glyph-name="iogonek" d="M28 60H228L300 430H105L117 490H390L307 60H457L445 0H292Q266 -16 242 -32T201 -66T173 -100T162 -136Q162 -153 173 -161T205 -169Q223 -169 238 -166T268 -157L270 -207Q251 -214 229 -218T183 -222Q138
-222 116 -203T93 -149Q93 -126 104 -105T134 -65T175 -30T222 0H17L28 60ZM439 675Q439 670 439 664T436 653Q433 639 429 629T417 613T399 605T372 602Q346 602 334 609T322 632Q322 639 322 644T325 656Q328 670 332 679T343 695T362 703T388 706Q414 706 426
699T439 675Z" />
<glyph unicode="&#x130;" glyph-name="Idotaccent" d="M34 65H200L310 630H145L158 695H569L556 630H390L280 65H444L432 0H22L34 65ZM693 843Q693 837 693 832T690 820Q688 807 684 799T673 785T657 778T633 775Q610 775 599 782T588 807Q588 813 589 818T591
830Q593 843 597 851T608 865T624 873T648 875Q672 875 682 868T693 843Z" />
<glyph unicode="&#x131;" glyph-name="dotlessi" d="M28 60H228L300 430H105L117 490H390L307 60H457L445 0H17L28 60Z" />
<glyph unicode="&#x132;" glyph-name="IJ" d="M173 695H253L118 0H38L173 695ZM557 695L454 171Q445 121 431 87T395 32T346 2T281 -7Q262 -7 242 -5T201 2L215 64Q233 60 246 59T276 58Q316 58 339 83T374 169L476 695H557Z" />
<glyph unicode="&#x133;" glyph-name="ij" d="M150 490H228L133 0H55L150 490ZM495 490L391 -45Q383 -90 367 -123T323 -179T258 -212T165 -223Q138 -223 111 -220T58 -213L72 -154Q93 -158 117 -160T168 -162Q235 -162 268 -132T313 -42L417 490H495ZM279 675Q279
670 279 664T277 653Q273 639 269 629T257 613T239 605T213 602Q187 602 175 609T162 632Q162 639 162 644T165 656Q168 670 172 679T184 695T203 703T229 706Q255 706 267 699T279 675ZM547 675Q547 670 547 664T544 653Q540 639 536 629T525 613T506 605T480
602Q454 602 442 609T430 632Q430 639 430 644T432 656Q435 670 439 679T451 695T470 703T496 706Q522 706 534 699T547 675Z" />
<glyph unicode="&#x134;" glyph-name="Jcircumflex" d="M181 630L194 695H543L445 193Q433 137 413 99T360 37T282 3T178 -7Q138 -7 101 -3T29 10L43 74Q73 66 105 62T177 58Q219 58 251 65T305 90T343 134T365 200L449 630H181ZM428 895L547 811L516 766L418
827L299 766L278 811L428 895Z" />
<glyph unicode="&#x135;" glyph-name="jcircumflex" d="M125 430L136 490H455L352 -42Q343 -88 325 -122T278 -179T206 -213T103 -224Q68 -224 35 -221T-25 -212L-12 -152Q11 -157 41 -160T103 -163Q146 -163 176 -155T226 -130T257 -91T275 -35L365 430H125ZM441
741L549 614L511 574L429 664L320 576L290 615L441 741Z" />
<glyph unicode="&#x136;" glyph-name="Kcommaaccent" d="M172 695H251L187 366L517 695H613L268 354L488 0H397L183 346L116 0H37L172 695ZM319 -183Q330 -178 347 -171T381 -156T414 -141T438 -129Q439 -100 450 -87T489 -74Q510 -74 518 -81T527 -104Q527 -108
527 -111T525 -122Q523 -136 517 -144T498 -160T466 -175T415 -191Q406 -194 395 -197T371 -205T348 -212T328 -218L319 -183Z" />
<glyph unicode="&#x137;" glyph-name="kcommaaccent" d="M183 738H261L172 282L450 490H552L254 266L466 0H372L168 258L118 0H40L183 738ZM310 -183Q321 -178 338 -171T372 -156T405 -141T429 -129Q430 -100 441 -87T480 -74Q501 -74 509 -81T518 -104Q518 -108
518 -111T516 -122Q514 -136 508 -144T489 -160T457 -175T406 -191Q397 -194 386 -197T362 -205T339 -212T319 -218L310 -183Z" />
<glyph unicode="&#x138;" glyph-name="kgreenlandic" d="M134 490H213L170 267L450 490H552L251 253L466 0H372L165 243L118 0H40L134 490Z" />
<glyph unicode="&#x139;" glyph-name="Lacute" d="M187 695H266L143 65H454L442 0H52L187 695ZM465 893L488 836L315 764L297 808L465 893Z" />
<glyph unicode="&#x13a;" glyph-name="lacute" d="M451 60L440 0H181L312 678H142L154 738H402L271 60H451ZM487 912L510 855L337 783L319 827L487 912Z" />
<glyph unicode="&#x13b;" glyph-name="Lcommaaccent" d="M187 695H266L143 65H454L442 0H52L187 695ZM329 -183Q340 -178 357 -171T391 -156T424 -141T448 -129Q449 -100 460 -87T499 -74Q520 -74 528 -81T537 -104Q537 -108 537 -111T535 -122Q533 -136 527 -144T508
-160T476 -175T425 -191Q416 -194 405 -197T381 -205T358 -212T338 -218L329 -183Z" />
<glyph unicode="&#x13c;" glyph-name="lcommaaccent" d="M451 60L440 0H181L312 678H142L154 738H402L271 60H451ZM301 -183Q312 -178 329 -171T363 -156T396 -141T420 -129Q421 -100 432 -87T471 -74Q492 -74 500 -81T509 -104Q509 -108 509 -111T507 -122Q505
-136 499 -144T480 -160T448 -175T397 -191Q388 -194 377 -197T353 -205T330 -212T310 -218L301 -183Z" />
<glyph unicode="&#x13d;" glyph-name="Lcaron" d="M187 695H266L143 65H454L442 0H52L187 695ZM393 774L458 756L373 563L325 578L393 774Z" />
<glyph unicode="&#x13e;" glyph-name="lcaron" d="M554 780L620 763L512 581L461 592L554 780ZM451 60L440 0H178L309 678H142L154 738H399L268 60H451Z" />
<glyph unicode="&#x13f;" glyph-name="Ldot" d="M187 695H266L143 65H454L442 0H52L187 695ZM476 390Q476 384 476 378T473 365Q470 348 466 338T453 321T434 312T404 309Q375 309 363 318T350 348Q350 354 350 360T352 373Q356 390 360 400T372 417T392 426T421
429Q450 429 463 420T476 390Z" />
<glyph unicode="&#x140;" glyph-name="ldot" d="M419 60L406 0H157L288 678H139L150 738H378L247 60H419ZM548 322Q548 316 547 310T545 298Q542 282 538 272T525 255T506 246T477 243Q449 243 438 251T426 279Q426 286 427 291T429 304Q432 320 437 330T449 347T468
355T497 358Q525 358 536 350T548 322Z" />
<glyph unicode="&#x141;" glyph-name="Lslash" d="M142 346L66 311L48 369L156 418L209 695H288L242 457L366 515L383 458L228 385L166 65H454L442 0H74L142 346Z" />
<glyph unicode="&#x142;" glyph-name="lslash" d="M451 60L440 0H180L253 380L120 322L105 375L266 446L311 678H142L154 738H401L352 482L487 543L503 490L338 417L270 60H451Z" />
<glyph unicode="&#x143;" glyph-name="Nacute" d="M148 695H251L356 260Q361 237 366 216T375 175T384 133T394 90H398Q404 138 410 182T425 273L507 695H578L443 0H340L235 435Q229 458 224 478T215 519T206 561T197 605H193Q187 557 181 513T165 422L84 0H13L148
695ZM505 893L528 836L355 764L337 808L505 893Z" />
<glyph unicode="&#x144;" glyph-name="nacute" d="M127 490H192L184 416Q201 433 223 448T269 474T319 493T374 500Q436 500 466 471T496 384Q496 370 494 356T489 326L426 0H347L409 321Q411 332 413 343T415 368Q415 403 399 419T347 436Q307 436 264 410T176
335L110 0H33L127 490ZM432 742L476 694L335 572L302 608L432 742Z" />
<glyph unicode="&#x145;" glyph-name="Ncommaaccent" d="M148 695H251L356 260Q361 237 366 216T375 175T384 133T394 90H398Q404 138 410 182T425 273L507 695H578L443 0H340L235 435Q229 458 224 478T215 519T206 561T197 605H193Q187 557 181 513T165 422L84
0H13L148 695ZM320 -183Q331 -178 348 -171T382 -156T415 -141T439 -129Q440 -100 451 -87T490 -74Q511 -74 519 -81T528 -104Q528 -108 528 -111T526 -122Q524 -136 518 -144T499 -160T467 -175T416 -191Q407 -194 396 -197T372 -205T349 -212T329 -218L320 -183Z"
/>
<glyph unicode="&#x146;" glyph-name="ncommaaccent" d="M127 490H192L184 416Q201 433 223 448T269 474T319 493T374 500Q436 500 466 471T496 384Q496 370 494 356T489 326L426 0H347L409 321Q411 332 413 343T415 368Q415 403 399 419T347 436Q307 436 264
410T176 335L110 0H33L127 490ZM312 -183Q323 -178 340 -171T374 -156T407 -141T431 -129Q432 -100 443 -87T482 -74Q503 -74 511 -81T520 -104Q520 -108 520 -111T518 -122Q516 -136 510 -144T491 -160T459 -175T408 -191Q399 -194 388 -197T364 -205T341 -212T321
-218L312 -183Z" />
<glyph unicode="&#x147;" glyph-name="Ncaron" d="M148 695H251L356 260Q361 237 366 216T375 175T384 133T394 90H398Q404 138 410 182T425 273L507 695H578L443 0H340L235 435Q229 458 224 478T215 519T206 561T197 605H193Q187 557 181 513T165 422L84 0H13L148
695ZM542 888L640 826L759 888L780 842L630 758L511 842L542 888Z" />
<glyph unicode="&#x148;" glyph-name="ncaron" d="M127 490H192L184 416Q201 433 223 448T269 474T319 493T374 500Q436 500 466 471T496 384Q496 370 494 356T489 326L426 0H347L409 321Q411 332 413 343T415 368Q415 403 399 419T347 436Q307 436 264 410T176
335L110 0H33L127 490ZM517 736L599 646L709 734L738 696L588 569L479 696L517 736Z" />
<glyph unicode="&#x149;" glyph-name="napostrophe" d="M58 562Q76 585 94 612T126 661Q120 664 117 669T113 685Q113 689 113 694T115 704Q118 716 121 723T131 735T145 742T167 744Q188 744 196 738T205 717Q205 713 205 710T204 699Q201 685 197 676T184 654Q176
643 165 629T140 600T114 570T86 542L58 562ZM138 490H203L195 416Q213 433 234 448T279 474T329 493T384 500Q443 500 472 471T501 384Q501 370 499 356T494 326L431 0H353L415 321Q417 332 418 343T420 368Q420 403 404 419T353 436Q313 436 272 413T188 343L122
0H43L138 490Z" />
<glyph unicode="&#x14a;" glyph-name="Eng" d="M148 695H251L356 260Q361 237 366 217T375 176T384 134T394 90H398Q404 137 410 182T425 273L507 695H578L432 -58Q423 -105 408 -136T370 -188T320 -216T257 -224Q237 -224 220 -222T181 -215L195 -154Q211 -157
224 -158T253 -160Q292 -160 315 -138T352 -57L363 0H340L235 435Q229 457 225 477T215 518T206 560T197 605H193Q187 558 181 513T165 422L84 0H13L148 695Z" />
<glyph unicode="&#x14b;" glyph-name="eng" d="M127 490H192L184 416Q201 433 223 448T269 474T319 493T374 500Q436 500 466 471T496 384Q496 370 494 356T489 326L414 -56Q397 -144 352 -183T228 -223Q214 -223 198 -222T167 -218L179 -158Q191 -160 202 -161T224
-162Q270 -162 297 -138T336 -54L409 321Q411 332 413 343T415 368Q415 403 399 419T347 436Q307 436 264 410T176 335L110 0H33L127 490Z" />
<glyph unicode="&#x14c;" glyph-name="Omacron" d="M547 509Q547 474 542 433T528 348Q509 247 484 179T423 67T340 5T227 -14Q130 -14 86 33T42 186Q42 221 47 262T60 347Q80 448 105 516T166 628T249 690T362 709Q458 709 502 662T547 509ZM468 504Q468 579
442 612T352 645Q309 645 277 630T220 580T176 487T140 345Q136 326 133 305T127 264T123 225T121 191Q121 116 147 83T236 50Q279 50 311 65T368 115T413 208T449 350Q453 369 456 390T462 431T466 470T468 504ZM489 852H802L791 796H479L489 852Z" />
<glyph unicode="&#x14d;" glyph-name="omacron" d="M503 340Q503 319 501 297T493 246Q480 175 457 126T400 45T323 0T229 -14Q186 -14 153 -5T96 23T61 74T48 151Q48 170 50 193T58 244Q71 316 94 365T152 445T229 490T324 504Q366 504 399 496T455 468T490 417T503
340ZM424 335Q424 396 396 419T317 442Q283 442 255 433T204 402T165 341T136 245Q131 220 129 197T127 155Q127 94 155 71T236 48Q269 48 297 56T347 88T386 149T415 245Q420 270 422 293T424 335ZM484 680H742L731 621H473L484 680Z" />
<glyph unicode="&#x14e;" glyph-name="Obreve" d="M547 509Q547 474 542 433T528 348Q509 247 484 179T423 67T340 5T227 -14Q130 -14 86 33T42 186Q42 221 47 262T60 347Q80 448 105 516T166 628T249 690T362 709Q458 709 502 662T547 509ZM468 504Q468 579 442
612T352 645Q309 645 277 630T220 580T176 487T140 345Q136 326 133 305T127 264T123 225T121 191Q121 116 147 83T236 50Q279 50 311 65T368 115T413 208T449 350Q453 369 456 390T462 431T466 470T468 504ZM568 879Q565 852 581 833T634 814Q672 814 694 833T723
879H779Q775 854 763 833T732 796T686 770T627 760Q595 760 572 769T535 795T516 833T515 879H568Z" />
<glyph unicode="&#x14f;" glyph-name="obreve" d="M503 340Q503 319 501 297T493 246Q480 175 457 126T400 45T323 0T229 -14Q186 -14 153 -5T96 23T61 74T48 151Q48 170 50 193T58 244Q71 316 94 365T152 445T229 490T324 504Q366 504 399 496T455 468T490 417T503
340ZM424 335Q424 396 396 419T317 442Q283 442 255 433T204 402T165 341T136 245Q131 220 129 197T127 155Q127 94 155 71T236 48Q269 48 297 56T347 88T386 149T415 245Q420 270 422 293T424 335ZM551 714Q546 681 559 660T604 639Q633 639 654 660T681 714H738Q728
656 691 620T596 583Q537 583 512 619T496 714H551Z" />
<glyph unicode="&#x150;" glyph-name="Ohungarumlaut" d="M547 509Q547 474 542 433T528 348Q509 247 484 179T423 67T340 5T227 -14Q130 -14 86 33T42 186Q42 221 47 262T60 347Q80 448 105 516T166 628T249 690T362 709Q458 709 502 662T547 509ZM468 504Q468
579 442 612T352 645Q309 645 277 630T220 580T176 487T140 345Q136 326 133 305T127 264T123 225T121 191Q121 116 147 83T236 50Q279 50 311 65T368 115T413 208T449 350Q453 369 456 390T462 431T466 470T468 504ZM397 908L434 862L280 758L252 794L397 908ZM591
897L621 845L459 757L434 797L591 897Z" />
<glyph unicode="&#x151;" glyph-name="ohungarumlaut" d="M503 340Q503 319 501 297T493 246Q480 175 457 126T400 45T323 0T229 -14Q186 -14 153 -5T96 23T61 74T48 151Q48 170 50 193T58 244Q71 316 94 365T152 445T229 490T324 504Q366 504 399 496T455 468T490
417T503 340ZM424 335Q424 396 396 419T317 442Q283 442 255 433T204 402T165 341T136 245Q131 220 129 197T127 155Q127 94 155 71T236 48Q269 48 297 56T347 88T386 149T415 245Q420 270 422 293T424 335ZM348 742L396 703L267 575L230 603L348 742ZM508 734L553
691L414 573L380 604L508 734Z" />
<glyph unicode="&#x152;" glyph-name="OE" d="M353 634Q341 639 327 641T293 644Q264 644 240 633T195 590T154 500T116 345Q104 284 98 237T91 157Q91 97 110 74T175 51Q195 51 211 53T242 61L353 634ZM246 0Q227 -5 205 -8T158 -12Q123 -12 96 -4T51 23T23 74T15
153Q15 195 20 242T37 349Q59 461 85 531T142 640T213 693T299 707Q324 707 346 704T388 695H619L606 632H432L385 391H547L535 329H373L322 63H496L484 0H246Z" />
<glyph unicode="&#x153;" glyph-name="oe" d="M248 366Q248 409 234 425T196 442Q179 442 164 434T134 406T106 347T80 246Q73 209 70 179T66 124Q66 82 79 65T116 48Q133 48 148 56T179 85T207 144T233 244Q240 281 244 311T248 366ZM476 10Q446 1 416 -4T353
-10Q324 -10 304 -5T269 11T247 36T235 68Q214 32 184 9T106 -14Q54 -14 24 16T-6 119Q-6 145 -2 176T9 246Q23 322 42 372T84 452T137 492T200 504Q226 504 244 497T274 478T292 450T302 417Q312 435 325 450T355 477T394 496T443 503Q490 503 520 476T551 392Q551
357 539 328T497 277T419 243T300 230Q296 210 293 185T290 138Q290 92 307 72T368 52Q395 52 420 56T471 69L476 10ZM308 285Q359 285 392 293T445 314T473 345T481 384Q481 413 467 427T427 442Q408 442 391 432T358 403T331 354T308 285Z" />
<glyph unicode="&#x154;" glyph-name="Racute" d="M163 695H346Q404 695 444 686T510 660T546 618T557 561Q557 508 542 468T498 399T427 355T330 336L470 0H384L248 329H171L108 0H28L163 695ZM287 391Q338 391 374 401T432 431T465 481T476 549Q476 570 470
586T447 612T404 627T337 633H230L183 391H287ZM477 893L500 836L327 764L309 808L477 893Z" />
<glyph unicode="&#x155;" glyph-name="racute" d="M295 403Q338 450 384 476T476 503Q500 503 520 499T559 486L541 411Q522 422 503 427T457 433Q420 433 378 407T286 322L235 60H403L392 0H9L21 60H157L229 430H98L109 490H306L295 403ZM429 742L473 694L332
572L299 608L429 742Z" />
<glyph unicode="&#x156;" glyph-name="Rcommaaccent" d="M163 695H346Q404 695 444 686T510 660T546 618T557 561Q557 508 542 468T498 399T427 355T330 336L470 0H384L248 329H171L108 0H28L163 695ZM287 391Q338 391 374 401T432 431T465 481T476 549Q476 570
470 586T447 612T404 627T337 633H230L183 391H287ZM308 -183Q319 -178 336 -171T370 -156T403 -141T427 -129Q428 -100 439 -87T478 -74Q499 -74 507 -81T516 -104Q516 -108 516 -111T514 -122Q512 -136 506 -144T487 -160T455 -175T404 -191Q395 -194 384 -197T360
-205T337 -212T317 -218L308 -183Z" />
<glyph unicode="&#x157;" glyph-name="rcommaaccent" d="M295 403Q338 450 384 476T476 503Q500 503 520 499T559 486L541 411Q522 422 503 427T457 433Q420 433 378 407T286 322L235 60H403L392 0H9L21 60H157L229 430H98L109 490H306L295 403ZM267 -183Q278
-178 295 -171T329 -156T362 -141T386 -129Q387 -100 398 -87T437 -74Q458 -74 466 -81T475 -104Q475 -108 475 -111T473 -122Q471 -136 465 -144T446 -160T414 -175T363 -191Q354 -194 343 -197T319 -205T296 -212T276 -218L267 -183Z" />
<glyph unicode="&#x158;" glyph-name="Rcaron" d="M163 695H346Q404 695 444 686T510 660T546 618T557 561Q557 508 542 468T498 399T427 355T330 336L470 0H384L248 329H171L108 0H28L163 695ZM287 391Q338 391 374 401T432 431T465 481T476 549Q476 570 470
586T447 612T404 627T337 633H230L183 391H287ZM522 888L620 826L739 888L760 842L610 758L491 842L522 888Z" />
<glyph unicode="&#x159;" glyph-name="rcaron" d="M295 403Q338 450 384 476T476 503Q500 503 520 499T559 486L541 411Q522 422 503 427T457 433Q420 433 378 407T286 322L235 60H403L392 0H9L21 60H157L229 430H98L109 490H306L295 403ZM518 736L600 646L710
734L739 696L589 569L480 696L518 736Z" />
<glyph unicode="&#x15a;" glyph-name="Sacute" d="M38 75Q57 69 78 65T120 57T163 53T206 51Q309 51 357 88T406 190Q406 211 400 227T378 258T336 289T271 326Q227 350 197 369T148 409T121 455T113 513Q113 605 180 656T384 707Q404 707 425 706T467 701T506
694T543 686L526 623Q496 632 457 638T378 644Q282 644 238 612T193 525Q193 504 198 488T219 458T259 427T325 390Q370 366 400 346T450 305T478 260T486 202Q486 102 415 45T202 -12Q153 -12 110 -6T24 12L38 75ZM489 893L512 836L339 764L321 808L489 893Z"
/>
<glyph unicode="&#x15b;" glyph-name="sacute" d="M58 71Q94 61 137 55T223 49Q268 49 298 56T346 73T372 99T380 132Q380 148 375 159T355 180T316 200T252 223Q212 235 185 248T140 276T116 310T108 355Q108 385 120 411T160 458T230 489T333 500Q377 500 415
495T483 481L469 423Q439 431 403 436T326 441Q286 441 259 435T215 419T192 394T185 364Q185 350 190 340T208 320T245 301T305 280Q348 266 377 253T423 223T447 188T455 142Q455 109 443 82T401 34T327 2T216 -10Q171 -10 126 -4T45 12L58 71ZM424 742L468 694L327
572L294 608L424 742Z" />
<glyph unicode="&#x15c;" glyph-name="Scircumflex" d="M38 75Q57 69 78 65T120 57T163 53T206 51Q309 51 357 88T406 190Q406 211 400 227T378 258T336 289T271 326Q227 350 197 369T148 409T121 455T113 513Q113 605 180 656T384 707Q404 707 425 706T467 701T506
694T543 686L526 623Q496 632 457 638T378 644Q282 644 238 612T193 525Q193 504 198 488T219 458T259 427T325 390Q370 366 400 346T450 305T478 260T486 202Q486 102 415 45T202 -12Q153 -12 110 -6T24 12L38 75ZM399 895L518 811L487 766L389 827L270 766L249
811L399 895Z" />
<glyph unicode="&#x15d;" glyph-name="scircumflex" d="M58 71Q94 61 137 55T223 49Q268 49 298 56T346 73T372 99T380 132Q380 148 375 159T355 180T316 200T252 223Q212 235 185 248T140 276T116 310T108 355Q108 385 120 411T160 458T230 489T333 500Q377 500
415 495T483 481L469 423Q439 431 403 436T326 441Q286 441 259 435T215 419T192 394T185 364Q185 350 190 340T208 320T245 301T305 280Q348 266 377 253T423 223T447 188T455 142Q455 109 443 82T401 34T327 2T216 -10Q171 -10 126 -4T45 12L58 71ZM372 741L480
614L442 574L360 664L251 576L221 615L372 741Z" />
<glyph unicode="&#x15e;" glyph-name="Scedilla" d="M173 -11Q135 -9 96 -3T24 12L38 75Q57 69 78 65T120 57T163 53T206 51Q309 51 357 88T406 190Q406 211 400 227T378 258T336 289T271 326Q227 350 197 369T148 409T121 455T113 513Q113 605 180 656T384 707Q404
707 425 706T467 701T506 694T543 686L526 623Q496 632 457 638T378 644Q282 644 238 612T193 525Q193 504 198 488T219 458T259 427T325 390Q370 366 400 346T450 305T478 260T486 202Q486 104 418 49T227 -11L214 -54Q258 -55 278 -73T298 -122Q298 -142 289
-160T263 -192T219 -214T157 -222Q140 -222 123 -221T91 -215L102 -171Q116 -174 129 -175T159 -177Q201 -177 217 -161T234 -126Q234 -110 221 -102T173 -94H147L173 -11Z" />
<glyph unicode="&#x15f;" glyph-name="scedilla" d="M185 -9Q144 -7 108 -2T42 12L55 71Q91 61 134 55T220 49Q265 49 295 56T343 73T369 99T377 132Q377 148 372 159T352 180T313 200T249 223Q209 235 182 248T137 276T113 310T105 355Q105 385 117 411T157 458T227
489T330 500Q374 500 412 495T480 481L466 423Q436 431 400 436T323 441Q283 441 256 435T212 419T189 394T182 364Q182 350 187 340T205 320T242 301T302 280Q345 266 374 253T420 223T444 188T452 142Q452 76 400 36T237 -9L224 -54Q267 -55 285 -73T304 -121Q304
-142 295 -160T268 -192T225 -213T167 -221Q150 -221 134 -220T102 -214L113 -171Q127 -174 140 -175T171 -177Q210 -177 226 -161T242 -126Q242 -110 229 -102T183 -93H159L185 -9Z" />
<glyph unicode="&#x160;" glyph-name="Scaron" d="M38 75Q57 69 78 65T120 57T163 53T206 51Q309 51 357 88T406 190Q406 211 400 227T378 258T336 289T271 326Q227 350 197 369T148 409T121 455T113 513Q113 605 180 656T384 707Q404 707 425 706T467 701T506
694T543 686L526 623Q496 632 457 638T378 644Q282 644 238 612T193 525Q193 504 198 488T219 458T259 427T325 390Q370 366 400 346T450 305T478 260T486 202Q486 102 415 45T202 -12Q153 -12 110 -6T24 12L38 75ZM541 888L639 826L758 888L779 842L629 758L510
842L541 888Z" />
<glyph unicode="&#x161;" glyph-name="scaron" d="M58 71Q94 61 137 55T223 49Q268 49 298 56T346 73T372 99T380 132Q380 148 375 159T355 180T316 200T252 223Q212 235 185 248T140 276T116 310T108 355Q108 385 120 411T160 458T230 489T333 500Q377 500 415
495T483 481L469 423Q439 431 403 436T326 441Q286 441 259 435T215 419T192 394T185 364Q185 350 190 340T208 320T245 301T305 280Q348 266 377 253T423 223T447 188T455 142Q455 109 443 82T401 34T327 2T216 -10Q171 -10 126 -4T45 12L58 71ZM272 736L354 646L464
734L493 696L343 569L234 696L272 736Z" />
<glyph unicode="&#x162;" glyph-name="uni0162" d="M309 630H101L115 695H611L598 630H389L267 0H252L236 -54Q280 -55 300 -73T320 -122Q320 -142 311 -160T285 -192T241 -214T180 -222Q162 -222 145 -221T114 -215L124 -171Q138 -174 151 -175T182 -177Q223
-177 240 -161T257 -126Q257 -110 244 -102T196 -94H170L199 0H188L309 630Z" />
<glyph unicode="&#x163;" glyph-name="uni0163" d="M93 490H233L265 655L346 667L311 490H541L529 430H299L245 153Q243 141 242 133T240 116Q240 83 263 68T339 53Q379 53 409 59T455 71V13Q436 7 401 0T317 -8H311L296 -54Q339 -55 358 -73T377 -121Q377 -142
368 -160T341 -192T298 -213T240 -221Q222 -221 206 -220T175 -214L186 -171Q200 -174 213 -175T243 -177Q283 -177 298 -161T314 -126Q314 -110 301 -102T255 -93H232L261 -3Q213 5 187 29T161 101Q161 110 162 122T167 151L221 430H81L93 490Z" />
<glyph unicode="&#x164;" glyph-name="Tcaron" d="M309 630H101L115 695H611L598 630H389L267 0H188L309 630ZM531 888L629 826L748 888L769 842L619 758L500 842L531 888Z" />
<glyph unicode="&#x165;" glyph-name="tcaron" d="M228 490L260 655L340 667L306 490H535L524 430H294L240 153Q238 141 237 133T235 116Q235 83 258 68T334 53Q373 53 403 59T450 71V13Q430 7 394 0T310 -8Q229 -8 193 19T156 101Q156 110 157 122T162 151L216
430H81L93 490H228ZM531 793L597 770L487 584L441 600L531 793Z" />
<glyph unicode="&#x166;" glyph-name="Tbar" d="M250 325H104L115 385H262L309 630H101L115 695H611L598 630H389L341 385H488L477 325H330L267 0H188L250 325Z" />
<glyph unicode="&#x167;" glyph-name="tbar" d="M234 490L267 655L347 667L313 490H542L530 430H301L280 323H496L485 264H269L246 149Q244 138 243 131T242 116Q242 83 265 68T341 53Q380 53 410 59T457 71V13Q437 7 401 0T317 -8Q236 -8 200 19T163 101Q163
110 164 122T169 150L191 264H64L76 323H202L223 430H83L95 490H234Z" />
<glyph unicode="&#x168;" glyph-name="Utilde" d="M225 695L135 232Q130 210 128 191T125 154Q125 104 150 77T235 50Q277 50 306 61T355 96T389 155T411 237L501 695H580L489 230Q477 168 457 122T405 46T330 1T227 -14Q137 -14 92 26T46 149Q46 170 49 191T57
240L145 695H225ZM481 812Q503 838 529 854T590 870Q608 870 622 865T649 852T673 839T699 833Q716 833 733 841T767 868L797 834Q776 808 750 792T689 776Q670 776 656 782T630 794T606 807T580 813Q562 813 545 805T512 778L481 812Z" />
<glyph unicode="&#x169;" glyph-name="utilde" d="M366 74Q348 57 327 42T282 16T232 -3T176 -10Q115 -10 85 19T55 107Q55 120 56 134T61 164L124 490H203L141 170Q139 159 137 147T135 122Q135 87 151 71T204 54Q243 54 286 80T375 155L440 490H518L423 0H358L366
74ZM448 626Q458 643 469 658T494 683T523 699T556 705Q575 705 589 697T615 679T638 661T661 653Q677 653 692 665T722 702L759 674Q749 656 737 642T712 617T683 601T651 595Q632 595 618 602T592 620T569 638T546 647Q530 647 515 634T485 598L448 626Z" />
<glyph unicode="&#x16a;" glyph-name="Umacron" d="M225 695L135 232Q130 210 128 191T125 154Q125 104 150 77T235 50Q277 50 306 61T355 96T389 155T411 237L501 695H580L489 230Q477 168 457 122T405 46T330 1T227 -14Q137 -14 92 26T46 149Q46 170 49 191T57
240L145 695H225ZM489 852H802L791 796H479L489 852Z" />
<glyph unicode="&#x16b;" glyph-name="umacron" d="M366 74Q348 57 327 42T282 16T232 -3T176 -10Q115 -10 85 19T55 107Q55 120 56 134T61 164L124 490H203L141 170Q139 159 137 147T135 122Q135 87 151 71T204 54Q243 54 286 80T375 155L440 490H518L423 0H358L366
74ZM482 680H740L729 621H471L482 680Z" />
<glyph unicode="&#x16c;" glyph-name="Ubreve" d="M225 695L135 232Q130 210 128 191T125 154Q125 104 150 77T235 50Q277 50 306 61T355 96T389 155T411 237L501 695H580L489 230Q477 168 457 122T405 46T330 1T227 -14Q137 -14 92 26T46 149Q46 170 49 191T57
240L145 695H225ZM572 879Q569 852 585 833T638 814Q676 814 698 833T727 879H783Q779 854 767 833T736 796T690 770T631 760Q599 760 576 769T539 795T520 833T519 879H572Z" />
<glyph unicode="&#x16d;" glyph-name="ubreve" d="M366 74Q348 57 327 42T282 16T232 -3T176 -10Q115 -10 85 19T55 107Q55 120 56 134T61 164L124 490H203L141 170Q139 159 137 147T135 122Q135 87 151 71T204 54Q243 54 286 80T375 155L440 490H518L423 0H358L366
74ZM551 714Q546 681 559 660T604 639Q633 639 654 660T681 714H738Q728 656 691 620T596 583Q537 583 512 619T496 714H551Z" />
<glyph unicode="&#x16e;" glyph-name="Uring" d="M225 695L135 232Q130 210 128 191T125 154Q125 104 150 77T235 50Q277 50 306 61T355 96T389 155T411 237L501 695H580L489 230Q477 168 457 122T405 46T330 1T227 -14Q137 -14 92 26T46 149Q46 170 49 191T57
240L145 695H225ZM743 835Q743 813 735 794T713 761T679 739T637 731Q616 731 598 737T568 756T548 785T540 825Q540 848 548 866T570 899T603 921T646 929Q687 929 715 904T743 835ZM694 833Q694 859 681 872T644 885Q619 885 604 870T589 827Q589 802 602 789T639
775Q663 775 678 790T694 833Z" />
<glyph unicode="&#x16f;" glyph-name="uring" d="M366 74Q348 57 327 42T282 16T232 -3T176 -10Q115 -10 85 19T55 107Q55 120 56 134T61 164L124 490H203L141 170Q139 159 137 147T135 122Q135 87 151 71T204 54Q243 54 286 80T375 155L440 490H518L423 0H358L366
74ZM457 664Q457 640 449 621T427 587T393 564T351 555Q307 555 280 582T253 653Q253 676 261 696T283 730T317 753T359 761Q403 761 430 735T457 664ZM408 663Q408 688 395 703T358 718Q333 718 318 701T302 654Q302 628 315 614T352 599Q377 599 392 615T408
663Z" />
<glyph unicode="&#x170;" glyph-name="Uhungarumlaut" d="M225 695L135 232Q130 210 128 191T125 154Q125 104 150 77T235 50Q277 50 306 61T355 96T389 155T411 237L501 695H580L489 230Q477 168 457 122T405 46T330 1T227 -14Q137 -14 92 26T46 149Q46 170 49
191T57 240L145 695H225ZM397 908L434 862L280 758L252 794L397 908ZM591 897L621 845L459 757L434 797L591 897Z" />
<glyph unicode="&#x171;" glyph-name="uhungarumlaut" d="M366 74Q348 57 327 42T282 16T232 -3T176 -10Q115 -10 85 19T55 107Q55 120 56 134T61 164L124 490H203L141 170Q139 159 137 147T135 122Q135 87 151 71T204 54Q243 54 286 80T375 155L440 490H518L423
0H358L366 74ZM352 742L400 703L271 575L234 603L352 742ZM512 734L557 691L418 573L384 604L512 734Z" />
<glyph unicode="&#x172;" glyph-name="Uogonek" d="M225 695L135 232Q130 210 128 191T125 154Q125 104 150 77T235 50Q277 50 306 61T355 96T389 155T411 237L501 695H580L489 230Q480 180 466 144T433 80T391 34T339 1Q317 -10 294 -25T252 -59T221 -97T209
-135Q209 -167 250 -167Q268 -167 283 -164T313 -156L316 -208Q296 -214 274 -218T228 -222Q183 -222 161 -204T138 -149Q138 -127 148 -107T174 -68T209 -36T244 -11Q233 -12 228 -12T216 -12Q176 -12 144 -3T91 27T58 77T46 149Q46 170 49 192T57 240L145 695H225Z"
/>
<glyph unicode="&#x173;" glyph-name="uogonek" d="M423 0Q397 -16 374 -32T333 -66T305 -100T294 -136Q294 -153 305 -161T336 -169Q354 -169 370 -166T400 -157L402 -207Q382 -214 360 -218T315 -222Q270 -222 248 -203T225 -149Q225 -126 236 -105T266 -65T309
-28T358 3L367 75Q350 58 329 43T283 16T232 -3T176 -10Q115 -10 85 19T55 107Q55 120 56 134T61 164L124 490H203L141 170Q139 159 137 147T135 122Q135 87 151 71T204 54Q243 54 286 80T375 155L440 490H518L423 0Z" />
<glyph unicode="&#x174;" glyph-name="Wcircumflex" d="M158 695L132 277Q130 250 129 226T125 176T120 125T114 70H117Q126 99 136 128T160 194L284 535H378L370 194Q369 160 368 130T365 70H368Q376 99 384 125T399 176T414 226T431 277L568 695H638L412 0H302L310
341Q310 377 312 402T317 457H314Q310 443 306 430T298 403T288 374T276 341L153 0H44L88 695H158ZM651 895L770 811L739 766L641 827L522 766L501 811L651 895Z" />
<glyph unicode="&#x175;" glyph-name="wcircumflex" d="M130 490L126 203Q125 166 124 133T119 61H121Q131 84 139 105T157 150L256 383H348L356 150Q356 127 356 108T357 61H360Q372 100 383 133T409 203L517 490H591L402 0H300L292 233Q291 254 291 274T290
318H288Q279 295 271 276T254 233L155 0H54L55 490H130ZM619 741L727 614L689 574L607 664L498 576L468 615L619 741Z" />
<glyph unicode="&#x176;" glyph-name="Ycircumflex" d="M178 695L253 476Q266 435 274 407T292 342H294Q306 361 316 377T337 409T359 441T383 476L539 695H626L317 261L267 0H187L238 262L100 695H178ZM650 895L769 811L738 766L640 827L521 766L500 811L650 895Z" />
<glyph unicode="&#x177;" glyph-name="ycircumflex" d="M160 490L212 231Q216 208 219 188T226 148T231 108T238 65H239Q251 89 262 109T283 149T305 189T329 231L482 490H566L232 -71Q204 -117 181 -146T132 -193T80 -216T19 -223Q1 -223 -17 -221T-50 -215L-38
-155Q-23 -158 -8 -160T22 -162Q40 -162 57 -158T90 -144T122 -114T158 -65L198 0H176L79 490H160ZM619 741L727 614L689 574L607 664L498 576L468 615L619 741Z" />
<glyph unicode="&#x178;" glyph-name="Ydieresis" d="M178 695L253 476Q266 435 274 407T292 342H294Q306 361 316 377T337 409T359 441T383 476L539 695H626L317 261L267 0H187L238 262L100 695H178ZM576 844Q576 834 573 820Q570 808 567 799T557 785T541 778T517
775Q472 775 472 806Q472 816 476 830Q478 842 482 851T492 865T507 872T531 875Q576 875 576 844ZM805 844Q805 834 801 820Q799 808 795 799T785 785T769 778T746 775Q701 775 701 806Q701 816 704 830Q707 842 711 851T721 865T736 872T760 875Q805 875 805
844Z" />
<glyph unicode="&#x179;" glyph-name="Zacute" d="M14 59L465 630H138L151 695H579L567 636L114 65H464L452 0H3L14 59ZM501 893L524 836L351 764L333 808L501 893Z" />
<glyph unicode="&#x17a;" glyph-name="zacute" d="M28 51L401 428H120L132 490H523L513 442L138 62H447L436 0H18L28 51ZM435 742L479 694L338 572L305 608L435 742Z" />
<glyph unicode="&#x17b;" glyph-name="Zdotaccent" d="M14 59L465 630H138L151 695H579L567 636L114 65H464L452 0H3L14 59ZM445 843Q445 837 445 832T442 820Q440 807 436 799T425 785T409 778T385 775Q362 775 351 782T340 807Q340 813 341 818T343 830Q345
843 349 851T360 865T376 873T400 875Q424 875 434 868T445 843Z" />
<glyph unicode="&#x17c;" glyph-name="zdotaccent" d="M28 51L401 428H120L132 490H523L513 442L138 62H447L436 0H18L28 51ZM418 672Q418 666 418 661T416 650Q412 625 400 615T360 605Q336 605 325 612T314 637Q314 646 316 658Q320 683 332 693T373 704Q397
704 407 696T418 672Z" />
<glyph unicode="&#x17d;" glyph-name="Zcaron" d="M14 59L465 630H138L151 695H579L567 636L114 65H464L452 0H3L14 59ZM294 888L392 826L511 888L532 842L382 758L263 842L294 888Z" />
<glyph unicode="&#x17e;" glyph-name="zcaron" d="M28 51L401 428H120L132 490H523L513 442L138 62H447L436 0H18L28 51ZM275 736L357 646L467 734L496 696L346 569L237 696L275 736Z" />
<glyph unicode="&#x192;" glyph-name="florin" d="M233 391L250 485Q259 533 275 565T315 618T373 647T447 656Q477 656 504 652T555 641L540 581Q518 587 494 590T447 594Q423 594 404 589T370 571T345 536T329 482L311 391H478L467 332H300L244 50Q234 0 218
-33T179 -87T126 -116T58 -125Q35 -125 12 -122T-34 -113L-17 -53Q0 -58 19 -61T59 -64Q78 -64 94 -59T123 -40T147 -4T165 52L222 332H80L91 391H233Z" />
<glyph unicode="&#x1cd;" glyph-name="Acaron" d="M305 695H420L488 0H408L388 192H142L48 0H-33L305 695ZM387 255L370 444Q365 498 361 544T352 642H351Q339 616 329 592T307 545T284 497T258 444L168 255H387ZM534 888L632 826L751 888L772 842L622 758L503
842L534 888Z" />
<glyph unicode="&#x1ce;" glyph-name="acaron" d="M366 74Q348 57 327 42T281 16T231 -3T179 -10Q116 -10 79 28T42 144Q42 225 63 291T120 403T206 475T314 500Q354 500 386 489T443 461L452 490H517L422 0H358L366 74ZM422 403Q400 417 373 427T312 438Q270
438 235 416T174 354T135 264T121 155Q121 105 142 80T203 54Q222 54 243 61T286 81T331 113T374 155L422 403ZM526 736L608 646L718 734L747 696L597 569L488 696L526 736Z" />
<glyph unicode="&#x1cf;" glyph-name="Icaron" d="M34 65H200L310 630H145L158 695H569L556 630H390L280 65H444L432 0H22L34 65ZM536 888L634 826L753 888L774 842L624 758L505 842L536 888Z" />
<glyph unicode="&#x1d0;" glyph-name="icaron" d="M285 736L367 646L477 734L506 696L356 569L247 696L285 736ZM28 60H228L300 430H105L117 490H390L307 60H457L445 0H17L28 60Z" />
<glyph unicode="&#x1d1;" glyph-name="Ocaron" d="M547 509Q547 474 542 433T528 348Q509 247 484 179T423 67T340 5T227 -14Q130 -14 86 33T42 186Q42 221 47 262T60 347Q80 448 105 516T166 628T249 690T362 709Q458 709 502 662T547 509ZM468 504Q468 579 442
612T352 645Q309 645 277 630T220 580T176 487T140 345Q136 326 133 305T127 264T123 225T121 191Q121 116 147 83T236 50Q279 50 311 65T368 115T413 208T449 350Q453 369 456 390T462 431T466 470T468 504ZM538 888L636 826L755 888L776 842L626 758L507 842L538
888Z" />
<glyph unicode="&#x1d2;" glyph-name="ocaron" d="M503 340Q503 319 501 297T493 246Q480 175 457 126T400 45T323 0T229 -14Q186 -14 153 -5T96 23T61 74T48 151Q48 170 50 193T58 244Q71 316 94 365T152 445T229 490T324 504Q366 504 399 496T455 468T490 417T503
340ZM424 335Q424 396 396 419T317 442Q283 442 255 433T204 402T165 341T136 245Q131 220 129 197T127 155Q127 94 155 71T236 48Q269 48 297 56T347 88T386 149T415 245Q420 270 422 293T424 335ZM520 736L602 646L712 734L741 696L591 569L482 696L520 736Z"
/>
<glyph unicode="&#x1d3;" glyph-name="Ucaron" d="M225 695L135 232Q130 210 128 191T125 154Q125 104 150 77T235 50Q277 50 306 61T355 96T389 155T411 237L501 695H580L489 230Q477 168 457 122T405 46T330 1T227 -14Q137 -14 92 26T46 149Q46 170 49 191T57
240L145 695H225ZM537 888L635 826L754 888L775 842L625 758L506 842L537 888Z" />
<glyph unicode="&#x1d4;" glyph-name="ucaron" d="M366 74Q348 57 327 42T282 16T232 -3T176 -10Q115 -10 85 19T55 107Q55 120 56 134T61 164L124 490H203L141 170Q139 159 137 147T135 122Q135 87 151 71T204 54Q243 54 286 80T375 155L440 490H518L423 0H358L366
74ZM519 736L601 646L711 734L740 696L590 569L481 696L519 736Z" />
<glyph unicode="&#x1e2;" glyph-name="AEmacron" d="M293 695H619L606 632H439L393 391H547L536 329H381L330 63H496L484 0H238L275 194H126L33 0H-47L293 695ZM287 256L360 634H338L154 256H287ZM304 852H617L606 796H294L304 852Z" />
<glyph unicode="&#x1e3;" glyph-name="aemacron" d="M230 232Q176 232 143 221T92 193T68 155T62 113Q62 80 78 66T117 51Q143 51 167 65T218 111Q218 141 220 170T230 232ZM86 477Q117 488 149 493T212 499Q237 499 254 494T283 479T300 456T308 429Q330 461
361 482T443 503Q490 503 520 476T551 392Q551 357 539 328T497 277T419 243T300 230Q295 207 293 183T290 138Q290 92 307 72T368 52Q395 52 420 56T471 69L476 10Q446 1 416 -4T353 -10Q299 -10 272 7T234 53Q204 22 172 6T100 -10Q79 -10 60 -4T25 17T1 52T-9
104Q-9 137 1 170T39 229T115 272T239 288Q240 296 243 307T249 330T254 355T256 376Q256 409 241 423T195 438Q169 438 144 433T91 418L86 477ZM308 285Q359 285 392 293T445 314T473 345T481 384Q481 413 467 427T427 442Q404 442 386 430T353 396T327 346T308
285ZM480 680H738L727 621H469L480 680Z" />
<glyph unicode="&#x1e6;" glyph-name="Gcaron" d="M445 22Q427 15 404 9T355 -1T303 -9T252 -12Q202 -12 163 -2T97 31T56 92T42 190Q42 225 46 263T60 348Q81 450 112 519T187 629T282 688T397 706Q443 706 484 700T559 683L541 622Q509 630 472 636T395 642Q348
642 309 629T238 582T181 491T139 345Q130 302 126 265T121 194Q121 151 130 124T158 80T202 58T261 52Q293 52 324 57T377 71L427 327H282L295 389H516L445 22ZM305 888L403 826L522 888L543 842L393 758L274 842L305 888Z" />
<glyph unicode="&#x1e7;" glyph-name="gcaron" d="M422 403Q400 417 373 427T312 438Q270 438 235 416T174 354T135 264T121 155Q121 105 142 80T203 54Q222 54 243 61T286 81T331 113T374 155L422 403ZM418 -24Q407 -77 385 -115T330 -177T250 -212T143 -223Q106
-223 72 -219T6 -207L17 -147Q48 -154 80 -158T147 -162Q230 -162 278 -131T342 -20Q347 6 351 25T362 69L361 70Q345 54 325 40T281 15T231 -3T179 -10Q116 -10 79 28T42 144Q42 225 63 291T120 403T206 475T314 500Q354 500 386 489T443 461L452 490H517L418
-24ZM526 736L608 646L718 734L747 696L597 569L488 696L526 736Z" />
<glyph unicode="&#x1e8;" glyph-name="Kcaron" d="M172 695H251L187 366L517 695H613L268 354L488 0H397L183 346L116 0H37L172 695ZM288 888L386 826L505 888L526 842L376 758L257 842L288 888Z" />
<glyph unicode="&#x1e9;" glyph-name="kcaron" d="M183 738H261L172 282L450 490H552L254 266L466 0H372L168 258L118 0H40L183 738ZM287 896L385 834L504 896L525 850L375 766L256 850L287 896Z" />
<glyph unicode="&#x1f4;" glyph-name="Gacute" d="M445 22Q427 15 404 9T355 -1T303 -9T252 -12Q202 -12 163 -2T97 31T56 92T42 190Q42 225 46 263T60 348Q81 450 112 519T187 629T282 688T397 706Q443 706 484 700T559 683L541 622Q509 630 472 636T395 642Q348
642 309 629T238 582T181 491T139 345Q130 302 126 265T121 194Q121 151 130 124T158 80T202 58T261 52Q293 52 324 57T377 71L427 327H282L295 389H516L445 22ZM515 893L538 836L365 764L347 808L515 893Z" />
<glyph unicode="&#x1f5;" glyph-name="gacute" d="M422 403Q400 417 373 427T312 438Q270 438 235 416T174 354T135 264T121 155Q121 105 142 80T203 54Q222 54 243 61T286 81T331 113T374 155L422 403ZM418 -24Q407 -77 385 -115T330 -177T250 -212T143 -223Q106
-223 72 -219T6 -207L17 -147Q48 -154 80 -158T147 -162Q230 -162 278 -131T342 -20Q347 6 351 25T362 69L361 70Q345 54 325 40T281 15T231 -3T179 -10Q116 -10 79 28T42 144Q42 225 63 291T120 403T206 475T314 500Q354 500 386 489T443 461L452 490H517L418
-24ZM432 742L476 694L335 572L302 608L432 742Z" />
<glyph unicode="&#x1f8;" glyph-name="Ngrave" d="M148 695H251L356 260Q361 237 366 216T375 175T384 133T394 90H398Q404 138 410 182T425 273L507 695H578L443 0H340L235 435Q229 458 224 478T215 519T206 561T197 605H193Q187 557 181 513T165 422L84 0H13L148
695ZM532 899L688 808L662 763L500 842L532 899Z" />
<glyph unicode="&#x1f9;" glyph-name="ngrave" d="M127 490H192L184 416Q201 433 223 448T269 474T319 493T374 500Q436 500 466 471T496 384Q496 370 494 356T489 326L426 0H347L409 321Q411 332 413 343T415 368Q415 403 399 419T347 436Q307 436 264 410T176
335L110 0H33L127 490ZM541 748L638 604L598 571L489 707L541 748Z" />
<glyph unicode="&#x1fc;" glyph-name="AEacute" d="M293 695H619L606 632H439L393 391H547L536 329H381L330 63H496L484 0H238L275 194H126L33 0H-47L293 695ZM287 256L360 634H338L154 256H287ZM554 893L577 836L404 764L386 808L554 893Z" />
<glyph unicode="&#x1fd;" glyph-name="aeacute" d="M230 232Q176 232 143 221T92 193T68 155T62 113Q62 80 78 66T117 51Q143 51 167 65T218 111Q218 141 220 170T230 232ZM86 477Q117 488 149 493T212 499Q237 499 254 494T283 479T300 456T308 429Q330 461 361
482T443 503Q490 503 520 476T551 392Q551 357 539 328T497 277T419 243T300 230Q295 207 293 183T290 138Q290 92 307 72T368 52Q395 52 420 56T471 69L476 10Q446 1 416 -4T353 -10Q299 -10 272 7T234 53Q204 22 172 6T100 -10Q79 -10 60 -4T25 17T1 52T-9 104Q-9
137 1 170T39 229T115 272T239 288Q240 296 243 307T249 330T254 355T256 376Q256 409 241 423T195 438Q169 438 144 433T91 418L86 477ZM308 285Q359 285 392 293T445 314T473 345T481 384Q481 413 467 427T427 442Q404 442 386 430T353 396T327 346T308 285ZM431
742L475 694L334 572L301 608L431 742Z" />
<glyph unicode="&#x1fe;" glyph-name="Oslashacute" d="M454 913L498 865L357 743L324 779L454 913ZM74 50Q57 75 50 107T42 186Q42 221 47 262T60 347Q80 448 105 516T166 628T249 690T362 709Q398 709 425 703T472 682L534 781L584 754L515 645Q532 621 539
588T547 509Q547 474 542 434T528 348Q509 247 484 179T423 67T340 5T227 -14Q191 -14 164 -8T117 13L55 -85L5 -58L74 50ZM438 626Q422 638 402 644T353 650Q307 650 274 634T214 583T169 489T132 345Q124 305 119 264T113 191Q113 172 114 156T120 124L438 626ZM151
69Q167 57 187 51T236 45Q281 45 314 61T374 112T419 206T456 350Q464 390 470 431T476 504Q476 523 475 539T469 571L151 69Z" />
<glyph unicode="&#x1ff;" glyph-name="oslashacute" d="M420 742L464 694L323 572L290 608L420 742ZM88 31Q72 48 60 76T48 151Q48 170 50 193T58 244Q71 316 94 365T152 445T229 490T324 504Q354 504 378 500T418 486L477 568L522 540L463 459Q480 441 491 412T503
340Q503 320 501 297T493 246Q480 175 457 126T400 45T323 0T229 -14Q200 -14 176 -10T133 4L67 -86L23 -58L88 31ZM170 57Q184 50 200 48T236 45Q269 45 297 54T347 86T387 148T417 245Q422 270 424 293T426 335Q426 353 424 367T416 394L170 57ZM381 433Q367
440 351 443T316 446Q282 446 254 436T204 403T164 342T134 245Q129 220 127 197T125 155Q125 138 127 124T135 97L381 433Z" />
<glyph unicode="&#x218;" glyph-name="Scommaaccent" d="M38 75Q57 69 78 65T120 57T163 53T206 51Q309 51 357 88T406 190Q406 211 400 227T378 258T336 289T271 326Q227 350 197 369T148 409T121 455T113 513Q113 605 180 656T384 707Q404 707 425 706T467 701T506
694T543 686L526 623Q496 632 457 638T378 644Q282 644 238 612T193 525Q193 504 198 488T219 458T259 427T325 390Q370 366 400 346T450 305T478 260T486 202Q486 102 415 45T202 -12Q153 -12 110 -6T24 12L38 75ZM306 -183Q317 -178 334 -171T368 -156T401 -141T425
-129Q426 -100 437 -87T476 -74Q497 -74 505 -81T514 -104Q514 -108 514 -111T512 -122Q510 -136 504 -144T485 -160T453 -175T402 -191Q393 -194 382 -197T358 -205T335 -212T315 -218L306 -183Z" />
<glyph unicode="&#x219;" glyph-name="scommaaccent" d="M58 71Q94 61 137 55T223 49Q268 49 298 56T346 73T372 99T380 132Q380 148 375 159T355 180T316 200T252 223Q212 235 185 248T140 276T116 310T108 355Q108 385 120 411T160 458T230 489T333 500Q377
500 415 495T483 481L469 423Q439 431 403 436T326 441Q286 441 259 435T215 419T192 394T185 364Q185 350 190 340T208 320T245 301T305 280Q348 266 377 253T423 223T447 188T455 142Q455 109 443 82T401 34T327 2T216 -10Q171 -10 126 -4T45 12L58 71ZM308 -183Q319
-178 336 -171T370 -156T403 -141T427 -129Q428 -100 439 -87T478 -74Q499 -74 507 -81T516 -104Q516 -108 516 -111T514 -122Q512 -136 506 -144T487 -160T455 -175T404 -191Q395 -194 384 -197T360 -205T337 -212T317 -218L308 -183Z" />
<glyph unicode="&#x21a;" glyph-name="Tcommaaccent" d="M309 630H101L115 695H611L598 630H389L267 0H188L309 630ZM303 -183Q314 -178 331 -171T365 -156T398 -141T422 -129Q423 -100 434 -87T473 -74Q494 -74 502 -81T511 -104Q511 -108 511 -111T509 -122Q507
-136 501 -144T482 -160T450 -175T399 -191Q390 -194 379 -197T355 -205T332 -212T312 -218L303 -183Z" />
<glyph unicode="&#x21b;" glyph-name="tcommaaccent" d="M233 490L265 655L346 667L311 490H541L529 430H299L245 153Q243 141 242 133T240 116Q240 83 263 68T339 53Q379 53 409 59T455 71V13Q436 7 400 0T315 -8Q234 -8 198 19T161 101Q161 110 162 122T167
151L221 430H81L93 490H233ZM89 -183Q100 -178 117 -171T151 -156T184 -141T208 -129Q209 -100 220 -87T259 -74Q280 -74 288 -81T297 -104Q297 -108 297 -111T295 -122Q293 -136 287 -144T268 -160T236 -175T185 -191Q176 -194 165 -197T141 -205T118 -212T98
-218L89 -183Z" />
<glyph unicode="&#x21e;" glyph-name="Hcaron" d="M150 695H230L171 393H436L496 695H576L441 0H361L424 328H158L95 0H15L150 695ZM537 888L635 826L754 888L775 842L625 758L506 842L537 888Z" />
<glyph unicode="&#x21f;" glyph-name="hcaron" d="M176 738H253L219 562Q216 546 213 528T205 492T196 455T188 421L189 420Q206 436 227 450T271 476T320 493T374 500Q436 500 466 471T496 384Q496 370 494 356T489 326L426 0H347L409 321Q411 332 413 343T415
368Q415 403 399 419T347 436Q307 436 264 410T176 335L110 0H33L176 738ZM537 896L635 834L754 896L775 850L625 766L506 850L537 896Z" />
<glyph unicode="&#x226;" glyph-name="Adotaccent" d="M305 695H420L488 0H408L388 192H142L48 0H-33L305 695ZM387 255L370 444Q365 498 361 544T352 642H351Q339 616 329 592T307 545T284 497T258 444L168 255H387ZM689 843Q689 837 689 832T686 820Q684 807
680 799T669 785T653 778T629 775Q606 775 595 782T584 807Q584 813 585 818T587 830Q589 843 593 851T604 865T620 873T644 875Q668 875 678 868T689 843Z" />
<glyph unicode="&#x227;" glyph-name="adotaccent" d="M366 74Q348 57 327 42T281 16T231 -3T179 -10Q116 -10 79 28T42 144Q42 225 63 291T120 403T206 475T314 500Q354 500 386 489T443 461L452 490H517L422 0H358L366 74ZM422 403Q400 417 373 427T312 438Q270
438 235 416T174 354T135 264T121 155Q121 105 142 80T203 54Q222 54 243 61T286 81T331 113T374 155L422 403ZM407 672Q407 666 407 661T405 650Q401 625 389 615T349 605Q325 605 314 612T303 637Q303 646 305 658Q309 683 321 693T362 704Q386 704 396 696T407
672Z" />
<glyph unicode="&#x22e;" glyph-name="Odotaccent" d="M547 509Q547 474 542 433T528 348Q509 247 484 179T423 67T340 5T227 -14Q130 -14 86 33T42 186Q42 221 47 262T60 347Q80 448 105 516T166 628T249 690T362 709Q458 709 502 662T547 509ZM468 504Q468 579
442 612T352 645Q309 645 277 630T220 580T176 487T140 345Q136 326 133 305T127 264T123 225T121 191Q121 116 147 83T236 50Q279 50 311 65T368 115T413 208T449 350Q453 369 456 390T462 431T466 470T468 504ZM692 843Q692 837 692 832T689 820Q687 807 683
799T672 785T656 778T632 775Q609 775 598 782T587 807Q587 813 588 818T590 830Q592 843 596 851T607 865T623 873T647 875Q671 875 681 868T692 843Z" />
<glyph unicode="&#x22f;" glyph-name="odotaccent" d="M503 340Q503 319 501 297T493 246Q480 175 457 126T400 45T323 0T229 -14Q186 -14 153 -5T96 23T61 74T48 151Q48 170 50 193T58 244Q71 316 94 365T152 445T229 490T324 504Q366 504 399 496T455 468T490
417T503 340ZM424 335Q424 396 396 419T317 442Q283 442 255 433T204 402T165 341T136 245Q131 220 129 197T127 155Q127 94 155 71T236 48Q269 48 297 56T347 88T386 149T415 245Q420 270 422 293T424 335ZM654 672Q654 666 654 661T652 650Q648 625 636 615T596
605Q572 605 561 612T550 637Q550 646 552 658Q556 683 568 693T609 704Q633 704 643 696T654 672Z" />
<glyph unicode="&#x232;" glyph-name="Ymacron" d="M178 695L253 476Q266 435 274 407T292 342H294Q306 361 316 377T337 409T359 441T383 476L539 695H626L317 261L267 0H187L238 262L100 695H178ZM489 852H802L791 796H479L489 852Z" />
<glyph unicode="&#x233;" glyph-name="ymacron" d="M160 490L212 231Q216 208 219 188T226 148T231 108T238 65H239Q251 89 262 109T283 149T305 189T329 231L482 490H566L232 -71Q204 -117 181 -146T132 -193T80 -216T19 -223Q1 -223 -17 -221T-50 -215L-38 -155Q-23
-158 -8 -160T22 -162Q40 -162 57 -158T90 -144T122 -114T158 -65L198 0H176L79 490H160ZM482 680H740L729 621H471L482 680Z" />
<glyph unicode="&#x237;" glyph-name="dotlessj" d="M125 430L136 490H455L352 -42Q343 -88 325 -122T278 -179T206 -213T103 -224Q68 -224 35 -221T-25 -212L-12 -152Q11 -157 41 -160T103 -163Q146 -163 176 -155T226 -130T257 -91T275 -35L365 430H125Z" />
<glyph unicode="&#x2bc;" glyph-name="apostrophe" d="M276 562Q294 584 313 611T346 659Q339 663 336 669T332 687Q332 690 332 694T334 704Q336 715 339 722T348 735T362 742T384 744Q406 744 414 737T422 715Q422 712 422 709T421 699Q419 685 415 676T402
654Q384 631 358 600T304 541L276 562Z" />
<glyph unicode="&#x2c6;" glyph-name="circumflex" d="M367 741L475 614L437 574L355 664L246 576L216 615L367 741Z" />
<glyph unicode="&#x2c7;" glyph-name="caron" d="M271 736L353 646L463 734L492 696L342 569L233 696L271 736Z" />
<glyph unicode="&#x2c9;" glyph-name="macron" d="M230 680H488L477 621H219L230 680Z" />
<glyph unicode="&#x2d8;" glyph-name="breve" d="M300 714Q295 681 308 660T353 639Q382 639 403 660T430 714H487Q477 656 440 620T345 583Q286 583 261 619T245 714H300Z" />
<glyph unicode="&#x2d9;" glyph-name="dotaccent" d="M406 672Q406 666 406 661T404 650Q400 625 388 615T348 605Q324 605 313 612T302 637Q302 646 304 658Q308 683 320 693T361 704Q385 704 395 696T406 672Z" />
<glyph unicode="&#x2da;" glyph-name="ring" d="M457 664Q457 640 449 621T427 587T393 564T351 555Q307 555 280 582T253 653Q253 676 261 696T283 730T317 753T359 761Q403 761 430 735T457 664ZM408 663Q408 688 395 703T358 718Q333 718 318 701T302 654Q302
628 315 614T352 599Q377 599 392 615T408 663Z" />
<glyph unicode="&#x2db;" glyph-name="ogonek" d="M307 0Q281 -16 258 -32T217 -66T188 -100T177 -136Q177 -153 188 -161T220 -169Q238 -169 253 -166T283 -157L286 -207Q266 -214 244 -218T198 -222Q153 -222 131 -203T109 -149Q109 -126 120 -105T149 -65T190
-30T237 0H307Z" />
<glyph unicode="&#x2dc;" glyph-name="tilde" d="M198 626Q208 643 219 658T244 683T273 699T306 705Q325 705 339 697T365 679T388 661T411 653Q427 653 442 665T472 702L509 674Q499 656 487 642T462 617T433 601T401 595Q382 595 368 602T342 620T319 638T296
647Q280 647 265 634T235 598L198 626Z" />
<glyph unicode="&#x2dd;" glyph-name="hungarumlaut" d="M308 742L356 703L227 575L190 603L308 742ZM468 734L513 691L374 573L340 604L468 734Z" />
<glyph unicode="&#x312;" glyph-name="uni0312" d="M455 694Q444 689 427 682T393 668T360 653T336 640Q335 612 324 599T285 585Q264 585 256 592T247 615Q247 619 247 623T249 633Q251 646 257 655T276 671T308 685T359 702Q367 705 378 709T402 716T425 723T446
730L455 694Z" />
<glyph unicode="&#x315;" glyph-name="uni0315" d="M358 774L423 756L338 563L290 578L358 774Z" />
<glyph unicode="&#x326;" glyph-name="uni0326" d="M84 -183Q95 -178 112 -171T146 -156T179 -141T203 -129Q204 -100 215 -87T254 -74Q275 -74 283 -81T292 -104Q292 -108 292 -111T290 -122Q288 -136 282 -144T263 -160T231 -175T180 -191Q171 -194 160 -197T136
-205T113 -212T93 -218L84 -183Z" />
<glyph unicode="&#x394;" glyph-name="Delta" d="M305 695H420L488 0H-33L305 695ZM406 63L371 441Q365 495 361 542T352 642H351Q339 616 328 592T306 544T283 495T257 443L73 63H406Z" />
<glyph unicode="&#x3a9;" glyph-name="Omega" d="M-11 63H110Q98 77 87 94T69 134T56 184T51 247Q51 275 54 305T65 372Q83 471 111 535T176 639T260 693T363 709Q457 709 504 662T550 513Q550 479 546 446T534 369Q523 310 506 263T467 178T423 113T373 63H502L490
0H276L288 63Q317 82 343 110T390 176T427 261T454 368Q462 410 466 441T471 505Q471 581 442 613T354 645Q317 645 285 632T226 587T178 499T142 360Q139 342 137 326T132 295T129 264T128 233Q128 199 132 173T145 126T165 91T192 63L180 0H-23L-11 63Z" />
<glyph unicode="&#x3bc;" glyph-name="mu" d="M124 490H203L141 170Q139 159 137 147T135 122Q135 87 151 71T204 54Q243 54 286 80T375 155L441 490H518L423 0H358L366 73Q349 57 330 42T288 16T242 -2T192 -9Q160 -9 141 0T110 28L109 27Q105 -4 101 -34T90
-94L67 -214H-11L124 490Z" />
<glyph unicode="&#x3c0;" glyph-name="pi" d="M137 430H66L78 490H567L556 430H486L403 0H329L412 430H211L128 0H54L137 430Z" />
<glyph unicode="&#x1e9e;" glyph-name="uni1E9E" d="M149 695H548L536 638L364 412Q433 400 471 357T510 244Q510 187 493 141T443 61T364 9T261 -9Q233 -9 209 -6T163 4L177 63Q198 59 216 56T258 53Q299 53 330 66T383 104T416 163T427 237Q427 263 419 285T392
324T343 349T271 359L281 415L448 632H216L94 0H14L149 695Z" />
<glyph unicode="&#x2013;" glyph-name="endash" d="M52 297H518L505 230H39L52 297Z" />
<glyph unicode="&#x2014;" glyph-name="emdash" d="M10 297H560L547 230H-3L10 297Z" />
<glyph unicode="&#x2015;" glyph-name="uni2015" d="M10 297H560L547 230H-3L10 297Z" />
<glyph unicode="&#x2018;" glyph-name="quoteleft" d="M527 745Q480 704 440 667T366 590Q373 586 378 579T383 558Q383 552 382 546T380 533Q377 517 372 507T360 489T340 480T311 477Q282 477 269 486T256 517Q256 523 256 529T259 542Q261 553 263 561T269
574T276 585T286 598Q300 616 324 638T376 685T436 734T497 782L527 745Z" />
<glyph unicode="&#x2019;" glyph-name="quoteright" d="M194 482Q241 523 280 560T355 637Q348 641 344 648T339 669Q339 675 339 681T341 694Q344 711 349 721T361 738T380 747T411 749Q440 749 452 740T465 710Q465 704 464 698T462 685Q460 674 458 667T452
653T445 642T435 629Q421 612 398 589T346 542T286 493T225 446L194 482Z" />
<glyph unicode="&#x201a;" glyph-name="quotesinglbase" d="M30 -155Q77 -115 117 -78T192 -1Q184 4 180 11T175 32Q175 38 175 44T178 56Q181 73 185 83T198 100T217 109T247 112Q276 112 288 103T301 73Q301 67 301 61T299 48Q296 37 294 29T288 15T281 4T272
-8Q257 -26 234 -48T182 -95T122 -144T61 -192L30 -155Z" />
<glyph unicode="&#x201c;" glyph-name="quotedblleft" d="M396 741Q350 701 315 666T244 588Q252 584 256 578T260 559Q260 553 260 547T258 535Q254 520 250 510T239 494T221 486T195 483Q169 483 158 491T147 518Q147 525 147 530T149 543Q153 563 158 574T175
597Q191 616 212 637T259 682T311 728T366 774L396 741ZM613 741Q568 701 533 666T462 588Q469 584 473 578T478 559Q478 553 478 547T475 535Q472 520 468 510T457 494T440 486T413 483Q387 483 376 491T365 518Q365 525 365 530T367 543Q371 563 376 574T393
597Q409 616 430 637T477 682T529 728T584 774L613 741Z" />
<glyph unicode="&#x201d;" glyph-name="quotedblright" d="M105 493Q149 532 185 567T256 645Q248 649 244 655T240 675Q240 680 240 686T242 698Q246 713 250 723T261 739T278 748T305 751Q331 751 342 743T353 715Q353 709 353 703T351 691Q347 671 342 660T324
636Q309 618 288 596T241 551T189 505T134 460L105 493ZM322 493Q367 532 403 567T473 645Q466 649 462 655T458 675Q458 680 458 686T460 698Q463 713 467 723T479 739T496 748T523 751Q549 751 560 743T571 715Q571 709 571 703T569 691Q565 671 560 660T542
636Q527 618 506 596T459 551T407 505T352 460L322 493Z" />
<glyph unicode="&#x201e;" glyph-name="quotedblbase" d="M-52 -154Q-8 -114 28 -79T99 -2Q92 2 88 9T83 28Q83 34 83 39T86 51Q89 66 93 76T104 93T121 101T148 104Q174 104 185 96T197 68Q197 63 197 57T194 44Q190 24 185 14T168 -10Q152 -29 131 -50T85 -95T32
-142T-23 -187L-52 -154ZM166 -154Q210 -114 246 -79T317 -2Q309 2 305 9T301 28Q301 34 301 39T303 51Q307 66 311 76T322 93T339 101T366 104Q392 104 403 96T414 68Q414 63 414 57T412 44Q408 24 403 14T385 -10Q370 -29 349 -50T302 -95T250 -142T195 -187L166
-154Z" />
<glyph unicode="&#x2020;" glyph-name="dagger" d="M266 401H97L108 461H278L313 644H390L355 461H526L514 401H343L266 0H189L266 401Z" />
<glyph unicode="&#x2021;" glyph-name="daggerdbl" d="M221 170H51L63 230H233L269 415H99L111 475H281L313 644H390L357 475H528L516 415H346L310 230H481L468 170H298L266 0H189L221 170Z" />
<glyph unicode="&#x2022;" glyph-name="bullet" d="M391 393Q391 386 391 377T388 358Q382 331 375 314T355 287T326 272T282 268Q240 268 222 282T203 328Q203 336 204 345T207 364Q212 390 219 407T239 435T269 450T312 454Q355 454 373 440T391 393Z" />
<glyph unicode="&#x2026;" glyph-name="ellipsis" d="M111 65Q111 56 109 44Q106 29 102 19T92 4T75 -5T50 -8Q26 -8 16 -1T6 25Q6 33 9 46Q11 61 15 70T26 86T42 94T67 97Q91 97 101 90T111 65ZM288 65Q288 56 286 44Q283 29 279 19T269 4T252 -5T227 -8Q204
-8 194 -1T184 25Q184 33 186 46Q189 61 193 70T203 86T220 94T245 97Q268 97 278 90T288 65ZM466 65Q466 56 463 44Q461 29 457 19T446 4T429 -5T404 -8Q381 -8 371 -1T361 25Q361 33 363 46Q366 61 370 70T380 86T397 94T422 97Q446 97 456 90T466 65Z" />
<glyph unicode="&#x2030;" glyph-name="perthousand" d="M554 421L560 381L37 278L30 319L554 421ZM312 563Q312 552 311 541T307 517Q300 480 288 455T259 415T220 393T171 386Q126 386 102 406T78 475Q78 485 79 496T82 521Q89 558 101 583T130 623T170 645T219
652Q264 652 288 632T312 563ZM259 561Q259 588 247 599T213 610Q185 610 166 592T136 521Q134 507 133 497T131 477Q131 450 143 439T176 428Q191 428 202 432T223 446T240 473T253 517Q256 531 257 541T259 561ZM235 169Q235 159 234 148T230 123Q224 86 212
61T183 21T143 -1T94 -8Q49 -8 25 12T1 81Q1 92 2 103T6 127Q12 164 24 189T54 229T93 251T142 258Q188 258 211 238T235 169ZM183 167Q183 194 171 205T137 216Q108 216 90 198T59 127Q57 113 56 103T54 83Q54 56 66 45T100 34Q114 34 126 38T147 52T164 79T177
123Q180 137 181 147T183 167ZM502 169Q502 159 501 148T497 123Q491 86 479 61T450 21T410 -1T361 -8Q315 -8 292 12T268 81Q268 92 269 103T273 127Q279 164 291 189T321 229T360 251T409 258Q454 258 478 238T502 169ZM449 167Q449 194 437 205T403 216Q375
216 356 198T326 127Q324 113 323 103T321 83Q321 56 333 45T366 34Q381 34 392 38T413 52T430 79T443 123Q446 137 447 147T449 167Z" />
<glyph unicode="&#x2039;" glyph-name="guilsinglleft" d="M100 248L414 467L452 419L204 242L380 61L330 20L100 248Z" />
<glyph unicode="&#x203a;" glyph-name="guilsinglright" d="M450 239L136 20L98 69L346 245L170 427L220 467L450 239Z" />
<glyph unicode="&#x2044;" glyph-name="fraction" d="M505 664L543 639L52 -19L14 5L505 664Z" />
<glyph unicode="&#x2070;" glyph-name="zero.superior" d="M497 583Q497 570 495 554T490 521Q481 469 464 434T422 378T365 348T294 339Q232 339 196 368T159 461Q159 474 160 490T165 523Q175 575 192 610T234 666T291 696T362 705Q424 705 460 676T497 583ZM398
654Q390 657 380 659T355 661Q332 661 312 655T275 634T245 592T224 523Q221 509 219 495T217 466Q217 451 219 439T227 415L398 654ZM257 390Q266 387 276 385T300 383Q323 383 343 389T380 410T410 452T432 521Q434 535 436 549T438 578Q438 593 436 605T428
629L257 390Z" />
<glyph unicode="&#x2074;" glyph-name="four.superior" d="M158 475L370 696H459L416 473H484L474 420H406L392 348H330L344 420H147L158 475ZM353 473L386 643L221 473H353Z" />
<glyph unicode="&#x2075;" glyph-name="five.superior" d="M476 696L467 647H300L282 553Q295 555 307 555T333 556Q392 556 421 534T451 469Q451 438 437 415T399 375T341 351T266 342Q239 342 214 344T166 351L175 399Q196 395 219 393T264 391Q318 391 349
408T381 462Q381 485 363 497T302 510Q281 510 261 509T215 505L252 696H476Z" />
<glyph unicode="&#x2076;" glyph-name="six.superior" d="M466 645Q447 649 425 651T384 653Q352 653 331 646T295 623T271 588T255 541Q275 551 298 556T345 561Q399 561 428 538T457 472Q457 441 445 417T411 375T360 349T298 339Q241 339 210 366T179 444Q179
458 180 469T183 495Q192 545 206 583T245 648T306 688T394 702Q416 702 438 700T478 693L466 645ZM394 466Q394 493 377 504T328 515Q310 515 289 511T246 495Q242 482 241 471T239 446Q239 414 256 401T304 387Q321 387 337 392T366 408T386 432T394 466Z" />
<glyph unicode="&#x2077;" glyph-name="seven.superior" d="M224 696H503L494 647Q462 607 435 571T380 499T327 426T273 348H200Q231 393 259 431T313 504T367 574T423 643H214L224 696Z" />
<glyph unicode="&#x2078;" glyph-name="eight.superior" d="M454 446Q454 397 413 368T303 339Q239 339 205 364T170 429Q170 449 179 465T202 493T234 515T271 530Q215 558 215 608Q215 632 226 650T256 680T302 698T359 705Q417 705 449 682T481 625Q481 588
455 566T391 528Q418 516 436 496T454 446ZM339 550Q376 561 398 576T421 616Q421 635 404 647T353 660Q320 660 298 648T276 611Q276 591 290 578T339 550ZM323 507Q284 496 258 479T231 434Q231 411 251 398T307 385Q349 385 370 402T392 443Q392 463 376 478T323
507Z" />
<glyph unicode="&#x2079;" glyph-name="nine.superior" d="M180 401Q200 396 224 394T273 391Q304 391 326 398T362 420T386 456T402 503Q381 493 359 488T312 483Q258 483 229 506T200 572Q200 603 212 627T246 669T297 695T359 705Q416 705 447 678T479 600Q479
586 478 575T474 549Q465 499 451 461T412 396T351 356T263 342Q238 342 213 345T168 353L180 401ZM263 578Q263 551 281 540T329 529Q347 529 368 533T412 549Q415 562 416 573T418 598Q418 630 401 643T353 657Q335 657 319 652T291 636T271 612T263 578Z" />
<glyph unicode="&#x2080;" glyph-name="zero.inferior" d="M430 235Q430 222 428 206T423 173Q414 121 397 86T355 30T298 0T227 -9Q165 -9 129 20T92 113Q92 126 93 142T98 175Q108 227 125 262T167 318T224 348T295 357Q357 357 393 328T430 235ZM331 306Q323
309 313 311T288 313Q265 313 245 307T208 286T178 244T157 175Q154 161 152 147T150 118Q150 103 152 91T160 67L331 306ZM190 42Q199 39 209 37T233 35Q256 35 276 41T313 62T343 104T365 173Q367 187 369 201T371 230Q371 245 369 257T361 281L190 42Z" />
<glyph unicode="&#x2081;" glyph-name="one.inferior" d="M94 51H217L262 284L143 250L133 293L285 348H338L281 51H394L384 0H84L94 51Z" />
<glyph unicode="&#x2082;" glyph-name="two.inferior" d="M102 47L219 132Q244 150 264 165T299 196T322 225T330 256Q330 278 315 290T265 302Q242 302 220 299T174 290L172 340Q226 354 286 354Q346 354 374 332T403 269Q403 246 394 226T368 187T328 150T277
113L191 53H372L362 0H93L102 47Z" />
<glyph unicode="&#x2083;" glyph-name="three.inferior" d="M109 52Q131 47 155 45T199 43Q256 43 286 59T316 107Q316 119 310 128T289 144T249 154T185 158L194 205Q236 205 263 210T307 224T330 244T337 267Q337 287 321 296T267 305Q246 305 224 302T177 294L174
341Q202 347 229 350T281 354Q347 354 375 333T403 276Q403 257 396 242T375 215T344 195T307 183Q344 178 363 159T383 109Q383 57 337 26T203 -6Q177 -6 151 -4T99 4L109 52Z" />
<glyph unicode="&#x2084;" glyph-name="four.inferior" d="M90 127L302 348H391L348 125H416L406 72H338L324 0H262L276 72H79L90 127ZM285 125L318 295L153 125H285Z" />
<glyph unicode="&#x2085;" glyph-name="five.inferior" d="M408 348L399 299H232L214 205Q227 207 239 207T265 208Q324 208 353 186T383 121Q383 90 369 67T331 27T273 3T198 -6Q171 -6 146 -4T98 3L107 51Q128 47 151 45T196 43Q250 43 281 60T313 114Q313 137
295 149T234 162Q213 162 193 161T147 157L184 348H408Z" />
<glyph unicode="&#x2086;" glyph-name="six.inferior" d="M399 297Q380 301 358 303T317 305Q285 305 264 298T228 275T204 240T188 193Q208 203 231 208T278 213Q332 213 361 190T390 124Q390 93 378 69T344 27T293 1T231 -9Q174 -9 143 18T112 96Q112 110 113
121T116 147Q125 197 139 235T178 300T239 340T327 354Q349 354 371 352T411 345L399 297ZM327 118Q327 145 310 156T261 167Q243 167 222 163T179 147Q175 134 174 123T172 98Q172 66 189 53T237 39Q254 39 270 44T299 60T319 84T327 118Z" />
<glyph unicode="&#x2087;" glyph-name="seven.inferior" d="M156 348H435L426 299Q394 259 367 223T312 151T259 78T205 0H132Q163 45 191 83T245 156T299 226T355 295H146L156 348Z" />
<glyph unicode="&#x2088;" glyph-name="eight.inferior" d="M387 98Q387 49 346 20T236 -9Q172 -9 138 16T103 81Q103 101 112 117T135 145T167 167T204 182Q148 210 148 260Q148 284 159 302T189 332T235 350T292 357Q350 357 382 334T414 277Q414 240 388 218T324
180Q351 168 369 148T387 98ZM272 202Q309 213 331 228T354 268Q354 287 337 299T286 312Q253 312 231 300T209 263Q209 243 223 230T272 202ZM256 159Q217 148 191 131T164 86Q164 63 184 50T240 37Q282 37 303 54T325 95Q325 115 309 130T256 159Z" />
<glyph unicode="&#x2089;" glyph-name="nine.inferior" d="M113 53Q133 48 157 46T206 43Q237 43 259 50T295 72T319 108T335 155Q314 145 292 140T245 135Q191 135 162 158T133 224Q133 255 145 279T179 321T230 347T292 357Q349 357 380 330T412 252Q412 238
411 227T407 201Q398 151 384 113T345 48T284 8T196 -6Q171 -6 146 -3T101 5L113 53ZM196 230Q196 203 214 192T262 181Q280 181 301 185T345 201Q348 214 349 225T351 250Q351 282 334 295T286 309Q268 309 252 304T224 288T204 264T196 230Z" />
<glyph unicode="&#x20ac;" glyph-name="Euro" d="M46 275H120Q124 295 129 322T140 372H65L76 428H155Q177 500 207 544T276 613T360 647T458 656Q500 656 532 651T592 638L574 577Q549 584 519 588T450 593Q415 593 384 588T325 565T274 515T234 428H462L451
372H217Q211 350 206 323T197 275H432L420 218H193Q191 209 191 202T191 187Q191 150 200 124T227 82T273 58T340 51Q378 51 410 56T472 69L475 9Q445 1 408 -5T328 -12Q267 -12 226 0T160 38T125 99T114 185Q114 193 114 201T115 218H35L46 275Z" />
<glyph unicode="&#x2116;" glyph-name="uni2116" d="M95 644H167L209 256Q213 215 215 178T220 93L222 94Q225 118 228 139T233 180T239 220T247 261L321 644H375L250 0H178L136 388Q132 429 130 466T124 551L122 550Q119 526 117 505T111 464T105 425T97 383L24
0H-30L95 644ZM593 565Q593 532 584 484Q575 435 563 403T536 352T500 325T454 317Q417 317 397 335T377 401Q377 433 386 481Q395 530 407 562T434 613T470 641T516 649Q553 649 573 630T593 565ZM543 563Q543 588 535 597T510 606Q498 606 488 602T470 584T453
546T438 481Q433 454 430 436T427 402Q427 377 435 368T461 359Q473 359 483 363T501 381T516 419T533 484Q538 512 540 530T543 563ZM360 275H530L522 232H351L360 275Z" />
<glyph unicode="&#x2117;" glyph-name="uni2117" d="M221 513H331Q391 513 416 490T442 424Q442 389 432 360T402 310T352 277T279 265H235L206 118H144L221 513ZM282 312Q334 312 356 341T379 419Q379 443 365 453T319 464H274L245 312H282ZM567 434Q567 350
548 270T487 127T381 26T228 -13Q179 -13 139 1T71 42T28 112T13 211Q13 295 32 375T93 517T199 618T352 657Q401 657 441 643T509 602T552 532T567 434ZM506 430Q506 513 467 557T346 601Q272 601 221 567T137 478T89 354T74 214Q74 131 113 87T234 43Q308 43
359 77T443 167T491 291T506 430Z" />
<glyph unicode="&#x2120;" glyph-name="servicemark" d="M42 395Q56 390 72 387T107 383Q141 383 161 400T182 443Q182 452 181 460T174 475T160 491T136 509Q102 533 90 553T77 598Q77 646 108 673T198 700Q217 700 233 698T264 690L253 650Q241 655 227 657T196
660Q161 660 143 646T125 606Q125 598 127 591T134 576T148 562T172 544Q204 522 217 502T230 452Q230 429 223 409T199 375T160 352T105 343Q85 343 66 346T31 356L42 395ZM329 695H401L416 535L423 454L463 537L539 695H615L560 348H512L549 572L565 657L524
572L449 418H386L371 572L363 657L346 572L296 348H249L329 695Z" />
<glyph unicode="&#x2122;" glyph-name="trademark" d="M163 653H88L96 695H291L282 653H212L152 348H104L163 653ZM330 695H401L416 535L423 454L463 537L539 695H615L560 348H512L549 572L565 657L524 572L449 418H386L371 572L363 657L346 572L296 348H249L330 695Z" />
<glyph unicode="&#x2126;" glyph-name="Omega" d="M-11 63H110Q98 77 87 94T69 134T56 184T51 247Q51 275 54 305T65 372Q83 471 111 535T176 639T260 693T363 709Q457 709 504 662T550 513Q550 479 546 446T534 369Q523 310 506 263T467 178T423 113T373 63H502L490
0H276L288 63Q317 82 343 110T390 176T427 261T454 368Q462 410 466 441T471 505Q471 581 442 613T354 645Q317 645 285 632T226 587T178 499T142 360Q139 342 137 326T132 295T129 264T128 233Q128 199 132 173T145 126T165 91T192 63L180 0H-23L-11 63Z" />
<glyph unicode="&#x2153;" glyph-name="onethird" d="M756 664L794 639L303 -19L265 5L756 664ZM182 580L121 549L104 585L204 644H255L195 331H134L182 580ZM291 47Q317 41 344 41Q379 41 400 56T421 99Q421 121 404 131T344 142L353 186Q397 186 419 201T442
242Q442 272 400 272Q388 272 375 271T346 264V309Q365 314 383 316T418 319Q463 319 484 300T505 252Q505 235 499 222T483 198T460 180T435 167Q459 162 471 144T484 101Q484 55 449 25T354 -6Q335 -6 316 -4T282 2L291 47Z" />
<glyph unicode="&#x2154;" glyph-name="twothirds" d="M522 664L560 639L69 -19L31 5L522 664ZM57 378L134 452Q169 484 189 510T210 566Q210 601 170 601Q156 601 142 599T114 591L113 637Q132 643 153 646T195 650Q235 650 256 631T278 578Q278 538 252 503T187
435L127 382H246L236 331H49L57 378ZM298 47Q324 41 351 41Q386 41 407 56T428 99Q428 121 411 131T351 142L360 186Q404 186 426 201T449 242Q449 272 407 272Q395 272 382 271T353 264V309Q372 314 390 316T425 319Q470 319 491 300T512 252Q512 235 506 222T490
198T467 180T442 167Q466 162 478 144T491 101Q491 55 456 25T361 -6Q342 -6 323 -4T289 2L298 47Z" />
<glyph unicode="&#x2155;" glyph-name="onefifths" d="M753 664L791 639L300 -19L262 5L753 664ZM175 580L114 549L97 585L197 644H248L188 331H127L175 580ZM511 313L502 266H391L375 187Q382 188 389 188T404 189Q444 189 464 168T485 110Q485 59 448 27T347
-6Q329 -6 311 -4T276 2L285 47Q313 41 343 41Q383 41 402 59T422 105Q422 144 374 144Q361 144 348 143T317 139L350 313H511Z" />
<glyph unicode="&#x2156;" glyph-name="twofifths" d="M521 664L559 639L68 -19L30 5L521 664ZM57 378L134 452Q169 484 189 510T210 566Q210 601 170 601Q156 601 142 599T114 591L113 637Q132 643 153 646T195 650Q235 650 256 631T278 578Q278 538 252 503T187
435L127 382H246L236 331H49L57 378ZM519 313L510 266H399L383 187Q390 188 397 188T412 189Q452 189 472 168T493 110Q493 59 456 27T355 -6Q337 -6 319 -4T284 2L293 47Q321 41 351 41Q391 41 410 59T430 105Q430 144 382 144Q369 144 356 143T325 139L358 313H519Z"
/>
<glyph unicode="&#x2157;" glyph-name="threefifths" d="M507 664L545 639L54 -19L16 5L507 664ZM519 313L510 266H399L383 187Q390 188 397 188T412 189Q452 189 472 168T493 110Q493 59 456 27T355 -6Q337 -6 319 -4T284 2L293 47Q321 41 351 41Q391 41 410
59T430 105Q430 144 382 144Q369 144 356 143T325 139L358 313H519ZM61 378Q87 372 114 372Q149 372 170 387T191 430Q191 452 174 462T114 473L123 517Q167 517 189 532T212 573Q212 603 170 603Q158 603 145 602T116 595V640Q135 645 153 647T188 650Q233 650
254 631T275 583Q275 566 269 553T253 529T230 511T205 498Q229 493 241 475T254 432Q254 386 219 356T124 325Q105 325 86 327T52 333L61 378Z" />
<glyph unicode="&#x2158;" glyph-name="fourfifths" d="M526 311L517 265H405L390 186Q397 187 404 187T419 188Q458 188 479 167T500 109Q500 58 463 26T365 -6Q346 -6 328 -5T294 1L302 46Q332 40 361 40Q401 40 420 58T440 104Q440 144 392 144Q379 144 366
143T335 139L368 311H526ZM63 451L216 644H294L256 444H294L285 397H247L235 337H182L193 397H53L63 451ZM202 444L232 599L110 444H202ZM531 664L569 639L77 -19L39 5L531 664Z" />
<glyph unicode="&#x2159;" glyph-name="onesixth" d="M758 664L796 639L305 -19L267 5L758 664ZM178 580L117 549L100 585L200 644H251L191 331H130L178 580ZM496 266Q482 269 469 271T441 273Q415 273 399 266T373 245T357 215T347 178Q362 185 377 188T409 192Q445
192 465 173T485 117Q485 90 476 67T451 28T413 2T364 -8Q318 -8 298 16T277 86Q277 97 278 110T282 135Q291 180 302 214T332 271T378 307T445 319Q479 319 507 312L496 266ZM431 111Q431 150 391 150Q379 150 367 148T339 136Q336 126 333 111T330 85Q330 59
340 48T369 36Q394 36 412 56T431 111Z" />
<glyph unicode="&#x215a;" glyph-name="fivesixths" d="M512 664L550 639L59 -19L21 5L512 664ZM503 266Q489 269 476 271T448 273Q422 273 406 266T380 245T364 215T354 178Q369 185 384 188T416 192Q452 192 472 173T492 117Q492 90 483 67T458 28T420 2T371
-8Q325 -8 305 16T284 86Q284 97 285 110T289 135Q298 180 309 214T339 271T385 307T452 319Q486 319 514 312L503 266ZM438 111Q438 150 398 150Q386 150 374 148T346 136Q343 126 340 111T337 85Q337 59 347 48T376 36Q401 36 419 56T438 111ZM286 644L277 597H166L150
518Q157 519 164 519T179 520Q219 520 239 499T260 441Q260 390 223 358T122 325Q104 325 86 327T51 333L60 378Q88 372 118 372Q158 372 177 390T197 436Q197 475 149 475Q136 475 123 474T92 470L125 644H286Z" />
<glyph unicode="&#x215b;" glyph-name="oneeighth" d="M750 664L788 639L297 -19L259 5L750 664ZM178 580L117 549L100 585L200 644H251L191 331H130L178 580ZM482 90Q481 45 448 19T365 -8Q316 -8 292 14T268 72Q268 89 274 103T291 128T315 148T344 164Q325
176 316 192T306 229Q306 252 314 269T338 297T373 315T415 321Q463 321 484 301T505 251Q505 217 484 197T435 164Q457 152 469 134T482 90ZM398 183Q420 193 436 209T452 245Q452 261 442 270T409 280Q388 280 374 268T359 233Q359 217 367 206T398 183ZM383
143Q358 131 340 114T321 75Q321 54 334 44T369 34Q393 34 410 48T427 87Q427 122 383 143Z" />
<glyph unicode="&#x215c;" glyph-name="threeeighths" d="M505 664L543 639L52 -19L14 5L505 664ZM489 90Q488 45 455 19T372 -8Q323 -8 299 14T275 72Q275 89 281 103T298 128T322 148T351 164Q332 176 323 192T313 229Q313 252 321 269T345 297T380 315T422
321Q470 321 491 301T512 251Q512 217 491 197T442 164Q464 152 476 134T489 90ZM405 183Q427 193 443 209T459 245Q459 261 449 270T416 280Q395 280 381 268T366 233Q366 217 374 206T405 183ZM390 143Q365 131 347 114T328 75Q328 54 341 44T376 34Q400 34 417
48T434 87Q434 122 390 143ZM61 378Q87 372 114 372Q149 372 170 387T191 430Q191 452 174 462T114 473L123 517Q167 517 189 532T212 573Q212 603 170 603Q158 603 145 602T116 595V640Q135 645 153 647T188 650Q233 650 254 631T275 583Q275 566 269 553T253
529T230 511T205 498Q229 493 241 475T254 432Q254 386 219 356T124 325Q105 325 86 327T52 333L61 378Z" />
<glyph unicode="&#x215d;" glyph-name="fiveeighths" d="M506 664L544 639L53 -19L15 5L506 664ZM286 644L277 597H166L150 518Q157 519 164 519T179 520Q219 520 239 499T260 441Q260 390 223 358T122 325Q104 325 86 327T51 333L60 378Q88 372 118 372Q158 372
177 390T197 436Q197 475 149 475Q136 475 123 474T92 470L125 644H286ZM489 90Q488 45 455 19T372 -8Q323 -8 299 14T275 72Q275 89 281 103T298 128T322 148T351 164Q332 176 323 192T313 229Q313 252 321 269T345 297T380 315T422 321Q470 321 491 301T512 251Q512
217 491 197T442 164Q464 152 476 134T489 90ZM405 183Q427 193 443 209T459 245Q459 261 449 270T416 280Q395 280 381 268T366 233Q366 217 374 206T405 183ZM390 143Q365 131 347 114T328 75Q328 54 341 44T376 34Q400 34 417 48T434 87Q434 122 390 143Z" />
<glyph unicode="&#x215e;" glyph-name="seveneighths" d="M736 664L774 639L283 -19L245 5L736 664ZM489 90Q488 45 455 19T372 -8Q323 -8 299 14T275 72Q275 89 281 103T298 128T322 148T351 164Q332 176 323 192T313 229Q313 252 321 269T345 297T380 315T422
321Q470 321 491 301T512 251Q512 217 491 197T442 164Q464 152 476 134T489 90ZM405 183Q427 193 443 209T459 245Q459 261 449 270T416 280Q395 280 381 268T366 233Q366 217 374 206T405 183ZM390 143Q365 131 347 114T328 75Q328 54 341 44T376 34Q400 34 417
48T434 87Q434 122 390 143ZM108 644H319L310 598Q287 562 266 530T225 466T185 401T143 331H81Q104 370 124 404T165 469T206 531T247 594H99L108 644Z" />
<glyph unicode="&#x2190;" glyph-name="arrowleft" d="M267 623L316 580L155 412L122 380H545V316H125L158 284L318 117L267 73L5 348L267 623Z" />
<glyph unicode="&#x2191;" glyph-name="arrowup" d="M240 534L211 503L65 357L22 400L275 653L528 400L484 356L339 500L310 531V42H240V534Z" />
<glyph unicode="&#x2192;" glyph-name="arrowright" d="M5 380H425L392 412L232 579L283 623L545 348L283 73L234 115L395 284L428 316H5V380Z" />
<glyph unicode="&#x2193;" glyph-name="arrowdown" d="M66 333L211 189L240 157V647H310V155L339 186L485 332L528 289L275 35L22 289L66 333Z" />
<glyph unicode="&#x2194;" glyph-name="arrowboth" d="M150 582L203 551L116 412L94 379H454L432 412L346 550L400 582L545 348L400 113L347 144L434 283L456 316H96L118 283L204 145L150 113L5 348L150 582Z" />
<glyph unicode="&#x2195;" glyph-name="arrowupdn" d="M83 220L211 93L241 63V634L211 604L82 476L39 519L275 752L511 519L467 474L339 601L309 632V60L339 91L468 219L511 176L275 -57L39 176L83 220Z" />
<glyph unicode="&#x2196;" glyph-name="arrownorthwest" d="M42 572H425V510H208L150 512L517 145L471 98L109 460L110 401V174H42V572Z" />
<glyph unicode="&#x2197;" glyph-name="arrownortheast" d="M400 512L342 510H125V572H508V174H440V401L441 460L79 98L33 145L400 512Z" />
<glyph unicode="&#x2198;" glyph-name="arrowsoutheast" d="M125 165H342L400 163L33 531L79 578L441 215L440 274V501H508V103H125V165Z" />
<glyph unicode="&#x2199;" glyph-name="arrowsouthwest" d="M42 501H110V274L109 215L471 578L517 531L150 163L208 165H425V103H42V501Z" />
<glyph unicode="&#x2202;" glyph-name="partialdiff" d="M280 752Q324 752 358 741T418 711T462 666T490 609T506 543T511 471Q511 423 507 369T491 260T459 157T408 69T332 9T228 -14Q143 -14 100 28T56 160Q56 194 62 232T80 307T113 379T163 438T230 479T316
495Q356 495 385 488T435 471Q435 519 427 559T399 629T347 675T267 693L280 752ZM236 48Q291 48 327 81T386 166T419 281T432 405Q409 418 382 426T320 434Q282 434 254 421T205 385T170 334T148 275T137 216T133 163Q133 99 159 74T236 48Z" />
<glyph unicode="&#x2206;" glyph-name="Delta" d="M305 695H420L488 0H-33L305 695ZM406 63L371 441Q365 495 361 542T352 642H351Q339 616 328 592T306 544T283 495T257 443L73 63H406Z" />
<glyph unicode="&#x220f;" glyph-name="product" d="M190 677H102L114 738H628L616 677H527L355 -214H281L453 677H264L91 -214H17L190 677Z" />
<glyph unicode="&#x2211;" glyph-name="summation" d="M-32 -157L294 284L142 677L153 738H588L576 677H227L384 279L62 -153H425L413 -214H-43L-32 -157Z" />
<glyph unicode="&#x2212;" glyph-name="minus" d="M63 317H514L503 256H51L63 317Z" />
<glyph unicode="&#x221a;" glyph-name="radical" d="M118 430H68L79 490H190L218 222Q220 198 221 179T224 139T228 99T231 55H232Q242 79 251 99T269 138T287 178T307 222L534 695H612L277 0H166L118 430Z" />
<glyph unicode="&#x221e;" glyph-name="infinity" d="M553 326Q553 282 541 245T508 182T459 142T398 127Q372 127 352 135T317 156T292 189T272 232Q238 184 201 155T114 126Q88 126 69 135T38 161T19 200T13 250Q13 295 25 331T58 394T107 434T168 449Q194 449
214 441T249 420T274 387T294 344Q328 392 365 421T452 450Q478 450 497 441T528 415T547 376T553 326ZM250 287Q234 333 215 359T162 386Q146 386 131 377T103 351T84 309T77 256Q77 225 89 207T127 189Q158 189 188 214T250 287ZM316 289Q332 243 351 217T404
190Q420 190 435 199T463 226T482 267T489 320Q489 351 477 369T439 387Q408 387 378 363T316 289Z" />
<glyph unicode="&#x222b;" glyph-name="integral'" d="M-36 -158Q-19 -161 -3 -162T32 -163Q94 -163 127 -137T173 -43L292 573Q302 622 320 655T365 710T429 740T515 750Q534 750 554 749T592 744L580 682Q563 685 547 686T511 688Q449 688 416 661T371 567L251
-49Q232 -146 179 -185T28 -225Q9 -225 -10 -224T-48 -220L-36 -158Z" />
<glyph unicode="&#x2248;" glyph-name="approxequal" d="M38 185Q65 218 99 238T181 259Q213 259 235 250T277 230T315 209T358 200Q393 200 415 215T457 252L494 210Q466 177 432 157T351 136Q319 136 297 145T255 165T217 186T174 195Q139 195 117 180T75 143L38
185ZM75 375Q101 408 135 428T217 449Q249 449 272 440T313 420T351 399T394 390Q429 390 451 404T493 442L530 399Q502 367 468 346T387 325Q355 325 333 334T291 355T253 376T210 385Q176 385 154 370T111 333L75 375Z" />
<glyph unicode="&#x2260;" glyph-name="notequal" d="M369 350L267 224H486L474 162H221L117 31L69 62L150 162H44L55 224H195L297 350H79L91 411H342L446 542L496 511L414 411H522L511 350H369Z" />
<glyph unicode="&#x2264;" glyph-name="lessequal" d="M24 60H455L443 0H12L24 60ZM87 389L555 578L541 505L150 350L481 193L467 128L74 319L87 389Z" />
<glyph unicode="&#x2265;" glyph-name="greaterequal" d="M24 60H455L443 0H12L24 60ZM51 199L443 357L111 511L124 578L518 389L505 319L37 128L51 199Z" />
<glyph unicode="&#x25ae;" glyph-name="uni25AE" d="M0 1050H550V-250H0V1050Z" />
<glyph unicode="&#x25ca;" glyph-name="lozenge" d="M73 371L318 738H423L525 367L282 0H177L73 371ZM448 371L360 683L152 367L237 55L448 371Z" />
<glyph unicode="&#xf8ff;" glyph-name="" d="M106 263Q106 299 119 330T154 384T208 420T275 433Q311 433 342 420T396 385T432 331T445 263Q445 227 432 196T397 143T343 107T275 94Q239 94 208 107T155 142T119 196T106 263ZM279 336H326L331 320Q335 307 344
307Q354 307 354 321V337V340Q354 353 351 356Q347 360 337 360H227Q214 360 214 350Q214 340 227 336L243 331V200Q243 178 228 178Q221 178 217 181T210 189T204 197T196 201Q188 201 184 196T179 184Q179 172 190 164T222 155Q279 155 279 217V250H312L314 243Q317
232 325 232Q335 232 335 244V280Q335 293 325 293Q317 293 314 282L312 274H279V336Z" />
</font>
</defs>
</svg>
