<?xml version="1.0" encoding="iso-8859-1"?>
<!-- Generator: Adobe Illustrator 17.0.0, SVG Export Plug-In . SVG Version: 6.00 Build 0)  -->
<!DOCTYPE svg PUBLIC "-//W3C//DTD SVG 1.1//EN" "http://www.w3.org/Graphics/SVG/1.1/DTD/svg11.dtd">
<svg version="1.1" id="Capa_1" xmlns="http://www.w3.org/2000/svg" xmlns:xlink="http://www.w3.org/1999/xlink" x="0px" y="0px"
	 width="64px" height="64px" viewBox="0 0 64 64" style="enable-background:new 0 0 64 64;" xml:space="preserve">
<g>
	<path d="M34.606,27.046c0-0.913-0.137-1.793-0.384-2.626c-0.23-1.629-0.746-3.265-1.518-4.764
		c-3.684-7.151-9.102-11.702-9.102-11.702s-0.077,3.859-3.046,7.3c-5.5,6.371-4.395,12.789-4.395,12.789l0.001,0.001
		c0.498,4.639,4.423,8.253,9.194,8.253C30.464,36.296,34.606,32.155,34.606,27.046z M20.737,20.366
		c-0.115,0.073-2.68,1.767-2.327,7.293c0.017,0.275-0.191,0.513-0.467,0.531c-0.011,0-0.021,0.001-0.032,0.001
		c-0.262,0-0.481-0.204-0.498-0.468c-0.394-6.18,2.67-8.128,2.801-8.208c0.234-0.146,0.543-0.07,0.688,0.166
		C21.044,19.915,20.971,20.221,20.737,20.366z"/>
	<path d="M44.496,39.054c0-0.543-0.081-1.065-0.228-1.561c-0.137-0.968-0.443-1.94-0.902-2.831c-2.189-4.25-5.409-6.954-5.409-6.954
		s-0.046,2.293-1.811,4.338c-3.269,3.786-2.612,7.6-2.612,7.6l0,0.001c0.296,2.756,2.629,4.904,5.464,4.904
		C42.035,44.55,44.496,42.089,44.496,39.054z M36.255,35.084c-0.068,0.043-1.592,1.05-1.383,4.334
		c0.01,0.164-0.114,0.305-0.278,0.315c-0.006,0-0.013,0-0.019,0c-0.156,0-0.286-0.121-0.296-0.278
		c-0.234-3.672,1.587-4.83,1.665-4.878c0.139-0.086,0.323-0.042,0.409,0.098C36.437,34.816,36.394,34.998,36.255,35.084z"/>
	<path d="M36.552,51.189c-0.094-0.667-0.305-1.335-0.621-1.948c-1.507-2.925-3.723-4.787-3.723-4.787s-0.031,1.579-1.246,2.986
		c-2.25,2.606-1.798,5.231-1.798,5.231l0,0.001c0.204,1.897,1.81,3.375,3.761,3.375c2.089,0,3.783-1.694,3.783-3.783
		C36.709,51.89,36.653,51.53,36.552,51.189z M31.037,49.531c-0.047,0.03-1.096,0.723-0.952,2.983
		c0.007,0.113-0.078,0.21-0.191,0.217c-0.004,0-0.009,0-0.013,0c-0.108,0-0.197-0.083-0.204-0.192
		c-0.161-2.527,1.092-3.324,1.146-3.357c0.096-0.06,0.222-0.029,0.281,0.067C31.162,49.346,31.132,49.471,31.037,49.531z"/>
</g>
</svg>
