<?xml version="1.0" encoding="utf-8"?>
<!-- Generator: Adobe Illustrator 16.0.0, SVG Export Plug-In . SVG Version: 6.00 Build 0)  -->
<!DOCTYPE svg PUBLIC "-//W3C//DTD SVG 1.1//EN" "http://www.w3.org/Graphics/SVG/1.1/DTD/svg11.dtd">
<svg version="1.1" id="Layer_1" xmlns="http://www.w3.org/2000/svg" xmlns:xlink="http://www.w3.org/1999/xlink" x="0px" y="0px"
	 width="36px" height="36px" viewBox="0 0 36 36" enable-background="new 0 0 36 36" xml:space="preserve">
<path d="M16.66,25.516c0.084-0.875,0.169-1.588,0.253-1.973c0.217-1.007,0.406-1.912,0.526-2.696c1.566-0.096,2.81-1.385,2.81-2.972
	c0-0.195-0.017-0.402-0.053-0.617c0.095,0.118,0.19,0.242,0.288,0.339c1.169,1.167,3.065,1.167,4.233,0
	c1.132-1.13,1.159-2.931,0.105-4.108c1.62-0.037,2.925-1.359,2.925-2.987c0-1.652-1.345-2.993-2.995-2.993
	c-0.134,0-0.272,0.015-0.412,0.028c0.077-0.065,0.166-0.131,0.232-0.197c1.172-1.168,1.172-3.064,0-4.236
	c-1.168-1.168-3.065-1.168-4.233,0c-0.09,0.089-0.174,0.206-0.26,0.317c0.005-0.083,0.012-0.172,0.012-0.252
	c0-1.654-1.341-2.993-2.994-2.993c-1.599,0-2.889,1.255-2.978,2.828c-1.174-1.087-3.003-1.07-4.146,0.074
	c-1.167,1.169-1.167,3.065,0,4.235c0.132,0.129,0.29,0.256,0.451,0.378c-0.126-0.014-0.253-0.024-0.375-0.024
	c-1.654,0-2.993,1.34-2.993,2.995c0,1.643,1.327,2.978,2.968,2.991c-1.134,1.172-1.128,3.039,0.031,4.197
	c1.16,1.161,3.035,1.166,4.206,0.021c0,0.003,0,0.005,0,0.005c0,1.382,0.947,2.538,2.222,2.881
	c-0.115,0.741-0.298,1.613-0.507,2.589c-0.266,1.242-0.56,2.618-0.749,3.981c-0.006-0.021-0.006-0.039-0.013-0.063
	c-1.11-3.893-5.952-5.34-8.192-3.1c1.863,3.068,3.881,5.21,8.005,5.21c-0.018,0.425-0.014,5.993,0.013,6.605h0.961
	c0.061-1.573,0.225-4.771,0.42-7.574c0-0.021,0-0.042,0-0.063c0.011-0.014,0.021-0.024,0.033-0.038
	c1.735-1.934,3.904-3.837,6.402-4.5c-1.652,0.612-3.599,1.836-5.919,4.893c-0.146,0.193-0.275,0.367-0.388,0.521
	c5.698,0,8.746-2.888,11.367-7.337C25.038,19.001,18.614,20.418,16.66,25.516z M15.032,29.285c-1.104-1.567-2.604-3.114-4.416-3.762
	c1.133,0.299,2.554,1,4.461,3.107C15.06,28.85,15.042,29.069,15.032,29.285z M14.701,10.5c0-1.44,1.17-2.613,2.612-2.613
	c1.44,0,2.611,1.173,2.611,2.613c0,1.439-1.171,2.613-2.611,2.613C15.871,13.113,14.701,11.939,14.701,10.5z"/>
</svg>
