<?xml version="1.0" encoding="utf-8"?>
<!-- Generator: Adobe Illustrator 16.0.0, SVG Export Plug-In . SVG Version: 6.00 Build 0)  -->
<!DOCTYPE svg PUBLIC "-//W3C//DTD SVG 1.1//EN" "http://www.w3.org/Graphics/SVG/1.1/DTD/svg11.dtd">
<svg version="1.1" id="Layer_9" xmlns="http://www.w3.org/2000/svg" xmlns:xlink="http://www.w3.org/1999/xlink" x="0px" y="0px"
	 width="100px" height="100px" viewBox="0 0 100 100" enable-background="new 0 0 100 100" xml:space="preserve">
<path d="M71.953,4.914c0,0-3.282,4.213-9.977,5.098C15.7,13.666,21.428,74.229,21.428,74.229s0.319,3.939,1.137,4.076
	s1.467-1.227,2.803-2.563c4.047-4.047,11.233-13.338,11.233-13.338c1.519-1.438,2.512-2.904,3.959-4.422
	c1.466-1.496,2.858-3.061,4.255-4.633c1.358-1.598,2.694-3.221,3.917-4.93c0.641-0.83,1.245-1.693,1.817-2.566
	c0.569-0.883,1.204-1.73,1.725-2.639l1.604-2.717c0.505-0.92,0.952-1.875,1.419-2.818c0.494-0.932,0.84-1.93,1.211-2.914
	s0.775-1.967,0.995-2.994c0.231-1.031,0.6-2.039,0.726-3.084l0.35-3.156l-0.23,3.172c-0.067,1.063-0.363,2.09-0.537,3.143
	c-0.155,1.059-0.498,2.068-0.814,3.086c-0.309,1.021-0.599,2.055-1.034,3.031c-0.403,0.986-0.756,2-1.185,2.98l-1.371,2.904
	c-0.447,0.977-1.007,1.885-1.505,2.832c-0.5,0.953-1.034,1.881-1.605,2.789c-1.095,1.842-2.289,3.621-3.455,5.432
	c-1.217,1.766-2.442,3.535-3.744,5.244c-1.287,1.727-2.626,3.412-4.002,5.068l-5.14,5.613c-0.212,0.193-0.422,0.385-0.607,0.6
	c-0.164,0.26-0.329,0.502-0.478,0.758c-3.695,4.775-8.934,13.072-10.542,22.902l0.468-0.213c1.774-0.811,3.51-1.393,5.22-1.83
	c0.667-4.352,2.061-8.52,4.419-12.244c39.464-0.598,44.7-31.988,44.7-31.988C82.682,23.848,71.953,4.914,71.953,4.914z"/>
</svg>
