<?xml version="1.0" encoding="iso-8859-1"?>
<!-- Generator: Adobe Illustrator 17.0.2, SVG Export Plug-In . SVG Version: 6.00 Build 0)  -->
<!DOCTYPE svg PUBLIC "-//W3C//DTD SVG 1.1//EN" "http://www.w3.org/Graphics/SVG/1.1/DTD/svg11.dtd">
<svg version="1.1" id="Capa_1" xmlns="http://www.w3.org/2000/svg" xmlns:xlink="http://www.w3.org/1999/xlink" x="0px" y="0px"
	 width="100px" height="100px" viewBox="0 0 100 100" style="enable-background:new 0 0 100 100;" xml:space="preserve">
<g>
	<path style="fill:#1D1D1B;" d="M90.552,6.999c-0.008-0.077-0.015-0.156-0.023-0.233c-0.147-1.391-1.545-2.563-2.958-2.389
		c-0.869,0.107-2.505,2.654-3.034,3.314c-1.077,1.341-2.076,2.737-3.324,3.929c-2.597,2.479-6.005,4.052-9.274,5.445
		c-6.912,2.945-14.64,4-22.022,5.102c-3.927,0.586-7.878,1.24-11.735,2.201c-17.148,4.273-25.212,15.979-23.357,33.602
		c0.331,3.144,5.29,3.177,4.955,0c-0.985-9.362,0.036-18.612,8.384-24.255c6.46-4.366,14.995-5.536,22.503-6.857
		c12.487-2.198,26.446-4.123,35.522-13.274c1.022,14.23,0.228,29.116-6.53,41.819C69.231,75.006,43.766,74.659,26.097,65.932
		c5.991-7.078,13.166-13.298,20.811-19.036c2.522-1.893,0.057-6.199-2.501-4.279c-17.332,13.011-32.49,28.26-37.752,49.932
		c-0.754,3.105,4.025,4.422,4.778,1.317c2.203-9.073,6.256-16.95,11.505-23.982c18.584,9.524,43.868,10.511,57.848-7.211
		c11.873-15.052,11.704-37.385,9.787-55.482C90.568,7.126,90.562,7.062,90.552,6.999z"/>
</g>
</svg>
