<?xml version="1.0" encoding="utf-8"?>
<!-- Generator: Adobe Illustrator 16.0.4, SVG Export Plug-In . SVG Version: 6.00 Build 0)  -->
<!DOCTYPE svg PUBLIC "-//W3C//DTD SVG 1.1//EN" "http://www.w3.org/Graphics/SVG/1.1/DTD/svg11.dtd">
<svg version="1.1" id="Capa_1" xmlns="http://www.w3.org/2000/svg" xmlns:xlink="http://www.w3.org/1999/xlink" x="0px" y="0px"
	 width="21.977px" height="20px" viewBox="0 0 21.977 20" enable-background="new 0 0 21.977 20" xml:space="preserve">
<g>
	<polygon points="20.344,5.429 19.477,3 18.61,5.429 16.977,6 18.61,6.571 19.477,9 20.344,6.571 21.977,6 	"/>
	<polygon points="10.477,8 11.69,4.762 13.977,4 11.691,3.238 10.477,0 9.263,3.238 6.977,4 9.263,4.762 	"/>
	<path d="M6,10.5c0-0.906,0.269-1.75,0.729-2.456C6.49,8.015,6.247,8,6,8C5.451,8,4.92,8.073,4.415,8.212C1.87,8.907,0,11.234,0,14
		c0,3.312,2.687,6,6,6c3.057,0,5.579-2.285,5.953-5.239C11.497,14.916,11.009,15,10.5,15C8.016,15,6,12.984,6,10.5z M6,18
		c-2.209,0-4-1.791-4-4c0-1.48,0.805-2.773,2.001-3.465c0.015,3.009,2.076,5.533,4.862,6.257C8.138,17.537,7.123,18,6,18z"/>
	<polygon points="14.477,8 13.263,11.238 10.977,12 13.263,12.762 14.477,16 15.691,12.762 17.977,12 15.691,11.238 	"/>
</g>
</svg>
