<?xml version="1.0" encoding="iso-8859-1"?>
<!-- Generator: Adobe Illustrator 16.0.0, SVG Export Plug-In . SVG Version: 6.00 Build 0)  -->
<!DOCTYPE svg PUBLIC "-//W3C//DTD SVG 1.1//EN" "http://www.w3.org/Graphics/SVG/1.1/DTD/svg11.dtd">
<svg version="1.1" id="Layer_1" xmlns="http://www.w3.org/2000/svg" xmlns:xlink="http://www.w3.org/1999/xlink" x="0px" y="0px"
	 width="16.789px" height="46.658px" viewBox="0 0 16.789 46.658" style="enable-background:new 0 0 16.789 46.658;"
	 xml:space="preserve">
<g>
	<g>
		<path d="M10.65,11.637c-2.672,2.76-1.896,5.961-1.896,5.961s3.517,0.422,6.122-2.27c2.604-2.692,1.792-6.456,1.792-6.456
			S13.323,8.875,10.65,11.637z"/>
		<path d="M11.452,5.888C11.452,2.14,8.251,0,8.251,0S5.849,2.33,5.849,6.172s2.784,5.601,2.784,5.601S11.452,9.633,11.452,5.888z"
			/>
		<path d="M10.65,19.245c-2.672,2.761-1.896,5.961-1.896,5.961s3.517,0.423,6.122-2.269c2.604-2.692,1.792-6.457,1.792-6.457
			S13.323,16.484,10.65,19.245z"/>
		<path d="M10.65,26.805c-2.672,2.761-1.896,5.961-1.896,5.961s3.517,0.423,6.122-2.269c2.604-2.692,1.792-6.457,1.792-6.457
			S13.323,24.044,10.65,26.805z"/>
		<path d="M10.65,34.404c-2.672,2.761-1.896,5.96-1.896,5.96s3.517,0.424,6.122-2.268c2.604-2.692,1.792-6.457,1.792-6.457
			S13.323,31.643,10.65,34.404z"/>
		<path d="M0.12,8.849c0,0-0.813,3.764,1.792,6.456c2.606,2.692,6.122,2.27,6.122,2.27s0.777-3.202-1.896-5.962
			S0.12,8.849,0.12,8.849z"/>
		<path d="M0.12,16.458c0,0-0.813,3.763,1.792,6.456c2.606,2.692,6.122,2.269,6.122,2.269s0.777-3.201-1.896-5.962
			C3.466,16.46,0.12,16.458,0.12,16.458z"/>
		<path d="M0.12,24.016c0,0-0.813,3.765,1.792,6.456c2.606,2.692,6.122,2.27,6.122,2.27s0.777-3.201-1.896-5.961
			C3.466,24.019,0.12,24.016,0.12,24.016z"/>
		<path d="M0.12,31.616c0,0-0.813,3.764,1.792,6.457c2.606,2.692,6.122,2.269,6.122,2.269s0.777-3.2-1.896-5.961
			C3.466,31.619,0.12,31.616,0.12,31.616z"/>
		<path d="M7.988,42.043v4.605c0.136,0.002,0.271,0.01,0.407,0.01c0.307,0,0.612-0.013,0.917-0.023v-4.592H7.988z"/>
	</g>
</g>
<g>
</g>
<g>
</g>
<g>
</g>
<g>
</g>
<g>
</g>
<g>
</g>
<g>
</g>
<g>
</g>
<g>
</g>
<g>
</g>
<g>
</g>
<g>
</g>
<g>
</g>
<g>
</g>
<g>
</g>
</svg>
