<?xml version="1.0" encoding="iso-8859-1"?>
<!-- Generator: Adobe Illustrator 16.0.0, SVG Export Plug-In . SVG Version: 6.00 Build 0)  -->
<!DOCTYPE svg PUBLIC "-//W3C//DTD SVG 1.1//EN" "http://www.w3.org/Graphics/SVG/1.1/DTD/svg11.dtd">
<svg version="1.1" id="Layer_1" xmlns="http://www.w3.org/2000/svg" xmlns:xlink="http://www.w3.org/1999/xlink" x="0px" y="0px"
	 width="45.865px" height="38.769px" viewBox="0 0 45.865 38.769" style="enable-background:new 0 0 45.865 38.769;"
	 xml:space="preserve">
<path d="M32.592,4.846c-4.901,1.287-6.604,5.506-6.32,7.269c0.09-0.054,0.177-0.106,0.268-0.163c0.43-0.264,0.899-0.514,1.386-0.772
	c0.483-0.259,1.003-0.5,1.528-0.744c0.264-0.123,0.54-0.231,0.813-0.342l0.413-0.168c0.178-0.07,0.287-0.099,0.434-0.15l0.826-0.275
	c0.287-0.082,0.571-0.162,0.854-0.242c0.571-0.158,1.123-0.297,1.66-0.408c1.073-0.244,2.082-0.422,2.951-0.556
	c1.737-0.265,2.922-0.315,2.922-0.315s-0.271,0.116-0.745,0.319c-0.476,0.198-1.156,0.461-1.975,0.775
	c-0.411,0.15-0.854,0.313-1.323,0.485c-0.47,0.167-0.965,0.342-1.478,0.523c-0.506,0.179-1.027,0.365-1.559,0.555
	c-0.521,0.176-1.063,0.384-1.608,0.593c-0.508,0.19-1.036,0.443-1.553,0.648c-0.514,0.234-1.395,0.54-1.892,0.753
	c-0.601,0.252-0.981,0.388-1.363,0.59c-4.275,2.495-6.169,6.911-7.324,11.583c-0.205-4.389-1.126-8.648-4.295-11.789
	c0.003-0.002,0.007-0.003,0.01-0.005c-0.429-0.402-0.875-0.834-1.334-1.297c-0.377-0.389-0.775-0.775-1.163-1.187
	c-0.398-0.388-0.789-0.822-1.188-1.192c-0.425-0.402-0.845-0.8-1.26-1.163C9.858,7.795,9.448,7.424,9.049,7.064
	C8.644,6.701,8.253,6.351,7.883,6.017C7.516,5.679,7.166,5.359,6.846,5.063c-0.637-0.601-1.167-1.105-1.53-1.47
	c-0.36-0.369-0.565-0.58-0.565-0.58s1.074,0.499,2.58,1.407c0.751,0.456,1.615,1.005,2.515,1.64
	c0.454,0.309,0.911,0.648,1.378,1.011c0.23,0.183,0.464,0.365,0.696,0.549l0.659,0.57c0.116,0.104,0.206,0.171,0.343,0.304
	l0.318,0.313c0.212,0.208,0.425,0.414,0.621,0.627c0.395,0.425,0.781,0.847,1.13,1.271c0.351,0.424,0.688,0.834,0.985,1.242
	c0.063,0.088,0.122,0.168,0.185,0.253c0.937-1.521,0.974-6.071-3.066-9.132C8.697-0.262,2.567,1.232,0,0
	c2.592,3.965,2.094,6.612,6.448,10.963c2.91,2.911,5.627,3.091,7.458,2.585c3.723,3.584,4.304,9.048,4.306,14.276
	c-0.381-0.308-0.844-0.55-1.378-0.55c-1.507,0-2.604,0.847-3.13,2.056c-3.317-1.129-5.52,1.495-5.711,3.705
	c-1.578-0.587-3.58,1.229-3.58,2.806c0,1.558,1.231,2.818,2.773,2.883l24.415,0.044c0,0,2.602-1.403,2.602-2.928
	c0-1.599-1.296-2.896-2.895-2.896c-0.221,0-0.433,0.029-0.638,0.076c0.013-0.113-0.28-5.029-4.551-3.054
	c-0.332-1.538-0.767-2.692-3.334-2.692c-1.264,0-2.12,0.459-2.668,0.925c1.069-5.437,2.721-11.118,7.535-13.928
	c0.053-0.03,0.08-0.07,0.118-0.106c1.488,1.194,4.09,2.116,7.95,0.513c5.685-2.361,6.234-4.997,10.144-7.671
	C43.023,7.166,37.928,3.446,32.592,4.846z M19.286,29.114l0.16-0.16c-0.081,0.125-0.13,0.216-0.13,0.216S19.3,29.139,19.286,29.114z
	"/>
<g>
</g>
<g>
</g>
<g>
</g>
<g>
</g>
<g>
</g>
<g>
</g>
<g>
</g>
<g>
</g>
<g>
</g>
<g>
</g>
<g>
</g>
<g>
</g>
<g>
</g>
<g>
</g>
<g>
</g>
</svg>
