<?xml version="1.0" encoding="iso-8859-1"?>
<!-- Generator: Adobe Illustrator 17.1.0, SVG Export Plug-In . SVG Version: 6.00 Build 0)  -->
<!DOCTYPE svg PUBLIC "-//W3C//DTD SVG 1.1//EN" "http://www.w3.org/Graphics/SVG/1.1/DTD/svg11.dtd">
<svg version="1.1" id="Layer_1" xmlns="http://www.w3.org/2000/svg" xmlns:xlink="http://www.w3.org/1999/xlink" x="0px" y="0px"
	 viewBox="0 0 64 64" style="enable-background:new 0 0 64 64;" xml:space="preserve">
<path d="M60.325,19.561c0-4.682-3.553-8.533-8.11-9.006c-1.279-3.449-4.589-5.912-8.484-5.912c-1.705,0-3.294,0.48-4.655,1.299
	c-1.548-2.772-4.507-4.649-7.908-4.649c-4.509,0-8.238,3.3-8.93,7.614c-0.368-0.045-0.74-0.076-1.12-0.076
	c-5.001,0-9.056,4.054-9.056,9.056c0,0.245,0.018,0.485,0.037,0.725c-2.536,1.605-4.224,4.427-4.224,7.65
	c0,2.849,1.318,5.387,3.375,7.047c-0.009,0.163-0.025,0.325-0.025,0.49c0,5.001,4.054,9.056,9.056,9.056
	c1.499,0,2.909-0.37,4.154-1.014c1.725,1.239,4.195,2.789,5.391,2.48c0,0,0.445,6.892,0.349,8.642C29.992,56.293,28.993,60,28.29,63
	h10.888c0,0-1.605-6.688-1.675-8.921c-0.07-2.233,0.698-6.345,0.698-6.345l3.777-3.907c1.454,0.994,3.21,1.559,5.104,1.559
	c4.682,0,8.533-3.562,9.006-8.119C59.537,35.988,62,32.669,62,28.774c0-2.3-0.864-4.392-2.276-5.99
	C60.106,21.782,60.325,20.698,60.325,19.561z M26.527,40.346c0.726-0.693,1.335-1.503,1.8-2.402l1.778,3.725
	C30.104,41.669,29.137,42.096,26.527,40.346z M33.175,42.646c-0.92,0.167-2.487-2.666-3.599-4.969
	c1.233,0.629,2.625,0.991,4.105,0.991c0.38,0,0.753-0.031,1.121-0.077C34.516,40.434,34.012,42.493,33.175,42.646z M37.084,44.459
	c-2.128,0.591-0.854-3.817-0.244-6.369c0.441-0.164,0.868-0.357,1.274-0.586c0.245,1.86,1.053,3.538,2.25,4.865
	C39.327,43.29,38.133,44.168,37.084,44.459z"/>
</svg>
