<?xml version="1.0" encoding="iso-8859-1"?>
<!-- Generator: Adobe Illustrator 16.0.0, SVG Export Plug-In . SVG Version: 6.00 Build 0)  -->
<!DOCTYPE svg PUBLIC "-//W3C//DTD SVG 1.1//EN" "http://www.w3.org/Graphics/SVG/1.1/DTD/svg11.dtd">
<svg version="1.1" id="Layer_1" xmlns="http://www.w3.org/2000/svg" xmlns:xlink="http://www.w3.org/1999/xlink" x="0px" y="0px"
	 width="36px" height="36px" viewBox="0 0 36 36" style="enable-background:new 0 0 36 36;" xml:space="preserve">
<g>
	<path style="fill:#010101;" d="M25.225,8.393c0,0-5.267,0.136-7.259,2.862c-1.992,2.726-3.211,2.472-3.211,2.472l1.318,1.712
		L25.225,8.393z"/>
	<path style="fill:#010101;" d="M31.426,16.446c1.001-3.367,1.432-7.121-1.348-9.487c-2.398-2.041-3.254,0.594-3.63,3.022
		L25.72,9.034l-9.151,7.047l2.914,3.786l-8.186-1.112c-0.288-0.945-1.039-1.698-2.013-1.959c-0.108-0.055-0.223-0.093-0.345-0.105
		c-0.065-0.006-0.131,0.009-0.194,0.017c-0.011-0.001-0.02-0.006-0.03-0.006v0.007c-0.8,0.12-1.52,1.268-1.67,2.735
		c-0.074,0.729-0.008,1.437,0.189,1.99c0.232,0.654,0.626,1.041,1.107,1.09c0.142,0.014,0.283-0.004,0.422-0.05
		c1.118-0.09,2.063-0.814,2.459-1.837l9.887,1.344l3.616,4.696l9.152-7.047L31.426,16.446z M8.396,21.705
		c-0.139-0.038-0.292-0.242-0.398-0.543c-0.155-0.436-0.208-1.032-0.146-1.637c0.102-1.003,0.468-1.698,0.782-1.94
		c0.009-0.007,0.018-0.009,0.025-0.016L8.396,21.705z M30.853,15.701l-3.709-4.817c0.053-0.499,0.109-0.998,0.19-1.496
		c0.114-0.701,0.288-1.414,0.664-2.025c0.797-1.296,2.342,1.123,2.657,1.685C31.772,11.046,31.503,13.424,30.853,15.701z"/>
	<path style="fill:#010101;" d="M4.812,28.11c0,0.291,0.236,0.527,0.527,0.527s0.526-0.236,0.526-0.527s-0.526-0.893-0.526-0.893
		S4.812,27.819,4.812,28.11z"/>
	<path style="fill:#010101;" d="M8.387,29.199c0,0.522,0.422,0.945,0.945,0.945c0.521,0,0.945-0.423,0.945-0.945
		s-0.945-1.6-0.945-1.6S8.387,28.677,8.387,29.199z"/>
	<path style="fill:#010101;" d="M7.627,23.555c0,0-0.891,1.017-0.891,1.509c0,0.491,0.398,0.891,0.891,0.891
		s0.891-0.399,0.891-0.891C8.518,24.571,7.627,23.555,7.627,23.555z"/>
</g>
</svg>
