<?xml version="1.0" encoding="utf-8"?>
<!-- Generator: Adobe Illustrator 16.0.0, SVG Export Plug-In . SVG Version: 6.00 Build 0)  -->
<!DOCTYPE svg PUBLIC "-//W3C//DTD SVG 1.1//EN" "http://www.w3.org/Graphics/SVG/1.1/DTD/svg11.dtd">
<svg version="1.1" id="Layer_9" xmlns="http://www.w3.org/2000/svg" xmlns:xlink="http://www.w3.org/1999/xlink" x="0px" y="0px"
	 width="100px" height="100px" viewBox="0 0 100 100" enable-background="new 0 0 100 100" xml:space="preserve">
<path d="M5.063,47.318h0.005c0-0.029-0.005-0.053-0.003-0.082c0.044-0.63,0.595-1.1,1.224-1.063c0.001,0,0.009,0,0.011,0
	c0,0,0.005,0,0.007,0c0.324,0.021,6.55,0.35,9.5-2.405c1.008-0.941,1.499-2.127,1.499-3.624c0-0.634,0.513-1.147,1.146-1.147
	c0,0,0,0,0.002,0c0.633,0,1.147,0.514,1.147,1.147c0,1.497,0.489,2.683,1.498,3.624c2.334,2.18,6.723,2.429,8.612,2.426
	c2.116-0.053,5.771-0.443,7.84-2.362c1.025-0.947,1.522-2.157,1.522-3.688c0-0.634,0.515-1.147,1.148-1.147
	c0.633,0,1.147,0.514,1.147,1.147c0,1.497,0.49,2.683,1.498,3.624c2.173,2.03,6.125,2.383,8.187,2.423
	c2.133-0.065,5.687-0.478,7.718-2.359c1.025-0.947,1.523-2.157,1.523-3.688c0-0.634,0.515-1.147,1.148-1.147
	c0.633,0,1.147,0.514,1.147,1.147c0,1.497,0.489,2.683,1.497,3.624c2.188,2.043,6.175,2.388,8.224,2.423
	c2.132-0.065,5.699-0.473,7.735-2.359c1.025-0.947,1.524-2.157,1.524-3.688c0-0.634,0.514-1.147,1.146-1.147
	c0.636,0,1.148,0.514,1.148,1.147c0,1.497,0.49,2.683,1.498,3.624c3.015,2.813,9.452,2.41,9.517,2.405
	c0.631-0.037,1.18,0.433,1.224,1.063c0.045,0.634-0.432,1.18-1.064,1.225c-0.303,0.021-7.488,0.483-11.238-3.012
	c-0.414-0.385-0.773-0.805-1.073-1.253c-0.856,1.312-2.188,2.353-3.968,3.083c-1.531,0.628-3.198,0.938-4.625,1.087
	c-0.116,0.05-0.239,0.088-0.371,0.095c-0.078,0.006-0.626,0.04-1.455,0.03c-0.246,0.005-0.47,0.01-0.67,0.01
	c-0.656,0-1.241-0.002-1.659-0.158c-2.405-0.271-5.43-1.006-7.454-2.894c-0.416-0.385-0.773-0.805-1.073-1.253
	c-0.856,1.312-2.189,2.353-3.968,3.083c-1.505,0.615-3.141,0.926-4.551,1.079c-0.12,0.056-0.251,0.096-0.391,0.103
	c-0.079,0.006-0.643,0.043-1.493,0.03c-0.25,0.005-0.482,0.01-0.687,0.01c-0.667,0-1.257-0.005-1.675-0.166
	c-2.394-0.279-5.38-1.017-7.385-2.886c-0.416-0.385-0.773-0.805-1.072-1.253c-0.857,1.312-2.189,2.353-3.969,3.083
	c-1.78,0.731-3.745,1.031-5.303,1.15c-0.061,0.017-0.121,0.029-0.187,0.031c-0.031,0.003-0.14,0.011-0.308,0.016
	c-0.286,0.022-0.602,0.024-0.937,0.024c-0.061,0-0.128-0.002-0.194-0.002s-0.132,0.002-0.193,0.002c-0.468,0-0.898-0.002-1.26-0.058
	c-1.582-0.11-3.626-0.407-5.474-1.164c-1.771-0.729-3.101-1.764-3.956-3.067c-0.858,1.304-2.187,2.339-3.959,3.067
	c-2.592,1.063-5.574,1.222-7.121,1.222c-0.335,0-0.651-0.002-0.936-0.024c-0.168-0.005-0.277-0.013-0.31-0.016
	c-0.192-0.013-0.367-0.075-0.522-0.174c-0.28-0.135-0.463-0.367-0.517-0.744c-0.011-0.056-0.018-0.111-0.021-0.169
	C5.068,47.354,5.063,47.34,5.063,47.318z M93.643,58.676c-0.064,0.005-6.502,0.41-9.517-2.402c-1.008-0.942-1.498-2.127-1.498-3.627
	c0-0.634-0.513-1.146-1.148-1.146c-0.633,0-1.146,0.512-1.146,1.146c0,1.533-0.499,2.74-1.524,3.689
	c-2.036,1.888-5.604,2.295-7.735,2.36c-2.049-0.036-6.036-0.383-8.224-2.423c-1.008-0.942-1.497-2.127-1.497-3.627
	c0-0.634-0.515-1.146-1.147-1.146c-0.634,0-1.148,0.512-1.148,1.146c0,1.533-0.498,2.74-1.523,3.689
	c-2.031,1.882-5.585,2.292-7.718,2.357c-2.062-0.037-6.014-0.393-8.187-2.42c-1.008-0.942-1.498-2.127-1.498-3.627
	c0-0.634-0.515-1.146-1.147-1.146c-0.634,0-1.148,0.512-1.148,1.146c0,1.533-0.497,2.74-1.522,3.689
	c-2.069,1.917-5.724,2.308-7.84,2.362c-1.89,0-6.278-0.244-8.612-2.425c-1.009-0.942-1.498-2.127-1.498-3.627
	c0-0.634-0.515-1.146-1.147-1.146c-0.002,0-0.002,0-0.002,0c-0.634,0-1.146,0.512-1.146,1.146c0,1.5-0.491,2.685-1.499,3.627
	c-2.95,2.752-9.176,2.423-9.5,2.404c-0.002,0-0.007-0.002-0.007-0.002c-0.002,0-0.01,0-0.011,0c-0.629-0.035-1.18,0.433-1.224,1.066
	c-0.002,0.025,0.003,0.053,0.003,0.078H3.824c0,0.021,0.006,0.038,0.006,0.059c0.003,0.055,0.01,0.11,0.021,0.166
	c0.054,0.377,0.236,0.61,0.517,0.747c0.155,0.096,0.33,0.161,0.522,0.174c0.032,0.003,0.142,0.008,0.31,0.017
	c0.284,0.021,0.601,0.021,0.936,0.021c1.547,0,4.529-0.158,7.121-1.222c1.772-0.726,3.101-1.763,3.959-3.067
	c0.855,1.305,2.185,2.342,3.956,3.067c1.848,0.757,3.892,1.056,5.474,1.164c0.361,0.056,0.792,0.058,1.26,0.058
	c0.062,0,0.127,0,0.193,0s0.134,0,0.194,0c0.335,0,0.65,0,0.937-0.021c0.168-0.009,0.276-0.014,0.308-0.017
	c0.065-0.005,0.126-0.018,0.187-0.031c1.558-0.119,3.522-0.422,5.303-1.153c1.779-0.73,3.111-1.771,3.969-3.083
	c0.299,0.452,0.656,0.868,1.072,1.256c2.005,1.869,4.991,2.606,7.385,2.883c0.418,0.164,1.008,0.166,1.675,0.166
	c0.204,0,0.437-0.002,0.687-0.01c0.851,0.013,1.414-0.022,1.493-0.027c0.14-0.011,0.271-0.048,0.391-0.103
	c1.41-0.152,3.046-0.464,4.551-1.082c1.778-0.73,3.111-1.771,3.968-3.083c0.3,0.452,0.657,0.868,1.073,1.256
	c2.024,1.888,5.049,2.619,7.454,2.891c0.418,0.156,1.003,0.158,1.659,0.158c0.2,0,0.424-0.002,0.67-0.01
	c0.829,0.013,1.377-0.022,1.455-0.027c0.132-0.011,0.255-0.045,0.371-0.094c1.427-0.151,3.094-0.463,4.625-1.091
	c1.779-0.73,3.111-1.771,3.968-3.083c0.3,0.452,0.659,0.868,1.073,1.256c3.75,3.495,10.936,3.034,11.238,3.012
	c0.633-0.045,1.109-0.594,1.064-1.224C94.822,59.108,94.273,58.641,93.643,58.676z"/>
</svg>
