<?xml version="1.0" encoding="iso-8859-1"?>
<!-- Generator: Adobe Illustrator 16.0.0, SVG Export Plug-In . SVG Version: 6.00 Build 0)  -->
<!DOCTYPE svg PUBLIC "-//W3C//DTD SVG 1.1//EN" "http://www.w3.org/Graphics/SVG/1.1/DTD/svg11.dtd">
<svg version="1.1" id="Capa_1" xmlns="http://www.w3.org/2000/svg" xmlns:xlink="http://www.w3.org/1999/xlink" x="0px" y="0px"
	 width="26.683px" height="26.684px" viewBox="0 0 26.683 26.684" style="enable-background:new 0 0 26.683 26.684;"
	 xml:space="preserve">
<path style="fill:#000000;" d="M5.009,16.604c-0.2-0.516-0.354-1.035-0.462-1.561l-3.771,3.219l4.952-0.199
	C5.453,17.605,5.21,17.119,5.009,16.604z"/>
<path style="fill:#000000;" d="M6.574,19.213l-1.655,4.674l4.19-2.648c-0.467-0.258-0.92-0.561-1.351-0.904
	C7.325,19.988,6.93,19.613,6.574,19.213z"/>
<path style="fill:#000000;" d="M21.675,10.08c0.2,0.516,0.354,1.037,0.461,1.561l3.771-3.219l-4.953,0.197
	C21.23,9.078,21.471,9.564,21.675,10.08z"/>
<path style="fill:#000000;" d="M20.109,7.471l1.655-4.674l-4.19,2.648c0.469,0.258,0.922,0.561,1.354,0.904
	C19.359,6.695,19.753,7.07,20.109,7.471z"/>
<path style="fill:#000000;" d="M16.267,4.875L15.365,0l-2.307,4.389c0.535-0.012,1.078,0.023,1.625,0.107
	C15.228,4.578,15.759,4.707,16.267,4.875z"/>
<path style="fill:#000000;" d="M10.082,5.01c0.512-0.201,1.034-0.355,1.559-0.463L8.423,0.775l0.197,4.953
	C9.078,5.453,9.564,5.211,10.082,5.01z"/>
<path style="fill:#000000;" d="M6.35,7.756c0.348-0.43,0.721-0.824,1.12-1.18L2.799,4.92l2.648,4.191
	C5.704,8.643,6.005,8.189,6.35,7.756z"/>
<path style="fill:#000000;" d="M4.494,12.002c0.084-0.547,0.211-1.076,0.38-1.584L0,11.318l4.388,2.307
	C4.378,13.09,4.412,12.547,4.494,12.002z"/>
<path style="fill:#000000;" d="M10.417,21.811l0.902,4.873l2.305-4.389c-0.534,0.012-1.076-0.023-1.625-0.107
	C11.455,22.105,10.925,21.977,10.417,21.811z"/>
<path style="fill:#000000;" d="M16.603,21.674c-0.514,0.201-1.037,0.355-1.562,0.465l3.22,3.77l-0.197-4.953
	C17.605,21.232,17.119,21.473,16.603,21.674z"/>
<path style="fill:#000000;" d="M20.333,18.928c-0.346,0.432-0.72,0.824-1.119,1.182l4.672,1.654l-2.647-4.189
	C20.98,18.041,20.679,18.494,20.333,18.928z"/>
<path style="fill:#000000;" d="M22.189,14.684c-0.084,0.545-0.212,1.074-0.38,1.582l4.874-0.9l-4.388-2.307
	C22.306,13.594,22.271,14.137,22.189,14.684z"/>
<path style="fill:#000000;" d="M14.417,6.26c-3.915-0.592-7.564,2.096-8.158,6.008c-0.593,3.914,2.097,7.562,6.009,8.156
	c3.912,0.594,7.564-2.096,8.158-6.008C21.017,10.504,18.328,6.854,14.417,6.26z"/>
<g>
</g>
<g>
</g>
<g>
</g>
<g>
</g>
<g>
</g>
<g>
</g>
<g>
</g>
<g>
</g>
<g>
</g>
<g>
</g>
<g>
</g>
<g>
</g>
<g>
</g>
<g>
</g>
<g>
</g>
</svg>
