<?xml version="1.0" encoding="utf-8"?>
<!-- Generator: Adobe Illustrator 15.0.0, SVG Export Plug-In . SVG Version: 6.00 Build 0)  -->
<!DOCTYPE svg PUBLIC "-//W3C//DTD SVG 1.1//EN" "http://www.w3.org/Graphics/SVG/1.1/DTD/svg11.dtd">
<svg version="1.1" id="Layer_1" xmlns="http://www.w3.org/2000/svg" xmlns:xlink="http://www.w3.org/1999/xlink" x="0px" y="0px"
	 width="26px" height="26px" viewBox="0 0 26 26" enable-background="new 0 0 26 26" xml:space="preserve">
<path d="M22.071,12.561l-5.194-1.427l1.764-3.101c0.108-0.19,0.076-0.429-0.078-0.583c-0.155-0.155-0.395-0.187-0.584-0.079
	l-3.083,1.754l-1.435-5.222c-0.057-0.211-0.249-0.357-0.468-0.357c-0.218,0-0.41,0.146-0.468,0.357L11.1,9.088L8.086,7.374
	C7.896,7.265,7.657,7.297,7.502,7.453C7.348,7.607,7.315,7.846,7.424,8.036l1.725,3.033l-5.22,1.434
	c-0.211,0.058-0.357,0.25-0.357,0.469s0.146,0.41,0.357,0.468l5.178,1.423l-1.747,3.07c-0.109,0.191-0.076,0.43,0.078,0.584
	c0.155,0.154,0.395,0.188,0.584,0.08l3.021-1.719l1.434,5.221c0.058,0.209,0.25,0.355,0.468,0.355c0.219,0,0.411-0.146,0.469-0.355
	l1.437-5.232l3.1,1.764c0.075,0.041,0.158,0.063,0.241,0.063c0.003,0,0.005,0,0.009,0c0.269,0,0.485-0.217,0.485-0.486
	c0-0.119-0.043-0.229-0.115-0.314l-1.689-2.969l5.19-1.426c0.211-0.058,0.357-0.25,0.357-0.468S22.282,12.619,22.071,12.561z
	 M4.19,12.969l0.12-0.033l8.495,0.126l-1.964,1.735L4.19,12.969z M11.165,10.813l1.827-6.65l0.033,0.12l-0.125,8.495L11.165,10.813z
	 M13,13.001L13,13.001l-0.034-0.035h0L13,13.001z M13.033,13.224l1.735,1.963l-1.828,6.65l-0.033-0.119L13.033,13.224z
	 M18.025,18.082l-2.879-2.965l-0.089,0.025l1.171-0.322l1.885,3.313L18.025,18.082z M21.689,13.065l-8.495-0.126l1.964-1.734
	l6.65,1.827L21.689,13.065z M18.144,7.869l-0.05,0.088l-3.003,2.915l0.011,0.042l-0.313-1.137L18.144,7.869z M10.894,10.873
	l-1.09,0.299l-1.877-3.3l0.088,0.05l2.868,2.954L10.894,10.873L10.894,10.873z M11.143,16.227l-3.287,1.869l0.051-0.088l2.941-2.855
	L11.143,16.227z"/>
</svg>
