<?xml version="1.0" standalone="no"?>
<!DOCTYPE svg PUBLIC "-//W3C//DTD SVG 1.1//EN" "http://www.w3.org/Graphics/SVG/1.1/DTD/svg11.dtd" >
<svg xmlns="http://www.w3.org/2000/svg">
<metadata>Generated by IcoMoon</metadata>
<defs>
<font id="jeedom" horiz-adv-x="512">
<font-face units-per-em="512" ascent="480" descent="-32" />
<missing-glyph horiz-adv-x="512" />
<glyph unicode="&#x20;" d="" horiz-adv-x="256" />
<glyph unicode="&#xe600;" d="M0 176.446v208.446h20.607v-416.892h-20.607v208.446zM401.040 176.446v208.446h22.192v-416.892h-22.192v208.446zM26.948 362.7v22.192h367.752v-44.384h-367.752v22.192zM0 435.616v44.384h423.232v-88.768h-423.232v44.384z" horiz-adv-x="423" />
<glyph unicode="&#xe601;" d="M0 176.446v208.446h20.607v-416.892h-20.607v208.446zM401.040 176.446v208.446h22.192v-416.892h-22.192v208.446zM26.948 7.628v22.192h367.752v-44.384h-367.752v22.192zM26.948 58.353v22.192h367.752v-44.384h-367.752v22.192zM26.948 109.077v22.192h367.752v-44.384h-367.752v22.192zM26.948 159.802v22.192h367.752v-44.384h-367.752v22.192zM26.948 210.526v22.192h367.752v-44.384h-367.752v22.192zM26.948 261.251v22.192h367.752v-44.384h-367.752v22.192zM26.948 311.975v22.192h367.752v-44.384h-367.752v22.192zM26.948 362.7v22.192h367.752v-44.384h-367.752v22.192zM0 435.616v44.384h423.232v-88.768h-423.232v44.384z" horiz-adv-x="423" />
<glyph unicode="&#xe602;" d="M66.392 419.425h50.98c2.345 0 4.248 1.904 4.248 4.248s-1.903 4.248-4.248 4.248h-50.981c-2.345 0-4.248-1.904-4.248-4.248 0-2.345 1.902-4.248 4.248-4.248zM117.373 410.928h-25.491c-2.345 0-4.248-1.904-4.248-4.248 0-2.345 1.903-4.248 4.248-4.248h25.491c2.345 0 4.248 1.904 4.248 4.248 0 2.345-1.903 4.248-4.248 4.248zM66.392 385.438h50.98c2.345 0 4.248 1.904 4.248 4.248s-1.903 4.248-4.248 4.248h-50.981c-2.345 0-4.248-1.904-4.248-4.248 0-2.345 1.902-4.248 4.248-4.248zM117.373 376.942h-25.491c-2.345 0-4.248-1.904-4.248-4.248 0-2.345 1.903-4.248 4.248-4.248h25.491c2.345 0 4.248 1.904 4.248 4.248 0 2.345-1.903 4.248-4.248 4.248zM66.392 351.452h50.98c2.345 0 4.248 1.904 4.248 4.248 0 2.345-1.903 4.248-4.248 4.248h-50.981c-2.345 0-4.248-1.903-4.248-4.248 0-2.345 1.902-4.248 4.248-4.248zM117.373 342.954h-25.491c-2.345 0-4.248-1.904-4.248-4.248s1.903-4.248 4.248-4.248h25.491c2.345 0 4.248 1.904 4.248 4.248s-1.903 4.248-4.248 4.248zM66.392 317.464h50.98c2.345 0 4.248 1.904 4.248 4.248s-1.903 4.248-4.248 4.248h-50.981c-2.345 0-4.248-1.904-4.248-4.248s1.902-4.248 4.248-4.248zM117.373 308.967h-25.491c-2.345 0-4.248-1.904-4.248-4.248s1.903-4.248 4.248-4.248h25.491c2.345 0 4.248 1.904 4.248 4.248s-1.903 4.248-4.248 4.248zM66.392 283.477h50.98c2.345 0 4.248 1.904 4.248 4.248s-1.903 4.248-4.248 4.248h-50.981c-2.345 0-4.248-1.904-4.248-4.248s1.902-4.248 4.248-4.248zM117.373 274.98h-25.491c-2.345 0-4.248-1.904-4.248-4.248s1.903-4.248 4.248-4.248h25.491c2.345 0 4.248 1.904 4.248 4.248s-1.903 4.248-4.248 4.248zM66.392 249.49h50.98c2.345 0 4.248 1.904 4.248 4.248 0 2.345-1.903 4.248-4.248 4.248h-50.981c-2.345 0-4.248-1.904-4.248-4.248 0-2.345 1.902-4.248 4.248-4.248zM121.621 118.404v114.093c-32.22-20.18-33.281 21.242-59.478 0v-114.093c-21.301-10.87-35.932-33.012-35.932-58.522 0-36.211 29.46-65.67 65.671-65.67 36.211 0 65.671 29.46 65.671 65.67 0 25.51-14.631 47.653-35.932 58.522zM119.046 50.913c-9.168 0-16.603 7.435-16.603 16.603s7.427 16.603 16.602 16.603c9.168 0 16.602-7.435 16.602-16.603 0-9.168-7.434-16.603-16.602-16.603zM147.111 133.265v305.551c0 25.406-18.99 41.183-49.561 41.183h-9.202c-30.92 0-51.694-16.552-51.694-41.183v-305.55c-22.247-16.784-36.654-43.433-36.654-73.384 0-50.664 41.218-91.882 91.883-91.882 50.665 0 91.883 41.218 91.883 91.882-0.001 29.952-14.409 56.599-36.656 73.383zM91.882-23.115c-45.839 0-82.998 37.159-82.998 82.997 0 24.629 10.731 46.748 27.768 61.948 2.682 2.393 5.519 4.615 8.496 6.648v310.339c0 24.13 23.264 32.687 43.189 32.687h9.202c9.636 0 41.073-2.354 41.073-32.687v-310.339c2.977-2.032 5.815-4.255 8.496-6.648 17.037-15.2 27.768-37.319 27.768-61.948 0.002-45.837-37.156-82.997-82.995-82.997z" horiz-adv-x="184" />
<glyph unicode="&#xe603;" d="M160 135.568v280.336c0 35.408-28.72 64.096-64 64.096-35.344 0-64-28.592-64-64.096v-280.336c-19.648-17.584-32-43.136-32-71.568 0-52.992 42.992-96 96-96 52.992 0 96 43.008 96 96 0 28.432-12.336 53.984-32 71.568zM96 0c-35.344 0-64 28.656-64 64 0 23.68 12.88 44.368 32 55.44v296.48c0 17.728 14.336 32.080 32 32.080 17.776 0 32-14.352 32-32.080v-296.48c19.12-11.056 32-31.744 32-55.44 0-35.344-28.656-64-64-64zM111.744 109.344c0.176 0.88 0.256 1.776 0.256 2.704v159.904c0 8.864-7.088 16.048-16 16.048-8.848 0-16-7.296-16-16.048v-159.904c0-0.928 0.080-1.824 0.224-2.704-18.752-6.512-32.224-24.352-32.224-45.344 0-26.512 21.488-48 48-48s48 21.488 48 48c0 20.992-13.472 38.832-32.256 45.344z" horiz-adv-x="192" />
<glyph unicode="&#xe604;" d="M160 135.568v280.336c0 35.408-28.72 64.096-64 64.096-35.344 0-64-28.592-64-64.096v-280.336c-19.648-17.584-32-43.136-32-71.568 0-52.992 42.992-96 96-96 52.992 0 96 43.008 96 96 0 28.432-12.336 53.984-32 71.568zM96 0c-35.344 0-64 28.656-64 64 0 23.68 12.88 44.368 32 55.44v296.48c0 17.728 14.336 32.080 32 32.080 17.776 0 32-14.352 32-32.080v-296.48c19.12-11.056 32-31.744 32-55.44 0-35.344-28.656-64-64-64zM144 64c0-26.51-21.49-48-48-48s-48 21.49-48 48c0 26.51 21.49 48 48 48 26.51 0 48-21.49 48-48z" horiz-adv-x="192" />
<glyph unicode="&#xe605;" d="M160 135.568v280.336c0 35.408-28.72 64.096-64 64.096-35.344 0-64-28.592-64-64.096v-280.336c-19.648-17.584-32-43.136-32-71.568 0-52.992 42.992-96 96-96 52.992 0 96 43.008 96 96 0 28.432-12.336 53.984-32 71.568zM96 0c-35.344 0-64 28.656-64 64 0 23.68 12.88 44.368 32 55.44v296.48c0 17.728 14.336 32.080 32 32.080 17.776 0 32-14.352 32-32.080v-296.48c19.12-11.056 32-31.744 32-55.44 0-35.344-28.656-64-64-64zM112 109.264v306.688c0 8.864-7.088 16.048-16 16.048-8.848 0-16-7.024-16-16.048v-306.688c-18.64-6.576-32-24.352-32-45.264 0-26.512 21.488-48 48-48s48 21.488 48 48c0 20.912-13.36 38.688-32 45.264z" horiz-adv-x="192" />
<glyph unicode="&#xe606;" d="M174.298 162.271l0.296 194.271 124.419 90.16 0.078 9.937h-275.855l-0.611-399.986-3.817-3.411c-5.004-4.471-9.572-4.471-14.575 0l-3.817 3.411-0.297 206.13c-0.281 194.526-0.182 206.361 1.753 210.222 1.395 2.784 3.359 4.538 6.143 5.486 5.904 2.013 300.372 2.013 306.275 0 2.784-0.949 4.747-2.703 6.142-5.486 1.935-3.861 2.034-15.697 1.753-210.222l-0.298-206.13-3.817-3.411c-5.307-4.742-9.88-4.56-15.038 0.598l-4.009 4.009-61.85-44.923c-34.018-24.708-62.147-44.923-62.51-44.923s-0.526 87.422-0.364 194.27zM226.399 153.92c4.1 3.82 6.062 10.028 6.034 19.088-0.041 13.097-4.531 20.997-11.936 20.997-4.214 0-9.657-5.555-10.875-11.096-0.702-3.193-0.997-3.322-7.65-3.322h-6.921v-11.69h13.543l1.424-5.327c2.644-9.887 10.564-14.069 16.38-8.651z" horiz-adv-x="323" />
<glyph unicode="&#xe607;" d="M8.652-30.151c-9.232 4.011-8.643-13.286-8.643 253.896 0 268.142-0.641 249.948 8.948 253.955 7.34 3.067 358.75 3.067 366.091 0 9.589-4.007 8.949 14.188 8.949-253.955 0-268.27 0.649-249.945-8.993-253.974-4.339-1.813-5.5-1.813-9.839 0-9.634 4.025-8.993-13.565-8.993 246.973v235.168h-328.337v-235.168c0-260.412 0.633-242.951-8.948-246.954-5.728-2.393-4.573-2.4-10.233 0.060zM47.312 203.572v221.906h289.382v-443.812h-289.382v221.906zM105.311 178.747c7.51 3.564 12.222 11.775 12.171 21.211-0.081 14.921-7.646 23.772-20.326 23.783-5.040 0.004-7.507-0.84-10.972-3.756-12.707-10.692-10.641-34.452 3.561-40.939 6.918-3.16 9.434-3.209 15.566-0.298z" horiz-adv-x="384" />
<glyph unicode="&#xe608;" d="M176.16 394.336c5.536 3.232 11.168 6.336 17.152 8.864-0.864 4.128-1.312 8.416-1.312 12.8 0 35.328 28.672 64 64 64s64-28.672 64-64c0-4.384-0.448-8.672-1.312-12.8 57.184-24.416 97.312-81.12 97.312-147.2v-43.072c20.128-15.168 32-33.344 32-52.928 0-9.856-3.808-19.2-9.376-28.128l-262.464 262.464zM446.368-11.648l-426.016 426.016 45.248 45.28 426.016-426.048-45.248-45.248zM96 212.928v43.072c0 11.552 1.632 22.688 3.968 33.536l219.712-219.712c-20.064-3.552-41.248-5.824-63.68-5.824-106.016 0-192 42.976-192 96 0 19.584 11.872 37.76 32 52.928zM256 32c22.208 0 43.264 2.112 63.488 5.12 0.128-1.728 0.512-3.36 0.512-5.12 0-35.328-28.672-64-64-64s-64 28.672-64 64c0 1.76 0.384 3.392 0.512 5.12 20.256-3.008 41.28-5.12 63.488-5.12z" />
<glyph unicode="&#xe609;" d="M268.207 47.818c0 11.113-8.637 20.154-19.255 20.154h-99.488c-10.619 0-19.255-9.041-19.255-20.154s8.637-20.154 19.255-20.154h99.488c10.615 0 19.255 9.041 19.255 20.154zM159.799 8.308c-11.707 0-21.232-9.041-21.232-20.154s9.524-20.154 21.232-20.154h79.895c11.707 0 21.231 9.041 21.231 20.154s-9.524 20.154-21.232 20.154h-79.895zM199.208 413.851c-72.737 0-131.915-59.178-131.915-131.914 0-32.981 16.266-65.64 31.996-97.226 15.402-30.921 29.948-60.132 29.948-88.615 0-4.431 3.591-8.022 8.022-8.022h123.893c4.431 0 8.022 3.591 8.022 8.022 0 29.678 15.404 60.368 30.301 90.043 15.557 30.994 31.647 63.044 31.647 95.798 0 72.737-59.178 131.914-131.915 131.914zM45.612 397.144c-1.23 0.712-2.618 1.077-4.014 1.077-0.695 0-1.393-0.091-2.075-0.272-2.056-0.551-3.81-1.896-4.872-3.741l-15.937-27.632c-2.214-3.837-0.896-8.744 2.942-10.955l28.598-16.493c1.233-0.712 2.615-1.072 4.008-1.072 0.827 0 1.655 0.128 2.458 0.387 2.155 0.692 3.917 2.268 4.851 4.329 4.070 9 9.191 17.798 15.22 26.149 1.329 1.839 1.816 4.156 1.34 6.374-0.474 2.22-1.867 4.132-3.829 5.268l-28.689 16.582zM184.116 430.519c1.794 0.187 3.57 0.43 5.343 0.674 3.385 0.462 6.581 0.901 9.75 0.901 3.168 0 6.364-0.438 9.75-0.901 1.773-0.243 3.548-0.486 5.343-0.674 0.281-0.029 0.561-0.046 0.839-0.046 1.97 0 3.888 0.728 5.367 2.061 1.69 1.522 2.655 3.688 2.655 5.961v33.483c0 4.431-3.591 8.022-8.022 8.022h-31.863c-4.431 0-8.022-3.591-8.022-8.022v-33.483c0-2.273 0.965-4.442 2.655-5.961 1.482-1.334 3.396-2.061 5.367-2.061 0.278 0 0.559 0.016 0.839 0.046zM104.707 401.867c0.556-0.118 1.118-0.177 1.677-0.177 1.671 0 3.319 0.524 4.695 1.519 8.346 6.027 17.143 11.148 26.148 15.22 2.065 0.933 3.637 2.695 4.332 4.85 0.695 2.155 0.444 4.506-0.687 6.466l-16.493 28.598c-1.484 2.575-4.182 4.017-6.957 4.017-1.359 0-2.738-0.345-4.001-1.072l-27.632-15.932c-1.845-1.064-3.19-2.818-3.741-4.875-0.551-2.056-0.262-4.246 0.802-6.091l16.587-28.692c1.136-1.965 3.051-3.358 5.27-3.832zM363.766 394.209c-1.064 1.845-2.815 3.19-4.872 3.741-0.682 0.182-1.382 0.272-2.075 0.272-1.399 0-2.784-0.366-4.014-1.077l-28.692-16.584c-1.962-1.134-3.356-3.048-3.829-5.267-0.474-2.22 0.014-4.535 1.339-6.375 6.086-8.428 11.217-17.226 15.252-26.149 0.933-2.065 2.695-3.637 4.853-4.332 0.802-0.256 1.631-0.385 2.457-0.385 1.393 0 2.778 0.363 4.011 1.075l28.566 16.493c3.834 2.214 5.15 7.118 2.938 10.955l-15.937 27.632zM261.209 418.432c9.046-4.105 17.838-9.217 26.13-15.196 1.377-0.992 3.022-1.513 4.693-1.513 0.562 0 1.123 0.059 1.682 0.176 2.216 0.476 4.132 1.869 5.265 3.832l16.555 28.66c2.216 3.837 0.904 8.741-2.933 10.958l-27.571 15.932c-1.23 0.712-2.618 1.075-4.014 1.075-0.695 0-1.393-0.091-2.075-0.273-2.057-0.553-3.808-1.896-4.872-3.741l-16.493-28.598c-1.131-1.96-1.38-4.305-0.687-6.463 0.69-2.152 2.26-3.915 4.321-4.848zM0 296.724v-31.865c0-4.431 3.591-8.022 8.022-8.022h33.545c2.291 0 4.474 0.978 5.995 2.69 1.522 1.712 2.241 3.992 1.974 6.268-0.187 1.601-0.414 3.198-0.642 4.795-0.505 3.561-0.984 6.925-0.984 10.199 0 3.168 0.438 6.364 0.901 9.75 0.243 1.773 0.484 3.551 0.674 5.345 0.238 2.262-0.495 4.517-2.016 6.207-1.522 1.69-3.688 2.655-5.961 2.655h-33.486c-4.431 0.002-8.022-3.589-8.022-8.019zM390.394 304.745h-33.483c-2.273 0-4.442-0.966-5.963-2.655-1.522-1.69-2.254-3.947-2.016-6.209 0.19-1.791 0.43-3.564 0.671-5.334 0.462-3.388 0.901-6.586 0.901-9.758 0-3.273-0.478-6.637-0.984-10.198-0.228-1.596-0.452-3.192-0.642-4.794-0.267-2.276 0.449-4.557 1.974-6.268 1.522-1.712 3.704-2.69 5.995-2.69h33.545c4.431 0 8.022 3.591 8.022 8.022v31.863c0.002 4.431-3.589 8.022-8.019 8.022zM326.729 179.529l26.077-15.060c1.23-0.712 2.615-1.075 4.011-1.075 0.695 0 1.393 0.091 2.075 0.272 2.057 0.551 3.808 1.896 4.872 3.738l15.932 27.601c1.064 1.842 1.353 4.033 0.8 6.089-0.551 2.057-1.899 3.808-3.741 4.87l-28.94 16.68c-1.233 0.712-2.615 1.072-4.005 1.072-0.88 0-1.76-0.144-2.61-0.436-2.192-0.754-3.952-2.423-4.824-4.57-3.851-9.495-8.171-19.156-12.843-28.713-1.848-3.789-0.452-8.361 3.198-10.469zM57.111 223.211c-0.855 0.297-1.743 0.444-2.629 0.444-1.393 0-2.776-0.361-4.008-1.072l-28.814-16.616c-1.843-1.062-3.19-2.815-3.741-4.87-0.551-2.057-0.265-4.247 0.799-6.089l15.931-27.601c1.486-2.575 4.182-4.014 6.955-4.014 1.358 0 2.736 0.345 3.998 1.072l25.86 14.904c3.644 2.101 5.046 6.658 3.214 10.445-4.743 9.805-9.032 19.493-12.747 28.793-0.861 2.161-2.62 3.837-4.819 4.602z" horiz-adv-x="399" />
<glyph unicode="&#xe60a;" d="M218.312 387.504c0-21.296-17.264-38.56-38.56-38.56s-38.56 17.264-38.56 38.56c0 21.296 17.264 38.56 38.56 38.56 21.296 0 38.56-17.264 38.56-38.56zM422.144 56.456c-45.952 68.584-98.496 157.92-107.328 173-0.8 2.736-1.856 5.512-3.312 8.304-10.496 20.456-21.472 40.68-32.672 60.768 11.872-0.928 23.776-1.848 35.64-2.768 8.16-16.080 16.28-32.168 24.424-48.24 13.112-25.896 51.92-3.112 38.84 22.712-10.496 20.744-22.936 67.4-50.032 69.504-28.832 2.24-57.656 4.48-86.48 6.712-0.704 0.056-1.304-0.040-1.976-0.040-21.792 5.832-47.336-9.544-51.96-31.76-14.736-31.912-35.896-56.832-71.4-67.232-27.792-8.128-15.952-51.544 11.96-43.384 35.096 10.272 60.304 30.384 79.416 56.856 11.576-20.64 22.88-41.408 33.712-62.464-23.816-16.424-44.624-36.288-62.856-59.208-5.088-6.392-5.96-12.968-4.248-18.752-0.064-2.16 0.072-4.4 0.688-6.832 7.016-27.776 14.024-55.504 21.048-83.248 7.448-29.568 54.256-21.168 46.744 8.592-6.68 26.44-13.368 52.88-20.048 79.336 16.752 19.752 36.504 36.936 59.072 49.768 5.312 3.024 8.656 7.192 10.512 11.784 30.872-47.312 61.752-112.768 92.608-152.44 18.832-24.208 56.504 4.776 37.648 29.032z" />
<glyph unicode="&#xe60b;" d="M40.361 244.21l80.721-6.737v121.263l-80.721 80.842v-195.369zM121.082 210.526l-80.721-6.737v-195.369l80.721 80.842v121.263zM417.058 237.474l80.721 6.737v195.369l-80.721-80.842v-121.263zM497.779 203.789l-80.721 6.737v-121.263l80.721-80.842v195.369zM538.139 480v-512h-40.361l-80.721 80.842h-295.976l-80.721-80.842h-40.361v512h40.361l80.721-80.842h295.976l80.721 80.842h40.361zM376.697 358.737h-215.256v-269.473h215.256v269.474z" horiz-adv-x="538" />
<glyph unicode="&#xe60c;" d="M431.023-32h-431.023v512h431.023v-512zM377.146 426.106h-148.164v-188.631h148.164v188.631zM53.878 426.106v-188.631h148.164v188.631h-148.164zM53.878 21.894h148.164v188.631h-148.164v-188.631zM377.146 21.894v188.631h-148.164v-188.631h148.164z" horiz-adv-x="431" />
<glyph unicode="&#xe60d;" d="M378.061 52.31c1.127-9.659-5.735-18.466-15.394-19.593-9.455-1.058-18.398 5.7-19.593 15.394l-9.284 77.107-62.669 25.942 34.885-61.337c2.56-4.608 2.901-10.001 1.092-14.882l-36.898-95.574c-2.697-7.065-9.387-11.366-16.452-11.366-2.117 0-4.198 0.375-6.28 1.161-9.113 3.447-13.654 13.619-10.206 22.699l31.232 82.091-43.69 58.334-88.44 73.387-59.119-15.19c-1.672-0.546-3.413-0.785-5.12-0.785-4.096 0-8.192 1.433-11.401 4.13l-54.477 46.114c-7.441 6.315-8.329 17.442-2.082 24.849 6.28 7.475 17.408 8.363 24.815 2.082l47.172-39.936c0 0 62.088 11.298 84.343 25.873s73.967 41.506 73.967 41.506c5.154 4.915 12.834 6.213 19.286 3.379l75.4-33.519c8.875-3.891 12.868-14.336 8.977-23.21-3.959-8.977-14.37-12.936-23.245-9.046l-64.649 28.741-28.536-13.995 42.462-34.44 88.474-54.545c7.714-1.297 13.619-7.51 14.541-15.224l10.889-90.146zM174.558 289.741c0-21.777-17.613-39.39-39.219-39.39-21.777 0-39.424 17.647-39.424 39.39 0 21.709 17.681 39.288 39.424 39.288 21.641 0 39.219-17.579 39.219-39.288zM201.831 311.040l-9.489 92.706 42.394-35.362 4.335 79.769 35.26-53.078 50.927 84.924 3.789-89.225 62.327 35.192-32.426-77.927 74.615 19.49-40.926-63.795 42.223-3.55-71.168-59.563 32.256 45.022-24.507 4.403 27.478 52.394-55.877-7.099 13.995 53.521-44.305-22.153-2.799 57.617-32.632-50.961-26.624 35.123-6.725-58.265-41.677 29.184-0.444-68.369z" horiz-adv-x="435" />
<glyph unicode="&#xe60e;" d="M256 64c-106.016 0-192 42.976-192 96 0 19.584 11.872 37.76 32 52.928v43.072c0 66.080 40.096 122.784 97.312 147.2-0.864 4.128-1.312 8.416-1.312 12.8 0 35.328 28.672 64 64 64s64-28.672 64-64c0-4.384-0.448-8.672-1.312-12.8 57.184-24.416 97.312-81.12 97.312-147.2v-43.072c20.128-15.168 32-33.344 32-52.928 0-53.024-85.984-96-192-96zM256 32c22.208 0 43.264 2.112 63.488 5.12 0.128-1.728 0.512-3.36 0.512-5.12 0-35.328-28.672-64-64-64s-64 28.672-64 64c0 1.76 0.384 3.392 0.512 5.12 20.256-3.008 41.28-5.12 63.488-5.12z" />
<glyph unicode="&#xe60f;" d="M160.504-32c-34.123 71.004-15.951 111.689 10.275 150.021 28.72 41.979 36.122 83.533 36.122 83.533s22.577-29.35 13.546-75.254c39.886 44.4 47.413 115.14 41.391 142.232 90.157-63.005 128.688-199.427 76.761-300.532 276.187 156.266 68.699 390.086 32.577 416.425 12.041-26.338 14.324-70.925-10-92.563-41.176 156.138-142.986 188.138-142.986 188.138 12.041-80.522-43.648-168.572-97.348-234.365-1.887 32.108-3.891 54.264-20.775 84.99-3.79-58.328-48.366-105.874-60.437-164.314-16.351-79.143 12.248-137.090 120.874-198.311z" />
<glyph unicode="&#xe610;" d="M84 426.664v-70.712l105.672 86.712h-89.672c-8.824 0-16-7.176-16-16zM415 426.664c0 8.824-7.176 16-16 16h-89.184l105.184-86.312v70.312zM346.040 237.168l35.744-20.712c0.496-0.128 1.68-0.352 3.36-0.352 1.496 0 2.552 0.184 3 0.288l26.848 14.864v61.944c-5.696 0.712-11.032 2.856-15.304 6.36l-149.944 123.040-149.952-123.040c-4.392-3.608-9.912-5.76-15.792-6.4v-58.824l10.456 5.248c11.072 5.56 24.168 8.496 37.872 8.496 16.424 0 32.4-4.264 44.992-12.016l24.008-14.8v91.6c0 4.424 3.576 8 8 8h92c4.424 0 8-3.576 8-8v-65.048c13.4-0.992 26.248-4.576 36.712-10.648zM456.888 156.248l-61.688-34.16c-4.968-2.76-15.792-2.648-20.696 0.184l-36.192 20.968c-19.232 11.16-47.704 12.032-67.664 2.136l-47.856-23.768c-5.24-2.608-16.416-2.144-21.32 0.88l-32.232 19.864c-19.168 11.8-47.712 12.992-67.856 2.864l-69.808-35.040c-11.84-5.952-16.632-20.376-10.688-32.216 4.216-8.392 12.68-13.24 21.472-13.24 3.624 0 7.296 0.832 10.752 2.552l69.816 35.048c5.192 2.608 16.264 2.168 21.144-0.832l32.24-19.864c19.12-11.776 47.624-13.040 67.832-3.016l47.864 23.768c5.408 2.688 17.048 2.36 22.256-0.664l36.192-20.968c19.592-11.368 48.208-11.624 68.016-0.64l61.68 34.16c11.592 6.416 15.792 21.024 9.368 32.616-6.424 11.6-21.040 15.816-32.632 9.368zM456.888 76.248l-61.688-34.16c-4.968-2.752-15.792-2.64-20.696 0.184l-36.192 20.968c-19.232 11.16-47.704 12.040-67.664 2.136l-47.856-23.768c-5.24-2.608-16.416-2.144-21.32 0.88l-32.232 19.864c-19.168 11.8-47.712 12.992-67.856 2.864l-69.808-35.040c-11.84-5.952-16.632-20.376-10.688-32.216 4.216-8.392 12.68-13.24 21.472-13.24 3.624 0 7.296 0.832 10.752 2.552l69.816 35.048c5.192 2.608 16.264 2.168 21.144-0.832l32.24-19.864c19.12-11.776 47.624-13.032 67.832-3.016l47.864 23.768c5.408 2.696 17.048 2.36 22.256-0.664l36.192-20.968c19.592-11.368 48.208-11.632 68.016-0.64l61.68 34.16c11.592 6.416 15.792 21.024 9.368 32.616-6.424 11.608-21.040 15.824-32.632 9.368zM76 333.864l-7.168-5.88c-0.32-0.264-0.552-0.56-0.832-0.84-5.24-5.040-5.24-12.432 0-17.472 0.288-0.28 0.52-0.576 0.832-0.84 2.064-1.688 4.544-2.784 7.168-3.392 1.48-0.344 2.984-0.576 4.504-0.576 1.176 0 2.344 0.128 3.496 0.328 2.992 0.528 5.848 1.728 8.176 3.64l157.568 129.296 157.568-129.288c2.2-1.808 4.88-2.944 7.688-3.52 1.312-0.264 2.64-0.448 3.984-0.448 1.352 0 2.696 0.184 4.016 0.456 2.8 0.576 5.464 1.712 7.648 3.512 0.136 0.112 0.224 0.24 0.352 0.352 5.928 5.192 5.928 13.256 0 18.448-0.128 0.112-0.216 0.24-0.352 0.352l-169.232 138.864c-3.096 2.536-7.384 3.808-11.672 3.808-4.288 0-8.576-1.272-11.672-3.808l-162.072-132.992zM263.792 239.768c8.784 4.368 18.88 7.048 29.544 8.024v57.080h-76v-88.168l46.456 23.064zM21.128 158.096c4.128-8.456 12.512-13.36 21.224-13.36 3.528 0 7.112 0.808 10.488 2.496l69.816 35.040c2.368 1.192 5.92 1.76 9.576 1.76 4.592 0 9.352-0.904 12.136-2.616l32.232-19.864c10.408-6.408 23.624-9.68 36.736-9.68 10.776 0 21.488 2.208 30.52 6.688l47.864 23.768c2.528 1.256 6.384 1.872 10.336 1.872 4.728 0 9.584-0.872 12.488-2.552l36.192-20.976c9.92-5.744 22.16-8.624 34.384-8.624 11.728 0 23.44 2.656 33.056 7.992l61.68 34.16c11.472 6.352 15.696 20.928 9.432 32.56-4.296 7.984-12.408 12.504-20.784 12.504-3.832 0-7.72-0.944-11.32-2.944l-61.688-34.152c-2.488-1.384-6.392-2.064-10.336-2.064-4.16 0-8.352 0.76-10.936 2.248l-36.192 20.968c-8.312 4.816-18.36 7.6-28.688 8.52-2.384 0.208-4.768 0.424-7.168 0.424-0.28 0-0.56-0.040-0.832-0.040-2.68-0.024-5.352-0.176-8-0.472-7.984-0.888-15.696-2.968-22.424-6.304l-47.872-23.776c-2.192-1.080-5.416-1.592-8.776-1.672-0.272-0.008-0.52-0.064-0.8-0.064-0.448 0-0.888 0.048-1.336 0.064-2.136 0.080-4.232 0.336-6.144 0.784-1.864 0.44-3.56 1.024-4.824 1.792l-32.232 19.864c-10.376 6.384-23.536 9.64-36.6 9.64-10.848 0-21.624-2.24-30.696-6.792l-69.8-35.040c-11.72-5.872-16.52-20.272-10.712-32.152z" />
<glyph unicode="&#xe611;" d="M230.722 59.66c0 12.762-9.918 23.144-22.112 23.144h-114.248c-12.194 0-22.112-10.382-22.112-23.144s9.918-23.144 22.112-23.144h114.248c12.19 0 22.112 10.382 22.112 23.144zM106.231 14.288c-13.444 0-24.381-10.382-24.381-23.144s10.938-23.144 24.381-23.144h91.749c13.444 0 24.381 10.382 24.381 23.144s-10.938 23.144-24.381 23.144h-91.749zM151.519 480c-83.529 0-151.519-67.99-151.519-151.519 0-37.874 18.688-75.329 36.752-111.6 17.687-35.51 34.353-69.103 34.353-101.813 0-5.088 4.124-9.212 9.212-9.212h142.307c5.088 0 9.212 4.124 9.212 9.212 0 34.082 17.726 69.365 34.833 103.443 17.865 35.593 36.272 72.356 36.272 109.969 0 83.529-67.894 151.519-151.423 151.519zM151.423 442.864c7.306 0.113 14.591-0.417 21.782-1.727 35.575-6.287 67.112-31.362 81.661-64.581 11.812-25.408 12.951-55.399 3.551-81.757-9.679-28.286-25.727-53.751-36.752-81.469-5.26-13.087-8.867-27.011-9.404-41.166 0.054-3.44-2.438-6.005-5.565-7.005-35.237 0.116-70.513-0.248-105.746 0.288-4.141-0.735-7.366 2.957-7.485 6.909-0.056 11.171-2.909 22.126-6.525 32.626-7.914 22.225-19.514 42.875-29.267 64.293-8.167 17.745-15.537 36.475-16.409 56.232-1.833 30.997 10.458 62.261 32.242 84.156 20.261 20.885 48.942 32.926 77.918 33.202z" horiz-adv-x="303" />
<glyph unicode="&#xe612;" d="M288.389 122.204c0-28.111-22.788-50.897-50.898-50.897s-50.898 22.788-50.898 50.897c0 24.95 17.952 45.707 41.644 50.058v116.517h18.508v-116.517c23.692-4.353 41.644-25.108 41.644-50.058zM320.779 122.204c0-45.998-37.289-83.288-83.288-83.288s-83.288 37.289-83.288 83.288c0 32.702 18.846 61 46.27 74.63v175.233c0 20.444 16.572 37.017 37.018 37.017 20.443 0 37.017-16.572 37.017-37.017v-175.232c27.424-13.628 46.271-41.929 46.271-74.63zM218.982 184.3c-26.757-7.964-46.27-32.752-46.27-62.096 0-35.776 29.002-64.779 64.779-64.779 35.776 0 64.779 29.002 64.779 64.779 0 29.345-19.511 54.132-46.269 62.096v187.766c0 10.223-8.287 18.508-18.508 18.508-10.223 0-18.508-8.286-18.508-18.508v-187.766zM191.22 381.322v-9.255h-55.525v9.255h55.525zM191.22 353.559v-9.255h-37.018v9.255h37.017zM191.22 325.796v-9.255h-55.525v9.255h55.525zM191.22 298.033v-9.255h-37.018v9.255h37.017zM191.22 270.27v-9.255h-55.525v9.255h55.525zM191.22 242.508v-9.255h-37.018v9.255h37.017zM191.22 214.745v-9.255h-55.525v9.255h55.525zM393.209 228.643c-8.727-4.246-20.127-6.371-34.199-6.371-18.372 0-32.813 5.426-43.322 16.277-10.51 10.851-15.763 25.3-15.763 43.348 0 19.237 5.911 34.838 17.733 46.803 11.822 11.967 27.162 17.95 46.019 17.95 11.679 0 21.522-1.512 29.529-4.535v-26.559c-7.882 4.607-16.861 6.911-26.939 6.911-11.067 0-19.996-3.472-26.789-10.418-6.793-6.946-10.19-16.356-10.19-28.234 0-11.389 3.202-20.463 9.609-27.22 6.406-6.756 15.034-10.135 25.885-10.135 10.349 0 19.821 2.303 28.423 6.909v-24.723zM434.614 300.007c-6.729 0-12.433 2.276-17.113 6.829-4.679 4.554-7.019 10.095-7.019 16.627 0 6.514 2.339 12.006 7.019 16.478 4.678 4.471 10.383 6.707 17.113 6.707 6.695 0 12.408-2.235 17.139-6.707 4.731-4.471 7.099-9.964 7.099-16.478 0-6.531-2.365-12.074-7.099-16.627-4.731-4.553-10.446-6.829-17.139-6.829zM434.668 334.558c-2.898 0-5.349-1.079-7.355-3.238-2.005-2.161-3.010-4.795-3.010-7.909 0-3.114 1.004-5.776 3.010-7.99 2.005-2.213 4.457-3.32 7.355-3.32 2.844 0 5.281 1.106 7.315 3.32 2.033 2.214 3.051 4.877 3.051 7.99 0 3.114-1.004 5.749-3.010 7.909-2.006 2.16-4.458 3.238-7.355 3.238z" />
<glyph unicode="&#xe613;" d="M84.941 150.462l87.844-46.305c-0.947-0.297-1.91-0.548-2.887-0.738l-48.179-9.047c-13.993-2.632-27.479 6.594-30.116 20.592l-6.661 35.497zM492.8 354.073h-56.084v-0.148h-19.466v-25.795h26.025l-0.010-69.924-35.262-35.262 0.19 39.424-36.9-8.499-0.957 5.105-351.135-65.936 176.553-87.572 196.475 36.889-1.024 5.488 16.471 3.092 0.185 38.349 1.495-1.485 59.709 59.709v80.763h23.736v25.8z" />
<glyph unicode="&#xe614;" d="M482.848 355.312h-49.776c-17.072 0-30.992-13.872-30.992-30.976v-19.936c0-17.104 13.872-30.992 30.992-30.992h9.408v-98.608l-100.992-114.208v71.552c-40.080-37.76-94.032-60.992-153.312-60.992-58.576 0-111.92 22.624-151.84 59.6v-132.928c0-15.712 12.736-28.448 28.448-28.448h248.288c15.696 0 28.432 12.736 28.432 28.448v1.424l141.376 160.16v195.904h-0.032zM188.16 111.776c100.912 0 183.008 82.096 183.008 183.008 0 100.896-82.112 182.992-183.008 182.992-100.928 0-183.008-82.096-183.008-182.992 0-100.912 82.080-183.008 183.008-183.008zM173.056 444.128c11.008 0 19.92-8.912 19.92-19.904s-8.928-19.888-19.92-19.888c-10.976 0-19.888 8.912-19.888 19.888 0 10.992 8.912 19.904 19.888 19.904zM188.16 341.168c24.272 0 43.952-19.664 43.952-43.968 0-24.272-19.68-43.936-43.952-43.936-24.272 0-43.984 19.664-43.984 43.936 0 24.304 19.712 43.968 43.984 43.968zM38.304 299.008c-6.368 80.512 62.192 117.92 65.12 119.472 9.904 5.296 22.176 1.52 27.472-8.432 5.264-9.872 1.536-22.128-8.32-27.408-2.176-1.2-47.984-26.992-43.76-80.416 0.88-11.2-7.456-20.976-18.64-21.856-0.544-0.032-1.104-0.048-1.632-0.048-10.512-0.016-19.392 8.048-20.24 18.688zM216.528 297.216c0-15.667-12.701-28.368-28.368-28.368s-28.368 12.701-28.368 28.368c0 15.667 12.701 28.368 28.368 28.368 15.667 0 28.368-12.701 28.368-28.368z" />
<glyph unicode="&#xe615;" d="M380.878 336.39c-2.082 3.469-4.509 5.203-7.284 5.203h-53.073v117.594c0 5.55-2.082 10.406-6.244 14.569s-9.192 6.244-15.089 6.244-10.927-2.082-15.089-6.244-6.244-9.019-6.244-14.569v-117.594h-170.667v117.594c0 5.55-2.082 10.406-6.244 14.569s-9.192 6.244-15.090 6.244-10.927-2.082-15.090-6.244-6.244-9.019-6.244-14.569v-117.594h-53.073c-2.776 0-5.377-1.735-7.805-5.203s-3.643-6.938-3.643-10.406v-50.992c0-13.182 5.55-29.138 16.651-47.87s23.414-36.423 36.943-53.073 25.843-36.943 36.943-60.878 16.65-47.003 16.65-69.204v-33.301h42.666v-42.666h85.334v42.666h42.666v33.301c0 22.2 5.55 45.269 16.651 69.204s23.241 44.228 36.423 60.878 25.322 34.341 36.423 53.073 16.651 34.688 16.651 47.87v50.992c0 3.474-1.041 6.943-3.122 10.406zM250.797 199.024c-56.889-73.539-86.028-111.003-87.415-112.39-0.694-1.387-1.214-1.735-1.561-1.041s-0.52 1.735-0.52 3.122l19.773 78.049c0.694 2.776-0.346 4.163-3.122 4.163h-41.626c-2.775 0-3.469 1.041-2.082 3.122 56.889 72.151 86.028 108.922 87.415 110.309 0.694 0.694 1.214 1.040 1.561 1.040s0.52-0.694 0.52-2.082l-18.732-77.008c-1.387-2.082-0.694-3.122 2.082-3.122h41.626c3.469 0 4.162-1.387 2.082-4.163z" horiz-adv-x="384" />
<glyph unicode="&#xe616;" d="M489.739 279.663h-222.608v66.772c0 73.772-59.804 133.565-133.565 133.565-73.772 0-133.565-59.793-133.565-133.565v-89.043c0-12.288 9.973-22.261 22.261-22.261s22.261 9.973 22.261 22.261v89.043c0 49.185 39.858 89.043 89.043 89.043 49.174 0 89.043-39.858 89.043-89.043v-66.772c-24.587 0-44.522-19.935-44.522-44.522v-222.62c0-24.587 19.935-44.522 44.522-44.522h267.13c24.587 0 44.522 19.935 44.522 44.522v222.62c0 24.587-19.934 44.522-44.522 44.522zM489.739 12.522h-267.13v222.608h267.13v-222.608zM333.913 107.743v-28.438c0-12.288 9.973-22.25 22.261-22.25s22.261 9.962 22.261 22.25v28.438c13.245 7.714 22.261 21.916 22.261 38.344 0 24.599-19.935 44.533-44.522 44.533s-44.522-19.935-44.522-44.533c0-16.44 9.015-30.631 22.261-38.344z" horiz-adv-x="535" />
<glyph unicode="&#xe617;" d="M311.652 279.663v66.772c0 73.772-59.804 133.565-133.565 133.565-73.772 0-133.565-59.793-133.565-133.565v-66.772c-24.587 0-44.522-19.935-44.522-44.522v-222.62c0-24.587 19.934-44.522 44.522-44.522h267.13c24.587 0 44.522 19.935 44.522 44.522v222.62c0 24.587-19.935 44.522-44.522 44.522zM89.043 346.435c0 49.185 39.869 89.043 89.043 89.043s89.043-39.858 89.043-89.043v-66.772h-178.087v66.772zM311.652 12.522h-267.13v222.608h267.13v-222.608zM155.826 107.743v-28.438c0-12.288 9.973-22.261 22.261-22.261s22.261 9.973 22.261 22.261v28.438c13.245 7.714 22.261 21.916 22.261 38.344 0 24.599-19.935 44.533-44.522 44.533s-44.522-19.935-44.522-44.533c0-16.44 9.016-30.631 22.261-38.344z" horiz-adv-x="356" />
<glyph unicode="&#xe618;" d="M99.253 22.47v201.53l-25.191-19.595-36.388 54.582 218.325 163.744 218.325-163.744-36.387-54.582-25.192 19.595v-201.53h-33.587v201.53h-246.315v-201.53h-33.589z" />
<glyph unicode="&#xe619;" d="M99.253 22.47v201.53l-25.191-19.595-36.388 54.582 218.325 163.744 218.325-163.744-36.387-54.582-25.192 19.595v-201.53h-33.587v201.53h-246.315v-201.53h-33.589zM356.765 156.824h-201.53v44.785h201.53v-44.785zM356.765 89.644h-201.53v44.786h201.53v-44.786zM356.765 22.47h-201.53v44.785h201.53v-44.785z" />
<glyph unicode="&#xe61a;" d="M397.474 250.947v-53.894h-20.211v-40.421h-242.526v134.737h242.526v-40.421h20.211zM161.684 264.421v-80.842h188.631v80.842h-188.631zM168.421 190.316v67.368h33.684l33.684-67.368h-67.368zM212.21 257.684h53.895l33.684-67.368h-53.894l-33.684 67.368zM343.579 257.684v-67.368h-33.684l-33.684 67.368h67.368z" />
<glyph unicode="&#xe61b;" d="M397.474 250.947v-53.894h-20.211v-40.421h-242.526v134.737h242.526v-40.421h20.211zM161.684 264.421v-80.842h188.631v80.842h-188.631zM168.421 190.316v67.368h33.684l33.684-67.368h-67.368zM212.21 257.684h53.895l33.684-67.368h-53.894l-33.684 67.368z" />
<glyph unicode="&#xe61c;" d="M397.474 250.947v-53.894h-20.211v-40.421h-242.526v134.737h242.526v-40.421h20.211zM161.684 264.421v-80.842h188.631v80.842h-188.631zM168.421 190.316v67.368h33.684l33.684-67.368h-67.368z" />
<glyph unicode="&#xe61d;" d="M397.474 250.947v-53.894h-20.211v-40.421h-242.526v134.737h242.526v-40.421h20.211zM161.684 264.421v-80.842h188.631v80.842h-188.631z" />
<glyph unicode="&#xe61e;" d="M117.002 32.938l-15.603-47.53h309.2l-15.603 47.53h-277.995zM165.508-5.789h-50.782l9.825 29.926h70.884c-9.975-9.976-19.951-19.952-29.927-29.926zM255.12 319.879c-68.056 0-123.226-55.17-123.226-123.226v-151.393h248.214v151.391c0 68.056-55.17 123.226-123.226 123.226h-1.762zM356.341 193.132c0-5.832-4.73-10.562-10.562-10.562-5.832 0-10.563 4.73-10.563 10.562 0 42.709-34.746 77.457-77.457 77.457h-1.761c-5.833 0-10.561 4.73-10.561 10.561 0 5.834 4.729 10.563 10.561 10.563h1.761c54.358 0.001 98.581-44.222 98.581-98.58zM112.066 246.072c2.181 10.873-4.862 21.454-15.731 23.636l-58.108 11.662c-10.872 2.18-21.452-4.863-23.634-15.733-0.474-2.367-0.512-4.716-0.17-6.97 1.233-8.107 7.397-14.957 15.902-16.664l58.107-11.661c10.872-2.182 21.454 4.861 23.635 15.731zM98.74 380.71l37.016-46.284c6.924-8.658 19.559-10.064 28.218-3.139 8.66 6.925 10.062 19.559 3.139 28.219l-37.016 46.284c-6.927 8.658-19.558 10.064-28.219 3.139-5.809-4.646-8.353-11.859-7.309-18.719 0.513-3.367 1.889-6.649 4.169-9.5zM258.512 363.197c11.085-0.26 20.281 8.514 20.543 19.6l-0.142 59.246c0.263 11.082-8.512 20.284-19.598 20.543-11.085 0.26-20.282-8.514-20.542-19.597l0.142-59.249c-0.030-1.197 0.049-2.37 0.225-3.517 1.438-9.45 9.487-16.793 19.374-17.027zM351.444 326.875c8.323-7.323 21.010-6.515 28.334 1.808l39.153 44.49c7.324 8.324 6.514 21.009-1.81 28.335-8.322 7.324-21.009 6.514-28.333-1.809l-39.153-44.491c-4.082-4.637-5.637-10.629-4.776-16.294 0.685-4.5 2.899-8.796 6.584-12.040zM497.573 254.272c-1.669 10.961-11.906 18.495-22.869 16.827l-58.589-8.916c-10.962-1.667-18.497-11.906-16.829-22.867 1.669-10.962 11.907-18.496 22.869-16.828l58.589 8.915c10.962 1.669 18.495 11.907 16.829 22.87z" />
<glyph unicode="&#xe61f;" d="M366.848 296.128c0 0-22.016 22.848-106.192 22.848-84.144 0-106.192-22.848-106.192-22.848v-167.872c-11.312-2.336-19.776-4.864-25.968-7.104-9.088-3.328-15.136-11.968-15.136-21.664v-94.576c0-10.832 7.552-20.224 18.128-22.496 24.592-5.328 72.032-13.632 129.184-13.632s104.592 8.304 129.184 13.632c10.608 2.288 18.128 11.664 18.128 22.496v94.16c0 9.632-6.016 18.272-15.056 21.616-6.352 2.336-14.928 4.992-26.048 7.488v167.952zM195.12 283.568c9.104 0 16.496-7.408 16.496-16.512 0-9.12-7.392-16.48-16.496-16.48-9.104 0-16.496 7.36-16.496 16.48 0.016 9.104 7.408 16.512 16.496 16.512zM177.296 224.928c0 10.448 7.84 18.928 18.272 18.928s18.272-8.464 18.272-18.928v-97.728c0-10.448-7.824-18.88-18.272-18.88-10.432 0-18.272 8.416-18.272 18.88v97.728zM260.656 344.848c10.432 0 19.424 8.464 19.424 18.928v94.48c0 10.448-8.992 18.928-19.424 18.928-10.432 0-19.408-8.464-19.408-18.928v-94.48c0-10.464 8.976-18.928 19.408-18.928zM181.52 357.056c1.84-1.824 4.256-2.752 6.688-2.752 2.416 0 4.832 0.928 6.672 2.752 3.68 3.712 3.68 9.712 0 13.344l-66.832 66.848c-3.68 3.712-9.664 3.712-13.36 0-3.696-3.68-3.696-9.68 0-13.344l66.832-66.848zM333.136 354.304c2.416 0 4.816 0.928 6.672 2.752l66.816 66.848c3.696 3.664 3.696 9.664 0 13.344-3.68 3.712-9.664 3.712-13.36 0l-66.816-66.848c-3.68-3.632-3.68-9.632 0-13.344 1.856-1.824 4.256-2.752 6.688-2.752zM511.856 333.040c-1.68 10.288-11.264 17.312-21.696 15.552l-93.248-15.296c-10.304-1.712-17.28-11.44-15.6-21.728 1.52-9.264 9.536-15.808 18.64-15.808 1.024 0 2.016 0.080 3.072 0.256l93.264 15.296c10.288 1.664 17.28 11.408 15.568 21.728zM121.392 295.76c9.104 0 17.104 6.544 18.64 15.808 1.68 10.288-5.296 20.016-15.6 21.728l-93.264 15.296c-10.464 1.856-20.032-5.264-21.696-15.552-1.712-10.336 5.28-20.064 15.568-21.728l93.248-15.296c1.056-0.176 2.080-0.256 3.104-0.256z" />
<glyph unicode="&#xe620;" d="M642.434 259.221h54.179v-15.238h-32.168v-12.384h27.476v-14.319h-27.476v-28.976h-22.010v70.916zM576.259 259.221h54.179v-15.238h-32.168v-12.384h27.476v-14.319h-27.476v-28.976h-22.010v70.916zM490.781 223.714c0 11.577 3.225 20.591 9.675 27.041s15.432 9.674 26.944 9.675c11.803 0 20.898-3.176 27.283-9.53 6.385-6.321 9.578-15.19 9.578-26.606 0-8.288-1.403-15.093-4.208-20.414-2.774-5.289-6.804-9.417-12.093-12.384-5.256-2.935-11.819-4.402-19.688-4.402-7.998 0-14.625 1.274-19.882 3.822-5.224 2.548-9.465 6.579-12.723 12.094-3.257 5.514-4.886 12.416-4.886 20.704zM512.695 223.618c0-7.159 1.322-12.303 3.966-15.431 2.677-3.128 6.304-4.692 10.884-4.692 4.708 0 8.352 1.532 10.933 4.596 2.58 3.063 3.87 8.562 3.87 16.495 0 6.675-1.355 11.545-4.063 14.609-2.677 3.096-6.321 4.644-10.933 4.644-4.418 0-7.966-1.564-10.643-4.692-2.677-3.128-4.015-8.304-4.015-15.528zM593.749 480c-57.236 0-103.635-45.195-103.635-100.945s46.396-100.942 103.635-100.942c57.236 0 103.635 45.195 103.635 100.945 0 55.75-46.399 100.942-103.635 100.942zM583.286 453.432c0 5.629 4.684 10.191 10.463 10.191s10.463-4.563 10.463-10.191v-70.181c0-5.629-4.684-10.191-10.463-10.191s-10.463 4.563-10.463 10.191v70.181zM593.749 304.502c-40.432 0-73.324 32.041-73.324 71.421 0 25.549 14.17 49.322 36.983 62.028 5.015 2.792 11.408 1.097 14.279-3.788 2.87-4.885 1.126-11.112-3.889-13.908-16.315-9.087-26.447-26.073-26.447-44.332 0-28.142 23.506-51.038 52.398-51.038 28.891 0 52.398 22.897 52.398 51.038 0 18.26-10.135 35.245-26.45 44.332-5.015 2.793-6.759 9.019-3.889 13.907 2.87 4.889 9.26 6.584 14.279 3.788 22.816-12.705 36.986-36.471 36.986-62.027 0-39.379-32.892-71.421-73.324-71.421zM338.493 289.245v-289.394c0-16.416 13.305-29.721 29.721-29.721s29.721 13.305 29.721 29.721v192.86h4.538c13.444 0 24.351 17 24.351 37.974s-10.908 37.974-24.351 37.974c-1.555 0-3.062 0-4.538 0v20.587c0 16.416-13.305 29.721-29.721 29.721s-29.721-13.315-29.721-29.721zM300.519-30.296c16.416 0 29.721 13.305 29.721 29.721v289.394c0 16.416-13.305 29.721-29.721 29.721s-29.721-13.305-29.721-29.721v-289.394c0-16.416 13.305-29.721 29.721-29.721zM232.815-30.722c16.416 0 29.721 13.305 29.721 29.721v289.394c0 16.416-13.305 29.721-29.721 29.721s-29.721-13.305-29.721-29.721v-289.394c0-16.416 13.305-29.721 29.721-29.721zM165.12-31.148c16.416 0 29.721 13.305 29.721 29.721v289.394c0 16.416-13.305 29.721-29.721 29.721s-29.721-13.305-29.721-29.721v-289.394c0-16.406 13.305-29.721 29.721-29.721zM67.695 287.541v-289.394c0-16.416 13.305-29.721 29.721-29.721s29.721 13.305 29.721 29.721v289.394c0 16.416-13.305 29.721-29.721 29.721s-29.721-13.305-29.721-29.721zM29.721-32c16.416 0 29.721 13.305 29.721 29.721v289.394c0 16.416-13.305 29.721-29.721 29.721s-29.721-13.305-29.721-29.721v-289.394c0-16.406 13.305-29.721 29.721-29.721z" horiz-adv-x="698" />
<glyph unicode="&#xe621;" d="M629.606 208.861v14.606h33.522v-29.93c-6.417-4.374-12.1-7.359-17.048-8.955-4.917-1.565-10.759-2.346-17.527-2.346-8.332 0-15.133 1.421-20.4 4.262-5.236 2.841-9.307 7.072-12.212 12.69-2.874 5.619-4.31 12.068-4.31 19.347 0 7.662 1.581 14.319 4.741 19.97 3.16 5.683 7.79 9.993 13.888 12.93 4.757 2.267 11.158 3.4 19.203 3.4 7.758 0 13.553-0.702 17.384-2.107 3.863-1.405 7.056-3.591 9.577-6.56 2.554-2.937 4.47-6.673 5.746-11.206l-20.927-3.736c-0.862 2.65-2.331 4.677-4.405 6.082-2.043 1.405-4.661 2.107-7.854 2.107-4.757 0-8.556-1.66-11.398-4.981-2.809-3.288-4.214-8.508-4.214-15.66 0-7.599 1.42-13.026 4.262-16.282 2.874-3.257 6.864-4.885 11.972-4.885 2.427 0 4.741 0.351 6.944 1.053 2.203 0.702 4.725 1.899 7.567 3.591v6.608h-14.51zM512.615 253.637h21.693v-24.566h23.705v24.566h21.789v-70.204h-21.789v28.397h-23.705v-28.397h-21.693v70.204zM670.856 287.015c6.204 6.335 9.105 14.162 8.293 21.905-0.548 5.244-11.835 5.282-11.283 0 0.679-6.478-1.567-12.469-6.752-17.762-4.234-4.321 5.558-8.413 9.741-4.143zM627.699 439.382v-95.941c-4.442-2.507-8.352-5.657-11.733-9.216-5.427-5.714-9.279-12.609-11.024-20.22-0.679-2.961-1.138-5.994-1.138-9.133 0-0.216 0.034-0.424 0.034-0.636 0.386-24.918 23.13-45.017 51.165-45.017 3.572 0 7.053 0.329 10.417 0.95 23.283 4.287 40.787 22.67 40.787 44.699 0 16.77-10.17 31.389-25.283 39.326v95.188c0 11.287-8.846 20.712-20.684 23.116-1.907 0.386-3.885 0.61-5.928 0.61-9.987 0-18.676-4.911-23.228-12.17-2.149-3.419-3.385-7.357-3.385-11.556zM654.571 445.638c9.219 0 12.094-6.664 12.094-14.888v-100.75c12.672-2.893 19.372-12.673 20.281-22.409 0.111-0.746 0.183-1.5 0.183-2.264 0-15.82-14.383-28.644-32.124-28.644-17.741 0-32.12 12.825-32.12 28.644 0 0.769 0.077 1.526 0.191 2.275 0.136 1.5 0.395 2.95 0.785 4.347 1.265 4.532 3.737 8.505 7.245 11.587 1.52 1.337 3.265 2.45 5.117 3.442 1.945 1.041 4.005 1.939 6.255 2.552v101.224c0 2.624 0.34 5.051 1.036 7.19 0.314 0.969 0.709 1.866 1.202 2.688 1.049 1.745 2.51 3.124 4.505 3.98 1.49 0.64 3.236 1.026 5.351 1.026zM646.723 430.754v-49.243h15.694v49.247c0 3.226-0.471 5.498-1.189 7.118-1.75 3.961-4.99 3.98-6.659 3.98-1.656 0-4.879-0.019-6.633-3.927-0.731-1.628-1.215-3.915-1.215-7.175zM603.504 389.519c0-13.467-12.244-24.385-27.347-24.385-15.104 0-27.347 10.918-27.347 24.385 0 13.467 12.244 24.385 27.347 24.385 15.104 0 27.347-10.918 27.347-24.385zM525.782 354.475l-37.016 0.147-0.067-13.45 21.933-0.087-11.861-10.477 10.616-9.553 11.86 10.477-0.098-19.557 15.083-0.061 0.17 33.007 20.2 17.849c-4.25 2.48-7.869 5.744-10.612 9.561l-20.208-17.857zM595.712 362.771l18.731-16.55c1.143 0.871 2.276 1.753 3.495 2.575v13.272l-11.618 10.265c-2.739-3.817-6.352-7.080-10.607-9.561zM606.323 406.709l11.618 10.265v26.793c0 10.337 5.333 17.437 13.211 20.936l0.013 2.355-15.083 0.060-0.17-33.006-20.2-17.85c4.255-2.476 7.869-5.74 10.612-9.553zM488.765 424.415l37.016 0.147 20.208-17.857c2.743 3.817 6.357 7.080 10.612 9.561l-20.2 17.849-0.17 33.007-15.083-0.060 0.098-19.557-11.861 10.477-10.616-9.553 11.861-10.477-21.933-0.087 0.067-13.45zM475.873 368.966l10.663-9.508 26.175 23.34h28.417c-0.523 2.169-0.816 4.419-0.816 6.725s0.288 4.555 0.816 6.725h-28.417l-26.175 23.339-10.663-9.508 15.508-13.828h-16.697v-13.45h16.697l-15.508-13.835zM583.698 299.042v14.888l11.299-10.076c-0.106 1.409-0.199 2.824-0.199 4.263 0 4.862 0.637 9.281 1.784 13.344l-12.884 11.488v25.339c-2.433-0.466-4.956-0.727-7.542-0.727s-5.109 0.257-7.542 0.727v-25.339l-26.175-23.339 10.663-9.508 15.508 13.828v-14.888h15.087zM617.942 382.794v13.45h-6.756c0.523-2.169 0.816-4.419 0.816-6.725 0-2.306-0.288-4.555-0.816-6.725h6.756zM568.615 420.754c2.433 0.465 4.956 0.727 7.542 0.727s5.109-0.257 7.542-0.727v25.339l26.175 23.34-10.663 9.508-15.512-13.828v14.888h-15.083v-14.888l-15.508 13.828-10.663-9.508 26.175-23.34v-25.339zM335.094 286.019v-286.488c0-16.251 13.171-29.423 29.423-29.423 16.251 0 29.423 13.171 29.423 29.423v190.923h4.492c13.309 0 24.107 16.829 24.107 37.592s-10.798 37.592-24.107 37.592c-1.54 0-3.031 0-4.492 0v20.38c0 16.251-13.171 29.423-29.423 29.423-16.251 0-29.423-13.182-29.423-29.423zM297.502-30.313c16.251 0 29.423 13.171 29.423 29.423v286.488c0 16.251-13.171 29.423-29.423 29.423s-29.423-13.171-29.423-29.423v-286.488c0-16.251 13.171-29.423 29.423-29.423zM230.476-30.735c16.251 0 29.423 13.171 29.423 29.423v286.488c0 16.251-13.172 29.423-29.423 29.423s-29.423-13.171-29.423-29.423v-286.488c0-16.251 13.172-29.423 29.423-29.423zM163.462-31.156c16.251 0 29.423 13.171 29.423 29.423v286.488c0 16.251-13.172 29.423-29.423 29.423s-29.423-13.172-29.423-29.423v-286.488c0-16.241 13.172-29.423 29.423-29.423zM67.015 284.332v-286.488c0-16.251 13.171-29.423 29.422-29.423s29.422 13.171 29.422 29.423v286.488c0 16.251-13.171 29.423-29.422 29.423s-29.422-13.172-29.422-29.423zM29.422-32c16.251 0 29.422 13.171 29.422 29.423v286.488c0 16.251-13.172 29.423-29.422 29.423-16.251 0-29.422-13.171-29.422-29.423v-286.488c0-16.241 13.171-29.423 29.422-29.423z" horiz-adv-x="706" />
<glyph unicode="&#xe622;" d="M634.357 216.74c0 11.486 3.199 20.428 9.598 26.827s15.309 9.599 26.731 9.599c11.71 0 20.732-3.151 27.067-9.454 6.335-6.271 9.503-15.070 9.503-26.395 0-8.223-1.392-14.974-4.176-20.252-2.751-5.247-6.751-9.342-11.998-12.286-5.215-2.911-11.726-4.367-19.533-4.367-7.934 0-14.51 1.264-19.725 3.791-5.183 2.527-9.39 6.527-12.622 11.998-3.231 5.471-4.847 12.318-4.847 20.541zM656.098 216.644c0-7.103 1.312-12.206 3.936-15.31 2.655-3.103 6.255-4.655 10.798-4.655 4.671 0 8.287 1.519 10.846 4.559 2.559 3.039 3.84 8.495 3.84 16.365 0 6.623-1.344 11.454-4.032 14.494-2.655 3.071-6.271 4.607-10.846 4.607-4.384 0-7.903-1.552-10.558-4.655-2.655-3.103-3.984-8.239-3.984-15.405zM607.338 210.357l19.053-5.759c-1.28-5.343-3.295-9.806-6.047-13.389-2.751-3.584-6.175-6.287-10.27-8.111-4.063-1.824-9.246-2.736-15.549-2.736-7.646 0-13.902 1.104-18.764 3.312-4.831 2.24-9.006 6.159-12.526 11.758-3.519 5.599-5.279 12.765-5.279 21.5 0 11.646 3.087 20.589 9.263 26.827 6.207 6.271 14.973 9.406 26.299 9.406 8.862 0 15.821-1.792 20.876-5.375 5.087-3.583 8.862-9.087 11.326-16.509l-19.197-4.271c-0.672 2.143-1.376 3.712-2.111 4.703-1.216 1.663-2.703 2.944-4.463 3.839-1.76 0.896-3.727 1.344-5.903 1.344-4.927 0-8.702-1.983-11.326-5.951-1.984-2.944-2.976-7.566-2.976-13.869 0-7.807 1.184-13.166 3.552-16.077 2.367-2.88 5.695-4.32 9.982-4.319 4.159 0 7.294 1.168 9.407 3.503 2.144 2.336 3.696 5.727 4.655 10.174zM489.423 251.965h58.262v-15.022h-36.474v-11.182h33.834v-14.349h-33.834v-13.87h37.53v-15.933h-59.317v70.356zM613.87 357.052c-3.256 50.365-73.321 115.356-73.321 115.356s-61.043-74.924-57.786-125.283c2.988-46.257 36.791-57.4 62.841-57.348 0.43 6.756 0.687 19.129 0.687 19.129-2.838 0.861-5.717 1.974-8.090 3.268-2.312 1.288-4.505 2.789-6.56 4.452-4.111 3.32-7.588 7.423-10.115 11.978 3.525-3.702 7.641-6.503 12.009-8.393 2.169-0.945 4.409-1.696 6.65-2.233 2.205-0.524 4.619-0.899 6.596-0.906 0 0 0.562 15.162 0.562 26.422-2.623 0.841-4.785 1.889-7.014 3.112-2.324 1.288-4.517 2.789-6.572 4.446-4.111 3.326-7.588 7.423-10.115 11.985 3.525-3.708 7.654-6.504 12.009-8.4 2.181-0.945 4.409-1.702 6.65-2.233 1.643-0.388 3.394-0.692 4.995-0.828-0.107 8.781-0.365 17.854-0.794 27.127l-0.233-1.709c-1.971 0.712-3.381 1.553-4.923 2.524-1.494 0.958-2.868 2.052-4.153 3.242-2.569 2.375-4.666 5.229-6.094 8.283 2.438-2.207 5.168-3.76 7.982-4.711 1.41-0.473 2.838-0.815 4.248-1.016 0.932-0.13 1.936-0.22 2.826-0.22-0.096 1.656-0.185 3.32-0.293 4.989-2.043 31.722-0.293 20.637 2.635-4.963 1.004-0.052 2.229 0.039 3.34 0.2 1.422 0.201 2.85 0.543 4.26 1.010 2.814 0.945 5.557 2.492 7.982 4.698-1.422-3.055-3.525-5.902-6.094-8.277-1.284-1.19-2.67-2.278-4.153-3.236-1.398-0.88-2.731-1.643-4.433-2.31 0.711-6.459 1.481-13.519 2.264-20.863 1.87 0.052 4.074 0.401 6.1 0.88 2.253 0.531 4.481 1.282 6.662 2.226 4.356 1.896 8.472 4.692 12.009 8.4-2.533-4.556-6.010-8.659-10.115-11.978-2.056-1.656-4.248-3.158-6.572-4.452-2.288-1.255-4.517-2.329-7.236-3.184 1.177-11.144 3.16-27.665 3.16-27.665 1.96 0 4.374 0.388 6.584 0.906 2.253 0.53 4.493 1.281 6.662 2.226 4.356 1.896 8.472 4.698 12.009 8.399-2.533-4.555-6.010-8.659-10.115-11.985-2.056-1.656-4.248-3.158-6.572-4.452-2.36-1.294-4.63-2.407-7.48-3.268 0 0 0.944-14.566 1.655-21.698 25.9 3.715 58.467 19.731 55.457 66.35zM674.461 299.948c0-10.346-9.573-18.732-21.382-18.732s-21.382 8.387-21.382 18.733c0 10.346 9.573 18.733 21.382 18.733 11.809 0 21.382-8.387 21.382-18.733zM681.588 327.879v109.405c0 13.818-12.793 25.014-28.51 25.014-15.745 0-28.51-11.159-28.51-25.014v-109.405c-8.753-6.863-14.255-16.835-14.255-27.931 0-20.681 19.151-37.465 42.764-37.465 23.606 0 42.764 16.785 42.764 37.465 0 11.096-5.495 21.068-14.255 27.931zM653.079 274.971c-15.745 0-28.51 11.183-28.51 24.977 0 9.242 5.737 17.316 14.255 21.637v115.705c0 6.918 6.386 12.519 14.255 12.519 7.918 0 14.255-5.601 14.255-12.519v-115.705c8.517-4.315 14.255-12.389 14.255-21.637 0-13.793-12.765-24.977-28.51-24.977zM335.817 286.705v-287.106c0-16.286 13.2-29.486 29.486-29.486s29.486 13.2 29.486 29.486v191.335h4.502c13.337 0 24.159 16.866 24.159 37.673s-10.822 37.673-24.159 37.673c-1.543 0-3.037 0-4.502 0v20.424c0 16.286-13.2 29.486-29.486 29.486s-29.486-13.209-29.486-29.486zM298.143-30.31c16.286 0 29.486 13.2 29.486 29.486v287.106c0 16.286-13.2 29.486-29.486 29.486s-29.486-13.2-29.486-29.486v-287.106c0-16.286 13.2-29.486 29.486-29.486zM230.974-30.732c16.286 0 29.486 13.2 29.486 29.486v287.106c0 16.286-13.2 29.486-29.486 29.486s-29.486-13.2-29.486-29.486v-287.106c0-16.286 13.2-29.486 29.486-29.486zM163.815-31.154c16.286 0 29.486 13.2 29.486 29.486v287.106c0 16.286-13.2 29.486-29.486 29.486s-29.486-13.2-29.486-29.486v-287.106c0-16.276 13.2-29.486 29.486-29.486zM67.159 285.014v-287.106c0-16.286 13.2-29.486 29.486-29.486s29.486 13.2 29.486 29.486v287.106c0 16.286-13.2 29.486-29.486 29.486s-29.486-13.2-29.486-29.486zM29.486-32c16.286 0 29.486 13.2 29.486 29.486v287.106c0 16.286-13.2 29.486-29.486 29.486-16.286 0-29.486-13.2-29.486-29.486v-287.106c0-16.276 13.2-29.486 29.486-29.486zM224.694 366.475c-3.548-4.099-3.106-10.311 0.993-13.869 1.857-1.612 4.148-2.398 6.428-2.398 2.752 0 5.494 1.15 7.43 3.391 1.524 1.76 36.975 43.413 10.094 77.243-14.91 18.773-3.892 29.683-1.494 31.717 4.167 3.391 4.845 9.524 1.484 13.74-3.381 4.246-9.564 4.934-13.809 1.563-10.3-8.207-23.893-31.147-1.572-59.248 16.738-21.053-9.298-51.846-9.553-52.141zM138.692 366.475c-3.548-4.099-3.106-10.311 0.993-13.869 1.857-1.612 4.148-2.398 6.428-2.398 2.752 0 5.494 1.15 7.43 3.391 1.524 1.76 36.976 43.413 10.094 77.243-14.91 18.773-3.892 29.683-1.494 31.717 4.167 3.391 4.845 9.524 1.484 13.74-3.381 4.246-9.564 4.934-13.81 1.563-10.3-8.207-23.894-31.147-1.572-59.248 16.738-21.053-9.298-51.846-9.553-52.141z" horiz-adv-x="708" />
<glyph unicode="&#xe623;" d="M692.14 248.594h53.688v-15.1h-31.877v-12.271h27.227v-14.189h-27.227v-28.714h-21.811v70.274zM610.314 248.594h20.276l26.461-38.875v38.875h20.468v-70.274h-20.468l-26.317 38.588v-38.588h-20.42v70.274zM525.564 213.409c0 11.472 3.196 20.404 9.587 26.796s15.292 9.587 26.7 9.587c11.696 0 20.708-3.148 27.035-9.444 6.327-6.263 9.491-15.052 9.491-26.364 0-8.213-1.39-14.956-4.17-20.229-2.749-5.241-6.743-9.332-11.984-12.272-5.209-2.908-11.712-4.362-19.51-4.362-7.926 0-14.492 1.262-19.702 3.787-5.177 2.524-9.38 6.519-12.607 11.984-3.227 5.464-4.841 12.303-4.841 20.517zM547.279 213.313c0-7.094 1.31-12.192 3.931-15.291 2.653-3.1 6.247-4.649 10.785-4.649 4.665 0 8.277 1.518 10.833 4.554 2.557 3.036 3.835 8.485 3.835 16.346 0 6.615-1.342 11.44-4.027 14.476-2.653 3.068-6.264 4.601-10.833 4.602-4.378 0-7.894-1.55-10.546-4.649-2.653-3.1-3.979-8.229-3.979-15.388zM498.577 207.034l19.030-5.752c-1.279-5.337-3.292-9.795-6.040-13.374s-6.168-6.279-10.258-8.101c-4.058-1.822-9.236-2.733-15.531-2.733-7.637 0-13.885 1.103-18.743 3.308-4.825 2.237-8.996 6.151-12.511 11.744-3.515 5.592-5.273 12.751-5.273 21.475 0 11.632 3.084 20.565 9.252 26.796 6.2 6.263 14.956 9.395 26.269 9.395 8.852 0 15.803-1.79 20.852-5.369 5.081-3.579 8.852-9.076 11.313-16.49l-19.174-4.267c-0.671 2.141-1.374 3.707-2.109 4.697-1.214 1.661-2.7 2.94-4.458 3.835-1.757 0.894-3.723 1.342-5.896 1.342-4.921 0-8.692-1.982-11.313-5.944-1.981-2.94-2.972-7.558-2.972-13.854 0-7.798 1.183-13.151 3.547-16.058 2.365-2.876 5.688-4.314 9.971-4.314 4.154 0 7.286 1.166 9.396 3.5 2.141 2.333 3.691 5.721 4.649 10.163zM668.665 289.555c6.573 6.132 9.643 13.709 8.785 21.205-0.58 5.077-12.537 5.113-11.952 0 0.721-6.272-1.658-12.071-7.153-17.195-4.48-4.183 5.891-8.144 10.32-4.010zM609.388 330.733c-5.188-6.887-8.283-15.043-8.283-23.866 0-24.409 23.010-44.195 51.396-44.195 3.585 0 7.081 0.319 10.457 0.92 23.372 4.153 40.939 21.949 40.939 43.275 0 16.234-10.21 30.387-25.38 38.070v92.147c0 10.927-8.88 20.050-20.764 22.378-1.914 0.374-3.9 0.59-5.951 0.59-4.616 0-8.961-1.008-12.75-2.779-8.321-3.893-13.965-11.473-13.965-20.19v-92.876c-6.322-3.438-11.638-8.075-15.7-13.474zM652.066 443.144c9.255 0 12.14-6.452 12.14-14.413v-97.535c12.72-2.801 19.447-12.265 20.359-21.692 0.111-0.722 0.183-1.452 0.183-2.192 0-15.315-14.438-27.73-32.247-27.73-17.809 0-32.244 12.415-32.244 27.73 0 0.744 0.077 1.477 0.192 2.203 0.486 5.175 2.609 9.754 6.019 13.398 3.406 3.647 8.005 6.396 13.457 7.822v97.99c0 7.965 2.886 14.42 12.14 14.42zM659.943 401.217v27.513c0 10.747-5.52 10.747-7.878 10.747-2.357 0-7.878 0-7.878-10.747v-47.67h15.755v20.156zM522.36 421.88c-6.173-6.733-10.423-14.805-12.111-23.631-0.529-2.764-0.874-5.583-0.874-8.479 0-2.892 0.346-5.711 0.874-8.478 1.688-8.827 5.938-16.902 12.111-23.632 4.092-4.464 9.007-8.332 14.566-11.44 6.833-3.82 14.625-6.455 22.993-7.639 3.214-0.455 6.492-0.752 9.86-0.752 3.364 0 6.641 0.297 9.86 0.752 8.368 1.184 16.156 3.819 22.993 7.639 4.727 2.643 8.977 5.839 12.669 9.479v68.142c-3.688 3.64-7.942 6.836-12.669 9.479-6.833 3.82-14.625 6.455-22.993 7.639-3.214 0.454-6.492 0.751-9.86 0.751-3.364 0-6.641-0.297-9.86-0.751-8.368-1.184-16.16-3.82-22.993-7.639-5.558-3.108-10.47-6.976-14.566-11.44zM489.758 374.987c4.659 0 9.003 0.763 12.733 2.067-1.048 4.102-1.641 8.35-1.641 12.72 0 4.37 0.592 8.617 1.641 12.719-3.73 1.305-8.074 2.067-12.733 2.067 0 0-24.911-6.536-24.911-14.596v-0.377c0-8.068 24.911-14.6 24.911-14.6zM615.296 441.329c0 5.113 1.419 9.391 3.841 12.825-4.634-1.815-8.129-3.585-8.129-3.585-3.159-2.976-5.388-6.272-6.782-9.541 3.956-1.976 7.656-4.278 11.066-6.865v7.166zM513.57 423.958c5.734 6.95 13.155 12.778 21.753 17.070-1.389 3.266-3.619 6.565-6.782 9.541 0 0-22.405 11.418-29.327 5.986l-0.324-0.257c-6.927-5.433 4.25-25.662 4.25-25.662 3.163-2.976 6.774-5.19 10.431-6.678zM528.545 328.974c3.159 2.976 5.388 6.272 6.782 9.541-8.602 4.293-16.019 10.12-21.753 17.070-3.658-1.488-7.272-3.702-10.431-6.678 0 0-11.177-20.226-4.25-25.662l0.324-0.257c6.923-5.433 29.327 5.986 29.327 5.986zM569.995 299.544c9.374 0 16.974 21.421 16.974 21.421 0 4.006-0.886 7.741-2.404 10.949-4.77-0.901-9.711-1.411-14.792-1.411-5.081 0-10.021 0.51-14.792 1.411-1.518-3.207-2.404-6.942-2.404-10.949 0 0 7.601-21.421 16.974-21.421h0.443zM569.779 449.041c5.081 0 10.021-0.51 14.792-1.411 1.518 3.207 2.404 6.942 2.404 10.949 0 0-7.601 21.421-16.974 21.421h-0.439c-9.374 0-16.975-21.421-16.975-21.421 0-4.007 0.886-7.742 2.404-10.949 4.765 0.901 9.707 1.411 14.788 1.411zM335.423 286.332v-286.769c0-16.267 13.185-29.452 29.452-29.452s29.452 13.185 29.452 29.452v191.111h4.497c13.322 0 24.13 16.846 24.13 37.629s-10.808 37.629-24.13 37.629c-1.541 0-3.034 0-4.497 0v20.4c0 16.267-13.185 29.452-29.452 29.452s-29.452-13.195-29.452-29.452zM297.795-30.312c16.267 0 29.452 13.185 29.452 29.452v286.769c0 16.267-13.185 29.452-29.452 29.452s-29.452-13.185-29.452-29.452v-286.769c0-16.267 13.185-29.452 29.452-29.452zM230.703-30.733c16.267 0 29.451 13.185 29.451 29.452v286.769c0 16.267-13.185 29.452-29.452 29.452s-29.452-13.185-29.452-29.452v-286.769c0-16.267 13.185-29.452 29.452-29.452zM163.623-31.156c16.267 0 29.452 13.185 29.452 29.452v286.769c0 16.267-13.185 29.452-29.452 29.452s-29.452-13.185-29.452-29.452v-286.769c0-16.257 13.185-29.452 29.452-29.452zM67.081 284.644v-286.769c0-16.267 13.184-29.452 29.451-29.452s29.451 13.185 29.451 29.452v286.769c0 16.267-13.184 29.452-29.451 29.452s-29.451-13.185-29.451-29.452zM29.451-32c16.267 0 29.451 13.185 29.451 29.452v286.769c0 16.267-13.184 29.452-29.451 29.452s-29.451-13.185-29.451-29.452v-286.769c0-16.257 13.184-29.452 29.451-29.452zM310.331 366.008c-3.544-4.094-3.102-10.298 0.991-13.852 1.856-1.61 4.143-2.396 6.421-2.396 2.749 0 5.488 1.149 7.422 3.387 1.522 1.757 36.932 43.363 10.082 77.153-14.892 18.751-3.887 29.648-1.492 31.68 4.163 3.387 4.84 9.513 1.483 13.724-3.377 4.241-9.552 4.928-13.793 1.561-10.288-8.197-23.865-31.111-1.57-59.178 16.719-21.029-9.287-51.785-9.543-52.080zM224.43 366.008c-3.544-4.094-3.102-10.298 0.992-13.852 1.856-1.61 4.143-2.396 6.421-2.396 2.749 0 5.488 1.149 7.422 3.387 1.522 1.757 36.932 43.363 10.082 77.153-14.893 18.751-3.887 29.648-1.492 31.68 4.162 3.387 4.84 9.513 1.482 13.724-3.377 4.241-9.552 4.928-13.793 1.561-10.288-8.197-23.865-31.111-1.571-59.178 16.719-21.029-9.287-51.785-9.542-52.080zM138.53 366.008c-3.544-4.094-3.102-10.298 0.992-13.852 1.856-1.61 4.143-2.396 6.421-2.396 2.749 0 5.488 1.149 7.422 3.387 1.522 1.757 36.932 43.363 10.082 77.153-14.893 18.751-3.887 29.648-1.492 31.68 4.162 3.387 4.84 9.513 1.482 13.724-3.377 4.241-9.552 4.928-13.793 1.561-10.288-8.197-23.865-31.111-1.571-59.178 16.719-21.029-9.287-51.785-9.542-52.080zM52.63 366.008c-3.544-4.094-3.102-10.298 0.992-13.852 1.855-1.61 4.143-2.396 6.42-2.396 2.749 0 5.488 1.149 7.422 3.387 1.522 1.757 36.932 43.363 10.082 77.153-14.892 18.751-3.888 29.648-1.492 31.68 4.162 3.387 4.84 9.513 1.483 13.724-3.377 4.241-9.552 4.928-13.793 1.561-10.288-8.197-23.866-31.111-1.571-59.178 16.718-21.029-9.287-51.785-9.543-52.080z" horiz-adv-x="746" />
</font>
</defs>
</svg>
