<?xml version="1.0" encoding="utf-8"?>
<!-- Generator: Adobe Illustrator 16.0.4, SVG Export Plug-In . SVG Version: 6.00 Build 0)  -->
<!DOCTYPE svg PUBLIC "-//W3C//DTD SVG 1.1//EN" "http://www.w3.org/Graphics/SVG/1.1/DTD/svg11.dtd">
<svg version="1.1" id="Layer_1" xmlns="http://www.w3.org/2000/svg" xmlns:xlink="http://www.w3.org/1999/xlink" x="0px" y="0px"
	 width="112px" height="77.75px" viewBox="0 0 112 77.75" enable-background="new 0 0 112 77.75" xml:space="preserve">
<path d="M88.666,31.084c-3.889,0-7.551,0.957-10.775,2.641c-4.438-12.406-6.535-25.381-7.029-28.741
	c2.646-0.084,10.562-0.596,13.67-3.703c0.293-0.293,0.293-0.768,0-1.061c-0.293-0.293-0.768-0.293-1.061,0
	C80.23,3.459,70.102,3.5,70,3.5c-0.216,0-0.421,0.093-0.562,0.255c-0.143,0.162-0.209,0.377-0.182,0.591
	c0.012,0.082,0.977,7.421,3.26,16.654h-29.74l-3.234-7.7c0.123-0.026,0.232-0.053,0.359-0.081c7.033-1.549,9.119-1.824,9.119-4.031
	c0-1.438-0.332-1.438-1.703-1.438c0,0-16.502,0-17.738,0c-1.041,0-1.577,0.69-1.577,1.731c0,6.672,2.226,5.949,10.056,4.153
	l3.27,7.784l-7.073,12.377c-3.258-1.729-6.974-2.713-10.918-2.713C10.449,31.084,0,41.532,0,54.416
	C0,67.301,10.449,77.75,23.333,77.75c12.633,0,22.917-10.047,23.313-22.584H56l0,0l0,0c0.098,0,0.195-0.02,0.29-0.059
	c0.017-0.008,0.026-0.021,0.043-0.029c0.032-0.018,0.058-0.039,0.087-0.061c0.071-0.05,0.13-0.105,0.18-0.175
	c0.012-0.018,0.033-0.024,0.045-0.044l17.183-28.848c0.856,3.031,1.76,5.882,2.712,8.529c-6.719,4.096-11.205,11.492-11.205,19.935
	c0,12.885,10.448,23.334,23.332,23.334C101.551,77.75,112,67.301,112,54.416C112,41.532,101.551,31.084,88.666,31.084z
	 M42.057,23.162l12.814,30.504h-8.225c-0.256-8.089-4.625-15.141-11.092-19.125L42.057,23.162z M39.628,53.666H24.626l7.442-13.025
	C36.428,43.414,39.378,48.188,39.628,53.666z M23.333,70.75C14.327,70.75,7,63.424,7,54.416c0-9.006,7.327-16.332,16.333-16.332
	c2.679,0,5.202,0.66,7.437,1.809l-8.088,14.151c-0.132,0.231-0.131,0.519,0.002,0.748c0.135,0.231,0.381,0.374,0.649,0.374h16.295
	C39.232,63.824,32.087,70.75,23.333,70.75z M56.116,52.756L43.406,22.5h29.486c0.123,0.484,0.254,0.973,0.385,1.465
	c-0.01,0.016-0.025,0.021-0.034,0.038L56.116,52.756z M88.666,70.75c-9.006,0-16.332-7.326-16.332-16.334
	c0-5.48,2.725-10.33,6.879-13.293c2.674,5.928,5.655,10.557,8.923,13.822c0.146,0.146,0.339,0.221,0.53,0.221
	s0.384-0.073,0.529-0.221c0.293-0.293,0.293-0.768,0-1.061c-3.438-3.438-6.31-8.279-8.687-13.599
	c2.403-1.394,5.185-2.203,8.156-2.203c9.008,0,16.334,7.326,16.334,16.332C105,63.424,97.674,70.75,88.666,70.75z"/>
</svg>
