<?xml version="1.0" encoding="utf-8"?>
<!-- Generator: Adobe Illustrator 16.0.4, SVG Export Plug-In . SVG Version: 6.00 Build 0)  -->
<!DOCTYPE svg PUBLIC "-//W3C//DTD SVG 1.1//EN" "http://www.w3.org/Graphics/SVG/1.1/DTD/svg11.dtd">
<svg version="1.1" id="Layer_1" xmlns="http://www.w3.org/2000/svg" xmlns:xlink="http://www.w3.org/1999/xlink" x="0px" y="0px"
	 width="93.334px" height="74.667px" viewBox="0 0 93.334 74.667" enable-background="new 0 0 93.334 74.667" xml:space="preserve">
<path d="M93.156,34.221l-1.063-3.109c-0.588-1.721-2.46-3.11-4.178-3.11h-3.86c-2.897-8.129-6.44-17.941-7.47-20.24
	c-1.601-3.574-6.721-5.189-9.534-5.973c0,0-4.703-1.788-20.384-1.788S26.283,1.788,26.283,1.788
	c-3.295,1.102-7.877,2.66-9.698,6.131c-0.854,1.635-4.452,11.725-7.381,20.082H5.423c-1.717,0-3.588,1.392-4.177,3.111l-1.068,3.109
	c-0.588,1.721,0.327,3.111,2.045,3.111h3.732C5.473,38.73,5.18,39.578,5.18,39.578c-0.298,0.506-0.513,2.834-0.513,3.459v17.629
	v1.229v9.479c0,1.818,1.476,3.295,3.294,3.295h12.078c1.82,0,3.294-1.477,3.294-3.295v-6.039H70v6.039
	c0,1.818,1.475,3.295,3.294,3.295h12.077c1.82,0,3.295-1.477,3.295-3.295v-9.479v-1.229V43.035c0-0.625-0.215-2.953-0.514-3.457
	c0,0-0.299-0.848-0.791-2.247h3.75C92.829,37.331,93.744,35.94,93.156,34.221z M23.264,51.58h-4.992
	c-4.472,0-8.938-0.602-8.938-3.439v-3.438c0-3.318,1.928-3.439,4.004-3.439c2.03,0,6.049,1.717,8.694,2.902
	c2.884,1.289,6.112,2.367,6.112,4.514C28.145,50.666,27.029,51.58,23.264,51.58z M16.307,29.255
	c2.455-10.202,5.127-15.961,5.717-17.57c0.471-1.167,0.929-4.773,24.645-4.773S70.943,11.026,71,11.077
	c0.732,2.185,3.631,8.77,5.95,18.172c0,0-10.015,3.412-30.287,3.412S16.307,29.255,16.307,29.255z M65.186,48.677
	c0-2.152,3.229-3.225,6.112-4.514c2.646-1.18,6.664-2.902,8.693-2.902c2.077,0,4.004,0.121,4.004,3.439v3.439h0.006
	c0,2.842-4.467,3.439-8.938,3.439h-4.998C66.305,51.58,65.186,50.666,65.186,48.677z"/>
</svg>
