<?xml version="1.0" encoding="utf-8"?>
<!-- Generator: Adobe Illustrator 17.0.0, SVG Export Plug-In . SVG Version: 6.00 Build 0)  -->
<!DOCTYPE svg PUBLIC "-//W3C//DTD SVG 1.1//EN" "http://www.w3.org/Graphics/SVG/1.1/DTD/svg11.dtd">
<svg version="1.1" id="Layer_1" xmlns="http://www.w3.org/2000/svg" xmlns:xlink="http://www.w3.org/1999/xlink" x="0px" y="0px"
	 width="26px" height="26px" viewBox="0 0 26 26" enable-background="new 0 0 26 26" xml:space="preserve">
<path d="M24.589,12.532c0.838-2.592,0.235-6.292-2.288-8.814c-1.822-1.822-4.263-2.645-6.454-2.645
	c-0.876,0-1.712,0.133-2.454,0.385c-3.774-1.87-7.08-1.785-8.897,0.031C3.179,2.806,2.835,4.877,3.331,7.255l-0.82,0.82
	C2.347,8.031,2.178,8,2,8c-1.105,0-2,0.895-2,2s0.895,2,2,2s2-0.895,2-2c0-0.178-0.031-0.347-0.074-0.512l0.063-0.063
	c0.867,2.228,2.364,4.589,4.393,6.78l-2.869,2.869C5.347,19.031,5.178,19,5,19c-1.105,0-2,0.895-2,2s0.895,2,2,2s2-0.895,2-2
	c0-0.178-0.031-0.347-0.074-0.512l2.869-2.868c2.187,2.029,4.545,3.529,6.772,4.399l-0.055,0.055C16.347,22.031,16.178,22,16,22
	c-1.105,0-2,0.895-2,2s0.895,2,2,2s2-0.895,2-2c0-0.178-0.031-0.347-0.074-0.512l0.809-0.809c2.389,0.504,4.472,0.164,5.794-1.159
	C26.346,19.706,26.398,16.274,24.589,12.532z M20.953,5.067c2.641,2.64,2.498,6.757,1.117,8.138
	c-0.716,0.716-1.448,1.064-2.237,1.064c-1.394,0-3.159-1.029-5.106-2.977c-4.625-4.626-2.652-6.599-1.91-7.342
	c0.608-0.608,1.741-0.971,3.03-0.971C17.766,2.979,19.626,3.741,20.953,5.067z"/>
</svg>
