<?xml version="1.0" encoding="iso-8859-1"?>
<!-- Generator: Adobe Illustrator 16.0.0, SVG Export Plug-In . SVG Version: 6.00 Build 0)  -->
<!DOCTYPE svg PUBLIC "-//W3C//DTD SVG 1.1//EN" "http://www.w3.org/Graphics/SVG/1.1/DTD/svg11.dtd">
<svg version="1.1" id="Capa_1" xmlns="http://www.w3.org/2000/svg" xmlns:xlink="http://www.w3.org/1999/xlink" x="0px" y="0px"
	 width="64.991px" height="49.196px" viewBox="0 0 64.991 49.196" style="enable-background:new 0 0 64.991 49.196;"
	 xml:space="preserve">
<g>
	<path d="M47.813,14.954v-9.37h-4.73v22.841c-4.338,2.446-9.045-0.344-9.045-0.344S32.38,0,19.814,0C7.252,0,6.553,0,6.553,0v25.825
		c-1.941,0-3.562,0-4.537,0c-4.535,0,0,16.055,0,16.055h2.812c0.195-3.989,3.492-7.178,7.53-7.178c4.036,0,7.333,3.188,7.527,7.178
		h9.183c-0.001-0.035-0.004-0.071-0.004-0.107c0-4.425,3.601-8.025,8.026-8.025c4.425,0,8.025,3.602,8.025,8.025
		c0,0.515-0.052,1.016-0.146,1.504h2.842V18.845h17.179v-1.744L47.813,14.954z M24.003,28.966l-4.188-7.328h-9.073V4.188h9.073
		c3.743,0,5.816,5.219,6.896,9.598c0.688,2.795,2.804,12.964,3,15.181L24.003,28.966L24.003,28.966z"/>
	<polygon points="13.883,11.864 11.788,11.864 11.788,19.543 19.467,19.543 19.467,17.45 13.883,17.45 	"/>
	<path d="M37.128,34.68c-3.85,0-6.968,3.117-6.968,6.966s3.118,6.969,6.968,6.969c3.847,0,6.966-3.12,6.966-6.969
		S40.975,34.68,37.128,34.68z M37.128,45.681c-2.226,0-4.034-1.811-4.034-4.035c0-2.224,1.81-4.032,4.034-4.032
		c2.224,0,4.032,1.809,4.032,4.032C41.16,43.87,39.352,45.681,37.128,45.681z"/>
	<path d="M12.161,35.96c-3.655,0-6.618,2.962-6.618,6.617c0,3.652,2.963,6.619,6.618,6.619c3.653,0,6.617-2.966,6.617-6.619
		C18.778,38.922,15.814,35.96,12.161,35.96z M12.161,46.408c-2.112,0-3.832-1.718-3.832-3.831c0-2.112,1.72-3.833,3.832-3.833
		c2.111,0,3.831,1.721,3.831,3.833C15.992,44.69,14.272,46.408,12.161,46.408z"/>
</g>
<g>
</g>
<g>
</g>
<g>
</g>
<g>
</g>
<g>
</g>
<g>
</g>
<g>
</g>
<g>
</g>
<g>
</g>
<g>
</g>
<g>
</g>
<g>
</g>
<g>
</g>
<g>
</g>
<g>
</g>
</svg>
