<?xml version="1.0" encoding="iso-8859-1"?>
<!-- Generator: Adobe Illustrator 16.0.0, SVG Export Plug-In . SVG Version: 6.00 Build 0)  -->
<!DOCTYPE svg PUBLIC "-//W3C//DTD SVG 1.1//EN" "http://www.w3.org/Graphics/SVG/1.1/DTD/svg11.dtd">
<svg version="1.1" id="Layer_1" xmlns="http://www.w3.org/2000/svg" xmlns:xlink="http://www.w3.org/1999/xlink" x="0px" y="0px"
	 width="31.567px" height="28.568px" viewBox="0 0 31.567 28.568" style="enable-background:new 0 0 31.567 28.568;"
	 xml:space="preserve">
<g>
	<polygon points="3.63,26.259 5.28,26.259 5.28,28.568 9.405,28.568 9.405,26.259 22.274,26.259 22.274,28.568 26.398,28.568 
		26.398,26.259 27.717,26.259 27.717,24.829 3.63,24.829 	"/>
	<path d="M3.63,2.774v21.063h24.087V2.774c0,0-2.42-2.42-11.988-2.75C6.159-0.305,3.63,2.774,3.63,2.774z M7.48,2.774
		c0.546,0,0.989,0.445,0.989,0.991S8.026,4.754,7.48,4.754c-0.547,0-0.991-0.442-0.991-0.988S6.933,2.774,7.48,2.774z M5.499,6.57
		h9.24v8.965H12.29l-1.262-1.706h-0.606H9.767h-0.55l-1.417,1.706H5.499V6.57z M9.17,15.535H8.572l0.587-0.672l0.069,0.544
		L9.17,15.535z M10.986,15.535l-0.084-0.128l0.054-0.67l0.595,0.798H10.986z M7.342,21.805c-1.14,0-2.062-0.924-2.062-2.062
		c0-1.141,0.922-2.063,2.062-2.063c1.14,0,2.063,0.923,2.063,2.063C9.405,20.881,8.482,21.805,7.342,21.805z M20.349,22.738h-9.241
		V21.64h9.241V22.738z M20.349,20.704h-9.241v-1.099h9.241V20.704z M20.349,18.613h-9.241v-1.1h9.241V18.613z M26.398,19.743
		c0,1.138-0.923,2.062-2.063,2.062c-1.138,0-2.061-0.924-2.061-2.062c0-1.141,0.923-2.063,2.061-2.063
		C25.475,17.68,26.398,18.603,26.398,19.743z M23.757,2.557c0.548,0,0.991,0.443,0.991,0.989s-0.443,0.988-0.991,0.988
		c-0.546,0-0.989-0.442-0.989-0.988S23.211,2.557,23.757,2.557z M16.279,6.57h9.239v8.965h-1.832l-0.374-2.731H21.94l-0.815,0.944
		l-0.788-0.944l-1.723,0.322l-0.075,2.409h-2.26V6.57z"/>
	<rect y="8" width="2.969" height="3.96"/>
	<rect x="28.598" y="7.78" width="2.969" height="3.961"/>
	<circle cx="21.163" cy="10.345" r="2.138"/>
	<path d="M8.15,13.601c-0.079-0.714,0.262-1.146,0.394-1.282c0.122,0.738,0.759,1.305,1.532,1.305c0.732,0,1.343-0.509,1.51-1.191
		c0.125,0.223,0.338,0.68,0.287,1.169c1.298-0.011,0.659-1.495-0.252-1.657c-0.006-0.076-0.012-0.152-0.029-0.225
		c-0.054-0.469-0.474-1.423-1.676-1.394C8.876,10.35,8.65,11.13,8.595,11.606c-0.037,0.117-0.06,0.239-0.068,0.366
		C7.177,12.207,7.326,13.578,8.15,13.601z M9.346,11.626c0,0,0.133,0.046,0.133,0.479c0.229,0.08,0.627-0.674,0.627-0.674v0.594
		c0.255,0.068,1.053-0.022,1.053-0.022l0.03,0.025c0.001,0.013,0.004,0.024,0.004,0.038c0,0.615-0.501,1.117-1.117,1.117
		c-0.607,0-1.101-0.488-1.114-1.093C9.183,12.01,9.346,11.626,9.346,11.626z"/>
</g>
<g>
</g>
<g>
</g>
<g>
</g>
<g>
</g>
<g>
</g>
<g>
</g>
<g>
</g>
<g>
</g>
<g>
</g>
<g>
</g>
<g>
</g>
<g>
</g>
<g>
</g>
<g>
</g>
<g>
</g>
</svg>
