<?xml version="1.0" encoding="utf-8"?>
<!-- Generator: Adobe Illustrator 16.0.0, SVG Export Plug-In . SVG Version: 6.00 Build 0)  -->
<!DOCTYPE svg PUBLIC "-//W3C//DTD SVG 1.1//EN" "http://www.w3.org/Graphics/SVG/1.1/DTD/svg11.dtd">
<svg version="1.1" id="Layer_10" xmlns="http://www.w3.org/2000/svg" xmlns:xlink="http://www.w3.org/1999/xlink" x="0px" y="0px"
	 width="100px" height="100px" viewBox="0 0 100 100" enable-background="new 0 0 100 100" xml:space="preserve">
<path d="M22.316,51.767c-9.254,0-16.783,7.529-16.783,16.783s7.529,16.783,16.783,16.783c9.255,0,16.783-7.529,16.783-16.783
	S31.571,51.767,22.316,51.767z M22.316,79.545c-6.063,0-10.995-4.932-10.995-10.995s4.932-10.995,10.995-10.995
	c6.064,0,10.996,4.932,10.996,10.995S28.381,79.545,22.316,79.545z M70.957,59.393c-7.063,0-12.809,5.746-12.809,12.808
	c0,7.064,5.746,12.809,12.809,12.809c7.063,0,12.809-5.744,12.809-12.809C83.766,65.139,78.021,59.393,70.957,59.393z
	 M70.957,79.937c-4.265,0-7.734-3.472-7.734-7.736s3.47-7.733,7.734-7.733c4.266,0,7.736,3.469,7.736,7.733
	S75.223,79.937,70.957,79.937z M40.954,67.238h15.984c-0.732,1.763-1.141,3.692-1.143,5.719l-15.241,0.01
	c0.304-1.328,0.479-2.703,0.479-4.123C41.034,68.302,41,67.77,40.954,67.238z M93.878,53.533c0-1.3-1.057-2.355-2.356-2.355
	L61.878,44.7L52.18,16.44c-0.267-1.042-1.207-1.773-2.283-1.773h-31.47c-1.302,0-2.355,1.056-2.355,2.355
	c0,1.302,1.054,2.355,2.355,2.355h3.989v21.437c-0.797-0.149-1.615-0.236-2.455-0.236c-7.317,0-13.25,5.933-13.25,13.25v4.563
	c3.195-5.466,9.112-9.148,15.9-9.148c9.227,0,16.846,6.79,18.19,15.64h16.696c2.491-4.762,7.47-8.014,13.217-8.014
	c8.231,0,14.904,6.666,14.917,14.895l4.451-0.003c0.087,0.01-2.772,0.028-2.684,0.028h4.712c1.299,0,2.355-1.057,2.355-2.355
	L93.878,53.533z M44.269,43.916c-2.788-8.385-14.757-9.213-15.904-9.213h-1.237V19.378h20.939l8.81,24.538H44.269z"/>
</svg>
