<?xml version="1.0" encoding="utf-8"?>
<!-- Generator: Adobe Illustrator 16.0.4, SVG Export Plug-In . SVG Version: 6.00 Build 0)  -->
<!DOCTYPE svg PUBLIC "-//W3C//DTD SVG 1.1//EN" "http://www.w3.org/Graphics/SVG/1.1/DTD/svg11.dtd">
<svg version="1.1" id="Capa_1" xmlns="http://www.w3.org/2000/svg" xmlns:xlink="http://www.w3.org/1999/xlink" x="0px" y="0px"
	 width="21.2px" height="36.027px" viewBox="0 0 21.2 36.027" enable-background="new 0 0 21.2 36.027" xml:space="preserve">
<path d="M20.036,23.934h-1.613c0.127,0.174,0.205,0.389,0.205,0.62c0,0.58-0.473,1.051-1.049,1.051
	c-0.582,0-1.051-0.472-1.051-1.051c0-0.23,0.074-0.447,0.205-0.62h-1.182c0.002,0.026,0.004,0.052,0.004,0.078
	c0,0.88-0.711,1.593-1.59,1.593s-1.592-0.713-1.592-1.593c0-0.026,0.004-0.053,0.004-0.078h-0.586
	c0.004,0.026,0.004,0.052,0.004,0.078c0,0.88-0.712,1.593-1.589,1.593c-0.88,0-1.592-0.713-1.592-1.593
	c0-0.026,0.003-0.053,0.004-0.078H8.032c0,0.026,0.004,0.052,0.004,0.078c0,0.88-0.713,1.593-1.592,1.593
	c-0.878,0-1.589-0.713-1.589-1.593c0-0.026,0.003-0.053,0.004-0.078H3.743c0.127,0.174,0.204,0.389,0.204,0.62
	c0,0.58-0.468,1.051-1.049,1.051s-1.049-0.47-1.049-1.049c0-0.23,0.076-0.447,0.205-0.62H1.162v-0.65h1.013v-1.191h1.027
	l-1.086-1.771l1.107-1.736h1.425l-0.116-1.161H4.416v-1.228H5.04c-0.016-0.035-0.03-0.067-0.046-0.107
	c-0.289-0.762,0.036-1.339,0.071-1.737c0.036-0.398,0.651-0.977,1.122-1.267c0.47-0.288-0.362-0.648,0.649-1.985
	c1.013-1.341,2.352-0.326,2.857-0.074c0.504,0.254,0.613,0.579,1.734,0.359c1.123-0.217,1.41-0.325,2.172,0.256
	c0.758,0.578,1.266-0.219,1.842-0.219c0.578,0,2.135,0.797,1.592,2.459c-0.541,1.663-1.879,0.904-2.025,0.904
	c-0.143,0-0.105-0.868-1.336-0.218c-1.229,0.648-1.699,0.325-2.275,0.07c-0.581-0.255-0.361-0.831-2.132,0
	c-1.777,0.837-1.74-0.251-2.5,0.113c-0.505,0.239-0.786,0.979-0.917,1.445h0.376v1.229H6.056l-0.136,1.159h2.579v-0.579h5.459v0.579
	h0.615v-0.579h5.062v0.868h-2.566v1.771h1.41v2.64h1.557h0.002v0.649H20.036z"/>
</svg>
