<?xml version="1.0" encoding="iso-8859-1"?>
<!-- Generator: Adobe Illustrator 17.0.0, SVG Export Plug-In . SVG Version: 6.00 Build 0)  -->
<!DOCTYPE svg PUBLIC "-//W3C//DTD SVG 1.1//EN" "http://www.w3.org/Graphics/SVG/1.1/DTD/svg11.dtd">
<svg version="1.1" id="Capa_1" xmlns="http://www.w3.org/2000/svg" xmlns:xlink="http://www.w3.org/1999/xlink" x="0px" y="0px"
	 width="64px" height="64px" viewBox="0 0 64 64" style="enable-background:new 0 0 64 64;" xml:space="preserve">
<path d="M36.918,5.035h-8.815c-2.123,0-3.851,1.727-3.851,3.851v11.878h-3.689c-1.948,0-3.525,1.579-3.525,3.525v29.771
	c0,1.947,1.577,3.526,3.525,3.526h1.826c0,1.444,1.172,2.616,2.616,2.616c1.445,0,2.617-1.172,2.617-2.616h10.925
	c0,1.444,1.172,2.616,2.617,2.616c1.444,0,2.616-1.172,2.616-2.616h0.679c1.946,0,3.525-1.579,3.525-3.526V24.289
	c0-1.946-1.579-3.525-3.525-3.525h-3.692V8.886C40.768,6.763,39.041,5.035,36.918,5.035z M27.253,8.886
	c0-0.469,0.382-0.851,0.851-0.851h8.815c0.469,0,0.85,0.382,0.85,0.851v10.378h-3.141v-0.95c0-0.705-0.947-1.275-2.116-1.275
	c-1.169,0-2.115,0.57-2.115,1.275c0,0.384,0,0.717,0,0.95h-3.143V8.886z M41.165,51.326c0,0.553-0.447,1-1,1H24.097
	c-0.553,0-1-0.447-1-1V36.433c0-0.553,0.447-1,1-1h16.068c0.553,0,1,0.447,1,1V51.326z M41.165,27.178v2.365c0,0.553-0.447,1-1,1
	H24.097c-0.553,0-1-0.447-1-1v-2.365c0-0.553,0.447-1,1-1h16.068C40.718,26.178,41.165,26.625,41.165,27.178z"/>
</svg>
