<?xml version="1.0" encoding="iso-8859-1"?>
<!-- Generator: Adobe Illustrator 17.0.0, SVG Export Plug-In . SVG Version: 6.00 Build 0)  -->
<!DOCTYPE svg PUBLIC "-//W3C//DTD SVG 1.1//EN" "http://www.w3.org/Graphics/SVG/1.1/DTD/svg11.dtd">
<svg version="1.1" id="Capa_1" xmlns="http://www.w3.org/2000/svg" xmlns:xlink="http://www.w3.org/1999/xlink" x="0px" y="0px"
	 width="64px" height="64px" viewBox="0 0 64 64" style="enable-background:new 0 0 64 64;" xml:space="preserve">
<g>
	<path d="M17.438,27.998l0.3-0.013c0.402-0.018,9.873-0.437,11.073-0.557c0.032-0.003,0.062-0.015,0.093-0.022
		c1.396-0.077,2.793-0.099,4.19-0.106c0.104,0.068,0.221,0.115,0.349,0.128c1.2,0.12,10.671,0.54,11.073,0.557l0.3,0.013
		l0.153-0.258c1.885-3.189,0.683-11.587-0.704-14.36c-1.09-2.181-1.686-6.494-1.833-7.68c-0.001-0.01,0.002-0.018,0-0.028
		c-0.002-0.011-0.006-0.02-0.008-0.031c-0.019-0.158-0.03-0.249-0.03-0.256l-0.032,0.002c-0.261-1.155-0.716-2.228-1.419-3.192
		c-0.361-0.495-1.195-0.016-0.829,0.485c0.625,0.856,1.03,1.783,1.281,2.794c-0.03,3.185-4.314,9.709-4.351,9.766
		c-2.499,3.61-4.558,8.945-4.392,11.103c-1.019,0.008-2.038,0.034-3.056,0.078c0.224-2.104-1.855-7.526-4.379-11.172
		c-0.043-0.066-4.359-6.635-4.359-9.81l-0.12-0.007c0.027-1.283,0.119-2.558,0.323-3.828c0.097-0.606-0.828-0.866-0.926-0.255
		c-0.244,1.515-0.369,3.035-0.377,4.57c0,0.043,0.014,0.076,0.022,0.113c-0.201,1.515-0.785,5.336-1.79,7.347
		c-1.387,2.774-2.588,11.172-0.704,14.36L17.438,27.998z"/>
	<path d="M14.76,44.172c-2.133,3.389,0.106,9.034-0.064,12.622c-0.001,0.03,0.009,0.051,0.014,0.076
		c0.008,0.934,0.002,2.734-0.165,3.022c-0.226,0.39,0.98,0,0.98,0l0.829,0.174l-0.415-3.757h-0.25
		c0.02-0.272,0.047-0.544,0.06-0.816c0.135-0.014,0.25-0.105,0.228-0.281c-0.09-0.695-0.132-1.391-0.162-2.088
		c0.018-0.798,0.042-1.597,0.118-2.393c0.221-2.307,0.5-4.601,0.531-6.922c0.638,0.333,1.532,0.2,2.204,0.111
		c0.095,0.219,0.256,0.42,0.447,0.521c1.576,0.832,6.197,3.443,8.059,6.36c1.706,2.673,2.984,5.175,3.508,6.243
		c0.147,0.299,0.498,0.543,0.789,0.543H32h0.528c0.292,0,0.643-0.244,0.789-0.543c0.524-1.068,1.802-3.569,3.508-6.243
		c1.862-2.917,6.484-5.528,8.059-6.36c0.191-0.101,0.352-0.302,0.447-0.521c0.672,0.089,1.566,0.222,2.204-0.111
		c0.031,2.32,0.31,4.614,0.531,6.922c0.076,0.797,0.101,1.595,0.118,2.393c-0.03,0.697-0.073,1.393-0.162,2.088
		c-0.023,0.176,0.092,0.267,0.228,0.281c0.012,0.273,0.04,0.544,0.06,0.816h-0.512l-0.415,3.757l0.829-0.174c0,0,1.206,0.39,0.98,0
		c-0.155-0.267-0.171-1.846-0.166-2.817c0.147-0.003,0.287-0.091,0.278-0.281c-0.17-3.589,2.069-9.233-0.064-12.622
		c0.655-0.297,1.169-1.276,1.114-2.27c-0.035-0.632-0.392-1.4-1.172-1.153c-0.513,0.162-0.821,0.428-1.049,0.922
		c-0.158,0.343-0.166,0.786-0.377,1.102c-0.011,0.017-0.025,0.027-0.037,0.043c-0.186-0.063-0.427,0.125-0.391,0.362
		c-0.568,0.345-1.33,0.229-1.959,0.143c-0.093-0.213-0.305-0.363-0.552-0.363H32H19.182c-0.247,0-0.459,0.15-0.552,0.363
		c-0.629,0.086-1.391,0.201-1.959-0.143c0.037-0.237-0.205-0.425-0.391-0.362c-0.011-0.016-0.026-0.026-0.037-0.043
		c-0.21-0.316-0.219-0.759-0.377-1.102c-0.228-0.494-0.537-0.76-1.049-0.922c-0.78-0.246-1.138,0.521-1.172,1.153
		C13.592,42.896,14.105,43.875,14.76,44.172z M49.289,50.574c-0.129,1.242-0.352,2.5-0.487,3.758
		c-0.009-0.302-0.016-0.604-0.023-0.906c0.09-1.753,0.039-3.513,0.186-5.265c0.123-1.469-0.149-2.75-0.629-4.051
		c0.058,0.036,0.116,0.065,0.175,0.087C49.74,45.924,49.493,48.609,49.289,50.574z M48.768,41.727
		c0.992-1.343,1.013,0.636,0.793,1.185c-0.2,0.499-0.449,0.748-0.714,0.728c-0.183-0.217-0.389-0.423-0.62-0.615
		C48.413,42.598,48.465,42.137,48.768,41.727z M48.395,46.662c0.017,0.376,0.002,0.748-0.02,1.119
		c-0.07-0.753-0.132-1.507-0.175-2.263C48.3,45.895,48.378,46.276,48.395,46.662z M15.036,48.161
		c0.147,1.752,0.096,3.512,0.186,5.265c-0.007,0.302-0.015,0.604-0.023,0.906c-0.135-1.258-0.358-2.516-0.487-3.758
		c-0.203-1.966-0.451-4.65,0.779-6.377c0.058-0.022,0.117-0.051,0.175-0.087C15.185,45.411,14.913,46.692,15.036,48.161z
		 M15.625,47.781c-0.022-0.371-0.036-0.743-0.02-1.119c0.017-0.386,0.095-0.767,0.194-1.144
		C15.757,46.273,15.695,47.027,15.625,47.781z M15.232,41.727c0.303,0.41,0.355,0.87,0.54,1.298
		c-0.231,0.192-0.437,0.397-0.62,0.615c-0.265,0.019-0.514-0.229-0.714-0.728C14.219,42.363,14.24,40.384,15.232,41.727z"/>
</g>
</svg>
