<?xml version="1.0" encoding="iso-8859-1"?>
<!-- Generator: Adobe Illustrator 16.0.0, SVG Export Plug-In . SVG Version: 6.00 Build 0)  -->
<!DOCTYPE svg PUBLIC "-//W3C//DTD SVG 1.1//EN" "http://www.w3.org/Graphics/SVG/1.1/DTD/svg11.dtd">
<svg version="1.1" id="Capa_1" xmlns="http://www.w3.org/2000/svg" xmlns:xlink="http://www.w3.org/1999/xlink" x="0px" y="0px"
	 width="100px" height="76px" viewBox="0 0 100 76" style="enable-background:new 0 0 100 76;" xml:space="preserve">
<path d="M16.51,49.197c2.319,9.396,5.267,13.501,15.11,17.805S46.139,76,50,76s8.239-4.112,18.083-8.416s7.218-5.613,9.537-15.009
	L50,66L16.51,49.197z M97.555,24.68L55.93,1.37c-3.262-1.826-8.598-1.826-11.859,0L2.445,24.68c-3.261,1.826-3.261,4.814,0,6.641
	L44.07,54.629c3.262,1.827,8.598,1.827,11.859,0l26.908-15.067l-29.179-6.835c-1.126,0.279-2.362,0.435-3.659,0.435
	c-5.256,0-9.518-2.535-9.518-5.662c0-3.127,4.262-5.663,9.518-5.663c4.081,0,7.552,1.532,8.904,3.678l30.906,10.143l7.744-4.337
	C100.815,29.495,100.815,26.506,97.555,24.68z M84.833,68.856c-0.318,1.923,6.417,5.083,7.059-0.542
	c2.893-25.357-2.081-32.656-2.081-32.656l-6.973,3.904C82.838,39.562,88.75,45.189,84.833,68.856z"/>
<g>
</g>
<g>
</g>
<g>
</g>
<g>
</g>
<g>
</g>
<g>
</g>
<g>
</g>
<g>
</g>
<g>
</g>
<g>
</g>
<g>
</g>
<g>
</g>
<g>
</g>
<g>
</g>
<g>
</g>
</svg>
