<?xml version="1.0" encoding="utf-8"?>
<!-- Generator: Adobe Illustrator 16.0.0, SVG Export Plug-In . SVG Version: 6.00 Build 0)  -->
<!DOCTYPE svg PUBLIC "-//W3C//DTD SVG 1.1//EN" "http://www.w3.org/Graphics/SVG/1.1/DTD/svg11.dtd">
<svg version="1.1" id="Capa_1" xmlns="http://www.w3.org/2000/svg" xmlns:xlink="http://www.w3.org/1999/xlink" x="0px" y="0px"
	 width="66.219px" height="51.425px" viewBox="0 0 66.219 51.425" enable-background="new 0 0 66.219 51.425" xml:space="preserve">
<g>
	<path fill="none" d="M60.521,40.546c-4.032,0.373-9.382,2.521-15.444,4.705c-0.183,0.066-0.294,0.252-0.264,0.445
		s0.192,0.338,0.388,0.344c6.643,0.242,14.112-1.307,16.531-3.188c1.591-1.236,1.1-1.865,1.099-1.869
		C62.599,40.675,62.554,40.378,60.521,40.546z"/>
	<path d="M65.828,40.583c-0.827-2.357-5.346-2.377-6.74-2.377c0,0-1.409,0.027-2.991,0.057c-0.724,0.014-1.424-0.264-1.941-0.771
		c-0.517-0.508-0.808-1.201-0.808-1.926V8.06c0-4.146-3.36-7.506-7.506-7.506H20.08c-4.146,0-7.506,3.36-7.506,7.506v27.109
		c0,0.416-0.193,0.807-0.522,1.061c-0.33,0.254-0.758,0.34-1.16,0.234C5.858,35.132,0,34.263,0,38.792
		c0,0,1.444,12.078,19.832,12.078c6.076,0,12.13-1.387,17.817-3.16c0.471-0.148,0.974-0.174,1.457-0.078
		c2.087,0.42,4.437,0.613,6.853,0.613c7.108,0,14.751-1.639,17.714-3.863C64.349,43.873,66.436,42.316,65.828,40.583z
		 M44.174,30.787V7.28c0-1.081,0.877-1.958,1.958-1.958S48.09,6.199,48.09,7.28v23.506c0,1.08-0.877,1.957-1.958,1.957
		S44.174,31.867,44.174,30.787z M61.731,42.853c-2.419,1.881-9.889,3.43-16.531,3.188c-0.195-0.006-0.357-0.15-0.388-0.344
		s0.081-0.379,0.264-0.445c6.063-2.184,11.412-4.332,15.444-4.705c2.033-0.168,2.078,0.129,2.31,0.438
		C62.831,40.988,63.322,41.617,61.731,42.853z"/>
</g>
</svg>
