<?xml version="1.0" encoding="utf-8"?>
<!-- Generator: Adobe Illustrator 15.0.0, SVG Export Plug-In . SVG Version: 6.00 Build 0)  -->
<!DOCTYPE svg PUBLIC "-//W3C//DTD SVG 1.1//EN" "http://www.w3.org/Graphics/SVG/1.1/DTD/svg11.dtd">
<svg version="1.1" id="Layer_1" xmlns="http://www.w3.org/2000/svg" xmlns:xlink="http://www.w3.org/1999/xlink" x="0px" y="0px"
	 width="64px" height="64px" viewBox="0 0 64 64" enable-background="new 0 0 64 64" xml:space="preserve">
<g>
	<g>
		<path d="M59.52,34.477l0.141-0.096L45.081,12.923l-0.255-0.099c-0.061-0.022-5.822-2.159-9.512,3.625l1.48,0.945
			c2.549-3.996,6.185-3.287,7.157-3.01l12.985,19.113c-1.766-0.402-4.636-0.876-8.395-0.876c-3.732,0-7.569,0.471-11.403,1.399
			l-0.66,0.159l-0.012,0.835c-3.441-1.475-7.239-0.52-9.073,0.124l-0.018-0.959l-0.661-0.159c-3.831-0.928-7.668-1.399-11.399-1.399
			c-3.521,0-6.263,0.416-8.048,0.798l12.934-19.037c0.974-0.288,4.592-1.011,7.156,3.012l1.48-0.945
			c-3.689-5.784-9.454-3.648-9.511-3.625l-0.256,0.099L4.652,34.144L4.34,34.258l0.015,7.539c-0.015,0.146-0.282,3.653,2.296,6.459
			c2.025,2.205,5.181,3.324,9.379,3.324c4.38,0,7.596-1.116,9.553-3.316c2.27-2.552,1.942-5.592,1.934-5.633l-0.093-5.626
			c1.291-0.511,5.612-1.951,9.01-0.048l-0.09,5.587c-0.016,0.128-0.343,3.168,1.93,5.72c1.958,2.2,5.174,3.316,9.554,3.316
			c4.197,0,7.353-1.119,9.379-3.324c2.576-2.806,2.309-6.313,2.3-6.384L59.52,34.477z"/>
	</g>
</g>
</svg>
