<?xml version="1.0" encoding="iso-8859-1"?>
<!-- Generator: Adobe Illustrator 17.0.0, SVG Export Plug-In . SVG Version: 6.00 Build 0)  -->
<!DOCTYPE svg PUBLIC "-//W3C//DTD SVG 1.1//EN" "http://www.w3.org/Graphics/SVG/1.1/DTD/svg11.dtd">
<svg version="1.1" id="Capa_1" xmlns="http://www.w3.org/2000/svg" xmlns:xlink="http://www.w3.org/1999/xlink" x="0px" y="0px"
	 width="64px" height="64px" viewBox="0 0 64 64" style="enable-background:new 0 0 64 64;" xml:space="preserve">
<g>
	<path d="M48.936,58.13c0.802-0.617,1.481-0.679,2.283-0.679s1.234-0.432,1.234-1.296c0-0.864,1.481-0.062,0.987-1.234
		c-0.494-1.172-2.221-4.504-3.208-7.404c-0.987-2.9-2.406-8.576-3.578-11.352s-7.712-14.19-8.699-16.72
		c-0.987-2.53,1.319-7.095,1.319-7.095s0.769-4.303,0.909-4.836c0.051-0.195-0.12-0.409-0.355-0.603
		c0.296-0.188,0.505-0.504,0.505-0.88c0-0.152-0.035-0.295-0.092-0.425c0.128-0.175,0.219-0.38,0.219-0.614
		c0-0.003-0.002-0.006-0.002-0.009c0.832-0.044,0.531-0.366,1.646-1.009c1.203-0.694,0.093-0.509,0.185-1.249
		c0.093-0.74-0.416-0.833-0.74-1.157s-0.694,0.37-0.694,0.37c-1.897-0.093-0.324,1.434-1.249,1.299
		c-0.435-0.064-0.554,0.322-0.453,0.746C38.69,4.1,38.341,4.498,38.341,4.994c0,0.152,0.035,0.295,0.092,0.425
		c-0.128,0.175-0.219,0.38-0.219,0.614c0,0.008,0.004,0.014,0.004,0.022c-0.244-0.021-0.499,0.079-0.635,0.528
		c0,0-0.709-0.453-1.018,0.359c0,0-1.018-0.051-1.172,0.844c0,0-2.806-0.058-3.393,0.735c-0.587-0.793-3.393-0.735-3.393-0.735
		c-0.154-0.895-1.172-0.844-1.172-0.844c-0.309-0.813-1.018-0.359-1.018-0.359c-0.136-0.449-0.391-0.548-0.635-0.528
		c0-0.008,0.004-0.014,0.004-0.022c0-0.234-0.091-0.438-0.219-0.614c0.058-0.131,0.092-0.273,0.092-0.425
		c0-0.496-0.35-0.894-0.811-1.009c0.101-0.424-0.018-0.81-0.453-0.746c-0.925,0.136,0.648-1.391-1.249-1.299
		c0,0-0.37-0.694-0.694-0.37s-0.833,0.416-0.74,1.157c0.093,0.74-1.018,0.555,0.185,1.249c1.115,0.643,0.815,0.965,1.646,1.009
		c0,0.003-0.002,0.006-0.002,0.009c0,0.233,0.091,0.438,0.219,0.614c-0.058,0.131-0.092,0.273-0.092,0.425
		c0,0.376,0.208,0.692,0.505,0.88c-0.235,0.194-0.406,0.408-0.355,0.603c0.14,0.532,0.909,4.836,0.909,4.836
		s2.306,4.566,1.319,7.095c-0.987,2.53-7.527,13.944-8.699,16.72s-2.591,8.453-3.578,11.352c-0.987,2.9-2.715,6.231-3.208,7.404
		c-0.494,1.172,0.987,0.37,0.987,1.234c0,0.864,0.432,1.296,1.234,1.296s1.481,0.062,2.283,0.679
		c0.802,0.617,1.542,1.172,2.53,0.987c0.987-0.185,4.751,0.864,5.059,1.604s3.393,2.582,4.812,1.419
		c1.236-1.013,3.874-1.291,4.535-1.346c0.661,0.055,3.299,0.333,4.535,1.346c1.419,1.163,4.504-0.679,4.812-1.419
		s4.072-1.789,5.059-1.604C47.394,59.303,48.134,58.747,48.936,58.13z M39.254,4.265c0.167,0.355,0.479,0.663,0.901,0.708
		c0,0.007,0.004,0.013,0.004,0.021c0,0.129-0.04,0.244-0.097,0.351c-0.194-0.223-0.471-0.371-0.789-0.371
		c-0.225,0-0.422,0.086-0.594,0.207c-0.016-0.061-0.038-0.12-0.038-0.186C38.641,4.627,38.907,4.335,39.254,4.265z M39.865,5.579
		c-0.13,0.103-0.286,0.174-0.465,0.174c-0.245,0-0.453-0.124-0.592-0.305c0.13-0.103,0.286-0.174,0.465-0.174
		C39.517,5.274,39.726,5.398,39.865,5.579z M38.611,5.683c0.194,0.223,0.471,0.371,0.789,0.371c0.225,0,0.422-0.086,0.594-0.207
		c0.016,0.061,0.038,0.12,0.038,0.186c0,0.311-0.189,0.577-0.457,0.694c-0.365-0.244-0.757-0.422-0.757-0.422
		s-0.119-0.093-0.283-0.167c-0.005-0.036-0.021-0.067-0.021-0.104C38.514,5.904,38.554,5.789,38.611,5.683z M23.841,4.994
		c0-0.007,0.004-0.014,0.004-0.021c0.421-0.046,0.734-0.353,0.901-0.708c0.346,0.07,0.613,0.362,0.613,0.729
		c0,0.066-0.022,0.125-0.038,0.186c-0.172-0.12-0.369-0.207-0.594-0.207c-0.318,0-0.595,0.148-0.789,0.371
		C23.882,5.238,23.841,5.123,23.841,4.994z M25.192,5.448c-0.139,0.181-0.347,0.305-0.592,0.305c-0.178,0-0.335-0.071-0.465-0.174
		c0.139-0.181,0.347-0.305,0.592-0.305C24.906,5.274,25.063,5.345,25.192,5.448z M25.465,6.138
		c-0.164,0.075-0.283,0.167-0.283,0.167s-0.392,0.178-0.757,0.422c-0.268-0.117-0.457-0.383-0.457-0.694
		c0-0.066,0.022-0.125,0.038-0.186c0.172,0.12,0.369,0.207,0.594,0.207c0.318,0,0.595-0.148,0.789-0.371
		c0.057,0.106,0.097,0.222,0.097,0.351C25.486,6.07,25.47,6.102,25.465,6.138z"/>
</g>
</svg>
