<?xml version="1.0" encoding="utf-8"?>
<!-- Generator: Adobe Illustrator 16.0.0, SVG Export Plug-In . SVG Version: 6.00 Build 0)  -->
<!DOCTYPE svg PUBLIC "-//W3C//DTD SVG 1.1//EN" "http://www.w3.org/Graphics/SVG/1.1/DTD/svg11.dtd">
<svg version="1.1" id="Layer_1" xmlns="http://www.w3.org/2000/svg" xmlns:xlink="http://www.w3.org/1999/xlink" x="0px" y="0px"
	 width="126px" height="126px" viewBox="0 0 126 126" enable-background="new 0 0 126 126" xml:space="preserve">
<path d="M119.937,58.223c0.265-0.353,0.451-0.774,0.508-1.309c0.347-3.233-2.895-4.541-4.498-6.831
	c0.977-1.846,2.946-3.261,2.387-5.64c-0.479-2.041-2.371-2.416-4.207-2.437c-0.072-0.115-0.137-0.237-0.222-0.34
	c-1.319-1.609-2.745,0.73-3.555,2.406c-0.602-2.289-0.823-4.659-1.774-6.853c-0.162-0.375-0.743-0.243-0.835,0.109
	c-0.401,1.543-1.376,2.477-2.845,2.967c-4.459,1.316-6.65,5.74-9.043,9.479c-0.587-8.148-1.924-16.337,6.313-21.398
	c0.443-0.272,0.154-0.964-0.353-0.835c-3.294,0.84-6.411,2.205-8.656,4.838c-2.244,2.632-2.793,6.197-2.718,9.543
	c0,0.025,0.012,0.043,0.015,0.067c0.003,0.619,0.007,1.238,0.011,1.855c-0.152,2.141-0.781,4.204-2.297,5.754
	c-0.014,0.009-0.027,0.011-0.039,0.021c-4.17,3.476-9.388,5.333-13.631,8.688c-0.166,0.131-0.313,0.271-0.471,0.406
	c1.625-5.002,1.986-10.248,5.751-14.418c0.308-0.34,0.011-0.871-0.444-0.764c-1.426,0.336-2.673,0.845-3.774,1.547
	c-0.037-3.672,0.574-7.281,0.925-10.934c0.043-0.443-0.507-0.542-0.78-0.323c-2.626,2.099-5.27,3.629-7.079,6.417
	c0.301-2.168-0.064-4.049-1.299-5.908c-1.465-2.208-3.576-3.785-4.227-6.477c-0.104-0.427-0.792-0.448-0.882,0
	c-0.875,4.368-6.251,7.705-5.017,12.404c-1.812-2.799-4.461-4.332-7.092-6.436c-0.273-0.218-0.823-0.12-0.78,0.323
	c0.347,3.615,0.95,7.186,0.927,10.817c-1.057-0.641-2.24-1.114-3.587-1.431c-0.454-0.107-0.753,0.423-0.444,0.764
	c3.764,4.169,4.125,9.413,5.75,14.414c-0.158-0.134-0.305-0.271-0.471-0.401c-4.243-3.355-9.461-5.212-13.631-8.688
	c-0.012-0.01-0.025-0.012-0.039-0.021c-1.516-1.55-2.145-3.613-2.297-5.754c0.004-0.617,0.008-1.236,0.011-1.855
	c0.003-0.024,0.015-0.042,0.015-0.067c0.075-3.346-0.474-6.911-2.718-9.543c-2.245-2.633-5.362-3.998-8.656-4.838
	c-0.507-0.129-0.796,0.563-0.353,0.835c8.236,5.061,6.899,13.25,6.313,21.398c-2.393-3.738-4.584-8.163-9.043-9.479
	c-1.469-0.49-2.443-1.423-2.845-2.967c-0.092-0.353-0.673-0.485-0.835-0.109c-0.951,2.193-1.173,4.563-1.774,6.853
	c-0.81-1.676-2.235-4.015-3.555-2.406c-0.085,0.104-0.149,0.225-0.222,0.34c-1.836,0.021-3.728,0.396-4.207,2.437
	c-0.56,2.379,1.41,3.794,2.387,5.64c-1.604,2.29-4.845,3.598-4.498,6.831c0.057,0.535,0.243,0.956,0.508,1.309
	c-3.875,1.2-2.321,4.25-0.779,7.172c0.551,1.046,0.95,2.219,1.404,3.36C5.077,73.079,7.13,77,10.243,79.989
	c0.008,0.012,0.012,0.026,0.021,0.038c2.5,3.08,4.98,6.361,8.308,8.606c3.415,2.305,7.227,3.306,11.253,3.492
	c-1.485,0.87-2.937,1.799-4.387,2.724c-0.451,0.289-0.149,0.928,0.354,0.835c4.007-0.736,8.891-1.594,12.954-0.555
	c-1.034,1.022-2.243,1.738-3.595,2.348c-0.416,0.188-0.207,0.876,0.23,0.852c4.768-0.273,9.559,0.259,14.332,0.122
	c3.648-0.105,8.826-0.079,11.743-2.692c0.798-0.715,1.251-1.61,1.544-2.578c0.291,0.968,0.744,1.863,1.542,2.578
	c2.917,2.613,8.095,2.587,11.743,2.692c4.773,0.137,9.564-0.395,14.332-0.122c0.438,0.025,0.646-0.664,0.23-0.852
	c-1.352-0.61-2.561-1.326-3.595-2.348c4.063-1.039,8.947-0.181,12.954,0.555c0.503,0.093,0.805-0.546,0.354-0.835
	c-1.45-0.925-2.901-1.854-4.387-2.724c4.026-0.186,7.838-1.188,11.253-3.492c3.327-2.245,5.808-5.526,8.308-8.606
	c0.01-0.012,0.014-0.025,0.021-0.038c3.113-2.988,5.166-6.91,3.555-11.233c0.454-1.141,0.854-2.313,1.404-3.36
	C122.258,62.473,123.812,59.423,119.937,58.223z M119.247,57.594c-0.486,0.991-2.078,1.422-2.926,2.033
	c-0.336,0.241-0.572,0.538-0.757,0.861c-0.368-1.165-0.983-2.207-1.996-2.997c0.599-0.479,1.106-1.125,1.478-2.011
	c0.592-1.413,0.633-2.915,0.512-4.419c0.002-0.005,0.002-0.01,0.004-0.015C117.246,52.944,120.603,54.833,119.247,57.594z
	 M116.569,43.356c1.299,0.634,0.988,2.527,0.48,3.547c-0.463,0.926-1.143,1.619-1.68,2.421c-0.085-0.647-0.174-1.289-0.238-1.918
	c-0.13-1.296-0.1-3.073-0.566-4.48C115.255,42.951,115.932,43.045,116.569,43.356z M110.556,45.833
	c0.547-1.235,1.089-2.586,2.046-3.568c0.341-0.35,0.604-0.089,0.794,0.323c0.012,0.048,0.033,0.092,0.06,0.134
	c0.181,0.453,0.288,1.016,0.327,1.19c0.289,1.309,0.301,2.649,0.49,3.971c0.529,3.7,0.931,9.162-3.267,9.675
	c0.16-3.869-0.162-7.802-0.583-11.557C110.476,45.962,110.521,45.91,110.556,45.833z M95.952,51.284
	c2.457-3.577,4.439-8.394,8.736-9.963c-1.859,4.139,0.346,7.965,0.224,12.378c-2.669,2.674-5.885,4.268-9.36,5.53
	C96.093,56.685,96.104,53.999,95.952,51.284z M105.181,60.833c0.379,0,0.686,0.307,0.686,0.686s-0.307,0.686-0.686,0.686
	s-0.686-0.307-0.686-0.686S104.802,60.833,105.181,60.833z M95.659,64.566c0,0.546-0.443,0.99-0.99,0.99
	c-0.548,0-0.99-0.443-0.99-0.99c0-0.547,0.442-0.99,0.99-0.99C95.216,63.576,95.659,64.019,95.659,64.566z M91.376,43.833
	c0.059-0.849,0.051-1.712-0.012-2.572c-0.002-0.014-0.008-0.023-0.01-0.037c0.018-2.949,0.594-5.803,2.448-8.196
	c1.44-1.859,3.52-3.023,5.712-3.823c-4.006,3.511-5.271,8.401-5.13,13.965c0.136,5.32,1.47,11.18,0.149,16.427
	c-0.558,0.191-1.12,0.378-1.688,0.561c-1.371,0.441-2.815,0.807-4.293,1.151C91.284,55.815,91.403,49.894,91.376,43.833z
	 M88.29,50.719c0.121-0.106,0.236-0.216,0.35-0.327c0.045-0.041,0.091-0.083,0.135-0.125c0.007-0.007,0.009-0.015,0.016-0.023
	c0.708-0.728,1.248-1.548,1.648-2.434c-0.12,4.771-0.695,9.414-3.053,13.763c-2.891,0.65-5.868,1.269-8.654,2.228
	C79.574,58.422,84.416,54.323,88.29,50.719z M83.852,66.622c-0.42,0-0.761-0.341-0.761-0.762c0-0.42,0.341-0.761,0.761-0.761
	c0.421,0,0.762,0.341,0.762,0.761C84.613,66.281,84.272,66.622,83.852,66.622z M84.386,71.574c0,0.463-0.376,0.838-0.838,0.838
	c-0.463,0-0.839-0.375-0.839-0.838s0.376-0.838,0.839-0.838C84.01,70.736,84.386,71.111,84.386,71.574z M76.626,57.901
	c2.366-1.599,4.903-2.907,7.353-4.353c-3.026,3.022-5.744,6.453-6.208,10.604c-2.318,0.884-4.479,2.04-6.303,3.706
	c-0.03,0.016-0.062,0.024-0.09,0.048c-0.479,0.39-0.938,0.805-1.379,1.242c0-0.913,0.088-1.781,0.259-2.61
	c1.032-1.758,2.028-3.534,2.853-5.393c0.057-0.129,0.105-0.259,0.16-0.389C74.209,59.723,75.333,58.775,76.626,57.901z
	 M75.464,35.153c-0.379,3.525-0.925,7.018-0.811,10.577c-0.716,0.578-1.361,1.261-1.942,2.068c-0.916-2.282-2.147-4.499-3.738-6.373
	C70.536,38.595,72.995,37.022,75.464,35.153z M56.919,41.554c-1.539,1.847-2.734,4.013-3.629,6.244
	c-0.631-0.875-1.34-1.606-2.129-2.213c0.094-3.509-0.438-6.955-0.813-10.432C52.856,37.052,55.358,38.638,56.919,41.554z
	 M47.819,44.828c0.896,0.313,1.711,0.708,2.444,1.217c0.048,0.199,0.219,0.305,0.403,0.31c0.887,0.693,1.666,1.555,2.341,2.648
	c0.219,0.355,0.702,0.257,0.835-0.109c1.64-4.481,4.566-8.992,9.158-10.826c4.591,1.833,7.518,6.345,9.156,10.826
	c0.135,0.367,0.617,0.464,0.836,0.109c1.313-2.126,2.993-3.406,5.186-4.174c-3.354,4.539-3.613,10.037-5.619,15.277
	c-0.004,0.009-0.008,0.017-0.011,0.026c-1.677,1.847-2.727,3.941-3.171,6.279c-0.156,0.266-0.313,0.532-0.472,0.797
	c-0.358-0.539-0.842-0.987-1.407-1.302c6.102-4.838-2.489-12.97-4.014-18.673c-0.065-0.244-0.266-0.332-0.46-0.316
	c-0.194-0.016-0.393,0.072-0.459,0.316c-1.501,5.614-9.858,13.583-4.3,18.446c-0.547,0.2-1.045,0.503-1.456,0.902
	c-0.073-0.123-0.145-0.247-0.216-0.37c-0.47-2.27-1.506-4.31-3.154-6.11C51.278,54.88,51.188,49.404,47.819,44.828z M49.374,57.901
	c1.309,0.885,2.43,1.85,3.375,2.898c0.048,0.115,0.091,0.231,0.142,0.346c0.817,1.843,1.803,3.603,2.823,5.345
	c0.092,0.433,0.17,0.872,0.215,1.327c-0.141,0.314-0.238,0.649-0.295,1c-0.33-0.312-0.66-0.625-1.012-0.911
	c-0.028-0.024-0.06-0.032-0.09-0.048c-1.824-1.666-3.984-2.822-6.303-3.706c-0.464-4.151-3.182-7.582-6.208-10.604
	C44.471,54.994,47.008,56.302,49.374,57.901z M37.21,50.245c0.007,0.008,0.009,0.016,0.016,0.023
	c0.044,0.041,0.09,0.083,0.135,0.125c0.113,0.111,0.229,0.221,0.35,0.327c3.874,3.604,8.716,7.703,9.559,13.083
	c-2.786-0.959-5.764-1.578-8.654-2.228c-2.357-4.349-2.933-8.993-3.053-13.763C35.962,48.696,36.502,49.517,37.21,50.245z
	 M42.452,70.736c0.463,0,0.839,0.375,0.839,0.838s-0.376,0.838-0.839,0.838c-0.462,0-0.838-0.375-0.838-0.838
	S41.99,70.736,42.452,70.736z M41.387,65.86c0-0.42,0.341-0.761,0.761-0.761c0.421,0,0.762,0.341,0.762,0.761
	c0,0.421-0.341,0.762-0.762,0.762C41.728,66.622,41.387,66.281,41.387,65.86z M26.485,29.204c2.192,0.8,4.271,1.964,5.712,3.823
	c1.854,2.393,2.431,5.247,2.448,8.196c-0.002,0.014-0.008,0.023-0.01,0.037c-0.063,0.86-0.07,1.724-0.012,2.572
	c-0.027,6.062,0.092,11.983,2.822,17.474c-1.478-0.344-2.922-0.71-4.293-1.151c-0.567-0.183-1.13-0.369-1.688-0.561
	c-1.32-5.247,0.014-11.107,0.149-16.427C31.757,37.605,30.491,32.714,26.485,29.204z M31.331,63.576c0.548,0,0.99,0.443,0.99,0.99
	c0,0.546-0.442,0.99-0.99,0.99c-0.547,0-0.99-0.443-0.99-0.99C30.341,64.019,30.784,63.576,31.331,63.576z M30.048,51.284
	c-0.152,2.715-0.141,5.401,0.4,7.945c-3.476-1.263-6.692-2.856-9.36-5.53c-0.122-4.413,2.083-8.239,0.224-12.378
	C25.608,42.891,27.591,47.707,30.048,51.284z M21.505,61.519c0,0.378-0.307,0.686-0.686,0.686s-0.686-0.307-0.686-0.686
	s0.307-0.686,0.686-0.686S21.505,61.14,21.505,61.519z M12.218,43.912c0.039-0.174,0.146-0.737,0.327-1.19
	c0.026-0.042,0.048-0.086,0.059-0.134c0.191-0.412,0.454-0.673,0.795-0.323c0.957,0.982,1.499,2.333,2.046,3.568
	c0.033,0.077,0.08,0.129,0.132,0.167c-0.42,3.755-0.742,7.688-0.582,11.557c-4.197-0.513-3.796-5.975-3.267-9.675
	C11.917,46.561,11.929,45.221,12.218,43.912z M8.95,46.903c-0.508-1.02-0.818-2.913,0.48-3.547c0.638-0.311,1.314-0.405,2.004-0.43
	c-0.467,1.407-0.437,3.184-0.566,4.48c-0.064,0.629-0.153,1.271-0.238,1.918C10.093,48.521,9.413,47.829,8.95,46.903z
	 M10.438,51.046c0.002,0.005,0.002,0.01,0.004,0.015c-0.121,1.504-0.08,3.006,0.512,4.419c0.371,0.886,0.879,1.533,1.478,2.011
	c-1.013,0.79-1.628,1.832-1.996,2.997c-0.185-0.323-0.421-0.62-0.757-0.861c-0.848-0.611-2.439-1.042-2.926-2.033
	C5.397,54.833,8.753,52.944,10.438,51.046z M5.026,63.045c-1.035-2.112-0.699-3.496,1.793-4.091c0.002,0,0.002-0.001,0.004-0.001
	c1.068,0.798,2.49,1.294,3.021,2.584c-0.251-0.011-0.53,0.175-0.515,0.455c0.226,3.962,1.383,7.789,2.95,11.446
	c-3.154-1.251-4.03-3.628-5.387-6.752C6.345,65.424,5.63,64.277,5.026,63.045z M10.89,79.344c-2.631-2.523-4.463-5.685-3.634-9.283
	c0.269,0.554,0.57,1.085,0.938,1.568c1.192,1.568,2.734,2.39,4.594,2.956c0.786,1.727,1.652,3.416,2.545,5.061
	C13.805,79.808,12.305,80.162,10.89,79.344z M10.856,63.148c0.164-1.991,0.657-3.968,2.402-5.134
	c0.543,0.258,1.141,0.412,1.787,0.466c0.214,3.444,0.83,6.82,2.139,9.95C14.259,67.973,12.225,65.698,10.856,63.148z M16.741,43.588
	c-0.004-0.023-0.016-0.038-0.021-0.058c0.358-1.606,0.594-3.245,1.105-4.807c0.491,0.942,1.242,1.641,2.206,2.115
	c2.377,3.968,0.363,7.786,0.154,11.911C17.843,50.006,17.303,47.077,16.741,43.588z M19.524,76.678
	c-0.379,0-0.686-0.307-0.686-0.686s0.307-0.686,0.686-0.686c0.378,0,0.686,0.307,0.686,0.686S19.902,76.678,19.524,76.678z
	 M27.751,84.6c-0.463,0-0.838-0.375-0.838-0.838s0.375-0.838,0.838-0.838s0.838,0.375,0.838,0.838S28.214,84.6,27.751,84.6z
	 M30.95,80.258c-0.589,0-1.066-0.478-1.066-1.066s0.478-1.066,1.066-1.066c0.59,0,1.066,0.478,1.066,1.066
	S31.54,80.258,30.95,80.258z M32.395,77.117c-0.287-0.082-0.588-0.18-0.905-0.314c-0.837-0.353-1.73-0.892-2.672-1.344
	c-0.473-0.206-0.961-0.414-1.447-0.474c-0.485-0.067-0.963-0.066-1.412,0.1l-0.156,0.047l-0.028,0.014l-0.097,0.049l-0.391,0.197
	l-0.193,0.099c-0.057,0.034-0.072,0.069-0.109,0.103c-0.063,0.067-0.125,0.127-0.191,0.182c-0.215,0.298-0.37,0.561-0.354,0.854
	c-0.002,0.293,0.055,0.628,0.213,0.943c0.166,0.291,0.373,0.591,0.612,0.748c0.116,0.113,0.233,0.134,0.353,0.212
	c0.117,0.04,0.232,0.05,0.356,0.078c0.112-0.022,0.238-0.018,0.355-0.046c0.116-0.052,0.225-0.1,0.321-0.144
	c0.207-0.095,0.334-0.25,0.453-0.322c0.111-0.084,0.172-0.13,0.172-0.13l0.162,0.086c0,0-0.021,0.075-0.063,0.215
	c-0.056,0.136-0.089,0.37-0.26,0.615c-0.09,0.12-0.194,0.258-0.32,0.405c-0.146,0.124-0.342,0.232-0.552,0.355
	c-0.443,0.168-1.058,0.225-1.602-0.001c-0.576-0.18-1.059-0.585-1.467-1.1c-0.408-0.514-0.662-1.236-0.637-2.03
	c0.026-0.827,0.548-1.574,1.152-2.048c0.32-0.199,0.73-0.478,0.971-0.525l0.412-0.143l0.104-0.036l0.053-0.019
	c-0.015,0.005,0.146-0.053,0.082-0.029l0.023-0.004l0.033-0.006l0.258-0.044c0.678-0.153,1.4-0.076,2.027,0.097
	c0.643,0.168,1.174,0.479,1.671,0.768c0.566,0.352,1.061,0.715,1.521,1.049c-0.102-0.132-0.204-0.268-0.291-0.415
	c-0.38-0.63-0.723-1.351-1.002-2.123c-0.301-0.771-0.542-1.591-0.82-2.424c-0.286-0.819-0.563-1.679-0.965-2.449
	c-0.389-0.772-0.861-1.508-1.506-1.949c-0.637-0.485-1.416-0.754-2.105-0.698c-0.348,0.013-0.672,0.11-0.961,0.26
	c-0.293,0.14-0.551,0.341-0.767,0.582c-0.452,0.468-0.738,1.092-0.882,1.744l-0.063,0.306l-0.002,0.007
	c0.001-0.023-0.004,0.064,0.001-0.051l-0.001,0.019l-0.002,0.037l-0.01,0.148c-0.021,0.227,0.005,0.309,0.002,0.443
	c0.025,0.297,0.078,0.62,0.17,0.91c0.174,0.584,0.428,1.112,0.717,1.443c0.297,0.346,0.527,0.394,0.821,0.278
	c0.288-0.125,0.509-0.387,0.638-0.546c0.139-0.169,0.213-0.26,0.213-0.26l0.168,0.073c0,0-0.035,0.119-0.1,0.34
	c-0.033,0.113-0.066,0.255-0.162,0.408c-0.082,0.158-0.176,0.347-0.379,0.52c-0.082,0.101-0.209,0.173-0.358,0.24
	c-0.14,0.086-0.313,0.103-0.499,0.115c-0.188,0.019-0.352-0.051-0.543-0.091c-0.152-0.073-0.334-0.149-0.479-0.251
	c-0.586-0.413-1.043-1.009-1.396-1.727c-0.178-0.362-0.318-0.752-0.43-1.201c-0.041-0.244-0.086-0.545-0.085-0.711l-0.007-0.148
	l-0.002-0.037l-0.001-0.019l0.004-0.081l0.007-0.086l0.03-0.352c0.087-0.942,0.476-1.967,1.248-2.78
	c0.755-0.812,1.957-1.33,3.116-1.243c1.165,0.055,2.229,0.559,3.021,1.275c0.86,0.713,1.354,1.668,1.729,2.563
	c0.387,0.908,0.604,1.812,0.836,2.674c0.214,0.859,0.41,1.688,0.623,2.449c0.199,0.771,0.456,1.462,0.749,2.071
	c0.142,0.307,0.339,0.555,0.493,0.821c0.156,0.172,0.306,0.329,0.455,0.483c-0.162-0.263-0.315-0.553-0.428-0.894
	c-0.159-0.455-0.25-0.97-0.287-1.521c-0.02-0.276,0.005-0.558,0.012-0.85c0.047-0.286,0.073-0.585,0.146-0.881
	c0.151-0.588,0.344-1.204,0.706-1.769c0.146-0.299,0.396-0.548,0.602-0.824c0.267-0.228,0.498-0.508,0.826-0.678
	c0.156-0.094,0.309-0.2,0.475-0.279l0.522-0.192l0.132-0.046l0.067-0.022l0.155-0.022l0.221-0.031
	c0.16-0.017,0.264-0.056,0.469-0.054c0.867-0.022,1.57,0.229,2.195,0.65c0.611,0.426,1.024,1.055,1.236,1.696
	c0.119,0.318,0.152,0.659,0.18,0.979c-0.027,0.333-0.045,0.647-0.168,0.94c-0.184,0.599-0.628,1.011-1.012,1.251
	c-0.209,0.096-0.397,0.192-0.575,0.246c-0.181,0.029-0.347,0.056-0.496,0.08c-0.292,0.037-0.52-0.02-0.669-0.028
	c-0.147-0.021-0.226-0.032-0.226-0.032l-0.017-0.182c0,0,0.069-0.036,0.197-0.104c0.121-0.077,0.318-0.135,0.517-0.28
	c0.095-0.068,0.198-0.144,0.312-0.227c0.103-0.089,0.187-0.204,0.283-0.302c0.074-0.119,0.142-0.239,0.197-0.362
	c0.023-0.143,0.08-0.262,0.068-0.414c0.016-0.28-0.057-0.603-0.234-0.909c-0.182-0.292-0.397-0.606-0.719-0.814
	c-0.289-0.219-0.702-0.401-1.016-0.476c-0.088-0.032-0.279-0.012-0.414-0.021H35.1l-0.073,0.017l-0.333,0.068
	c-0.108,0.034-0.21,0.093-0.317,0.136c-0.227,0.071-0.397,0.259-0.607,0.384c-0.164,0.188-0.374,0.333-0.51,0.556
	c-0.33,0.394-0.545,0.881-0.729,1.356c-0.09,0.24-0.138,0.489-0.21,0.729c-0.03,0.246-0.084,0.487-0.104,0.724
	c-0.037,0.475-0.026,0.932,0.053,1.342c0.07,0.413,0.207,0.773,0.361,1.075c0.047,0.075,0.087,0.141,0.13,0.211
	c2.526-0.362,11.088-1.369,15.659,0.865c5.401,2.64,8.498,7.401,6.918,10.633c-1.578,3.232-7.238,3.712-12.64,1.072
	C38.126,86.706,33.661,79.333,32.395,77.117z M25.366,70.865c0-0.349,0.283-0.632,0.633-0.632c0.349,0,0.633,0.283,0.633,0.632
	s-0.284,0.632-0.633,0.632C25.649,71.498,25.366,71.214,25.366,70.865z M36.721,93.255c1.634,0.229,3.483,0.181,3.483,0.181
	s-3.712-1.78-4.397-3.256c1.114,0.447,1.903,0.457,1.903,0.457l-0.411-2.616c0.066,0.087,0.132,0.173,0.199,0.257
	c7.123,8.961,23.683,5.037,23.683,5.037C50.661,98.111,40.405,95.255,36.721,93.255z M47.771,72.219
	c2.721,1.003,4.184,1.298,4.861,1.188c1.899-0.309-2.347-3.792-2.347-3.792c10.03,4.017,11.427,19.653,11.427,19.653
	C57.953,78.163,47.771,72.219,47.771,72.219z M64.288,89.267c0,0,1.396-15.637,11.427-19.653c0,0-4.247,3.483-2.347,3.792
	c0.678,0.11,2.141-0.185,4.86-1.188C78.229,72.219,68.047,78.163,64.288,89.267z M85.796,93.436c0,0,1.85,0.048,3.483-0.181
	c-3.685,2-13.94,4.856-24.46,0.06c0,0,16.56,3.924,23.683-5.037c0.067-0.084,0.133-0.17,0.199-0.257l-0.411,2.616
	c0,0,0.789-0.01,1.903-0.457C89.508,91.656,85.796,93.436,85.796,93.436z M95.05,80.258c-0.59,0-1.066-0.478-1.066-1.066
	s0.477-1.066,1.066-1.066c0.589,0,1.066,0.478,1.066,1.066S95.639,80.258,95.05,80.258z M98.249,84.6
	c-0.463,0-0.838-0.375-0.838-0.838s0.375-0.838,0.838-0.838s0.838,0.375,0.838,0.838S98.712,84.6,98.249,84.6z M104.323,72.192
	c-0.145,0.102-0.326,0.178-0.479,0.251c-0.191,0.04-0.354,0.11-0.543,0.091c-0.187-0.012-0.359-0.029-0.499-0.115
	c-0.149-0.066-0.276-0.139-0.358-0.24c-0.203-0.173-0.297-0.362-0.379-0.52c-0.096-0.152-0.129-0.295-0.162-0.408
	c-0.064-0.221-0.1-0.34-0.1-0.34l0.168-0.073c0,0,0.074,0.09,0.213,0.26c0.129,0.159,0.35,0.42,0.638,0.546
	c0.294,0.116,0.524,0.068,0.821-0.278c0.289-0.331,0.543-0.858,0.717-1.443c0.092-0.29,0.145-0.612,0.17-0.91
	c-0.003-0.134,0.023-0.216,0.002-0.443l-0.01-0.148l-0.002-0.037l-0.001-0.019c0.005,0.115,0,0.028,0.001,0.051l-0.002-0.007
	l-0.063-0.306c-0.145-0.652-0.431-1.276-0.882-1.744c-0.216-0.241-0.474-0.442-0.767-0.582c-0.289-0.15-0.613-0.247-0.961-0.26
	c-0.689-0.057-1.469,0.213-2.105,0.698c-0.645,0.44-1.117,1.177-1.506,1.949c-0.402,0.77-0.68,1.629-0.965,2.449
	c-0.278,0.833-0.52,1.653-0.82,2.424c-0.279,0.772-0.622,1.493-1.002,2.123c-0.087,0.147-0.189,0.283-0.291,0.415
	c0.46-0.334,0.954-0.698,1.521-1.049c0.497-0.289,1.028-0.6,1.671-0.768c0.627-0.173,1.35-0.25,2.027-0.097l0.258,0.044l0.033,0.006
	l0.023,0.004c-0.063-0.024,0.097,0.035,0.082,0.029l0.052,0.019l0.104,0.036l0.412,0.143c0.24,0.048,0.65,0.327,0.971,0.525
	c0.604,0.474,1.126,1.221,1.152,2.048c0.025,0.794-0.229,1.516-0.637,2.03c-0.408,0.515-0.891,0.92-1.467,1.1
	c-0.544,0.227-1.158,0.169-1.602,0.001c-0.21-0.123-0.406-0.231-0.552-0.355c-0.126-0.147-0.23-0.286-0.32-0.405
	c-0.171-0.245-0.204-0.479-0.26-0.615c-0.042-0.141-0.063-0.215-0.063-0.215l0.162-0.086c0,0,0.061,0.046,0.172,0.13
	c0.119,0.072,0.246,0.228,0.453,0.322c0.097,0.043,0.205,0.091,0.321,0.144c0.117,0.028,0.243,0.024,0.355,0.046
	c0.124-0.027,0.239-0.038,0.356-0.078c0.119-0.078,0.236-0.099,0.353-0.212c0.239-0.156,0.446-0.457,0.612-0.748
	c0.158-0.315,0.215-0.65,0.213-0.943c0.017-0.294-0.139-0.557-0.354-0.854c-0.066-0.055-0.129-0.115-0.191-0.182
	c-0.037-0.034-0.053-0.069-0.109-0.103l-0.193-0.099l-0.391-0.197l-0.097-0.049l-0.028-0.014l-0.156-0.047
	c-0.449-0.166-0.927-0.167-1.412-0.1c-0.486,0.061-0.975,0.269-1.447,0.474c-0.941,0.452-1.835,0.991-2.672,1.344
	c-0.317,0.134-0.618,0.232-0.905,0.314c-1.267,2.216-5.731,9.589-10.303,11.823c-5.401,2.64-11.062,2.16-12.641-1.072
	s1.518-7.993,6.919-10.633C82.152,75,90.714,76.007,93.24,76.369c0.043-0.07,0.083-0.136,0.13-0.211
	c0.154-0.302,0.291-0.662,0.361-1.075c0.079-0.41,0.09-0.867,0.053-1.342c-0.02-0.237-0.073-0.479-0.104-0.724
	c-0.072-0.24-0.12-0.489-0.21-0.729c-0.185-0.475-0.399-0.962-0.729-1.356c-0.136-0.223-0.346-0.367-0.51-0.556
	c-0.21-0.125-0.381-0.313-0.607-0.384c-0.107-0.043-0.209-0.102-0.317-0.136l-0.333-0.068L90.9,69.772h-0.226
	c-0.135,0.008-0.326-0.012-0.414,0.021c-0.313,0.074-0.727,0.256-1.016,0.476c-0.321,0.208-0.537,0.522-0.719,0.814
	c-0.178,0.306-0.25,0.629-0.234,0.909c-0.012,0.151,0.045,0.271,0.068,0.414c0.056,0.123,0.123,0.243,0.197,0.362
	c0.097,0.099,0.181,0.213,0.283,0.302c0.113,0.083,0.217,0.159,0.312,0.227c0.198,0.145,0.396,0.203,0.517,0.28
	c0.128,0.067,0.197,0.104,0.197,0.104l-0.017,0.182c0,0-0.078,0.011-0.226,0.032c-0.149,0.009-0.377,0.065-0.669,0.028
	c-0.149-0.024-0.315-0.05-0.496-0.08c-0.178-0.054-0.366-0.15-0.575-0.246c-0.384-0.24-0.828-0.652-1.012-1.251
	c-0.123-0.292-0.141-0.607-0.168-0.94c0.027-0.32,0.061-0.661,0.18-0.979c0.212-0.641,0.625-1.271,1.236-1.696
	c0.625-0.421,1.328-0.672,2.195-0.65c0.205-0.002,0.309,0.037,0.469,0.054l0.221,0.031l0.155,0.022l0.067,0.022l0.132,0.046
	l0.522,0.192c0.166,0.079,0.318,0.185,0.475,0.279c0.328,0.17,0.56,0.45,0.826,0.678c0.206,0.276,0.455,0.525,0.602,0.824
	c0.362,0.564,0.555,1.18,0.706,1.769c0.072,0.296,0.099,0.595,0.146,0.881c0.007,0.292,0.031,0.574,0.012,0.85
	c-0.037,0.551-0.128,1.067-0.287,1.521c-0.112,0.341-0.266,0.631-0.428,0.894c0.149-0.154,0.299-0.312,0.455-0.483
	c0.154-0.266,0.352-0.515,0.493-0.821c0.293-0.609,0.55-1.3,0.749-2.071c0.213-0.761,0.409-1.59,0.623-2.449
	c0.232-0.862,0.449-1.766,0.836-2.674c0.375-0.895,0.868-1.851,1.729-2.563c0.792-0.716,1.856-1.221,3.021-1.275
	c1.159-0.086,2.361,0.432,3.116,1.243c0.772,0.813,1.161,1.838,1.248,2.78l0.03,0.352l0.007,0.086l0.004,0.081l-0.001,0.019
	l-0.002,0.037l-0.007,0.148c0.001,0.166-0.044,0.467-0.085,0.711c-0.111,0.449-0.252,0.839-0.43,1.201
	C105.366,71.183,104.909,71.779,104.323,72.192z M100.634,70.865c0,0.349-0.283,0.632-0.633,0.632c-0.349,0-0.633-0.283-0.633-0.632
	s0.284-0.632,0.633-0.632C100.351,70.233,100.634,70.516,100.634,70.865z M106.476,76.678c-0.378,0-0.686-0.307-0.686-0.686
	s0.308-0.686,0.686-0.686c0.379,0,0.686,0.307,0.686,0.686S106.854,76.678,106.476,76.678z M105.813,52.749
	c-0.209-4.125-2.223-7.942,0.154-11.911c0.963-0.475,1.715-1.173,2.206-2.115c0.512,1.563,0.747,3.201,1.105,4.807
	c-0.005,0.021-0.017,0.035-0.021,0.058C108.697,47.077,108.157,50.006,105.813,52.749z M110.954,58.48
	c0.646-0.054,1.244-0.208,1.787-0.466c1.745,1.166,2.238,3.143,2.402,5.134c-1.368,2.549-3.402,4.824-6.328,5.282
	C110.124,65.3,110.74,61.924,110.954,58.48z M115.11,79.344c-1.415,0.818-2.915,0.464-4.443,0.302
	c0.893-1.646,1.759-3.334,2.545-5.061c1.859-0.566,3.401-1.387,4.594-2.956c0.368-0.483,0.67-1.015,0.938-1.568
	C119.573,73.659,117.741,76.821,115.11,79.344z M119.106,66.687c-1.356,3.124-2.232,5.5-5.387,6.752
	c1.567-3.658,2.725-7.484,2.95-11.446c0.016-0.279-0.264-0.466-0.515-0.455c0.531-1.291,1.953-1.786,3.021-2.584
	c0.002,0,0.002,0.001,0.004,0.001c2.492,0.595,2.828,1.979,1.793,4.091C120.37,64.277,119.655,65.424,119.106,66.687z"/>
</svg>
