<?xml version="1.0" encoding="iso-8859-1"?>
<!-- Generator: Adobe Illustrator 17.0.0, SVG Export Plug-In . SVG Version: 6.00 Build 0)  -->
<!DOCTYPE svg PUBLIC "-//W3C//DTD SVG 1.1//EN" "http://www.w3.org/Graphics/SVG/1.1/DTD/svg11.dtd">
<svg version="1.1" id="Capa_1" xmlns="http://www.w3.org/2000/svg" xmlns:xlink="http://www.w3.org/1999/xlink" x="0px" y="0px"
	 width="64px" height="64px" viewBox="0 0 64 64" style="enable-background:new 0 0 64 64;" xml:space="preserve">
<g>
	<path d="M40.619,30.298c-0.282-0.526-0.492-1.045-0.653-1.559c-1.033-0.025-2.607-0.051-3.167,0.008
		c-0.86,0.091-4.977-0.181-4.977-0.181s-4.116,0.272-4.976,0.181c-0.497-0.052-1.791-0.038-2.799-0.017
		c-0.163,0.528-0.376,1.062-0.666,1.602c-1.97,3.668-5.163,9.374-5.638,12.024c-0.476,2.649-6.61,17.338-5.434,17.73
		c0.408,0.136,4.008,0.815,6.793,0.815l-0.068,0.747c0,0,2.581,0.204,3.872,0.611c1.291,0.408,5.367,0.679,6.046,0.408
		c0.451-0.18,1.411-0.357,2.363-0.358l-0.002,0.12c0.161-0.045,0.332-0.078,0.51-0.102c0.304,0.022,0.6,0.063,0.865,0.136
		l-0.003-0.188c0.953,0.001,1.913,0.178,2.364,0.358c0.679,0.272,4.755,0,6.046-0.408c1.291-0.408,3.872-0.611,3.872-0.611
		l-0.068-0.747c2.785,0,6.385-0.679,6.793-0.815c1.176-0.392-4.959-15.081-5.434-17.73C45.782,39.672,42.589,33.966,40.619,30.298z"
		/>
	<path d="M22.453,2.299c-2.219,0.317-4.982,1.812-5.887,1.947c0,0,0.951,2.717,1.54,3.578c0.589,0.86,0.815,1.993,1.042,2.944
		c0.226,0.951,0.86,2.808,0.86,3.532c0,0.725,2.174-0.045,2.581,1.63c0.408,1.676,0.679,1.268,1.087,4.302
		c0.221,1.645,0.691,3.397,0.765,5.24c0.755-0.018,1.806-0.061,2.45-0.168c1.087-0.181,4.931,0,4.931,0s3.844-0.181,4.931,0
		c0.756,0.126,2.067,0.164,2.804,0.175c0.068-1.859,0.544-3.624,0.767-5.282c0.408-3.034,0.679-2.627,1.087-4.302
		c0.408-1.676,2.581-0.906,2.581-1.63c0-0.725,0.634-2.581,0.86-3.532c0.226-0.951,0.453-2.083,1.042-2.944
		c0.589-0.86,1.54-3.578,1.54-3.578c-0.906-0.136-3.668-1.63-5.887-1.947c-2.219-0.317-4.212-1.042-4.212-1.042
		c0.136,0.77-0.679,1.313-1.177,2.581c-0.498,1.268-1.177,2.174-1.766,3.487c-0.589,1.313-1.857,3.261-2.4,3.442l0,0.026
		c-0.552-0.212-1.8-2.133-2.383-3.434c-0.589-1.313-1.268-2.219-1.766-3.487c-0.498-1.268-1.313-1.812-1.177-2.581
		C26.664,1.258,24.672,1.982,22.453,2.299z"/>
</g>
</svg>
