<?xml version="1.0" encoding="utf-8"?>
<!-- Generator: Adobe Illustrator 17.0.0, SVG Export Plug-In . SVG Version: 6.00 Build 0)  -->
<!DOCTYPE svg PUBLIC "-//W3C//DTD SVG 1.1//EN" "http://www.w3.org/Graphics/SVG/1.1/DTD/svg11.dtd">
<svg version="1.1" id="Capa_1" xmlns="http://www.w3.org/2000/svg" xmlns:xlink="http://www.w3.org/1999/xlink" x="0px" y="0px"
	 width="64px" height="64px" viewBox="0 0 64 64" enable-background="new 0 0 64 64" xml:space="preserve">
<g>
	<path d="M31.602,23.422c-0.986,0-1.845-0.729-1.979-1.734c-0.147-1.095,0.622-2.102,1.717-2.248c1.494-0.2,2.756-1.667,2.756-3.203
		c0-2.817-1.646-4.433-4.515-4.433c-2.048,0-3.765,1.374-4.274,3.418c-0.266,1.072-1.354,1.727-2.423,1.458
		c-1.072-0.266-1.725-1.352-1.458-2.423c0.959-3.86,4.236-6.453,8.154-6.453c5.093,0,8.515,3.389,8.515,8.433
		c0,3.552-2.734,6.7-6.225,7.168C31.78,23.416,31.69,23.422,31.602,23.422z"/>
</g>
<g>
	<path fill="none" stroke="#000000" stroke-width="4" stroke-linecap="round" stroke-linejoin="round" stroke-miterlimit="10" d="
		M31.604,27.649"/>
</g>
<g>
	<path d="M56.621,48.359H5.128c-0.871,0-1.642-0.565-1.906-1.395c-0.264-0.831,0.041-1.736,0.753-2.239l26.491-18.71
		c0.706-0.5,1.657-0.487,2.352,0.032l25.002,18.71c0.69,0.517,0.972,1.416,0.699,2.233C58.247,47.808,57.482,48.359,56.621,48.359z
		 M14.427,44.359H47.61c1.657,0,1.925-0.805,0.598-1.798L33.987,31.92c-1.327-0.993-3.499-1.023-4.853-0.067L13.877,42.629
		C12.523,43.585,12.769,44.359,14.427,44.359z"/>
</g>
</svg>
