<?xml version="1.0" encoding="iso-8859-1"?>
<!-- Generator: Adobe Illustrator 17.0.0, SVG Export Plug-In . SVG Version: 6.00 Build 0)  -->
<!DOCTYPE svg PUBLIC "-//W3C//DTD SVG 1.1//EN" "http://www.w3.org/Graphics/SVG/1.1/DTD/svg11.dtd">
<svg version="1.1" id="Capa_1" xmlns="http://www.w3.org/2000/svg" xmlns:xlink="http://www.w3.org/1999/xlink" x="0px" y="0px"
	 width="64px" height="64px" viewBox="0 0 64 64" style="enable-background:new 0 0 64 64;" xml:space="preserve">
<g>
	<path d="M46.394,56.788c0.075-0.777-0.494-1.469-1.272-1.544c-0.332-0.033-4.698-0.431-10.016,0.151v-9.875
		c2.938-0.016,5.205-0.309,6.693-0.586c1.153-0.215,2.065-1.44,2.065-2.613v-5.662c0-1.173-0.406-2.983-0.906-4.044l-2.612-5.537
		c-0.5-1.06-0.398-2.724,0.229-3.715l2.095-3.312c0.627-0.991,1.137-2.745,1.138-3.918c0.003-2.835,0.007-7.504-0.002-7.499
		c-2.089,0.912-4.581-0.041-5.494-2.131c-0.276-0.633-0.381-1.297-0.335-1.942c0.079-1.096,0.362-2.152,0.061-2.494
		c-0.099-0.112-0.192-0.219-0.272-0.31c-0.15-0.171-1.223-0.31-2.395-0.31h-3.362c-1.172,0-2.245,0.139-2.395,0.31
		c-0.08,0.091-0.173,0.197-0.272,0.31c-0.3,0.342-0.018,1.398,0.061,2.494c0.046,0.646-0.059,1.31-0.335,1.942
		c-0.913,2.09-3.405,3.043-5.494,2.131c-0.009-0.005-0.005,4.664-0.003,7.499c0.002,1.173,0.511,2.927,1.138,3.918l2.095,3.312
		c0.627,0.991,0.73,2.654,0.229,3.715l-2.612,5.537c-0.5,1.061-0.906,2.871-0.906,4.044v5.662c0,1.173,0.913,2.398,2.065,2.613
		c1.488,0.277,3.756,0.57,6.693,0.586v9.923c-5.503-0.651-10.087-0.233-10.428-0.199c-0.778,0.075-1.348,0.768-1.272,1.545
		c0.076,0.778,0.77,1.356,1.545,1.272c0.038-0.003,1.085-0.098,2.739-0.129c-1.302,0.568-2.547,1.241-3.69,2.046
		c-0.639,0.45-0.793,1.332-0.342,1.972c0.275,0.392,0.713,0.601,1.159,0.601c0.282,0,0.566-0.084,0.814-0.259
		c3.024-2.129,6.975-3.245,10.695-3.815c3.713,0.569,7.654,1.686,10.677,3.815c0.248,0.175,0.532,0.259,0.813,0.259
		c0.445,0,0.883-0.209,1.159-0.601c0.45-0.64,0.297-1.521-0.342-1.972c-1.142-0.805-2.387-1.477-3.688-2.045
		c1.653,0.03,2.7,0.125,2.737,0.129C45.627,58.136,46.318,57.566,46.394,56.788z"/>
</g>
</svg>
