<?xml version="1.0" encoding="iso-8859-1"?>
<!-- Generator: Adobe Illustrator 17.0.0, SVG Export Plug-In . SVG Version: 6.00 Build 0)  -->
<!DOCTYPE svg PUBLIC "-//W3C//DTD SVG 1.1//EN" "http://www.w3.org/Graphics/SVG/1.1/DTD/svg11.dtd">
<svg version="1.1" id="Capa_1" xmlns="http://www.w3.org/2000/svg" xmlns:xlink="http://www.w3.org/1999/xlink" x="0px" y="0px"
	 width="64px" height="64px" viewBox="0 0 64 64" style="enable-background:new 0 0 64 64;" xml:space="preserve">
<g>
	<path d="M54.539,17.837c-6.605-7.11-17.476-10.304-27.051-10.703c-0.179-0.494-0.648-0.848-1.204-0.848h-3.751
		c-0.59-2.559-2.331-5.304-4.388-5.304c-2.542,0-4.604,4.192-4.604,7.046c0,2.014,1.037,3.739,2.534,4.592
		c-0.034,0.116-0.072,0.231-0.072,0.359v0.955c-1.582,0.148-3.501,0.491-3.748,1.294c-0.428,1.392,4.284,2.463-0.857,7.604
		c-5.141,5.141-8.032,10.067,0,22.062c8.032,11.995-2.463,15.743-2.463,15.743v0.857h9.21h9.21v-0.857
		c0,0-10.495-3.748-2.463-15.743c8.032-11.995,5.141-16.921,0-22.062c-5.141-5.141-0.428-6.211-0.857-7.604
		c-0.247-0.803-2.166-1.146-3.748-1.294V12.98c0-0.127-0.038-0.243-0.072-0.359c1.027-0.585,1.829-1.578,2.233-2.801h3.837
		c0.522,0,0.97-0.313,1.171-0.76c8.613,0.366,17.652,3.1,24.24,8.725c7.917,6.76,8.231,19.524,0.599,26.659
		c-2.92-1.892-8.129-0.927-12.534,2.554c-5.058,3.998-7.137,9.796-4.643,12.952c2.494,3.155,8.616,2.473,13.674-1.525
		c4.886-3.862,6.979-9.398,4.868-12.614C61.517,38.543,61.708,25.555,54.539,17.837z"/>
</g>
</svg>
