<?xml version="1.0" encoding="utf-8"?>
<!-- Generator: Adobe Illustrator 17.1.0, SVG Export Plug-In . SVG Version: 6.00 Build 0)  -->
<!DOCTYPE svg PUBLIC "-//W3C//DTD SVG 1.1//EN" "http://www.w3.org/Graphics/SVG/1.1/DTD/svg11.dtd">
<svg version="1.1" id="Capa_1" xmlns="http://www.w3.org/2000/svg" xmlns:xlink="http://www.w3.org/1999/xlink" x="0px" y="0px"
	 width="500px" height="500px" viewBox="0 0 500 500" enable-background="new 0 0 500 500" xml:space="preserve">
<path d="M189.9,32.8c-20.3-15.7-47.9-17.5-73-10.1c-7.9,2.3-15.5,5.5-22.5,9.5C61.3,50.8,23.8,87.9,14,125.4
	c-9.5,36.4-4.2,74.8,1.5,111.8c1.7-6.5,4-12.8,6.8-18.7c18.6-39.2,59.7-57.8,90.6-85.4v-15.9c0-5.4,4.5-9.8,9.8-9.8
	c5.4,0,9.8,4.5,9.8,9.8v16.7c15.6,14.3,29.6,30.9,43.6,46.7c7.6,8.6,15.1,17.4,22.6,26.1c2.9,3.4,5.9,6.8,8.7,10.4
	c2.1-26.4,6.5-52.1,10.7-79.8C223.8,99.8,219.9,55.9,189.9,32.8z"/>
<path d="M69.4,347.6c-15.7-5-28.8-16.2-38.6-29.7c8.3,33.5,18.6,66.8,28.8,97.9c19.1,58.6,83.4,59.4,125.1,37.5
	c39-20.5,33.1-87.9,26.7-142.3c-4.2,6.3-9.1,12.3-12,19.2c-2,5-6.5,8.4-12.1,6.9c-4.7-1.3-8.9-7.1-6.9-12.1
	c7.1-17.3,22.3-30.5,23.8-50.1c1.2-15.1-0.7-29.4-9.5-42.1c-10.9-15.6-24.7-29.9-37.5-43.9c-11.6-12.7-22.8-26.1-35.2-38
	c-26.8,22.2-61.3,39.2-78.9,69.9c-10.1,17.5-15.3,41.8-8.9,61.5c6.1,18.7,20.8,40.1,40.4,46.4C86.7,332.5,81.5,351.5,69.4,347.6z"/>
<path d="M482,237.2c5.7-37,11-75.4,1.5-111.8c-9.8-37.5-47.4-74.6-80.5-93.2c-7-4-14.6-7.2-22.5-9.5c-25-7.3-52.7-5.6-73,10.1
	c-29.9,23.2-33.8,67-28.2,104.5c4.1,27.6,8.6,53.3,10.7,79.8c2.8-3.5,5.8-7,8.7-10.4c7.5-8.7,15-17.5,22.6-26.1
	c14-15.8,28-32.4,43.6-46.7v-16.7c0-5.4,4.5-9.8,9.8-9.8c5.4,0,9.8,4.5,9.8,9.8V133c31,27.6,72,46.3,90.6,85.4
	C478,224.3,480.3,230.6,482,237.2z"/>
<path d="M310.1,337.1c-5.6,1.5-10.1-1.9-12.1-6.9c-2.8-6.9-7.7-13-12-19.2c-6.4,54.4-12.3,121.7,26.7,142.3
	c41.6,21.9,105.9,21,125.1-37.5c10.2-31.1,20.5-64.4,28.8-97.9c-9.8,13.5-22.9,24.7-38.6,29.7c-12.1,3.9-17.2-15.1-5.2-19
	c19.6-6.3,34.2-27.6,40.4-46.4c6.4-19.6,1.2-43.9-8.9-61.5c-17.6-30.7-52.2-47.7-78.9-69.9c-12.4,11.9-23.6,25.3-35.2,38
	c-12.8,14-26.6,28.4-37.5,43.9c-8.8,12.7-10.6,26.9-9.5,42.1c1.5,19.6,16.7,32.7,23.8,50.1C318.9,330,314.8,335.8,310.1,337.1z"/>
</svg>
