<?xml version="1.0" encoding="iso-8859-1"?>
<!-- Generator: Adobe Illustrator 17.0.0, SVG Export Plug-In . SVG Version: 6.00 Build 0)  -->
<!DOCTYPE svg PUBLIC "-//W3C//DTD SVG 1.1//EN" "http://www.w3.org/Graphics/SVG/1.1/DTD/svg11.dtd">
<svg version="1.1" id="Capa_1" xmlns="http://www.w3.org/2000/svg" xmlns:xlink="http://www.w3.org/1999/xlink" x="0px" y="0px"
	 width="64px" height="64px" viewBox="0 0 64 64" style="enable-background:new 0 0 64 64;" xml:space="preserve">
<g>
	<path d="M45.807,43.52c0,0-0.037,0.038-0.104,0.104c-3.806-1.524-8.053-0.405-11.377-3.387c-3.357-3.011-5.892-7.736-8.671-11.311
		c-3.058-3.936-6.21-7.797-9.415-11.613c-2.279-2.713-4.371-5.853-7.295-7.909c-0.415-0.813-0.79-1.15-1.454-0.671
		C7.184,8.802,6.947,9.048,6.848,9.347c-0.377,0.428-0.827,1.028-1.383,1.84c-3.787,5.534-4.369,10.341-2.33,15.875
		c2.039,5.534,1.602,25.05,1.602,25.05s0.874,1.165,1.748,0.583c0.874-0.583-1.165-19.079,0.437-21.264
		c0,0,6.845-3.787,12.671,9.175c5.826,12.962,8.593,13.253,12.671,13.253c4.078,0,16.021,0.291,24.759-1.311
		S60.517,47.743,45.807,43.52z M32.554,45.704C27.311,39.587,14.64,18.469,11.436,14.1c-0.058-0.079-0.112-0.158-0.167-0.237
		c1.719,1.927,3.249,4.106,4.803,5.955c3.865,4.601,7.589,9.32,11.238,14.093c2.163,2.829,4.027,5.988,6.693,8.379
		c2.933,2.631,6.769,1.609,10.208,2.642C41.607,46.997,36.354,50.138,32.554,45.704z"/>
</g>
</svg>
