<?xml version="1.0" encoding="utf-8"?>
<!-- Generator: Adobe Illustrator 17.0.2, SVG Export Plug-In . SVG Version: 6.00 Build 0)  -->
<!DOCTYPE svg PUBLIC "-//W3C//DTD SVG 1.1//EN" "http://www.w3.org/Graphics/SVG/1.1/DTD/svg11.dtd">
<svg version="1.1" id="Capa_1" xmlns="http://www.w3.org/2000/svg" xmlns:xlink="http://www.w3.org/1999/xlink" x="0px" y="0px"
	 width="64px" height="64px" viewBox="0 0 64 64" enable-background="new 0 0 64 64" xml:space="preserve">
<g>
	<path d="M61.833,24.118l-21.078-9.136c-0.354,1.181-0.943,2.115-1.644,2.871L33.5,14.437v-2.326c0-0.829-0.671-1.5-1.5-1.5
		c-1.685,0-3.055-1.371-3.055-3.056C28.945,5.871,30.315,4.5,32,4.5s3.055,1.371,3.055,3.055c0,0.829,0.671,1.5,1.5,1.5
		s1.5-0.671,1.5-1.5C38.055,4.216,35.339,1.5,32,1.5s-6.055,2.716-6.055,6.055c0,2.821,1.939,5.198,4.555,5.868v1.014l-5.611,3.415
		c-0.701-0.756-1.289-1.69-1.644-2.87L2.167,24.118l4.568,12.468l11.181-4.187l-0.19,28.453H32h14.275l-0.19-28.453l11.181,4.187
		L61.833,24.118z M47.136,29.589l-4.081-1.528l0.029,4.358l0.17,25.433H32H20.745l0.17-25.433l0.029-4.358l-4.081,1.528
		l-8.351,3.128l-2.554-6.972l15.874-6.88c0.142,0.201,0.292,0.391,0.445,0.578c0.687,0.837,1.478,1.529,2.32,2.1
		c2.465,1.669,5.362,2.287,7.322,2.34L32,23.883l0.081-0.002c0.233-0.006,2.346-0.088,4.733-1.009
		c0.945-0.365,1.786-0.828,2.56-1.348c0.896-0.602,1.671-1.303,2.323-2.098c0.155-0.189,0.329-0.364,0.469-0.563l15.875,6.881
		l-2.554,6.972L47.136,29.589z M32,17.036l4.472,2.722C34.221,20.822,32,20.882,32,20.882s-2.221-0.061-4.472-1.125L32,17.036z"/>
</g>
</svg>
