<?xml version="1.0" encoding="utf-8"?>
<!-- Generator: Adobe Illustrator 15.1.0, SVG Export Plug-In . SVG Version: 6.00 Build 0)  -->
<!DOCTYPE svg PUBLIC "-//W3C//DTD SVG 1.1//EN" "http://www.w3.org/Graphics/SVG/1.1/DTD/svg11.dtd">
<svg version="1.1"
	 id="svg2" inkscape:version="0.47 r22583" sodipodi:docname="logo-jeedom-grand-nom-couleur.svg" xmlns:dc="http://purl.org/dc/elements/1.1/" xmlns:cc="http://creativecommons.org/ns#" xmlns:rdf="http://www.w3.org/1999/02/22-rdf-syntax-ns#" xmlns:svg="http://www.w3.org/2000/svg" xmlns:sodipodi="http://sodipodi.sourceforge.net/DTD/sodipodi-0.dtd" xmlns:inkscape="http://www.inkscape.org/namespaces/inkscape"
	 xmlns="http://www.w3.org/2000/svg" xmlns:xlink="http://www.w3.org/1999/xlink" x="0px" y="0px" width="681.426px"
	 height="300.223px" viewBox="0 0 681.426 300.223" enable-background="new 0 0 681.426 300.223" xml:space="preserve">
<defs>
	
	
		<inkscape:perspective  id="perspective10" inkscape:persp3d-origin="372.04724 : 350.78739 : 1" inkscape:vp_z="744.09448 : 526.18109 : 1" inkscape:vp_y="0 : 1000 : 0" inkscape:vp_x="0 : 526.18109 : 1" sodipodi:type="inkscape:persp3d">
		</inkscape:perspective>
	
		<inkscape:perspective  id="perspective2884" inkscape:persp3d-origin="0.5 : 0.33333333 : 1" inkscape:vp_z="1 : 0.5 : 1" inkscape:vp_y="0 : 1000 : 0" inkscape:vp_x="0 : 0.5 : 1" sodipodi:type="inkscape:persp3d">
		</inkscape:perspective>
	
		<inkscape:perspective  id="perspective2884-7" inkscape:persp3d-origin="0.5 : 0.33333333 : 1" inkscape:vp_z="1 : 0.5 : 1" inkscape:vp_y="0 : 1000 : 0" inkscape:vp_x="0 : 0.5 : 1" sodipodi:type="inkscape:persp3d">
		</inkscape:perspective>
</defs>
<sodipodi:namedview  id="base" inkscape:window-maximized="0" inkscape:window-y="26" inkscape:window-x="50" inkscape:window-height="1151" inkscape:window-width="2183" inkscape:current-layer="layer1" inkscape:document-units="px" inkscape:pageshadow="2" inkscape:pageopacity="0.0" showgrid="false" inkscape:cy="150.1114" inkscape:cx="340.71337" inkscape:zoom="2.7412974" borderopacity="1.0" bordercolor="#666666" pagecolor="#ffffff">
	</sodipodi:namedview>
<g id="layer1" transform="translate(-220.37886,-333.74656)" inkscape:groupmode="layer" inkscape:label="Layer 1">
	<path id="path2899" fill="#94CA02" d="M327.966,334.25c-14.226,17.689-27.948,35.842-41.915,53.761
		c-21.889,28.405-43.936,56.696-65.528,85.327c16.007,0.292,32.027,0.104,48.039,0.16c19.282-24.646,38.218-49.565,57.785-73.984
		c0.713-0.633,1.874-3.06,2.589-0.996c31.675,40.65,63.345,81.305,94.958,122.004c15.513-0.111,31.042,0.311,46.545-0.24
		c1.606-0.203-1.209-1.982-1.283-2.725c-43.586-57.298-87.3-114.5-131.205-171.554c-3.259-3.892-6.034-8.294-9.77-11.73
		C328.113,334.255,328.038,334.221,327.966,334.25L327.966,334.25z"/>
	<path id="path2901" fill="#BDBCBE" d="M391.61,391.933c0,5.882,0,11.764,0,17.646c13.48,17.314,26.704,34.839,40.526,51.88
		c0.844-7.964,0.452-16.109,0.635-24.145c0.104-21.014,0.045-42.027,0.061-63.041c-13.741,0-27.481,0-41.222,0
		C391.61,380.161,391.61,386.047,391.61,391.933L391.61,391.933z"/>
	<path id="path2903" fill="#BDBCBE" d="M431.35,349.674c-0.936,0.924,1.392,1.769,1.892,2.402c3.732,2.638,8.784,5.899,7.866,11.232
		c-0.273,4.333-3.479,7.691-7.193,9.519c-0.965,0.869,0.062,2.582,1.254,1.607c3.588-2.204,6.762-5.336,8.949-8.926
		c1.498-4.824-1.574-9.748-5.7-12.141C436.21,351.998,433.949,350.089,431.35,349.674z"/>
	<path id="path2905" fill="#BDBCBE" d="M427.896,341.17c-0.53,1.545-1.032,3.616-0.445,5.198c1.82,0.596,1.873-2.453,1.665-3.591
		C429.061,342.096,428.767,341.088,427.896,341.17z"/>
	<path id="path2907" fill="#BDBCBE" d="M327.441,437.395c-8.949,0.004-17.897,0.008-26.846,0.011
		c-9.852,12.99-19.702,25.982-29.548,38.976c-4.925,0.005-9.85,0.017-14.774,0.034c0,31.076,0,62.151,0,93.227
		c3.469,3.695,6.934,7.393,10.396,11.092c6.019-0.002,12.038,0.002,18.057,0.012c0-24.32,0-48.639,0-72.959
		c9.242,0,18.483,0,27.724,0c0,24.32,0,48.639,0,72.959c25.965,0,51.93,0,77.895,0c2.86-2.855,5.713-5.717,8.561-8.584
		c0-25.916,0-51.831,0-77.746c-14.87-19.01-29.739-38.021-44.607-57.033C345.347,437.388,336.394,437.392,327.441,437.395
		L327.441,437.395z M299.136,471.674c4.803,0,9.606,0,14.409,0c0,8.269,0,16.538,0,24.805c-9.606,0-19.212,0-28.819,0
		c0-8.268,0-16.537,0-24.805C289.53,471.674,294.333,471.674,299.136,471.674z"/>
	<path id="path2909" fill="#BDBCBE" d="M285.456,593.879c0,4.134,0,8.268,0,12.402c-12.263,0-24.525,0-36.787,0
		c-0.276-6.639,0.273-13.393-0.707-19.961c-2.003-2.246-5.592-1.326-8.276-1.688c-4.875,0.168-9.952-0.526-14.683,0.833
		c-1.617,1.465-0.718,4.221-1.173,6.178c-0.384,12.137-0.834,24.336,0.272,36.446c-0.039,2.938,2.973,4.171,5.493,4.104
		c20.803,0.836,41.644,0.67,62.46,0.394c5.188-0.264,10.488,0.065,15.595-0.896c3.23-1.089,4.017-4.652,3.791-7.66
		c0.291-14.183,0.208-28.371,0.325-42.556c-8.771,0-17.541,0-26.311,0C285.456,585.61,285.456,589.745,285.456,593.879z"/>
	<path id="path2911" fill="#BDBCBE" d="M422.982,584.03c0,16.172,0,32.345,0,48.518c25.049,0,50.098,0,75.147,0
		c0-7.418,0-14.836,0-22.253c-15.686,0-31.372,0-47.058,0c0-6.202,0-12.403,0-18.604c14.227,0,28.454,0,42.681,0
		c0-6.688,0-13.375,0-20.063c-14.227,0-28.454,0-42.681,0c0-5.106,0-10.214,0-15.321c15.321,0,30.643,0,45.964,0
		c0-6.931,0-13.861,0-20.793c-24.684,0-49.369,0-74.053,0C422.982,551.684,422.982,567.858,422.982,584.03L422.982,584.03z"/>
	<path id="path2913" fill="#BDBCBE" d="M512.721,584.03c0,16.172,0,32.345,0,48.518c25.048,0,50.098,0,75.146,0
		c0-7.418,0-14.836,0-22.253c-15.807,0-31.615,0-47.422,0c0-6.202,0-12.403,0-18.604c14.227,0,28.454,0,42.68,0
		c0-6.688,0-13.375,0-20.063c-14.227,0-28.454,0-42.68,0c0-5.106,0-10.214,0-15.321c15.321,0,30.643,0,45.963,0
		c0-6.931,0-13.861,0-20.793c-24.563,0-49.125,0-73.688,0C512.721,551.684,512.721,567.858,512.721,584.03L512.721,584.03z"/>
	<path id="path2915" fill="#94CA02" d="M602.825,584.03c0,16.172,0,32.345,0,48.518c15.492-0.172,31.01,0.398,46.486-0.445
		c8.826-0.899,18.02-3.783,23.939-10.775c8.182-8.349,10.914-20.326,11.223-31.666c0.641-13.854-0.609-28.778-8.977-40.377
		c-6.705-9.524-18.654-14.098-30.049-13.625c-14.207-0.239-28.416-0.113-42.623-0.146
		C602.825,551.684,602.825,567.857,602.825,584.03z M635.565,557.776c6.354-0.081,14.104,0.92,17.566,7.022
		c4.512,8.405,3.697,18.376,3.297,27.585c-0.314,6.421-2.535,14.145-9.225,16.521c-5.357,1.696-11.115,1.104-16.654,1.505
		c0-17.549,0-35.096,0-52.645C632.221,557.768,633.893,557.772,635.565,557.776z"/>
	<path id="path2917" fill="#94CA02" d="M740.68,533.438c-11.938-0.017-24.402,3.718-32.67,12.713
		c-10.029,10.183-12.867,25.098-12.68,38.904c0.008,13.982,4.189,28.745,14.811,38.406c8.768,8.132,21.232,10.607,32.854,10.137
		c12.564,0.478,25.682-4.154,33.77-14.078c8.896-10.637,11.176-25.122,10.533-38.592c0.238-12.581-3.322-25.734-12.246-34.953
		C766.317,536.544,753.135,533.284,740.68,533.438z M741.672,556.43c7.834-0.07,14.727,5.963,16.553,13.441
		c2.021,6.561,1.127,13.547,1.143,20.302c-0.303,7.519-3.059,16.081-10.422,19.426c-5.018,1.864-11.074,1.97-15.879-0.604
		c-6.592-3.771-9.301-11.559-9.627-18.785c-0.375-8.896-0.797-18.635,4.041-26.518C730.532,558.99,736.122,556.315,741.672,556.43
		L741.672,556.43z"/>
	<path id="path2919" fill="#94CA02" d="M801.635,584.03c0,16.172,0,32.345,0,48.518c7.66,0,15.32,0,22.982,0
		c0.061-23.867,0.121-47.734,0.182-71.602c5.596,23.866,11.188,47.733,16.781,71.602c6.855-0.172,13.785,0.365,20.598-0.365
		c5.863-23.773,11.297-47.764,16.975-71.625c0.061,23.996,0.123,47.993,0.184,71.99c7.539,0,15.078,0,22.617,0
		c0-32.346,0-64.689,0-97.035c-12.1,0-24.199,0-36.297,0c-4.557,19.056-8.824,38.375-13.68,57.238
		c-4.826-19.01-9.119-38.152-13.68-57.227c-12.221-0.01-24.441-0.014-36.662-0.012C801.635,551.684,801.635,567.858,801.635,584.03
		L801.635,584.03z"/>
</g>
</svg>
