<?xml version="1.0" encoding="iso-8859-1"?>
<!-- Generator: Adobe Illustrator 17.1.0, SVG Export Plug-In . SVG Version: 6.00 Build 0)  -->
<!DOCTYPE svg PUBLIC "-//W3C//DTD SVG 1.1//EN" "http://www.w3.org/Graphics/SVG/1.1/DTD/svg11.dtd">
<svg version="1.1" id="Layer_1" xmlns="http://www.w3.org/2000/svg" xmlns:xlink="http://www.w3.org/1999/xlink" x="0px" y="0px"
	 viewBox="0 0 64 64" style="enable-background:new 0 0 64 64;" xml:space="preserve">
<path d="M15,50h15v-6H15V50z M22.875,45.562c0.69,0,1.25,0.56,1.25,1.25s-0.56,1.25-1.25,1.25s-1.25-0.56-1.25-1.25
	S22.185,45.562,22.875,45.562z"/>
<path d="M15,40h15v-6H15V40z M22.875,35.562c0.69,0,1.25,0.56,1.25,1.25s-0.56,1.25-1.25,1.25s-1.25-0.56-1.25-1.25
	S22.185,35.562,22.875,35.562z"/>
<path d="M35,50h15V10H35V50z M37.875,27.562c0.69,0,1.25,0.56,1.25,1.25s-0.56,1.25-1.25,1.25s-1.25-0.56-1.25-1.25
	S37.185,27.562,37.875,27.562z"/>
<path d="M15,30h15V10H15V30z M26.875,19.562c0.69,0,1.25,0.56,1.25,1.25s-0.56,1.25-1.25,1.25s-1.25-0.56-1.25-1.25
	S26.185,19.562,26.875,19.562z"/>
<path d="M10,52v3v3h3v-3h18v3h3v-3h18v3h3v-3v-3V6H10V52z M34,9h17v42H34V9z M14,9h17v22H14V9z M14,33h17v8H14V33z M14,43h17v8H14
	V43z"/>
<polygon points="10,5 55,5 57,3 8,3 "/>
</svg>
