<?xml version="1.0" encoding="iso-8859-1"?>
<!-- Generator: Adobe Illustrator 16.0.0, SVG Export Plug-In . SVG Version: 6.00 Build 0)  -->
<!DOCTYPE svg PUBLIC "-//W3C//DTD SVG 1.1//EN" "http://www.w3.org/Graphics/SVG/1.1/DTD/svg11.dtd">
<svg version="1.1" id="Layer_1" xmlns="http://www.w3.org/2000/svg" xmlns:xlink="http://www.w3.org/1999/xlink" x="0px" y="0px"
	 width="32px" height="31.658px" viewBox="0 0 32 31.658" style="enable-background:new 0 0 32 31.658;" xml:space="preserve">
<path d="M23.534,7.612V4.295l0.992,0.187V2.574L12.425,0.028V0L0,2.622v1.924l1.444-0.271v26.058l10.933,1.326l1.956-0.268v-5.809
	l3.055-0.179v5.619l1.899-0.229v-5.534l2.745-0.16v5.363l1.501-0.181l7.707-0.916V10.268L32,10.365V8.868L23.534,7.612z
	 M9.796,9.155l1.885-0.222v1.573l-1.885,0.19V9.155z M2.245,10.062l1.588-0.187v1.443l-1.588,0.159V10.062z M3.833,23.649
	l-1.588-0.064v-1.417l1.588,0.039V23.649z M3.833,21.152l-1.588-0.02v-1.417l1.588-0.007V21.152z M3.848,18.705L2.259,18.73v-1.418
	l1.589-0.051V18.705z M3.848,16.288l-1.589,0.069V14.94l1.589-0.096V16.288z M3.848,13.75l-1.589,0.115v-1.417l1.589-0.143V13.75z
	 M3.861,8.902L2.272,9.106V7.689l1.589-0.23V8.902z M3.861,6.563L2.272,6.811V5.394L3.861,5.12V6.563z M4.684,9.735l1.681-0.198
	v1.485l-1.681,0.17V9.735z M6.364,23.713l-1.681-0.067v-1.458l1.681,0.04V23.713z M6.364,21.144l-1.681-0.021v-1.457l1.681-0.008
	V21.144z M6.379,18.625l-1.682,0.027v-1.458l1.682-0.055V18.625z M6.379,16.138l-1.682,0.074v-1.458l1.682-0.102V16.138z
	 M6.379,13.524l-1.682,0.123V12.19l1.682-0.151V13.524z M6.394,8.537L4.712,8.754V7.296l1.682-0.245V8.537z M6.394,6.13L4.712,6.392
	V4.935l1.682-0.29V6.13z M7.144,9.46l1.777-0.209v1.527l-1.777,0.18V9.46z M8.921,23.832l-1.777-0.073v-1.498l1.777,0.043V23.832z
	 M8.921,21.188l-1.777-0.021v-1.498l1.777-0.009V21.188z M8.938,18.598L7.16,18.626v-1.498l1.778-0.059V18.598z M8.938,16.04
	L7.16,16.117v-1.498l1.778-0.107V16.04z M8.938,13.353L7.16,13.481v-1.498l1.778-0.159V13.353z M8.953,8.222L7.175,8.45V6.952
	l1.778-0.259V8.222z M8.953,5.746L7.175,6.022V4.524l1.778-0.307V5.746z M11.681,23.951l-1.885-0.077v-1.542l1.885,0.046V23.951z
	 M11.681,21.229l-1.885-0.022v-1.542l1.885-0.009V21.229z M11.697,18.561l-1.885,0.03v-1.543l1.885-0.062V18.561z M11.697,15.926
	l-1.885,0.083v-1.543l1.885-0.113V15.926z M11.697,13.158l-1.885,0.138v-1.543l1.885-0.169V13.158z M11.714,7.874L9.829,8.116V6.573
	L11.714,6.3V7.874z M11.714,5.324L9.829,5.617V4.074l1.885-0.324V5.324z M21.136,7.366l1.574,0.229v1.485l-1.574-0.202V7.366z
	 M21.136,12.298l1.574,0.141v1.484l-1.574-0.113V12.298z M18.727,6.979l1.662,0.243v1.525l-1.662-0.215V6.979z M18.727,12.048
	l1.662,0.148v1.525l-1.662-0.12V12.048z M16.228,6.61l1.756,0.257v1.567l-1.756-0.227V6.61z M16.228,11.819l1.756,0.158v1.566
	l-1.756-0.127V11.819z M13.396,6.175l1.864,0.273v1.615l-1.864-0.241V6.175z M15.293,9.116v1.613l-1.863-0.188V8.896L15.293,9.116z
	 M13.396,11.545l1.864,0.168v1.614l-1.864-0.136V11.545z M15.248,23.914l-1.865,0.076v-1.647l1.865-0.044V23.914z M15.275,21.271
	l-1.864,0.024v-1.647l1.864,0.009V21.271z M15.276,18.567l-1.864-0.03v-1.646l1.864,0.063V18.567z M15.309,16.001l-1.862-0.082
	v-1.646l1.862,0.114V16.001z M15.325,5.505l-1.861-0.292V3.567l1.861,0.324V5.505z M17.94,23.815l-1.757,0.072V22.29l1.757-0.043
	V23.815z M17.967,21.255l-1.756,0.023v-1.598l1.756,0.007V21.255z M17.967,18.63l-1.756-0.028v-1.598l1.756,0.059V18.63z
	 M17.999,16.106l-1.755-0.077v-1.598l1.755,0.108V16.106z M18.014,11.022l-1.754-0.176V9.25l1.754,0.206V11.022z M18.014,5.915
	L16.26,5.64V4.042l1.754,0.306V5.915z M20.295,23.719l-1.666,0.068v-1.556l1.666-0.04V23.719z M20.374,21.227l-1.664,0.022v-1.555
	l1.664,0.007V21.227z M20.374,18.672l-1.662-0.026v-1.555l1.662,0.056V18.672z M20.403,16.216l-1.661-0.073v-1.554l1.661,0.102
	V16.216z M20.418,11.268l-1.662-0.167V9.547l1.662,0.196V11.268z M20.418,6.296l-1.662-0.261V4.481l1.662,0.289V6.296z
	 M22.685,23.638l-1.576,0.065V22.19l1.576-0.038V23.638z M22.696,21.229l-1.575,0.021v-1.513l1.575,0.006V21.229z M22.697,18.742
	l-1.575-0.024v-1.513l1.575,0.052V18.742z M22.723,16.351l-1.573-0.068v-1.512l1.573,0.096V16.351z M22.739,11.534l-1.574-0.158
	V9.864l1.574,0.185V11.534z M22.739,6.693l-1.574-0.247V4.935l1.574,0.274V6.693z M29.048,13.017l1.307,0.13V14.5l-1.307-0.107
	V13.017z M27.095,12.818l1.371,0.137v1.387l-1.371-0.112V12.818z M24.922,10.251l1.445,0.186v1.423l-1.445-0.16V10.251z
	 M24.896,12.581l1.445,0.146v1.423l-1.445-0.119V12.581z M26.333,23.483l-1.446,0.045v-1.449l1.446-0.02V23.483z M26.354,21.153
	l-1.445,0.005v-1.449l1.445,0.021V21.153z M26.354,18.77l-1.445-0.038v-1.448l1.445,0.063V18.77z M26.379,16.508l-1.444-0.078
	v-1.448l1.444,0.103V16.508z M28.432,23.429l-1.373,0.044v-1.411l1.373-0.02V23.429z M28.454,21.164l-1.371,0.005v-1.411l1.371,0.02
	V21.164z M28.454,18.842l-1.371-0.036v-1.41l1.371,0.06V18.842z M28.478,16.609l-1.371-0.074v-1.41l1.371,0.098V16.609z
	 M28.491,12.111l-1.37-0.151v-1.41l1.37,0.175V12.111z M30.282,23.372l-1.309,0.04v-1.377l1.309-0.019V23.372z M30.342,21.161
	l-1.307,0.005v-1.377l1.307,0.019V21.161z M30.343,18.894l-1.307-0.033v-1.377l1.307,0.057V18.894z M30.366,16.714l-1.306-0.07
	v-1.376l1.306,0.093V16.714z M30.378,12.322l-1.306-0.144v-1.377l1.306,0.167V12.322z"/>
<g>
</g>
<g>
</g>
<g>
</g>
<g>
</g>
<g>
</g>
<g>
</g>
<g>
</g>
<g>
</g>
<g>
</g>
<g>
</g>
<g>
</g>
<g>
</g>
<g>
</g>
<g>
</g>
<g>
</g>
</svg>
