<?xml version="1.0" encoding="utf-8"?>
<!-- Generator: Adobe Illustrator 15.0.0, SVG Export Plug-In . SVG Version: 6.00 Build 0)  -->
<!DOCTYPE svg PUBLIC "-//W3C//DTD SVG 1.1//EN" "http://www.w3.org/Graphics/SVG/1.1/DTD/svg11.dtd">
<svg version="1.1" id="Layer_1" xmlns="http://www.w3.org/2000/svg" xmlns:xlink="http://www.w3.org/1999/xlink" x="0px" y="0px"
	 width="26px" height="26px" viewBox="0 0 26 26" enable-background="new 0 0 26 26" xml:space="preserve">
<rect fill="none" width="26" height="26"/>
<path fill="#000000" d="M25,1h-1v2h-3V1H5v2H2V1H1C0.449,1,0,1.449,0,2v22c0,0.551,0.449,1,1,1h1v-1h3v1h16v-1h3v1h1
	c0.551,0,1-0.449,1-1V2C26,1.449,25.551,1,25,1z M5,21H2v-3h3V21z M5,15H2v-3h3V15z M5,9H2V6h3V9z M17.588,13.656l-6.503,3.793
	c-0.106,0.053-0.222,0.078-0.337,0.078c-0.138,0-0.272-0.037-0.394-0.109C10.134,17.285,10,17.047,10,16.793V9.208
	c0-0.255,0.134-0.493,0.354-0.626c0.222-0.134,0.499-0.146,0.73-0.03l6.503,3.792C17.84,12.469,18,12.722,18,13
	S17.84,13.531,17.588,13.656z M24,21h-3v-3h3V21z M24,15h-3v-3h3V15z M24,9h-3V6h3V9z"/>
</svg>
