<?xml version="1.0" encoding="utf-8"?>
<!-- Generator: Adobe Illustrator 17.0.0, SVG Export Plug-In . SVG Version: 6.00 Build 0)  -->
<!DOCTYPE svg PUBLIC "-//W3C//DTD SVG 1.1//EN" "http://www.w3.org/Graphics/SVG/1.1/DTD/svg11.dtd">
<svg version="1.1" id="Layer_1" xmlns="http://www.w3.org/2000/svg" xmlns:xlink="http://www.w3.org/1999/xlink" x="0px" y="0px"
	 width="26px" height="26px" viewBox="0 0 26 26" enable-background="new 0 0 26 26" xml:space="preserve">
<path d="M25,12V4c0-1.608-1.065-4-4-4c-2.469,0-3.604,1.692-3.905,3.187C15.901,3.571,15.031,4.678,15.031,6h5.938
	c0-1.242-0.764-2.303-1.847-2.746C19.31,2.676,19.786,2,21,2c1.826,0,1.992,1.537,2,2v8H1c-0.552,0-1,0.448-1,1v1
	c0,0.553,0.448,1,1,1v3c0,2.168,1.829,4.297,3.944,4.855C4.845,23.344,4.59,24,4,24c-0.552,0-1,0.447-1,1s0.448,1,1,1
	c1.727,0,2.745-1.456,2.955-3h12.089c0.211,1.544,1.229,3,2.955,3c0.553,0,1-0.447,1-1s-0.447-1-1-1
	c-0.59,0-0.845-0.656-0.944-1.145C23.171,22.297,25,20.168,25,18v-3c0.553,0,1-0.447,1-1v-1C26,12.448,25.553,12,25,12z M23,18
	c0,1.43-1.57,3-3,3H6c-1.402,0-3-1.598-3-3v-3h20V18z M15.454,7.121l0.061-0.242c0.066-0.269,0.334-0.432,0.606-0.364
	c0.269,0.067,0.431,0.338,0.364,0.606l-0.061,0.242c-0.057,0.228-0.261,0.379-0.485,0.379c-0.04,0-0.08-0.005-0.121-0.015
	C15.55,7.66,15.388,7.389,15.454,7.121z M14.966,9.075l0.098-0.391c0.066-0.268,0.333-0.433,0.606-0.364
	c0.269,0.067,0.431,0.338,0.364,0.606l-0.098,0.391c-0.057,0.228-0.261,0.379-0.485,0.379c-0.04,0-0.08-0.005-0.121-0.015
	C15.062,9.614,14.899,9.342,14.966,9.075z M14.515,10.879l0.061-0.242c0.066-0.268,0.334-0.433,0.606-0.364
	c0.269,0.067,0.431,0.338,0.364,0.606l-0.061,0.242C15.429,11.349,15.225,11.5,15,11.5c-0.04,0-0.08-0.005-0.121-0.015
	C14.61,11.418,14.448,11.146,14.515,10.879z M20.546,7.121c0.066,0.268-0.096,0.539-0.364,0.606c-0.04,0.01-0.081,0.015-0.121,0.015
	c-0.225,0-0.429-0.151-0.485-0.379l-0.061-0.242c-0.066-0.268,0.096-0.539,0.364-0.606c0.262-0.069,0.539,0.095,0.606,0.364
	L20.546,7.121z M21.034,9.075c0.066,0.268-0.096,0.539-0.364,0.606c-0.04,0.01-0.081,0.015-0.121,0.015
	c-0.225,0-0.429-0.151-0.485-0.379l-0.098-0.391c-0.066-0.268,0.096-0.539,0.364-0.606c0.262-0.07,0.539,0.096,0.606,0.364
	L21.034,9.075z M20.818,10.273c0.265-0.07,0.539,0.096,0.606,0.364l0.061,0.242c0.066,0.268-0.096,0.539-0.364,0.606
	C21.081,11.495,21.04,11.5,21,11.5c-0.225,0-0.429-0.151-0.485-0.379l-0.061-0.242C20.388,10.611,20.55,10.34,20.818,10.273z
	 M17.5,7.25V7c0-0.276,0.224-0.5,0.5-0.5s0.5,0.224,0.5,0.5v0.25c0,0.276-0.224,0.5-0.5,0.5S17.5,7.526,17.5,7.25z M17.5,8.806
	c0-0.276,0.224-0.5,0.5-0.5s0.5,0.224,0.5,0.5v0.389c0,0.276-0.224,0.5-0.5,0.5s-0.5-0.224-0.5-0.5V8.806z M17.5,10.75
	c0-0.276,0.224-0.5,0.5-0.5s0.5,0.224,0.5,0.5V11c0,0.276-0.224,0.5-0.5,0.5s-0.5-0.224-0.5-0.5V10.75z"/>
</svg>
