<?xml version="1.0" encoding="utf-8"?>
<!-- Generator: Adobe Illustrator 15.0.0, SVG Export Plug-In . SVG Version: 6.00 Build 0)  -->
<!DOCTYPE svg PUBLIC "-//W3C//DTD SVG 1.1//EN" "http://www.w3.org/Graphics/SVG/1.1/DTD/svg11.dtd">
<svg version="1.1" id="Layer_1" xmlns="http://www.w3.org/2000/svg" xmlns:xlink="http://www.w3.org/1999/xlink" x="0px" y="0px"
	 width="26px" height="26px" viewBox="0 0 26 26" enable-background="new 0 0 26 26" xml:space="preserve">
<path fill="#000000" d="M21,26c-0.551,0-1-0.449-1-1v-1h1c1.594,0,2-0.542,2-0.542V25c0,0.551-0.449,1-1,1H21z"/>
<path fill="#000000" d="M4,26c-0.551,0-1-0.449-1-1v-1.542C3,23.458,3.406,24,5,24h1v1c0,0.551-0.449,1-1,1H4z"/>
<rect fill="none" width="26" height="26"/>
<g>
	<path fill="#000000" d="M25.813,15.5c0-1.277-1.036-2.313-2.313-2.313c-0.992,0-1.832,0.628-2.16,1.506l-1.097,2.457
		c-0.082-0.051-3.399-1.093-7.181-1.093s-7.23,1.047-7.314,1.099l-1.039-2.305C4.428,13.893,3.55,13.188,2.5,13.188
		c-1.277,0-2.313,1.035-2.313,2.313c0,1.063,0.722,1.949,1.699,2.22l0.428,3.679C2.766,22.961,5,23,5,23h16
		c0,0,2.234-0.039,2.686-1.602l0.428-3.679C25.09,17.449,25.813,16.563,25.813,15.5z"/>
</g>
<path fill="#000000" d="M2.5,11.987c1.512,0,2.869,0.998,3.334,2.438l0.506,1.125c0.979-0.353,4.499-0.693,6.723-0.693
	c2.163,0,5.633,0.316,6.593,0.666l0.575-1.289c0.521-1.346,1.83-2.247,3.27-2.247c0.106,0,0.207,0.022,0.312,0.031
	c0-0.006,0.001-0.013,0.001-0.019c0-2.658-2.154-4.813-4.813-4.813c-0.334,0-11.666,0-12,0c-2.658,0-4.813,2.154-4.813,4.813
	c0,0.006,0.001,0.013,0.001,0.019C2.293,12.01,2.394,11.987,2.5,11.987z"/>
</svg>
