<?xml version="1.0" encoding="utf-8"?>
<!-- Generator: Adobe Illustrator 16.0.4, SVG Export Plug-In . SVG Version: 6.00 Build 0)  -->
<!DOCTYPE svg PUBLIC "-//W3C//DTD SVG 1.1//EN" "http://www.w3.org/Graphics/SVG/1.1/DTD/svg11.dtd">
<svg version="1.1" id="Layer_1" xmlns="http://www.w3.org/2000/svg" xmlns:xlink="http://www.w3.org/1999/xlink" x="0px" y="0px"
	 width="32px" height="27.882px" viewBox="0 0 32 27.882" enable-background="new 0 0 32 27.882" xml:space="preserve">
<g>
	<path d="M5.665,7.272l4.805,6.211l9.944,0.602v-1.183l3.74,1.319L32,14.867l-4.109-1.918l-2.83-3.189l-19.739-3.2L0,14.177
		l0.947-0.05L5.665,7.272z M24.559,10.839l2.23,2.471l-0.428-0.01l-1.783-1.981l-1.504,1.986h-0.381L24.559,10.839z M15.155,9.319
		l2.479,3.612h-0.416l-2.06-3.068l-2.061,3.068h-0.373L15.155,9.319z"/>
	<path d="M24.091,14.523l-3.37-1.19v1.076l-10.408-0.63l-4.634-5.99l-4.44,6.454v6.245l9.151,0.824v0.012l9.854-0.89v0.001
		l3.492,0.209v0.002l0.012-0.001l0.039,0.003v-0.007l7.121-0.748v-4.812L24.091,14.523z M4.262,11.934l2.443-0.285v2.103
		l-2.443,0.17V11.934z M4.695,18.645l-2.496-0.103v-2.549l2.496-0.058V18.645z M9.184,18.802l-3.024-0.12V15.88l3.024-0.068V18.802z
		 M14.798,18.601l-3.144,0.119V15.83l3.144,0.071V18.601z M19.21,18.322l-2.533,0.088v-2.586l2.533,0.064V18.322z M27.242,18.335
		l-1.598,0.07v-2.041l1.598,0.026V18.335z M29.771,18.177l-1.352,0.058v-1.872l1.352,0.023V18.177z"/>
</g>
</svg>
