<?xml version="1.0" encoding="iso-8859-1"?>
<!-- Generator: Adobe Illustrator 16.0.0, SVG Export Plug-In . SVG Version: 6.00 Build 0)  -->
<!DOCTYPE svg PUBLIC "-//W3C//DTD SVG 1.1//EN" "http://www.w3.org/Graphics/SVG/1.1/DTD/svg11.dtd">
<svg version="1.1" id="Layer_1" xmlns="http://www.w3.org/2000/svg" xmlns:xlink="http://www.w3.org/1999/xlink" x="0px" y="0px"
	 width="32px" height="24.191px" viewBox="0 0 32 24.191" style="enable-background:new 0 0 32 24.191;" xml:space="preserve">
<g>
	<path d="M1.38,11.504l13.288-0.527l8.085-9.339l7.727,11.579L32,12.999l-9.09-12.91l-9.283,1.719V0.158L12.862,0l-2.304,0.487
		v1.889L7.463,2.949L0,9.729v1.785C0,11.515,0.763,11.495,1.38,11.504z"/>
	<path d="M22.702,2.438l-7.804,9.016L2.155,11.961v10.82l11.708,1.406v0.004l7.319-0.854v-8.43l3.368-0.004v8.041l5.395-0.662v-8.99
		L22.702,2.438z M7.126,19.404l-3.393-0.218v-4.33l3.393,0.002V19.404z M12.862,19.751l-3.945-0.253v-4.66l3.945,0.001V19.751z
		 M19.522,19.549l-4.165,0.273v-4.94l4.165-0.003V19.549z M28.97,18.957l-3.144,0.207v-4.275l3.144-0.004V18.957z"/>
</g>
<g>
</g>
<g>
</g>
<g>
</g>
<g>
</g>
<g>
</g>
<g>
</g>
<g>
</g>
<g>
</g>
<g>
</g>
<g>
</g>
<g>
</g>
<g>
</g>
<g>
</g>
<g>
</g>
<g>
</g>
</svg>
