<?xml version="1.0" encoding="utf-8"?>
<!-- Generator: Adobe Illustrator 16.0.4, SVG Export Plug-In . SVG Version: 6.00 Build 0)  -->
<!DOCTYPE svg PUBLIC "-//W3C//DTD SVG 1.1//EN" "http://www.w3.org/Graphics/SVG/1.1/DTD/svg11.dtd">
<svg version="1.1" id="Capa_1" xmlns="http://www.w3.org/2000/svg" xmlns:xlink="http://www.w3.org/1999/xlink" x="0px" y="0px"
	 width="64px" height="64px" viewBox="0 0 64 64" enable-background="new 0 0 64 64" xml:space="preserve">
<g>
	<polygon points="42,33 42,32 42,31 42,2 38,2 38,31 38,32 5,32 5,34 42,34 	"/>
	<path d="M44,33h2.485c-0.012,0.032-0.029,0.059-0.04,0.093c-0.641,2.025-0.345,4.334-1.708,5.525
		c-0.562,0.492-1.418,0.786-2.73,0.797c-0.005,0.001-0.009,0.001-0.014,0.001c0.385-1.39,0.61-2.858,0.61-4.416H5
		c0,7.366,4.575,12.986,11.132,15.441c0.329,0.123,0.665,0.233,1.004,0.34c-1.677,2.102-3.982,5.308-4.147,5.805L13,60.989
		c-0.016,0.002,0.106,0.012,0.304,0.012L13.516,61H33.95l0.084,0.499V61.1c-0.021,0.027-0.038,0.056-0.044,0.083
		c0.002-0.007,0.01-0.05,0.01-0.193v-4.496c-0.143-0.433-2.244-3.532-3.813-5.627c0.338-0.102,0.681-0.197,1.01-0.314
		c3.965-1.418,7.222-3.986,9.227-7.392c2.766-0.077,4.619-0.57,5.911-1.412c0.556-0.362,1.006-0.793,1.391-1.276
		c1.253-1.575,1.766-3.749,2.577-6.315c0.138-0.435,0.125-0.821,0.017-1.156H56l3-24H44V33z"/>
	<rect x="44" y="5" width="15" height="3"/>
</g>
</svg>
