<?xml version="1.0" encoding="iso-8859-1"?>
<!-- Generator: Adobe Illustrator 16.0.0, SVG Export Plug-In . SVG Version: 6.00 Build 0)  -->
<!DOCTYPE svg PUBLIC "-//W3C//DTD SVG 1.1//EN" "http://www.w3.org/Graphics/SVG/1.1/DTD/svg11.dtd">
<svg version="1.1" id="Layer_1" xmlns="http://www.w3.org/2000/svg" xmlns:xlink="http://www.w3.org/1999/xlink" x="0px" y="0px"
	 width="17.976px" height="31.919px" viewBox="0 0 17.976 31.919" style="enable-background:new 0 0 17.976 31.919;"
	 xml:space="preserve">
<path d="M15.746,15.083V8.075l-2.332-0.742V1.8L9.117,0l-4.54,1.883L4.51,7.653l-2.159,0.68v6.765L0,15.534v15.307l8.968,1.078
	l9.008-1.007V15.495L15.746,15.083z M1.656,17.23l0.595-0.087v0.861l-0.595,0.077V17.23z M1.645,20.104l0.594-0.054v0.861
	l-0.594,0.044V20.104z M2.261,21.43v0.861l-0.595,0.028v-0.852L2.261,21.43z M0.653,17.349l0.571-0.085v0.845l-0.571,0.075V17.349z
	 M0.642,20.166l0.57-0.053v0.845l-0.57,0.043V20.166z M1.243,21.466v0.845l-0.571,0.028v-0.836L1.243,21.466z M0.616,22.881
	l0.57-0.022v0.845l-0.57,0.012V22.881z M1.198,26.534l-0.57-0.02v-0.834l0.57,0.009V26.534z M1.255,25.145l-0.571-0.004v-0.835
	L1.255,24.3V25.145z M1.269,19.562L0.696,19.62v-0.836l0.572-0.067V19.562z M1.28,16.709L0.708,16.8v-0.836l0.572-0.101V16.709z
	 M1.618,22.872l0.593-0.022v0.861l-0.593,0.012V22.872z M2.224,26.599L1.63,26.578v-0.851l0.594,0.01V26.599z M2.272,25.182
	l-0.595-0.005v-0.852l0.595-0.006V25.182z M2.287,19.487l-0.595,0.062v-0.853l0.595-0.07V19.487z M2.3,16.578l-0.596,0.094v-0.853
	L2.3,15.717V16.578z M8.229,10.295v0.96l-0.736,0.172v-0.947L8.229,10.295z M8.213,8.032L7.477,8.244V7.297l0.736-0.225V8.032z
	 M7.473,5.926V4.979l0.735-0.254v0.959L7.473,5.926z M7.473,1.776l0.735-0.295V2.44L7.473,2.724V1.776z M7.461,3.424L8.197,3.15
	v0.959L7.461,4.371V3.424z M6.969,10.576v0.939L6.264,11.68v-0.927L6.969,10.576z M6.954,8.361L6.249,8.565V7.638l0.705-0.215V8.361
	z M6.245,6.296V5.369l0.704-0.244v0.939L6.245,6.296z M6.245,2.235l0.704-0.283v0.939L6.245,3.162V2.235z M6.234,3.848l0.705-0.263
	v0.938L6.234,4.774V3.848z M5.696,10.862v0.918l-0.674,0.158v-0.907L5.696,10.862z M5.683,8.697L5.008,8.892V7.985l0.675-0.206
	V8.697z M5.004,6.673V5.766l0.674-0.232v0.918L5.004,6.673z M5.004,2.701l0.674-0.271v0.918l-0.674,0.26V2.701z M4.994,4.278
	l0.674-0.251v0.917l-0.674,0.24V4.278z M3.847,8.393l0.646-0.196v0.897L3.847,9.28V8.393z M4.506,11.214v0.898l-0.646,0.15v-0.888
	L4.506,11.214z M2.768,8.691l0.62-0.189v0.88l-0.62,0.179V8.691z M3.401,11.458v0.881L2.78,12.483v-0.87L3.401,11.458z
	 M2.718,10.137l0.619-0.172v0.879l-0.619,0.162V10.137z M2.73,13.057l0.619-0.138v0.88L2.73,13.927V13.057z M3.387,20.861
	l-0.62,0.046v-0.869l0.62-0.057V20.861z M3.41,21.392v0.881l-0.621,0.029v-0.87L3.41,21.392z M2.779,17.102l0.62-0.09v0.88
	l-0.62,0.081V17.102z M2.739,22.866l0.619-0.022v0.879l-0.619,0.014V22.866z M3.372,26.675l-0.62-0.021v-0.87l0.62,0.012V26.675z
	 M3.423,25.227l-0.621-0.005v-0.871l0.621-0.005V25.227z M3.438,19.407l-0.621,0.063V18.6l0.621-0.073V19.407z M3.451,16.435
	l-0.622,0.098v-0.871l0.622-0.108V16.435z M3.795,9.869l0.645-0.18v0.897l-0.645,0.169V9.869z M3.809,12.848l0.645-0.143v0.897
	l-0.645,0.133V12.848z M4.491,20.812l-0.646,0.048v-0.888l0.646-0.059V20.812z M4.516,21.353v0.898l-0.646,0.03v-0.888L4.516,21.353
	z M3.859,16.976l0.646-0.094v0.898l-0.646,0.083V16.976z M3.817,22.857l0.645-0.023v0.898l-0.645,0.013V22.857z M4.476,26.744
	l-0.645-0.022v-0.888l0.645,0.013V26.744z M4.529,25.267l-0.646-0.006v-0.888l0.646-0.006V25.267z M4.545,19.327l-0.647,0.065
	v-0.889l0.647-0.076V19.327z M4.559,16.292l-0.647,0.102v-0.889l0.647-0.112V16.292z M4.994,9.482l0.674-0.188v0.918l-0.674,0.177
	V9.482z M5.009,12.528l0.674-0.151v0.919l-0.674,0.139V12.528z M5.062,16.747l0.675-0.099v0.919l-0.675,0.087V16.747z M5.031,21.266
	l0.675-0.043v0.918l-0.675,0.032V21.266z M5.018,22.76l0.675-0.024v0.918l-0.675,0.014V22.76z M5.706,26.733L5.031,26.71v-0.907
	l0.675,0.013V26.733z M5.721,25.222l-0.675-0.005V24.31l0.675-0.007V25.222z M5.723,20.667l-0.675,0.05V19.81l0.675-0.062V20.667z
	 M5.736,19.153l-0.675,0.068v-0.908l0.675-0.08V19.153z M5.751,16.052l-0.676,0.106V15.25l0.676-0.117V16.052z M6.234,9.169
	l0.705-0.196v0.938l-0.705,0.185V9.169z M6.249,12.283l0.705-0.157v0.938L6.249,13.21V12.283z M6.273,21.218l0.706-0.045v0.939
	l-0.706,0.033V21.218z M6.259,22.746l0.705-0.026v0.939l-0.705,0.014V22.746z M6.979,26.81l-0.706-0.024v-0.928l0.706,0.013V26.81z
	 M6.994,25.263l-0.706-0.005V24.33l0.706-0.007V25.263z M6.996,20.604L6.29,20.656v-0.928l0.706-0.063V20.604z M7.011,19.056
	l-0.706,0.071v-0.928l0.706-0.083V19.056z M7.011,17.434l-0.706,0.092v-0.929l0.706-0.103V17.434z M7.025,15.884l-0.706,0.111
	v-0.929l0.706-0.123V15.884z M7.461,8.86l0.736-0.204v0.96L7.461,9.808V8.86z M7.477,12.043l0.736-0.163v0.959L7.477,12.99V12.043z
	 M7.534,16.45l0.738-0.106v0.96l-0.738,0.096V16.45z M7.502,21.173l0.737-0.047v0.96L7.502,22.12V21.173z M7.487,22.733l0.736-0.026
	v0.96l-0.736,0.015V22.733z M8.239,26.887l-0.737-0.025v-0.948l0.737,0.014V26.887z M8.255,25.307l-0.737-0.006v-0.948l0.737-0.007
	V25.307z M8.257,20.545L7.52,20.599V19.65l0.737-0.066V20.545z M8.272,18.962l-0.738,0.074v-0.948l0.738-0.086V18.962z M8.288,15.72
	L7.55,15.835v-0.948l0.738-0.128V15.72z M13,12.457v0.989l-0.655-0.135v-1.001L13,12.457z M12.998,10.441l-0.655-0.171v-1
	l0.655,0.182V10.441z M12.35,18.223l0.655,0.077v0.988l-0.655-0.065V18.223z M12.36,19.764l0.655,0.06v0.988l-0.655-0.048V19.764z
	 M12.372,17.663v-1l0.654,0.096v0.988L12.372,17.663z M13.017,16.224l-0.655-0.102v-1l0.655,0.113V16.224z M13.009,9.011
	l-0.655-0.188v-1l0.655,0.198V9.011z M12.353,2.267l0.655,0.264v0.988l-0.655-0.252V2.267z M12.342,3.712l0.656,0.247v0.989
	l-0.656-0.235V3.712z M11.781,12.23v1.011l-0.685-0.14v-1.023L11.781,12.23z M11.78,10.171l-0.686-0.178V8.971L11.78,9.16V10.171z
	 M11.103,18.122l0.685,0.08v1.011l-0.685-0.068V18.122z M11.113,19.697l0.685,0.062v1.011l-0.685-0.049V19.697z M11.125,17.551
	v-1.022l0.685,0.099v1.011L11.125,17.551z M11.799,16.081l-0.685-0.105v-1.023l0.685,0.118V16.081z M11.79,8.709l-0.685-0.195V7.491
	l0.685,0.207V8.709z M11.104,1.811l0.686,0.275v1.011l-0.686-0.264V1.811z M11.094,3.289l0.686,0.257v1.011l-0.686-0.245V3.289z
	 M10.489,12.024v1.034l-0.718-0.146v-1.047L10.489,12.024z M10.487,9.917L9.77,9.732V8.687l0.718,0.197V9.917z M9.777,18.05
	l0.717,0.083v1.033l-0.717-0.069V18.05z M9.789,19.661l0.717,0.063v1.033l-0.717-0.05V19.661z M9.802,17.465v-1.046l0.716,0.103
	v1.033L9.802,17.465z M10.507,15.963L9.79,15.854v-1.047l0.717,0.123V15.963z M10.498,8.422L9.781,8.219V7.173l0.717,0.216V8.422z
	 M9.78,1.36l0.717,0.287v1.034L9.78,2.407V1.36z M9.769,2.873l0.718,0.269v1.034L9.769,3.92V2.873z M9.76,4.558l0.717,0.248v1.033
	L9.76,5.604V4.558z M9.761,10.252l0.717,0.179v1.034l-0.717-0.166V10.252z M9.766,21.246l0.718,0.044v1.033l-0.718-0.03V21.246z
	 M9.777,22.857l0.717,0.024v1.033l-0.717-0.011V22.857z M9.792,24.492l0.716,0.005v1.033l-0.716,0.009V24.492z M10.52,27.12
	l-0.717,0.029v-1.047l0.717-0.016V27.12z M11.085,4.935l0.686,0.238v1.011l-0.686-0.226V4.935z M11.086,10.501l0.685,0.171v1.012
	l-0.685-0.159V10.501z M11.091,21.246l0.685,0.043V22.3l-0.685-0.03V21.246z M11.102,22.821l0.685,0.024v1.011l-0.685-0.012V22.821z
	 M11.116,24.42l0.684,0.004v1.011l-0.684,0.008V24.42z M11.811,26.989l-0.684,0.026v-1.022l0.684-0.014V26.989z M12.333,5.323
	l0.656,0.228V6.54l-0.656-0.217V5.323z M12.334,10.768l0.656,0.164v0.989l-0.656-0.152V10.768z M12.339,21.278l0.656,0.042v0.989
	l-0.656-0.03V21.278z M12.35,22.819l0.655,0.023v0.989L12.35,23.82V22.819z M12.362,24.383l0.655,0.005v0.989l-0.655,0.006V24.383z
	 M13.027,26.898l-0.654,0.024v-1.001l0.654-0.013V26.898z M14.8,18.43l0.6,0.071v0.946l-0.6-0.061V18.43z M14.795,13.733v-0.957
	l0.6,0.135v0.946L14.795,13.733z M14.81,19.903l0.6,0.056v0.945l-0.6-0.044V19.903z M14.82,17.895v-0.956l0.599,0.089v0.945
	L14.82,17.895z M15.41,16.516l-0.6-0.095v-0.956l0.6,0.104V16.516z M14.803,8.485l0.6,0.183v0.946l-0.6-0.173V8.485z M14.794,9.869
	l0.6,0.167v0.946l-0.6-0.156V9.869z M13.59,18.293l0.626,0.074v0.968l-0.626-0.064V18.293z M13.585,13.49v-0.979l0.626,0.141v0.968
	L13.585,13.49z M13.6,19.8l0.626,0.058v0.967L13.6,20.778V19.8z M13.61,17.746v-0.979l0.627,0.093v0.967L13.61,17.746z
	 M14.228,16.337l-0.627-0.099v-0.978l0.627,0.109V16.337z M13.593,8.123l0.627,0.191v0.967l-0.627-0.18V8.123z M13.583,9.538
	l0.627,0.176v0.967l-0.627-0.164V9.538z M13.574,11.003l0.628,0.158v0.967l-0.628-0.146V11.003z M13.579,21.281l0.627,0.04v0.968
	l-0.627-0.029V21.281z M13.589,22.788l0.627,0.023v0.967l-0.627-0.012V22.788z M13.602,24.316l0.627,0.006v0.967l-0.627,0.006
	V24.316z M14.238,26.777L13.612,26.8v-0.978l0.626-0.012V26.777z M14.785,11.301l0.601,0.151v0.946l-0.601-0.141V11.301z
	 M14.79,21.353l0.6,0.038v0.947l-0.6-0.028V21.353z M14.8,22.826l0.6,0.022v0.945l-0.6-0.012V22.826z M14.812,24.32l0.6,0.006v0.946
	l-0.6,0.005V24.32z M15.421,26.728l-0.6,0.021v-0.956l0.6-0.011V26.728z M17.039,15.865l0.551,0.096v0.907l-0.551-0.087V15.865z
	 M17.599,17.358v0.907l-0.552-0.071v-0.917L17.599,17.358z M17.029,18.707l0.551,0.065v0.907l-0.551-0.057V18.707z M17.589,20.17
	v0.906l-0.552-0.04v-0.917L17.589,20.17z M15.929,15.678l0.574,0.101v0.927l-0.574-0.091V15.678z M16.512,17.206v0.926l-0.574-0.074
	v-0.937L16.512,17.206z M15.918,18.581l0.575,0.068v0.927l-0.575-0.058V18.581z M16.502,20.077v0.926l-0.575-0.042v-0.937
	L16.502,20.077z M15.909,21.442l0.575,0.037v0.927l-0.575-0.026V21.442z M15.918,22.886l0.575,0.021v0.926l-0.575-0.011V22.886z
	 M15.93,24.349l0.574,0.006v0.926l-0.574,0.005V24.349z M16.513,26.706l-0.574,0.021v-0.937l0.574-0.011V26.706z M17.02,21.508
	l0.552,0.035v0.907l-0.552-0.025V21.508z M17.028,22.92l0.552,0.021v0.907l-0.552-0.011V22.92z M17.04,24.353l0.551,0.005v0.907
	l-0.551,0.004V24.353z M17.6,26.66l-0.552,0.02v-0.916l0.552-0.011V26.66z"/>
<g>
</g>
<g>
</g>
<g>
</g>
<g>
</g>
<g>
</g>
<g>
</g>
<g>
</g>
<g>
</g>
<g>
</g>
<g>
</g>
<g>
</g>
<g>
</g>
<g>
</g>
<g>
</g>
<g>
</g>
</svg>
