<?xml version="1.0" standalone="no"?>
<!DOCTYPE svg PUBLIC "-//W3C//DTD SVG 1.1//EN" "http://www.w3.org/Graphics/SVG/1.1/DTD/svg11.dtd" >
<svg xmlns="http://www.w3.org/2000/svg" xmlns:xlink="http://www.w3.org/1999/xlink" version="1.1">
<metadata>
Created by FontForge 20170924 at Sat Dec  7 18:17:51 2019
 By www-data
</metadata>
<defs>
<font id="divers" horiz-adv-x="512" >
  <font-face 
    font-family="divers"
    font-weight="400"
    font-stretch="normal"
    units-per-em="512"
    panose-1="2 0 5 3 0 0 0 0 0 0"
    ascent="480"
    descent="-32"
    bbox="-0.000748442 -32.0153 802.804 480.03"
    underline-thickness="0"
    underline-position="0"
    unicode-range="U+0020-E615"
  />
<missing-glyph 
 />
    <glyph glyph-name=".notdef" 
 />
    <glyph glyph-name="space" unicode=" " horiz-adv-x="256" 
 />
    <glyph glyph-name="uniE600" unicode="&#xe600;" 
d="M510.69 51.061l-80.304 248.213c-3.55 10.974 -13.769 18.407 -25.303 18.407h-84.745c6.87 11.347 10.9 24.596 10.9 38.8c0 41.484 -33.754 75.238 -75.238 75.238s-75.238 -33.753 -75.238 -75.238c0 -14.204 4.03 -27.453 10.9 -38.8h-84.745
c-11.534 0 -21.752 -7.434 -25.302 -18.407l-80.305 -248.213c-5.557 -17.176 7.25 -34.78 25.303 -34.78h458.772c18.054 0 30.861 17.604 25.303 34.78zM216.221 356.482c0 21.937 17.842 39.779 39.779 39.779s39.779 -17.842 39.779 -39.779
c0 -18.995 -13.398 -34.871 -31.228 -38.8h-17.101c-17.831 3.929 -31.228 19.805 -31.228 38.8h-0.001zM220.831 102.667l-22.985 44.135h-10.953v-44.135h-26.629v108.803h26.629v-42.005h10.953l22.526 42.005h28.61l-29.379 -52.041v-0.31l31.052 -56.452h-29.825h0.001
zM360.884 102.667h-22.217v3.048c0 2.281 0.149 4.56 0.149 4.56h-0.297s-10.507 -9.43 -28.611 -9.43c-27.854 0 -53.417 20.841 -53.417 56.452c0 31.646 23.889 55.994 57.072 55.994c27.842 0 41.844 -14.448 41.844 -14.448l-12.787 -19.938
s-11.102 10.036 -26.48 10.036c-22.824 0 -32.105 -14.608 -32.105 -30.729c0 -20.706 14.299 -33.022 31.2 -33.022c12.775 0 22.055 7.906 22.055 7.906v8.377h-15.365v22.675h38.957v-61.481z" />
    <glyph glyph-name="uniE601" unicode="&#xe601;" 
d="M446.947 116.5l-83.889 42.171l-22.105 76.269l0.128 0.069l-19.298 66.53l-0.394 1.005l-27.51 94.887c-3.565 9.098 -21.642 11.501 -30.69 11.501c-14.139 0 -22.873 -4.608 -23.779 -11.865c0 0 -12.514 -41.265 -28.239 -93.863
c-0.689 -2.314 -1.398 -4.667 -2.097 -7.021c-2.245 -6.843 -5.543 -18.136 -11.008 -36.765l-0.286 -0.975l-0.246 0.788l-5.179 -15.744c-8.429 -28.456 -15.213 -56.98 -25.059 -81.969v0.019l-1.142 -7.562l-74.063 -32.413
c-16.463 -6.488 -25.373 -15.941 -26.486 -28.101c-1.635 -17.802 15.192 -29.243 19.141 -31.656l141.263 -64.226c11.756 -6.685 24.28 -10.072 37.208 -10.072c19.288 0 33.93 7.68 37.317 9.718l141.795 57.197c17.093 6.085 22.233 16.541 23.533 24.241
c3.18 19.043 -15.202 34.856 -18.914 37.839zM178.905 158.74l5.74 19.938c36.431 -24.793 75.077 -28.632 95.478 -28.632c29.844 0 55.601 7.916 67.24 20.657c0.473 0.512 0.916 1.024 1.329 1.555c2.56 -8.773 6.203 -21.356 10.673 -36.894l0.207 -0.709l4.096 -14.296
c-20.115 -17.999 -57.777 -28.672 -101.642 -28.672c-40.566 0 -78.336 9.62 -89.817 22.853c-2.53 2.934 -3.565 5.8 -3.19 8.763l4.569 16.689l5.75 18.925zM156.239 115.219c-2.285 -8.281 -4.155 -15.32 -5.484 -20.637c-1.989 -7.966 -0.099 -15.951 5.484 -23.089
c18.718 -23.995 72.921 -34.914 115.347 -34.914c51.091 0 106.663 15.547 109.421 59.166l0.049 0.856l-5.839 20.165l52.874 -26.211c1.969 -1.792 3.702 -3.86 4.854 -5.474c-0.551 -0.226 -1.201 -0.493 -1.979 -0.768l-143.675 -57.954l-2.284 -1.221
c-0.089 -0.059 -9.039 -5.622 -21.593 -5.622c-7.601 0 -14.976 2.029 -22.361 6.272l-140.268 63.675c-0.256 0.187 -0.531 0.384 -0.808 0.601c1.142 0.591 2.609 1.28 4.499 2.029l51.761 23.128zM268.377 279.207c0.01 0 0.01 0 0 0
c21.267 0 37.514 7.985 45.726 13.037l15.291 -52.598c-15.035 -10.358 -33.546 -15.645 -55.267 -15.645h-0.069c-34.954 0 -64.335 13.4 -70.449 18.59l0.275 0.808c5.219 17.585 10.387 34.117 15.301 50.442c15.96 -9.669 32.482 -14.631 49.191 -14.631z" />
    <glyph glyph-name="uniE602" unicode="&#xe602;" 
d="M295.622 440.345c0 -21.901 -17.754 -39.655 -39.655 -39.655c-21.901 0 -39.655 17.754 -39.655 39.655c0 21.901 17.754 39.655 39.655 39.655c21.901 0 39.655 -17.754 39.655 -39.655zM295.622 7.699c0 -21.901 -17.754 -39.655 -39.655 -39.655
c-21.901 0 -39.655 17.754 -39.655 39.655s17.754 39.655 39.655 39.655c21.901 0 39.655 -17.754 39.655 -39.655zM511.978 224.011c0 -21.913 -17.764 -39.677 -39.677 -39.677s-39.677 17.764 -39.677 39.677c0 21.913 17.764 39.677 39.677 39.677
s39.677 -17.764 39.677 -39.677zM79.354 224.011c0 -21.913 -17.764 -39.677 -39.677 -39.677c-21.913 0 -39.677 17.764 -39.677 39.677c0 21.913 17.764 39.677 39.677 39.677c21.913 0 39.677 -17.764 39.677 -39.677zM372.801 107.199l-9.535 32.712l-7.887 -7.799
l-38.337 38.337c11.248 13.16 18.3 29.791 19.202 48.223h55.055v-11.072l29.923 16.411l-29.923 16.411v-11.072h-55.341c-1.494 18.015 -8.766 34.294 -20.19 46.993l39.611 39.611l7.887 -7.865l9.535 32.779l-32.757 -9.556l7.821 -7.843l-39.743 -39.743
c-12.808 10.963 -28.956 17.861 -46.839 19.07v56.527h11.094l-16.433 29.945l-16.389 -29.945h11.117v-56.505c-17.883 -1.187 -34.075 -8.107 -46.883 -19.07l-39.743 39.721l7.865 7.843l-32.757 9.556l9.556 -32.779l7.865 7.865l39.567 -39.567
c-11.424 -12.699 -18.718 -28.978 -20.212 -47.015h-55.254v11.072l-29.922 -16.411l29.922 -16.411v11.072h54.946c0.923 -18.433 7.975 -35.086 19.224 -48.223l-38.337 -38.337l-7.865 7.799l-9.491 -32.757l32.757 9.535l-7.865 7.865l38.205 38.227
c13.05 -11.71 29.813 -19.091 48.399 -20.322v-53.781h-11.117l16.389 -29.901l16.455 29.901h-11.094v53.781c18.586 1.252 35.327 8.656 48.355 20.344l38.249 -38.249l-7.865 -7.843l32.779 -9.535zM448.574 376.985c0 -21.901 -17.754 -39.655 -39.655 -39.655
s-39.655 17.754 -39.655 39.655c0 21.901 17.754 39.655 39.655 39.655c21.901 0 39.655 -17.754 39.655 -39.655zM142.67 71.059c0 -21.901 -17.754 -39.655 -39.655 -39.655s-39.655 17.754 -39.655 39.655s17.754 39.655 39.655 39.655s39.655 -17.754 39.655 -39.655z
M448.574 71.059c0 -21.901 -17.754 -39.655 -39.655 -39.655s-39.655 17.754 -39.655 39.655s17.754 39.655 39.655 39.655c21.901 0 39.655 -17.754 39.655 -39.655zM142.67 376.985c0 -21.913 -17.764 -39.677 -39.677 -39.677s-39.677 17.764 -39.677 39.677
s17.764 39.677 39.677 39.677s39.677 -17.764 39.677 -39.677z" />
    <glyph glyph-name="uniE603" unicode="&#xe603;" horiz-adv-x="539" 
d="M386.455 432.394l-263.212 -422.562c-0.599 -1.246 -1.438 -2.324 -2.18 -3.498v0c-12.147 -19.43 -39.364 -24.39 -60.76 -11.021v0c-21.443 13.393 -28.942 39.988 -16.795 59.442v0c0.742 1.15 1.677 2.108 2.539 3.211v0l-18.184 11.284
c-0.791 -1.03 -1.581 -2.108 -2.348 -3.283v0c-17.777 -28.487 -6.756 -67.396 24.558 -86.995v0c31.362 -19.55 71.181 -12.315 88.959 16.172v0c0.431 0.671 0.791 1.389 1.15 2.084v0l0.048 -0.048l264.649 423.999l28.103 52.949l-9.009 5.87l-37.519 -47.606z
M0 368.352c24.414 11.045 53.668 10.111 78.129 -5.151v0c30.62 -19.119 44.395 -54.865 37.088 -88.24v0c26.738 21.227 64.929 24.558 95.548 5.486v0c30.595 -19.143 44.395 -54.913 37.065 -88.264v0c26.738 21.252 64.977 24.582 95.548 5.486v0
c30.62 -19.119 44.395 -54.889 37.089 -88.264v0c26.738 21.228 64.928 24.582 95.524 5.486v0c25.445 -15.861 39.172 -43.221 38.933 -71.134c58.124 137.236 9.535 300.18 -120.872 381.616v0c-50.793 31.673 -107.216 46.791 -162.944 46.791
c-86.563 0 -171.474 -36.465 -231.107 -103.813z" />
    <glyph glyph-name="uniE604" unicode="&#xe604;" 
d="M316.672 262.774c8.251 0 16.856 -1.674 25.541 -5.159c26.742 -10.733 24.97 -43.107 30.07 -56.301c10.536 4.647 26.053 22.39 45.509 22.39c4.431 0 9.039 -0.925 13.863 -3.111c32.63 -14.887 46.75 -46.454 33.043 -79.517
c-15.123 -36.549 -53.642 -48.147 -90.92 -59.431c-17.625 -5.337 -35.8 -10.831 -51.358 -18.846c-1.418 -0.748 -2.974 -1.142 -4.569 -1.142c-1.28 0 -2.579 0.256 -3.781 0.748l-0.512 0.236c-2.717 1.142 -4.765 3.407 -5.671 6.163
c-5.337 16.699 -14.317 33.438 -22.961 49.644c-18.392 34.304 -37.376 69.829 -22.291 106.26c10.122 24.477 30.582 38.065 54.036 38.065zM316.672 291.722c-35.544 0 -66.501 -21.445 -80.817 -55.926c-20.362 -49.132 3.958 -94.543 23.493 -131.013
c8.212 -15.36 16.443 -30.779 20.913 -44.781c3.584 -10.988 11.618 -19.692 22.075 -24.084c5.514 -2.245 10.437 -3.21 15.478 -3.21c6.301 0 12.584 1.555 18.137 4.51c12.899 6.656 29.814 11.776 46.159 16.719c39.759 11.993 89.009 26.88 109.332 76.072
c19.535 47.084 -0.118 95.173 -47.774 116.933c-8.33 3.781 -17.034 5.711 -25.875 5.711c-10.378 0 -19.594 -2.579 -27.589 -6.163c-6.046 14.572 -16.778 29.834 -37.219 38.026c-11.993 4.766 -24.202 7.208 -36.313 7.208v0v-0.002zM284.889 118.469
c-18.392 34.304 -37.376 69.829 -22.291 106.26c13.726 33.103 46.296 46.277 79.616 32.906c26.742 -10.732 24.97 -43.106 30.07 -56.3c9.413 4.155 22.803 18.57 39.385 21.681c8.212 17.861 13.154 37.278 13.154 58.899c0 69.534 -48.699 118.193 -118.41 118.193
c-40.448 0 -75.048 -28.849 -94.05 -48.758c-19.003 19.889 -53.524 48.719 -93.952 48.719c-69.711 0 -118.41 -48.64 -118.41 -118.193c0 -76.682 60.435 -126.208 118.942 -174.139c27.628 -22.666 56.202 -46.041 78.12 -72.034
c3.702 -4.332 9.098 -6.873 14.769 -6.873h1.142c5.672 0 11.087 2.541 14.75 6.873c19.101 22.587 43.205 43.205 67.368 63.134c-3.308 6.597 -6.755 13.154 -10.2 19.633z" />
    <glyph glyph-name="uniE605" unicode="&#xe605;" 
d="M2.66 311.262l32.05 -25.041l-30.165 -57.787c-15.082 -26.646 10.828 -52.604 27.337 -61.64c16.252 -8.894 41.477 -9.952 65.043 -9.632l42.419 69.344l32.05 -17.337l-55.616 103.053l-113.118 -0.962zM7.373 169.805l68.814 -127.132
c13.826 -17.657 39.906 -21.831 66.928 -21.188h72.584v120.39l-137.626 0.963c-21.367 -1.284 -49.333 3.21 -70.699 26.967h-0.001zM440.31 404.093l-37.44 -15.891l-35.918 54.398c-15.993 26.109 -51.258 16.032 -67.164 5.974
c-15.658 -9.902 -28.813 -31.452 -39.957 -52.218l40.085 -70.719l-30.701 -19.627l117.096 -1.318l53.998 99.401h0.001zM314.305 468.55l-144.553 1.449c-22.146 -3.531 -38.44 -24.318 -50.979 -48.264l-35.189 -63.484l105.296 -58.366l67.565 119.904
c9.235 19.312 26.724 41.591 57.861 48.761zM320.592 -22l4.252 40.45l64.99 5.041c30.589 1.33 38.873 37.058 37.787 55.847c-1.069 18.496 -13.539 40.448 -26.3 60.263l-81.286 -0.774l-2.282 36.367l-57.923 -101.775l60.761 -95.419zM438.057 56.958l71.349 125.726
c7.648 21.082 -2.633 45.411 -17.498 67.987l-38.464 61.554l-102.096 -63.797l72.115 -117.225c12.411 -17.44 23.419 -43.538 14.594 -74.247v0.002z" />
    <glyph glyph-name="uniE606" unicode="&#xe606;" 
d="M421.376 370.826h-40.389v-49.802c0 -11.146 -10.003 -20.224 -22.312 -20.224h-15.222c-12.308 0 -22.312 9.059 -22.312 20.224v49.802h-99.427v-49.802c0 -11.146 -10.024 -20.224 -22.311 -20.224h-15.222c-12.308 0 -22.311 9.059 -22.311 20.224v49.802h-40.409
c-6.715 0 -12.17 -5.455 -12.17 -12.17v-279.651c0 -6.695 5.455 -12.19 12.17 -12.19h299.914c6.735 0 12.19 5.494 12.19 12.19v279.651c0.019 6.715 -5.455 12.17 -12.19 12.17h0.001zM417.123 83.928c0 -2.067 -1.733 -3.8 -3.84 -3.8h-283.688
c-2.107 0 -3.84 1.733 -3.84 3.8v172.387c0 2.107 1.713 3.84 3.84 3.84h283.668c2.107 0 3.84 -1.733 3.84 -3.84v-172.387h0.02zM184.182 320.749h15.222c5.593 0 10.142 3.603 10.142 8.034v65.083c0 4.451 -4.549 8.035 -10.142 8.035h-15.222
c-5.613 0 -10.161 -3.584 -10.161 -8.035v-65.103c0 -4.411 4.549 -8.015 10.161 -8.015v0.001zM343.454 320.749h15.222c5.613 0 10.161 3.603 10.161 8.034v65.083c0 4.451 -4.529 8.035 -10.161 8.035h-15.222c-5.613 0 -10.161 -3.584 -10.161 -8.035v-65.103
c0.019 -4.411 4.549 -8.015 10.161 -8.015v0.001zM341.11 236.367c-2.659 2.639 -6.932 2.639 -9.57 0l-79.36 -79.4l-40.881 41.197c-2.639 2.619 -6.893 2.619 -9.531 0l-14.336 -14.317c-2.619 -2.619 -2.619 -6.932 0 -9.531l59.923 -60.337
c2.619 -2.619 6.912 -2.619 9.551 0l98.521 98.541c2.659 2.619 2.659 6.932 0 9.57z" />
    <glyph glyph-name="uniE607" unicode="&#xe607;" 
d="M351.776 205.36v194.928c0 41.696 -34.16 75.616 -75.856 75.616c-41.68 0 -75.84 -33.92 -75.84 -75.616v-194.88c-34.096 -24.272 -55.44 -63.472 -55.44 -104.608c0 -71.168 57.472 -129.072 128.08 -129.072c72.016 0 130.8 57.904 130.8 129.072
c-0.016 42.816 -19.36 81.168 -51.744 104.56zM272.752 7.792c-50.704 0 -91.968 41.728 -91.968 93.008c0 19.216 6.512 37.872 17.984 53.408h68.24c4.976 0 9.024 4.384 9.024 9.376c0 4.976 -4.032 9.376 -9.024 9.376h-49.984c3.296 2.576 6.56 4.96 10.224 7.136
l8.64 5.232v25.136h31.12c4.976 0 9.024 3.536 9.024 8.528c0 4.976 -4.032 8.528 -9.024 8.528h-31.12v17.04h31.12c4.976 0 9.024 3.536 9.024 8.528c0 4.976 -4.032 8.528 -9.024 8.528h-31.12v20.448h31.12c4.976 0 9.024 3.536 9.024 8.528s-4.032 8.528 -9.024 8.528
h-31.12v17.04h31.12c4.976 0 9.024 3.536 9.024 8.528c0 4.976 -4.032 8.528 -9.024 8.528h-31.12v20.432h31.12c4.976 0 9.024 3.536 9.024 8.528s-4.032 8.528 -9.024 8.528h-31.12v29.6c0 21.808 18.256 39.552 40.048 39.552c21.808 0 40.064 -17.744 40.064 -39.552
v-214.96l8.544 -5.232c27.36 -16.208 42.912 -45.104 42.912 -79.296c-0.016 -51.296 -42.576 -93.024 -94.704 -93.024zM215.312 113.312c-1.952 -6.816 -3.28 -12.576 -3.28 -19.248c0 -34.24 27.76 -62.112 61.984 -62.112c34.24 0 61.984 27.952 61.984 62.176
c0 6.672 -1.328 12.352 -3.28 19.184z" />
    <glyph glyph-name="uniE608" unicode="&#xe608;" 
d="M423.731 399.652h-335.462c-10.942 0 -19.809 -8.868 -19.809 -19.81v-311.68c0 -10.952 8.868 -19.81 19.809 -19.81h335.462c10.942 0 19.81 8.858 19.81 19.81v311.675c0 10.942 -8.873 19.815 -19.81 19.815zM139.12 72.12h-54.809v46.562h54.809v-46.562z
M139.12 130.56h-54.809v59.428h54.809v-59.428zM139.12 201.882h-54.809v55.47h54.809v-55.47zM139.12 269.24h-54.809v48.533h54.809v-48.533zM216.381 72.12h-65.377v46.562h65.377zM216.381 130.56h-65.377v59.428h65.377zM216.381 201.882h-65.377v55.47h65.377z
M216.381 269.24h-65.377v48.533h65.377zM287.698 72.12h-59.433v46.562h59.433v-46.562zM287.698 130.56h-59.433v59.428h59.433v-59.428zM287.698 201.882h-59.433v55.47h59.433v-55.47zM287.698 269.24h-59.433v48.533h59.433v-48.533zM355.051 72.12h-55.47v46.562h55.47
zM355.051 130.56h-55.47v59.428h55.47zM355.051 201.882h-55.47v55.47h55.47zM355.051 269.24h-55.47v48.533h55.47zM427.689 72.12h-60.749v46.562h60.749v-46.562zM427.689 130.56h-60.749v59.428h60.749v-59.428zM427.689 201.882h-60.749v55.47h60.749v-55.47z
M427.689 269.24h-60.749v48.533h60.749v-48.533zM165.622 215.89l13.123 13.123l-13.123 13.123l4.572 4.572l13.123 -13.123l13.127 13.123l4.572 -4.572l-13.127 -13.123l13.127 -13.123l-4.572 -4.572l-13.127 13.123l-13.123 -13.123z" />
    <glyph glyph-name="uniE609" unicode="&#xe609;" 
d="M400 416h-288c-26.51 0 -48 -21.49 -48 -48v-16h384v16c0 26.51 -21.49 48 -48 48zM316.16 448l7.058 -50.5h-134.436l7.057 50.5h120.321zM320 480h-128c-13.2 0 -25.495 -10.696 -27.321 -23.769l-9.357 -66.962c-1.827 -13.073 7.478 -23.769 20.678 -23.769h160
c13.2 0 22.505 10.696 20.679 23.769l-9.356 66.962c-1.828 13.073 -14.123 23.769 -27.323 23.769v0zM408 320h-304c-17.6 0 -30.696 -14.341 -29.103 -31.869l26.206 -288.263c1.593 -17.527 17.297 -31.868 34.897 -31.868h240c17.6 0 33.304 14.341 34.897 31.868
l26.204 288.263c1.595 17.528 -11.501 31.869 -29.101 31.869zM192 32h-48l-16 224h64v-224zM288 32h-64v224h64v-224zM368 32h-48v224h64z" />
    <glyph glyph-name="uniE60A" unicode="&#xe60a;" 
d="M316.498 287.222c0 2.509 -0.932 4.413 -2.775 5.714c-1.065 0.768 -2.857 1.485 -5.356 2.171v-15.821c3.43 0.154 5.796 1.413 7.096 3.758c0.697 1.188 1.034 2.601 1.034 4.178zM305.521 315.453c-2.663 -0.102 -4.526 -0.901 -5.663 -2.406
s-1.69 -3.082 -1.69 -4.721c0 -1.986 0.656 -3.533 1.976 -4.669c1.341 -1.116 3.123 -1.905 5.356 -2.345l0.021 14.142v-0.001zM306.913 261.898c19.098 0 34.601 15.483 34.601 34.58s-15.503 34.59 -34.601 34.59s-34.581 -15.493 -34.581 -34.59
c0 -19.108 15.473 -34.58 34.581 -34.58zM295.895 299.95c-2.079 1.925 -3.134 4.598 -3.134 8.007c0 3.052 1.106 5.796 3.349 8.243s5.356 3.696 9.411 3.728v4.004h2.846v-3.942c4.004 -0.276 7.055 -1.454 9.195 -3.522c2.12 -2.079 3.236 -4.803 3.338 -8.213h-5.264
c-0.144 1.526 -0.563 2.837 -1.239 3.942c-1.26 2.027 -3.277 3.093 -6.062 3.185v-14.654c4.659 -1.3 7.824 -2.529 9.502 -3.666c2.704 -1.884 4.055 -4.68 4.055 -8.366c0 -5.335 -1.741 -9.124 -5.212 -11.377c-1.925 -1.25 -4.7 -2.068 -8.325 -2.468v-5.837h-2.846
v5.837c-5.827 0.379 -9.8 2.447 -11.889 6.195c-1.137 2.017 -1.71 4.762 -1.71 8.213h5.335c0.174 -2.745 0.604 -4.752 1.3 -6.021c1.239 -2.263 3.584 -3.533 6.983 -3.82v16.394c-4.373 0.829 -7.577 2.212 -9.636 4.137zM247.675 344.72
c0 1.874 -0.696 3.308 -2.078 4.29c-0.798 0.574 -2.14 1.106 -4.024 1.628v-11.868c2.56 0.113 4.362 1.055 5.335 2.816c0.502 0.891 0.768 1.935 0.768 3.134h-0.001zM239.431 365.875c-1.997 -0.082 -3.399 -0.676 -4.25 -1.813
c-0.839 -1.126 -1.27 -2.314 -1.27 -3.543c0 -1.495 0.502 -2.652 1.495 -3.502c0.994 -0.839 2.334 -1.433 4.024 -1.762v10.619zM240.466 325.714c14.315 0 25.938 11.623 25.938 25.948c0 14.326 -11.623 25.938 -25.938 25.938s-25.938 -11.612 -25.938 -25.938
c0 -14.336 11.623 -25.948 25.938 -25.948zM232.202 354.263c-1.566 1.444 -2.345 3.44 -2.345 6c0 2.284 0.839 4.352 2.519 6.185c1.679 1.833 4.035 2.775 7.045 2.796v3h2.14v-2.959c2.99 -0.215 5.294 -1.086 6.912 -2.642c1.587 -1.557 2.427 -3.605 2.499 -6.154
h-3.952c-0.113 1.136 -0.41 2.13 -0.922 2.959c-0.973 1.516 -2.468 2.314 -4.536 2.386v-10.988c3.492 -0.973 5.847 -1.894 7.107 -2.755c2.018 -1.413 3.042 -3.502 3.042 -6.277c0 -4.004 -1.3 -6.841 -3.901 -8.53c-1.444 -0.932 -3.523 -1.546 -6.246 -1.854v-4.382
h-2.14v4.382c-4.382 0.287 -7.363 1.833 -8.909 4.649c-0.86 1.516 -1.3 3.574 -1.3 6.165h4.024c0.113 -2.058 0.44 -3.564 0.963 -4.516c0.942 -1.7 2.693 -2.652 5.243 -2.867v12.298c-3.277 0.625 -5.694 1.659 -7.239 3.103zM222.72 229.304
c-5.734 0.994 -9.84 3.441 -12.135 7.536c-1.495 2.611 -2.222 6.154 -2.222 10.619h6.881c0.215 -3.554 0.798 -6.144 1.7 -7.782c1.607 -2.939 4.608 -4.577 9.001 -4.946v21.207c-5.622 1.065 -9.779 2.837 -12.462 5.325c-2.693 2.498 -4.035 5.95 -4.035 10.353
c0 3.942 1.454 7.486 4.332 10.66c2.898 3.154 6.942 4.762 12.165 4.823v5.171h3.696v-5.1c5.161 -0.369 9.124 -1.884 11.868 -4.557c2.775 -2.683 4.219 -6.215 4.352 -10.608h-6.799c-0.195 1.966 -0.717 3.666 -1.597 5.099c-1.638 2.611 -4.239 3.993 -7.823 4.117
v-18.944c6.021 -1.69 10.087 -3.277 12.247 -4.741c3.512 -2.437 5.253 -6.042 5.253 -10.814c0 -6.902 -2.243 -11.797 -6.718 -14.704c-1.853 -1.188 -4.495 -1.976 -7.577 -2.57c8.96 -0.307 17.879 -1.751 26.48 -4.342c8.12 8.11 13.159 19.303 13.159 31.683
c0 24.699 -20.04 44.718 -44.718 44.718c-24.689 0 -44.718 -20.019 -44.718 -44.718c0 -12.759 5.356 -24.238 13.936 -32.379c8.335 2.714 16.999 4.342 25.733 4.894zM219.054 266.035c1.7 -1.454 4.024 -2.468 6.922 -3.041v18.288
c-3.42 -0.133 -5.868 -1.167 -7.322 -3.113c-1.464 -1.946 -2.181 -3.983 -2.181 -6.113c0 -2.56 0.86 -4.557 2.581 -6.021zM236.585 252.19c-1.382 0.983 -3.676 1.915 -6.933 2.796v-20.459c4.434 0.215 7.486 1.833 9.175 4.864c0.891 1.556 1.331 3.369 1.331 5.406
c0 3.256 -1.188 5.703 -3.574 7.393h0.001zM381.092 139.315c5.458 5.704 5.959 16.261 5.069 30.382c-6.421 0.44 -15.892 -0.635 -19.241 0c-8.13 16.179 -19.815 28.795 -36.454 36.464c0.563 10.558 1.976 20.265 8.079 25.314
c-14.838 1.024 -27.423 -9.021 -35.42 -18.227c-7.199 7.465 -17.838 13.415 -30.382 17.602l-7.793 -13.865c-23.194 7.998 -48.64 7.905 -71.69 -0.236l-10.168 13.66c-0.02 0.041 -0.061 0.082 -0.092 0.113c-15.903 -5.263 -30.515 -13.506 -41.902 -25.374
c-7.404 0.563 -6.564 15.575 3.042 13.159c-15.626 10.649 -24.249 -18.544 -9.124 -22.272c-12.606 -18.012 -13.814 -56.678 3.042 -70.871c2.458 -21.32 6.226 -41.339 16.599 -54.764h34.018c-0.891 6.922 -1.792 14.295 -1.014 22.364
c20.674 -4.69 45.22 -6.062 69.847 -4.055c3.799 -6.298 7.475 -12.718 12.022 -18.299h33.7c-1.219 8.919 -2.58 18.258 -0.144 27.423c8.11 1.526 49.817 12.124 78.009 41.482h-0.003zM334.602 184.525c4.628 0 8.366 -3.748 8.366 -8.356
c0 -4.639 -3.738 -8.377 -8.366 -8.377c-4.608 0 -8.366 3.758 -8.366 8.377c-0.01 4.598 3.758 8.356 8.366 8.356z" />
    <glyph glyph-name="uniE60B" unicode="&#xe60b;" horiz-adv-x="803" 
d="M52.205 459.641c-26.619 -14.018 -41.127 -40.964 -39.902 -70.305c5.226 -127.653 -0.707 -255.66 -12.112 -382.85c-2.368 -26.429 18.509 -43.794 44.066 -36.962c27.327 7.349 50.326 34.757 52.831 62.928c12.139 135.601 16.766 271.337 11.159 407.373
c-1.198 29.014 -37.398 29.613 -56.042 19.815v0.001zM501.521 102.866c-47.523 21.448 -81.519 28.307 -81.519 28.307c-24.007 3.484 -47.986 3.702 -71.692 1.442c27.354 38.759 47.877 81.627 56.858 129.341c19.842 105.279 -65.704 176.836 -152.448 214.125
c-47.578 20.441 -110.288 -76.184 -55.444 -99.755c57.213 -24.605 119.216 -66.93 111.894 -134.458c-2.504 -23.163 -17.529 -49.537 -33.151 -70.522c-26.456 -35.493 -59.608 -64.589 -94.392 -91.589c-17.855 -13.854 -31.982 -39.167 -27.871 -62.303
c5.117 -28.906 34.35 -29.64 56.042 -19.842c57.103 25.911 118.616 40.228 181.3 29.64c59.716 -9.935 54.954 -24.17 54.954 -24.17s110.805 78.034 55.471 99.781zM762.842 304.606c-25.285 23.707 -58.764 32.88 -93.603 34.213
c14.752 28.633 20.794 59.662 9.418 91.099c-24.36 67.202 -126.864 51.089 -178.877 40.12c-51.306 -10.805 -79.069 -114.697 -8.764 -99.89c23.136 4.817 45.699 7.458 69.325 5.879c7.376 -0.517 14.589 -3.293 21.366 -5.988c0.762 -0.409 4.518 -3.702 5.335 -5.008
c0.136 -0.272 0.217 -0.463 0.327 -0.653c-0.082 -0.762 -0.163 -1.388 -0.217 -1.959c0 0 -0.027 0 -0.027 -0.055c0.054 0.572 0.136 1.198 0.217 1.851c-0.245 -0.898 -0.462 -1.688 -0.599 -2.368c-0.572 -0.735 -1.361 -2.014 -2.64 -4.409
c-7.077 -12.928 -28.415 -32.199 -44.937 -45.591c-17.638 -14.235 -32.036 -38.786 -27.844 -62.275c3.783 -21.366 23.979 -29.858 43.603 -24.714c27.926 7.294 55.116 11.867 84.049 10.043c14.97 -0.844 34.431 -7.975 43.875 -14.916
c2.749 -2.014 5.253 -4.382 7.73 -6.723c1.225 -1.143 2.042 -1.906 2.64 -2.423c0.027 -0.19 0.327 -0.707 1.034 -1.688c2.532 -3.484 4.545 -7.349 6.478 -11.214c0.789 -1.497 1.333 -2.531 1.715 -3.239c0.082 -0.3 0.163 -0.653 0.327 -1.225
c1.742 -5.852 2.722 -11.921 3.321 -18.046c-0.354 2.504 -0.109 -7.43 -0.245 -9.635c-0.245 -3.756 -0.789 -7.539 -1.415 -11.269c1.116 7.975 -3.865 -12.847 -5.443 -17.038c-0.082 -0.272 -0.136 -0.381 -0.191 -0.517c-0.381 -0.789 -0.844 -1.714 -1.497 -2.967
c-2.068 -4.055 -4.437 -8.084 -6.859 -12.031c-0.027 -0.027 -0.027 -0.027 -0.082 -0.082c-2.803 -3.81 -5.933 -7.349 -9.091 -10.86c-0.707 -0.572 -1.524 -1.225 -2.694 -2.259c-1.143 -1.034 -4.382 -3.32 -6.587 -4.981c-5.553 -2.83 -13.99 -6.668 -13.963 -6.995
c-3.457 -1.062 -6.995 -1.933 -10.561 -2.776c-0.49 -0.109 -0.871 -0.109 -1.279 -0.217c-1.823 -0.163 -3.62 -0.354 -5.443 -0.409c-20.876 -1.116 -36.39 4.082 -59.499 16.331c-45.291 23.788 -108.573 -71.829 -55.471 -99.836
c114.861 -60.37 242.922 32.444 271.011 147.958c12.738 52.177 6.968 108.382 -33.941 146.76zM587.639 362.554c0 0.055 0 0.055 -0.027 0.109c-0.082 0.327 -0.163 0.871 -0.163 1.606c0.844 -1.715 0.462 -2.558 0.191 -1.715h-0.001z" />
    <glyph glyph-name="uniE60C" unicode="&#xe60c;" 
d="M144 205.562l-144 82.438v32h177.25c11.5 -8.188 20.844 -19.188 27.188 -32h-140.438l80 -45.563l64 36.438v-36.75zM208 160h-176v91.281l-32 18.281v-141.562h208v32zM384 384h-32v-128h-32v160h96v64h-128v-96h-160c-32.469 0 -62.531 -12.031 -86.063 -32h86.063
c43.313 0 82.188 -28.125 96 -68.875v-187.125h-224v-32h224v-96h96v96h192v224c-16.594 56.875 -68.75 96 -128 96z" />
    <glyph glyph-name="uniE60D" unicode="&#xe60d;" 
d="M77.148 191.949v25.313h25.477v0.169h44.749v-50.791h31.518v133.105h-25.477v25.641h-25.482v25.149h-31.36v-25.482h-25.477v-25.477h-25.308v-132.941h31.36v25.313v0.001zM77.148 268.216v25.318h25.314v25.482h19.43v-25.149h25.488v-44.918h-25.487v-0.164h-44.743
v19.43zM220.805 166.635h76.278v25.313h25.472v57.006h-25.472v19.267h25.472v56.837h-25.472v25.482h-107.638v-183.9h31.36v-0.005zM220.805 293.534v25.482h70.221v-44.754h-70.221v19.271v0.001zM220.805 217.262v25.477h70.221v-44.744h-70.221v19.267z
M358.416 191.949h-25.308v133.104h25.313v25.482h82.32v-25.482h25.477v-31.518h-31.524v25.482h-70.231v-95.545h0.169v-25.482h70.062v25.482h31.524v-31.524h-25.477v-25.313h-82.32v25.313zM71.951 154.091v-28.313h-28.319v28.313h28.319zM71.951 125.778h28.314
v-28.318h-28.314v28.318zM128.578 154.091v-28.313h-28.314v28.313h28.314zM128.578 125.778h28.319v-28.318h-28.319v28.318zM185.211 154.091v-28.313h-28.319v28.313h28.319zM185.211 125.778h28.314v-28.318h-28.314v28.318zM241.838 154.091v-28.313h-28.314v28.313
h28.314zM241.838 125.778h28.319v-28.318h-28.319v28.318zM298.476 154.091v-28.313h-28.318v28.313h28.318zM298.476 125.778h28.313v-28.318h-28.313v28.318zM355.103 154.091v-28.313h-28.313v28.313h28.313zM355.103 125.778h28.319v-28.318h-28.318v28.318h-0.001z
M411.735 154.091v-28.313h-28.313v28.313h28.313zM468.368 154.091v-28.313h-28.313v28.313h28.313zM411.735 125.778h28.313v-28.318h-28.313v28.318z" />
    <glyph glyph-name="uniE60E" unicode="&#xe60e;" 
d="M434.192 374.574v2.253c0 11.202 -9.078 20.275 -20.281 20.275h-49.29c0.118 0.046 0.2 0.092 0.327 0.133c11.331 3.727 3.942 3.911 3.942 3.911l-36.07 36.342l-19.231 -2.186s-0.942 -10.087 -7.271 -15.273c-0.962 -0.793 -1.628 -1.607 -2.181 -2.432
c0.302 0.855 -2.329 0.927 -2.329 0.927l-36.06 36.337l-19.241 -2.192s-0.942 -10.087 -7.26 -15.273s-2.698 -11.515 -2.698 -11.515l-7.143 -7.086l4.418 -4.459s-9.349 -9.191 -10.982 -17.229h-14.183c4.208 10.255 3.641 29.619 3.641 29.619
s-17.7 -8.878 -12.359 1.792c5.33 10.67 0 5.55 0 5.55h-51.2l-12.001 -15.196s6.502 -7.772 5.73 -15.913c-0.24 -2.53 0.313 -4.393 1.131 -5.852h-27.07c-11.192 0 -20.27 -9.072 -20.27 -20.275v-2.253c0 -11.203 9.078 -32.108 20.27 -32.108h12.907l17.239 -332.068
c0.379 -7.188 6.308 -12.82 13.501 -12.82h211.758c7.219 0 13.159 5.668 13.502 12.882l15.683 332.012h12.779c11.207 -0.005 20.291 20.9 20.291 32.098zM297.872 414.613c4.06 1.337 5.699 2.212 6.149 2.791c-2.841 -4.48 -0.399 -8.889 -0.399 -8.889l-2.361 -2.345
c-4.782 2.115 -11.151 5.883 -3.389 8.443zM299.207 398.674l1.562 -1.572h-3.318c0.61 0.538 1.198 1.065 1.756 1.572zM200.802 151.705c-8.018 -4.664 -11.489 2.509 -11.489 2.509c-0.86 3.993 -1.341 8.141 -1.341 12.416c0 30.582 23.112 55.501 51.789 56.269
l-20.239 13.333c-3.84 2.535 -5.018 7.875 -2.631 11.94c2.381 4.081 7.429 5.32 11.249 2.796l34.898 -22.983c1.838 -1.214 3.149 -3.149 3.64 -5.391c0.491 -2.238 0.128 -4.598 -1.019 -6.548l-21.678 -37.002c-1.541 -2.642 -4.208 -4.096 -6.938 -4.096
c-1.48 0 -2.959 0.42 -4.311 1.305c-3.84 2.529 -5.012 7.87 -2.631 11.945l10.189 17.392c-19.911 -0.455 -35.968 -17.741 -35.968 -38.958c0 -2.017 0.19 -3.963 0.471 -5.888c0 0 1.838 -5.98 -3.988 -9.037zM306.002 108.298
c-2.898 -2.882 -6.118 -5.529 -9.707 -7.844c-25.707 -16.558 -59.192 -10.629 -75.362 13.066l-0.24 -24.238c-0.061 -4.587 -3.901 -8.484 -8.622 -8.678c-4.71 -0.2 -8.489 3.369 -8.438 7.957l0.42 41.779c0.03 2.207 0.952 4.357 2.56 5.99
c1.618 1.608 3.799 2.596 6.062 2.693l42.85 1.802c3.051 0.133 5.729 -1.321 7.199 -3.615c0.798 -1.244 1.25 -2.719 1.229 -4.327c-0.051 -4.598 -3.901 -8.478 -8.612 -8.678l-20.153 -0.86c11.172 -16.491 34.401 -20.628 52.25 -9.139
c1.68 1.091 3.221 2.309 4.69 3.584c0 0 4.029 4.787 9.759 1.546c8.264 -4.224 4.116 -11.038 4.116 -11.038zM357.499 155.976l-34.887 -22.974c-1.849 -1.209 -4.142 -1.649 -6.4 -1.214c-2.248 0.435 -4.27 1.695 -5.611 3.522l-25.421 34.534
c-1.817 2.457 -2.11 5.488 -1.029 8.002c0.589 1.357 1.572 2.555 2.908 3.44c3.84 2.524 9.211 1.495 12.012 -2.304l11.95 -16.24c7.45 18.473 -2.079 40.059 -21.581 48.45c-1.838 0.793 -3.712 1.387 -5.591 1.894c0 0 -6.221 0.671 -6.728 7.229
c-1.111 9.211 6.861 9.57 6.861 9.57c4.009 -0.798 8.002 -1.992 11.92 -3.676c28.099 -12.089 41.861 -43.172 31.242 -69.817l20.24 13.332c3.84 2.524 9.221 1.495 12.012 -2.304c2.796 -3.804 1.945 -8.935 -1.894 -11.449zM368.45 326.856h-209.081l-2.862 15.616
h217.559zM497.05 40.622c0 0 -15.232 -16.031 -25.641 -19c-10.409 -2.974 -2.279 -9.718 -2.279 -9.718l-8.228 1.93l-4.982 -3.692l-4.373 5.888s-18.181 0.752 -32.261 7.572s6.282 26.777 6.282 26.777l-4.418 4.459l7.142 7.086s-3.62 6.323 2.698 11.515
s7.26 15.273 7.26 15.273l19.241 2.192l36.06 -36.342s7.399 -0.185 -3.942 -3.911c-11.33 -3.722 7.44 -10.03 7.44 -10.03z" />
    <glyph glyph-name="uniE60F" unicode="&#xe60f;" horiz-adv-x="498" 
d="M247.672 480h-224.188c-12.97 0 -23.483 -10.513 -23.483 -23.483v-479.13h271.121v479.13c0 12.971 -10.479 23.483 -23.45 23.483zM237.363 300.869h-203.571v133.325h203.571v-133.325zM378.846 -32c-55.637 0 -89.395 38.298 -92.603 105.063
c-1.297 26.317 5.291 55.296 12.254 85.982c5.223 23.074 10.683 46.899 13.278 71.373c2.56 24.542 -1.297 32.904 -3.823 35.704c-4.711 5.222 -18.534 5.222 -31.914 5.222h-6.587v32.563h6.587c19.524 0 41.711 0 56.115 -16.009
c11.23 -12.458 15.053 -31.846 12.015 -60.894c-2.765 -26.351 -8.397 -51.2 -13.858 -75.196c-6.451 -28.433 -12.595 -55.33 -11.537 -77.142c2.355 -49.186 22.596 -74.103 60.109 -74.103c41.199 0 62.089 26.043 62.089 77.38c0 42.462 -13.209 75.503 -21.947 97.382
l-3.447 8.807c-9.113 23.825 -10.308 45.192 -11.264 77.585c-0.887 31.437 -0.546 65.058 8.158 98.27c8.772 33.416 26.795 49.698 56.627 76.663l7.202 6.554l21.913 -24.098l-7.305 -6.588c-27.887 -25.258 -40.618 -36.761 -46.933 -60.825
c-7.68 -29.184 -7.919 -60.041 -7.099 -89.019c0.887 -31.608 2.116 -48.538 9.113 -66.935l3.277 -8.294c9.113 -22.733 24.269 -60.723 24.269 -109.466c-0.034 -68.881 -35.43 -109.978 -94.686 -109.978zM420.762 256.188l-0.819 32.563s25.224 0.649 39.526 0.819
c0.307 5.769 0.307 14.78 0.307 24.235v4.847c0 38.946 -6.075 44.101 -13.073 50.108c-2.56 2.151 -5.12 4.403 -7.577 7.1l23.962 22.016c1.536 -1.673 3.175 -3.004 4.745 -4.335c13.892 -11.878 24.507 -24.883 24.507 -74.854v-4.847
c0 -18.261 0.034 -28.33 -1.604 -36.01c-2.799 -13.175 -11.844 -20.753 -24.883 -20.753c-10.547 0 -45.056 -0.887 -45.09 -0.887z" />
    <glyph glyph-name="uniE610" unicode="&#xe610;" 
d="M438.615 186.43c0 -70.599 -57.236 -127.831 -127.831 -127.831h-109.568c-70.6 0 -127.831 57.231 -127.831 127.831c0 70.6 57.231 127.831 127.831 127.831h109.568c70.594 0 127.831 -57.231 127.831 -127.831zM74.921 269.86
c22.513 49.382 72.094 81.29 126.305 81.29h42.424c-4.746 3.093 -7.895 8.428 -7.895 14.521v6.38c0 9.59 7.772 17.351 17.346 17.351c6.569 0 12.216 -3.692 15.166 -9.078c3.128 4.49 8.32 7.44 14.198 7.44c9.584 0 17.351 -7.772 17.351 -17.351v-6.39
c0 -5.13 -2.268 -9.703 -5.811 -12.872h16.784c54.216 0 103.793 -31.908 126.305 -81.29c2.509 -5.499 0.092 -12.001 -5.422 -14.51c-5.519 -2.53 -12.012 -0.082 -14.51 5.422c-18.969 41.59 -60.723 68.459 -106.373 68.459h-109.568
c-45.655 0 -87.403 -26.87 -106.368 -68.459c-1.838 -4.029 -5.817 -6.41 -9.974 -6.421c-1.52 0 -3.067 0.322 -4.541 0.999c-5.499 2.509 -7.921 9.011 -5.417 14.51v-0.001zM262.564 351.15h8.377c-1.464 1.311 -2.668 2.862 -3.625 4.598
c-1.275 -1.817 -2.887 -3.379 -4.752 -4.598z" />
    <glyph glyph-name="uniE611" unicode="&#xe611;" horiz-adv-x="499" 
d="M108.481 212.536v-15.068h17.276c-0.141 2.509 -0.371 4.999 -0.371 7.543s0.248 5.034 0.371 7.526h-17.276v-0.001zM257.396 329.106v17.277h-15.086v-17.277c2.526 0.177 4.999 0.389 7.543 0.389s5.07 -0.212 7.543 -0.389zM391.243 197.467v15.068h-17.259
c0.159 -2.509 0.371 -4.999 0.371 -7.526c0 -2.543 -0.212 -5.034 -0.371 -7.543h17.259v0.001zM257.396 80.879c-2.491 -0.142 -4.999 -0.389 -7.543 -0.389s-5.017 0.248 -7.543 0.389v-17.259h15.086v17.259zM255.152 316.017h-10.564l0.053 -118.461h80.799v14.874
h-70.288v103.587zM395.005 480c-43.279 0 -80.375 -26.409 -96.079 -63.983c69.406 -14.291 126.092 -63.664 150.664 -128.707c29.73 18.336 49.568 51.087 49.568 88.554c0 57.499 -46.635 104.135 -104.152 104.135zM200.232 416.017
c-15.739 37.574 -52.818 63.983 -96.097 63.983c-57.517 0 -104.135 -46.635 -104.135 -104.153c0 -37.467 19.837 -70.218 49.532 -88.554c24.59 65.042 81.277 114.433 150.7 128.725zM455.172 205.01c0 113.179 -92.105 205.267 -205.302 205.267
c-113.179 0 -205.267 -92.07 -205.267 -205.267c0 -67.462 32.715 -127.399 83.114 -164.849l-33.033 -72.161h30.596l25.243 57.464c29.465 -16.358 63.311 -25.72 99.347 -25.72c34.058 0 66.191 8.391 94.489 23.106l24.077 -54.832h30.596l-31.55 68.911
c52.959 37.149 87.689 98.623 87.689 168.082zM100.319 205.01c0 82.478 67.073 149.551 149.551 149.551c56.616 0 105.99 -31.638 131.392 -78.149c10.652 -20.685 16.764 -44.074 16.764 -68.911c0 -83.361 -67.851 -151.194 -151.23 -151.194
c-14.432 0 -28.352 2.155 -41.583 5.935c-60.714 19.043 -104.894 75.853 -104.894 142.768z" />
    <glyph glyph-name="uniE612" unicode="&#xe612;" horiz-adv-x="505" 
d="M377.847 371.917c19.708 0 35.542 15.798 35.542 35.435v37.142c0 19.673 -15.834 35.507 -35.542 35.507c-19.584 0 -35.471 -15.834 -35.471 -35.507v-37.142c0 -19.637 15.887 -35.435 35.471 -35.435zM504.074 418.512h-71.564v-17.984
c0 -29.873 -24.222 -54.113 -54.041 -54.113c-29.856 0 -54.041 24.239 -54.041 54.113v17.984h-144.212v-17.984c0 -29.873 -24.186 -54.113 -54.041 -54.113c-29.891 0 -54.041 24.239 -54.041 54.113v17.984l-72.132 0.924v-451.401l504.625 0.106l-0.551 450.37z
M468.567 3.933h-432.51v288.423h432.51v-288.423zM125.534 371.917c19.672 0 35.542 15.798 35.542 35.435v37.142c0 19.673 -15.869 35.507 -35.542 35.507c-19.566 0 -35.471 -15.834 -35.471 -35.507v-37.142c0 -19.637 15.905 -35.435 35.471 -35.435zM133.389 97.604
c7.428 -4.052 24.293 -10.876 41.264 -10.876c21.52 0 32.379 10.325 32.379 23.44c0 17.664 -17.522 25.608 -35.684 25.608h-16.9v29.748h16.278c13.95 0 31.419 5.455 31.419 20.454c0 10.663 -8.512 18.553 -26.177 18.553c-14.43 0 -29.678 -6.291 -36.822 -10.68
l-8.477 29.98c10.733 6.824 31.65 13.364 54.877 13.364c37.656 0 58.52 -19.868 58.52 -44.107c0 -18.855 -10.556 -33.853 -32.415 -41.175v-0.587c21.272 -3.803 38.492 -19.921 38.492 -43.325c0 -31.082 -27.563 -53.988 -72.541 -53.988
c-22.942 0 -42.242 5.971 -52.584 12.298l8.37 31.294zM330.363 197.388h-0.515l-33.818 -16.065l-6.806 31.099l47.147 21.769h34.085v-177.213h-40.091z" />
    <glyph glyph-name="uniE613" unicode="&#xe613;" 
d="M351.44 354.384c-24.608 0 -47.088 -13.984 -57.936 -36.096l-11.184 -22.8v25.936c0 17.488 5.376 34.368 15.44 48.672c5.872 8.368 9.344 18.528 9.344 29.504c0 28.512 -23.056 51.632 -51.6 51.632c-28.528 0 -51.856 -23.12 -51.856 -51.632
c0 -10.64 3.408 -20.544 8.944 -28.768c9.392 -13.952 14.448 -30.4 14.448 -47.216v-21.808l-7.584 15.856c-10.72 22.432 -33.376 36.72 -58.256 36.72h-141.888c-6.304 0 -12.128 -3.36 -15.28 -8.816c-3.136 -5.456 -3.136 -12.176 0.016 -17.632
c8.848 -15.344 21.424 -28.192 36.56 -37.376l103.392 -62.72c-2.816 4.864 -5.088 9.888 -6.656 14.8c-3.76 12.064 -4.336 22.112 -3.984 28.368c0.592 29.168 19.52 42.192 38.336 40.368c11.52 -1.136 21.168 -7.824 26.48 -17.168l10.976 -19.52
c0.128 0.08 19.408 -15.36 47.472 -23.008c30.656 9.744 47.6 23.088 47.68 23.008l10.88 19.344c9.248 16.496 30.176 22.368 46.72 13.088c10.064 -5.664 18.4 -18.704 18.256 -36.128c-0.272 -10.08 -0.256 -16.272 -3.984 -28.336
c-1.552 -4.768 -3.744 -9.648 -6.48 -14.432l102.864 62.336c15.136 9.168 27.696 22.016 36.576 37.376c3.136 5.456 3.136 12.176 0 17.632c-3.152 5.456 -8.992 8.816 -15.28 8.816zM256.768 135.312c2.384 0.688 17.616 4.864 22.576 6.176
c-4.576 2.224 -19.984 9.184 -22.576 10.32c-2.656 -1.136 -18.016 -8.096 -22.608 -10.32c4.976 -1.312 20.192 -5.488 22.608 -6.176zM272.224 54.176c-5.056 0.32 -25.92 0.32 -30.944 0c-2.608 -0.16 -5.056 -0.032 -8 -0.4c-2.048 -0.272 -3.584 -0.576 -6.272 -0.848
v-31.648c0 -15.216 12.416 -27.536 27.664 -27.536c15.216 0 27.632 12.336 27.632 27.536v32.128c0 0.128 -1.584 0.256 -2.448 0.368c-2.976 0.352 -5.024 0.224 -7.632 0.4zM171.904 69.712c-2.016 -4.176 -3.408 -8.48 -3.904 -12.704
c-1.84 -12.208 1.568 -21.68 4.896 -28.16c7.2 -12.944 14.016 -17.216 14.016 -17.216s-0.496 1.936 -0.88 5.504c-4.4 41.168 24.064 45.232 25.584 45.664c-23.104 3.84 -34.496 7.84 -38.416 9.424c-0.448 -0.816 -0.896 -1.648 -1.296 -2.512zM313.328 135.312v0.192
v-0.192zM359.712 171.536c-10.224 16.576 -32.16 29.952 -36.896 32.64c7.28 4.752 14.048 10.048 19.936 16.08c21.808 22.304 22.144 46.144 21.984 51.28c-0.336 5.104 -0.512 7.84 -0.512 7.84c-0.944 12.4 -11.808 21.664 -24.208 20.72
c-12.4 -0.976 -21.68 -11.824 -20.688 -24.224c-0.24 0.08 -0.048 -4.448 -2.896 -9.296c-1.584 -2.4 -3.824 -5.568 -8.56 -9.296c-4.704 -3.68 -11.44 -8 -20.064 -12.192c-8.848 -4.336 -19.328 -8.56 -31.056 -13.088c-9.36 3.6 -17.872 7.008 -25.408 10.416
c-1.984 0.88 -3.856 1.776 -5.68 2.672c-8.656 4.192 -15.392 8.528 -20.064 12.192c-4.736 3.728 -7.008 6.896 -8.592 9.296c-2.848 4.848 -2.656 9.36 -2.864 9.296c0.992 12.4 -8.304 23.232 -20.72 24.224c-12.368 0.944 -23.216 -8.32 -24.208 -20.72
c0 0 -0.176 -2.736 -0.48 -7.84c-0.192 -5.136 0.384 -13.168 3.536 -22.864c3.248 -9.632 13.104 -27.6 38.384 -44.496c29.6 -14.928 65.472 -32.128 66.08 -31.904c5.056 -2.112 62.736 -25.104 57.776 -36.032c-0.656 -2.16 -4.528 -3.536 -9.904 -5.328
c-5.552 -2.048 -12.08 -3.728 -19.008 -5.376c-3.872 -0.928 -7.872 -1.824 -11.904 -2.8c33.056 -10.816 58 -24.144 68.208 -31.024c0.432 -0.272 0.8 -0.544 1.168 -0.816c2.304 1.472 4.608 3.152 6.944 5.088c12.208 10.56 31.312 40.592 9.696 75.552zM330.544 85.104
c-25.568 18.096 -116.448 43.92 -121.6 45.792c-5.344 1.792 -9.056 4.256 -9.76 5.328c-0.992 2.88 1.168 4.736 1.664 5.2c5.296 5.616 27.664 18.48 38.128 23.2c-25.792 11.408 -53.456 23.296 -64.048 29.424c-7.248 -5.488 -15.76 -12 -21.152 -22.544
c-9.344 -18.336 -9.344 -37.952 -9.344 -37.952c0 -12.864 8.624 -29.648 19.056 -37.6c2.736 -2.272 5.424 -4.176 8.08 -5.84c7.472 -4.624 14.528 -7.072 20.8 -8.976c17.328 -5.056 31.92 -6.864 45.776 -8.384c13.136 -1.6 25.808 -3.136 37.888 -4.608
c4.016 -0.464 37.296 -4.08 46.64 -18.336c3.424 -5.248 5.152 -11.984 5.52 -17.984c0.48 -6.08 -0.176 -11.232 -0.704 -14.72c-0.432 -3.568 -0.928 -5.504 -0.928 -5.504s7.792 3.792 14.048 17.216c17.424 37.616 -9.84 56.144 -10.064 56.288z" />
    <glyph glyph-name="uniE614" unicode="&#xe614;" 
d="M485.677 172.384c6.745 -6.524 9.118 -16.346 6.2 -25.264c-32.484 -99.242 -125.947 -171.137 -235.841 -171.137c-85.2 0 -163.136 43.038 -208.563 113.787c-1.957 3.048 -5.626 4.502 -9.109 3.51l-27.916 -7.955c-6.067 -1.729 -11.73 3.76 -10.191 9.878
l24.149 96.024l4.748 18.993c1.53 6.122 9.116 8.288 13.649 3.898l85.214 -82.502c4.532 -4.387 2.615 -12.034 -3.45 -13.766l-30.844 -8.805c36.953 -52.274 97.011 -83.901 162.313 -83.901c88.13 0 163.038 57.601 189.012 137.145
c5.659 17.331 27.097 23.185 40.202 10.51l0.428 -0.414zM467.837 353.13c-44.983 73.741 -124.624 118.887 -211.802 118.887c-109.972 0 -203.365 -71.896 -235.842 -171.138c-2.918 -8.917 -0.544 -18.739 6.2 -25.262l0.425 -0.411
c13.106 -12.677 34.545 -6.821 40.203 10.513c25.959 79.539 100.814 137.137 189.014 137.137c65.22 0 125.278 -31.545 162.231 -83.82l-30.845 -8.805c-6.065 -1.731 -7.981 -9.378 -3.45 -13.766l85.296 -82.584c4.533 -4.391 12.118 -2.224 13.649 3.898l4.748 18.993
l24.082 96.109c1.533 6.118 -4.132 11.601 -10.197 9.87l-33.712 -9.623zM251.968 242.167l-13.871 -21.062v-0.254h17.855v20.547c0 5.013 0.77 10.274 0.77 10.274h-0.254s-1.93 -5.652 -4.499 -9.504zM388.75 224.032c0 -73.315 -59.433 -132.748 -132.748 -132.748
s-132.748 59.433 -132.748 132.748c0 73.315 59.433 132.748 132.748 132.748s132.748 -59.433 132.748 -132.748zM205.69 199.268h-39.047c0.642 11.818 37.632 17.339 37.632 45.983c0 19.523 -16.31 28.128 -31.338 28.128c-23.887 0 -32.365 -19.778 -32.365 -19.778
l16.697 -11.173s4.88 9.758 13.614 9.758c4.752 0 9.888 -2.699 9.888 -9.119c0 -13.226 -39.689 -19.262 -39.689 -53.172c0 -3.084 0.388 -6.291 1.03 -9.889h63.577v19.262zM289.092 220.851h-10.919v50.989h-27.489l-35.448 -56.002v-13.611h40.715v-22.222h22.222
v22.221h10.919v18.624v0.001zM369.719 180.005v42.899c0 18.624 -10.404 24.791 -23.76 24.791c-8.735 0 -16.44 -3.982 -20.162 -10.535h-0.261s0.261 2.314 0.261 5.652v29.028h-22.222v-91.834h22.222v29.281c0 3.084 0.254 5.913 1.154 8.481
c1.93 5.776 6.421 9.758 13.226 9.758c4.882 0 7.32 -2.569 7.32 -8.734v-38.786h22.222v-0.001z" />
    <glyph glyph-name="uniE615" unicode="&#xe615;" 
d="M268.923 12.039v-44.022c57.19 2.917 109.407 24.43 150.682 58.674l-31.344 31.344c-33.147 -26.404 -74.27 -43.264 -119.338 -45.995v-0.001zM407.567 75.334l31.074 -31.108c42.69 43.399 70.123 101.87 73.377 166.851h-44.005
c-3.237 -52.807 -25.695 -100.32 -60.445 -135.743h-0.001zM431.255 410.805c-42.909 40.246 -99.544 66.076 -162.332 69.195v-44.005c50.649 -3.086 96.341 -23.959 131.241 -56.263l31.091 31.074v-0.001zM467.978 236.991h44.005
c-2.985 59.365 -26.201 113.234 -62.755 155.217l-31.074 -31.09c28.714 -33.923 46.956 -76.951 49.822 -124.127zM44.005 211.094h-44.005c3.136 -62.805 28.95 -119.372 69.212 -162.281l31.073 31.091c-32.322 34.834 -53.212 80.576 -56.28 131.191zM87.843 30.755
c41.948 -36.503 95.852 -59.736 155.217 -62.755v43.989c-47.226 2.9 -90.237 21.176 -124.143 49.856l-31.073 -31.091zM90.001 356.262l-31.343 31.344c-34.243 -41.291 -55.825 -93.424 -58.657 -150.614h44.005c2.715 45.034 19.575 86.173 45.995 119.27z
M243.06 435.995v44.005c-64.947 -3.237 -123.452 -30.652 -166.817 -73.343l31.073 -31.108c35.407 34.766 82.919 57.275 135.743 60.445zM87.843 236.688v89.68l34.379 -34.412v-46.653l-21.48 -21.868l-12.898 13.252zM197.958 234.344l17.215 -17.214l-17.214 -17.181
h-73.394l-17.215 17.181l17.215 17.214h73.394h-0.001zM199.947 245.236v46.669l34.429 34.379v-89.647l-12.915 -13.185zM234.376 197.622v-89.731l-34.429 34.446v46.704l21.514 21.514l12.915 -12.932v-0.001zM273.055 237.278v89.158l34.412 -33.94v-46.636
l-21.497 -21.834zM413.316 332.876l-34.412 -34.344h-64.829l-34.412 34.344h133.653zM413.316 101.399h-133.636l34.412 34.344h64.845zM383.22 234.344l17.214 -17.214l-17.214 -17.181h-73.427l-17.197 17.181l17.197 17.214h73.427zM419.605 197.841v-89.613
l-34.412 34.378v46.636l21.497 21.497z" />
  </font>
</defs>
</svg>
